<svg class="rich-terminal" viewBox="0 0 1190 684.4" xmlns="http://www.w3.org/2000/svg">
    <!-- Generated with Rich https://www.textualize.io -->
    <style>

    @font-face {
        font-family: "Fira Code";
        src: local("FiraCode-Regular"),
                url("https://cdnjs.cloudflare.com/ajax/libs/firacode/6.2.0/woff2/FiraCode-Regular.woff2") format("woff2"),
                url("https://cdnjs.cloudflare.com/ajax/libs/firacode/6.2.0/woff/FiraCode-Regular.woff") format("woff");
        font-style: normal;
        font-weight: 400;
    }
    @font-face {
        font-family: "Fira Code";
        src: local("FiraCode-Bold"),
                url("https://cdnjs.cloudflare.com/ajax/libs/firacode/6.2.0/woff2/FiraCode-Bold.woff2") format("woff2"),
                url("https://cdnjs.cloudflare.com/ajax/libs/firacode/6.2.0/woff/FiraCode-Bold.woff") format("woff");
        font-style: bold;
        font-weight: 700;
    }

    .terminal-3027629953-matrix {
        font-family: Fira Code, "Apple SD Gothic Neo", monospace;
        font-size: 20px;
        line-height: 24.4px;
        font-variant-east-asian: full-width;
    }

    .terminal-3027629953-title {
        font-size: 18px;
        font-weight: bold;
        font-family: arial;
    }

    .terminal-3027629953-r1 { fill: #e0e0e0 }
.terminal-3027629953-r2 { fill: #1a1a1a;font-weight: bold }
.terminal-3027629953-r3 { fill: #c5c8c6 }
.terminal-3027629953-r4 { fill: #b93c5b;font-weight: bold }
    </style>

    <defs>
    <clipPath id="terminal-3027629953-clip-terminal">
      <rect x="0" y="0" width="1170.1999999999998" height="633.4" />
    </clipPath>
    <clipPath id="terminal-3027629953-line-0">
    <rect x="0" y="1.5" width="1171.2" height="24.65"/>
            </clipPath>
<clipPath id="terminal-3027629953-line-1">
    <rect x="0" y="25.9" width="1171.2" height="24.65"/>
            </clipPath>
<clipPath id="terminal-3027629953-line-2">
    <rect x="0" y="50.3" width="1171.2" height="24.65"/>
            </clipPath>
<clipPath id="terminal-3027629953-line-3">
    <rect x="0" y="74.7" width="1171.2" height="24.65"/>
            </clipPath>
<clipPath id="terminal-3027629953-line-4">
    <rect x="0" y="99.1" width="1171.2" height="24.65"/>
            </clipPath>
<clipPath id="terminal-3027629953-line-5">
    <rect x="0" y="123.5" width="1171.2" height="24.65"/>
            </clipPath>
<clipPath id="terminal-3027629953-line-6">
    <rect x="0" y="147.9" width="1171.2" height="24.65"/>
            </clipPath>
<clipPath id="terminal-3027629953-line-7">
    <rect x="0" y="172.3" width="1171.2" height="24.65"/>
            </clipPath>
<clipPath id="terminal-3027629953-line-8">
    <rect x="0" y="196.7" width="1171.2" height="24.65"/>
            </clipPath>
<clipPath id="terminal-3027629953-line-9">
    <rect x="0" y="221.1" width="1171.2" height="24.65"/>
            </clipPath>
<clipPath id="terminal-3027629953-line-10">
    <rect x="0" y="245.5" width="1171.2" height="24.65"/>
            </clipPath>
<clipPath id="terminal-3027629953-line-11">
    <rect x="0" y="269.9" width="1171.2" height="24.65"/>
            </clipPath>
<clipPath id="terminal-3027629953-line-12">
    <rect x="0" y="294.3" width="1171.2" height="24.65"/>
            </clipPath>
<clipPath id="terminal-3027629953-line-13">
    <rect x="0" y="318.7" width="1171.2" height="24.65"/>
            </clipPath>
<clipPath id="terminal-3027629953-line-14">
    <rect x="0" y="343.1" width="1171.2" height="24.65"/>
            </clipPath>
<clipPath id="terminal-3027629953-line-15">
    <rect x="0" y="367.5" width="1171.2" height="24.65"/>
            </clipPath>
<clipPath id="terminal-3027629953-line-16">
    <rect x="0" y="391.9" width="1171.2" height="24.65"/>
            </clipPath>
<clipPath id="terminal-3027629953-line-17">
    <rect x="0" y="416.3" width="1171.2" height="24.65"/>
            </clipPath>
<clipPath id="terminal-3027629953-line-18">
    <rect x="0" y="440.7" width="1171.2" height="24.65"/>
            </clipPath>
<clipPath id="terminal-3027629953-line-19">
    <rect x="0" y="465.1" width="1171.2" height="24.65"/>
            </clipPath>
<clipPath id="terminal-3027629953-line-20">
    <rect x="0" y="489.5" width="1171.2" height="24.65"/>
            </clipPath>
<clipPath id="terminal-3027629953-line-21">
    <rect x="0" y="513.9" width="1171.2" height="24.65"/>
            </clipPath>
<clipPath id="terminal-3027629953-line-22">
    <rect x="0" y="538.3" width="1171.2" height="24.65"/>
            </clipPath>
<clipPath id="terminal-3027629953-line-23">
    <rect x="0" y="562.7" width="1171.2" height="24.65"/>
            </clipPath>
<clipPath id="terminal-3027629953-line-24">
    <rect x="0" y="587.1" width="1171.2" height="24.65"/>
            </clipPath>
    </defs>

    <rect fill="#292929" stroke="rgba(255,255,255,0.35)" stroke-width="1" x="1" y="1" width="1188" height="682.4" rx="8"/><path transform="translate(594 27) scale(0.0102564 -0.0102564)" d="M1114 954Q1114 793 1045.5 696.0Q977 599 857.0 555.0Q737 511 581 511H405V0H231V1377H583Q829 1377 971.5 1274.0Q1114 1171 1114 954ZM928 952Q928 1058 886.0 1121.0Q844 1184 770.5 1211.5Q697 1239 604 1239H405V651H597Q693 651 768.0 677.0Q843 703 885.5 768.5Q928 834 928 952Z"/><path transform="translate(606.2 27) scale(0.0102564 -0.0102564)" d="M1077 1053 707 -7Q670 -114 613.5 -203.0Q557 -292 466.5 -350.5Q376 -409 237 -423L211 -289Q320 -271 383.0 -234.0Q446 -197 482.5 -139.5Q519 -82 547 0H491L123 1053H303L605 128L903 1053Z"/><path transform="translate(618.4 27) scale(0.0102564 -0.0102564)" d="M1037 53Q983 17 906.0 -3.0Q829 -23 755 -23Q585 -23 493.0 66.0Q401 155 401 295V923H159V1053H401V1292L569 1312V1053H933L913 923H569V297Q569 209 615.5 163.0Q662 117 770 117Q829 117 879.0 131.0Q929 145 972 167Z"/><path transform="translate(630.6 27) scale(0.0102564 -0.0102564)" d="M895 1075Q945 1075 992.0 1053.0Q1039 1031 1069.0 968.0Q1099 905 1099 784V0H943V757Q943 856 931.0 900.0Q919 944 862 944Q815 944 768.0 914.5Q721 885 678 818V0H521V757Q521 856 509.0 900.0Q497 944 440 944Q391 944 345.0 914.5Q299 885 256 818V0H101V1053H233L243 931Q286 992 339.5 1033.5Q393 1075 472 1075Q532 1075 585.0 1046.5Q638 1018 663 936Q706 998 760.0 1036.5Q814 1075 895 1075Z"/><path transform="translate(642.8 27) scale(0.0102564 -0.0102564)" d="M369 1053V307Q369 203 412.0 157.0Q455 111 546 111Q633 111 710.5 160.5Q788 210 831 278V1053H999V0H856L842 142Q780 62 688.5 19.5Q597 -23 505 -23Q352 -23 276.5 58.5Q201 140 201 287V1053Z"/><path transform="translate(655 27) scale(0.0102564 -0.0102564)" d="M303 0H111L500 556L159 1053H358L602 661L849 1053H1041L701 563L1089 0H883L595 452Z"/><path transform="translate(667.2 27) scale(0.0102564 -0.0102564)" d="M867 351H322L212 0H41L489 1377H711L1159 0H977ZM367 495H822L596 1231Z"/><path transform="translate(679.4 27) scale(0.0102564 -0.0102564)" d="M672 1075Q812 1075 895.5 1007.0Q979 939 1016.0 815.5Q1053 692 1053 527Q1053 368 1008.5 243.5Q964 119 874.0 48.0Q784 -23 647 -23Q474 -23 369 99V-403L201 -424V1053H344L358 906Q416 987 496.0 1031.0Q576 1075 672 1075ZM632 940Q545 940 478.0 887.5Q411 835 369 771V249Q410 188 472.5 152.5Q535 117 610 117Q741 117 807.0 217.0Q873 317 873 528Q873 940 632 940Z"/><path transform="translate(691.6 27) scale(0.0102564 -0.0102564)" d="M672 1075Q812 1075 895.5 1007.0Q979 939 1016.0 815.5Q1053 692 1053 527Q1053 368 1008.5 243.5Q964 119 874.0 48.0Q784 -23 647 -23Q474 -23 369 99V-403L201 -424V1053H344L358 906Q416 987 496.0 1031.0Q576 1075 672 1075ZM632 940Q545 940 478.0 887.5Q411 835 369 771V249Q410 188 472.5 152.5Q535 117 610 117Q741 117 807.0 217.0Q873 317 873 528Q873 940 632 940Z"/>
            <g transform="translate(26,22)">
            <circle cx="0" cy="0" r="7" fill="#ff5f57"/>
            <circle cx="22" cy="0" r="7" fill="#febc2e"/>
            <circle cx="44" cy="0" r="7" fill="#28c840"/>
            </g>
        
    <g transform="translate(9, 41)" clip-path="url(#terminal-3027629953-clip-terminal)">
    <rect fill="#4ebf71" x="36.6" y="1.5" width="36.6" height="24.65" shape-rendering="crispEdges"/><rect fill="#4ebf71" x="878.4" y="25.9" width="48.8" height="24.65" shape-rendering="crispEdges"/><rect fill="#121212" x="976" y="25.9" width="195.2" height="24.65" shape-rendering="crispEdges"/><rect fill="#121212" x="976" y="50.3" width="195.2" height="24.65" shape-rendering="crispEdges"/><rect fill="#121212" x="976" y="74.7" width="195.2" height="24.65" shape-rendering="crispEdges"/><rect fill="#121212" x="976" y="99.1" width="195.2" height="24.65" shape-rendering="crispEdges"/><rect fill="#121212" x="976" y="123.5" width="195.2" height="24.65" shape-rendering="crispEdges"/><rect fill="#121212" x="976" y="147.9" width="195.2" height="24.65" shape-rendering="crispEdges"/><rect fill="#121212" x="976" y="172.3" width="195.2" height="24.65" shape-rendering="crispEdges"/><rect fill="#121212" x="976" y="196.7" width="195.2" height="24.65" shape-rendering="crispEdges"/><rect fill="#121212" x="976" y="221.1" width="195.2" height="24.65" shape-rendering="crispEdges"/><rect fill="#121212" x="976" y="245.5" width="195.2" height="24.65" shape-rendering="crispEdges"/><rect fill="#121212" x="976" y="269.9" width="195.2" height="24.65" shape-rendering="crispEdges"/><rect fill="#121212" x="976" y="294.3" width="195.2" height="24.65" shape-rendering="crispEdges"/><rect fill="#121212" x="976" y="318.7" width="195.2" height="24.65" shape-rendering="crispEdges"/><rect fill="#121212" x="976" y="343.1" width="195.2" height="24.65" shape-rendering="crispEdges"/><rect fill="#121212" x="976" y="367.5" width="195.2" height="24.65" shape-rendering="crispEdges"/><rect fill="#121212" x="976" y="391.9" width="195.2" height="24.65" shape-rendering="crispEdges"/><rect fill="#121212" x="976" y="416.3" width="195.2" height="24.65" shape-rendering="crispEdges"/><rect fill="#121212" x="976" y="440.7" width="195.2" height="24.65" shape-rendering="crispEdges"/><rect fill="#121212" x="976" y="465.1" width="195.2" height="24.65" shape-rendering="crispEdges"/><rect fill="#121212" x="976" y="489.5" width="195.2" height="24.65" shape-rendering="crispEdges"/><rect fill="#121212" x="976" y="513.9" width="195.2" height="24.65" shape-rendering="crispEdges"/><rect fill="#121212" x="976" y="538.3" width="195.2" height="24.65" shape-rendering="crispEdges"/><rect fill="#121212" x="976" y="562.7" width="195.2" height="24.65" shape-rendering="crispEdges"/><rect fill="#121212" x="976" y="587.1" width="195.2" height="24.65" shape-rendering="crispEdges"/>
    <g class="terminal-3027629953-matrix">
    <path fill="#1a1a1a" transform="translate(36.6 20) scale(0.0102564 -0.0102564)" d="M312 -246V1646H928V1410H610V-12H928V-246Z"/><path fill="#1a1a1a" transform="translate(48.8 20) scale(0.0102564 -0.0102564)" d="M731 1158V747H1134V503H731V92H467V503H66V747H467V1158Z"/><path fill="#1a1a1a" transform="translate(61 20) scale(0.0102564 -0.0102564)" d="M888 1646V-246H272V-10H590V1410H272V1646Z"/><path fill="#1a1a1a" transform="translate(878.4 44.4) scale(0.0102564 -0.0102564)" d="M312 -246V1646H928V1410H610V-12H928V-246Z"/><path fill="#1a1a1a" transform="translate(891.82 47.671) scale(0.0253873 -0.0253873)" d="M540 561V652H23V561ZM497 372C497 466 407 536 287 536C164 536 75 466 75 372C75 277 165 210 287 210C407 210 497 277 497 372ZM155 694H420V783H155ZM727 812H610V150H727V427H851V524H727ZM748 -58V35H257V177H139V-58ZM191 372C191 414 235 443 287 443C338 443 383 414 383 372C383 332 338 304 287 304C235 304 191 332 191 372Z"/><path fill="#1a1a1a" transform="translate(915 44.4) scale(0.0102564 -0.0102564)" d="M888 1646V-246H272V-10H590V1410H272V1646Z"/><path fill="#b93c5b" transform="translate(780.8 630) scale(0.0102564 -0.0102564)" d="M566 192Q645 192 693.5 217.0Q742 242 742 292Q742 326 723.0 349.0Q704 372 650.0 393.0Q596 414 490 443Q344 482 252.5 555.0Q161 628 161 769Q161 911 279.5 1004.0Q398 1097 622 1097Q764 1097 869.5 1060.5Q975 1024 1052 968L926 782Q860 823 784.0 847.5Q708 872 631 872Q479 872 479 790Q479 763 498.5 743.5Q518 724 572.0 703.5Q626 683 730 653Q833 624 909.5 586.0Q986 548 1028.0 484.5Q1070 421 1070 317Q1070 201 1001.0 122.5Q932 44 818.0 5.0Q704 -34 568 -34Q414 -34 296.0 10.0Q178 54 95 126L254 304Q316 256 394.5 224.0Q473 192 566 192Z"/><path fill="#b93c5b" transform="translate(793 630) scale(0.0102564 -0.0102564)" d="M566 192Q645 192 693.5 217.0Q742 242 742 292Q742 326 723.0 349.0Q704 372 650.0 393.0Q596 414 490 443Q344 482 252.5 555.0Q161 628 161 769Q161 911 279.5 1004.0Q398 1097 622 1097Q764 1097 869.5 1060.5Q975 1024 1052 968L926 782Q860 823 784.0 847.5Q708 872 631 872Q479 872 479 790Q479 763 498.5 743.5Q518 724 572.0 703.5Q626 683 730 653Q833 624 909.5 586.0Q986 548 1028.0 484.5Q1070 421 1070 317Q1070 201 1001.0 122.5Q932 44 818.0 5.0Q704 -34 568 -34Q414 -34 296.0 10.0Q178 54 95 126L254 304Q316 256 394.5 224.0Q473 192 566 192Z"/><path fill="#b93c5b" transform="translate(805.2 630) scale(0.0102564 -0.0102564)" d="M456 1515V957Q589 1097 768 1097Q910 1097 985.0 1014.0Q1060 931 1060 780V0H744V692Q744 788 722.5 826.0Q701 864 642 864Q592 864 546.5 829.5Q501 795 456 735V0H140V1484Z"/><path fill="#b93c5b" transform="translate(817.4 630) scale(0.0102564 -0.0102564)" d="M389 868Q389 925 417.5 972.5Q446 1020 494.0 1049.0Q542 1078 600 1078Q688 1078 748.5 1015.5Q809 953 809 868Q809 783 748.5 721.0Q688 659 600 659Q512 659 450.5 721.0Q389 783 389 868ZM389 177Q389 262 450.5 323.0Q512 384 600 384Q688 384 748.5 323.0Q809 262 809 177Q809 91 748.5 28.5Q688 -34 600 -34Q512 -34 450.5 28.5Q389 91 389 177Z"/><path fill="#b93c5b" transform="translate(829.6 630) scale(0.0102564 -0.0102564)" d="M728 1097Q867 1097 952.0 1028.0Q1037 959 1076.5 833.0Q1116 707 1116 534Q1116 370 1068.0 241.5Q1020 113 929.0 39.5Q838 -34 708 -34Q553 -34 456 77V-410L140 -443V1062H420L434 943Q499 1026 576.0 1061.5Q653 1097 728 1097ZM630 864Q575 864 533.0 831.0Q491 798 456 741V293Q489 244 525.5 221.0Q562 198 612 198Q696 198 743.0 274.5Q790 351 790 530Q790 662 771.0 734.5Q752 807 716.0 835.5Q680 864 630 864Z"/><path fill="#b93c5b" transform="translate(841.8 630) scale(0.0102564 -0.0102564)" d="M694 1484V334Q694 270 730.5 242.5Q767 215 831 215Q872 215 910.0 224.5Q948 234 981 247L1057 36Q1003 8 927.0 -13.0Q851 -34 750 -34Q558 -34 468.0 76.5Q378 187 378 373V1268H65V1484Z"/><path fill="#b93c5b" transform="translate(854 630) scale(0.0102564 -0.0102564)" d="M1034 306Q1034 246 1050.5 219.0Q1067 192 1104 178L1039 -30Q945 -21 880.5 11.5Q816 44 779 110Q718 37 623.0 1.5Q528 -34 429 -34Q265 -34 167.5 59.5Q70 153 70 300Q70 473 205.5 567.0Q341 661 587 661H730V701Q730 864 520 864Q469 864 389.0 849.5Q309 835 229 808L156 1018Q259 1057 370.5 1077.0Q482 1097 570 1097Q807 1097 920.5 1000.5Q1034 904 1034 722ZM538 192Q589 192 645.0 222.5Q701 253 730 309V481H652Q520 481 458.0 440.5Q396 400 396 322Q396 261 433.5 226.5Q471 192 538 192Z"/><path fill="#b93c5b" transform="translate(866.2 630) scale(0.0102564 -0.0102564)" d="M1144 1062 790 0Q720 -211 578.5 -321.0Q437 -431 195 -445L159 -222Q264 -209 328.5 -183.0Q393 -157 432.5 -112.5Q472 -68 501 0H393L56 1062H390L596 202L820 1062Z"/><path fill="#b93c5b" transform="translate(878.4 630) scale(0.0102564 -0.0102564)" d="M1083 1232 1157 1000Q1101 978 1026.0 968.0Q951 958 851 958Q951 915 1003.5 851.5Q1056 788 1056 685Q1056 582 1001.0 501.5Q946 421 845.0 375.0Q744 329 606 329Q540 329 483 341Q466 332 457.0 315.0Q448 298 448 280Q448 255 468.5 235.0Q489 215 565 215H739Q863 215 953.5 175.0Q1044 135 1094.0 66.0Q1144 -3 1144 -92Q1144 -255 1001.0 -349.0Q858 -443 576 -443Q372 -443 260.5 -401.5Q149 -360 105.5 -283.5Q62 -207 62 -102H342Q342 -148 360.5 -177.5Q379 -207 431.5 -221.0Q484 -235 584 -235Q685 -235 738.0 -219.0Q791 -203 810.5 -175.5Q830 -148 830 -114Q830 -67 793.0 -38.0Q756 -9 676 -9H507Q335 -9 257.0 54.5Q179 118 179 203Q179 262 210.5 315.0Q242 368 299 404Q197 458 153.0 531.5Q109 605 109 708Q109 828 170.0 914.5Q231 1001 338.5 1048.0Q446 1095 584 1095Q703 1093 791.0 1111.5Q879 1130 949.0 1162.5Q1019 1195 1083 1232ZM592 890Q517 890 473.0 842.5Q429 795 429 712Q429 624 474.0 577.0Q519 530 592 530Q754 530 754 716Q754 890 592 890Z"/><path fill="#b93c5b" transform="translate(890.6 630) scale(0.0102564 -0.0102564)" d="M150 0V212H290V852H150V1062H531L589 823Q646 960 734.5 1027.0Q823 1094 951 1094Q1005 1094 1047.0 1085.5Q1089 1077 1126 1062L1067 618H869V814Q779 798 711.0 716.5Q643 635 606 516V212H816V0Z"/><path fill="#b93c5b" transform="translate(902.8 630) scale(0.0102564 -0.0102564)" d="M600 1097Q764 1097 879.0 1027.0Q994 957 1055.0 830.5Q1116 704 1116 534Q1116 268 980.0 117.0Q844 -34 600 -34Q356 -34 220.0 115.0Q84 264 84 532Q84 701 145.5 828.0Q207 955 322.5 1026.0Q438 1097 600 1097ZM600 864Q503 864 456.5 784.5Q410 705 410 532Q410 356 456.5 277.0Q503 198 600 198Q697 198 743.5 277.0Q790 356 790 534Q790 706 743.5 785.0Q697 864 600 864Z"/><path fill="#b93c5b" transform="translate(915 630) scale(0.0102564 -0.0102564)" d="M456 1062V335Q456 258 484.5 229.0Q513 200 564 200Q613 200 662.0 231.0Q711 262 744 315V1062H1060V0H784L770 124Q716 46 628.0 6.0Q540 -34 444 -34Q290 -34 215.0 55.5Q140 145 140 296V1062Z"/><path fill="#b93c5b" transform="translate(927.2 630) scale(0.0102564 -0.0102564)" d="M140 0V1062H416L438 939Q509 1019 588.0 1058.0Q667 1097 768 1097Q904 1097 982.0 1014.0Q1060 931 1060 780V0H744V689Q744 787 722.5 825.5Q701 864 642 864Q592 864 546.5 832.0Q501 800 456 743V0Z"/><path fill="#b93c5b" transform="translate(939.4 630) scale(0.0102564 -0.0102564)" d="M744 1517 1060 1484V0H780L764 117Q720 55 647.0 10.5Q574 -34 470 -34Q338 -34 251.5 37.0Q165 108 122.5 235.5Q80 363 80 534Q80 698 131.0 825.0Q182 952 277.0 1024.5Q372 1097 503 1097Q646 1097 744 999ZM588 866Q506 866 456.0 788.5Q406 711 406 532Q406 401 427.0 328.5Q448 256 485.0 227.0Q522 198 570 198Q623 198 666.5 231.0Q710 264 744 321V779Q711 820 674.0 843.0Q637 866 588 866Z"/><path fill="#e0e0e0" transform="translate(963.8 630) scale(0.0102564 -0.0102564)" d="M1035 137V0H240V137H579V1195L263 1003L190 1123L600 1377H747V137Z"/><path fill="#e0e0e0" transform="translate(976 630) scale(0.0102564 -0.0102564)" d="M879 860V469H1057V335H879V0H717L716 335H144V457L548 1399L688 1340L322 469H717L739 860Z"/><path fill="#e0e0e0" transform="translate(988.2 630) scale(0.0102564 -0.0102564)" d="M437 861Q437 928 483.5 975.0Q530 1022 598 1022Q668 1022 714.5 975.0Q761 928 761 861Q761 794 714.5 746.0Q668 698 598 698Q530 698 483.5 746.0Q437 794 437 861ZM437 140Q437 205 483.5 253.0Q530 301 598 301Q668 301 714.5 253.0Q761 205 761 140Q761 72 714.5 24.5Q668 -23 598 -23Q530 -23 483.5 24.5Q437 72 437 140Z"/><path fill="#e0e0e0" transform="translate(1000.4 630) scale(0.0102564 -0.0102564)" d="M600 1399Q822 1399 936.5 1215.0Q1051 1031 1051 689Q1051 346 936.5 161.5Q822 -23 600 -23Q378 -23 263.5 161.5Q149 346 149 689Q149 1031 263.5 1215.0Q378 1399 600 1399ZM600 1264Q473 1264 400.0 1129.5Q327 995 327 689Q327 460 362 329L783 1175Q720 1264 600 1264ZM874 689Q874 920 838 1050L419 201Q482 113 600 113Q728 113 801.0 248.0Q874 383 874 689Z"/><path fill="#e0e0e0" transform="translate(1012.6 630) scale(0.0102564 -0.0102564)" d="M579 1397Q804 1397 916.0 1245.0Q1028 1093 1028 834Q1028 625 985.5 481.0Q943 337 854.0 240.0Q765 143 626.0 77.0Q487 11 294 -42L255 86Q446 139 574.5 212.0Q703 285 771.0 395.5Q839 506 849 669Q789 596 710.0 550.5Q631 505 527 505Q412 505 323.5 557.5Q235 610 184.0 708.5Q133 807 133 945Q133 1092 193.0 1193.0Q253 1294 354.0 1345.5Q455 1397 579 1397ZM307 939Q307 781 373.5 710.0Q440 639 558 639Q651 639 721.5 687.0Q792 735 853 818Q850 1061 783.0 1161.0Q716 1261 579 1261Q307 1261 307 939Z"/><path fill="#e0e0e0" transform="translate(1037 630) scale(0.0102564 -0.0102564)" d="M539 1399Q669 1399 762.0 1348.5Q855 1298 904.5 1211.0Q954 1124 954 1015Q954 920 921.0 829.5Q888 739 815.5 639.5Q743 540 625.0 419.0Q507 298 337 143H986L965 0H146V137Q341 324 464.5 453.0Q588 582 656.0 675.5Q724 769 750.5 847.0Q777 925 777 1009Q777 1125 712.0 1192.0Q647 1259 531 1259Q429 1259 364.0 1224.0Q299 1189 234 1112L118 1202Q200 1302 299.5 1350.5Q399 1399 539 1399Z"/><path fill="#e0e0e0" transform="translate(1049.2 630) scale(0.0102564 -0.0102564)" d="M600 1399Q822 1399 936.5 1215.0Q1051 1031 1051 689Q1051 346 936.5 161.5Q822 -23 600 -23Q378 -23 263.5 161.5Q149 346 149 689Q149 1031 263.5 1215.0Q378 1399 600 1399ZM600 1264Q473 1264 400.0 1129.5Q327 995 327 689Q327 460 362 329L783 1175Q720 1264 600 1264ZM874 689Q874 920 838 1050L419 201Q482 113 600 113Q728 113 801.0 248.0Q874 383 874 689Z"/><path fill="#e0e0e0" transform="translate(1061.4 630) scale(0.0102564 -0.0102564)" d="M539 1399Q669 1399 762.0 1348.5Q855 1298 904.5 1211.0Q954 1124 954 1015Q954 920 921.0 829.5Q888 739 815.5 639.5Q743 540 625.0 419.0Q507 298 337 143H986L965 0H146V137Q341 324 464.5 453.0Q588 582 656.0 675.5Q724 769 750.5 847.0Q777 925 777 1009Q777 1125 712.0 1192.0Q647 1259 531 1259Q429 1259 364.0 1224.0Q299 1189 234 1112L118 1202Q200 1302 299.5 1350.5Q399 1399 539 1399Z"/><path fill="#e0e0e0" transform="translate(1073.6 630) scale(0.0102564 -0.0102564)" d="M671 1399Q750 1399 817.5 1378.5Q885 1358 943 1319L877 1205Q781 1263 668 1263Q509 1263 421.0 1113.0Q333 963 327 711Q393 809 475.5 853.0Q558 897 659 897Q765 897 854.0 849.5Q943 802 996.0 706.0Q1049 610 1049 463Q1049 311 990.5 202.0Q932 93 833.5 35.0Q735 -23 616 -23Q449 -23 348.5 60.0Q248 143 203.5 294.5Q159 446 159 651Q159 879 219.5 1047.0Q280 1215 395.0 1307.0Q510 1399 671 1399ZM633 759Q534 759 457.0 705.0Q380 651 329 564Q334 331 401.5 222.0Q469 113 615 113Q746 113 811.5 205.5Q877 298 877 459Q877 628 810.0 693.5Q743 759 633 759Z"/><path fill="#e0e0e0" transform="translate(1085.8 630) scale(0.0102564 -0.0102564)" d="M199 553V699H1001V553Z"/><path fill="#e0e0e0" transform="translate(1098 630) scale(0.0102564 -0.0102564)" d="M600 1399Q822 1399 936.5 1215.0Q1051 1031 1051 689Q1051 346 936.5 161.5Q822 -23 600 -23Q378 -23 263.5 161.5Q149 346 149 689Q149 1031 263.5 1215.0Q378 1399 600 1399ZM600 1264Q473 1264 400.0 1129.5Q327 995 327 689Q327 460 362 329L783 1175Q720 1264 600 1264ZM874 689Q874 920 838 1050L419 201Q482 113 600 113Q728 113 801.0 248.0Q874 383 874 689Z"/><path fill="#e0e0e0" transform="translate(1110.2 630) scale(0.0102564 -0.0102564)" d="M671 1399Q750 1399 817.5 1378.5Q885 1358 943 1319L877 1205Q781 1263 668 1263Q509 1263 421.0 1113.0Q333 963 327 711Q393 809 475.5 853.0Q558 897 659 897Q765 897 854.0 849.5Q943 802 996.0 706.0Q1049 610 1049 463Q1049 311 990.5 202.0Q932 93 833.5 35.0Q735 -23 616 -23Q449 -23 348.5 60.0Q248 143 203.5 294.5Q159 446 159 651Q159 879 219.5 1047.0Q280 1215 395.0 1307.0Q510 1399 671 1399ZM633 759Q534 759 457.0 705.0Q380 651 329 564Q334 331 401.5 222.0Q469 113 615 113Q746 113 811.5 205.5Q877 298 877 459Q877 628 810.0 693.5Q743 759 633 759Z"/><path fill="#e0e0e0" transform="translate(1122.4 630) scale(0.0102564 -0.0102564)" d="M199 553V699H1001V553Z"/><path fill="#e0e0e0" transform="translate(1134.6 630) scale(0.0102564 -0.0102564)" d="M1035 137V0H240V137H579V1195L263 1003L190 1123L600 1377H747V137Z"/><path fill="#e0e0e0" transform="translate(1146.8 630) scale(0.0102564 -0.0102564)" d="M537 1399Q667 1399 762.0 1352.0Q857 1305 908.5 1227.0Q960 1149 960 1055Q960 971 923.0 903.5Q886 836 825.0 792.0Q764 748 691 734Q772 728 843.5 688.5Q915 649 959.5 576.0Q1004 503 1004 397Q1004 278 944.0 182.5Q884 87 776.5 32.0Q669 -23 526 -23Q410 -23 296.0 21.0Q182 65 103 161L216 253Q275 184 356.5 150.0Q438 116 522 116Q666 116 747.0 191.5Q828 267 828 397Q828 544 746.5 601.0Q665 658 543 658H427L448 791H529Q596 791 655.5 817.0Q715 843 753.0 896.0Q791 949 791 1031Q791 1145 715.0 1205.0Q639 1265 531 1265Q441 1265 374.0 1233.5Q307 1202 239 1138L146 1241Q234 1324 333.0 1361.5Q432 1399 537 1399Z"/>
    </g>
    </g>
</svg>
