<svg class="rich-terminal" viewBox="0 0 1116 684.4" xmlns="http://www.w3.org/2000/svg">
    <!-- Generated with Rich https://www.textualize.io -->
    <style>

    @font-face {
        font-family: "Fira Code";
        src: local("FiraCode-Regular"),
                url("https://cdnjs.cloudflare.com/ajax/libs/firacode/6.2.0/woff2/FiraCode-Regular.woff2") format("woff2"),
                url("https://cdnjs.cloudflare.com/ajax/libs/firacode/6.2.0/woff/FiraCode-Regular.woff") format("woff");
        font-style: normal;
        font-weight: 400;
    }
    @font-face {
        font-family: "Fira Code";
        src: local("FiraCode-Bold"),
                url("https://cdnjs.cloudflare.com/ajax/libs/firacode/6.2.0/woff2/FiraCode-Bold.woff2") format("woff2"),
                url("https://cdnjs.cloudflare.com/ajax/libs/firacode/6.2.0/woff/FiraCode-Bold.woff") format("woff");
        font-style: bold;
        font-weight: 700;
    }

    .terminal-2373247988-matrix {
        font-family: Fira Code, "Apple SD Gothic Neo", monospace;
        font-size: 20px;
        line-height: 24.4px;
        font-variant-east-asian: full-width;
    }

    .terminal-2373247988-title {
        font-size: 18px;
        font-weight: bold;
        font-family: arial;
    }

    .terminal-2373247988-r1 { fill: #e0e0e0 }
.terminal-2373247988-r2 { fill: #1a1a1a;font-weight: bold }
.terminal-2373247988-r3 { fill: #c5c8c6 }
.terminal-2373247988-r4 { fill: #b93c5b;font-weight: bold }
    </style>

    <defs>
    <clipPath id="terminal-2373247988-clip-terminal">
      <rect x="0" y="0" width="1097.0" height="633.4" />
    </clipPath>
    <clipPath id="terminal-2373247988-line-0">
    <rect x="0" y="1.5" width="1098" height="24.65"/>
            </clipPath>
<clipPath id="terminal-2373247988-line-1">
    <rect x="0" y="25.9" width="1098" height="24.65"/>
            </clipPath>
<clipPath id="terminal-2373247988-line-2">
    <rect x="0" y="50.3" width="1098" height="24.65"/>
            </clipPath>
<clipPath id="terminal-2373247988-line-3">
    <rect x="0" y="74.7" width="1098" height="24.65"/>
            </clipPath>
<clipPath id="terminal-2373247988-line-4">
    <rect x="0" y="99.1" width="1098" height="24.65"/>
            </clipPath>
<clipPath id="terminal-2373247988-line-5">
    <rect x="0" y="123.5" width="1098" height="24.65"/>
            </clipPath>
<clipPath id="terminal-2373247988-line-6">
    <rect x="0" y="147.9" width="1098" height="24.65"/>
            </clipPath>
<clipPath id="terminal-2373247988-line-7">
    <rect x="0" y="172.3" width="1098" height="24.65"/>
            </clipPath>
<clipPath id="terminal-2373247988-line-8">
    <rect x="0" y="196.7" width="1098" height="24.65"/>
            </clipPath>
<clipPath id="terminal-2373247988-line-9">
    <rect x="0" y="221.1" width="1098" height="24.65"/>
            </clipPath>
<clipPath id="terminal-2373247988-line-10">
    <rect x="0" y="245.5" width="1098" height="24.65"/>
            </clipPath>
<clipPath id="terminal-2373247988-line-11">
    <rect x="0" y="269.9" width="1098" height="24.65"/>
            </clipPath>
<clipPath id="terminal-2373247988-line-12">
    <rect x="0" y="294.3" width="1098" height="24.65"/>
            </clipPath>
<clipPath id="terminal-2373247988-line-13">
    <rect x="0" y="318.7" width="1098" height="24.65"/>
            </clipPath>
<clipPath id="terminal-2373247988-line-14">
    <rect x="0" y="343.1" width="1098" height="24.65"/>
            </clipPath>
<clipPath id="terminal-2373247988-line-15">
    <rect x="0" y="367.5" width="1098" height="24.65"/>
            </clipPath>
<clipPath id="terminal-2373247988-line-16">
    <rect x="0" y="391.9" width="1098" height="24.65"/>
            </clipPath>
<clipPath id="terminal-2373247988-line-17">
    <rect x="0" y="416.3" width="1098" height="24.65"/>
            </clipPath>
<clipPath id="terminal-2373247988-line-18">
    <rect x="0" y="440.7" width="1098" height="24.65"/>
            </clipPath>
<clipPath id="terminal-2373247988-line-19">
    <rect x="0" y="465.1" width="1098" height="24.65"/>
            </clipPath>
<clipPath id="terminal-2373247988-line-20">
    <rect x="0" y="489.5" width="1098" height="24.65"/>
            </clipPath>
<clipPath id="terminal-2373247988-line-21">
    <rect x="0" y="513.9" width="1098" height="24.65"/>
            </clipPath>
<clipPath id="terminal-2373247988-line-22">
    <rect x="0" y="538.3" width="1098" height="24.65"/>
            </clipPath>
<clipPath id="terminal-2373247988-line-23">
    <rect x="0" y="562.7" width="1098" height="24.65"/>
            </clipPath>
<clipPath id="terminal-2373247988-line-24">
    <rect x="0" y="587.1" width="1098" height="24.65"/>
            </clipPath>
    </defs>

    <rect fill="#292929" stroke="rgba(255,255,255,0.35)" stroke-width="1" x="1" y="1" width="1114" height="682.4" rx="8"/><path transform="translate(557 27) scale(0.0102564 -0.0102564)" d="M1114 954Q1114 793 1045.5 696.0Q977 599 857.0 555.0Q737 511 581 511H405V0H231V1377H583Q829 1377 971.5 1274.0Q1114 1171 1114 954ZM928 952Q928 1058 886.0 1121.0Q844 1184 770.5 1211.5Q697 1239 604 1239H405V651H597Q693 651 768.0 677.0Q843 703 885.5 768.5Q928 834 928 952Z"/><path transform="translate(569.2 27) scale(0.0102564 -0.0102564)" d="M1077 1053 707 -7Q670 -114 613.5 -203.0Q557 -292 466.5 -350.5Q376 -409 237 -423L211 -289Q320 -271 383.0 -234.0Q446 -197 482.5 -139.5Q519 -82 547 0H491L123 1053H303L605 128L903 1053Z"/><path transform="translate(581.4 27) scale(0.0102564 -0.0102564)" d="M1037 53Q983 17 906.0 -3.0Q829 -23 755 -23Q585 -23 493.0 66.0Q401 155 401 295V923H159V1053H401V1292L569 1312V1053H933L913 923H569V297Q569 209 615.5 163.0Q662 117 770 117Q829 117 879.0 131.0Q929 145 972 167Z"/><path transform="translate(593.6 27) scale(0.0102564 -0.0102564)" d="M895 1075Q945 1075 992.0 1053.0Q1039 1031 1069.0 968.0Q1099 905 1099 784V0H943V757Q943 856 931.0 900.0Q919 944 862 944Q815 944 768.0 914.5Q721 885 678 818V0H521V757Q521 856 509.0 900.0Q497 944 440 944Q391 944 345.0 914.5Q299 885 256 818V0H101V1053H233L243 931Q286 992 339.5 1033.5Q393 1075 472 1075Q532 1075 585.0 1046.5Q638 1018 663 936Q706 998 760.0 1036.5Q814 1075 895 1075Z"/><path transform="translate(605.8 27) scale(0.0102564 -0.0102564)" d="M369 1053V307Q369 203 412.0 157.0Q455 111 546 111Q633 111 710.5 160.5Q788 210 831 278V1053H999V0H856L842 142Q780 62 688.5 19.5Q597 -23 505 -23Q352 -23 276.5 58.5Q201 140 201 287V1053Z"/><path transform="translate(618 27) scale(0.0102564 -0.0102564)" d="M303 0H111L500 556L159 1053H358L602 661L849 1053H1041L701 563L1089 0H883L595 452Z"/><path transform="translate(630.2 27) scale(0.0102564 -0.0102564)" d="M867 351H322L212 0H41L489 1377H711L1159 0H977ZM367 495H822L596 1231Z"/><path transform="translate(642.4 27) scale(0.0102564 -0.0102564)" d="M672 1075Q812 1075 895.5 1007.0Q979 939 1016.0 815.5Q1053 692 1053 527Q1053 368 1008.5 243.5Q964 119 874.0 48.0Q784 -23 647 -23Q474 -23 369 99V-403L201 -424V1053H344L358 906Q416 987 496.0 1031.0Q576 1075 672 1075ZM632 940Q545 940 478.0 887.5Q411 835 369 771V249Q410 188 472.5 152.5Q535 117 610 117Q741 117 807.0 217.0Q873 317 873 528Q873 940 632 940Z"/><path transform="translate(654.6 27) scale(0.0102564 -0.0102564)" d="M672 1075Q812 1075 895.5 1007.0Q979 939 1016.0 815.5Q1053 692 1053 527Q1053 368 1008.5 243.5Q964 119 874.0 48.0Q784 -23 647 -23Q474 -23 369 99V-403L201 -424V1053H344L358 906Q416 987 496.0 1031.0Q576 1075 672 1075ZM632 940Q545 940 478.0 887.5Q411 835 369 771V249Q410 188 472.5 152.5Q535 117 610 117Q741 117 807.0 217.0Q873 317 873 528Q873 940 632 940Z"/>
            <g transform="translate(26,22)">
            <circle cx="0" cy="0" r="7" fill="#ff5f57"/>
            <circle cx="22" cy="0" r="7" fill="#febc2e"/>
            <circle cx="44" cy="0" r="7" fill="#28c840"/>
            </g>
        
    <g transform="translate(9, 41)" clip-path="url(#terminal-2373247988-clip-terminal)">
    <rect fill="#4ebf71" x="36.6" y="1.5" width="36.6" height="24.65" shape-rendering="crispEdges"/><rect fill="#4ebf71" x="878.4" y="25.9" width="48.8" height="24.65" shape-rendering="crispEdges"/><rect fill="#121212" x="976" y="25.9" width="122" height="24.65" shape-rendering="crispEdges"/><rect fill="#121212" x="976" y="50.3" width="122" height="24.65" shape-rendering="crispEdges"/><rect fill="#121212" x="976" y="74.7" width="122" height="24.65" shape-rendering="crispEdges"/><rect fill="#121212" x="976" y="99.1" width="122" height="24.65" shape-rendering="crispEdges"/><rect fill="#121212" x="976" y="123.5" width="122" height="24.65" shape-rendering="crispEdges"/><rect fill="#121212" x="976" y="147.9" width="122" height="24.65" shape-rendering="crispEdges"/><rect fill="#121212" x="976" y="172.3" width="122" height="24.65" shape-rendering="crispEdges"/><rect fill="#121212" x="976" y="196.7" width="122" height="24.65" shape-rendering="crispEdges"/><rect fill="#121212" x="976" y="221.1" width="122" height="24.65" shape-rendering="crispEdges"/><rect fill="#121212" x="976" y="245.5" width="122" height="24.65" shape-rendering="crispEdges"/><rect fill="#121212" x="976" y="269.9" width="122" height="24.65" shape-rendering="crispEdges"/><rect fill="#121212" x="976" y="294.3" width="122" height="24.65" shape-rendering="crispEdges"/><rect fill="#121212" x="976" y="318.7" width="122" height="24.65" shape-rendering="crispEdges"/><rect fill="#121212" x="976" y="343.1" width="122" height="24.65" shape-rendering="crispEdges"/><rect fill="#121212" x="976" y="367.5" width="122" height="24.65" shape-rendering="crispEdges"/><rect fill="#121212" x="976" y="391.9" width="122" height="24.65" shape-rendering="crispEdges"/><rect fill="#121212" x="976" y="416.3" width="122" height="24.65" shape-rendering="crispEdges"/><rect fill="#121212" x="976" y="440.7" width="122" height="24.65" shape-rendering="crispEdges"/><rect fill="#121212" x="976" y="465.1" width="122" height="24.65" shape-rendering="crispEdges"/><rect fill="#121212" x="976" y="489.5" width="122" height="24.65" shape-rendering="crispEdges"/><rect fill="#121212" x="976" y="513.9" width="122" height="24.65" shape-rendering="crispEdges"/><rect fill="#121212" x="976" y="538.3" width="122" height="24.65" shape-rendering="crispEdges"/><rect fill="#121212" x="976" y="562.7" width="122" height="24.65" shape-rendering="crispEdges"/><rect fill="#121212" x="976" y="587.1" width="122" height="24.65" shape-rendering="crispEdges"/>
    <g class="terminal-2373247988-matrix">
    <path fill="#1a1a1a" transform="translate(36.6 20) scale(0.0102564 -0.0102564)" d="M312 -246V1646H928V1410H610V-12H928V-246Z"/><path fill="#1a1a1a" transform="translate(48.8 20) scale(0.0102564 -0.0102564)" d="M731 1158V747H1134V503H731V92H467V503H66V747H467V1158Z"/><path fill="#1a1a1a" transform="translate(61 20) scale(0.0102564 -0.0102564)" d="M888 1646V-246H272V-10H590V1410H272V1646Z"/><path fill="#1a1a1a" transform="translate(878.4 44.4) scale(0.0102564 -0.0102564)" d="M312 -246V1646H928V1410H610V-12H928V-246Z"/><path fill="#1a1a1a" transform="translate(891.82 47.671) scale(0.0253873 -0.0253873)" d="M540 561V652H23V561ZM497 372C497 466 407 536 287 536C164 536 75 466 75 372C75 277 165 210 287 210C407 210 497 277 497 372ZM155 694H420V783H155ZM727 812H610V150H727V427H851V524H727ZM748 -58V35H257V177H139V-58ZM191 372C191 414 235 443 287 443C338 443 383 414 383 372C383 332 338 304 287 304C235 304 191 332 191 372Z"/><path fill="#1a1a1a" transform="translate(915 44.4) scale(0.0102564 -0.0102564)" d="M888 1646V-246H272V-10H590V1410H272V1646Z"/><path fill="#b93c5b" transform="translate(707.6 630) scale(0.0102564 -0.0102564)" d="M566 192Q645 192 693.5 217.0Q742 242 742 292Q742 326 723.0 349.0Q704 372 650.0 393.0Q596 414 490 443Q344 482 252.5 555.0Q161 628 161 769Q161 911 279.5 1004.0Q398 1097 622 1097Q764 1097 869.5 1060.5Q975 1024 1052 968L926 782Q860 823 784.0 847.5Q708 872 631 872Q479 872 479 790Q479 763 498.5 743.5Q518 724 572.0 703.5Q626 683 730 653Q833 624 909.5 586.0Q986 548 1028.0 484.5Q1070 421 1070 317Q1070 201 1001.0 122.5Q932 44 818.0 5.0Q704 -34 568 -34Q414 -34 296.0 10.0Q178 54 95 126L254 304Q316 256 394.5 224.0Q473 192 566 192Z"/><path fill="#b93c5b" transform="translate(719.8 630) scale(0.0102564 -0.0102564)" d="M566 192Q645 192 693.5 217.0Q742 242 742 292Q742 326 723.0 349.0Q704 372 650.0 393.0Q596 414 490 443Q344 482 252.5 555.0Q161 628 161 769Q161 911 279.5 1004.0Q398 1097 622 1097Q764 1097 869.5 1060.5Q975 1024 1052 968L926 782Q860 823 784.0 847.5Q708 872 631 872Q479 872 479 790Q479 763 498.5 743.5Q518 724 572.0 703.5Q626 683 730 653Q833 624 909.5 586.0Q986 548 1028.0 484.5Q1070 421 1070 317Q1070 201 1001.0 122.5Q932 44 818.0 5.0Q704 -34 568 -34Q414 -34 296.0 10.0Q178 54 95 126L254 304Q316 256 394.5 224.0Q473 192 566 192Z"/><path fill="#b93c5b" transform="translate(732 630) scale(0.0102564 -0.0102564)" d="M456 1515V957Q589 1097 768 1097Q910 1097 985.0 1014.0Q1060 931 1060 780V0H744V692Q744 788 722.5 826.0Q701 864 642 864Q592 864 546.5 829.5Q501 795 456 735V0H140V1484Z"/><path fill="#b93c5b" transform="translate(744.2 630) scale(0.0102564 -0.0102564)" d="M389 868Q389 925 417.5 972.5Q446 1020 494.0 1049.0Q542 1078 600 1078Q688 1078 748.5 1015.5Q809 953 809 868Q809 783 748.5 721.0Q688 659 600 659Q512 659 450.5 721.0Q389 783 389 868ZM389 177Q389 262 450.5 323.0Q512 384 600 384Q688 384 748.5 323.0Q809 262 809 177Q809 91 748.5 28.5Q688 -34 600 -34Q512 -34 450.5 28.5Q389 91 389 177Z"/><path fill="#b93c5b" transform="translate(756.4 630) scale(0.0102564 -0.0102564)" d="M456 1515V957Q589 1097 768 1097Q910 1097 985.0 1014.0Q1060 931 1060 780V0H744V692Q744 788 722.5 826.0Q701 864 642 864Q592 864 546.5 829.5Q501 795 456 735V0H140V1484Z"/><path fill="#b93c5b" transform="translate(768.6 630) scale(0.0102564 -0.0102564)" d="M600 1097Q764 1097 879.0 1027.0Q994 957 1055.0 830.5Q1116 704 1116 534Q1116 268 980.0 117.0Q844 -34 600 -34Q356 -34 220.0 115.0Q84 264 84 532Q84 701 145.5 828.0Q207 955 322.5 1026.0Q438 1097 600 1097ZM600 864Q503 864 456.5 784.5Q410 705 410 532Q410 356 456.5 277.0Q503 198 600 198Q697 198 743.5 277.0Q790 356 790 534Q790 706 743.5 785.0Q697 864 600 864Z"/><path fill="#b93c5b" transform="translate(780.8 630) scale(0.0102564 -0.0102564)" d="M566 192Q645 192 693.5 217.0Q742 242 742 292Q742 326 723.0 349.0Q704 372 650.0 393.0Q596 414 490 443Q344 482 252.5 555.0Q161 628 161 769Q161 911 279.5 1004.0Q398 1097 622 1097Q764 1097 869.5 1060.5Q975 1024 1052 968L926 782Q860 823 784.0 847.5Q708 872 631 872Q479 872 479 790Q479 763 498.5 743.5Q518 724 572.0 703.5Q626 683 730 653Q833 624 909.5 586.0Q986 548 1028.0 484.5Q1070 421 1070 317Q1070 201 1001.0 122.5Q932 44 818.0 5.0Q704 -34 568 -34Q414 -34 296.0 10.0Q178 54 95 126L254 304Q316 256 394.5 224.0Q473 192 566 192Z"/><path fill="#b93c5b" transform="translate(793 630) scale(0.0102564 -0.0102564)" d="M1096 62Q1034 22 946.0 -6.0Q858 -34 748 -34Q540 -34 439.0 72.5Q338 179 338 362V844H115V1062H338V1292L654 1330V1062H996L965 844H654V362Q654 283 690.0 249.0Q726 215 805 215Q861 215 907.5 228.5Q954 242 991 263Z"/><path fill="#e0e0e0" transform="translate(890.6 630) scale(0.0102564 -0.0102564)" d="M600 1399Q822 1399 936.5 1215.0Q1051 1031 1051 689Q1051 346 936.5 161.5Q822 -23 600 -23Q378 -23 263.5 161.5Q149 346 149 689Q149 1031 263.5 1215.0Q378 1399 600 1399ZM600 1264Q473 1264 400.0 1129.5Q327 995 327 689Q327 460 362 329L783 1175Q720 1264 600 1264ZM874 689Q874 920 838 1050L419 201Q482 113 600 113Q728 113 801.0 248.0Q874 383 874 689Z"/><path fill="#e0e0e0" transform="translate(902.8 630) scale(0.0102564 -0.0102564)" d="M1035 137V0H240V137H579V1195L263 1003L190 1123L600 1377H747V137Z"/><path fill="#e0e0e0" transform="translate(915 630) scale(0.0102564 -0.0102564)" d="M437 861Q437 928 483.5 975.0Q530 1022 598 1022Q668 1022 714.5 975.0Q761 928 761 861Q761 794 714.5 746.0Q668 698 598 698Q530 698 483.5 746.0Q437 794 437 861ZM437 140Q437 205 483.5 253.0Q530 301 598 301Q668 301 714.5 253.0Q761 205 761 140Q761 72 714.5 24.5Q668 -23 598 -23Q530 -23 483.5 24.5Q437 72 437 140Z"/><path fill="#e0e0e0" transform="translate(927.2 630) scale(0.0102564 -0.0102564)" d="M1035 137V0H240V137H579V1195L263 1003L190 1123L600 1377H747V137Z"/><path fill="#e0e0e0" transform="translate(939.4 630) scale(0.0102564 -0.0102564)" d="M600 1399Q822 1399 936.5 1215.0Q1051 1031 1051 689Q1051 346 936.5 161.5Q822 -23 600 -23Q378 -23 263.5 161.5Q149 346 149 689Q149 1031 263.5 1215.0Q378 1399 600 1399ZM600 1264Q473 1264 400.0 1129.5Q327 995 327 689Q327 460 362 329L783 1175Q720 1264 600 1264ZM874 689Q874 920 838 1050L419 201Q482 113 600 113Q728 113 801.0 248.0Q874 383 874 689Z"/><path fill="#e0e0e0" transform="translate(963.8 630) scale(0.0102564 -0.0102564)" d="M539 1399Q669 1399 762.0 1348.5Q855 1298 904.5 1211.0Q954 1124 954 1015Q954 920 921.0 829.5Q888 739 815.5 639.5Q743 540 625.0 419.0Q507 298 337 143H986L965 0H146V137Q341 324 464.5 453.0Q588 582 656.0 675.5Q724 769 750.5 847.0Q777 925 777 1009Q777 1125 712.0 1192.0Q647 1259 531 1259Q429 1259 364.0 1224.0Q299 1189 234 1112L118 1202Q200 1302 299.5 1350.5Q399 1399 539 1399Z"/><path fill="#e0e0e0" transform="translate(976 630) scale(0.0102564 -0.0102564)" d="M600 1399Q822 1399 936.5 1215.0Q1051 1031 1051 689Q1051 346 936.5 161.5Q822 -23 600 -23Q378 -23 263.5 161.5Q149 346 149 689Q149 1031 263.5 1215.0Q378 1399 600 1399ZM600 1264Q473 1264 400.0 1129.5Q327 995 327 689Q327 460 362 329L783 1175Q720 1264 600 1264ZM874 689Q874 920 838 1050L419 201Q482 113 600 113Q728 113 801.0 248.0Q874 383 874 689Z"/><path fill="#e0e0e0" transform="translate(988.2 630) scale(0.0102564 -0.0102564)" d="M539 1399Q669 1399 762.0 1348.5Q855 1298 904.5 1211.0Q954 1124 954 1015Q954 920 921.0 829.5Q888 739 815.5 639.5Q743 540 625.0 419.0Q507 298 337 143H986L965 0H146V137Q341 324 464.5 453.0Q588 582 656.0 675.5Q724 769 750.5 847.0Q777 925 777 1009Q777 1125 712.0 1192.0Q647 1259 531 1259Q429 1259 364.0 1224.0Q299 1189 234 1112L118 1202Q200 1302 299.5 1350.5Q399 1399 539 1399Z"/><path fill="#e0e0e0" transform="translate(1000.4 630) scale(0.0102564 -0.0102564)" d="M671 1399Q750 1399 817.5 1378.5Q885 1358 943 1319L877 1205Q781 1263 668 1263Q509 1263 421.0 1113.0Q333 963 327 711Q393 809 475.5 853.0Q558 897 659 897Q765 897 854.0 849.5Q943 802 996.0 706.0Q1049 610 1049 463Q1049 311 990.5 202.0Q932 93 833.5 35.0Q735 -23 616 -23Q449 -23 348.5 60.0Q248 143 203.5 294.5Q159 446 159 651Q159 879 219.5 1047.0Q280 1215 395.0 1307.0Q510 1399 671 1399ZM633 759Q534 759 457.0 705.0Q380 651 329 564Q334 331 401.5 222.0Q469 113 615 113Q746 113 811.5 205.5Q877 298 877 459Q877 628 810.0 693.5Q743 759 633 759Z"/><path fill="#e0e0e0" transform="translate(1012.6 630) scale(0.0102564 -0.0102564)" d="M199 553V699H1001V553Z"/><path fill="#e0e0e0" transform="translate(1024.8 630) scale(0.0102564 -0.0102564)" d="M600 1399Q822 1399 936.5 1215.0Q1051 1031 1051 689Q1051 346 936.5 161.5Q822 -23 600 -23Q378 -23 263.5 161.5Q149 346 149 689Q149 1031 263.5 1215.0Q378 1399 600 1399ZM600 1264Q473 1264 400.0 1129.5Q327 995 327 689Q327 460 362 329L783 1175Q720 1264 600 1264ZM874 689Q874 920 838 1050L419 201Q482 113 600 113Q728 113 801.0 248.0Q874 383 874 689Z"/><path fill="#e0e0e0" transform="translate(1037 630) scale(0.0102564 -0.0102564)" d="M671 1399Q750 1399 817.5 1378.5Q885 1358 943 1319L877 1205Q781 1263 668 1263Q509 1263 421.0 1113.0Q333 963 327 711Q393 809 475.5 853.0Q558 897 659 897Q765 897 854.0 849.5Q943 802 996.0 706.0Q1049 610 1049 463Q1049 311 990.5 202.0Q932 93 833.5 35.0Q735 -23 616 -23Q449 -23 348.5 60.0Q248 143 203.5 294.5Q159 446 159 651Q159 879 219.5 1047.0Q280 1215 395.0 1307.0Q510 1399 671 1399ZM633 759Q534 759 457.0 705.0Q380 651 329 564Q334 331 401.5 222.0Q469 113 615 113Q746 113 811.5 205.5Q877 298 877 459Q877 628 810.0 693.5Q743 759 633 759Z"/><path fill="#e0e0e0" transform="translate(1049.2 630) scale(0.0102564 -0.0102564)" d="M199 553V699H1001V553Z"/><path fill="#e0e0e0" transform="translate(1061.4 630) scale(0.0102564 -0.0102564)" d="M539 1399Q669 1399 762.0 1348.5Q855 1298 904.5 1211.0Q954 1124 954 1015Q954 920 921.0 829.5Q888 739 815.5 639.5Q743 540 625.0 419.0Q507 298 337 143H986L965 0H146V137Q341 324 464.5 453.0Q588 582 656.0 675.5Q724 769 750.5 847.0Q777 925 777 1009Q777 1125 712.0 1192.0Q647 1259 531 1259Q429 1259 364.0 1224.0Q299 1189 234 1112L118 1202Q200 1302 299.5 1350.5Q399 1399 539 1399Z"/><path fill="#e0e0e0" transform="translate(1073.6 630) scale(0.0102564 -0.0102564)" d="M1035 137V0H240V137H579V1195L263 1003L190 1123L600 1377H747V137Z"/>
    </g>
    </g>
</svg>
