<svg class="rich-terminal" viewBox="0 0 1116 684.4" xmlns="http://www.w3.org/2000/svg">
    <!-- Generated with Rich https://www.textualize.io -->
    <style>

    @font-face {
        font-family: "Fira Code";
        src: local("FiraCode-Regular"),
                url("https://cdnjs.cloudflare.com/ajax/libs/firacode/6.2.0/woff2/FiraCode-Regular.woff2") format("woff2"),
                url("https://cdnjs.cloudflare.com/ajax/libs/firacode/6.2.0/woff/FiraCode-Regular.woff") format("woff");
        font-style: normal;
        font-weight: 400;
    }
    @font-face {
        font-family: "Fira Code";
        src: local("FiraCode-Bold"),
                url("https://cdnjs.cloudflare.com/ajax/libs/firacode/6.2.0/woff2/FiraCode-Bold.woff2") format("woff2"),
                url("https://cdnjs.cloudflare.com/ajax/libs/firacode/6.2.0/woff/FiraCode-Bold.woff") format("woff");
        font-style: bold;
        font-weight: 700;
    }

    .terminal-4249612588-matrix {
        font-family: Fira Code, monospace;
        font-size: 20px;
        line-height: 24.4px;
        font-variant-east-asian: full-width;
    }

    .terminal-4249612588-title {
        font-size: 18px;
        font-weight: bold;
        font-family: arial;
    }

    .terminal-4249612588-r1 { fill: #646464 }
.terminal-4249612588-r2 { fill: #595953;font-weight: bold }
.terminal-4249612588-r3 { fill: #151515;font-weight: bold }
.terminal-4249612588-r4 { fill: #fea62b }
.terminal-4249612588-r5 { fill: #121212 }
.terminal-4249612588-r6 { fill: #c5c8c6 }
.terminal-4249612588-r7 { fill: #0a2030 }
.terminal-4249612588-r8 { fill: #ddedf9;font-weight: bold }
.terminal-4249612588-r9 { fill: #2d2d2d }
.terminal-4249612588-r10 { fill: #222222 }
.terminal-4249612588-r11 { fill: #e0e0e0 }
.terminal-4249612588-r12 { fill: #0a0a0a }
.terminal-4249612588-r13 { fill: #000000 }
.terminal-4249612588-r14 { fill: #54222f;font-weight: bold }
    </style>

    <defs>
    <clipPath id="terminal-4249612588-clip-terminal">
      <rect x="0" y="0" width="1097.0" height="633.4" />
    </clipPath>
    <clipPath id="terminal-4249612588-line-0">
    <rect x="0" y="1.5" width="1098" height="24.65"/>
            </clipPath>
<clipPath id="terminal-4249612588-line-1">
    <rect x="0" y="25.9" width="1098" height="24.65"/>
            </clipPath>
<clipPath id="terminal-4249612588-line-2">
    <rect x="0" y="50.3" width="1098" height="24.65"/>
            </clipPath>
<clipPath id="terminal-4249612588-line-3">
    <rect x="0" y="74.7" width="1098" height="24.65"/>
            </clipPath>
<clipPath id="terminal-4249612588-line-4">
    <rect x="0" y="99.1" width="1098" height="24.65"/>
            </clipPath>
<clipPath id="terminal-4249612588-line-5">
    <rect x="0" y="123.5" width="1098" height="24.65"/>
            </clipPath>
<clipPath id="terminal-4249612588-line-6">
    <rect x="0" y="147.9" width="1098" height="24.65"/>
            </clipPath>
<clipPath id="terminal-4249612588-line-7">
    <rect x="0" y="172.3" width="1098" height="24.65"/>
            </clipPath>
<clipPath id="terminal-4249612588-line-8">
    <rect x="0" y="196.7" width="1098" height="24.65"/>
            </clipPath>
<clipPath id="terminal-4249612588-line-9">
    <rect x="0" y="221.1" width="1098" height="24.65"/>
            </clipPath>
<clipPath id="terminal-4249612588-line-10">
    <rect x="0" y="245.5" width="1098" height="24.65"/>
            </clipPath>
<clipPath id="terminal-4249612588-line-11">
    <rect x="0" y="269.9" width="1098" height="24.65"/>
            </clipPath>
<clipPath id="terminal-4249612588-line-12">
    <rect x="0" y="294.3" width="1098" height="24.65"/>
            </clipPath>
<clipPath id="terminal-4249612588-line-13">
    <rect x="0" y="318.7" width="1098" height="24.65"/>
            </clipPath>
<clipPath id="terminal-4249612588-line-14">
    <rect x="0" y="343.1" width="1098" height="24.65"/>
            </clipPath>
<clipPath id="terminal-4249612588-line-15">
    <rect x="0" y="367.5" width="1098" height="24.65"/>
            </clipPath>
<clipPath id="terminal-4249612588-line-16">
    <rect x="0" y="391.9" width="1098" height="24.65"/>
            </clipPath>
<clipPath id="terminal-4249612588-line-17">
    <rect x="0" y="416.3" width="1098" height="24.65"/>
            </clipPath>
<clipPath id="terminal-4249612588-line-18">
    <rect x="0" y="440.7" width="1098" height="24.65"/>
            </clipPath>
<clipPath id="terminal-4249612588-line-19">
    <rect x="0" y="465.1" width="1098" height="24.65"/>
            </clipPath>
<clipPath id="terminal-4249612588-line-20">
    <rect x="0" y="489.5" width="1098" height="24.65"/>
            </clipPath>
<clipPath id="terminal-4249612588-line-21">
    <rect x="0" y="513.9" width="1098" height="24.65"/>
            </clipPath>
<clipPath id="terminal-4249612588-line-22">
    <rect x="0" y="538.3" width="1098" height="24.65"/>
            </clipPath>
<clipPath id="terminal-4249612588-line-23">
    <rect x="0" y="562.7" width="1098" height="24.65"/>
            </clipPath>
<clipPath id="terminal-4249612588-line-24">
    <rect x="0" y="587.1" width="1098" height="24.65"/>
            </clipPath>
    </defs>

    <rect fill="#292929" stroke="rgba(255,255,255,0.35)" stroke-width="1" x="1" y="1" width="1114" height="682.4" rx="8"/><text class="terminal-4249612588-title" fill="#c5c8c6" text-anchor="middle" x="557" y="27">PytmuxApp</text>
            <g transform="translate(26,22)">
            <circle cx="0" cy="0" r="7" fill="#ff5f57"/>
            <circle cx="22" cy="0" r="7" fill="#febc2e"/>
            <circle cx="44" cy="0" r="7" fill="#28c840"/>
            </g>
        
    <g transform="translate(9, 41)" clip-path="url(#terminal-4249612588-clip-terminal)">
    <rect fill="#121212" x="0" y="1.5" width="12.2" height="24.65" shape-rendering="crispEdges"/><rect fill="#0b3a5f" x="12.2" y="1.5" width="85.4" height="24.65" shape-rendering="crispEdges"/><rect fill="#121212" x="97.6" y="1.5" width="24.4" height="24.65" shape-rendering="crispEdges"/><rect fill="#2a5738" x="122" y="1.5" width="36.6" height="24.65" shape-rendering="crispEdges"/><rect fill="#121212" x="158.6" y="1.5" width="134.2" height="24.65" shape-rendering="crispEdges"/><rect fill="#2d3740" x="292.8" y="1.5" width="12.2" height="24.65" shape-rendering="crispEdges"/><rect fill="#2d3740" x="305" y="1.5" width="463.6" height="24.65" shape-rendering="crispEdges"/><rect fill="#2d3740" x="768.6" y="1.5" width="12.2" height="24.65" shape-rendering="crispEdges"/><rect fill="#121212" x="780.8" y="1.5" width="292.8" height="24.65" shape-rendering="crispEdges"/><rect fill="#003054" x="1073.6" y="1.5" width="24.4" height="24.65" shape-rendering="crispEdges"/><rect fill="#121212" x="0" y="25.9" width="12.2" height="24.65" shape-rendering="crispEdges"/><rect fill="#121212" x="12.2" y="25.9" width="85.4" height="24.65" shape-rendering="crispEdges"/><rect fill="#121212" x="97.6" y="25.9" width="195.2" height="24.65" shape-rendering="crispEdges"/><rect fill="#2d3740" x="292.8" y="25.9" width="12.2" height="24.65" shape-rendering="crispEdges"/><rect fill="#0178d4" x="305" y="25.9" width="219.6" height="24.65" shape-rendering="crispEdges"/><rect fill="#0178d4" x="524.6" y="25.9" width="244" height="24.65" shape-rendering="crispEdges"/><rect fill="#2d3740" x="768.6" y="25.9" width="12.2" height="24.65" shape-rendering="crispEdges"/><rect fill="#121212" x="780.8" y="25.9" width="268.4" height="24.65" shape-rendering="crispEdges"/><rect fill="#2c151a" x="1049.2" y="25.9" width="24.4" height="24.65" shape-rendering="crispEdges"/><rect fill="#003054" x="1073.6" y="25.9" width="24.4" height="24.65" shape-rendering="crispEdges"/><rect fill="#121212" x="0" y="50.3" width="12.2" height="24.65" shape-rendering="crispEdges"/><rect fill="#121212" x="12.2" y="50.3" width="280.6" height="24.65" shape-rendering="crispEdges"/><rect fill="#2d3740" x="292.8" y="50.3" width="12.2" height="24.65" shape-rendering="crispEdges"/><rect fill="#2d3740" x="305" y="50.3" width="219.6" height="24.65" shape-rendering="crispEdges"/><rect fill="#2d3740" x="524.6" y="50.3" width="244" height="24.65" shape-rendering="crispEdges"/><rect fill="#2d3740" x="768.6" y="50.3" width="12.2" height="24.65" shape-rendering="crispEdges"/><rect fill="#121212" x="780.8" y="50.3" width="268.4" height="24.65" shape-rendering="crispEdges"/><rect fill="#0a2030" x="1049.2" y="50.3" width="24.4" height="24.65" shape-rendering="crispEdges"/><rect fill="#003054" x="1073.6" y="50.3" width="24.4" height="24.65" shape-rendering="crispEdges"/><rect fill="#121212" x="0" y="74.7" width="12.2" height="24.65" shape-rendering="crispEdges"/><rect fill="#121212" x="12.2" y="74.7" width="280.6" height="24.65" shape-rendering="crispEdges"/><rect fill="#2d3740" x="292.8" y="74.7" width="12.2" height="24.65" shape-rendering="crispEdges"/><rect fill="#2d3740" x="305" y="74.7" width="207.4" height="24.65" shape-rendering="crispEdges"/><rect fill="#2d3740" x="512.4" y="74.7" width="256.2" height="24.65" shape-rendering="crispEdges"/><rect fill="#2d3740" x="768.6" y="74.7" width="12.2" height="24.65" shape-rendering="crispEdges"/><rect fill="#121212" x="780.8" y="74.7" width="292.8" height="24.65" shape-rendering="crispEdges"/><rect fill="#003054" x="1073.6" y="74.7" width="24.4" height="24.65" shape-rendering="crispEdges"/><rect fill="#121212" x="0" y="99.1" width="12.2" height="24.65" shape-rendering="crispEdges"/><rect fill="#121212" x="12.2" y="99.1" width="280.6" height="24.65" shape-rendering="crispEdges"/><rect fill="#2d3740" x="292.8" y="99.1" width="12.2" height="24.65" shape-rendering="crispEdges"/><rect fill="#2d3740" x="305" y="99.1" width="134.2" height="24.65" shape-rendering="crispEdges"/><rect fill="#2d3740" x="439.2" y="99.1" width="329.4" height="24.65" shape-rendering="crispEdges"/><rect fill="#2d3740" x="768.6" y="99.1" width="12.2" height="24.65" shape-rendering="crispEdges"/><rect fill="#121212" x="780.8" y="99.1" width="292.8" height="24.65" shape-rendering="crispEdges"/><rect fill="#003054" x="1073.6" y="99.1" width="24.4" height="24.65" shape-rendering="crispEdges"/><rect fill="#121212" x="0" y="123.5" width="12.2" height="24.65" shape-rendering="crispEdges"/><rect fill="#121212" x="12.2" y="123.5" width="280.6" height="24.65" shape-rendering="crispEdges"/><rect fill="#2d3740" x="292.8" y="123.5" width="12.2" height="24.65" shape-rendering="crispEdges"/><rect fill="#2d3740" x="305" y="123.5" width="280.6" height="24.65" shape-rendering="crispEdges"/><rect fill="#2d3740" x="585.6" y="123.5" width="183" height="24.65" shape-rendering="crispEdges"/><rect fill="#2d3740" x="768.6" y="123.5" width="12.2" height="24.65" shape-rendering="crispEdges"/><rect fill="#121212" x="780.8" y="123.5" width="292.8" height="24.65" shape-rendering="crispEdges"/><rect fill="#003054" x="1073.6" y="123.5" width="24.4" height="24.65" shape-rendering="crispEdges"/><rect fill="#121212" x="0" y="147.9" width="12.2" height="24.65" shape-rendering="crispEdges"/><rect fill="#121212" x="12.2" y="147.9" width="280.6" height="24.65" shape-rendering="crispEdges"/><rect fill="#2d3740" x="292.8" y="147.9" width="12.2" height="24.65" shape-rendering="crispEdges"/><rect fill="#2d3740" x="305" y="147.9" width="256.2" height="24.65" shape-rendering="crispEdges"/><rect fill="#2d3740" x="561.2" y="147.9" width="207.4" height="24.65" shape-rendering="crispEdges"/><rect fill="#2d3740" x="768.6" y="147.9" width="12.2" height="24.65" shape-rendering="crispEdges"/><rect fill="#121212" x="780.8" y="147.9" width="292.8" height="24.65" shape-rendering="crispEdges"/><rect fill="#003054" x="1073.6" y="147.9" width="24.4" height="24.65" shape-rendering="crispEdges"/><rect fill="#121212" x="0" y="172.3" width="12.2" height="24.65" shape-rendering="crispEdges"/><rect fill="#121212" x="12.2" y="172.3" width="280.6" height="24.65" shape-rendering="crispEdges"/><rect fill="#2d3740" x="292.8" y="172.3" width="12.2" height="24.65" shape-rendering="crispEdges"/><rect fill="#2d3740" x="305" y="172.3" width="463.6" height="24.65" shape-rendering="crispEdges"/><rect fill="#2d3740" x="768.6" y="172.3" width="12.2" height="24.65" shape-rendering="crispEdges"/><rect fill="#121212" x="780.8" y="172.3" width="292.8" height="24.65" shape-rendering="crispEdges"/><rect fill="#003054" x="1073.6" y="172.3" width="24.4" height="24.65" shape-rendering="crispEdges"/><rect fill="#121212" x="0" y="196.7" width="12.2" height="24.65" shape-rendering="crispEdges"/><rect fill="#121212" x="12.2" y="196.7" width="280.6" height="24.65" shape-rendering="crispEdges"/><rect fill="#2d3740" x="292.8" y="196.7" width="12.2" height="24.65" shape-rendering="crispEdges"/><rect fill="#2d3740" x="305" y="196.7" width="170.8" height="24.65" shape-rendering="crispEdges"/><rect fill="#2d3740" x="475.8" y="196.7" width="292.8" height="24.65" shape-rendering="crispEdges"/><rect fill="#2d3740" x="768.6" y="196.7" width="12.2" height="24.65" shape-rendering="crispEdges"/><rect fill="#121212" x="780.8" y="196.7" width="292.8" height="24.65" shape-rendering="crispEdges"/><rect fill="#003054" x="1073.6" y="196.7" width="24.4" height="24.65" shape-rendering="crispEdges"/><rect fill="#121212" x="0" y="221.1" width="12.2" height="24.65" shape-rendering="crispEdges"/><rect fill="#121212" x="12.2" y="221.1" width="280.6" height="24.65" shape-rendering="crispEdges"/><rect fill="#2d3740" x="292.8" y="221.1" width="12.2" height="24.65" shape-rendering="crispEdges"/><rect fill="#2d3740" x="305" y="221.1" width="195.2" height="24.65" shape-rendering="crispEdges"/><rect fill="#2d3740" x="500.2" y="221.1" width="268.4" height="24.65" shape-rendering="crispEdges"/><rect fill="#2d3740" x="768.6" y="221.1" width="12.2" height="24.65" shape-rendering="crispEdges"/><rect fill="#121212" x="780.8" y="221.1" width="292.8" height="24.65" shape-rendering="crispEdges"/><rect fill="#003054" x="1073.6" y="221.1" width="24.4" height="24.65" shape-rendering="crispEdges"/><rect fill="#121212" x="0" y="245.5" width="12.2" height="24.65" shape-rendering="crispEdges"/><rect fill="#121212" x="12.2" y="245.5" width="280.6" height="24.65" shape-rendering="crispEdges"/><rect fill="#2d3740" x="292.8" y="245.5" width="12.2" height="24.65" shape-rendering="crispEdges"/><rect fill="#2d3740" x="305" y="245.5" width="244" height="24.65" shape-rendering="crispEdges"/><rect fill="#2d3740" x="549" y="245.5" width="219.6" height="24.65" shape-rendering="crispEdges"/><rect fill="#2d3740" x="768.6" y="245.5" width="12.2" height="24.65" shape-rendering="crispEdges"/><rect fill="#121212" x="780.8" y="245.5" width="292.8" height="24.65" shape-rendering="crispEdges"/><rect fill="#003054" x="1073.6" y="245.5" width="24.4" height="24.65" shape-rendering="crispEdges"/><rect fill="#121212" x="0" y="269.9" width="12.2" height="24.65" shape-rendering="crispEdges"/><rect fill="#121212" x="12.2" y="269.9" width="280.6" height="24.65" shape-rendering="crispEdges"/><rect fill="#2d3740" x="292.8" y="269.9" width="12.2" height="24.65" shape-rendering="crispEdges"/><rect fill="#2d3740" x="305" y="269.9" width="158.6" height="24.65" shape-rendering="crispEdges"/><rect fill="#2d3740" x="463.6" y="269.9" width="305" height="24.65" shape-rendering="crispEdges"/><rect fill="#2d3740" x="768.6" y="269.9" width="12.2" height="24.65" shape-rendering="crispEdges"/><rect fill="#121212" x="780.8" y="269.9" width="292.8" height="24.65" shape-rendering="crispEdges"/><rect fill="#003054" x="1073.6" y="269.9" width="24.4" height="24.65" shape-rendering="crispEdges"/><rect fill="#121212" x="0" y="294.3" width="12.2" height="24.65" shape-rendering="crispEdges"/><rect fill="#121212" x="12.2" y="294.3" width="280.6" height="24.65" shape-rendering="crispEdges"/><rect fill="#2d3740" x="292.8" y="294.3" width="12.2" height="24.65" shape-rendering="crispEdges"/><rect fill="#2d3740" x="305" y="294.3" width="134.2" height="24.65" shape-rendering="crispEdges"/><rect fill="#2d3740" x="439.2" y="294.3" width="329.4" height="24.65" shape-rendering="crispEdges"/><rect fill="#2d3740" x="768.6" y="294.3" width="12.2" height="24.65" shape-rendering="crispEdges"/><rect fill="#121212" x="780.8" y="294.3" width="292.8" height="24.65" shape-rendering="crispEdges"/><rect fill="#003054" x="1073.6" y="294.3" width="24.4" height="24.65" shape-rendering="crispEdges"/><rect fill="#121212" x="0" y="318.7" width="12.2" height="24.65" shape-rendering="crispEdges"/><rect fill="#121212" x="12.2" y="318.7" width="280.6" height="24.65" shape-rendering="crispEdges"/><rect fill="#2d3740" x="292.8" y="318.7" width="12.2" height="24.65" shape-rendering="crispEdges"/><rect fill="#2d3740" x="305" y="318.7" width="231.8" height="24.65" shape-rendering="crispEdges"/><rect fill="#2d3740" x="536.8" y="318.7" width="231.8" height="24.65" shape-rendering="crispEdges"/><rect fill="#2d3740" x="768.6" y="318.7" width="12.2" height="24.65" shape-rendering="crispEdges"/><rect fill="#121212" x="780.8" y="318.7" width="292.8" height="24.65" shape-rendering="crispEdges"/><rect fill="#003054" x="1073.6" y="318.7" width="24.4" height="24.65" shape-rendering="crispEdges"/><rect fill="#121212" x="0" y="343.1" width="12.2" height="24.65" shape-rendering="crispEdges"/><rect fill="#121212" x="12.2" y="343.1" width="280.6" height="24.65" shape-rendering="crispEdges"/><rect fill="#2d3740" x="292.8" y="343.1" width="12.2" height="24.65" shape-rendering="crispEdges"/><rect fill="#2d3740" x="305" y="343.1" width="305" height="24.65" shape-rendering="crispEdges"/><rect fill="#2d3740" x="610" y="343.1" width="158.6" height="24.65" shape-rendering="crispEdges"/><rect fill="#2d3740" x="768.6" y="343.1" width="12.2" height="24.65" shape-rendering="crispEdges"/><rect fill="#121212" x="780.8" y="343.1" width="292.8" height="24.65" shape-rendering="crispEdges"/><rect fill="#003054" x="1073.6" y="343.1" width="24.4" height="24.65" shape-rendering="crispEdges"/><rect fill="#121212" x="0" y="367.5" width="12.2" height="24.65" shape-rendering="crispEdges"/><rect fill="#121212" x="12.2" y="367.5" width="280.6" height="24.65" shape-rendering="crispEdges"/><rect fill="#2d3740" x="292.8" y="367.5" width="12.2" height="24.65" shape-rendering="crispEdges"/><rect fill="#2d3740" x="305" y="367.5" width="463.6" height="24.65" shape-rendering="crispEdges"/><rect fill="#2d3740" x="768.6" y="367.5" width="12.2" height="24.65" shape-rendering="crispEdges"/><rect fill="#121212" x="780.8" y="367.5" width="292.8" height="24.65" shape-rendering="crispEdges"/><rect fill="#003054" x="1073.6" y="367.5" width="24.4" height="24.65" shape-rendering="crispEdges"/><rect fill="#121212" x="0" y="391.9" width="12.2" height="24.65" shape-rendering="crispEdges"/><rect fill="#121212" x="12.2" y="391.9" width="280.6" height="24.65" shape-rendering="crispEdges"/><rect fill="#2d3740" x="292.8" y="391.9" width="12.2" height="24.65" shape-rendering="crispEdges"/><rect fill="#2d3740" x="305" y="391.9" width="61" height="24.65" shape-rendering="crispEdges"/><rect fill="#2d3740" x="366" y="391.9" width="402.6" height="24.65" shape-rendering="crispEdges"/><rect fill="#2d3740" x="768.6" y="391.9" width="12.2" height="24.65" shape-rendering="crispEdges"/><rect fill="#121212" x="780.8" y="391.9" width="292.8" height="24.65" shape-rendering="crispEdges"/><rect fill="#003054" x="1073.6" y="391.9" width="24.4" height="24.65" shape-rendering="crispEdges"/><rect fill="#121212" x="0" y="416.3" width="12.2" height="24.65" shape-rendering="crispEdges"/><rect fill="#121212" x="12.2" y="416.3" width="280.6" height="24.65" shape-rendering="crispEdges"/><rect fill="#2d3740" x="292.8" y="416.3" width="12.2" height="24.65" shape-rendering="crispEdges"/><rect fill="#2d3740" x="305" y="416.3" width="146.4" height="24.65" shape-rendering="crispEdges"/><rect fill="#2d3740" x="451.4" y="416.3" width="317.2" height="24.65" shape-rendering="crispEdges"/><rect fill="#2d3740" x="768.6" y="416.3" width="12.2" height="24.65" shape-rendering="crispEdges"/><rect fill="#121212" x="780.8" y="416.3" width="292.8" height="24.65" shape-rendering="crispEdges"/><rect fill="#003054" x="1073.6" y="416.3" width="24.4" height="24.65" shape-rendering="crispEdges"/><rect fill="#121212" x="0" y="440.7" width="12.2" height="24.65" shape-rendering="crispEdges"/><rect fill="#121212" x="12.2" y="440.7" width="280.6" height="24.65" shape-rendering="crispEdges"/><rect fill="#2d3740" x="292.8" y="440.7" width="12.2" height="24.65" shape-rendering="crispEdges"/><rect fill="#2d3740" x="305" y="440.7" width="85.4" height="24.65" shape-rendering="crispEdges"/><rect fill="#2d3740" x="390.4" y="440.7" width="378.2" height="24.65" shape-rendering="crispEdges"/><rect fill="#2d3740" x="768.6" y="440.7" width="12.2" height="24.65" shape-rendering="crispEdges"/><rect fill="#121212" x="780.8" y="440.7" width="292.8" height="24.65" shape-rendering="crispEdges"/><rect fill="#003054" x="1073.6" y="440.7" width="24.4" height="24.65" shape-rendering="crispEdges"/><rect fill="#121212" x="0" y="465.1" width="12.2" height="24.65" shape-rendering="crispEdges"/><rect fill="#121212" x="12.2" y="465.1" width="280.6" height="24.65" shape-rendering="crispEdges"/><rect fill="#2d3740" x="292.8" y="465.1" width="12.2" height="24.65" shape-rendering="crispEdges"/><rect fill="#2d3740" x="305" y="465.1" width="183" height="24.65" shape-rendering="crispEdges"/><rect fill="#2d3740" x="488" y="465.1" width="280.6" height="24.65" shape-rendering="crispEdges"/><rect fill="#2d3740" x="768.6" y="465.1" width="12.2" height="24.65" shape-rendering="crispEdges"/><rect fill="#121212" x="780.8" y="465.1" width="292.8" height="24.65" shape-rendering="crispEdges"/><rect fill="#003054" x="1073.6" y="465.1" width="24.4" height="24.65" shape-rendering="crispEdges"/><rect fill="#121212" x="0" y="489.5" width="12.2" height="24.65" shape-rendering="crispEdges"/><rect fill="#121212" x="12.2" y="489.5" width="280.6" height="24.65" shape-rendering="crispEdges"/><rect fill="#2d3740" x="292.8" y="489.5" width="12.2" height="24.65" shape-rendering="crispEdges"/><rect fill="#2d3740" x="305" y="489.5" width="85.4" height="24.65" shape-rendering="crispEdges"/><rect fill="#2d3740" x="390.4" y="489.5" width="378.2" height="24.65" shape-rendering="crispEdges"/><rect fill="#2d3740" x="768.6" y="489.5" width="12.2" height="24.65" shape-rendering="crispEdges"/><rect fill="#121212" x="780.8" y="489.5" width="292.8" height="24.65" shape-rendering="crispEdges"/><rect fill="#003054" x="1073.6" y="489.5" width="24.4" height="24.65" shape-rendering="crispEdges"/><rect fill="#121212" x="0" y="513.9" width="12.2" height="24.65" shape-rendering="crispEdges"/><rect fill="#121212" x="12.2" y="513.9" width="280.6" height="24.65" shape-rendering="crispEdges"/><rect fill="#2d3740" x="292.8" y="513.9" width="12.2" height="24.65" shape-rendering="crispEdges"/><rect fill="#2d3740" x="305" y="513.9" width="85.4" height="24.65" shape-rendering="crispEdges"/><rect fill="#2d3740" x="390.4" y="513.9" width="378.2" height="24.65" shape-rendering="crispEdges"/><rect fill="#2d3740" x="768.6" y="513.9" width="12.2" height="24.65" shape-rendering="crispEdges"/><rect fill="#121212" x="780.8" y="513.9" width="292.8" height="24.65" shape-rendering="crispEdges"/><rect fill="#003054" x="1073.6" y="513.9" width="24.4" height="24.65" shape-rendering="crispEdges"/><rect fill="#121212" x="0" y="538.3" width="12.2" height="24.65" shape-rendering="crispEdges"/><rect fill="#121212" x="12.2" y="538.3" width="280.6" height="24.65" shape-rendering="crispEdges"/><rect fill="#2d3740" x="292.8" y="538.3" width="12.2" height="24.65" shape-rendering="crispEdges"/><rect fill="#2d3740" x="305" y="538.3" width="268.4" height="24.65" shape-rendering="crispEdges"/><rect fill="#2d3740" x="573.4" y="538.3" width="195.2" height="24.65" shape-rendering="crispEdges"/><rect fill="#2d3740" x="768.6" y="538.3" width="12.2" height="24.65" shape-rendering="crispEdges"/><rect fill="#121212" x="780.8" y="538.3" width="292.8" height="24.65" shape-rendering="crispEdges"/><rect fill="#000000" x="1073.6" y="538.3" width="24.4" height="24.65" shape-rendering="crispEdges"/><rect fill="#121212" x="0" y="562.7" width="12.2" height="24.65" shape-rendering="crispEdges"/><rect fill="#121212" x="12.2" y="562.7" width="280.6" height="24.65" shape-rendering="crispEdges"/><rect fill="#2d3740" x="292.8" y="562.7" width="12.2" height="24.65" shape-rendering="crispEdges"/><rect fill="#2d3740" x="305" y="562.7" width="427" height="24.65" shape-rendering="crispEdges"/><rect fill="#2d3740" x="732" y="562.7" width="36.6" height="24.65" shape-rendering="crispEdges"/><rect fill="#2d3740" x="768.6" y="562.7" width="12.2" height="24.65" shape-rendering="crispEdges"/><rect fill="#121212" x="780.8" y="562.7" width="292.8" height="24.65" shape-rendering="crispEdges"/><rect fill="#000000" x="1073.6" y="562.7" width="24.4" height="24.65" shape-rendering="crispEdges"/><rect fill="#121212" x="0" y="587.1" width="292.8" height="24.65" shape-rendering="crispEdges"/><rect fill="#2d3740" x="292.8" y="587.1" width="12.2" height="24.65" shape-rendering="crispEdges"/><rect fill="#2d3740" x="305" y="587.1" width="292.8" height="24.65" shape-rendering="crispEdges"/><rect fill="#2d3740" x="597.8" y="587.1" width="170.8" height="24.65" shape-rendering="crispEdges"/><rect fill="#2d3740" x="768.6" y="587.1" width="12.2" height="24.65" shape-rendering="crispEdges"/><rect fill="#121212" x="780.8" y="587.1" width="292.8" height="24.65" shape-rendering="crispEdges"/><rect fill="#000000" x="1073.6" y="587.1" width="24.4" height="24.65" shape-rendering="crispEdges"/><rect fill="#121212" x="0" y="611.5" width="12.2" height="24.65" shape-rendering="crispEdges"/><rect fill="#121212" x="12.2" y="611.5" width="280.6" height="24.65" shape-rendering="crispEdges"/><rect fill="#2d3740" x="292.8" y="611.5" width="12.2" height="24.65" shape-rendering="crispEdges"/><rect fill="#2d3740" x="305" y="611.5" width="244" height="24.65" shape-rendering="crispEdges"/><rect fill="#2d3740" x="549" y="611.5" width="219.6" height="24.65" shape-rendering="crispEdges"/><rect fill="#2d3740" x="768.6" y="611.5" width="12.2" height="24.65" shape-rendering="crispEdges"/><rect fill="#121212" x="780.8" y="611.5" width="97.6" height="24.65" shape-rendering="crispEdges"/><rect fill="#121212" x="878.4" y="611.5" width="12.2" height="24.65" shape-rendering="crispEdges"/><rect fill="#121212" x="890.6" y="611.5" width="61" height="24.65" shape-rendering="crispEdges"/><rect fill="#121212" x="951.6" y="611.5" width="12.2" height="24.65" shape-rendering="crispEdges"/><rect fill="#121212" x="963.8" y="611.5" width="109.8" height="24.65" shape-rendering="crispEdges"/><rect fill="#000000" x="1073.6" y="611.5" width="24.4" height="24.65" shape-rendering="crispEdges"/>
    <g class="terminal-4249612588-matrix">
    <text class="terminal-4249612588-r2" x="12.2" y="20" textLength="85.4" clip-path="url(#terminal-4249612588-line-0)">&#160;1:win&#160;</text><text class="terminal-4249612588-r3" x="122" y="20" textLength="36.6" clip-path="url(#terminal-4249612588-line-0)">[+]</text><text class="terminal-4249612588-r4" x="292.8" y="20" textLength="12.2" clip-path="url(#terminal-4249612588-line-0)">╭</text><text class="terminal-4249612588-r4" x="305" y="20" textLength="463.6" clip-path="url(#terminal-4249612588-line-0)">──────────────────────────────────────</text><text class="terminal-4249612588-r4" x="768.6" y="20" textLength="12.2" clip-path="url(#terminal-4249612588-line-0)">╮</text><text class="terminal-4249612588-r6" x="1098" y="20" textLength="12.2" clip-path="url(#terminal-4249612588-line-0)">
</text><text class="terminal-4249612588-r7" x="0" y="44.4" textLength="12.2" clip-path="url(#terminal-4249612588-line-1)">┌</text><text class="terminal-4249612588-r7" x="12.2" y="44.4" textLength="85.4" clip-path="url(#terminal-4249612588-line-1)">▀▀▀▀▀▀▀</text><text class="terminal-4249612588-r7" x="97.6" y="44.4" textLength="195.2" clip-path="url(#terminal-4249612588-line-1)">────────────────</text><text class="terminal-4249612588-r4" x="292.8" y="44.4" textLength="12.2" clip-path="url(#terminal-4249612588-line-1)">│</text><text class="terminal-4249612588-r8" x="305" y="44.4" textLength="219.6" clip-path="url(#terminal-4249612588-line-1)">패널&#160;분할&#160;│&#160;(좌우)</text><text class="terminal-4249612588-r4" x="768.6" y="44.4" textLength="12.2" clip-path="url(#terminal-4249612588-line-1)">│</text><text class="terminal-4249612588-r7" x="780.8" y="44.4" textLength="268.4" clip-path="url(#terminal-4249612588-line-1)">──────────────────────</text><text class="terminal-4249612588-r9" x="1049.2" y="44.4" textLength="24.4" clip-path="url(#terminal-4249612588-line-1)">[x</text><text class="terminal-4249612588-r6" x="1098" y="44.4" textLength="12.2" clip-path="url(#terminal-4249612588-line-1)">
</text><text class="terminal-4249612588-r7" x="0" y="68.8" textLength="12.2" clip-path="url(#terminal-4249612588-line-2)">│</text><text class="terminal-4249612588-r10" x="12.2" y="68.8" textLength="280.6" clip-path="url(#terminal-4249612588-line-2)">neoocean@playground&#160;pyt</text><text class="terminal-4249612588-r4" x="292.8" y="68.8" textLength="12.2" clip-path="url(#terminal-4249612588-line-2)">│</text><text class="terminal-4249612588-r11" x="305" y="68.8" textLength="219.6" clip-path="url(#terminal-4249612588-line-2)">패널&#160;분할&#160;─&#160;(상하)</text><text class="terminal-4249612588-r4" x="768.6" y="68.8" textLength="12.2" clip-path="url(#terminal-4249612588-line-2)">│</text><text class="terminal-4249612588-r12" x="1049.2" y="68.8" textLength="24.4" clip-path="url(#terminal-4249612588-line-2)">[E</text><text class="terminal-4249612588-r6" x="1098" y="68.8" textLength="12.2" clip-path="url(#terminal-4249612588-line-2)">
</text><text class="terminal-4249612588-r7" x="0" y="93.2" textLength="12.2" clip-path="url(#terminal-4249612588-line-3)">│</text><text class="terminal-4249612588-r4" x="292.8" y="93.2" textLength="12.2" clip-path="url(#terminal-4249612588-line-3)">│</text><text class="terminal-4249612588-r11" x="305" y="93.2" textLength="207.4" clip-path="url(#terminal-4249612588-line-3)">패널&#160;줌&#160;토글&#160;⛶&#160;&#160;○</text><text class="terminal-4249612588-r4" x="768.6" y="93.2" textLength="12.2" clip-path="url(#terminal-4249612588-line-3)">│</text><text class="terminal-4249612588-r6" x="1098" y="93.2" textLength="12.2" clip-path="url(#terminal-4249612588-line-3)">
</text><text class="terminal-4249612588-r7" x="0" y="117.6" textLength="12.2" clip-path="url(#terminal-4249612588-line-4)">│</text><text class="terminal-4249612588-r4" x="292.8" y="117.6" textLength="12.2" clip-path="url(#terminal-4249612588-line-4)">│</text><text class="terminal-4249612588-r11" x="305" y="117.6" textLength="134.2" clip-path="url(#terminal-4249612588-line-4)">패널&#160;회전&#160;↻</text><text class="terminal-4249612588-r4" x="768.6" y="117.6" textLength="12.2" clip-path="url(#terminal-4249612588-line-4)">│</text><text class="terminal-4249612588-r6" x="1098" y="117.6" textLength="12.2" clip-path="url(#terminal-4249612588-line-4)">
</text><text class="terminal-4249612588-r7" x="0" y="142" textLength="12.2" clip-path="url(#terminal-4249612588-line-5)">│</text><text class="terminal-4249612588-r4" x="292.8" y="142" textLength="12.2" clip-path="url(#terminal-4249612588-line-5)">│</text><text class="terminal-4249612588-r11" x="305" y="142" textLength="280.6" clip-path="url(#terminal-4249612588-line-5)">패널&#160;교환&#160;(다음&#160;패널과)</text><text class="terminal-4249612588-r4" x="768.6" y="142" textLength="12.2" clip-path="url(#terminal-4249612588-line-5)">│</text><text class="terminal-4249612588-r6" x="1098" y="142" textLength="12.2" clip-path="url(#terminal-4249612588-line-5)">
</text><text class="terminal-4249612588-r7" x="0" y="166.4" textLength="12.2" clip-path="url(#terminal-4249612588-line-6)">│</text><text class="terminal-4249612588-r4" x="292.8" y="166.4" textLength="12.2" clip-path="url(#terminal-4249612588-line-6)">│</text><text class="terminal-4249612588-r11" x="305" y="166.4" textLength="256.2" clip-path="url(#terminal-4249612588-line-6)">패널&#160;→&#160;새&#160;탭으로&#160;분리</text><text class="terminal-4249612588-r4" x="768.6" y="166.4" textLength="12.2" clip-path="url(#terminal-4249612588-line-6)">│</text><text class="terminal-4249612588-r6" x="1098" y="166.4" textLength="12.2" clip-path="url(#terminal-4249612588-line-6)">
</text><text class="terminal-4249612588-r7" x="0" y="190.8" textLength="12.2" clip-path="url(#terminal-4249612588-line-7)">│</text><text class="terminal-4249612588-r4" x="292.8" y="190.8" textLength="12.2" clip-path="url(#terminal-4249612588-line-7)">│</text><text class="terminal-4249612588-r11" x="305" y="190.8" textLength="463.6" clip-path="url(#terminal-4249612588-line-7)">패널&#160;→&#160;다른&#160;탭에&#160;합치기&#160;(join-pane&#160;&lt;탭</text><text class="terminal-4249612588-r4" x="768.6" y="190.8" textLength="12.2" clip-path="url(#terminal-4249612588-line-7)">│</text><text class="terminal-4249612588-r6" x="1098" y="190.8" textLength="12.2" clip-path="url(#terminal-4249612588-line-7)">
</text><text class="terminal-4249612588-r7" x="0" y="215.2" textLength="12.2" clip-path="url(#terminal-4249612588-line-8)">│</text><text class="terminal-4249612588-r4" x="292.8" y="215.2" textLength="12.2" clip-path="url(#terminal-4249612588-line-8)">│</text><text class="terminal-4249612588-r11" x="305" y="215.2" textLength="170.8" clip-path="url(#terminal-4249612588-line-8)">패널&#160;제목&#160;변경</text><text class="terminal-4249612588-r4" x="768.6" y="215.2" textLength="12.2" clip-path="url(#terminal-4249612588-line-8)">│</text><text class="terminal-4249612588-r6" x="1098" y="215.2" textLength="12.2" clip-path="url(#terminal-4249612588-line-8)">
</text><text class="terminal-4249612588-r7" x="0" y="239.6" textLength="12.2" clip-path="url(#terminal-4249612588-line-9)">│</text><text class="terminal-4249612588-r4" x="292.8" y="239.6" textLength="12.2" clip-path="url(#terminal-4249612588-line-9)">│</text><text class="terminal-4249612588-r11" x="305" y="239.6" textLength="195.2" clip-path="url(#terminal-4249612588-line-9)">레이아웃&#160;프리셋…</text><text class="terminal-4249612588-r4" x="768.6" y="239.6" textLength="12.2" clip-path="url(#terminal-4249612588-line-9)">│</text><text class="terminal-4249612588-r6" x="1098" y="239.6" textLength="12.2" clip-path="url(#terminal-4249612588-line-9)">
</text><text class="terminal-4249612588-r7" x="0" y="264" textLength="12.2" clip-path="url(#terminal-4249612588-line-10)">│</text><text class="terminal-4249612588-r4" x="292.8" y="264" textLength="12.2" clip-path="url(#terminal-4249612588-line-10)">│</text><text class="terminal-4249612588-r11" x="305" y="264" textLength="244" clip-path="url(#terminal-4249612588-line-10)">다음&#160;레이아웃&#160;프리셋</text><text class="terminal-4249612588-r4" x="768.6" y="264" textLength="12.2" clip-path="url(#terminal-4249612588-line-10)">│</text><text class="terminal-4249612588-r6" x="1098" y="264" textLength="12.2" clip-path="url(#terminal-4249612588-line-10)">
</text><text class="terminal-4249612588-r7" x="0" y="288.4" textLength="12.2" clip-path="url(#terminal-4249612588-line-11)">│</text><text class="terminal-4249612588-r4" x="292.8" y="288.4" textLength="12.2" clip-path="url(#terminal-4249612588-line-11)">│</text><text class="terminal-4249612588-r11" x="305" y="288.4" textLength="158.6" clip-path="url(#terminal-4249612588-line-11)">스크롤백&#160;검색</text><text class="terminal-4249612588-r4" x="768.6" y="288.4" textLength="12.2" clip-path="url(#terminal-4249612588-line-11)">│</text><text class="terminal-4249612588-r6" x="1098" y="288.4" textLength="12.2" clip-path="url(#terminal-4249612588-line-11)">
</text><text class="terminal-4249612588-r7" x="0" y="312.8" textLength="12.2" clip-path="url(#terminal-4249612588-line-12)">│</text><text class="terminal-4249612588-r4" x="292.8" y="312.8" textLength="12.2" clip-path="url(#terminal-4249612588-line-12)">│</text><text class="terminal-4249612588-r11" x="305" y="312.8" textLength="134.2" clip-path="url(#terminal-4249612588-line-12)">패널&#160;삭제&#160;✕</text><text class="terminal-4249612588-r4" x="768.6" y="312.8" textLength="12.2" clip-path="url(#terminal-4249612588-line-12)">│</text><text class="terminal-4249612588-r6" x="1098" y="312.8" textLength="12.2" clip-path="url(#terminal-4249612588-line-12)">
</text><text class="terminal-4249612588-r7" x="0" y="337.2" textLength="12.2" clip-path="url(#terminal-4249612588-line-13)">│</text><text class="terminal-4249612588-r4" x="292.8" y="337.2" textLength="12.2" clip-path="url(#terminal-4249612588-line-13)">│</text><text class="terminal-4249612588-r11" x="305" y="337.2" textLength="231.8" clip-path="url(#terminal-4249612588-line-13)">입력&#160;동기화&#160;토글&#160;&#160;○</text><text class="terminal-4249612588-r4" x="768.6" y="337.2" textLength="12.2" clip-path="url(#terminal-4249612588-line-13)">│</text><text class="terminal-4249612588-r6" x="1098" y="337.2" textLength="12.2" clip-path="url(#terminal-4249612588-line-13)">
</text><text class="terminal-4249612588-r7" x="0" y="361.6" textLength="12.2" clip-path="url(#terminal-4249612588-line-14)">│</text><text class="terminal-4249612588-r4" x="292.8" y="361.6" textLength="12.2" clip-path="url(#terminal-4249612588-line-14)">│</text><text class="terminal-4249612588-r11" x="305" y="361.6" textLength="305" clip-path="url(#terminal-4249612588-line-14)">토큰리밋&#160;자동재개&#160;토글&#160;&#160;○</text><text class="terminal-4249612588-r4" x="768.6" y="361.6" textLength="12.2" clip-path="url(#terminal-4249612588-line-14)">│</text><text class="terminal-4249612588-r6" x="1098" y="361.6" textLength="12.2" clip-path="url(#terminal-4249612588-line-14)">
</text><text class="terminal-4249612588-r7" x="0" y="386" textLength="12.2" clip-path="url(#terminal-4249612588-line-15)">│</text><text class="terminal-4249612588-r4" x="292.8" y="386" textLength="12.2" clip-path="url(#terminal-4249612588-line-15)">│</text><text class="terminal-4249612588-r11" x="305" y="386" textLength="463.6" clip-path="url(#terminal-4249612588-line-15)">프롬프트&#160;단위&#160;클리어&#160;토글(완료마다&#160;문&#160;</text><text class="terminal-4249612588-r4" x="768.6" y="386" textLength="12.2" clip-path="url(#terminal-4249612588-line-15)">│</text><text class="terminal-4249612588-r6" x="1098" y="386" textLength="12.2" clip-path="url(#terminal-4249612588-line-15)">
</text><text class="terminal-4249612588-r7" x="0" y="410.4" textLength="12.2" clip-path="url(#terminal-4249612588-line-16)">│</text><text class="terminal-4249612588-r4" x="292.8" y="410.4" textLength="12.2" clip-path="url(#terminal-4249612588-line-16)">│</text><text class="terminal-4249612588-r11" x="305" y="410.4" textLength="61" clip-path="url(#terminal-4249612588-line-16)">새&#160;탭</text><text class="terminal-4249612588-r4" x="768.6" y="410.4" textLength="12.2" clip-path="url(#terminal-4249612588-line-16)">│</text><text class="terminal-4249612588-r6" x="1098" y="410.4" textLength="12.2" clip-path="url(#terminal-4249612588-line-16)">
</text><text class="terminal-4249612588-r7" x="0" y="434.8" textLength="12.2" clip-path="url(#terminal-4249612588-line-17)">│</text><text class="terminal-4249612588-r4" x="292.8" y="434.8" textLength="12.2" clip-path="url(#terminal-4249612588-line-17)">│</text><text class="terminal-4249612588-r11" x="305" y="434.8" textLength="146.4" clip-path="url(#terminal-4249612588-line-17)">탭&#160;이름&#160;변경</text><text class="terminal-4249612588-r4" x="768.6" y="434.8" textLength="12.2" clip-path="url(#terminal-4249612588-line-17)">│</text><text class="terminal-4249612588-r6" x="1098" y="434.8" textLength="12.2" clip-path="url(#terminal-4249612588-line-17)">
</text><text class="terminal-4249612588-r7" x="0" y="459.2" textLength="12.2" clip-path="url(#terminal-4249612588-line-18)">│</text><text class="terminal-4249612588-r4" x="292.8" y="459.2" textLength="12.2" clip-path="url(#terminal-4249612588-line-18)">│</text><text class="terminal-4249612588-r11" x="305" y="459.2" textLength="85.4" clip-path="url(#terminal-4249612588-line-18)">탭&#160;삭제</text><text class="terminal-4249612588-r4" x="768.6" y="459.2" textLength="12.2" clip-path="url(#terminal-4249612588-line-18)">│</text><text class="terminal-4249612588-r6" x="1098" y="459.2" textLength="12.2" clip-path="url(#terminal-4249612588-line-18)">
</text><text class="terminal-4249612588-r7" x="0" y="483.6" textLength="12.2" clip-path="url(#terminal-4249612588-line-19)">│</text><text class="terminal-4249612588-r4" x="292.8" y="483.6" textLength="12.2" clip-path="url(#terminal-4249612588-line-19)">│</text><text class="terminal-4249612588-r11" x="305" y="483.6" textLength="183" clip-path="url(#terminal-4249612588-line-19)">탭&#160;선택기(트리)</text><text class="terminal-4249612588-r4" x="768.6" y="483.6" textLength="12.2" clip-path="url(#terminal-4249612588-line-19)">│</text><text class="terminal-4249612588-r6" x="1098" y="483.6" textLength="12.2" clip-path="url(#terminal-4249612588-line-19)">
</text><text class="terminal-4249612588-r7" x="0" y="508" textLength="12.2" clip-path="url(#terminal-4249612588-line-20)">│</text><text class="terminal-4249612588-r4" x="292.8" y="508" textLength="12.2" clip-path="url(#terminal-4249612588-line-20)">│</text><text class="terminal-4249612588-r11" x="305" y="508" textLength="85.4" clip-path="url(#terminal-4249612588-line-20)">다음&#160;탭</text><text class="terminal-4249612588-r4" x="768.6" y="508" textLength="12.2" clip-path="url(#terminal-4249612588-line-20)">│</text><text class="terminal-4249612588-r6" x="1098" y="508" textLength="12.2" clip-path="url(#terminal-4249612588-line-20)">
</text><text class="terminal-4249612588-r7" x="0" y="532.4" textLength="12.2" clip-path="url(#terminal-4249612588-line-21)">│</text><text class="terminal-4249612588-r4" x="292.8" y="532.4" textLength="12.2" clip-path="url(#terminal-4249612588-line-21)">│</text><text class="terminal-4249612588-r11" x="305" y="532.4" textLength="85.4" clip-path="url(#terminal-4249612588-line-21)">이전&#160;탭</text><text class="terminal-4249612588-r4" x="768.6" y="532.4" textLength="12.2" clip-path="url(#terminal-4249612588-line-21)">│</text><text class="terminal-4249612588-r13" x="1073.6" y="532.4" textLength="24.4" clip-path="url(#terminal-4249612588-line-21)">▇▇</text><text class="terminal-4249612588-r6" x="1098" y="532.4" textLength="12.2" clip-path="url(#terminal-4249612588-line-21)">
</text><text class="terminal-4249612588-r7" x="0" y="556.8" textLength="12.2" clip-path="url(#terminal-4249612588-line-22)">│</text><text class="terminal-4249612588-r4" x="292.8" y="556.8" textLength="12.2" clip-path="url(#terminal-4249612588-line-22)">│</text><text class="terminal-4249612588-r11" x="305" y="556.8" textLength="268.4" clip-path="url(#terminal-4249612588-line-22)">레이아웃&#160;저장(현재&#160;탭)</text><text class="terminal-4249612588-r4" x="768.6" y="556.8" textLength="12.2" clip-path="url(#terminal-4249612588-line-22)">│</text><text class="terminal-4249612588-r6" x="1098" y="556.8" textLength="12.2" clip-path="url(#terminal-4249612588-line-22)">
</text><text class="terminal-4249612588-r7" x="0" y="581.2" textLength="12.2" clip-path="url(#terminal-4249612588-line-23)">│</text><text class="terminal-4249612588-r4" x="292.8" y="581.2" textLength="12.2" clip-path="url(#terminal-4249612588-line-23)">│</text><text class="terminal-4249612588-r11" x="305" y="581.2" textLength="427" clip-path="url(#terminal-4249612588-line-23)">레이아웃&#160;불러오기(현재&#160;탭&#160;덮어쓰기)</text><text class="terminal-4249612588-r4" x="768.6" y="581.2" textLength="12.2" clip-path="url(#terminal-4249612588-line-23)">│</text><text class="terminal-4249612588-r6" x="1098" y="581.2" textLength="12.2" clip-path="url(#terminal-4249612588-line-23)">
</text><text class="terminal-4249612588-r7" x="0" y="605.6" textLength="292.8" clip-path="url(#terminal-4249612588-line-24)">└───────────────────────</text><text class="terminal-4249612588-r4" x="292.8" y="605.6" textLength="12.2" clip-path="url(#terminal-4249612588-line-24)">│</text><text class="terminal-4249612588-r11" x="305" y="605.6" textLength="292.8" clip-path="url(#terminal-4249612588-line-24)">레이아웃&#160;불러오기(새&#160;탭)</text><text class="terminal-4249612588-r4" x="768.6" y="605.6" textLength="12.2" clip-path="url(#terminal-4249612588-line-24)">│</text><text class="terminal-4249612588-r7" x="780.8" y="605.6" textLength="292.8" clip-path="url(#terminal-4249612588-line-24)">────────────────────────</text><text class="terminal-4249612588-r6" x="1098" y="605.6" textLength="12.2" clip-path="url(#terminal-4249612588-line-24)">
</text><text class="terminal-4249612588-r4" x="292.8" y="630" textLength="12.2" clip-path="url(#terminal-4249612588-line-25)">│</text><text class="terminal-4249612588-r11" x="305" y="630" textLength="244" clip-path="url(#terminal-4249612588-line-25)">마우스&#160;제스처&#160;도움말</text><text class="terminal-4249612588-r4" x="768.6" y="630" textLength="12.2" clip-path="url(#terminal-4249612588-line-25)">│</text><text class="terminal-4249612588-r14" x="780.8" y="630" textLength="97.6" clip-path="url(#terminal-4249612588-line-25)">ayground</text><text class="terminal-4249612588-r1" x="890.6" y="630" textLength="61" clip-path="url(#terminal-4249612588-line-25)">19:22</text><text class="terminal-4249612588-r1" x="963.8" y="630" textLength="109.8" clip-path="url(#terminal-4249612588-line-25)">2026-06-1</text>
    </g>
    </g>
</svg>
