<svg class="rich-terminal" viewBox="0 0 1116 684.4" xmlns="http://www.w3.org/2000/svg">
    <!-- Generated with Rich https://www.textualize.io -->
    <style>

    @font-face {
        font-family: "Fira Code";
        src: local("FiraCode-Regular"),
                url("https://cdnjs.cloudflare.com/ajax/libs/firacode/6.2.0/woff2/FiraCode-Regular.woff2") format("woff2"),
                url("https://cdnjs.cloudflare.com/ajax/libs/firacode/6.2.0/woff/FiraCode-Regular.woff") format("woff");
        font-style: normal;
        font-weight: 400;
    }
    @font-face {
        font-family: "Fira Code";
        src: local("FiraCode-Bold"),
                url("https://cdnjs.cloudflare.com/ajax/libs/firacode/6.2.0/woff2/FiraCode-Bold.woff2") format("woff2"),
                url("https://cdnjs.cloudflare.com/ajax/libs/firacode/6.2.0/woff/FiraCode-Bold.woff") format("woff");
        font-style: bold;
        font-weight: 700;
    }

    .terminal-1103084867-matrix {
        font-family: Fira Code, "Apple SD Gothic Neo", monospace;
        font-size: 20px;
        line-height: 24.4px;
        font-variant-east-asian: full-width;
    }

    .terminal-1103084867-title {
        font-size: 18px;
        font-weight: bold;
        font-family: arial;
    }

    .terminal-1103084867-r1 { fill: #3b3b3b }
.terminal-1103084867-r2 { fill: #353532;font-weight: bold }
.terminal-1103084867-r3 { fill: #131313;font-weight: bold }
.terminal-1103084867-r4 { fill: #c5c8c6 }
.terminal-1103084867-r5 { fill: #251d12 }
.terminal-1103084867-r6 { fill: #0e1921 }
.terminal-1103084867-r7 { fill: #1f1f1f }
.terminal-1103084867-r8 { fill: #1a1a1a }
.terminal-1103084867-r9 { fill: #0e0e0e }
.terminal-1103084867-r10 { fill: #fea62b }
.terminal-1103084867-r11 { fill: #fea62b;font-weight: bold }
.terminal-1103084867-r12 { fill: #e2e2e2 }
.terminal-1103084867-r13 { fill: #121212 }
.terminal-1103084867-r14 { fill: #9e9e9e }
    </style>

    <defs>
    <clipPath id="terminal-1103084867-clip-terminal">
      <rect x="0" y="0" width="1097.0" height="633.4" />
    </clipPath>
    <clipPath id="terminal-1103084867-line-0">
    <rect x="0" y="1.5" width="1098" height="24.65"/>
            </clipPath>
<clipPath id="terminal-1103084867-line-1">
    <rect x="0" y="25.9" width="1098" height="24.65"/>
            </clipPath>
<clipPath id="terminal-1103084867-line-2">
    <rect x="0" y="50.3" width="1098" height="24.65"/>
            </clipPath>
<clipPath id="terminal-1103084867-line-3">
    <rect x="0" y="74.7" width="1098" height="24.65"/>
            </clipPath>
<clipPath id="terminal-1103084867-line-4">
    <rect x="0" y="99.1" width="1098" height="24.65"/>
            </clipPath>
<clipPath id="terminal-1103084867-line-5">
    <rect x="0" y="123.5" width="1098" height="24.65"/>
            </clipPath>
<clipPath id="terminal-1103084867-line-6">
    <rect x="0" y="147.9" width="1098" height="24.65"/>
            </clipPath>
<clipPath id="terminal-1103084867-line-7">
    <rect x="0" y="172.3" width="1098" height="24.65"/>
            </clipPath>
<clipPath id="terminal-1103084867-line-8">
    <rect x="0" y="196.7" width="1098" height="24.65"/>
            </clipPath>
<clipPath id="terminal-1103084867-line-9">
    <rect x="0" y="221.1" width="1098" height="24.65"/>
            </clipPath>
<clipPath id="terminal-1103084867-line-10">
    <rect x="0" y="245.5" width="1098" height="24.65"/>
            </clipPath>
<clipPath id="terminal-1103084867-line-11">
    <rect x="0" y="269.9" width="1098" height="24.65"/>
            </clipPath>
<clipPath id="terminal-1103084867-line-12">
    <rect x="0" y="294.3" width="1098" height="24.65"/>
            </clipPath>
<clipPath id="terminal-1103084867-line-13">
    <rect x="0" y="318.7" width="1098" height="24.65"/>
            </clipPath>
<clipPath id="terminal-1103084867-line-14">
    <rect x="0" y="343.1" width="1098" height="24.65"/>
            </clipPath>
<clipPath id="terminal-1103084867-line-15">
    <rect x="0" y="367.5" width="1098" height="24.65"/>
            </clipPath>
<clipPath id="terminal-1103084867-line-16">
    <rect x="0" y="391.9" width="1098" height="24.65"/>
            </clipPath>
<clipPath id="terminal-1103084867-line-17">
    <rect x="0" y="416.3" width="1098" height="24.65"/>
            </clipPath>
<clipPath id="terminal-1103084867-line-18">
    <rect x="0" y="440.7" width="1098" height="24.65"/>
            </clipPath>
<clipPath id="terminal-1103084867-line-19">
    <rect x="0" y="465.1" width="1098" height="24.65"/>
            </clipPath>
<clipPath id="terminal-1103084867-line-20">
    <rect x="0" y="489.5" width="1098" height="24.65"/>
            </clipPath>
<clipPath id="terminal-1103084867-line-21">
    <rect x="0" y="513.9" width="1098" height="24.65"/>
            </clipPath>
<clipPath id="terminal-1103084867-line-22">
    <rect x="0" y="538.3" width="1098" height="24.65"/>
            </clipPath>
<clipPath id="terminal-1103084867-line-23">
    <rect x="0" y="562.7" width="1098" height="24.65"/>
            </clipPath>
<clipPath id="terminal-1103084867-line-24">
    <rect x="0" y="587.1" width="1098" height="24.65"/>
            </clipPath>
    </defs>

    <rect fill="#292929" stroke="rgba(255,255,255,0.35)" stroke-width="1" x="1" y="1" width="1114" height="682.4" rx="8"/><text class="terminal-1103084867-title" fill="#c5c8c6" text-anchor="middle" x="557" y="27">PytmuxApp</text>
            <g transform="translate(26,22)">
            <circle cx="0" cy="0" r="7" fill="#ff5f57"/>
            <circle cx="22" cy="0" r="7" fill="#febc2e"/>
            <circle cx="44" cy="0" r="7" fill="#28c840"/>
            </g>
        
    <g transform="translate(9, 41)" clip-path="url(#terminal-1103084867-clip-terminal)">
    <rect fill="#121212" x="0" y="1.5" width="12.2" height="24.65" shape-rendering="crispEdges"/><rect fill="#0e2638" x="12.2" y="1.5" width="85.4" height="24.65" shape-rendering="crispEdges"/><rect fill="#121212" x="97.6" y="1.5" width="24.4" height="24.65" shape-rendering="crispEdges"/><rect fill="#1e3425" x="122" y="1.5" width="36.6" height="24.65" shape-rendering="crispEdges"/><rect fill="#121212" x="158.6" y="1.5" width="939.4" height="24.65" shape-rendering="crispEdges"/><rect fill="#121212" x="0" y="25.9" width="12.2" height="24.65" shape-rendering="crispEdges"/><rect fill="#121212" x="12.2" y="25.9" width="85.4" height="24.65" shape-rendering="crispEdges"/><rect fill="#121212" x="97.6" y="25.9" width="951.6" height="24.65" shape-rendering="crispEdges"/><rect fill="#1f1316" x="1049.2" y="25.9" width="36.6" height="24.65" shape-rendering="crispEdges"/><rect fill="#121212" x="1085.8" y="25.9" width="12.2" height="24.65" shape-rendering="crispEdges"/><rect fill="#121212" x="0" y="50.3" width="12.2" height="24.65" shape-rendering="crispEdges"/><rect fill="#121212" x="12.2" y="50.3" width="353.8" height="24.65" shape-rendering="crispEdges"/><rect fill="#121212" x="366" y="50.3" width="12.2" height="24.65" shape-rendering="crispEdges"/><rect fill="#121212" x="378.2" y="50.3" width="671" height="24.65" shape-rendering="crispEdges"/><rect fill="#0e1921" x="1049.2" y="50.3" width="48.8" height="24.65" shape-rendering="crispEdges"/><rect fill="#121212" x="0" y="74.7" width="12.2" height="24.65" shape-rendering="crispEdges"/><rect fill="#121212" x="12.2" y="74.7" width="1073.6" height="24.65" shape-rendering="crispEdges"/><rect fill="#121212" x="1085.8" y="74.7" width="12.2" height="24.65" shape-rendering="crispEdges"/><rect fill="#121212" x="0" y="99.1" width="12.2" height="24.65" shape-rendering="crispEdges"/><rect fill="#121212" x="12.2" y="99.1" width="1073.6" height="24.65" shape-rendering="crispEdges"/><rect fill="#121212" x="1085.8" y="99.1" width="12.2" height="24.65" shape-rendering="crispEdges"/><rect fill="#121212" x="0" y="123.5" width="12.2" height="24.65" shape-rendering="crispEdges"/><rect fill="#121212" x="12.2" y="123.5" width="1073.6" height="24.65" shape-rendering="crispEdges"/><rect fill="#121212" x="1085.8" y="123.5" width="12.2" height="24.65" shape-rendering="crispEdges"/><rect fill="#121212" x="0" y="147.9" width="12.2" height="24.65" shape-rendering="crispEdges"/><rect fill="#121212" x="12.2" y="147.9" width="1073.6" height="24.65" shape-rendering="crispEdges"/><rect fill="#121212" x="1085.8" y="147.9" width="12.2" height="24.65" shape-rendering="crispEdges"/><rect fill="#121212" x="0" y="172.3" width="12.2" height="24.65" shape-rendering="crispEdges"/><rect fill="#121212" x="12.2" y="172.3" width="1073.6" height="24.65" shape-rendering="crispEdges"/><rect fill="#121212" x="1085.8" y="172.3" width="12.2" height="24.65" shape-rendering="crispEdges"/><rect fill="#121212" x="0" y="196.7" width="12.2" height="24.65" shape-rendering="crispEdges"/><rect fill="#121212" x="12.2" y="196.7" width="1073.6" height="24.65" shape-rendering="crispEdges"/><rect fill="#121212" x="1085.8" y="196.7" width="12.2" height="24.65" shape-rendering="crispEdges"/><rect fill="#121212" x="0" y="221.1" width="12.2" height="24.65" shape-rendering="crispEdges"/><rect fill="#121212" x="12.2" y="221.1" width="1073.6" height="24.65" shape-rendering="crispEdges"/><rect fill="#121212" x="1085.8" y="221.1" width="12.2" height="24.65" shape-rendering="crispEdges"/><rect fill="#121212" x="0" y="245.5" width="12.2" height="24.65" shape-rendering="crispEdges"/><rect fill="#121212" x="12.2" y="245.5" width="1073.6" height="24.65" shape-rendering="crispEdges"/><rect fill="#121212" x="1085.8" y="245.5" width="12.2" height="24.65" shape-rendering="crispEdges"/><rect fill="#121212" x="0" y="269.9" width="12.2" height="24.65" shape-rendering="crispEdges"/><rect fill="#121212" x="12.2" y="269.9" width="1073.6" height="24.65" shape-rendering="crispEdges"/><rect fill="#121212" x="1085.8" y="269.9" width="12.2" height="24.65" shape-rendering="crispEdges"/><rect fill="#121212" x="0" y="294.3" width="12.2" height="24.65" shape-rendering="crispEdges"/><rect fill="#121212" x="12.2" y="294.3" width="1073.6" height="24.65" shape-rendering="crispEdges"/><rect fill="#121212" x="1085.8" y="294.3" width="12.2" height="24.65" shape-rendering="crispEdges"/><rect fill="#121212" x="0" y="318.7" width="12.2" height="24.65" shape-rendering="crispEdges"/><rect fill="#121212" x="12.2" y="318.7" width="1073.6" height="24.65" shape-rendering="crispEdges"/><rect fill="#121212" x="1085.8" y="318.7" width="12.2" height="24.65" shape-rendering="crispEdges"/><rect fill="#121212" x="0" y="343.1" width="12.2" height="24.65" shape-rendering="crispEdges"/><rect fill="#121212" x="12.2" y="343.1" width="1073.6" height="24.65" shape-rendering="crispEdges"/><rect fill="#121212" x="1085.8" y="343.1" width="12.2" height="24.65" shape-rendering="crispEdges"/><rect fill="#121212" x="0" y="367.5" width="12.2" height="24.65" shape-rendering="crispEdges"/><rect fill="#121212" x="12.2" y="367.5" width="1073.6" height="24.65" shape-rendering="crispEdges"/><rect fill="#121212" x="1085.8" y="367.5" width="12.2" height="24.65" shape-rendering="crispEdges"/><rect fill="#121212" x="0" y="391.9" width="12.2" height="24.65" shape-rendering="crispEdges"/><rect fill="#121212" x="12.2" y="391.9" width="1073.6" height="24.65" shape-rendering="crispEdges"/><rect fill="#121212" x="1085.8" y="391.9" width="12.2" height="24.65" shape-rendering="crispEdges"/><rect fill="#121212" x="0" y="416.3" width="12.2" height="24.65" shape-rendering="crispEdges"/><rect fill="#121212" x="12.2" y="416.3" width="1073.6" height="24.65" shape-rendering="crispEdges"/><rect fill="#121212" x="1085.8" y="416.3" width="12.2" height="24.65" shape-rendering="crispEdges"/><rect fill="#121212" x="0" y="440.7" width="12.2" height="24.65" shape-rendering="crispEdges"/><rect fill="#121212" x="12.2" y="440.7" width="1073.6" height="24.65" shape-rendering="crispEdges"/><rect fill="#121212" x="1085.8" y="440.7" width="12.2" height="24.65" shape-rendering="crispEdges"/><rect fill="#121212" x="0" y="465.1" width="12.2" height="24.65" shape-rendering="crispEdges"/><rect fill="#121212" x="12.2" y="465.1" width="1073.6" height="24.65" shape-rendering="crispEdges"/><rect fill="#121212" x="1085.8" y="465.1" width="12.2" height="24.65" shape-rendering="crispEdges"/><rect fill="#121212" x="0" y="489.5" width="12.2" height="24.65" shape-rendering="crispEdges"/><rect fill="#121212" x="12.2" y="489.5" width="1073.6" height="24.65" shape-rendering="crispEdges"/><rect fill="#121212" x="1085.8" y="489.5" width="12.2" height="24.65" shape-rendering="crispEdges"/><rect fill="#121212" x="0" y="513.9" width="12.2" height="24.65" shape-rendering="crispEdges"/><rect fill="#121212" x="12.2" y="513.9" width="1073.6" height="24.65" shape-rendering="crispEdges"/><rect fill="#121212" x="1085.8" y="513.9" width="12.2" height="24.65" shape-rendering="crispEdges"/><rect fill="#121212" x="0" y="538.3" width="12.2" height="24.65" shape-rendering="crispEdges"/><rect fill="#121212" x="12.2" y="538.3" width="1073.6" height="24.65" shape-rendering="crispEdges"/><rect fill="#121212" x="1085.8" y="538.3" width="12.2" height="24.65" shape-rendering="crispEdges"/><rect fill="#1e1e1e" x="0" y="562.7" width="12.2" height="24.65" shape-rendering="crispEdges"/><rect fill="#1e1e1e" x="12.2" y="562.7" width="1073.6" height="24.65" shape-rendering="crispEdges"/><rect fill="#1e1e1e" x="1085.8" y="562.7" width="12.2" height="24.65" shape-rendering="crispEdges"/><rect fill="#1e1e1e" x="0" y="587.1" width="12.2" height="24.65" shape-rendering="crispEdges"/><rect fill="#1e1e1e" x="12.2" y="587.1" width="12.2" height="24.65" shape-rendering="crispEdges"/><rect fill="#1e1e1e" x="24.4" y="587.1" width="12.2" height="24.65" shape-rendering="crispEdges"/><rect fill="#004295" x="36.6" y="587.1" width="146.4" height="24.65" shape-rendering="crispEdges"/><rect fill="#272727" x="183" y="587.1" width="36.6" height="24.65" shape-rendering="crispEdges"/><rect fill="#e0e0e0" x="219.6" y="587.1" width="12.2" height="24.65" shape-rendering="crispEdges"/><rect fill="#272727" x="231.8" y="587.1" width="366" height="24.65" shape-rendering="crispEdges"/><rect fill="#1e1e1e" x="597.8" y="587.1" width="12.2" height="24.65" shape-rendering="crispEdges"/><rect fill="#1e1e1e" x="610" y="587.1" width="463.6" height="24.65" shape-rendering="crispEdges"/><rect fill="#1e1e1e" x="1073.6" y="587.1" width="12.2" height="24.65" shape-rendering="crispEdges"/><rect fill="#1e1e1e" x="1085.8" y="587.1" width="12.2" height="24.65" shape-rendering="crispEdges"/><rect fill="#1e1e1e" x="0" y="611.5" width="12.2" height="24.65" shape-rendering="crispEdges"/><rect fill="#1e1e1e" x="12.2" y="611.5" width="1073.6" height="24.65" shape-rendering="crispEdges"/><rect fill="#1e1e1e" x="1085.8" y="611.5" width="12.2" height="24.65" shape-rendering="crispEdges"/>
    <g class="terminal-1103084867-matrix">
    <text class="terminal-1103084867-r2" x="12.2" y="20" textLength="85.4" clip-path="url(#terminal-1103084867-line-0)">&#160;1:win&#160;</text><text class="terminal-1103084867-r3" x="122" y="20" textLength="36.6" clip-path="url(#terminal-1103084867-line-0)">[+]</text><text class="terminal-1103084867-r4" x="1098" y="20" textLength="12.2" clip-path="url(#terminal-1103084867-line-0)">
</text><text class="terminal-1103084867-r5" x="0" y="44.4" textLength="12.2" clip-path="url(#terminal-1103084867-line-1)">┌</text><text class="terminal-1103084867-r6" x="12.2" y="44.4" textLength="85.4" clip-path="url(#terminal-1103084867-line-1)">▀▀▀▀▀▀▀</text><text class="terminal-1103084867-r5" x="97.6" y="44.4" textLength="951.6" clip-path="url(#terminal-1103084867-line-1)">──────────────────────────────────────────────────────────────────────────────</text><text class="terminal-1103084867-r7" x="1049.2" y="44.4" textLength="36.6" clip-path="url(#terminal-1103084867-line-1)">[x]</text><text class="terminal-1103084867-r5" x="1085.8" y="44.4" textLength="12.2" clip-path="url(#terminal-1103084867-line-1)">┐</text><text class="terminal-1103084867-r4" x="1098" y="44.4" textLength="12.2" clip-path="url(#terminal-1103084867-line-1)">
</text><text class="terminal-1103084867-r5" x="0" y="68.8" textLength="12.2" clip-path="url(#terminal-1103084867-line-2)">│</text><text class="terminal-1103084867-r8" x="12.2" y="68.8" textLength="353.8" clip-path="url(#terminal-1103084867-line-2)">neoocean@playground&#160;pytmux&#160;%&#160;</text><text class="terminal-1103084867-r9" x="1049.2" y="68.8" textLength="48.8" clip-path="url(#terminal-1103084867-line-2)">[EN]</text><text class="terminal-1103084867-r4" x="1098" y="68.8" textLength="12.2" clip-path="url(#terminal-1103084867-line-2)">
</text><text class="terminal-1103084867-r5" x="0" y="93.2" textLength="12.2" clip-path="url(#terminal-1103084867-line-3)">│</text><text class="terminal-1103084867-r5" x="1085.8" y="93.2" textLength="12.2" clip-path="url(#terminal-1103084867-line-3)">│</text><text class="terminal-1103084867-r4" x="1098" y="93.2" textLength="12.2" clip-path="url(#terminal-1103084867-line-3)">
</text><text class="terminal-1103084867-r5" x="0" y="117.6" textLength="12.2" clip-path="url(#terminal-1103084867-line-4)">│</text><text class="terminal-1103084867-r5" x="1085.8" y="117.6" textLength="12.2" clip-path="url(#terminal-1103084867-line-4)">│</text><text class="terminal-1103084867-r4" x="1098" y="117.6" textLength="12.2" clip-path="url(#terminal-1103084867-line-4)">
</text><text class="terminal-1103084867-r5" x="0" y="142" textLength="12.2" clip-path="url(#terminal-1103084867-line-5)">│</text><text class="terminal-1103084867-r5" x="1085.8" y="142" textLength="12.2" clip-path="url(#terminal-1103084867-line-5)">│</text><text class="terminal-1103084867-r4" x="1098" y="142" textLength="12.2" clip-path="url(#terminal-1103084867-line-5)">
</text><text class="terminal-1103084867-r5" x="0" y="166.4" textLength="12.2" clip-path="url(#terminal-1103084867-line-6)">│</text><text class="terminal-1103084867-r5" x="1085.8" y="166.4" textLength="12.2" clip-path="url(#terminal-1103084867-line-6)">│</text><text class="terminal-1103084867-r4" x="1098" y="166.4" textLength="12.2" clip-path="url(#terminal-1103084867-line-6)">
</text><text class="terminal-1103084867-r5" x="0" y="190.8" textLength="12.2" clip-path="url(#terminal-1103084867-line-7)">│</text><text class="terminal-1103084867-r5" x="1085.8" y="190.8" textLength="12.2" clip-path="url(#terminal-1103084867-line-7)">│</text><text class="terminal-1103084867-r4" x="1098" y="190.8" textLength="12.2" clip-path="url(#terminal-1103084867-line-7)">
</text><text class="terminal-1103084867-r5" x="0" y="215.2" textLength="12.2" clip-path="url(#terminal-1103084867-line-8)">│</text><text class="terminal-1103084867-r5" x="1085.8" y="215.2" textLength="12.2" clip-path="url(#terminal-1103084867-line-8)">│</text><text class="terminal-1103084867-r4" x="1098" y="215.2" textLength="12.2" clip-path="url(#terminal-1103084867-line-8)">
</text><text class="terminal-1103084867-r5" x="0" y="239.6" textLength="12.2" clip-path="url(#terminal-1103084867-line-9)">│</text><text class="terminal-1103084867-r5" x="1085.8" y="239.6" textLength="12.2" clip-path="url(#terminal-1103084867-line-9)">│</text><text class="terminal-1103084867-r4" x="1098" y="239.6" textLength="12.2" clip-path="url(#terminal-1103084867-line-9)">
</text><text class="terminal-1103084867-r5" x="0" y="264" textLength="12.2" clip-path="url(#terminal-1103084867-line-10)">│</text><text class="terminal-1103084867-r5" x="1085.8" y="264" textLength="12.2" clip-path="url(#terminal-1103084867-line-10)">│</text><text class="terminal-1103084867-r4" x="1098" y="264" textLength="12.2" clip-path="url(#terminal-1103084867-line-10)">
</text><text class="terminal-1103084867-r5" x="0" y="288.4" textLength="12.2" clip-path="url(#terminal-1103084867-line-11)">│</text><text class="terminal-1103084867-r5" x="1085.8" y="288.4" textLength="12.2" clip-path="url(#terminal-1103084867-line-11)">│</text><text class="terminal-1103084867-r4" x="1098" y="288.4" textLength="12.2" clip-path="url(#terminal-1103084867-line-11)">
</text><text class="terminal-1103084867-r5" x="0" y="312.8" textLength="12.2" clip-path="url(#terminal-1103084867-line-12)">│</text><text class="terminal-1103084867-r5" x="1085.8" y="312.8" textLength="12.2" clip-path="url(#terminal-1103084867-line-12)">│</text><text class="terminal-1103084867-r4" x="1098" y="312.8" textLength="12.2" clip-path="url(#terminal-1103084867-line-12)">
</text><text class="terminal-1103084867-r5" x="0" y="337.2" textLength="12.2" clip-path="url(#terminal-1103084867-line-13)">│</text><text class="terminal-1103084867-r5" x="1085.8" y="337.2" textLength="12.2" clip-path="url(#terminal-1103084867-line-13)">│</text><text class="terminal-1103084867-r4" x="1098" y="337.2" textLength="12.2" clip-path="url(#terminal-1103084867-line-13)">
</text><text class="terminal-1103084867-r5" x="0" y="361.6" textLength="12.2" clip-path="url(#terminal-1103084867-line-14)">│</text><text class="terminal-1103084867-r5" x="1085.8" y="361.6" textLength="12.2" clip-path="url(#terminal-1103084867-line-14)">│</text><text class="terminal-1103084867-r4" x="1098" y="361.6" textLength="12.2" clip-path="url(#terminal-1103084867-line-14)">
</text><text class="terminal-1103084867-r5" x="0" y="386" textLength="12.2" clip-path="url(#terminal-1103084867-line-15)">│</text><text class="terminal-1103084867-r5" x="1085.8" y="386" textLength="12.2" clip-path="url(#terminal-1103084867-line-15)">│</text><text class="terminal-1103084867-r4" x="1098" y="386" textLength="12.2" clip-path="url(#terminal-1103084867-line-15)">
</text><text class="terminal-1103084867-r5" x="0" y="410.4" textLength="12.2" clip-path="url(#terminal-1103084867-line-16)">│</text><text class="terminal-1103084867-r5" x="1085.8" y="410.4" textLength="12.2" clip-path="url(#terminal-1103084867-line-16)">│</text><text class="terminal-1103084867-r4" x="1098" y="410.4" textLength="12.2" clip-path="url(#terminal-1103084867-line-16)">
</text><text class="terminal-1103084867-r5" x="0" y="434.8" textLength="12.2" clip-path="url(#terminal-1103084867-line-17)">│</text><text class="terminal-1103084867-r5" x="1085.8" y="434.8" textLength="12.2" clip-path="url(#terminal-1103084867-line-17)">│</text><text class="terminal-1103084867-r4" x="1098" y="434.8" textLength="12.2" clip-path="url(#terminal-1103084867-line-17)">
</text><text class="terminal-1103084867-r5" x="0" y="459.2" textLength="12.2" clip-path="url(#terminal-1103084867-line-18)">│</text><text class="terminal-1103084867-r5" x="1085.8" y="459.2" textLength="12.2" clip-path="url(#terminal-1103084867-line-18)">│</text><text class="terminal-1103084867-r4" x="1098" y="459.2" textLength="12.2" clip-path="url(#terminal-1103084867-line-18)">
</text><text class="terminal-1103084867-r5" x="0" y="483.6" textLength="12.2" clip-path="url(#terminal-1103084867-line-19)">│</text><text class="terminal-1103084867-r5" x="1085.8" y="483.6" textLength="12.2" clip-path="url(#terminal-1103084867-line-19)">│</text><text class="terminal-1103084867-r4" x="1098" y="483.6" textLength="12.2" clip-path="url(#terminal-1103084867-line-19)">
</text><text class="terminal-1103084867-r5" x="0" y="508" textLength="12.2" clip-path="url(#terminal-1103084867-line-20)">│</text><text class="terminal-1103084867-r5" x="1085.8" y="508" textLength="12.2" clip-path="url(#terminal-1103084867-line-20)">│</text><text class="terminal-1103084867-r4" x="1098" y="508" textLength="12.2" clip-path="url(#terminal-1103084867-line-20)">
</text><text class="terminal-1103084867-r5" x="0" y="532.4" textLength="12.2" clip-path="url(#terminal-1103084867-line-21)">│</text><text class="terminal-1103084867-r5" x="1085.8" y="532.4" textLength="12.2" clip-path="url(#terminal-1103084867-line-21)">│</text><text class="terminal-1103084867-r4" x="1098" y="532.4" textLength="12.2" clip-path="url(#terminal-1103084867-line-21)">
</text><text class="terminal-1103084867-r5" x="0" y="556.8" textLength="12.2" clip-path="url(#terminal-1103084867-line-22)">│</text><text class="terminal-1103084867-r5" x="1085.8" y="556.8" textLength="12.2" clip-path="url(#terminal-1103084867-line-22)">│</text><text class="terminal-1103084867-r4" x="1098" y="556.8" textLength="12.2" clip-path="url(#terminal-1103084867-line-22)">
</text><text class="terminal-1103084867-r10" x="0" y="581.2" textLength="12.2" clip-path="url(#terminal-1103084867-line-23)">╭</text><text class="terminal-1103084867-r10" x="12.2" y="581.2" textLength="1073.6" clip-path="url(#terminal-1103084867-line-23)">────────────────────────────────────────────────────────────────────────────────────────</text><text class="terminal-1103084867-r10" x="1085.8" y="581.2" textLength="12.2" clip-path="url(#terminal-1103084867-line-23)">╮</text><text class="terminal-1103084867-r4" x="1098" y="581.2" textLength="12.2" clip-path="url(#terminal-1103084867-line-23)">
</text><text class="terminal-1103084867-r10" x="0" y="605.6" textLength="12.2" clip-path="url(#terminal-1103084867-line-24)">│</text><text class="terminal-1103084867-r11" x="12.2" y="605.6" textLength="12.2" clip-path="url(#terminal-1103084867-line-24)">:</text><text class="terminal-1103084867-r12" x="36.6" y="605.6" textLength="146.4" clip-path="url(#terminal-1103084867-line-24)">split-window</text><text class="terminal-1103084867-r12" x="183" y="605.6" textLength="36.6" clip-path="url(#terminal-1103084867-line-24)">&#160;-h</text><g clip-path="url(#terminal-1103084867-line-24)"><path fill="#9e9e9e" transform="translate(610 605.6) scale(0.0282081 -0.02)" d="M777 -70V804H703V448H597V783H523V-25H597V385H703V-70ZM478 174C477 194 476 214 473 234C443 230 404 226 362 223C373 340 384 460 394 577L318 585C309 464 302 338 294 218C286 217 278 217 271 217C248 216 227 214 204 214C197 337 188 462 181 583L105 574C114 455 123 332 133 213H26L38 145C112 146 194 150 275 154C353 159 432 166 478 174ZM451 630V694H42V630Z"/><path fill="#9e9e9e" transform="translate(634.4 605.6) scale(0.0282081 -0.02)" d="M752 351V804H676V652H409V589H676V351ZM785 -63V0H261V94H753V305H184V242H677V154H185V-63ZM545 485C446 464 279 446 162 448V755H86V383H151C266 383 462 401 555 421Z"/></g><text class="terminal-1103084867-r14" x="658.8" y="605.6" textLength="12.2" clip-path="url(#terminal-1103084867-line-24)">&#160;</text><g clip-path="url(#terminal-1103084867-line-24)"><path fill="#9e9e9e" transform="translate(671 605.6) scale(0.0282081 -0.02)" d="M727 442V776H650V668H213V776H137V442ZM469 113V281H827V344H38V281H393V113ZM739 -42V21H214V195H138V-42ZM650 506H213V605H650Z"/><path fill="#9e9e9e" transform="translate(695.4 605.6) scale(0.0282081 -0.02)" d="M843 509V573H710V804H634V307H710V509ZM743 -65V-6H236V74H710V262H156V204H634V130H160V-65ZM416 725V789H164V725ZM547 607V669H34V607ZM496 441C496 526 407 573 290 573C174 573 85 526 85 441C85 355 176 308 290 308C410 308 496 355 496 441ZM423 441C423 392 359 367 290 367C222 367 158 392 158 441C158 490 221 514 290 514C359 514 423 490 423 441Z"/></g><text class="terminal-1103084867-r14" x="719.8" y="605.6" textLength="61" clip-path="url(#terminal-1103084867-line-24)">&#160;(-h&#160;</text><g clip-path="url(#terminal-1103084867-line-24)"><path fill="#9e9e9e" transform="translate(780.8 605.6) scale(0.0282081 -0.02)" d="M61 647H258C257 517 149 408 37 370L77 310C181 358 270 443 298 528C333 450 431 371 516 338L556 396C464 425 337 518 335 647H539V711H61ZM852 374V438H712V804H635V-70H712V374ZM587 148 579 211C523 202 434 195 337 189V369H260V185C172 182 87 182 23 182L37 115C110 115 196 117 292 122C398 129 518 139 587 148Z"/><path fill="#9e9e9e" transform="translate(805.2 605.6) scale(0.0282081 -0.02)" d="M745 572C745 688 628 767 432 767C237 767 119 688 119 572C119 455 237 376 432 376C628 376 745 456 745 572ZM432 701C581 701 671 652 671 572C671 491 581 442 432 442C285 442 195 491 195 572C195 652 285 701 432 701ZM470 -71V233H831V297H41V233H394V-71Z"/></g><text class="terminal-1103084867-r14" x="829.6" y="605.6" textLength="97.6" clip-path="url(#terminal-1103084867-line-24)">&#160;│&#160;·&#160;-v/</text><g clip-path="url(#terminal-1103084867-line-24)"><path fill="#9e9e9e" transform="translate(927.2 605.6) scale(0.0282081 -0.02)" d="M752 -70V804H676V-70ZM495 711H79V647H414C398 450 268 260 47 163L91 103C317 210 491 427 495 711Z"/><path fill="#9e9e9e" transform="translate(951.6 605.6) scale(0.0282081 -0.02)" d="M728 423V774H651V657H214V774H138V423H393V314H38V250H827V314H469V423ZM737 -42V21H215V193H139V-42ZM651 486H214V595H651Z"/></g><text class="terminal-1103084867-r14" x="976" y="605.6" textLength="12.2" clip-path="url(#terminal-1103084867-line-24)">&#160;</text><g clip-path="url(#terminal-1103084867-line-24)"><path fill="#9e9e9e" transform="translate(988.2 605.6) scale(0.0282081 -0.02)" d="M532 401C433 435 318 542 318 681V762H241V678C241 539 147 429 22 370L64 311C166 364 255 451 282 544C317 456 403 381 487 340ZM722 98C722 202 612 266 428 266C245 266 136 202 136 98C136 -6 245 -69 428 -69C612 -69 722 -6 722 98ZM428 203C561 203 644 165 644 98C644 31 561 -6 428 -6C296 -6 214 31 214 98C214 165 296 203 428 203ZM843 503V567H710V804H634V265H710V503Z"/><path fill="#9e9e9e" transform="translate(1012.6 605.6) scale(0.0282081 -0.02)" d="M852 371V435H710V804H634V-70H710V371ZM421 679V744H164V679ZM550 531V594H34V531ZM498 294C498 397 416 475 294 475C172 475 90 396 90 294C90 192 172 114 294 114C416 114 498 193 498 294ZM422 294C422 226 369 177 294 177C221 177 166 226 166 294C166 363 221 411 294 411C368 411 422 363 422 294Z"/></g><text class="terminal-1103084867-r14" x="1037" y="605.6" textLength="36.6" clip-path="url(#terminal-1103084867-line-24)">&#160;─)</text><text class="terminal-1103084867-r10" x="1085.8" y="605.6" textLength="12.2" clip-path="url(#terminal-1103084867-line-24)">│</text><text class="terminal-1103084867-r4" x="1098" y="605.6" textLength="12.2" clip-path="url(#terminal-1103084867-line-24)">
</text><text class="terminal-1103084867-r10" x="0" y="630" textLength="12.2" clip-path="url(#terminal-1103084867-line-25)">╰</text><text class="terminal-1103084867-r10" x="12.2" y="630" textLength="1073.6" clip-path="url(#terminal-1103084867-line-25)">────────────────────────────────────────────────────────────────────────────────────────</text><text class="terminal-1103084867-r10" x="1085.8" y="630" textLength="12.2" clip-path="url(#terminal-1103084867-line-25)">╯</text>
    </g>
    </g>
</svg>
