<svg class="rich-terminal" viewBox="0 0 1116 684.4" xmlns="http://www.w3.org/2000/svg">
    <!-- Generated with Rich https://www.textualize.io -->
    <style>

    @font-face {
        font-family: "Fira Code";
        src: local("FiraCode-Regular"),
                url("https://cdnjs.cloudflare.com/ajax/libs/firacode/6.2.0/woff2/FiraCode-Regular.woff2") format("woff2"),
                url("https://cdnjs.cloudflare.com/ajax/libs/firacode/6.2.0/woff/FiraCode-Regular.woff") format("woff");
        font-style: normal;
        font-weight: 400;
    }
    @font-face {
        font-family: "Fira Code";
        src: local("FiraCode-Bold"),
                url("https://cdnjs.cloudflare.com/ajax/libs/firacode/6.2.0/woff2/FiraCode-Bold.woff2") format("woff2"),
                url("https://cdnjs.cloudflare.com/ajax/libs/firacode/6.2.0/woff/FiraCode-Bold.woff") format("woff");
        font-style: bold;
        font-weight: 700;
    }

    .terminal-2445813658-matrix {
        font-family: Fira Code, monospace;
        font-size: 20px;
        line-height: 24.4px;
        font-variant-east-asian: full-width;
    }

    .terminal-2445813658-title {
        font-size: 18px;
        font-weight: bold;
        font-family: arial;
    }

    .terminal-2445813658-r1 { fill: #3b3b3b }
.terminal-2445813658-r2 { fill: #353532;font-weight: bold }
.terminal-2445813658-r3 { fill: #131313;font-weight: bold }
.terminal-2445813658-r4 { fill: #c5c8c6 }
.terminal-2445813658-r5 { fill: #181818 }
.terminal-2445813658-r6 { fill: #0e1921 }
.terminal-2445813658-r7 { fill: #1a1a1a }
.terminal-2445813658-r8 { fill: #1f1f1f }
.terminal-2445813658-r9 { fill: #fea62b }
.terminal-2445813658-r10 { fill: #fea62b;font-weight: bold }
.terminal-2445813658-r11 { fill: #e2e2e2 }
.terminal-2445813658-r12 { fill: #121212 }
.terminal-2445813658-r13 { fill: #9e9e9e }
    </style>

    <defs>
    <clipPath id="terminal-2445813658-clip-terminal">
      <rect x="0" y="0" width="1097.0" height="633.4" />
    </clipPath>
    <clipPath id="terminal-2445813658-line-0">
    <rect x="0" y="1.5" width="1098" height="24.65"/>
            </clipPath>
<clipPath id="terminal-2445813658-line-1">
    <rect x="0" y="25.9" width="1098" height="24.65"/>
            </clipPath>
<clipPath id="terminal-2445813658-line-2">
    <rect x="0" y="50.3" width="1098" height="24.65"/>
            </clipPath>
<clipPath id="terminal-2445813658-line-3">
    <rect x="0" y="74.7" width="1098" height="24.65"/>
            </clipPath>
<clipPath id="terminal-2445813658-line-4">
    <rect x="0" y="99.1" width="1098" height="24.65"/>
            </clipPath>
<clipPath id="terminal-2445813658-line-5">
    <rect x="0" y="123.5" width="1098" height="24.65"/>
            </clipPath>
<clipPath id="terminal-2445813658-line-6">
    <rect x="0" y="147.9" width="1098" height="24.65"/>
            </clipPath>
<clipPath id="terminal-2445813658-line-7">
    <rect x="0" y="172.3" width="1098" height="24.65"/>
            </clipPath>
<clipPath id="terminal-2445813658-line-8">
    <rect x="0" y="196.7" width="1098" height="24.65"/>
            </clipPath>
<clipPath id="terminal-2445813658-line-9">
    <rect x="0" y="221.1" width="1098" height="24.65"/>
            </clipPath>
<clipPath id="terminal-2445813658-line-10">
    <rect x="0" y="245.5" width="1098" height="24.65"/>
            </clipPath>
<clipPath id="terminal-2445813658-line-11">
    <rect x="0" y="269.9" width="1098" height="24.65"/>
            </clipPath>
<clipPath id="terminal-2445813658-line-12">
    <rect x="0" y="294.3" width="1098" height="24.65"/>
            </clipPath>
<clipPath id="terminal-2445813658-line-13">
    <rect x="0" y="318.7" width="1098" height="24.65"/>
            </clipPath>
<clipPath id="terminal-2445813658-line-14">
    <rect x="0" y="343.1" width="1098" height="24.65"/>
            </clipPath>
<clipPath id="terminal-2445813658-line-15">
    <rect x="0" y="367.5" width="1098" height="24.65"/>
            </clipPath>
<clipPath id="terminal-2445813658-line-16">
    <rect x="0" y="391.9" width="1098" height="24.65"/>
            </clipPath>
<clipPath id="terminal-2445813658-line-17">
    <rect x="0" y="416.3" width="1098" height="24.65"/>
            </clipPath>
<clipPath id="terminal-2445813658-line-18">
    <rect x="0" y="440.7" width="1098" height="24.65"/>
            </clipPath>
<clipPath id="terminal-2445813658-line-19">
    <rect x="0" y="465.1" width="1098" height="24.65"/>
            </clipPath>
<clipPath id="terminal-2445813658-line-20">
    <rect x="0" y="489.5" width="1098" height="24.65"/>
            </clipPath>
<clipPath id="terminal-2445813658-line-21">
    <rect x="0" y="513.9" width="1098" height="24.65"/>
            </clipPath>
<clipPath id="terminal-2445813658-line-22">
    <rect x="0" y="538.3" width="1098" height="24.65"/>
            </clipPath>
<clipPath id="terminal-2445813658-line-23">
    <rect x="0" y="562.7" width="1098" height="24.65"/>
            </clipPath>
<clipPath id="terminal-2445813658-line-24">
    <rect x="0" y="587.1" width="1098" height="24.65"/>
            </clipPath>
    </defs>

    <rect fill="#292929" stroke="rgba(255,255,255,0.35)" stroke-width="1" x="1" y="1" width="1114" height="682.4" rx="8"/><text class="terminal-2445813658-title" fill="#c5c8c6" text-anchor="middle" x="557" y="27">PytmuxApp</text>
            <g transform="translate(26,22)">
            <circle cx="0" cy="0" r="7" fill="#ff5f57"/>
            <circle cx="22" cy="0" r="7" fill="#febc2e"/>
            <circle cx="44" cy="0" r="7" fill="#28c840"/>
            </g>
        
    <g transform="translate(9, 41)" clip-path="url(#terminal-2445813658-clip-terminal)">
    <rect fill="#121212" x="0" y="1.5" width="12.2" height="24.65" shape-rendering="crispEdges"/><rect fill="#0e2638" x="12.2" y="1.5" width="85.4" height="24.65" shape-rendering="crispEdges"/><rect fill="#121212" x="97.6" y="1.5" width="24.4" height="24.65" shape-rendering="crispEdges"/><rect fill="#1e3425" x="122" y="1.5" width="36.6" height="24.65" shape-rendering="crispEdges"/><rect fill="#121212" x="158.6" y="1.5" width="939.4" height="24.65" shape-rendering="crispEdges"/><rect fill="#121212" x="0" y="25.9" width="12.2" height="24.65" shape-rendering="crispEdges"/><rect fill="#121212" x="12.2" y="25.9" width="85.4" height="24.65" shape-rendering="crispEdges"/><rect fill="#121212" x="97.6" y="25.9" width="439.2" height="24.65" shape-rendering="crispEdges"/><rect fill="#121212" x="536.8" y="25.9" width="561.2" height="24.65" shape-rendering="crispEdges"/><rect fill="#121212" x="0" y="50.3" width="12.2" height="24.65" shape-rendering="crispEdges"/><rect fill="#121212" x="12.2" y="50.3" width="524.6" height="24.65" shape-rendering="crispEdges"/><rect fill="#121212" x="536.8" y="50.3" width="12.2" height="24.65" shape-rendering="crispEdges"/><rect fill="#121212" x="549" y="50.3" width="353.8" height="24.65" shape-rendering="crispEdges"/><rect fill="#121212" x="902.8" y="50.3" width="12.2" height="24.65" shape-rendering="crispEdges"/><rect fill="#121212" x="915" y="50.3" width="134.2" height="24.65" shape-rendering="crispEdges"/><rect fill="#1f1316" x="1049.2" y="50.3" width="36.6" height="24.65" shape-rendering="crispEdges"/><rect fill="#121212" x="1085.8" y="50.3" width="12.2" height="24.65" shape-rendering="crispEdges"/><rect fill="#121212" x="0" y="74.7" width="12.2" height="24.65" shape-rendering="crispEdges"/><rect fill="#121212" x="12.2" y="74.7" width="524.6" height="24.65" shape-rendering="crispEdges"/><rect fill="#121212" x="536.8" y="74.7" width="12.2" height="24.65" shape-rendering="crispEdges"/><rect fill="#121212" x="549" y="74.7" width="536.8" height="24.65" shape-rendering="crispEdges"/><rect fill="#121212" x="1085.8" y="74.7" width="12.2" height="24.65" shape-rendering="crispEdges"/><rect fill="#121212" x="0" y="99.1" width="12.2" height="24.65" shape-rendering="crispEdges"/><rect fill="#121212" x="12.2" y="99.1" width="524.6" height="24.65" shape-rendering="crispEdges"/><rect fill="#121212" x="536.8" y="99.1" width="12.2" height="24.65" shape-rendering="crispEdges"/><rect fill="#121212" x="549" y="99.1" width="536.8" height="24.65" shape-rendering="crispEdges"/><rect fill="#121212" x="1085.8" y="99.1" width="12.2" height="24.65" shape-rendering="crispEdges"/><rect fill="#121212" x="0" y="123.5" width="12.2" height="24.65" shape-rendering="crispEdges"/><rect fill="#121212" x="12.2" y="123.5" width="524.6" height="24.65" shape-rendering="crispEdges"/><rect fill="#121212" x="536.8" y="123.5" width="12.2" height="24.65" shape-rendering="crispEdges"/><rect fill="#121212" x="549" y="123.5" width="536.8" height="24.65" shape-rendering="crispEdges"/><rect fill="#121212" x="1085.8" y="123.5" width="12.2" height="24.65" shape-rendering="crispEdges"/><rect fill="#121212" x="0" y="147.9" width="12.2" height="24.65" shape-rendering="crispEdges"/><rect fill="#121212" x="12.2" y="147.9" width="524.6" height="24.65" shape-rendering="crispEdges"/><rect fill="#121212" x="536.8" y="147.9" width="12.2" height="24.65" shape-rendering="crispEdges"/><rect fill="#121212" x="549" y="147.9" width="536.8" height="24.65" shape-rendering="crispEdges"/><rect fill="#121212" x="1085.8" y="147.9" width="12.2" height="24.65" shape-rendering="crispEdges"/><rect fill="#121212" x="0" y="172.3" width="12.2" height="24.65" shape-rendering="crispEdges"/><rect fill="#121212" x="12.2" y="172.3" width="524.6" height="24.65" shape-rendering="crispEdges"/><rect fill="#121212" x="536.8" y="172.3" width="12.2" height="24.65" shape-rendering="crispEdges"/><rect fill="#121212" x="549" y="172.3" width="536.8" height="24.65" shape-rendering="crispEdges"/><rect fill="#121212" x="1085.8" y="172.3" width="12.2" height="24.65" shape-rendering="crispEdges"/><rect fill="#121212" x="0" y="196.7" width="12.2" height="24.65" shape-rendering="crispEdges"/><rect fill="#121212" x="12.2" y="196.7" width="524.6" height="24.65" shape-rendering="crispEdges"/><rect fill="#121212" x="536.8" y="196.7" width="12.2" height="24.65" shape-rendering="crispEdges"/><rect fill="#121212" x="549" y="196.7" width="536.8" height="24.65" shape-rendering="crispEdges"/><rect fill="#121212" x="1085.8" y="196.7" width="12.2" height="24.65" shape-rendering="crispEdges"/><rect fill="#121212" x="0" y="221.1" width="12.2" height="24.65" shape-rendering="crispEdges"/><rect fill="#121212" x="12.2" y="221.1" width="524.6" height="24.65" shape-rendering="crispEdges"/><rect fill="#121212" x="536.8" y="221.1" width="12.2" height="24.65" shape-rendering="crispEdges"/><rect fill="#121212" x="549" y="221.1" width="536.8" height="24.65" shape-rendering="crispEdges"/><rect fill="#121212" x="1085.8" y="221.1" width="12.2" height="24.65" shape-rendering="crispEdges"/><rect fill="#121212" x="0" y="245.5" width="12.2" height="24.65" shape-rendering="crispEdges"/><rect fill="#121212" x="12.2" y="245.5" width="524.6" height="24.65" shape-rendering="crispEdges"/><rect fill="#121212" x="536.8" y="245.5" width="12.2" height="24.65" shape-rendering="crispEdges"/><rect fill="#121212" x="549" y="245.5" width="536.8" height="24.65" shape-rendering="crispEdges"/><rect fill="#121212" x="1085.8" y="245.5" width="12.2" height="24.65" shape-rendering="crispEdges"/><rect fill="#121212" x="0" y="269.9" width="12.2" height="24.65" shape-rendering="crispEdges"/><rect fill="#121212" x="12.2" y="269.9" width="524.6" height="24.65" shape-rendering="crispEdges"/><rect fill="#121212" x="536.8" y="269.9" width="12.2" height="24.65" shape-rendering="crispEdges"/><rect fill="#121212" x="549" y="269.9" width="536.8" height="24.65" shape-rendering="crispEdges"/><rect fill="#121212" x="1085.8" y="269.9" width="12.2" height="24.65" shape-rendering="crispEdges"/><rect fill="#121212" x="0" y="294.3" width="12.2" height="24.65" shape-rendering="crispEdges"/><rect fill="#121212" x="12.2" y="294.3" width="524.6" height="24.65" shape-rendering="crispEdges"/><rect fill="#121212" x="536.8" y="294.3" width="12.2" height="24.65" shape-rendering="crispEdges"/><rect fill="#121212" x="549" y="294.3" width="536.8" height="24.65" shape-rendering="crispEdges"/><rect fill="#121212" x="1085.8" y="294.3" width="12.2" height="24.65" shape-rendering="crispEdges"/><rect fill="#121212" x="0" y="318.7" width="12.2" height="24.65" shape-rendering="crispEdges"/><rect fill="#121212" x="12.2" y="318.7" width="524.6" height="24.65" shape-rendering="crispEdges"/><rect fill="#121212" x="536.8" y="318.7" width="12.2" height="24.65" shape-rendering="crispEdges"/><rect fill="#121212" x="549" y="318.7" width="536.8" height="24.65" shape-rendering="crispEdges"/><rect fill="#121212" x="1085.8" y="318.7" width="12.2" height="24.65" shape-rendering="crispEdges"/><rect fill="#121212" x="0" y="343.1" width="12.2" height="24.65" shape-rendering="crispEdges"/><rect fill="#121212" x="12.2" y="343.1" width="524.6" height="24.65" shape-rendering="crispEdges"/><rect fill="#121212" x="536.8" y="343.1" width="12.2" height="24.65" shape-rendering="crispEdges"/><rect fill="#121212" x="549" y="343.1" width="536.8" height="24.65" shape-rendering="crispEdges"/><rect fill="#121212" x="1085.8" y="343.1" width="12.2" height="24.65" shape-rendering="crispEdges"/><rect fill="#121212" x="0" y="367.5" width="12.2" height="24.65" shape-rendering="crispEdges"/><rect fill="#121212" x="12.2" y="367.5" width="524.6" height="24.65" shape-rendering="crispEdges"/><rect fill="#121212" x="536.8" y="367.5" width="12.2" height="24.65" shape-rendering="crispEdges"/><rect fill="#121212" x="549" y="367.5" width="536.8" height="24.65" shape-rendering="crispEdges"/><rect fill="#121212" x="1085.8" y="367.5" width="12.2" height="24.65" shape-rendering="crispEdges"/><rect fill="#121212" x="0" y="391.9" width="12.2" height="24.65" shape-rendering="crispEdges"/><rect fill="#121212" x="12.2" y="391.9" width="524.6" height="24.65" shape-rendering="crispEdges"/><rect fill="#121212" x="536.8" y="391.9" width="12.2" height="24.65" shape-rendering="crispEdges"/><rect fill="#121212" x="549" y="391.9" width="536.8" height="24.65" shape-rendering="crispEdges"/><rect fill="#121212" x="1085.8" y="391.9" width="12.2" height="24.65" shape-rendering="crispEdges"/><rect fill="#121212" x="0" y="416.3" width="12.2" height="24.65" shape-rendering="crispEdges"/><rect fill="#121212" x="12.2" y="416.3" width="524.6" height="24.65" shape-rendering="crispEdges"/><rect fill="#121212" x="536.8" y="416.3" width="12.2" height="24.65" shape-rendering="crispEdges"/><rect fill="#121212" x="549" y="416.3" width="536.8" height="24.65" shape-rendering="crispEdges"/><rect fill="#121212" x="1085.8" y="416.3" width="12.2" height="24.65" shape-rendering="crispEdges"/><rect fill="#121212" x="0" y="440.7" width="12.2" height="24.65" shape-rendering="crispEdges"/><rect fill="#121212" x="12.2" y="440.7" width="524.6" height="24.65" shape-rendering="crispEdges"/><rect fill="#121212" x="536.8" y="440.7" width="12.2" height="24.65" shape-rendering="crispEdges"/><rect fill="#121212" x="549" y="440.7" width="536.8" height="24.65" shape-rendering="crispEdges"/><rect fill="#121212" x="1085.8" y="440.7" width="12.2" height="24.65" shape-rendering="crispEdges"/><rect fill="#121212" x="0" y="465.1" width="12.2" height="24.65" shape-rendering="crispEdges"/><rect fill="#121212" x="12.2" y="465.1" width="524.6" height="24.65" shape-rendering="crispEdges"/><rect fill="#121212" x="536.8" y="465.1" width="12.2" height="24.65" shape-rendering="crispEdges"/><rect fill="#121212" x="549" y="465.1" width="536.8" height="24.65" shape-rendering="crispEdges"/><rect fill="#121212" x="1085.8" y="465.1" width="12.2" height="24.65" shape-rendering="crispEdges"/><rect fill="#121212" x="0" y="489.5" width="12.2" height="24.65" shape-rendering="crispEdges"/><rect fill="#121212" x="12.2" y="489.5" width="524.6" height="24.65" shape-rendering="crispEdges"/><rect fill="#121212" x="536.8" y="489.5" width="12.2" height="24.65" shape-rendering="crispEdges"/><rect fill="#121212" x="549" y="489.5" width="536.8" height="24.65" shape-rendering="crispEdges"/><rect fill="#121212" x="1085.8" y="489.5" width="12.2" height="24.65" shape-rendering="crispEdges"/><rect fill="#121212" x="0" y="513.9" width="12.2" height="24.65" shape-rendering="crispEdges"/><rect fill="#121212" x="12.2" y="513.9" width="524.6" height="24.65" shape-rendering="crispEdges"/><rect fill="#121212" x="536.8" y="513.9" width="12.2" height="24.65" shape-rendering="crispEdges"/><rect fill="#121212" x="549" y="513.9" width="536.8" height="24.65" shape-rendering="crispEdges"/><rect fill="#121212" x="1085.8" y="513.9" width="12.2" height="24.65" shape-rendering="crispEdges"/><rect fill="#121212" x="0" y="538.3" width="12.2" height="24.65" shape-rendering="crispEdges"/><rect fill="#121212" x="12.2" y="538.3" width="524.6" height="24.65" shape-rendering="crispEdges"/><rect fill="#121212" x="536.8" y="538.3" width="12.2" height="24.65" shape-rendering="crispEdges"/><rect fill="#121212" x="549" y="538.3" width="536.8" height="24.65" shape-rendering="crispEdges"/><rect fill="#121212" x="1085.8" y="538.3" width="12.2" height="24.65" shape-rendering="crispEdges"/><rect fill="#1e1e1e" x="0" y="562.7" width="12.2" height="24.65" shape-rendering="crispEdges"/><rect fill="#1e1e1e" x="12.2" y="562.7" width="1073.6" height="24.65" shape-rendering="crispEdges"/><rect fill="#1e1e1e" x="1085.8" y="562.7" width="12.2" height="24.65" shape-rendering="crispEdges"/><rect fill="#1e1e1e" x="0" y="587.1" width="12.2" height="24.65" shape-rendering="crispEdges"/><rect fill="#1e1e1e" x="12.2" y="587.1" width="12.2" height="24.65" shape-rendering="crispEdges"/><rect fill="#1e1e1e" x="24.4" y="587.1" width="12.2" height="24.65" shape-rendering="crispEdges"/><rect fill="#272727" x="36.6" y="587.1" width="109.8" height="24.65" shape-rendering="crispEdges"/><rect fill="#e0e0e0" x="146.4" y="587.1" width="12.2" height="24.65" shape-rendering="crispEdges"/><rect fill="#272727" x="158.6" y="587.1" width="732" height="24.65" shape-rendering="crispEdges"/><rect fill="#1e1e1e" x="890.6" y="587.1" width="12.2" height="24.65" shape-rendering="crispEdges"/><rect fill="#1e1e1e" x="902.8" y="587.1" width="170.8" height="24.65" shape-rendering="crispEdges"/><rect fill="#1e1e1e" x="1073.6" y="587.1" width="12.2" height="24.65" shape-rendering="crispEdges"/><rect fill="#1e1e1e" x="1085.8" y="587.1" width="12.2" height="24.65" shape-rendering="crispEdges"/><rect fill="#1e1e1e" x="0" y="611.5" width="12.2" height="24.65" shape-rendering="crispEdges"/><rect fill="#1e1e1e" x="12.2" y="611.5" width="1073.6" height="24.65" shape-rendering="crispEdges"/><rect fill="#1e1e1e" x="1085.8" y="611.5" width="12.2" height="24.65" shape-rendering="crispEdges"/>
    <g class="terminal-2445813658-matrix">
    <text class="terminal-2445813658-r2" x="12.2" y="20" textLength="85.4" clip-path="url(#terminal-2445813658-line-0)">&#160;1:zsh&#160;</text><text class="terminal-2445813658-r3" x="122" y="20" textLength="36.6" clip-path="url(#terminal-2445813658-line-0)">[+]</text><text class="terminal-2445813658-r4" x="1098" y="20" textLength="12.2" clip-path="url(#terminal-2445813658-line-0)">
</text><text class="terminal-2445813658-r5" x="0" y="44.4" textLength="12.2" clip-path="url(#terminal-2445813658-line-1)">┌</text><text class="terminal-2445813658-r6" x="12.2" y="44.4" textLength="85.4" clip-path="url(#terminal-2445813658-line-1)">▀▀▀▀▀▀▀</text><text class="terminal-2445813658-r5" x="97.6" y="44.4" textLength="439.2" clip-path="url(#terminal-2445813658-line-1)">────────────────────────────────────</text><text class="terminal-2445813658-r6" x="536.8" y="44.4" textLength="561.2" clip-path="url(#terminal-2445813658-line-1)">┬────────────────────────────────────────────┐</text><text class="terminal-2445813658-r4" x="1098" y="44.4" textLength="12.2" clip-path="url(#terminal-2445813658-line-1)">
</text><text class="terminal-2445813658-r5" x="0" y="68.8" textLength="12.2" clip-path="url(#terminal-2445813658-line-2)">│</text><text class="terminal-2445813658-r7" x="12.2" y="68.8" textLength="524.6" clip-path="url(#terminal-2445813658-line-2)">neoocean@playground&#160;pytmux&#160;%&#160;&#160;&#160;&#160;&#160;&#160;&#160;&#160;&#160;&#160;&#160;&#160;&#160;&#160;&#160;</text><text class="terminal-2445813658-r6" x="536.8" y="68.8" textLength="12.2" clip-path="url(#terminal-2445813658-line-2)">│</text><text class="terminal-2445813658-r7" x="549" y="68.8" textLength="353.8" clip-path="url(#terminal-2445813658-line-2)">neoocean@playground&#160;pytmux&#160;%&#160;</text><text class="terminal-2445813658-r8" x="1049.2" y="68.8" textLength="36.6" clip-path="url(#terminal-2445813658-line-2)">[x]</text><text class="terminal-2445813658-r6" x="1085.8" y="68.8" textLength="12.2" clip-path="url(#terminal-2445813658-line-2)">│</text><text class="terminal-2445813658-r4" x="1098" y="68.8" textLength="12.2" clip-path="url(#terminal-2445813658-line-2)">
</text><text class="terminal-2445813658-r5" x="0" y="93.2" textLength="12.2" clip-path="url(#terminal-2445813658-line-3)">│</text><text class="terminal-2445813658-r6" x="536.8" y="93.2" textLength="12.2" clip-path="url(#terminal-2445813658-line-3)">│</text><text class="terminal-2445813658-r6" x="1085.8" y="93.2" textLength="12.2" clip-path="url(#terminal-2445813658-line-3)">│</text><text class="terminal-2445813658-r4" x="1098" y="93.2" textLength="12.2" clip-path="url(#terminal-2445813658-line-3)">
</text><text class="terminal-2445813658-r5" x="0" y="117.6" textLength="12.2" clip-path="url(#terminal-2445813658-line-4)">│</text><text class="terminal-2445813658-r6" x="536.8" y="117.6" textLength="12.2" clip-path="url(#terminal-2445813658-line-4)">│</text><text class="terminal-2445813658-r6" x="1085.8" y="117.6" textLength="12.2" clip-path="url(#terminal-2445813658-line-4)">│</text><text class="terminal-2445813658-r4" x="1098" y="117.6" textLength="12.2" clip-path="url(#terminal-2445813658-line-4)">
</text><text class="terminal-2445813658-r5" x="0" y="142" textLength="12.2" clip-path="url(#terminal-2445813658-line-5)">│</text><text class="terminal-2445813658-r6" x="536.8" y="142" textLength="12.2" clip-path="url(#terminal-2445813658-line-5)">│</text><text class="terminal-2445813658-r6" x="1085.8" y="142" textLength="12.2" clip-path="url(#terminal-2445813658-line-5)">│</text><text class="terminal-2445813658-r4" x="1098" y="142" textLength="12.2" clip-path="url(#terminal-2445813658-line-5)">
</text><text class="terminal-2445813658-r5" x="0" y="166.4" textLength="12.2" clip-path="url(#terminal-2445813658-line-6)">│</text><text class="terminal-2445813658-r6" x="536.8" y="166.4" textLength="12.2" clip-path="url(#terminal-2445813658-line-6)">│</text><text class="terminal-2445813658-r6" x="1085.8" y="166.4" textLength="12.2" clip-path="url(#terminal-2445813658-line-6)">│</text><text class="terminal-2445813658-r4" x="1098" y="166.4" textLength="12.2" clip-path="url(#terminal-2445813658-line-6)">
</text><text class="terminal-2445813658-r5" x="0" y="190.8" textLength="12.2" clip-path="url(#terminal-2445813658-line-7)">│</text><text class="terminal-2445813658-r6" x="536.8" y="190.8" textLength="12.2" clip-path="url(#terminal-2445813658-line-7)">│</text><text class="terminal-2445813658-r6" x="1085.8" y="190.8" textLength="12.2" clip-path="url(#terminal-2445813658-line-7)">│</text><text class="terminal-2445813658-r4" x="1098" y="190.8" textLength="12.2" clip-path="url(#terminal-2445813658-line-7)">
</text><text class="terminal-2445813658-r5" x="0" y="215.2" textLength="12.2" clip-path="url(#terminal-2445813658-line-8)">│</text><text class="terminal-2445813658-r6" x="536.8" y="215.2" textLength="12.2" clip-path="url(#terminal-2445813658-line-8)">│</text><text class="terminal-2445813658-r6" x="1085.8" y="215.2" textLength="12.2" clip-path="url(#terminal-2445813658-line-8)">│</text><text class="terminal-2445813658-r4" x="1098" y="215.2" textLength="12.2" clip-path="url(#terminal-2445813658-line-8)">
</text><text class="terminal-2445813658-r5" x="0" y="239.6" textLength="12.2" clip-path="url(#terminal-2445813658-line-9)">│</text><text class="terminal-2445813658-r6" x="536.8" y="239.6" textLength="12.2" clip-path="url(#terminal-2445813658-line-9)">│</text><text class="terminal-2445813658-r6" x="1085.8" y="239.6" textLength="12.2" clip-path="url(#terminal-2445813658-line-9)">│</text><text class="terminal-2445813658-r4" x="1098" y="239.6" textLength="12.2" clip-path="url(#terminal-2445813658-line-9)">
</text><text class="terminal-2445813658-r5" x="0" y="264" textLength="12.2" clip-path="url(#terminal-2445813658-line-10)">│</text><text class="terminal-2445813658-r6" x="536.8" y="264" textLength="12.2" clip-path="url(#terminal-2445813658-line-10)">│</text><text class="terminal-2445813658-r6" x="1085.8" y="264" textLength="12.2" clip-path="url(#terminal-2445813658-line-10)">│</text><text class="terminal-2445813658-r4" x="1098" y="264" textLength="12.2" clip-path="url(#terminal-2445813658-line-10)">
</text><text class="terminal-2445813658-r5" x="0" y="288.4" textLength="12.2" clip-path="url(#terminal-2445813658-line-11)">│</text><text class="terminal-2445813658-r6" x="536.8" y="288.4" textLength="12.2" clip-path="url(#terminal-2445813658-line-11)">│</text><text class="terminal-2445813658-r6" x="1085.8" y="288.4" textLength="12.2" clip-path="url(#terminal-2445813658-line-11)">│</text><text class="terminal-2445813658-r4" x="1098" y="288.4" textLength="12.2" clip-path="url(#terminal-2445813658-line-11)">
</text><text class="terminal-2445813658-r5" x="0" y="312.8" textLength="12.2" clip-path="url(#terminal-2445813658-line-12)">│</text><text class="terminal-2445813658-r6" x="536.8" y="312.8" textLength="12.2" clip-path="url(#terminal-2445813658-line-12)">│</text><text class="terminal-2445813658-r6" x="1085.8" y="312.8" textLength="12.2" clip-path="url(#terminal-2445813658-line-12)">│</text><text class="terminal-2445813658-r4" x="1098" y="312.8" textLength="12.2" clip-path="url(#terminal-2445813658-line-12)">
</text><text class="terminal-2445813658-r5" x="0" y="337.2" textLength="12.2" clip-path="url(#terminal-2445813658-line-13)">│</text><text class="terminal-2445813658-r6" x="536.8" y="337.2" textLength="12.2" clip-path="url(#terminal-2445813658-line-13)">│</text><text class="terminal-2445813658-r6" x="1085.8" y="337.2" textLength="12.2" clip-path="url(#terminal-2445813658-line-13)">│</text><text class="terminal-2445813658-r4" x="1098" y="337.2" textLength="12.2" clip-path="url(#terminal-2445813658-line-13)">
</text><text class="terminal-2445813658-r5" x="0" y="361.6" textLength="12.2" clip-path="url(#terminal-2445813658-line-14)">│</text><text class="terminal-2445813658-r6" x="536.8" y="361.6" textLength="12.2" clip-path="url(#terminal-2445813658-line-14)">│</text><text class="terminal-2445813658-r6" x="1085.8" y="361.6" textLength="12.2" clip-path="url(#terminal-2445813658-line-14)">│</text><text class="terminal-2445813658-r4" x="1098" y="361.6" textLength="12.2" clip-path="url(#terminal-2445813658-line-14)">
</text><text class="terminal-2445813658-r5" x="0" y="386" textLength="12.2" clip-path="url(#terminal-2445813658-line-15)">│</text><text class="terminal-2445813658-r6" x="536.8" y="386" textLength="12.2" clip-path="url(#terminal-2445813658-line-15)">│</text><text class="terminal-2445813658-r6" x="1085.8" y="386" textLength="12.2" clip-path="url(#terminal-2445813658-line-15)">│</text><text class="terminal-2445813658-r4" x="1098" y="386" textLength="12.2" clip-path="url(#terminal-2445813658-line-15)">
</text><text class="terminal-2445813658-r5" x="0" y="410.4" textLength="12.2" clip-path="url(#terminal-2445813658-line-16)">│</text><text class="terminal-2445813658-r6" x="536.8" y="410.4" textLength="12.2" clip-path="url(#terminal-2445813658-line-16)">│</text><text class="terminal-2445813658-r6" x="1085.8" y="410.4" textLength="12.2" clip-path="url(#terminal-2445813658-line-16)">│</text><text class="terminal-2445813658-r4" x="1098" y="410.4" textLength="12.2" clip-path="url(#terminal-2445813658-line-16)">
</text><text class="terminal-2445813658-r5" x="0" y="434.8" textLength="12.2" clip-path="url(#terminal-2445813658-line-17)">│</text><text class="terminal-2445813658-r6" x="536.8" y="434.8" textLength="12.2" clip-path="url(#terminal-2445813658-line-17)">│</text><text class="terminal-2445813658-r6" x="1085.8" y="434.8" textLength="12.2" clip-path="url(#terminal-2445813658-line-17)">│</text><text class="terminal-2445813658-r4" x="1098" y="434.8" textLength="12.2" clip-path="url(#terminal-2445813658-line-17)">
</text><text class="terminal-2445813658-r5" x="0" y="459.2" textLength="12.2" clip-path="url(#terminal-2445813658-line-18)">│</text><text class="terminal-2445813658-r6" x="536.8" y="459.2" textLength="12.2" clip-path="url(#terminal-2445813658-line-18)">│</text><text class="terminal-2445813658-r6" x="1085.8" y="459.2" textLength="12.2" clip-path="url(#terminal-2445813658-line-18)">│</text><text class="terminal-2445813658-r4" x="1098" y="459.2" textLength="12.2" clip-path="url(#terminal-2445813658-line-18)">
</text><text class="terminal-2445813658-r5" x="0" y="483.6" textLength="12.2" clip-path="url(#terminal-2445813658-line-19)">│</text><text class="terminal-2445813658-r6" x="536.8" y="483.6" textLength="12.2" clip-path="url(#terminal-2445813658-line-19)">│</text><text class="terminal-2445813658-r6" x="1085.8" y="483.6" textLength="12.2" clip-path="url(#terminal-2445813658-line-19)">│</text><text class="terminal-2445813658-r4" x="1098" y="483.6" textLength="12.2" clip-path="url(#terminal-2445813658-line-19)">
</text><text class="terminal-2445813658-r5" x="0" y="508" textLength="12.2" clip-path="url(#terminal-2445813658-line-20)">│</text><text class="terminal-2445813658-r6" x="536.8" y="508" textLength="12.2" clip-path="url(#terminal-2445813658-line-20)">│</text><text class="terminal-2445813658-r6" x="1085.8" y="508" textLength="12.2" clip-path="url(#terminal-2445813658-line-20)">│</text><text class="terminal-2445813658-r4" x="1098" y="508" textLength="12.2" clip-path="url(#terminal-2445813658-line-20)">
</text><text class="terminal-2445813658-r5" x="0" y="532.4" textLength="12.2" clip-path="url(#terminal-2445813658-line-21)">│</text><text class="terminal-2445813658-r6" x="536.8" y="532.4" textLength="12.2" clip-path="url(#terminal-2445813658-line-21)">│</text><text class="terminal-2445813658-r6" x="1085.8" y="532.4" textLength="12.2" clip-path="url(#terminal-2445813658-line-21)">│</text><text class="terminal-2445813658-r4" x="1098" y="532.4" textLength="12.2" clip-path="url(#terminal-2445813658-line-21)">
</text><text class="terminal-2445813658-r5" x="0" y="556.8" textLength="12.2" clip-path="url(#terminal-2445813658-line-22)">│</text><text class="terminal-2445813658-r6" x="536.8" y="556.8" textLength="12.2" clip-path="url(#terminal-2445813658-line-22)">│</text><text class="terminal-2445813658-r6" x="1085.8" y="556.8" textLength="12.2" clip-path="url(#terminal-2445813658-line-22)">│</text><text class="terminal-2445813658-r4" x="1098" y="556.8" textLength="12.2" clip-path="url(#terminal-2445813658-line-22)">
</text><text class="terminal-2445813658-r9" x="0" y="581.2" textLength="12.2" clip-path="url(#terminal-2445813658-line-23)">╭</text><text class="terminal-2445813658-r9" x="12.2" y="581.2" textLength="1073.6" clip-path="url(#terminal-2445813658-line-23)">────────────────────────────────────────────────────────────────────────────────────────</text><text class="terminal-2445813658-r9" x="1085.8" y="581.2" textLength="12.2" clip-path="url(#terminal-2445813658-line-23)">╮</text><text class="terminal-2445813658-r4" x="1098" y="581.2" textLength="12.2" clip-path="url(#terminal-2445813658-line-23)">
</text><text class="terminal-2445813658-r9" x="0" y="605.6" textLength="12.2" clip-path="url(#terminal-2445813658-line-24)">│</text><text class="terminal-2445813658-r10" x="12.2" y="605.6" textLength="12.2" clip-path="url(#terminal-2445813658-line-24)">:</text><text class="terminal-2445813658-r11" x="36.6" y="605.6" textLength="109.8" clip-path="url(#terminal-2445813658-line-24)">kill-pane</text><text class="terminal-2445813658-r13" x="902.8" y="605.6" textLength="97.6" clip-path="url(#terminal-2445813658-line-24)">현재&#160;패널&#160;삭제</text><text class="terminal-2445813658-r9" x="1085.8" y="605.6" textLength="12.2" clip-path="url(#terminal-2445813658-line-24)">│</text><text class="terminal-2445813658-r4" x="1098" y="605.6" textLength="12.2" clip-path="url(#terminal-2445813658-line-24)">
</text><text class="terminal-2445813658-r9" x="0" y="630" textLength="12.2" clip-path="url(#terminal-2445813658-line-25)">╰</text><text class="terminal-2445813658-r9" x="12.2" y="630" textLength="1073.6" clip-path="url(#terminal-2445813658-line-25)">────────────────────────────────────────────────────────────────────────────────────────</text><text class="terminal-2445813658-r9" x="1085.8" y="630" textLength="12.2" clip-path="url(#terminal-2445813658-line-25)">╯</text>
    </g>
    </g>
</svg>
