<svg class="rich-terminal" viewBox="0 0 1116 684.4" xmlns="http://www.w3.org/2000/svg">
    <!-- Generated with Rich https://www.textualize.io -->
    <style>

    @font-face {
        font-family: "Fira Code";
        src: local("FiraCode-Regular"),
                url("https://cdnjs.cloudflare.com/ajax/libs/firacode/6.2.0/woff2/FiraCode-Regular.woff2") format("woff2"),
                url("https://cdnjs.cloudflare.com/ajax/libs/firacode/6.2.0/woff/FiraCode-Regular.woff") format("woff");
        font-style: normal;
        font-weight: 400;
    }
    @font-face {
        font-family: "Fira Code";
        src: local("FiraCode-Bold"),
                url("https://cdnjs.cloudflare.com/ajax/libs/firacode/6.2.0/woff2/FiraCode-Bold.woff2") format("woff2"),
                url("https://cdnjs.cloudflare.com/ajax/libs/firacode/6.2.0/woff/FiraCode-Bold.woff") format("woff");
        font-style: bold;
        font-weight: 700;
    }

    .terminal-4030798866-matrix {
        font-family: Fira Code, "Apple SD Gothic Neo", monospace;
        font-size: 20px;
        line-height: 24.4px;
        font-variant-east-asian: full-width;
    }

    .terminal-4030798866-title {
        font-size: 18px;
        font-weight: bold;
        font-family: arial;
    }

    .terminal-4030798866-r1 { fill: #3b3b3b }
.terminal-4030798866-r2 { fill: #353532;font-weight: bold }
.terminal-4030798866-r3 { fill: #131313;font-weight: bold }
.terminal-4030798866-r4 { fill: #c5c8c6 }
.terminal-4030798866-r5 { fill: #181818 }
.terminal-4030798866-r6 { fill: #0e1921 }
.terminal-4030798866-r7 { fill: #251d12 }
.terminal-4030798866-r8 { fill: #1f1f1f }
.terminal-4030798866-r9 { fill: #191919 }
.terminal-4030798866-r10 { fill: #1a1a1a }
.terminal-4030798866-r11 { fill: #0e0e0e }
.terminal-4030798866-r12 { fill: #fea62b }
.terminal-4030798866-r13 { fill: #fea62b;font-weight: bold }
.terminal-4030798866-r14 { fill: #e2e2e2 }
.terminal-4030798866-r15 { fill: #9e9e9e }
    </style>

    <defs>
    <clipPath id="terminal-4030798866-clip-terminal">
      <rect x="0" y="0" width="1097.0" height="633.4" />
    </clipPath>
    <clipPath id="terminal-4030798866-line-0">
    <rect x="0" y="1.5" width="1098" height="24.65"/>
            </clipPath>
<clipPath id="terminal-4030798866-line-1">
    <rect x="0" y="25.9" width="1098" height="24.65"/>
            </clipPath>
<clipPath id="terminal-4030798866-line-2">
    <rect x="0" y="50.3" width="1098" height="24.65"/>
            </clipPath>
<clipPath id="terminal-4030798866-line-3">
    <rect x="0" y="74.7" width="1098" height="24.65"/>
            </clipPath>
<clipPath id="terminal-4030798866-line-4">
    <rect x="0" y="99.1" width="1098" height="24.65"/>
            </clipPath>
<clipPath id="terminal-4030798866-line-5">
    <rect x="0" y="123.5" width="1098" height="24.65"/>
            </clipPath>
<clipPath id="terminal-4030798866-line-6">
    <rect x="0" y="147.9" width="1098" height="24.65"/>
            </clipPath>
<clipPath id="terminal-4030798866-line-7">
    <rect x="0" y="172.3" width="1098" height="24.65"/>
            </clipPath>
<clipPath id="terminal-4030798866-line-8">
    <rect x="0" y="196.7" width="1098" height="24.65"/>
            </clipPath>
<clipPath id="terminal-4030798866-line-9">
    <rect x="0" y="221.1" width="1098" height="24.65"/>
            </clipPath>
<clipPath id="terminal-4030798866-line-10">
    <rect x="0" y="245.5" width="1098" height="24.65"/>
            </clipPath>
<clipPath id="terminal-4030798866-line-11">
    <rect x="0" y="269.9" width="1098" height="24.65"/>
            </clipPath>
<clipPath id="terminal-4030798866-line-12">
    <rect x="0" y="294.3" width="1098" height="24.65"/>
            </clipPath>
<clipPath id="terminal-4030798866-line-13">
    <rect x="0" y="318.7" width="1098" height="24.65"/>
            </clipPath>
<clipPath id="terminal-4030798866-line-14">
    <rect x="0" y="343.1" width="1098" height="24.65"/>
            </clipPath>
<clipPath id="terminal-4030798866-line-15">
    <rect x="0" y="367.5" width="1098" height="24.65"/>
            </clipPath>
<clipPath id="terminal-4030798866-line-16">
    <rect x="0" y="391.9" width="1098" height="24.65"/>
            </clipPath>
<clipPath id="terminal-4030798866-line-17">
    <rect x="0" y="416.3" width="1098" height="24.65"/>
            </clipPath>
<clipPath id="terminal-4030798866-line-18">
    <rect x="0" y="440.7" width="1098" height="24.65"/>
            </clipPath>
<clipPath id="terminal-4030798866-line-19">
    <rect x="0" y="465.1" width="1098" height="24.65"/>
            </clipPath>
<clipPath id="terminal-4030798866-line-20">
    <rect x="0" y="489.5" width="1098" height="24.65"/>
            </clipPath>
<clipPath id="terminal-4030798866-line-21">
    <rect x="0" y="513.9" width="1098" height="24.65"/>
            </clipPath>
<clipPath id="terminal-4030798866-line-22">
    <rect x="0" y="538.3" width="1098" height="24.65"/>
            </clipPath>
<clipPath id="terminal-4030798866-line-23">
    <rect x="0" y="562.7" width="1098" height="24.65"/>
            </clipPath>
<clipPath id="terminal-4030798866-line-24">
    <rect x="0" y="587.1" width="1098" height="24.65"/>
            </clipPath>
    </defs>

    <rect fill="#292929" stroke="rgba(255,255,255,0.35)" stroke-width="1" x="1" y="1" width="1114" height="682.4" rx="8"/><text class="terminal-4030798866-title" fill="#c5c8c6" text-anchor="middle" x="557" y="27">PytmuxApp</text>
            <g transform="translate(26,22)">
            <circle cx="0" cy="0" r="7" fill="#ff5f57"/>
            <circle cx="22" cy="0" r="7" fill="#febc2e"/>
            <circle cx="44" cy="0" r="7" fill="#28c840"/>
            </g>
        
    <g transform="translate(9, 41)" clip-path="url(#terminal-4030798866-clip-terminal)">
    <rect fill="#121212" x="0" y="1.5" width="12.2" height="24.65" shape-rendering="crispEdges"/><rect fill="#0e2638" x="12.2" y="1.5" width="85.4" height="24.65" shape-rendering="crispEdges"/><rect fill="#121212" x="97.6" y="1.5" width="24.4" height="24.65" shape-rendering="crispEdges"/><rect fill="#1e3425" x="122" y="1.5" width="36.6" height="24.65" shape-rendering="crispEdges"/><rect fill="#121212" x="158.6" y="1.5" width="939.4" height="24.65" shape-rendering="crispEdges"/><rect fill="#121212" x="0" y="25.9" width="12.2" height="24.65" shape-rendering="crispEdges"/><rect fill="#121212" x="12.2" y="25.9" width="85.4" height="24.65" shape-rendering="crispEdges"/><rect fill="#121212" x="97.6" y="25.9" width="439.2" height="24.65" shape-rendering="crispEdges"/><rect fill="#121212" x="536.8" y="25.9" width="512.4" height="24.65" shape-rendering="crispEdges"/><rect fill="#1f1316" x="1049.2" y="25.9" width="36.6" height="24.65" shape-rendering="crispEdges"/><rect fill="#121212" x="1085.8" y="25.9" width="12.2" height="24.65" shape-rendering="crispEdges"/><rect fill="#121212" x="0" y="50.3" width="12.2" height="24.65" shape-rendering="crispEdges"/><rect fill="#121212" x="12.2" y="50.3" width="524.6" height="24.65" shape-rendering="crispEdges"/><rect fill="#121212" x="536.8" y="50.3" width="12.2" height="24.65" shape-rendering="crispEdges"/><rect fill="#121212" x="549" y="50.3" width="353.8" height="24.65" shape-rendering="crispEdges"/><rect fill="#121212" x="902.8" y="50.3" width="12.2" height="24.65" shape-rendering="crispEdges"/><rect fill="#121212" x="915" y="50.3" width="134.2" height="24.65" shape-rendering="crispEdges"/><rect fill="#0e1921" x="1049.2" y="50.3" width="48.8" height="24.65" shape-rendering="crispEdges"/><rect fill="#121212" x="0" y="74.7" width="12.2" height="24.65" shape-rendering="crispEdges"/><rect fill="#121212" x="12.2" y="74.7" width="524.6" height="24.65" shape-rendering="crispEdges"/><rect fill="#121212" x="536.8" y="74.7" width="12.2" height="24.65" shape-rendering="crispEdges"/><rect fill="#121212" x="549" y="74.7" width="536.8" height="24.65" shape-rendering="crispEdges"/><rect fill="#121212" x="1085.8" y="74.7" width="12.2" height="24.65" shape-rendering="crispEdges"/><rect fill="#121212" x="0" y="99.1" width="12.2" height="24.65" shape-rendering="crispEdges"/><rect fill="#121212" x="12.2" y="99.1" width="524.6" height="24.65" shape-rendering="crispEdges"/><rect fill="#121212" x="536.8" y="99.1" width="12.2" height="24.65" shape-rendering="crispEdges"/><rect fill="#121212" x="549" y="99.1" width="536.8" height="24.65" shape-rendering="crispEdges"/><rect fill="#121212" x="1085.8" y="99.1" width="12.2" height="24.65" shape-rendering="crispEdges"/><rect fill="#121212" x="0" y="123.5" width="12.2" height="24.65" shape-rendering="crispEdges"/><rect fill="#121212" x="12.2" y="123.5" width="524.6" height="24.65" shape-rendering="crispEdges"/><rect fill="#121212" x="536.8" y="123.5" width="12.2" height="24.65" shape-rendering="crispEdges"/><rect fill="#121212" x="549" y="123.5" width="536.8" height="24.65" shape-rendering="crispEdges"/><rect fill="#121212" x="1085.8" y="123.5" width="12.2" height="24.65" shape-rendering="crispEdges"/><rect fill="#121212" x="0" y="147.9" width="12.2" height="24.65" shape-rendering="crispEdges"/><rect fill="#121212" x="12.2" y="147.9" width="524.6" height="24.65" shape-rendering="crispEdges"/><rect fill="#121212" x="536.8" y="147.9" width="12.2" height="24.65" shape-rendering="crispEdges"/><rect fill="#121212" x="549" y="147.9" width="536.8" height="24.65" shape-rendering="crispEdges"/><rect fill="#121212" x="1085.8" y="147.9" width="12.2" height="24.65" shape-rendering="crispEdges"/><rect fill="#121212" x="0" y="172.3" width="12.2" height="24.65" shape-rendering="crispEdges"/><rect fill="#121212" x="12.2" y="172.3" width="524.6" height="24.65" shape-rendering="crispEdges"/><rect fill="#121212" x="536.8" y="172.3" width="12.2" height="24.65" shape-rendering="crispEdges"/><rect fill="#121212" x="549" y="172.3" width="536.8" height="24.65" shape-rendering="crispEdges"/><rect fill="#121212" x="1085.8" y="172.3" width="12.2" height="24.65" shape-rendering="crispEdges"/><rect fill="#121212" x="0" y="196.7" width="12.2" height="24.65" shape-rendering="crispEdges"/><rect fill="#121212" x="12.2" y="196.7" width="524.6" height="24.65" shape-rendering="crispEdges"/><rect fill="#121212" x="536.8" y="196.7" width="12.2" height="24.65" shape-rendering="crispEdges"/><rect fill="#121212" x="549" y="196.7" width="536.8" height="24.65" shape-rendering="crispEdges"/><rect fill="#121212" x="1085.8" y="196.7" width="12.2" height="24.65" shape-rendering="crispEdges"/><rect fill="#121212" x="0" y="221.1" width="12.2" height="24.65" shape-rendering="crispEdges"/><rect fill="#121212" x="12.2" y="221.1" width="524.6" height="24.65" shape-rendering="crispEdges"/><rect fill="#121212" x="536.8" y="221.1" width="12.2" height="24.65" shape-rendering="crispEdges"/><rect fill="#121212" x="549" y="221.1" width="536.8" height="24.65" shape-rendering="crispEdges"/><rect fill="#121212" x="1085.8" y="221.1" width="12.2" height="24.65" shape-rendering="crispEdges"/><rect fill="#121212" x="0" y="245.5" width="12.2" height="24.65" shape-rendering="crispEdges"/><rect fill="#121212" x="12.2" y="245.5" width="524.6" height="24.65" shape-rendering="crispEdges"/><rect fill="#121212" x="536.8" y="245.5" width="12.2" height="24.65" shape-rendering="crispEdges"/><rect fill="#121212" x="549" y="245.5" width="536.8" height="24.65" shape-rendering="crispEdges"/><rect fill="#121212" x="1085.8" y="245.5" width="12.2" height="24.65" shape-rendering="crispEdges"/><rect fill="#121212" x="0" y="269.9" width="12.2" height="24.65" shape-rendering="crispEdges"/><rect fill="#121212" x="12.2" y="269.9" width="524.6" height="24.65" shape-rendering="crispEdges"/><rect fill="#121212" x="536.8" y="269.9" width="12.2" height="24.65" shape-rendering="crispEdges"/><rect fill="#121212" x="549" y="269.9" width="536.8" height="24.65" shape-rendering="crispEdges"/><rect fill="#121212" x="1085.8" y="269.9" width="12.2" height="24.65" shape-rendering="crispEdges"/><rect fill="#121212" x="0" y="294.3" width="12.2" height="24.65" shape-rendering="crispEdges"/><rect fill="#121212" x="12.2" y="294.3" width="524.6" height="24.65" shape-rendering="crispEdges"/><rect fill="#121212" x="536.8" y="294.3" width="12.2" height="24.65" shape-rendering="crispEdges"/><rect fill="#121212" x="549" y="294.3" width="536.8" height="24.65" shape-rendering="crispEdges"/><rect fill="#121212" x="1085.8" y="294.3" width="12.2" height="24.65" shape-rendering="crispEdges"/><rect fill="#121212" x="0" y="318.7" width="12.2" height="24.65" shape-rendering="crispEdges"/><rect fill="#121212" x="12.2" y="318.7" width="524.6" height="24.65" shape-rendering="crispEdges"/><rect fill="#121212" x="536.8" y="318.7" width="12.2" height="24.65" shape-rendering="crispEdges"/><rect fill="#121212" x="549" y="318.7" width="536.8" height="24.65" shape-rendering="crispEdges"/><rect fill="#121212" x="1085.8" y="318.7" width="12.2" height="24.65" shape-rendering="crispEdges"/><rect fill="#121212" x="0" y="343.1" width="12.2" height="24.65" shape-rendering="crispEdges"/><rect fill="#121212" x="12.2" y="343.1" width="524.6" height="24.65" shape-rendering="crispEdges"/><rect fill="#121212" x="536.8" y="343.1" width="12.2" height="24.65" shape-rendering="crispEdges"/><rect fill="#121212" x="549" y="343.1" width="536.8" height="24.65" shape-rendering="crispEdges"/><rect fill="#121212" x="1085.8" y="343.1" width="12.2" height="24.65" shape-rendering="crispEdges"/><rect fill="#121212" x="0" y="367.5" width="12.2" height="24.65" shape-rendering="crispEdges"/><rect fill="#121212" x="12.2" y="367.5" width="524.6" height="24.65" shape-rendering="crispEdges"/><rect fill="#121212" x="536.8" y="367.5" width="12.2" height="24.65" shape-rendering="crispEdges"/><rect fill="#121212" x="549" y="367.5" width="536.8" height="24.65" shape-rendering="crispEdges"/><rect fill="#121212" x="1085.8" y="367.5" width="12.2" height="24.65" shape-rendering="crispEdges"/><rect fill="#121212" x="0" y="391.9" width="12.2" height="24.65" shape-rendering="crispEdges"/><rect fill="#121212" x="12.2" y="391.9" width="524.6" height="24.65" shape-rendering="crispEdges"/><rect fill="#121212" x="536.8" y="391.9" width="12.2" height="24.65" shape-rendering="crispEdges"/><rect fill="#121212" x="549" y="391.9" width="536.8" height="24.65" shape-rendering="crispEdges"/><rect fill="#121212" x="1085.8" y="391.9" width="12.2" height="24.65" shape-rendering="crispEdges"/><rect fill="#121212" x="0" y="416.3" width="12.2" height="24.65" shape-rendering="crispEdges"/><rect fill="#121212" x="12.2" y="416.3" width="524.6" height="24.65" shape-rendering="crispEdges"/><rect fill="#121212" x="536.8" y="416.3" width="12.2" height="24.65" shape-rendering="crispEdges"/><rect fill="#121212" x="549" y="416.3" width="536.8" height="24.65" shape-rendering="crispEdges"/><rect fill="#121212" x="1085.8" y="416.3" width="12.2" height="24.65" shape-rendering="crispEdges"/><rect fill="#121212" x="0" y="440.7" width="12.2" height="24.65" shape-rendering="crispEdges"/><rect fill="#121212" x="12.2" y="440.7" width="524.6" height="24.65" shape-rendering="crispEdges"/><rect fill="#121212" x="536.8" y="440.7" width="12.2" height="24.65" shape-rendering="crispEdges"/><rect fill="#121212" x="549" y="440.7" width="536.8" height="24.65" shape-rendering="crispEdges"/><rect fill="#121212" x="1085.8" y="440.7" width="12.2" height="24.65" shape-rendering="crispEdges"/><rect fill="#121212" x="0" y="465.1" width="12.2" height="24.65" shape-rendering="crispEdges"/><rect fill="#121212" x="12.2" y="465.1" width="524.6" height="24.65" shape-rendering="crispEdges"/><rect fill="#121212" x="536.8" y="465.1" width="12.2" height="24.65" shape-rendering="crispEdges"/><rect fill="#121212" x="549" y="465.1" width="536.8" height="24.65" shape-rendering="crispEdges"/><rect fill="#121212" x="1085.8" y="465.1" width="12.2" height="24.65" shape-rendering="crispEdges"/><rect fill="#121212" x="0" y="489.5" width="12.2" height="24.65" shape-rendering="crispEdges"/><rect fill="#121212" x="12.2" y="489.5" width="524.6" height="24.65" shape-rendering="crispEdges"/><rect fill="#121212" x="536.8" y="489.5" width="12.2" height="24.65" shape-rendering="crispEdges"/><rect fill="#121212" x="549" y="489.5" width="536.8" height="24.65" shape-rendering="crispEdges"/><rect fill="#121212" x="1085.8" y="489.5" width="12.2" height="24.65" shape-rendering="crispEdges"/><rect fill="#121212" x="0" y="513.9" width="12.2" height="24.65" shape-rendering="crispEdges"/><rect fill="#121212" x="12.2" y="513.9" width="524.6" height="24.65" shape-rendering="crispEdges"/><rect fill="#121212" x="536.8" y="513.9" width="12.2" height="24.65" shape-rendering="crispEdges"/><rect fill="#121212" x="549" y="513.9" width="536.8" height="24.65" shape-rendering="crispEdges"/><rect fill="#121212" x="1085.8" y="513.9" width="12.2" height="24.65" shape-rendering="crispEdges"/><rect fill="#121212" x="0" y="538.3" width="12.2" height="24.65" shape-rendering="crispEdges"/><rect fill="#121212" x="12.2" y="538.3" width="524.6" height="24.65" shape-rendering="crispEdges"/><rect fill="#121212" x="536.8" y="538.3" width="12.2" height="24.65" shape-rendering="crispEdges"/><rect fill="#121212" x="549" y="538.3" width="536.8" height="24.65" shape-rendering="crispEdges"/><rect fill="#121212" x="1085.8" y="538.3" width="12.2" height="24.65" shape-rendering="crispEdges"/><rect fill="#1e1e1e" x="0" y="562.7" width="12.2" height="24.65" shape-rendering="crispEdges"/><rect fill="#1e1e1e" x="12.2" y="562.7" width="1073.6" height="24.65" shape-rendering="crispEdges"/><rect fill="#1e1e1e" x="1085.8" y="562.7" width="12.2" height="24.65" shape-rendering="crispEdges"/><rect fill="#1e1e1e" x="0" y="587.1" width="12.2" height="24.65" shape-rendering="crispEdges"/><rect fill="#1e1e1e" x="12.2" y="587.1" width="12.2" height="24.65" shape-rendering="crispEdges"/><rect fill="#1e1e1e" x="24.4" y="587.1" width="12.2" height="24.65" shape-rendering="crispEdges"/><rect fill="#004295" x="36.6" y="587.1" width="109.8" height="24.65" shape-rendering="crispEdges"/><rect fill="#272727" x="146.4" y="587.1" width="744.2" height="24.65" shape-rendering="crispEdges"/><rect fill="#1e1e1e" x="890.6" y="587.1" width="12.2" height="24.65" shape-rendering="crispEdges"/><rect fill="#1e1e1e" x="902.8" y="587.1" width="170.8" height="24.65" shape-rendering="crispEdges"/><rect fill="#1e1e1e" x="1073.6" y="587.1" width="12.2" height="24.65" shape-rendering="crispEdges"/><rect fill="#1e1e1e" x="1085.8" y="587.1" width="12.2" height="24.65" shape-rendering="crispEdges"/><rect fill="#1e1e1e" x="0" y="611.5" width="12.2" height="24.65" shape-rendering="crispEdges"/><rect fill="#1e1e1e" x="12.2" y="611.5" width="1073.6" height="24.65" shape-rendering="crispEdges"/><rect fill="#1e1e1e" x="1085.8" y="611.5" width="12.2" height="24.65" shape-rendering="crispEdges"/>
    <g class="terminal-4030798866-matrix">
    <text class="terminal-4030798866-r2" x="12.2" y="20" textLength="85.4" clip-path="url(#terminal-4030798866-line-0)">&#160;1:zsh&#160;</text><text class="terminal-4030798866-r3" x="122" y="20" textLength="36.6" clip-path="url(#terminal-4030798866-line-0)">[+]</text><text class="terminal-4030798866-r4" x="1098" y="20" textLength="12.2" clip-path="url(#terminal-4030798866-line-0)">
</text><text class="terminal-4030798866-r5" x="0" y="44.4" textLength="12.2" clip-path="url(#terminal-4030798866-line-1)">┌</text><text class="terminal-4030798866-r6" x="12.2" y="44.4" textLength="85.4" clip-path="url(#terminal-4030798866-line-1)">▀▀▀▀▀▀▀</text><text class="terminal-4030798866-r5" x="97.6" y="44.4" textLength="439.2" clip-path="url(#terminal-4030798866-line-1)">────────────────────────────────────</text><text class="terminal-4030798866-r7" x="536.8" y="44.4" textLength="512.4" clip-path="url(#terminal-4030798866-line-1)">┬─────────────────────────────────────────</text><text class="terminal-4030798866-r8" x="1049.2" y="44.4" textLength="36.6" clip-path="url(#terminal-4030798866-line-1)">[x]</text><text class="terminal-4030798866-r7" x="1085.8" y="44.4" textLength="12.2" clip-path="url(#terminal-4030798866-line-1)">┐</text><text class="terminal-4030798866-r4" x="1098" y="44.4" textLength="12.2" clip-path="url(#terminal-4030798866-line-1)">
</text><text class="terminal-4030798866-r5" x="0" y="68.8" textLength="12.2" clip-path="url(#terminal-4030798866-line-2)">│</text><text class="terminal-4030798866-r9" x="12.2" y="68.8" textLength="524.6" clip-path="url(#terminal-4030798866-line-2)">neoocean@playground&#160;pytmux&#160;%&#160;&#160;&#160;&#160;&#160;&#160;&#160;&#160;&#160;&#160;&#160;&#160;&#160;&#160;&#160;</text><text class="terminal-4030798866-r7" x="536.8" y="68.8" textLength="12.2" clip-path="url(#terminal-4030798866-line-2)">│</text><text class="terminal-4030798866-r10" x="549" y="68.8" textLength="353.8" clip-path="url(#terminal-4030798866-line-2)">neoocean@playground&#160;pytmux&#160;%&#160;</text><text class="terminal-4030798866-r11" x="1049.2" y="68.8" textLength="48.8" clip-path="url(#terminal-4030798866-line-2)">[EN]</text><text class="terminal-4030798866-r4" x="1098" y="68.8" textLength="12.2" clip-path="url(#terminal-4030798866-line-2)">
</text><text class="terminal-4030798866-r5" x="0" y="93.2" textLength="12.2" clip-path="url(#terminal-4030798866-line-3)">│</text><text class="terminal-4030798866-r7" x="536.8" y="93.2" textLength="12.2" clip-path="url(#terminal-4030798866-line-3)">│</text><text class="terminal-4030798866-r7" x="1085.8" y="93.2" textLength="12.2" clip-path="url(#terminal-4030798866-line-3)">│</text><text class="terminal-4030798866-r4" x="1098" y="93.2" textLength="12.2" clip-path="url(#terminal-4030798866-line-3)">
</text><text class="terminal-4030798866-r5" x="0" y="117.6" textLength="12.2" clip-path="url(#terminal-4030798866-line-4)">│</text><text class="terminal-4030798866-r7" x="536.8" y="117.6" textLength="12.2" clip-path="url(#terminal-4030798866-line-4)">│</text><text class="terminal-4030798866-r7" x="1085.8" y="117.6" textLength="12.2" clip-path="url(#terminal-4030798866-line-4)">│</text><text class="terminal-4030798866-r4" x="1098" y="117.6" textLength="12.2" clip-path="url(#terminal-4030798866-line-4)">
</text><text class="terminal-4030798866-r5" x="0" y="142" textLength="12.2" clip-path="url(#terminal-4030798866-line-5)">│</text><text class="terminal-4030798866-r7" x="536.8" y="142" textLength="12.2" clip-path="url(#terminal-4030798866-line-5)">│</text><text class="terminal-4030798866-r7" x="1085.8" y="142" textLength="12.2" clip-path="url(#terminal-4030798866-line-5)">│</text><text class="terminal-4030798866-r4" x="1098" y="142" textLength="12.2" clip-path="url(#terminal-4030798866-line-5)">
</text><text class="terminal-4030798866-r5" x="0" y="166.4" textLength="12.2" clip-path="url(#terminal-4030798866-line-6)">│</text><text class="terminal-4030798866-r7" x="536.8" y="166.4" textLength="12.2" clip-path="url(#terminal-4030798866-line-6)">│</text><text class="terminal-4030798866-r7" x="1085.8" y="166.4" textLength="12.2" clip-path="url(#terminal-4030798866-line-6)">│</text><text class="terminal-4030798866-r4" x="1098" y="166.4" textLength="12.2" clip-path="url(#terminal-4030798866-line-6)">
</text><text class="terminal-4030798866-r5" x="0" y="190.8" textLength="12.2" clip-path="url(#terminal-4030798866-line-7)">│</text><text class="terminal-4030798866-r7" x="536.8" y="190.8" textLength="12.2" clip-path="url(#terminal-4030798866-line-7)">│</text><text class="terminal-4030798866-r7" x="1085.8" y="190.8" textLength="12.2" clip-path="url(#terminal-4030798866-line-7)">│</text><text class="terminal-4030798866-r4" x="1098" y="190.8" textLength="12.2" clip-path="url(#terminal-4030798866-line-7)">
</text><text class="terminal-4030798866-r5" x="0" y="215.2" textLength="12.2" clip-path="url(#terminal-4030798866-line-8)">│</text><text class="terminal-4030798866-r7" x="536.8" y="215.2" textLength="12.2" clip-path="url(#terminal-4030798866-line-8)">│</text><text class="terminal-4030798866-r7" x="1085.8" y="215.2" textLength="12.2" clip-path="url(#terminal-4030798866-line-8)">│</text><text class="terminal-4030798866-r4" x="1098" y="215.2" textLength="12.2" clip-path="url(#terminal-4030798866-line-8)">
</text><text class="terminal-4030798866-r5" x="0" y="239.6" textLength="12.2" clip-path="url(#terminal-4030798866-line-9)">│</text><text class="terminal-4030798866-r7" x="536.8" y="239.6" textLength="12.2" clip-path="url(#terminal-4030798866-line-9)">│</text><text class="terminal-4030798866-r7" x="1085.8" y="239.6" textLength="12.2" clip-path="url(#terminal-4030798866-line-9)">│</text><text class="terminal-4030798866-r4" x="1098" y="239.6" textLength="12.2" clip-path="url(#terminal-4030798866-line-9)">
</text><text class="terminal-4030798866-r5" x="0" y="264" textLength="12.2" clip-path="url(#terminal-4030798866-line-10)">│</text><text class="terminal-4030798866-r7" x="536.8" y="264" textLength="12.2" clip-path="url(#terminal-4030798866-line-10)">│</text><text class="terminal-4030798866-r7" x="1085.8" y="264" textLength="12.2" clip-path="url(#terminal-4030798866-line-10)">│</text><text class="terminal-4030798866-r4" x="1098" y="264" textLength="12.2" clip-path="url(#terminal-4030798866-line-10)">
</text><text class="terminal-4030798866-r5" x="0" y="288.4" textLength="12.2" clip-path="url(#terminal-4030798866-line-11)">│</text><text class="terminal-4030798866-r7" x="536.8" y="288.4" textLength="12.2" clip-path="url(#terminal-4030798866-line-11)">│</text><text class="terminal-4030798866-r7" x="1085.8" y="288.4" textLength="12.2" clip-path="url(#terminal-4030798866-line-11)">│</text><text class="terminal-4030798866-r4" x="1098" y="288.4" textLength="12.2" clip-path="url(#terminal-4030798866-line-11)">
</text><text class="terminal-4030798866-r5" x="0" y="312.8" textLength="12.2" clip-path="url(#terminal-4030798866-line-12)">│</text><text class="terminal-4030798866-r7" x="536.8" y="312.8" textLength="12.2" clip-path="url(#terminal-4030798866-line-12)">│</text><text class="terminal-4030798866-r7" x="1085.8" y="312.8" textLength="12.2" clip-path="url(#terminal-4030798866-line-12)">│</text><text class="terminal-4030798866-r4" x="1098" y="312.8" textLength="12.2" clip-path="url(#terminal-4030798866-line-12)">
</text><text class="terminal-4030798866-r5" x="0" y="337.2" textLength="12.2" clip-path="url(#terminal-4030798866-line-13)">│</text><text class="terminal-4030798866-r7" x="536.8" y="337.2" textLength="12.2" clip-path="url(#terminal-4030798866-line-13)">│</text><text class="terminal-4030798866-r7" x="1085.8" y="337.2" textLength="12.2" clip-path="url(#terminal-4030798866-line-13)">│</text><text class="terminal-4030798866-r4" x="1098" y="337.2" textLength="12.2" clip-path="url(#terminal-4030798866-line-13)">
</text><text class="terminal-4030798866-r5" x="0" y="361.6" textLength="12.2" clip-path="url(#terminal-4030798866-line-14)">│</text><text class="terminal-4030798866-r7" x="536.8" y="361.6" textLength="12.2" clip-path="url(#terminal-4030798866-line-14)">│</text><text class="terminal-4030798866-r7" x="1085.8" y="361.6" textLength="12.2" clip-path="url(#terminal-4030798866-line-14)">│</text><text class="terminal-4030798866-r4" x="1098" y="361.6" textLength="12.2" clip-path="url(#terminal-4030798866-line-14)">
</text><text class="terminal-4030798866-r5" x="0" y="386" textLength="12.2" clip-path="url(#terminal-4030798866-line-15)">│</text><text class="terminal-4030798866-r7" x="536.8" y="386" textLength="12.2" clip-path="url(#terminal-4030798866-line-15)">│</text><text class="terminal-4030798866-r7" x="1085.8" y="386" textLength="12.2" clip-path="url(#terminal-4030798866-line-15)">│</text><text class="terminal-4030798866-r4" x="1098" y="386" textLength="12.2" clip-path="url(#terminal-4030798866-line-15)">
</text><text class="terminal-4030798866-r5" x="0" y="410.4" textLength="12.2" clip-path="url(#terminal-4030798866-line-16)">│</text><text class="terminal-4030798866-r7" x="536.8" y="410.4" textLength="12.2" clip-path="url(#terminal-4030798866-line-16)">│</text><text class="terminal-4030798866-r7" x="1085.8" y="410.4" textLength="12.2" clip-path="url(#terminal-4030798866-line-16)">│</text><text class="terminal-4030798866-r4" x="1098" y="410.4" textLength="12.2" clip-path="url(#terminal-4030798866-line-16)">
</text><text class="terminal-4030798866-r5" x="0" y="434.8" textLength="12.2" clip-path="url(#terminal-4030798866-line-17)">│</text><text class="terminal-4030798866-r7" x="536.8" y="434.8" textLength="12.2" clip-path="url(#terminal-4030798866-line-17)">│</text><text class="terminal-4030798866-r7" x="1085.8" y="434.8" textLength="12.2" clip-path="url(#terminal-4030798866-line-17)">│</text><text class="terminal-4030798866-r4" x="1098" y="434.8" textLength="12.2" clip-path="url(#terminal-4030798866-line-17)">
</text><text class="terminal-4030798866-r5" x="0" y="459.2" textLength="12.2" clip-path="url(#terminal-4030798866-line-18)">│</text><text class="terminal-4030798866-r7" x="536.8" y="459.2" textLength="12.2" clip-path="url(#terminal-4030798866-line-18)">│</text><text class="terminal-4030798866-r7" x="1085.8" y="459.2" textLength="12.2" clip-path="url(#terminal-4030798866-line-18)">│</text><text class="terminal-4030798866-r4" x="1098" y="459.2" textLength="12.2" clip-path="url(#terminal-4030798866-line-18)">
</text><text class="terminal-4030798866-r5" x="0" y="483.6" textLength="12.2" clip-path="url(#terminal-4030798866-line-19)">│</text><text class="terminal-4030798866-r7" x="536.8" y="483.6" textLength="12.2" clip-path="url(#terminal-4030798866-line-19)">│</text><text class="terminal-4030798866-r7" x="1085.8" y="483.6" textLength="12.2" clip-path="url(#terminal-4030798866-line-19)">│</text><text class="terminal-4030798866-r4" x="1098" y="483.6" textLength="12.2" clip-path="url(#terminal-4030798866-line-19)">
</text><text class="terminal-4030798866-r5" x="0" y="508" textLength="12.2" clip-path="url(#terminal-4030798866-line-20)">│</text><text class="terminal-4030798866-r7" x="536.8" y="508" textLength="12.2" clip-path="url(#terminal-4030798866-line-20)">│</text><text class="terminal-4030798866-r7" x="1085.8" y="508" textLength="12.2" clip-path="url(#terminal-4030798866-line-20)">│</text><text class="terminal-4030798866-r4" x="1098" y="508" textLength="12.2" clip-path="url(#terminal-4030798866-line-20)">
</text><text class="terminal-4030798866-r5" x="0" y="532.4" textLength="12.2" clip-path="url(#terminal-4030798866-line-21)">│</text><text class="terminal-4030798866-r7" x="536.8" y="532.4" textLength="12.2" clip-path="url(#terminal-4030798866-line-21)">│</text><text class="terminal-4030798866-r7" x="1085.8" y="532.4" textLength="12.2" clip-path="url(#terminal-4030798866-line-21)">│</text><text class="terminal-4030798866-r4" x="1098" y="532.4" textLength="12.2" clip-path="url(#terminal-4030798866-line-21)">
</text><text class="terminal-4030798866-r5" x="0" y="556.8" textLength="12.2" clip-path="url(#terminal-4030798866-line-22)">│</text><text class="terminal-4030798866-r7" x="536.8" y="556.8" textLength="12.2" clip-path="url(#terminal-4030798866-line-22)">│</text><text class="terminal-4030798866-r7" x="1085.8" y="556.8" textLength="12.2" clip-path="url(#terminal-4030798866-line-22)">│</text><text class="terminal-4030798866-r4" x="1098" y="556.8" textLength="12.2" clip-path="url(#terminal-4030798866-line-22)">
</text><text class="terminal-4030798866-r12" x="0" y="581.2" textLength="12.2" clip-path="url(#terminal-4030798866-line-23)">╭</text><text class="terminal-4030798866-r12" x="12.2" y="581.2" textLength="1073.6" clip-path="url(#terminal-4030798866-line-23)">────────────────────────────────────────────────────────────────────────────────────────</text><text class="terminal-4030798866-r12" x="1085.8" y="581.2" textLength="12.2" clip-path="url(#terminal-4030798866-line-23)">╮</text><text class="terminal-4030798866-r4" x="1098" y="581.2" textLength="12.2" clip-path="url(#terminal-4030798866-line-23)">
</text><text class="terminal-4030798866-r12" x="0" y="605.6" textLength="12.2" clip-path="url(#terminal-4030798866-line-24)">│</text><text class="terminal-4030798866-r13" x="12.2" y="605.6" textLength="12.2" clip-path="url(#terminal-4030798866-line-24)">:</text><text class="terminal-4030798866-r14" x="36.6" y="605.6" textLength="109.8" clip-path="url(#terminal-4030798866-line-24)">kill-pane</text><g clip-path="url(#terminal-4030798866-line-24)"><path fill="#9e9e9e" transform="translate(902.8 605.6) scale(0.0282081 -0.02)" d="M771 -41V22H260V189H184V-41ZM530 486H676V374H530V312H676V148H752V804H676V548H530ZM417 706V774H165V706ZM539 576V638H41V576ZM502 382C502 475 413 533 294 533C176 533 86 475 86 382C86 291 177 230 294 230C413 230 502 291 502 382ZM428 382C428 327 368 292 294 292C220 292 161 327 161 382C161 437 220 472 294 472C368 472 428 437 428 382Z"/><path fill="#9e9e9e" transform="translate(927.2 605.6) scale(0.0282081 -0.02)" d="M775 -70V804H700V453H592V783H519V-26H592V390H700V-70ZM478 197C386 254 294 377 294 550V636H462V699H45V636H219V547C219 378 127 240 24 174L75 120C160 181 239 284 257 381C282 289 368 184 430 141Z"/></g><text class="terminal-4030798866-r15" x="951.6" y="605.6" textLength="12.2" clip-path="url(#terminal-4030798866-line-24)">&#160;</text><g clip-path="url(#terminal-4030798866-line-24)"><path fill="#9e9e9e" transform="translate(963.8 605.6) scale(0.0282081 -0.02)" d="M777 -70V804H703V448H597V783H523V-25H597V385H703V-70ZM478 174C477 194 476 214 473 234C443 230 404 226 362 223C373 340 384 460 394 577L318 585C309 464 302 338 294 218C286 217 278 217 271 217C248 216 227 214 204 214C197 337 188 462 181 583L105 574C114 455 123 332 133 213H26L38 145C112 146 194 150 275 154C353 159 432 166 478 174ZM451 630V694H42V630Z"/><path fill="#9e9e9e" transform="translate(988.2 605.6) scale(0.0282081 -0.02)" d="M752 351V804H676V652H409V589H676V351ZM785 -63V0H261V94H753V305H184V242H677V154H185V-63ZM545 485C446 464 279 446 162 448V755H86V383H151C266 383 462 401 555 421Z"/></g><text class="terminal-4030798866-r15" x="1012.6" y="605.6" textLength="12.2" clip-path="url(#terminal-4030798866-line-24)">&#160;</text><g clip-path="url(#terminal-4030798866-line-24)"><path fill="#9e9e9e" transform="translate(1024.8 605.6) scale(0.0282081 -0.02)" d="M843 496V560H710V804H634V285H710V496ZM711 -70V239H146V175H634V-70ZM532 402C433 438 318 543 318 683V763H241V680C241 541 144 432 21 377L68 318C178 378 256 456 282 546C317 458 403 383 487 342Z"/><path fill="#9e9e9e" transform="translate(1049.2 605.6) scale(0.0282081 -0.02)" d="M484 192C376 262 294 370 294 542V638H462V701H45V638H219V540C219 370 127 232 24 166L75 113C160 173 239 277 257 374C282 282 374 180 436 136ZM602 -26V783H527V483H387V420H527V-26ZM775 -70V804H700V-70Z"/></g><text class="terminal-4030798866-r12" x="1085.8" y="605.6" textLength="12.2" clip-path="url(#terminal-4030798866-line-24)">│</text><text class="terminal-4030798866-r4" x="1098" y="605.6" textLength="12.2" clip-path="url(#terminal-4030798866-line-24)">
</text><text class="terminal-4030798866-r12" x="0" y="630" textLength="12.2" clip-path="url(#terminal-4030798866-line-25)">╰</text><text class="terminal-4030798866-r12" x="12.2" y="630" textLength="1073.6" clip-path="url(#terminal-4030798866-line-25)">────────────────────────────────────────────────────────────────────────────────────────</text><text class="terminal-4030798866-r12" x="1085.8" y="630" textLength="12.2" clip-path="url(#terminal-4030798866-line-25)">╯</text>
    </g>
    </g>
</svg>
