<svg class="rich-terminal" viewBox="0 0 1116 684.4" xmlns="http://www.w3.org/2000/svg">
    <!-- Generated with Rich https://www.textualize.io -->
    <style>

    @font-face {
        font-family: "Fira Code";
        src: local("FiraCode-Regular"),
                url("https://cdnjs.cloudflare.com/ajax/libs/firacode/6.2.0/woff2/FiraCode-Regular.woff2") format("woff2"),
                url("https://cdnjs.cloudflare.com/ajax/libs/firacode/6.2.0/woff/FiraCode-Regular.woff") format("woff");
        font-style: normal;
        font-weight: 400;
    }
    @font-face {
        font-family: "Fira Code";
        src: local("FiraCode-Bold"),
                url("https://cdnjs.cloudflare.com/ajax/libs/firacode/6.2.0/woff2/FiraCode-Bold.woff2") format("woff2"),
                url("https://cdnjs.cloudflare.com/ajax/libs/firacode/6.2.0/woff/FiraCode-Bold.woff") format("woff");
        font-style: bold;
        font-weight: 700;
    }

    .terminal-1085152259-matrix {
        font-family: Fira Code, "Apple SD Gothic Neo", monospace;
        font-size: 20px;
        line-height: 24.4px;
        font-variant-east-asian: full-width;
    }

    .terminal-1085152259-title {
        font-size: 18px;
        font-weight: bold;
        font-family: arial;
    }

    .terminal-1085152259-r1 { fill: #646464 }
.terminal-1085152259-r2 { fill: #595953;font-weight: bold }
.terminal-1085152259-r3 { fill: #151515;font-weight: bold }
.terminal-1085152259-r4 { fill: #c5c8c6 }
.terminal-1085152259-r5 { fill: #0a2030 }
.terminal-1085152259-r6 { fill: #2d2d2d }
.terminal-1085152259-r7 { fill: #222222 }
.terminal-1085152259-r8 { fill: #0a0a0a }
.terminal-1085152259-r9 { fill: #fea62b }
.terminal-1085152259-r10 { fill: #e0e0e0 }
.terminal-1085152259-r11 { fill: #45505a }
.terminal-1085152259-r12 { fill: #81878e;font-weight: bold }
.terminal-1085152259-r13 { fill: #211505;font-weight: bold }
.terminal-1085152259-r14 { fill: #54222f;font-weight: bold }
    </style>

    <defs>
    <clipPath id="terminal-1085152259-clip-terminal">
      <rect x="0" y="0" width="1097.0" height="633.4" />
    </clipPath>
    <clipPath id="terminal-1085152259-line-0">
    <rect x="0" y="1.5" width="1098" height="24.65"/>
            </clipPath>
<clipPath id="terminal-1085152259-line-1">
    <rect x="0" y="25.9" width="1098" height="24.65"/>
            </clipPath>
<clipPath id="terminal-1085152259-line-2">
    <rect x="0" y="50.3" width="1098" height="24.65"/>
            </clipPath>
<clipPath id="terminal-1085152259-line-3">
    <rect x="0" y="74.7" width="1098" height="24.65"/>
            </clipPath>
<clipPath id="terminal-1085152259-line-4">
    <rect x="0" y="99.1" width="1098" height="24.65"/>
            </clipPath>
<clipPath id="terminal-1085152259-line-5">
    <rect x="0" y="123.5" width="1098" height="24.65"/>
            </clipPath>
<clipPath id="terminal-1085152259-line-6">
    <rect x="0" y="147.9" width="1098" height="24.65"/>
            </clipPath>
<clipPath id="terminal-1085152259-line-7">
    <rect x="0" y="172.3" width="1098" height="24.65"/>
            </clipPath>
<clipPath id="terminal-1085152259-line-8">
    <rect x="0" y="196.7" width="1098" height="24.65"/>
            </clipPath>
<clipPath id="terminal-1085152259-line-9">
    <rect x="0" y="221.1" width="1098" height="24.65"/>
            </clipPath>
<clipPath id="terminal-1085152259-line-10">
    <rect x="0" y="245.5" width="1098" height="24.65"/>
            </clipPath>
<clipPath id="terminal-1085152259-line-11">
    <rect x="0" y="269.9" width="1098" height="24.65"/>
            </clipPath>
<clipPath id="terminal-1085152259-line-12">
    <rect x="0" y="294.3" width="1098" height="24.65"/>
            </clipPath>
<clipPath id="terminal-1085152259-line-13">
    <rect x="0" y="318.7" width="1098" height="24.65"/>
            </clipPath>
<clipPath id="terminal-1085152259-line-14">
    <rect x="0" y="343.1" width="1098" height="24.65"/>
            </clipPath>
<clipPath id="terminal-1085152259-line-15">
    <rect x="0" y="367.5" width="1098" height="24.65"/>
            </clipPath>
<clipPath id="terminal-1085152259-line-16">
    <rect x="0" y="391.9" width="1098" height="24.65"/>
            </clipPath>
<clipPath id="terminal-1085152259-line-17">
    <rect x="0" y="416.3" width="1098" height="24.65"/>
            </clipPath>
<clipPath id="terminal-1085152259-line-18">
    <rect x="0" y="440.7" width="1098" height="24.65"/>
            </clipPath>
<clipPath id="terminal-1085152259-line-19">
    <rect x="0" y="465.1" width="1098" height="24.65"/>
            </clipPath>
<clipPath id="terminal-1085152259-line-20">
    <rect x="0" y="489.5" width="1098" height="24.65"/>
            </clipPath>
<clipPath id="terminal-1085152259-line-21">
    <rect x="0" y="513.9" width="1098" height="24.65"/>
            </clipPath>
<clipPath id="terminal-1085152259-line-22">
    <rect x="0" y="538.3" width="1098" height="24.65"/>
            </clipPath>
<clipPath id="terminal-1085152259-line-23">
    <rect x="0" y="562.7" width="1098" height="24.65"/>
            </clipPath>
<clipPath id="terminal-1085152259-line-24">
    <rect x="0" y="587.1" width="1098" height="24.65"/>
            </clipPath>
    </defs>

    <rect fill="#292929" stroke="rgba(255,255,255,0.35)" stroke-width="1" x="1" y="1" width="1114" height="682.4" rx="8"/><text class="terminal-1085152259-title" fill="#c5c8c6" text-anchor="middle" x="557" y="27">PytmuxApp</text>
            <g transform="translate(26,22)">
            <circle cx="0" cy="0" r="7" fill="#ff5f57"/>
            <circle cx="22" cy="0" r="7" fill="#febc2e"/>
            <circle cx="44" cy="0" r="7" fill="#28c840"/>
            </g>
        
    <g transform="translate(9, 41)" clip-path="url(#terminal-1085152259-clip-terminal)">
    <rect fill="#121212" x="0" y="1.5" width="12.2" height="24.65" shape-rendering="crispEdges"/><rect fill="#121212" x="12.2" y="1.5" width="85.4" height="24.65" shape-rendering="crispEdges"/><rect fill="#0b3a5f" x="97.6" y="1.5" width="85.4" height="24.65" shape-rendering="crispEdges"/><rect fill="#121212" x="183" y="1.5" width="24.4" height="24.65" shape-rendering="crispEdges"/><rect fill="#2a5738" x="207.4" y="1.5" width="36.6" height="24.65" shape-rendering="crispEdges"/><rect fill="#121212" x="244" y="1.5" width="854" height="24.65" shape-rendering="crispEdges"/><rect fill="#121212" x="0" y="25.9" width="97.6" height="24.65" shape-rendering="crispEdges"/><rect fill="#121212" x="97.6" y="25.9" width="85.4" height="24.65" shape-rendering="crispEdges"/><rect fill="#121212" x="183" y="25.9" width="866.2" height="24.65" shape-rendering="crispEdges"/><rect fill="#2c151a" x="1049.2" y="25.9" width="36.6" height="24.65" shape-rendering="crispEdges"/><rect fill="#121212" x="1085.8" y="25.9" width="12.2" height="24.65" shape-rendering="crispEdges"/><rect fill="#121212" x="0" y="50.3" width="12.2" height="24.65" shape-rendering="crispEdges"/><rect fill="#121212" x="12.2" y="50.3" width="353.8" height="24.65" shape-rendering="crispEdges"/><rect fill="#121212" x="366" y="50.3" width="12.2" height="24.65" shape-rendering="crispEdges"/><rect fill="#121212" x="378.2" y="50.3" width="671" height="24.65" shape-rendering="crispEdges"/><rect fill="#0a2030" x="1049.2" y="50.3" width="48.8" height="24.65" shape-rendering="crispEdges"/><rect fill="#121212" x="0" y="74.7" width="12.2" height="24.65" shape-rendering="crispEdges"/><rect fill="#121212" x="12.2" y="74.7" width="1073.6" height="24.65" shape-rendering="crispEdges"/><rect fill="#121212" x="1085.8" y="74.7" width="12.2" height="24.65" shape-rendering="crispEdges"/><rect fill="#121212" x="0" y="99.1" width="12.2" height="24.65" shape-rendering="crispEdges"/><rect fill="#121212" x="12.2" y="99.1" width="1073.6" height="24.65" shape-rendering="crispEdges"/><rect fill="#121212" x="1085.8" y="99.1" width="12.2" height="24.65" shape-rendering="crispEdges"/><rect fill="#121212" x="0" y="123.5" width="12.2" height="24.65" shape-rendering="crispEdges"/><rect fill="#121212" x="12.2" y="123.5" width="1073.6" height="24.65" shape-rendering="crispEdges"/><rect fill="#121212" x="1085.8" y="123.5" width="12.2" height="24.65" shape-rendering="crispEdges"/><rect fill="#121212" x="0" y="147.9" width="12.2" height="24.65" shape-rendering="crispEdges"/><rect fill="#121212" x="12.2" y="147.9" width="1073.6" height="24.65" shape-rendering="crispEdges"/><rect fill="#121212" x="1085.8" y="147.9" width="12.2" height="24.65" shape-rendering="crispEdges"/><rect fill="#121212" x="0" y="172.3" width="12.2" height="24.65" shape-rendering="crispEdges"/><rect fill="#121212" x="12.2" y="172.3" width="1073.6" height="24.65" shape-rendering="crispEdges"/><rect fill="#121212" x="1085.8" y="172.3" width="12.2" height="24.65" shape-rendering="crispEdges"/><rect fill="#121212" x="0" y="196.7" width="12.2" height="24.65" shape-rendering="crispEdges"/><rect fill="#121212" x="12.2" y="196.7" width="244" height="24.65" shape-rendering="crispEdges"/><rect fill="#242f38" x="256.2" y="196.7" width="12.2" height="24.65" shape-rendering="crispEdges"/><rect fill="#242f38" x="268.4" y="196.7" width="12.2" height="24.65" shape-rendering="crispEdges"/><rect fill="#242f38" x="280.6" y="196.7" width="109.8" height="24.65" shape-rendering="crispEdges"/><rect fill="#242f38" x="390.4" y="196.7" width="439.2" height="24.65" shape-rendering="crispEdges"/><rect fill="#242f38" x="829.6" y="196.7" width="12.2" height="24.65" shape-rendering="crispEdges"/><rect fill="#121212" x="841.8" y="196.7" width="244" height="24.65" shape-rendering="crispEdges"/><rect fill="#121212" x="1085.8" y="196.7" width="12.2" height="24.65" shape-rendering="crispEdges"/><rect fill="#121212" x="0" y="221.1" width="12.2" height="24.65" shape-rendering="crispEdges"/><rect fill="#121212" x="12.2" y="221.1" width="244" height="24.65" shape-rendering="crispEdges"/><rect fill="#242f38" x="256.2" y="221.1" width="12.2" height="24.65" shape-rendering="crispEdges"/><rect fill="#242f38" x="268.4" y="221.1" width="561.2" height="24.65" shape-rendering="crispEdges"/><rect fill="#242f38" x="829.6" y="221.1" width="12.2" height="24.65" shape-rendering="crispEdges"/><rect fill="#121212" x="841.8" y="221.1" width="244" height="24.65" shape-rendering="crispEdges"/><rect fill="#121212" x="1085.8" y="221.1" width="12.2" height="24.65" shape-rendering="crispEdges"/><rect fill="#121212" x="0" y="245.5" width="12.2" height="24.65" shape-rendering="crispEdges"/><rect fill="#121212" x="12.2" y="245.5" width="244" height="24.65" shape-rendering="crispEdges"/><rect fill="#242f38" x="256.2" y="245.5" width="12.2" height="24.65" shape-rendering="crispEdges"/><rect fill="#242f38" x="268.4" y="245.5" width="24.4" height="24.65" shape-rendering="crispEdges"/><rect fill="#242f38" x="292.8" y="245.5" width="475.8" height="24.65" shape-rendering="crispEdges"/><rect fill="#242f38" x="768.6" y="245.5" width="36.6" height="24.65" shape-rendering="crispEdges"/><rect fill="#242f38" x="805.2" y="245.5" width="24.4" height="24.65" shape-rendering="crispEdges"/><rect fill="#242f38" x="829.6" y="245.5" width="12.2" height="24.65" shape-rendering="crispEdges"/><rect fill="#121212" x="841.8" y="245.5" width="244" height="24.65" shape-rendering="crispEdges"/><rect fill="#121212" x="1085.8" y="245.5" width="12.2" height="24.65" shape-rendering="crispEdges"/><rect fill="#121212" x="0" y="269.9" width="12.2" height="24.65" shape-rendering="crispEdges"/><rect fill="#121212" x="12.2" y="269.9" width="244" height="24.65" shape-rendering="crispEdges"/><rect fill="#242f38" x="256.2" y="269.9" width="12.2" height="24.65" shape-rendering="crispEdges"/><rect fill="#242f38" x="268.4" y="269.9" width="24.4" height="24.65" shape-rendering="crispEdges"/><rect fill="#242f38" x="292.8" y="269.9" width="512.4" height="24.65" shape-rendering="crispEdges"/><rect fill="#242f38" x="805.2" y="269.9" width="24.4" height="24.65" shape-rendering="crispEdges"/><rect fill="#242f38" x="829.6" y="269.9" width="12.2" height="24.65" shape-rendering="crispEdges"/><rect fill="#121212" x="841.8" y="269.9" width="244" height="24.65" shape-rendering="crispEdges"/><rect fill="#121212" x="1085.8" y="269.9" width="12.2" height="24.65" shape-rendering="crispEdges"/><rect fill="#121212" x="0" y="294.3" width="12.2" height="24.65" shape-rendering="crispEdges"/><rect fill="#121212" x="12.2" y="294.3" width="244" height="24.65" shape-rendering="crispEdges"/><rect fill="#242f38" x="256.2" y="294.3" width="12.2" height="24.65" shape-rendering="crispEdges"/><rect fill="#242f38" x="268.4" y="294.3" width="24.4" height="24.65" shape-rendering="crispEdges"/><rect fill="#242f38" x="292.8" y="294.3" width="12.2" height="24.65" shape-rendering="crispEdges"/><rect fill="#343f49" x="305" y="294.3" width="12.2" height="24.65" shape-rendering="crispEdges"/><rect fill="#343f49" x="317.2" y="294.3" width="207.4" height="24.65" shape-rendering="crispEdges"/><rect fill="#343f49" x="524.6" y="294.3" width="12.2" height="24.65" shape-rendering="crispEdges"/><rect fill="#242f38" x="536.8" y="294.3" width="12.2" height="24.65" shape-rendering="crispEdges"/><rect fill="#fea62b" x="549" y="294.3" width="12.2" height="24.65" shape-rendering="crispEdges"/><rect fill="#fea62b" x="561.2" y="294.3" width="219.6" height="24.65" shape-rendering="crispEdges"/><rect fill="#fea62b" x="780.8" y="294.3" width="12.2" height="24.65" shape-rendering="crispEdges"/><rect fill="#242f38" x="793" y="294.3" width="12.2" height="24.65" shape-rendering="crispEdges"/><rect fill="#242f38" x="805.2" y="294.3" width="24.4" height="24.65" shape-rendering="crispEdges"/><rect fill="#242f38" x="829.6" y="294.3" width="12.2" height="24.65" shape-rendering="crispEdges"/><rect fill="#121212" x="841.8" y="294.3" width="244" height="24.65" shape-rendering="crispEdges"/><rect fill="#121212" x="1085.8" y="294.3" width="12.2" height="24.65" shape-rendering="crispEdges"/><rect fill="#121212" x="0" y="318.7" width="12.2" height="24.65" shape-rendering="crispEdges"/><rect fill="#121212" x="12.2" y="318.7" width="244" height="24.65" shape-rendering="crispEdges"/><rect fill="#242f38" x="256.2" y="318.7" width="12.2" height="24.65" shape-rendering="crispEdges"/><rect fill="#242f38" x="268.4" y="318.7" width="24.4" height="24.65" shape-rendering="crispEdges"/><rect fill="#242f38" x="292.8" y="318.7" width="12.2" height="24.65" shape-rendering="crispEdges"/><rect fill="#343f49" x="305" y="318.7" width="12.2" height="24.65" shape-rendering="crispEdges"/><rect fill="#343f49" x="317.2" y="318.7" width="73.2" height="24.65" shape-rendering="crispEdges"/><rect fill="#343f49" x="390.4" y="318.7" width="48.8" height="24.65" shape-rendering="crispEdges"/><rect fill="#343f49" x="439.2" y="318.7" width="85.4" height="24.65" shape-rendering="crispEdges"/><rect fill="#343f49" x="524.6" y="318.7" width="12.2" height="24.65" shape-rendering="crispEdges"/><rect fill="#242f38" x="536.8" y="318.7" width="12.2" height="24.65" shape-rendering="crispEdges"/><rect fill="#fea62b" x="549" y="318.7" width="12.2" height="24.65" shape-rendering="crispEdges"/><rect fill="#fea62b" x="561.2" y="318.7" width="85.4" height="24.65" shape-rendering="crispEdges"/><rect fill="#fea62b" x="646.6" y="318.7" width="48.8" height="24.65" shape-rendering="crispEdges"/><rect fill="#fea62b" x="695.4" y="318.7" width="85.4" height="24.65" shape-rendering="crispEdges"/><rect fill="#fea62b" x="780.8" y="318.7" width="12.2" height="24.65" shape-rendering="crispEdges"/><rect fill="#242f38" x="793" y="318.7" width="12.2" height="24.65" shape-rendering="crispEdges"/><rect fill="#242f38" x="805.2" y="318.7" width="24.4" height="24.65" shape-rendering="crispEdges"/><rect fill="#242f38" x="829.6" y="318.7" width="12.2" height="24.65" shape-rendering="crispEdges"/><rect fill="#121212" x="841.8" y="318.7" width="244" height="24.65" shape-rendering="crispEdges"/><rect fill="#121212" x="1085.8" y="318.7" width="12.2" height="24.65" shape-rendering="crispEdges"/><rect fill="#121212" x="0" y="343.1" width="12.2" height="24.65" shape-rendering="crispEdges"/><rect fill="#121212" x="12.2" y="343.1" width="244" height="24.65" shape-rendering="crispEdges"/><rect fill="#242f38" x="256.2" y="343.1" width="12.2" height="24.65" shape-rendering="crispEdges"/><rect fill="#242f38" x="268.4" y="343.1" width="24.4" height="24.65" shape-rendering="crispEdges"/><rect fill="#242f38" x="292.8" y="343.1" width="12.2" height="24.65" shape-rendering="crispEdges"/><rect fill="#343f49" x="305" y="343.1" width="12.2" height="24.65" shape-rendering="crispEdges"/><rect fill="#343f49" x="317.2" y="343.1" width="207.4" height="24.65" shape-rendering="crispEdges"/><rect fill="#343f49" x="524.6" y="343.1" width="12.2" height="24.65" shape-rendering="crispEdges"/><rect fill="#242f38" x="536.8" y="343.1" width="12.2" height="24.65" shape-rendering="crispEdges"/><rect fill="#fea62b" x="549" y="343.1" width="12.2" height="24.65" shape-rendering="crispEdges"/><rect fill="#fea62b" x="561.2" y="343.1" width="219.6" height="24.65" shape-rendering="crispEdges"/><rect fill="#fea62b" x="780.8" y="343.1" width="12.2" height="24.65" shape-rendering="crispEdges"/><rect fill="#242f38" x="793" y="343.1" width="12.2" height="24.65" shape-rendering="crispEdges"/><rect fill="#242f38" x="805.2" y="343.1" width="24.4" height="24.65" shape-rendering="crispEdges"/><rect fill="#242f38" x="829.6" y="343.1" width="12.2" height="24.65" shape-rendering="crispEdges"/><rect fill="#121212" x="841.8" y="343.1" width="244" height="24.65" shape-rendering="crispEdges"/><rect fill="#121212" x="1085.8" y="343.1" width="12.2" height="24.65" shape-rendering="crispEdges"/><rect fill="#121212" x="0" y="367.5" width="12.2" height="24.65" shape-rendering="crispEdges"/><rect fill="#121212" x="12.2" y="367.5" width="244" height="24.65" shape-rendering="crispEdges"/><rect fill="#242f38" x="256.2" y="367.5" width="12.2" height="24.65" shape-rendering="crispEdges"/><rect fill="#242f38" x="268.4" y="367.5" width="561.2" height="24.65" shape-rendering="crispEdges"/><rect fill="#242f38" x="829.6" y="367.5" width="12.2" height="24.65" shape-rendering="crispEdges"/><rect fill="#121212" x="841.8" y="367.5" width="244" height="24.65" shape-rendering="crispEdges"/><rect fill="#121212" x="1085.8" y="367.5" width="12.2" height="24.65" shape-rendering="crispEdges"/><rect fill="#121212" x="0" y="391.9" width="12.2" height="24.65" shape-rendering="crispEdges"/><rect fill="#121212" x="12.2" y="391.9" width="244" height="24.65" shape-rendering="crispEdges"/><rect fill="#242f38" x="256.2" y="391.9" width="12.2" height="24.65" shape-rendering="crispEdges"/><rect fill="#242f38" x="268.4" y="391.9" width="73.2" height="24.65" shape-rendering="crispEdges"/><rect fill="#242f38" x="341.6" y="391.9" width="475.8" height="24.65" shape-rendering="crispEdges"/><rect fill="#242f38" x="817.4" y="391.9" width="12.2" height="24.65" shape-rendering="crispEdges"/><rect fill="#242f38" x="829.6" y="391.9" width="12.2" height="24.65" shape-rendering="crispEdges"/><rect fill="#121212" x="841.8" y="391.9" width="244" height="24.65" shape-rendering="crispEdges"/><rect fill="#121212" x="1085.8" y="391.9" width="12.2" height="24.65" shape-rendering="crispEdges"/><rect fill="#121212" x="0" y="416.3" width="12.2" height="24.65" shape-rendering="crispEdges"/><rect fill="#121212" x="12.2" y="416.3" width="1073.6" height="24.65" shape-rendering="crispEdges"/><rect fill="#121212" x="1085.8" y="416.3" width="12.2" height="24.65" shape-rendering="crispEdges"/><rect fill="#121212" x="0" y="440.7" width="12.2" height="24.65" shape-rendering="crispEdges"/><rect fill="#121212" x="12.2" y="440.7" width="1073.6" height="24.65" shape-rendering="crispEdges"/><rect fill="#121212" x="1085.8" y="440.7" width="12.2" height="24.65" shape-rendering="crispEdges"/><rect fill="#121212" x="0" y="465.1" width="12.2" height="24.65" shape-rendering="crispEdges"/><rect fill="#121212" x="12.2" y="465.1" width="1073.6" height="24.65" shape-rendering="crispEdges"/><rect fill="#121212" x="1085.8" y="465.1" width="12.2" height="24.65" shape-rendering="crispEdges"/><rect fill="#121212" x="0" y="489.5" width="12.2" height="24.65" shape-rendering="crispEdges"/><rect fill="#121212" x="12.2" y="489.5" width="1073.6" height="24.65" shape-rendering="crispEdges"/><rect fill="#121212" x="1085.8" y="489.5" width="12.2" height="24.65" shape-rendering="crispEdges"/><rect fill="#121212" x="0" y="513.9" width="12.2" height="24.65" shape-rendering="crispEdges"/><rect fill="#121212" x="12.2" y="513.9" width="1073.6" height="24.65" shape-rendering="crispEdges"/><rect fill="#121212" x="1085.8" y="513.9" width="12.2" height="24.65" shape-rendering="crispEdges"/><rect fill="#121212" x="0" y="538.3" width="12.2" height="24.65" shape-rendering="crispEdges"/><rect fill="#121212" x="12.2" y="538.3" width="1073.6" height="24.65" shape-rendering="crispEdges"/><rect fill="#121212" x="1085.8" y="538.3" width="12.2" height="24.65" shape-rendering="crispEdges"/><rect fill="#121212" x="0" y="562.7" width="12.2" height="24.65" shape-rendering="crispEdges"/><rect fill="#121212" x="12.2" y="562.7" width="1073.6" height="24.65" shape-rendering="crispEdges"/><rect fill="#121212" x="1085.8" y="562.7" width="12.2" height="24.65" shape-rendering="crispEdges"/><rect fill="#121212" x="0" y="587.1" width="1098" height="24.65" shape-rendering="crispEdges"/><rect fill="#121212" x="0" y="611.5" width="12.2" height="24.65" shape-rendering="crispEdges"/><rect fill="#121212" x="12.2" y="611.5" width="683.2" height="24.65" shape-rendering="crispEdges"/><rect fill="#121212" x="695.4" y="611.5" width="12.2" height="24.65" shape-rendering="crispEdges"/><rect fill="#121212" x="707.6" y="611.5" width="170.8" height="24.65" shape-rendering="crispEdges"/><rect fill="#121212" x="878.4" y="611.5" width="12.2" height="24.65" shape-rendering="crispEdges"/><rect fill="#121212" x="890.6" y="611.5" width="61" height="24.65" shape-rendering="crispEdges"/><rect fill="#121212" x="951.6" y="611.5" width="12.2" height="24.65" shape-rendering="crispEdges"/><rect fill="#121212" x="963.8" y="611.5" width="122" height="24.65" shape-rendering="crispEdges"/><rect fill="#121212" x="1085.8" y="611.5" width="12.2" height="24.65" shape-rendering="crispEdges"/>
    <g class="terminal-1085152259-matrix">
    <text class="terminal-1085152259-r1" x="12.2" y="20" textLength="85.4" clip-path="url(#terminal-1085152259-line-0)">&#160;1:win&#160;</text><text class="terminal-1085152259-r2" x="97.6" y="20" textLength="85.4" clip-path="url(#terminal-1085152259-line-0)">&#160;2:win&#160;</text><text class="terminal-1085152259-r3" x="207.4" y="20" textLength="36.6" clip-path="url(#terminal-1085152259-line-0)">[+]</text><text class="terminal-1085152259-r4" x="1098" y="20" textLength="12.2" clip-path="url(#terminal-1085152259-line-0)">
</text><text class="terminal-1085152259-r5" x="0" y="44.4" textLength="97.6" clip-path="url(#terminal-1085152259-line-1)">┌───────</text><text class="terminal-1085152259-r5" x="97.6" y="44.4" textLength="85.4" clip-path="url(#terminal-1085152259-line-1)">▀▀▀▀▀▀▀</text><text class="terminal-1085152259-r5" x="183" y="44.4" textLength="866.2" clip-path="url(#terminal-1085152259-line-1)">───────────────────────────────────────────────────────────────────────</text><text class="terminal-1085152259-r6" x="1049.2" y="44.4" textLength="36.6" clip-path="url(#terminal-1085152259-line-1)">[x]</text><text class="terminal-1085152259-r5" x="1085.8" y="44.4" textLength="12.2" clip-path="url(#terminal-1085152259-line-1)">┐</text><text class="terminal-1085152259-r4" x="1098" y="44.4" textLength="12.2" clip-path="url(#terminal-1085152259-line-1)">
</text><text class="terminal-1085152259-r5" x="0" y="68.8" textLength="12.2" clip-path="url(#terminal-1085152259-line-2)">│</text><text class="terminal-1085152259-r7" x="12.2" y="68.8" textLength="353.8" clip-path="url(#terminal-1085152259-line-2)">neoocean@playground&#160;pytmux&#160;%&#160;</text><text class="terminal-1085152259-r8" x="1049.2" y="68.8" textLength="48.8" clip-path="url(#terminal-1085152259-line-2)">[EN]</text><text class="terminal-1085152259-r4" x="1098" y="68.8" textLength="12.2" clip-path="url(#terminal-1085152259-line-2)">
</text><text class="terminal-1085152259-r5" x="0" y="93.2" textLength="12.2" clip-path="url(#terminal-1085152259-line-3)">│</text><text class="terminal-1085152259-r5" x="1085.8" y="93.2" textLength="12.2" clip-path="url(#terminal-1085152259-line-3)">│</text><text class="terminal-1085152259-r4" x="1098" y="93.2" textLength="12.2" clip-path="url(#terminal-1085152259-line-3)">
</text><text class="terminal-1085152259-r5" x="0" y="117.6" textLength="12.2" clip-path="url(#terminal-1085152259-line-4)">│</text><text class="terminal-1085152259-r5" x="1085.8" y="117.6" textLength="12.2" clip-path="url(#terminal-1085152259-line-4)">│</text><text class="terminal-1085152259-r4" x="1098" y="117.6" textLength="12.2" clip-path="url(#terminal-1085152259-line-4)">
</text><text class="terminal-1085152259-r5" x="0" y="142" textLength="12.2" clip-path="url(#terminal-1085152259-line-5)">│</text><text class="terminal-1085152259-r5" x="1085.8" y="142" textLength="12.2" clip-path="url(#terminal-1085152259-line-5)">│</text><text class="terminal-1085152259-r4" x="1098" y="142" textLength="12.2" clip-path="url(#terminal-1085152259-line-5)">
</text><text class="terminal-1085152259-r5" x="0" y="166.4" textLength="12.2" clip-path="url(#terminal-1085152259-line-6)">│</text><text class="terminal-1085152259-r5" x="1085.8" y="166.4" textLength="12.2" clip-path="url(#terminal-1085152259-line-6)">│</text><text class="terminal-1085152259-r4" x="1098" y="166.4" textLength="12.2" clip-path="url(#terminal-1085152259-line-6)">
</text><text class="terminal-1085152259-r5" x="0" y="190.8" textLength="12.2" clip-path="url(#terminal-1085152259-line-7)">│</text><text class="terminal-1085152259-r5" x="1085.8" y="190.8" textLength="12.2" clip-path="url(#terminal-1085152259-line-7)">│</text><text class="terminal-1085152259-r4" x="1098" y="190.8" textLength="12.2" clip-path="url(#terminal-1085152259-line-7)">
</text><text class="terminal-1085152259-r5" x="0" y="215.2" textLength="12.2" clip-path="url(#terminal-1085152259-line-8)">│</text><text class="terminal-1085152259-r9" x="256.2" y="215.2" textLength="12.2" clip-path="url(#terminal-1085152259-line-8)">╭</text><text class="terminal-1085152259-r9" x="268.4" y="215.2" textLength="12.2" clip-path="url(#terminal-1085152259-line-8)">─</text><text class="terminal-1085152259-r9" x="280.6" y="215.2" textLength="12.2" clip-path="url(#terminal-1085152259-line-8)">&#160;</text><g clip-path="url(#terminal-1085152259-line-8)"><path fill="#fea62b" transform="translate(292.8 215.2) scale(0.0282081 -0.02)" d="M775 -58V277H698V171H276V276H200V-58ZM775 322V804H699V592H590V788H516V330H590V529H699V322ZM698 5H276V110H698ZM154 413V524H403V585H154V685H417V748H79V348H135C255 348 373 355 459 372L448 435C380 420 279 413 179 413Z"/></g><text class="terminal-1085152259-r9" x="317.2" y="215.2" textLength="12.2" clip-path="url(#terminal-1085152259-line-8)">&#160;</text><g clip-path="url(#terminal-1085152259-line-8)"><path fill="#fea62b" transform="translate(329.4 215.2) scale(0.0282081 -0.02)" d="M842 525V589H709V804H633V301H709V525ZM721 -57V5H233V192H712V255H156V-57ZM144 406V674H469V738H68V343H139C290 343 456 356 553 373L545 435C461 418 308 406 187 406Z"/><path fill="#fea62b" transform="translate(353.8 215.2) scale(0.0282081 -0.02)" d="M752 -70V804H676V-70ZM495 711H79V647H414C398 450 268 260 47 163L91 103C317 210 491 427 495 711Z"/></g><text class="terminal-1085152259-r9" x="378.2" y="215.2" textLength="12.2" clip-path="url(#terminal-1085152259-line-8)">&#160;</text><text class="terminal-1085152259-r9" x="390.4" y="215.2" textLength="439.2" clip-path="url(#terminal-1085152259-line-8)">────────────────────────────────────</text><text class="terminal-1085152259-r9" x="829.6" y="215.2" textLength="12.2" clip-path="url(#terminal-1085152259-line-8)">╮</text><text class="terminal-1085152259-r5" x="1085.8" y="215.2" textLength="12.2" clip-path="url(#terminal-1085152259-line-8)">│</text><text class="terminal-1085152259-r4" x="1098" y="215.2" textLength="12.2" clip-path="url(#terminal-1085152259-line-8)">
</text><text class="terminal-1085152259-r5" x="0" y="239.6" textLength="12.2" clip-path="url(#terminal-1085152259-line-9)">│</text><text class="terminal-1085152259-r9" x="256.2" y="239.6" textLength="12.2" clip-path="url(#terminal-1085152259-line-9)">│</text><text class="terminal-1085152259-r9" x="829.6" y="239.6" textLength="12.2" clip-path="url(#terminal-1085152259-line-9)">│</text><text class="terminal-1085152259-r5" x="1085.8" y="239.6" textLength="12.2" clip-path="url(#terminal-1085152259-line-9)">│</text><text class="terminal-1085152259-r4" x="1098" y="239.6" textLength="12.2" clip-path="url(#terminal-1085152259-line-9)">
</text><text class="terminal-1085152259-r5" x="0" y="264" textLength="12.2" clip-path="url(#terminal-1085152259-line-10)">│</text><text class="terminal-1085152259-r9" x="256.2" y="264" textLength="12.2" clip-path="url(#terminal-1085152259-line-10)">│</text><g clip-path="url(#terminal-1085152259-line-10)"><path fill="#e0e0e0" transform="translate(292.8 264) scale(0.0282081 -0.02)" d="M757 -70V804H681V-70ZM67 430C67 244 149 120 292 120C437 120 518 244 518 429C518 614 437 738 292 738C149 738 67 614 67 430ZM446 429C446 286 385 186 292 186C200 186 139 286 139 429C139 573 200 672 292 672C385 672 446 573 446 429Z"/></g><text class="terminal-1085152259-r10" x="317.2" y="264" textLength="12.2" clip-path="url(#terminal-1085152259-line-10)">&#160;</text><g clip-path="url(#terminal-1085152259-line-10)"><path fill="#e0e0e0" transform="translate(329.4 264) scale(0.0282081 -0.02)" d="M775 -58V277H698V171H276V276H200V-58ZM775 322V804H699V592H590V788H516V330H590V529H699V322ZM698 5H276V110H698ZM154 413V524H403V585H154V685H417V748H79V348H135C255 348 373 355 459 372L448 435C380 420 279 413 179 413Z"/><path fill="#e0e0e0" transform="translate(353.8 264) scale(0.0282081 -0.02)" d="M827 362V426H38V362ZM739 640C739 736 623 792 433 792C245 792 129 736 129 640C129 544 245 489 433 489C623 489 739 544 739 640ZM433 730C572 730 662 695 662 640C662 586 572 552 433 552C296 552 207 586 207 640C207 695 296 730 433 730ZM757 -62V0H206V88H728V284H128V223H652V146H130V-62Z"/></g><text class="terminal-1085152259-r10" x="378.2" y="264" textLength="12.2" clip-path="url(#terminal-1085152259-line-10)">&#160;</text><g clip-path="url(#terminal-1085152259-line-10)"><path fill="#e0e0e0" transform="translate(390.4 264) scale(0.0282081 -0.02)" d="M842 525V589H709V804H633V301H709V525ZM721 -57V5H233V192H712V255H156V-57ZM144 406V674H469V738H68V343H139C290 343 456 356 553 373L545 435C461 418 308 406 187 406Z"/><path fill="#e0e0e0" transform="translate(414.8 264) scale(0.0282081 -0.02)" d="M827 362V426H38V362ZM739 640C739 736 623 792 433 792C245 792 129 736 129 640C129 544 245 489 433 489C623 489 739 544 739 640ZM433 730C572 730 662 695 662 640C662 586 572 552 433 552C296 552 207 586 207 640C207 695 296 730 433 730ZM757 -62V0H206V88H728V284H128V223H652V146H130V-62Z"/><path fill="#e0e0e0" transform="translate(439.2 264) scale(0.0282081 -0.02)" d="M723 804H648V-70H723V376H856V440H723ZM290 708H55V644H213C211 500 140 292 10 175L72 130C218 285 290 488 290 708ZM528 708H330V644H453C453 510 403 263 259 119L323 76C480 263 528 476 528 708Z"/><path fill="#e0e0e0" transform="translate(463.6 264) scale(0.0282081 -0.02)" d="M747 519C747 654 622 746 431 746C243 746 117 654 117 519C117 384 243 294 431 294C621 294 747 384 747 519ZM674 519C674 421 577 355 431 355C286 355 190 421 190 519C190 617 286 683 431 683C578 683 674 617 674 519ZM827 41V105H629V268L553 270V105H309V270L233 268V105H38V41Z"/></g><text class="terminal-1085152259-r10" x="488" y="264" textLength="24.4" clip-path="url(#terminal-1085152259-line-10)">?&#160;</text><g clip-path="url(#terminal-1085152259-line-10)"><path fill="#e0e0e0" transform="translate(512.4 264) scale(0.0282081 -0.02)" d="M775 -58V277H698V171H276V276H200V-58ZM775 322V804H699V592H590V788H516V330H590V529H699V322ZM698 5H276V110H698ZM154 413V524H403V585H154V685H417V748H79V348H135C255 348 373 355 459 372L448 435C380 420 279 413 179 413Z"/><path fill="#e0e0e0" transform="translate(536.8 264) scale(0.0282081 -0.02)" d="M680 804V-70H756V804ZM542 528C542 656 444 736 315 736C188 736 87 651 87 528C87 411 186 325 315 325C441 325 542 404 542 528ZM468 528C468 446 398 389 315 389C230 389 161 447 161 528C161 610 231 671 315 671C400 671 468 616 468 528ZM629 152 622 214C558 206 445 199 323 195C217 189 114 187 39 188L53 121C119 122 215 125 318 130C429 135 554 143 629 152Z"/></g><text class="terminal-1085152259-r10" x="561.2" y="264" textLength="12.2" clip-path="url(#terminal-1085152259-line-10)">&#160;</text><g clip-path="url(#terminal-1085152259-line-10)"><path fill="#e0e0e0" transform="translate(573.4 264) scale(0.0282081 -0.02)" d="M807 -64V-1H278V92H775V298H198V235H698V151H202V-64ZM479 417C391 459 298 542 298 669V764H224V668C224 542 145 444 38 392L85 337C176 384 240 465 263 538C288 470 371 393 435 359ZM609 352V788H536V695H405V634H536V547H406V486H536V352ZM775 344V804H699V344Z"/><path fill="#e0e0e0" transform="translate(597.8 264) scale(0.0282081 -0.02)" d="M757 -70V804H681V-70ZM67 430C67 244 149 120 292 120C437 120 518 244 518 429C518 614 437 738 292 738C149 738 67 614 67 430ZM446 429C446 286 385 186 292 186C200 186 139 286 139 429C139 573 200 672 292 672C385 672 446 573 446 429Z"/></g><text class="terminal-1085152259-r10" x="622.2" y="264" textLength="12.2" clip-path="url(#terminal-1085152259-line-10)">&#160;</text><g clip-path="url(#terminal-1085152259-line-10)"><path fill="#e0e0e0" transform="translate(634.4 264) scale(0.0282081 -0.02)" d="M739 83C739 180 628 232 432 232C237 232 127 176 127 83C127 -12 237 -68 432 -68C628 -68 739 -13 739 83ZM788 512C666 524 505 592 477 696H755V759H110V696H389C363 593 214 524 79 511L114 448C268 470 398 548 432 629C476 549 607 472 753 448ZM432 171C574 171 662 139 662 83C662 25 574 -6 432 -6C291 -6 204 25 204 83C204 139 291 171 432 171ZM827 303V367H470V499H394V367H38V303Z"/><path fill="#e0e0e0" transform="translate(658.8 264) scale(0.0282081 -0.02)" d="M753 275V338H211V478H728V739H137V675H652V541H134V275H258V105H38V41H827V105H612V275ZM334 275H537V105H334Z"/><path fill="#e0e0e0" transform="translate(683.2 264) scale(0.0282081 -0.02)" d="M754 -58V257H678V165H261V255H185V-58ZM617 341 610 402C556 394 462 387 368 383V486H546V549H190V693H538V756H114V486H292V380C197 377 106 377 39 377L50 310C108 310 237 313 336 318C442 323 548 333 617 341ZM678 4H261V103H678ZM754 304V804H678V304Z"/><path fill="#e0e0e0" transform="translate(707.6 264) scale(0.0282081 -0.02)" d="M746 804H671V-70H746ZM582 251C478 228 276 212 164 212V713H87V145H126C260 145 488 162 589 185Z"/><path fill="#e0e0e0" transform="translate(732 264) scale(0.0282081 -0.02)" d="M712 804H636V-70H712V393H854V457H712ZM149 209V649H487V713H72V144H158C310 144 483 156 577 174L569 237C485 219 312 209 199 209Z"/></g><text class="terminal-1085152259-r10" x="756.4" y="264" textLength="12.2" clip-path="url(#terminal-1085152259-line-10)">.</text><text class="terminal-1085152259-r9" x="829.6" y="264" textLength="12.2" clip-path="url(#terminal-1085152259-line-10)">│</text><text class="terminal-1085152259-r5" x="1085.8" y="264" textLength="12.2" clip-path="url(#terminal-1085152259-line-10)">│</text><text class="terminal-1085152259-r4" x="1098" y="264" textLength="12.2" clip-path="url(#terminal-1085152259-line-10)">
</text><text class="terminal-1085152259-r5" x="0" y="288.4" textLength="12.2" clip-path="url(#terminal-1085152259-line-11)">│</text><text class="terminal-1085152259-r9" x="256.2" y="288.4" textLength="12.2" clip-path="url(#terminal-1085152259-line-11)">│</text><text class="terminal-1085152259-r9" x="829.6" y="288.4" textLength="12.2" clip-path="url(#terminal-1085152259-line-11)">│</text><text class="terminal-1085152259-r5" x="1085.8" y="288.4" textLength="12.2" clip-path="url(#terminal-1085152259-line-11)">│</text><text class="terminal-1085152259-r4" x="1098" y="288.4" textLength="12.2" clip-path="url(#terminal-1085152259-line-11)">
</text><text class="terminal-1085152259-r5" x="0" y="312.8" textLength="12.2" clip-path="url(#terminal-1085152259-line-12)">│</text><text class="terminal-1085152259-r9" x="256.2" y="312.8" textLength="12.2" clip-path="url(#terminal-1085152259-line-12)">│</text><text class="terminal-1085152259-r11" x="305" y="312.8" textLength="12.2" clip-path="url(#terminal-1085152259-line-12)">╭</text><text class="terminal-1085152259-r11" x="317.2" y="312.8" textLength="207.4" clip-path="url(#terminal-1085152259-line-12)">─────────────────</text><text class="terminal-1085152259-r11" x="524.6" y="312.8" textLength="12.2" clip-path="url(#terminal-1085152259-line-12)">╮</text><text class="terminal-1085152259-r9" x="549" y="312.8" textLength="12.2" clip-path="url(#terminal-1085152259-line-12)">╭</text><text class="terminal-1085152259-r9" x="561.2" y="312.8" textLength="219.6" clip-path="url(#terminal-1085152259-line-12)">──────────────────</text><text class="terminal-1085152259-r9" x="780.8" y="312.8" textLength="12.2" clip-path="url(#terminal-1085152259-line-12)">╮</text><text class="terminal-1085152259-r9" x="829.6" y="312.8" textLength="12.2" clip-path="url(#terminal-1085152259-line-12)">│</text><text class="terminal-1085152259-r5" x="1085.8" y="312.8" textLength="12.2" clip-path="url(#terminal-1085152259-line-12)">│</text><text class="terminal-1085152259-r4" x="1098" y="312.8" textLength="12.2" clip-path="url(#terminal-1085152259-line-12)">
</text><text class="terminal-1085152259-r5" x="0" y="337.2" textLength="12.2" clip-path="url(#terminal-1085152259-line-13)">│</text><text class="terminal-1085152259-r9" x="256.2" y="337.2" textLength="12.2" clip-path="url(#terminal-1085152259-line-13)">│</text><text class="terminal-1085152259-r11" x="305" y="337.2" textLength="12.2" clip-path="url(#terminal-1085152259-line-13)">│</text><g clip-path="url(#terminal-1085152259-line-13)"><path fill="#81878e" transform="translate(390.4 337.2) scale(0.0282081 -0.02)" d="M744 -68V25H268V179H730V273H151V-68ZM540 383 523 473C431 453 307 447 176 447V662H456V754H60V353H146C312 353 456 363 540 383ZM853 513V609H727V812H608V321H727V513Z"/><path fill="#81878e" transform="translate(414.8 337.2) scale(0.0282081 -0.02)" d="M767 -79V812H650V-79ZM493 719H77V622H367C351 445 218 259 23 170L95 82C367 230 486 450 493 719Z"/></g><text class="terminal-1085152259-r11" x="524.6" y="337.2" textLength="12.2" clip-path="url(#terminal-1085152259-line-13)">│</text><text class="terminal-1085152259-r9" x="549" y="337.2" textLength="12.2" clip-path="url(#terminal-1085152259-line-13)">│</text><g clip-path="url(#terminal-1085152259-line-13)"><path fill="#211505" transform="translate(646.6 337.2) scale(0.0282081 -0.02)" d="M773 812H656V-79H773ZM91 564H263C248 488 160 446 59 429L108 342C196 354 293 407 327 475C363 417 455 370 537 360L583 448C498 453 404 493 386 564H558V656H91ZM379 -53V219C466 224 556 231 623 241L614 330C535 321 444 314 319 309C220 306 127 304 23 304L40 209C106 209 176 210 261 213V-53ZM196 703H455V795H196Z"/><path fill="#211505" transform="translate(671 337.2) scale(0.0282081 -0.02)" d="M812 417C677 439 494 555 494 712V766H372V712C372 553 200 441 55 420L108 325C230 352 386 443 432 563C483 446 635 353 757 325ZM835 32V124H489V336H371V124H30V32Z"/></g><text class="terminal-1085152259-r9" x="780.8" y="337.2" textLength="12.2" clip-path="url(#terminal-1085152259-line-13)">│</text><text class="terminal-1085152259-r9" x="829.6" y="337.2" textLength="12.2" clip-path="url(#terminal-1085152259-line-13)">│</text><text class="terminal-1085152259-r5" x="1085.8" y="337.2" textLength="12.2" clip-path="url(#terminal-1085152259-line-13)">│</text><text class="terminal-1085152259-r4" x="1098" y="337.2" textLength="12.2" clip-path="url(#terminal-1085152259-line-13)">
</text><text class="terminal-1085152259-r5" x="0" y="361.6" textLength="12.2" clip-path="url(#terminal-1085152259-line-14)">│</text><text class="terminal-1085152259-r9" x="256.2" y="361.6" textLength="12.2" clip-path="url(#terminal-1085152259-line-14)">│</text><text class="terminal-1085152259-r11" x="305" y="361.6" textLength="12.2" clip-path="url(#terminal-1085152259-line-14)">╰</text><text class="terminal-1085152259-r11" x="317.2" y="361.6" textLength="207.4" clip-path="url(#terminal-1085152259-line-14)">─────────────────</text><text class="terminal-1085152259-r11" x="524.6" y="361.6" textLength="12.2" clip-path="url(#terminal-1085152259-line-14)">╯</text><text class="terminal-1085152259-r9" x="549" y="361.6" textLength="12.2" clip-path="url(#terminal-1085152259-line-14)">╰</text><text class="terminal-1085152259-r9" x="561.2" y="361.6" textLength="219.6" clip-path="url(#terminal-1085152259-line-14)">──────────────────</text><text class="terminal-1085152259-r9" x="780.8" y="361.6" textLength="12.2" clip-path="url(#terminal-1085152259-line-14)">╯</text><text class="terminal-1085152259-r9" x="829.6" y="361.6" textLength="12.2" clip-path="url(#terminal-1085152259-line-14)">│</text><text class="terminal-1085152259-r5" x="1085.8" y="361.6" textLength="12.2" clip-path="url(#terminal-1085152259-line-14)">│</text><text class="terminal-1085152259-r4" x="1098" y="361.6" textLength="12.2" clip-path="url(#terminal-1085152259-line-14)">
</text><text class="terminal-1085152259-r5" x="0" y="386" textLength="12.2" clip-path="url(#terminal-1085152259-line-15)">│</text><text class="terminal-1085152259-r9" x="256.2" y="386" textLength="12.2" clip-path="url(#terminal-1085152259-line-15)">│</text><text class="terminal-1085152259-r9" x="829.6" y="386" textLength="12.2" clip-path="url(#terminal-1085152259-line-15)">│</text><text class="terminal-1085152259-r5" x="1085.8" y="386" textLength="12.2" clip-path="url(#terminal-1085152259-line-15)">│</text><text class="terminal-1085152259-r4" x="1098" y="386" textLength="12.2" clip-path="url(#terminal-1085152259-line-15)">
</text><text class="terminal-1085152259-r5" x="0" y="410.4" textLength="12.2" clip-path="url(#terminal-1085152259-line-16)">│</text><text class="terminal-1085152259-r9" x="256.2" y="410.4" textLength="12.2" clip-path="url(#terminal-1085152259-line-16)">╰</text><text class="terminal-1085152259-r9" x="268.4" y="410.4" textLength="73.2" clip-path="url(#terminal-1085152259-line-16)">──────</text><text class="terminal-1085152259-r9" x="341.6" y="410.4" textLength="48.8" clip-path="url(#terminal-1085152259-line-16)">&#160;←→&#160;</text><g clip-path="url(#terminal-1085152259-line-16)"><path fill="#fea62b" transform="translate(390.4 410.4) scale(0.0282081 -0.02)" d="M757 -70V804H681V-70ZM67 430C67 244 149 120 292 120C437 120 518 244 518 429C518 614 437 738 292 738C149 738 67 614 67 430ZM446 429C446 286 385 186 292 186C200 186 139 286 139 429C139 573 200 672 292 672C385 672 446 573 446 429Z"/><path fill="#fea62b" transform="translate(414.8 410.4) scale(0.0282081 -0.02)" d="M733 83C733 182 624 235 432 235C241 235 133 178 133 83C133 -14 241 -70 432 -70C624 -70 733 -15 733 83ZM732 473V536H211V699H728V762H134V473H394V362H38V299H827V362H470V473ZM432 173C571 173 655 139 655 83C655 25 571 -7 432 -7C295 -7 211 25 211 83C211 139 295 173 432 173Z"/></g><text class="terminal-1085152259-r9" x="439.2" y="410.4" textLength="109.8" clip-path="url(#terminal-1085152259-line-16)">&#160;·&#160;Enter&#160;</text><g clip-path="url(#terminal-1085152259-line-16)"><path fill="#fea62b" transform="translate(549 410.4) scale(0.0282081 -0.02)" d="M586 264 579 323C528 315 433 307 341 303V358C435 366 508 403 508 474C508 555 415 591 304 591C193 591 102 554 102 473C102 402 172 367 264 358V299C175 295 86 293 23 293L35 230C96 230 216 235 315 241C418 246 523 257 586 264ZM844 450V514H712V804H635V223H712V450ZM139 177V114H635V-76H712V177ZM556 620V682H54V620ZM435 474C435 433 377 413 304 413C230 413 174 432 174 474C174 514 229 534 304 534C377 534 435 514 435 474ZM425 730V793H185V730Z"/><path fill="#fea62b" transform="translate(573.4 410.4) scale(0.0282081 -0.02)" d="M759 96C759 199 653 263 465 263C278 263 173 199 173 96C173 -6 278 -70 465 -70C653 -70 759 -6 759 96ZM61 667H260C260 651 260 630 259 620C255 496 144 385 34 343L75 282C169 323 274 428 298 510C334 431 428 349 519 313L564 374C457 406 345 501 338 620C337 630 337 650 337 667H534V731H61ZM465 199C602 199 681 162 681 96C681 31 602 -6 465 -6C331 -6 250 31 250 96C250 162 331 199 465 199ZM676 513V261H752V804H676V577H500V513Z"/></g><text class="terminal-1085152259-r9" x="597.8" y="410.4" textLength="158.6" clip-path="url(#terminal-1085152259-line-16)">&#160;·&#160;y/n&#160;·&#160;Esc&#160;</text><g clip-path="url(#terminal-1085152259-line-16)"><path fill="#fea62b" transform="translate(756.4 410.4) scale(0.0282081 -0.02)" d="M102 592H288C275 498 168 436 68 425L103 368C211 388 298 449 328 515C361 453 453 399 547 384L581 444C486 451 378 508 365 592H556V656H102ZM753 -70V804H677V-70ZM362 -38V260C458 264 563 271 628 279L619 339C550 332 439 324 326 320C229 316 133 314 29 314L41 248C120 250 202 251 286 255V-38ZM210 714H447V777H210Z"/><path fill="#fea62b" transform="translate(780.8 410.4) scale(0.0282081 -0.02)" d="M796 372C652 400 472 526 472 676V739H393V676C393 526 223 401 70 372L110 311C263 353 398 461 431 561C469 463 601 354 754 311ZM827 41V105H469V329H393V105H38V41Z"/></g><text class="terminal-1085152259-r9" x="805.2" y="410.4" textLength="12.2" clip-path="url(#terminal-1085152259-line-16)">&#160;</text><text class="terminal-1085152259-r9" x="817.4" y="410.4" textLength="12.2" clip-path="url(#terminal-1085152259-line-16)">─</text><text class="terminal-1085152259-r9" x="829.6" y="410.4" textLength="12.2" clip-path="url(#terminal-1085152259-line-16)">╯</text><text class="terminal-1085152259-r5" x="1085.8" y="410.4" textLength="12.2" clip-path="url(#terminal-1085152259-line-16)">│</text><text class="terminal-1085152259-r4" x="1098" y="410.4" textLength="12.2" clip-path="url(#terminal-1085152259-line-16)">
</text><text class="terminal-1085152259-r5" x="0" y="434.8" textLength="12.2" clip-path="url(#terminal-1085152259-line-17)">│</text><text class="terminal-1085152259-r5" x="1085.8" y="434.8" textLength="12.2" clip-path="url(#terminal-1085152259-line-17)">│</text><text class="terminal-1085152259-r4" x="1098" y="434.8" textLength="12.2" clip-path="url(#terminal-1085152259-line-17)">
</text><text class="terminal-1085152259-r5" x="0" y="459.2" textLength="12.2" clip-path="url(#terminal-1085152259-line-18)">│</text><text class="terminal-1085152259-r5" x="1085.8" y="459.2" textLength="12.2" clip-path="url(#terminal-1085152259-line-18)">│</text><text class="terminal-1085152259-r4" x="1098" y="459.2" textLength="12.2" clip-path="url(#terminal-1085152259-line-18)">
</text><text class="terminal-1085152259-r5" x="0" y="483.6" textLength="12.2" clip-path="url(#terminal-1085152259-line-19)">│</text><text class="terminal-1085152259-r5" x="1085.8" y="483.6" textLength="12.2" clip-path="url(#terminal-1085152259-line-19)">│</text><text class="terminal-1085152259-r4" x="1098" y="483.6" textLength="12.2" clip-path="url(#terminal-1085152259-line-19)">
</text><text class="terminal-1085152259-r5" x="0" y="508" textLength="12.2" clip-path="url(#terminal-1085152259-line-20)">│</text><text class="terminal-1085152259-r5" x="1085.8" y="508" textLength="12.2" clip-path="url(#terminal-1085152259-line-20)">│</text><text class="terminal-1085152259-r4" x="1098" y="508" textLength="12.2" clip-path="url(#terminal-1085152259-line-20)">
</text><text class="terminal-1085152259-r5" x="0" y="532.4" textLength="12.2" clip-path="url(#terminal-1085152259-line-21)">│</text><text class="terminal-1085152259-r5" x="1085.8" y="532.4" textLength="12.2" clip-path="url(#terminal-1085152259-line-21)">│</text><text class="terminal-1085152259-r4" x="1098" y="532.4" textLength="12.2" clip-path="url(#terminal-1085152259-line-21)">
</text><text class="terminal-1085152259-r5" x="0" y="556.8" textLength="12.2" clip-path="url(#terminal-1085152259-line-22)">│</text><text class="terminal-1085152259-r5" x="1085.8" y="556.8" textLength="12.2" clip-path="url(#terminal-1085152259-line-22)">│</text><text class="terminal-1085152259-r4" x="1098" y="556.8" textLength="12.2" clip-path="url(#terminal-1085152259-line-22)">
</text><text class="terminal-1085152259-r5" x="0" y="581.2" textLength="12.2" clip-path="url(#terminal-1085152259-line-23)">│</text><text class="terminal-1085152259-r5" x="1085.8" y="581.2" textLength="12.2" clip-path="url(#terminal-1085152259-line-23)">│</text><text class="terminal-1085152259-r4" x="1098" y="581.2" textLength="12.2" clip-path="url(#terminal-1085152259-line-23)">
</text><text class="terminal-1085152259-r5" x="0" y="605.6" textLength="1098" clip-path="url(#terminal-1085152259-line-24)">└────────────────────────────────────────────────────────────────────────────────────────┘</text><text class="terminal-1085152259-r4" x="1098" y="605.6" textLength="12.2" clip-path="url(#terminal-1085152259-line-24)">
</text><text class="terminal-1085152259-r14" x="707.6" y="630" textLength="170.8" clip-path="url(#terminal-1085152259-line-25)">ssh:playground</text><text class="terminal-1085152259-r1" x="890.6" y="630" textLength="61" clip-path="url(#terminal-1085152259-line-25)">17:39</text><text class="terminal-1085152259-r1" x="963.8" y="630" textLength="122" clip-path="url(#terminal-1085152259-line-25)">2026-06-20</text>
    </g>
    </g>
</svg>
