<svg class="rich-terminal" viewBox="0 0 1116 684.4" xmlns="http://www.w3.org/2000/svg">
    <!-- Generated with Rich https://www.textualize.io -->
    <style>

    @font-face {
        font-family: "Fira Code";
        src: local("FiraCode-Regular"),
                url("https://cdnjs.cloudflare.com/ajax/libs/firacode/6.2.0/woff2/FiraCode-Regular.woff2") format("woff2"),
                url("https://cdnjs.cloudflare.com/ajax/libs/firacode/6.2.0/woff/FiraCode-Regular.woff") format("woff");
        font-style: normal;
        font-weight: 400;
    }
    @font-face {
        font-family: "Fira Code";
        src: local("FiraCode-Bold"),
                url("https://cdnjs.cloudflare.com/ajax/libs/firacode/6.2.0/woff2/FiraCode-Bold.woff2") format("woff2"),
                url("https://cdnjs.cloudflare.com/ajax/libs/firacode/6.2.0/woff/FiraCode-Bold.woff") format("woff");
        font-style: bold;
        font-weight: 700;
    }

    .terminal-2710773658-matrix {
        font-family: Fira Code, monospace;
        font-size: 20px;
        line-height: 24.4px;
        font-variant-east-asian: full-width;
    }

    .terminal-2710773658-title {
        font-size: 18px;
        font-weight: bold;
        font-family: arial;
    }

    .terminal-2710773658-r1 { fill: #3b3b3b }
.terminal-2710773658-r2 { fill: #353532;font-weight: bold }
.terminal-2710773658-r3 { fill: #131313;font-weight: bold }
.terminal-2710773658-r4 { fill: #c5c8c6 }
.terminal-2710773658-r5 { fill: #0e1921 }
.terminal-2710773658-r6 { fill: #1f1f1f }
.terminal-2710773658-r7 { fill: #1a1a1a }
.terminal-2710773658-r8 { fill: #0e0e0e }
.terminal-2710773658-r9 { fill: #fea62b }
.terminal-2710773658-r10 { fill: #e0e0e0 }
.terminal-2710773658-r11 { fill: #f5e5e9;font-weight: bold }
.terminal-2710773658-r12 { fill: #ffffff;font-weight: bold }
.terminal-2710773658-r13 { fill: #a0a3a6 }
.terminal-2710773658-r14 { fill: #ddedf9;font-weight: bold }
.terminal-2710773658-r15 { fill: #dddfe0;font-weight: bold }
.terminal-2710773658-r16 { fill: #a7abaf }
.terminal-2710773658-r17 { fill: #331a20;font-weight: bold }
    </style>

    <defs>
    <clipPath id="terminal-2710773658-clip-terminal">
      <rect x="0" y="0" width="1097.0" height="633.4" />
    </clipPath>
    <clipPath id="terminal-2710773658-line-0">
    <rect x="0" y="1.5" width="1098" height="24.65"/>
            </clipPath>
<clipPath id="terminal-2710773658-line-1">
    <rect x="0" y="25.9" width="1098" height="24.65"/>
            </clipPath>
<clipPath id="terminal-2710773658-line-2">
    <rect x="0" y="50.3" width="1098" height="24.65"/>
            </clipPath>
<clipPath id="terminal-2710773658-line-3">
    <rect x="0" y="74.7" width="1098" height="24.65"/>
            </clipPath>
<clipPath id="terminal-2710773658-line-4">
    <rect x="0" y="99.1" width="1098" height="24.65"/>
            </clipPath>
<clipPath id="terminal-2710773658-line-5">
    <rect x="0" y="123.5" width="1098" height="24.65"/>
            </clipPath>
<clipPath id="terminal-2710773658-line-6">
    <rect x="0" y="147.9" width="1098" height="24.65"/>
            </clipPath>
<clipPath id="terminal-2710773658-line-7">
    <rect x="0" y="172.3" width="1098" height="24.65"/>
            </clipPath>
<clipPath id="terminal-2710773658-line-8">
    <rect x="0" y="196.7" width="1098" height="24.65"/>
            </clipPath>
<clipPath id="terminal-2710773658-line-9">
    <rect x="0" y="221.1" width="1098" height="24.65"/>
            </clipPath>
<clipPath id="terminal-2710773658-line-10">
    <rect x="0" y="245.5" width="1098" height="24.65"/>
            </clipPath>
<clipPath id="terminal-2710773658-line-11">
    <rect x="0" y="269.9" width="1098" height="24.65"/>
            </clipPath>
<clipPath id="terminal-2710773658-line-12">
    <rect x="0" y="294.3" width="1098" height="24.65"/>
            </clipPath>
<clipPath id="terminal-2710773658-line-13">
    <rect x="0" y="318.7" width="1098" height="24.65"/>
            </clipPath>
<clipPath id="terminal-2710773658-line-14">
    <rect x="0" y="343.1" width="1098" height="24.65"/>
            </clipPath>
<clipPath id="terminal-2710773658-line-15">
    <rect x="0" y="367.5" width="1098" height="24.65"/>
            </clipPath>
<clipPath id="terminal-2710773658-line-16">
    <rect x="0" y="391.9" width="1098" height="24.65"/>
            </clipPath>
<clipPath id="terminal-2710773658-line-17">
    <rect x="0" y="416.3" width="1098" height="24.65"/>
            </clipPath>
<clipPath id="terminal-2710773658-line-18">
    <rect x="0" y="440.7" width="1098" height="24.65"/>
            </clipPath>
<clipPath id="terminal-2710773658-line-19">
    <rect x="0" y="465.1" width="1098" height="24.65"/>
            </clipPath>
<clipPath id="terminal-2710773658-line-20">
    <rect x="0" y="489.5" width="1098" height="24.65"/>
            </clipPath>
<clipPath id="terminal-2710773658-line-21">
    <rect x="0" y="513.9" width="1098" height="24.65"/>
            </clipPath>
<clipPath id="terminal-2710773658-line-22">
    <rect x="0" y="538.3" width="1098" height="24.65"/>
            </clipPath>
<clipPath id="terminal-2710773658-line-23">
    <rect x="0" y="562.7" width="1098" height="24.65"/>
            </clipPath>
<clipPath id="terminal-2710773658-line-24">
    <rect x="0" y="587.1" width="1098" height="24.65"/>
            </clipPath>
    </defs>

    <rect fill="#292929" stroke="rgba(255,255,255,0.35)" stroke-width="1" x="1" y="1" width="1114" height="682.4" rx="8"/><text class="terminal-2710773658-title" fill="#c5c8c6" text-anchor="middle" x="557" y="27">PytmuxApp</text>
            <g transform="translate(26,22)">
            <circle cx="0" cy="0" r="7" fill="#ff5f57"/>
            <circle cx="22" cy="0" r="7" fill="#febc2e"/>
            <circle cx="44" cy="0" r="7" fill="#28c840"/>
            </g>
        
    <g transform="translate(9, 41)" clip-path="url(#terminal-2710773658-clip-terminal)">
    <rect fill="#121212" x="0" y="1.5" width="12.2" height="24.65" shape-rendering="crispEdges"/><rect fill="#0e2638" x="12.2" y="1.5" width="85.4" height="24.65" shape-rendering="crispEdges"/><rect fill="#121212" x="97.6" y="1.5" width="24.4" height="24.65" shape-rendering="crispEdges"/><rect fill="#1e3425" x="122" y="1.5" width="36.6" height="24.65" shape-rendering="crispEdges"/><rect fill="#121212" x="158.6" y="1.5" width="939.4" height="24.65" shape-rendering="crispEdges"/><rect fill="#121212" x="0" y="25.9" width="12.2" height="24.65" shape-rendering="crispEdges"/><rect fill="#121212" x="12.2" y="25.9" width="85.4" height="24.65" shape-rendering="crispEdges"/><rect fill="#121212" x="97.6" y="25.9" width="951.6" height="24.65" shape-rendering="crispEdges"/><rect fill="#1f1316" x="1049.2" y="25.9" width="36.6" height="24.65" shape-rendering="crispEdges"/><rect fill="#121212" x="1085.8" y="25.9" width="12.2" height="24.65" shape-rendering="crispEdges"/><rect fill="#121212" x="0" y="50.3" width="12.2" height="24.65" shape-rendering="crispEdges"/><rect fill="#121212" x="12.2" y="50.3" width="353.8" height="24.65" shape-rendering="crispEdges"/><rect fill="#121212" x="366" y="50.3" width="12.2" height="24.65" shape-rendering="crispEdges"/><rect fill="#121212" x="378.2" y="50.3" width="671" height="24.65" shape-rendering="crispEdges"/><rect fill="#0e1921" x="1049.2" y="50.3" width="48.8" height="24.65" shape-rendering="crispEdges"/><rect fill="#121212" x="0" y="74.7" width="12.2" height="24.65" shape-rendering="crispEdges"/><rect fill="#121212" x="12.2" y="74.7" width="1073.6" height="24.65" shape-rendering="crispEdges"/><rect fill="#121212" x="1085.8" y="74.7" width="12.2" height="24.65" shape-rendering="crispEdges"/><rect fill="#121212" x="0" y="99.1" width="12.2" height="24.65" shape-rendering="crispEdges"/><rect fill="#121212" x="12.2" y="99.1" width="1073.6" height="24.65" shape-rendering="crispEdges"/><rect fill="#121212" x="1085.8" y="99.1" width="12.2" height="24.65" shape-rendering="crispEdges"/><rect fill="#121212" x="0" y="123.5" width="12.2" height="24.65" shape-rendering="crispEdges"/><rect fill="#121212" x="12.2" y="123.5" width="1073.6" height="24.65" shape-rendering="crispEdges"/><rect fill="#121212" x="1085.8" y="123.5" width="12.2" height="24.65" shape-rendering="crispEdges"/><rect fill="#121212" x="0" y="147.9" width="12.2" height="24.65" shape-rendering="crispEdges"/><rect fill="#121212" x="12.2" y="147.9" width="36.6" height="24.65" shape-rendering="crispEdges"/><rect fill="#242f38" x="48.8" y="147.9" width="12.2" height="24.65" shape-rendering="crispEdges"/><rect fill="#242f38" x="61" y="147.9" width="976" height="24.65" shape-rendering="crispEdges"/><rect fill="#242f38" x="1037" y="147.9" width="12.2" height="24.65" shape-rendering="crispEdges"/><rect fill="#121212" x="1049.2" y="147.9" width="36.6" height="24.65" shape-rendering="crispEdges"/><rect fill="#121212" x="1085.8" y="147.9" width="12.2" height="24.65" shape-rendering="crispEdges"/><rect fill="#121212" x="0" y="172.3" width="12.2" height="24.65" shape-rendering="crispEdges"/><rect fill="#121212" x="12.2" y="172.3" width="36.6" height="24.65" shape-rendering="crispEdges"/><rect fill="#242f38" x="48.8" y="172.3" width="12.2" height="24.65" shape-rendering="crispEdges"/><rect fill="#242f38" x="61" y="172.3" width="12.2" height="24.65" shape-rendering="crispEdges"/><rect fill="#242f38" x="73.2" y="172.3" width="0" height="24.65" shape-rendering="crispEdges"/><rect fill="#242f38" x="73.2" y="172.3" width="134.2" height="24.65" shape-rendering="crispEdges"/><rect fill="#242f38" x="207.4" y="172.3" width="0" height="24.65" shape-rendering="crispEdges"/><rect fill="#242f38" x="207.4" y="172.3" width="73.2" height="24.65" shape-rendering="crispEdges"/><rect fill="#242f38" x="280.6" y="172.3" width="0" height="24.65" shape-rendering="crispEdges"/><rect fill="#242f38" x="280.6" y="172.3" width="73.2" height="24.65" shape-rendering="crispEdges"/><rect fill="#242f38" x="353.8" y="172.3" width="0" height="24.65" shape-rendering="crispEdges"/><rect fill="#242f38" x="353.8" y="172.3" width="610" height="24.65" shape-rendering="crispEdges"/><rect fill="#b93c5b" x="963.8" y="172.3" width="12.2" height="24.65" shape-rendering="crispEdges"/><rect fill="#b93c5b" x="976" y="172.3" width="36.6" height="24.65" shape-rendering="crispEdges"/><rect fill="#b93c5b" x="1012.6" y="172.3" width="12.2" height="24.65" shape-rendering="crispEdges"/><rect fill="#242f38" x="1024.8" y="172.3" width="12.2" height="24.65" shape-rendering="crispEdges"/><rect fill="#242f38" x="1037" y="172.3" width="12.2" height="24.65" shape-rendering="crispEdges"/><rect fill="#121212" x="1049.2" y="172.3" width="36.6" height="24.65" shape-rendering="crispEdges"/><rect fill="#121212" x="1085.8" y="172.3" width="12.2" height="24.65" shape-rendering="crispEdges"/><rect fill="#121212" x="0" y="196.7" width="12.2" height="24.65" shape-rendering="crispEdges"/><rect fill="#121212" x="12.2" y="196.7" width="36.6" height="24.65" shape-rendering="crispEdges"/><rect fill="#242f38" x="48.8" y="196.7" width="12.2" height="24.65" shape-rendering="crispEdges"/><rect fill="#242f38" x="61" y="196.7" width="12.2" height="24.65" shape-rendering="crispEdges"/><rect fill="#fea62b" x="73.2" y="196.7" width="134.2" height="24.65" shape-rendering="crispEdges"/><rect fill="#242f38" x="207.4" y="196.7" width="73.2" height="24.65" shape-rendering="crispEdges"/><rect fill="#242f38" x="280.6" y="196.7" width="73.2" height="24.65" shape-rendering="crispEdges"/><rect fill="#242f38" x="353.8" y="196.7" width="610" height="24.65" shape-rendering="crispEdges"/><rect fill="#242f38" x="963.8" y="196.7" width="61" height="24.65" shape-rendering="crispEdges"/><rect fill="#242f38" x="1024.8" y="196.7" width="12.2" height="24.65" shape-rendering="crispEdges"/><rect fill="#242f38" x="1037" y="196.7" width="12.2" height="24.65" shape-rendering="crispEdges"/><rect fill="#121212" x="1049.2" y="196.7" width="36.6" height="24.65" shape-rendering="crispEdges"/><rect fill="#121212" x="1085.8" y="196.7" width="12.2" height="24.65" shape-rendering="crispEdges"/><rect fill="#121212" x="0" y="221.1" width="12.2" height="24.65" shape-rendering="crispEdges"/><rect fill="#121212" x="12.2" y="221.1" width="36.6" height="24.65" shape-rendering="crispEdges"/><rect fill="#242f38" x="48.8" y="221.1" width="12.2" height="24.65" shape-rendering="crispEdges"/><rect fill="#242f38" x="61" y="221.1" width="12.2" height="24.65" shape-rendering="crispEdges"/><rect fill="#242f38" x="1024.8" y="221.1" width="12.2" height="24.65" shape-rendering="crispEdges"/><rect fill="#242f38" x="1037" y="221.1" width="12.2" height="24.65" shape-rendering="crispEdges"/><rect fill="#121212" x="1049.2" y="221.1" width="36.6" height="24.65" shape-rendering="crispEdges"/><rect fill="#121212" x="1085.8" y="221.1" width="12.2" height="24.65" shape-rendering="crispEdges"/><rect fill="#121212" x="0" y="245.5" width="12.2" height="24.65" shape-rendering="crispEdges"/><rect fill="#121212" x="12.2" y="245.5" width="36.6" height="24.65" shape-rendering="crispEdges"/><rect fill="#242f38" x="48.8" y="245.5" width="12.2" height="24.65" shape-rendering="crispEdges"/><rect fill="#242f38" x="61" y="245.5" width="12.2" height="24.65" shape-rendering="crispEdges"/><rect fill="#0178d4" x="73.2" y="245.5" width="109.8" height="24.65" shape-rendering="crispEdges"/><rect fill="#0178d4" x="183" y="245.5" width="841.8" height="24.65" shape-rendering="crispEdges"/><rect fill="#242f38" x="1024.8" y="245.5" width="12.2" height="24.65" shape-rendering="crispEdges"/><rect fill="#242f38" x="1037" y="245.5" width="12.2" height="24.65" shape-rendering="crispEdges"/><rect fill="#121212" x="1049.2" y="245.5" width="36.6" height="24.65" shape-rendering="crispEdges"/><rect fill="#121212" x="1085.8" y="245.5" width="12.2" height="24.65" shape-rendering="crispEdges"/><rect fill="#121212" x="0" y="269.9" width="12.2" height="24.65" shape-rendering="crispEdges"/><rect fill="#121212" x="12.2" y="269.9" width="36.6" height="24.65" shape-rendering="crispEdges"/><rect fill="#242f38" x="48.8" y="269.9" width="12.2" height="24.65" shape-rendering="crispEdges"/><rect fill="#242f38" x="61" y="269.9" width="12.2" height="24.65" shape-rendering="crispEdges"/><rect fill="#272727" x="73.2" y="269.9" width="463.6" height="24.65" shape-rendering="crispEdges"/><rect fill="#272727" x="536.8" y="269.9" width="488" height="24.65" shape-rendering="crispEdges"/><rect fill="#242f38" x="1024.8" y="269.9" width="12.2" height="24.65" shape-rendering="crispEdges"/><rect fill="#242f38" x="1037" y="269.9" width="12.2" height="24.65" shape-rendering="crispEdges"/><rect fill="#121212" x="1049.2" y="269.9" width="36.6" height="24.65" shape-rendering="crispEdges"/><rect fill="#121212" x="1085.8" y="269.9" width="12.2" height="24.65" shape-rendering="crispEdges"/><rect fill="#121212" x="0" y="294.3" width="12.2" height="24.65" shape-rendering="crispEdges"/><rect fill="#121212" x="12.2" y="294.3" width="36.6" height="24.65" shape-rendering="crispEdges"/><rect fill="#242f38" x="48.8" y="294.3" width="12.2" height="24.65" shape-rendering="crispEdges"/><rect fill="#242f38" x="61" y="294.3" width="12.2" height="24.65" shape-rendering="crispEdges"/><rect fill="#272727" x="73.2" y="294.3" width="353.8" height="24.65" shape-rendering="crispEdges"/><rect fill="#272727" x="427" y="294.3" width="597.8" height="24.65" shape-rendering="crispEdges"/><rect fill="#242f38" x="1024.8" y="294.3" width="12.2" height="24.65" shape-rendering="crispEdges"/><rect fill="#242f38" x="1037" y="294.3" width="12.2" height="24.65" shape-rendering="crispEdges"/><rect fill="#121212" x="1049.2" y="294.3" width="36.6" height="24.65" shape-rendering="crispEdges"/><rect fill="#121212" x="1085.8" y="294.3" width="12.2" height="24.65" shape-rendering="crispEdges"/><rect fill="#121212" x="0" y="318.7" width="12.2" height="24.65" shape-rendering="crispEdges"/><rect fill="#121212" x="12.2" y="318.7" width="36.6" height="24.65" shape-rendering="crispEdges"/><rect fill="#242f38" x="48.8" y="318.7" width="12.2" height="24.65" shape-rendering="crispEdges"/><rect fill="#242f38" x="61" y="318.7" width="12.2" height="24.65" shape-rendering="crispEdges"/><rect fill="#242f38" x="73.2" y="318.7" width="951.6" height="24.65" shape-rendering="crispEdges"/><rect fill="#242f38" x="1024.8" y="318.7" width="12.2" height="24.65" shape-rendering="crispEdges"/><rect fill="#242f38" x="1037" y="318.7" width="12.2" height="24.65" shape-rendering="crispEdges"/><rect fill="#121212" x="1049.2" y="318.7" width="36.6" height="24.65" shape-rendering="crispEdges"/><rect fill="#121212" x="1085.8" y="318.7" width="12.2" height="24.65" shape-rendering="crispEdges"/><rect fill="#121212" x="0" y="343.1" width="12.2" height="24.65" shape-rendering="crispEdges"/><rect fill="#121212" x="12.2" y="343.1" width="36.6" height="24.65" shape-rendering="crispEdges"/><rect fill="#242f38" x="48.8" y="343.1" width="12.2" height="24.65" shape-rendering="crispEdges"/><rect fill="#242f38" x="61" y="343.1" width="12.2" height="24.65" shape-rendering="crispEdges"/><rect fill="#000f18" x="73.2" y="343.1" width="451.4" height="24.65" shape-rendering="crispEdges"/><rect fill="#000f18" x="524.6" y="343.1" width="48.8" height="24.65" shape-rendering="crispEdges"/><rect fill="#000f18" x="573.4" y="343.1" width="451.4" height="24.65" shape-rendering="crispEdges"/><rect fill="#242f38" x="1024.8" y="343.1" width="12.2" height="24.65" shape-rendering="crispEdges"/><rect fill="#242f38" x="1037" y="343.1" width="12.2" height="24.65" shape-rendering="crispEdges"/><rect fill="#121212" x="1049.2" y="343.1" width="36.6" height="24.65" shape-rendering="crispEdges"/><rect fill="#121212" x="1085.8" y="343.1" width="12.2" height="24.65" shape-rendering="crispEdges"/><rect fill="#121212" x="0" y="367.5" width="12.2" height="24.65" shape-rendering="crispEdges"/><rect fill="#121212" x="12.2" y="367.5" width="36.6" height="24.65" shape-rendering="crispEdges"/><rect fill="#242f38" x="48.8" y="367.5" width="12.2" height="24.65" shape-rendering="crispEdges"/><rect fill="#242f38" x="61" y="367.5" width="12.2" height="24.65" shape-rendering="crispEdges"/><rect fill="#242f38" x="73.2" y="367.5" width="488" height="24.65" shape-rendering="crispEdges"/><rect fill="#242f38" x="561.2" y="367.5" width="463.6" height="24.65" shape-rendering="crispEdges"/><rect fill="#242f38" x="1024.8" y="367.5" width="12.2" height="24.65" shape-rendering="crispEdges"/><rect fill="#242f38" x="1037" y="367.5" width="12.2" height="24.65" shape-rendering="crispEdges"/><rect fill="#121212" x="1049.2" y="367.5" width="36.6" height="24.65" shape-rendering="crispEdges"/><rect fill="#121212" x="1085.8" y="367.5" width="12.2" height="24.65" shape-rendering="crispEdges"/><rect fill="#121212" x="0" y="391.9" width="12.2" height="24.65" shape-rendering="crispEdges"/><rect fill="#121212" x="12.2" y="391.9" width="36.6" height="24.65" shape-rendering="crispEdges"/><rect fill="#242f38" x="48.8" y="391.9" width="12.2" height="24.65" shape-rendering="crispEdges"/><rect fill="#242f38" x="61" y="391.9" width="12.2" height="24.65" shape-rendering="crispEdges"/><rect fill="#242f38" x="73.2" y="391.9" width="951.6" height="24.65" shape-rendering="crispEdges"/><rect fill="#242f38" x="1024.8" y="391.9" width="12.2" height="24.65" shape-rendering="crispEdges"/><rect fill="#242f38" x="1037" y="391.9" width="12.2" height="24.65" shape-rendering="crispEdges"/><rect fill="#121212" x="1049.2" y="391.9" width="36.6" height="24.65" shape-rendering="crispEdges"/><rect fill="#121212" x="1085.8" y="391.9" width="12.2" height="24.65" shape-rendering="crispEdges"/><rect fill="#121212" x="0" y="416.3" width="12.2" height="24.65" shape-rendering="crispEdges"/><rect fill="#121212" x="12.2" y="416.3" width="36.6" height="24.65" shape-rendering="crispEdges"/><rect fill="#242f38" x="48.8" y="416.3" width="12.2" height="24.65" shape-rendering="crispEdges"/><rect fill="#242f38" x="61" y="416.3" width="12.2" height="24.65" shape-rendering="crispEdges"/><rect fill="#242f38" x="73.2" y="416.3" width="951.6" height="24.65" shape-rendering="crispEdges"/><rect fill="#242f38" x="1024.8" y="416.3" width="12.2" height="24.65" shape-rendering="crispEdges"/><rect fill="#242f38" x="1037" y="416.3" width="12.2" height="24.65" shape-rendering="crispEdges"/><rect fill="#121212" x="1049.2" y="416.3" width="36.6" height="24.65" shape-rendering="crispEdges"/><rect fill="#121212" x="1085.8" y="416.3" width="12.2" height="24.65" shape-rendering="crispEdges"/><rect fill="#121212" x="0" y="440.7" width="12.2" height="24.65" shape-rendering="crispEdges"/><rect fill="#121212" x="12.2" y="440.7" width="36.6" height="24.65" shape-rendering="crispEdges"/><rect fill="#242f38" x="48.8" y="440.7" width="12.2" height="24.65" shape-rendering="crispEdges"/><rect fill="#242f38" x="61" y="440.7" width="12.2" height="24.65" shape-rendering="crispEdges"/><rect fill="#242f38" x="73.2" y="440.7" width="951.6" height="24.65" shape-rendering="crispEdges"/><rect fill="#242f38" x="1024.8" y="440.7" width="12.2" height="24.65" shape-rendering="crispEdges"/><rect fill="#242f38" x="1037" y="440.7" width="12.2" height="24.65" shape-rendering="crispEdges"/><rect fill="#121212" x="1049.2" y="440.7" width="36.6" height="24.65" shape-rendering="crispEdges"/><rect fill="#121212" x="1085.8" y="440.7" width="12.2" height="24.65" shape-rendering="crispEdges"/><rect fill="#121212" x="0" y="465.1" width="12.2" height="24.65" shape-rendering="crispEdges"/><rect fill="#121212" x="12.2" y="465.1" width="36.6" height="24.65" shape-rendering="crispEdges"/><rect fill="#242f38" x="48.8" y="465.1" width="12.2" height="24.65" shape-rendering="crispEdges"/><rect fill="#242f38" x="61" y="465.1" width="976" height="24.65" shape-rendering="crispEdges"/><rect fill="#242f38" x="1037" y="465.1" width="12.2" height="24.65" shape-rendering="crispEdges"/><rect fill="#121212" x="1049.2" y="465.1" width="36.6" height="24.65" shape-rendering="crispEdges"/><rect fill="#121212" x="1085.8" y="465.1" width="12.2" height="24.65" shape-rendering="crispEdges"/><rect fill="#121212" x="0" y="489.5" width="12.2" height="24.65" shape-rendering="crispEdges"/><rect fill="#121212" x="12.2" y="489.5" width="1073.6" height="24.65" shape-rendering="crispEdges"/><rect fill="#121212" x="1085.8" y="489.5" width="12.2" height="24.65" shape-rendering="crispEdges"/><rect fill="#121212" x="0" y="513.9" width="12.2" height="24.65" shape-rendering="crispEdges"/><rect fill="#121212" x="12.2" y="513.9" width="1073.6" height="24.65" shape-rendering="crispEdges"/><rect fill="#121212" x="1085.8" y="513.9" width="12.2" height="24.65" shape-rendering="crispEdges"/><rect fill="#121212" x="0" y="538.3" width="12.2" height="24.65" shape-rendering="crispEdges"/><rect fill="#121212" x="12.2" y="538.3" width="1073.6" height="24.65" shape-rendering="crispEdges"/><rect fill="#121212" x="1085.8" y="538.3" width="12.2" height="24.65" shape-rendering="crispEdges"/><rect fill="#121212" x="0" y="562.7" width="12.2" height="24.65" shape-rendering="crispEdges"/><rect fill="#121212" x="12.2" y="562.7" width="1073.6" height="24.65" shape-rendering="crispEdges"/><rect fill="#121212" x="1085.8" y="562.7" width="12.2" height="24.65" shape-rendering="crispEdges"/><rect fill="#121212" x="0" y="587.1" width="1098" height="24.65" shape-rendering="crispEdges"/><rect fill="#121212" x="0" y="611.5" width="12.2" height="24.65" shape-rendering="crispEdges"/><rect fill="#121212" x="12.2" y="611.5" width="683.2" height="24.65" shape-rendering="crispEdges"/><rect fill="#121212" x="695.4" y="611.5" width="12.2" height="24.65" shape-rendering="crispEdges"/><rect fill="#121212" x="707.6" y="611.5" width="170.8" height="24.65" shape-rendering="crispEdges"/><rect fill="#121212" x="878.4" y="611.5" width="12.2" height="24.65" shape-rendering="crispEdges"/><rect fill="#121212" x="890.6" y="611.5" width="61" height="24.65" shape-rendering="crispEdges"/><rect fill="#121212" x="951.6" y="611.5" width="12.2" height="24.65" shape-rendering="crispEdges"/><rect fill="#121212" x="963.8" y="611.5" width="122" height="24.65" shape-rendering="crispEdges"/><rect fill="#121212" x="1085.8" y="611.5" width="12.2" height="24.65" shape-rendering="crispEdges"/>
    <g class="terminal-2710773658-matrix">
    <text class="terminal-2710773658-r2" x="12.2" y="20" textLength="85.4" clip-path="url(#terminal-2710773658-line-0)">&#160;1:win&#160;</text><text class="terminal-2710773658-r3" x="122" y="20" textLength="36.6" clip-path="url(#terminal-2710773658-line-0)">[+]</text><text class="terminal-2710773658-r4" x="1098" y="20" textLength="12.2" clip-path="url(#terminal-2710773658-line-0)">
</text><text class="terminal-2710773658-r5" x="0" y="44.4" textLength="12.2" clip-path="url(#terminal-2710773658-line-1)">┌</text><text class="terminal-2710773658-r5" x="12.2" y="44.4" textLength="85.4" clip-path="url(#terminal-2710773658-line-1)">▀▀▀▀▀▀▀</text><text class="terminal-2710773658-r5" x="97.6" y="44.4" textLength="951.6" clip-path="url(#terminal-2710773658-line-1)">──────────────────────────────────────────────────────────────────────────────</text><text class="terminal-2710773658-r6" x="1049.2" y="44.4" textLength="36.6" clip-path="url(#terminal-2710773658-line-1)">[x]</text><text class="terminal-2710773658-r5" x="1085.8" y="44.4" textLength="12.2" clip-path="url(#terminal-2710773658-line-1)">┐</text><text class="terminal-2710773658-r4" x="1098" y="44.4" textLength="12.2" clip-path="url(#terminal-2710773658-line-1)">
</text><text class="terminal-2710773658-r5" x="0" y="68.8" textLength="12.2" clip-path="url(#terminal-2710773658-line-2)">│</text><text class="terminal-2710773658-r7" x="12.2" y="68.8" textLength="353.8" clip-path="url(#terminal-2710773658-line-2)">neoocean@playground&#160;pytmux&#160;%&#160;</text><text class="terminal-2710773658-r8" x="1049.2" y="68.8" textLength="48.8" clip-path="url(#terminal-2710773658-line-2)">[EN]</text><text class="terminal-2710773658-r4" x="1098" y="68.8" textLength="12.2" clip-path="url(#terminal-2710773658-line-2)">
</text><text class="terminal-2710773658-r5" x="0" y="93.2" textLength="12.2" clip-path="url(#terminal-2710773658-line-3)">│</text><text class="terminal-2710773658-r5" x="1085.8" y="93.2" textLength="12.2" clip-path="url(#terminal-2710773658-line-3)">│</text><text class="terminal-2710773658-r4" x="1098" y="93.2" textLength="12.2" clip-path="url(#terminal-2710773658-line-3)">
</text><text class="terminal-2710773658-r5" x="0" y="117.6" textLength="12.2" clip-path="url(#terminal-2710773658-line-4)">│</text><text class="terminal-2710773658-r5" x="1085.8" y="117.6" textLength="12.2" clip-path="url(#terminal-2710773658-line-4)">│</text><text class="terminal-2710773658-r4" x="1098" y="117.6" textLength="12.2" clip-path="url(#terminal-2710773658-line-4)">
</text><text class="terminal-2710773658-r5" x="0" y="142" textLength="12.2" clip-path="url(#terminal-2710773658-line-5)">│</text><text class="terminal-2710773658-r5" x="1085.8" y="142" textLength="12.2" clip-path="url(#terminal-2710773658-line-5)">│</text><text class="terminal-2710773658-r4" x="1098" y="142" textLength="12.2" clip-path="url(#terminal-2710773658-line-5)">
</text><text class="terminal-2710773658-r5" x="0" y="166.4" textLength="12.2" clip-path="url(#terminal-2710773658-line-6)">│</text><text class="terminal-2710773658-r9" x="48.8" y="166.4" textLength="12.2" clip-path="url(#terminal-2710773658-line-6)">╭</text><text class="terminal-2710773658-r9" x="61" y="166.4" textLength="976" clip-path="url(#terminal-2710773658-line-6)">────────────────────────────────────────────────────────────────────────────────</text><text class="terminal-2710773658-r9" x="1037" y="166.4" textLength="12.2" clip-path="url(#terminal-2710773658-line-6)">╮</text><text class="terminal-2710773658-r5" x="1085.8" y="166.4" textLength="12.2" clip-path="url(#terminal-2710773658-line-6)">│</text><text class="terminal-2710773658-r4" x="1098" y="166.4" textLength="12.2" clip-path="url(#terminal-2710773658-line-6)">
</text><text class="terminal-2710773658-r5" x="0" y="190.8" textLength="12.2" clip-path="url(#terminal-2710773658-line-7)">│</text><text class="terminal-2710773658-r9" x="48.8" y="190.8" textLength="12.2" clip-path="url(#terminal-2710773658-line-7)">│</text><text class="terminal-2710773658-r11" x="976" y="190.8" textLength="36.6" clip-path="url(#terminal-2710773658-line-7)">[x]</text><text class="terminal-2710773658-r9" x="1037" y="190.8" textLength="12.2" clip-path="url(#terminal-2710773658-line-7)">│</text><text class="terminal-2710773658-r5" x="1085.8" y="190.8" textLength="12.2" clip-path="url(#terminal-2710773658-line-7)">│</text><text class="terminal-2710773658-r4" x="1098" y="190.8" textLength="12.2" clip-path="url(#terminal-2710773658-line-7)">
</text><text class="terminal-2710773658-r5" x="0" y="215.2" textLength="12.2" clip-path="url(#terminal-2710773658-line-8)">│</text><text class="terminal-2710773658-r9" x="48.8" y="215.2" textLength="12.2" clip-path="url(#terminal-2710773658-line-8)">│</text><text class="terminal-2710773658-r12" x="73.2" y="215.2" textLength="12.2" clip-path="url(#terminal-2710773658-line-8)">&#160;</text><text class="terminal-2710773658-r12" x="85.4" y="215.2" textLength="48.8" clip-path="url(#terminal-2710773658-line-8)" lengthAdjust="spacingAndGlyphs">캡처</text><text class="terminal-2710773658-r12" x="134.2" y="215.2" textLength="73.2" clip-path="url(#terminal-2710773658-line-8)">(REC)&#160;</text><text class="terminal-2710773658-r13" x="207.4" y="215.2" textLength="12.2" clip-path="url(#terminal-2710773658-line-8)">&#160;</text><text class="terminal-2710773658-r13" x="219.6" y="215.2" textLength="48.8" clip-path="url(#terminal-2710773658-line-8)" lengthAdjust="spacingAndGlyphs">토큰</text><text class="terminal-2710773658-r13" x="268.4" y="215.2" textLength="12.2" clip-path="url(#terminal-2710773658-line-8)">&#160;</text><text class="terminal-2710773658-r13" x="280.6" y="215.2" textLength="12.2" clip-path="url(#terminal-2710773658-line-8)">&#160;</text><text class="terminal-2710773658-r13" x="292.8" y="215.2" textLength="48.8" clip-path="url(#terminal-2710773658-line-8)" lengthAdjust="spacingAndGlyphs">서버</text><text class="terminal-2710773658-r13" x="341.6" y="215.2" textLength="12.2" clip-path="url(#terminal-2710773658-line-8)">&#160;</text><text class="terminal-2710773658-r9" x="1037" y="215.2" textLength="12.2" clip-path="url(#terminal-2710773658-line-8)">│</text><text class="terminal-2710773658-r5" x="1085.8" y="215.2" textLength="12.2" clip-path="url(#terminal-2710773658-line-8)">│</text><text class="terminal-2710773658-r4" x="1098" y="215.2" textLength="12.2" clip-path="url(#terminal-2710773658-line-8)">
</text><text class="terminal-2710773658-r5" x="0" y="239.6" textLength="12.2" clip-path="url(#terminal-2710773658-line-9)">│</text><text class="terminal-2710773658-r9" x="48.8" y="239.6" textLength="12.2" clip-path="url(#terminal-2710773658-line-9)">│</text><text class="terminal-2710773658-r9" x="73.2" y="239.6" textLength="134.2" clip-path="url(#terminal-2710773658-line-9)">▀▀▀▀▀▀▀▀▀▀▀</text><text class="terminal-2710773658-r9" x="207.4" y="239.6" textLength="817.4" clip-path="url(#terminal-2710773658-line-9)">───────────────────────────────────────────────────────────────────</text><text class="terminal-2710773658-r9" x="1037" y="239.6" textLength="12.2" clip-path="url(#terminal-2710773658-line-9)">│</text><text class="terminal-2710773658-r5" x="1085.8" y="239.6" textLength="12.2" clip-path="url(#terminal-2710773658-line-9)">│</text><text class="terminal-2710773658-r4" x="1098" y="239.6" textLength="12.2" clip-path="url(#terminal-2710773658-line-9)">
</text><text class="terminal-2710773658-r5" x="0" y="264" textLength="12.2" clip-path="url(#terminal-2710773658-line-10)">│</text><text class="terminal-2710773658-r9" x="48.8" y="264" textLength="12.2" clip-path="url(#terminal-2710773658-line-10)">│</text><text class="terminal-2710773658-r14" x="73.2" y="264" textLength="48.8" clip-path="url(#terminal-2710773658-line-10)" lengthAdjust="spacingAndGlyphs">녹화</text><text class="terminal-2710773658-r14" x="122" y="264" textLength="61" clip-path="url(#terminal-2710773658-line-10)">:&#160;off</text><text class="terminal-2710773658-r9" x="1037" y="264" textLength="12.2" clip-path="url(#terminal-2710773658-line-10)">│</text><text class="terminal-2710773658-r5" x="1085.8" y="264" textLength="12.2" clip-path="url(#terminal-2710773658-line-10)">│</text><text class="terminal-2710773658-r4" x="1098" y="264" textLength="12.2" clip-path="url(#terminal-2710773658-line-10)">
</text><text class="terminal-2710773658-r5" x="0" y="288.4" textLength="12.2" clip-path="url(#terminal-2710773658-line-11)">│</text><text class="terminal-2710773658-r9" x="48.8" y="288.4" textLength="12.2" clip-path="url(#terminal-2710773658-line-11)">│</text><text class="terminal-2710773658-r10" x="73.2" y="288.4" textLength="48.8" clip-path="url(#terminal-2710773658-line-11)" lengthAdjust="spacingAndGlyphs">경로</text><text class="terminal-2710773658-r10" x="122" y="288.4" textLength="414.8" clip-path="url(#terminal-2710773658-line-11)">:&#160;~/.cache/pytmux/captures/default</text><text class="terminal-2710773658-r9" x="1037" y="288.4" textLength="12.2" clip-path="url(#terminal-2710773658-line-11)">│</text><text class="terminal-2710773658-r5" x="1085.8" y="288.4" textLength="12.2" clip-path="url(#terminal-2710773658-line-11)">│</text><text class="terminal-2710773658-r4" x="1098" y="288.4" textLength="12.2" clip-path="url(#terminal-2710773658-line-11)">
</text><text class="terminal-2710773658-r5" x="0" y="312.8" textLength="12.2" clip-path="url(#terminal-2710773658-line-12)">│</text><text class="terminal-2710773658-r9" x="48.8" y="312.8" textLength="12.2" clip-path="url(#terminal-2710773658-line-12)">│</text><text class="terminal-2710773658-r10" x="73.2" y="312.8" textLength="268.4" clip-path="url(#terminal-2710773658-line-12)">capture-output&#160;on|off&#160;</text><text class="terminal-2710773658-r10" x="341.6" y="312.8" textLength="24.4" clip-path="url(#terminal-2710773658-line-12)" lengthAdjust="spacingAndGlyphs">로</text><text class="terminal-2710773658-r10" x="366" y="312.8" textLength="12.2" clip-path="url(#terminal-2710773658-line-12)">&#160;</text><text class="terminal-2710773658-r10" x="378.2" y="312.8" textLength="48.8" clip-path="url(#terminal-2710773658-line-12)" lengthAdjust="spacingAndGlyphs">토글</text><text class="terminal-2710773658-r9" x="1037" y="312.8" textLength="12.2" clip-path="url(#terminal-2710773658-line-12)">│</text><text class="terminal-2710773658-r5" x="1085.8" y="312.8" textLength="12.2" clip-path="url(#terminal-2710773658-line-12)">│</text><text class="terminal-2710773658-r4" x="1098" y="312.8" textLength="12.2" clip-path="url(#terminal-2710773658-line-12)">
</text><text class="terminal-2710773658-r5" x="0" y="337.2" textLength="12.2" clip-path="url(#terminal-2710773658-line-13)">│</text><text class="terminal-2710773658-r9" x="48.8" y="337.2" textLength="12.2" clip-path="url(#terminal-2710773658-line-13)">│</text><text class="terminal-2710773658-r9" x="1037" y="337.2" textLength="12.2" clip-path="url(#terminal-2710773658-line-13)">│</text><text class="terminal-2710773658-r5" x="1085.8" y="337.2" textLength="12.2" clip-path="url(#terminal-2710773658-line-13)">│</text><text class="terminal-2710773658-r4" x="1098" y="337.2" textLength="12.2" clip-path="url(#terminal-2710773658-line-13)">
</text><text class="terminal-2710773658-r5" x="0" y="361.6" textLength="12.2" clip-path="url(#terminal-2710773658-line-14)">│</text><text class="terminal-2710773658-r9" x="48.8" y="361.6" textLength="12.2" clip-path="url(#terminal-2710773658-line-14)">│</text><text class="terminal-2710773658-r15" x="524.6" y="361.6" textLength="48.8" clip-path="url(#terminal-2710773658-line-14)" lengthAdjust="spacingAndGlyphs">닫기</text><text class="terminal-2710773658-r9" x="1037" y="361.6" textLength="12.2" clip-path="url(#terminal-2710773658-line-14)">│</text><text class="terminal-2710773658-r5" x="1085.8" y="361.6" textLength="12.2" clip-path="url(#terminal-2710773658-line-14)">│</text><text class="terminal-2710773658-r4" x="1098" y="361.6" textLength="12.2" clip-path="url(#terminal-2710773658-line-14)">
</text><text class="terminal-2710773658-r5" x="0" y="386" textLength="12.2" clip-path="url(#terminal-2710773658-line-15)">│</text><text class="terminal-2710773658-r9" x="48.8" y="386" textLength="12.2" clip-path="url(#terminal-2710773658-line-15)">│</text><text class="terminal-2710773658-r16" x="73.2" y="386" textLength="36.6" clip-path="url(#terminal-2710773658-line-15)">←→&#160;</text><text class="terminal-2710773658-r16" x="109.8" y="386" textLength="24.4" clip-path="url(#terminal-2710773658-line-15)" lengthAdjust="spacingAndGlyphs">탭</text><text class="terminal-2710773658-r16" x="134.2" y="386" textLength="12.2" clip-path="url(#terminal-2710773658-line-15)">·</text><text class="terminal-2710773658-r16" x="146.4" y="386" textLength="48.8" clip-path="url(#terminal-2710773658-line-15)" lengthAdjust="spacingAndGlyphs">닫기</text><text class="terminal-2710773658-r16" x="195.2" y="386" textLength="109.8" clip-path="url(#terminal-2710773658-line-15)">[x]&#160;·&#160;↑↓&#160;</text><text class="terminal-2710773658-r16" x="305" y="386" textLength="48.8" clip-path="url(#terminal-2710773658-line-15)" lengthAdjust="spacingAndGlyphs">항목</text><text class="terminal-2710773658-r16" x="353.8" y="386" textLength="158.6" clip-path="url(#terminal-2710773658-line-15)">&#160;·&#160;Enter/Esc&#160;</text><text class="terminal-2710773658-r16" x="512.4" y="386" textLength="48.8" clip-path="url(#terminal-2710773658-line-15)" lengthAdjust="spacingAndGlyphs">닫기</text><text class="terminal-2710773658-r9" x="1037" y="386" textLength="12.2" clip-path="url(#terminal-2710773658-line-15)">│</text><text class="terminal-2710773658-r5" x="1085.8" y="386" textLength="12.2" clip-path="url(#terminal-2710773658-line-15)">│</text><text class="terminal-2710773658-r4" x="1098" y="386" textLength="12.2" clip-path="url(#terminal-2710773658-line-15)">
</text><text class="terminal-2710773658-r5" x="0" y="410.4" textLength="12.2" clip-path="url(#terminal-2710773658-line-16)">│</text><text class="terminal-2710773658-r9" x="48.8" y="410.4" textLength="12.2" clip-path="url(#terminal-2710773658-line-16)">│</text><text class="terminal-2710773658-r9" x="1037" y="410.4" textLength="12.2" clip-path="url(#terminal-2710773658-line-16)">│</text><text class="terminal-2710773658-r5" x="1085.8" y="410.4" textLength="12.2" clip-path="url(#terminal-2710773658-line-16)">│</text><text class="terminal-2710773658-r4" x="1098" y="410.4" textLength="12.2" clip-path="url(#terminal-2710773658-line-16)">
</text><text class="terminal-2710773658-r5" x="0" y="434.8" textLength="12.2" clip-path="url(#terminal-2710773658-line-17)">│</text><text class="terminal-2710773658-r9" x="48.8" y="434.8" textLength="12.2" clip-path="url(#terminal-2710773658-line-17)">│</text><text class="terminal-2710773658-r9" x="1037" y="434.8" textLength="12.2" clip-path="url(#terminal-2710773658-line-17)">│</text><text class="terminal-2710773658-r5" x="1085.8" y="434.8" textLength="12.2" clip-path="url(#terminal-2710773658-line-17)">│</text><text class="terminal-2710773658-r4" x="1098" y="434.8" textLength="12.2" clip-path="url(#terminal-2710773658-line-17)">
</text><text class="terminal-2710773658-r5" x="0" y="459.2" textLength="12.2" clip-path="url(#terminal-2710773658-line-18)">│</text><text class="terminal-2710773658-r9" x="48.8" y="459.2" textLength="12.2" clip-path="url(#terminal-2710773658-line-18)">│</text><text class="terminal-2710773658-r9" x="1037" y="459.2" textLength="12.2" clip-path="url(#terminal-2710773658-line-18)">│</text><text class="terminal-2710773658-r5" x="1085.8" y="459.2" textLength="12.2" clip-path="url(#terminal-2710773658-line-18)">│</text><text class="terminal-2710773658-r4" x="1098" y="459.2" textLength="12.2" clip-path="url(#terminal-2710773658-line-18)">
</text><text class="terminal-2710773658-r5" x="0" y="483.6" textLength="12.2" clip-path="url(#terminal-2710773658-line-19)">│</text><text class="terminal-2710773658-r9" x="48.8" y="483.6" textLength="12.2" clip-path="url(#terminal-2710773658-line-19)">╰</text><text class="terminal-2710773658-r9" x="61" y="483.6" textLength="976" clip-path="url(#terminal-2710773658-line-19)">────────────────────────────────────────────────────────────────────────────────</text><text class="terminal-2710773658-r9" x="1037" y="483.6" textLength="12.2" clip-path="url(#terminal-2710773658-line-19)">╯</text><text class="terminal-2710773658-r5" x="1085.8" y="483.6" textLength="12.2" clip-path="url(#terminal-2710773658-line-19)">│</text><text class="terminal-2710773658-r4" x="1098" y="483.6" textLength="12.2" clip-path="url(#terminal-2710773658-line-19)">
</text><text class="terminal-2710773658-r5" x="0" y="508" textLength="12.2" clip-path="url(#terminal-2710773658-line-20)">│</text><text class="terminal-2710773658-r5" x="1085.8" y="508" textLength="12.2" clip-path="url(#terminal-2710773658-line-20)">│</text><text class="terminal-2710773658-r4" x="1098" y="508" textLength="12.2" clip-path="url(#terminal-2710773658-line-20)">
</text><text class="terminal-2710773658-r5" x="0" y="532.4" textLength="12.2" clip-path="url(#terminal-2710773658-line-21)">│</text><text class="terminal-2710773658-r5" x="1085.8" y="532.4" textLength="12.2" clip-path="url(#terminal-2710773658-line-21)">│</text><text class="terminal-2710773658-r4" x="1098" y="532.4" textLength="12.2" clip-path="url(#terminal-2710773658-line-21)">
</text><text class="terminal-2710773658-r5" x="0" y="556.8" textLength="12.2" clip-path="url(#terminal-2710773658-line-22)">│</text><text class="terminal-2710773658-r5" x="1085.8" y="556.8" textLength="12.2" clip-path="url(#terminal-2710773658-line-22)">│</text><text class="terminal-2710773658-r4" x="1098" y="556.8" textLength="12.2" clip-path="url(#terminal-2710773658-line-22)">
</text><text class="terminal-2710773658-r5" x="0" y="581.2" textLength="12.2" clip-path="url(#terminal-2710773658-line-23)">│</text><text class="terminal-2710773658-r5" x="1085.8" y="581.2" textLength="12.2" clip-path="url(#terminal-2710773658-line-23)">│</text><text class="terminal-2710773658-r4" x="1098" y="581.2" textLength="12.2" clip-path="url(#terminal-2710773658-line-23)">
</text><text class="terminal-2710773658-r5" x="0" y="605.6" textLength="1098" clip-path="url(#terminal-2710773658-line-24)">└────────────────────────────────────────────────────────────────────────────────────────┘</text><text class="terminal-2710773658-r4" x="1098" y="605.6" textLength="12.2" clip-path="url(#terminal-2710773658-line-24)">
</text><text class="terminal-2710773658-r17" x="707.6" y="630" textLength="170.8" clip-path="url(#terminal-2710773658-line-25)">ssh:playground</text><text class="terminal-2710773658-r1" x="890.6" y="630" textLength="61" clip-path="url(#terminal-2710773658-line-25)">18:17</text><text class="terminal-2710773658-r1" x="963.8" y="630" textLength="122" clip-path="url(#terminal-2710773658-line-25)">2026-06-20</text>
    </g>
    </g>
</svg>
