<svg class="rich-terminal" viewBox="0 0 1116 684.4" xmlns="http://www.w3.org/2000/svg">
    <!-- Generated with Rich https://www.textualize.io -->
    <style>

    @font-face {
        font-family: "Fira Code";
        src: local("FiraCode-Regular"),
                url("https://cdnjs.cloudflare.com/ajax/libs/firacode/6.2.0/woff2/FiraCode-Regular.woff2") format("woff2"),
                url("https://cdnjs.cloudflare.com/ajax/libs/firacode/6.2.0/woff/FiraCode-Regular.woff") format("woff");
        font-style: normal;
        font-weight: 400;
    }
    @font-face {
        font-family: "Fira Code";
        src: local("FiraCode-Bold"),
                url("https://cdnjs.cloudflare.com/ajax/libs/firacode/6.2.0/woff2/FiraCode-Bold.woff2") format("woff2"),
                url("https://cdnjs.cloudflare.com/ajax/libs/firacode/6.2.0/woff/FiraCode-Bold.woff") format("woff");
        font-style: bold;
        font-weight: 700;
    }

    .terminal-2710773658-matrix {
        font-family: Fira Code, "Apple SD Gothic Neo", monospace;
        font-size: 20px;
        line-height: 24.4px;
        font-variant-east-asian: full-width;
    }

    .terminal-2710773658-title {
        font-size: 18px;
        font-weight: bold;
        font-family: arial;
    }

    .terminal-2710773658-r1 { fill: #3b3b3b }
.terminal-2710773658-r2 { fill: #353532;font-weight: bold }
.terminal-2710773658-r3 { fill: #131313;font-weight: bold }
.terminal-2710773658-r4 { fill: #c5c8c6 }
.terminal-2710773658-r5 { fill: #0e1921 }
.terminal-2710773658-r6 { fill: #1f1f1f }
.terminal-2710773658-r7 { fill: #1a1a1a }
.terminal-2710773658-r8 { fill: #0e0e0e }
.terminal-2710773658-r9 { fill: #fea62b }
.terminal-2710773658-r10 { fill: #e0e0e0 }
.terminal-2710773658-r11 { fill: #f5e5e9;font-weight: bold }
.terminal-2710773658-r12 { fill: #ffffff;font-weight: bold }
.terminal-2710773658-r13 { fill: #a0a3a6 }
.terminal-2710773658-r14 { fill: #ddedf9;font-weight: bold }
.terminal-2710773658-r15 { fill: #dddfe0;font-weight: bold }
.terminal-2710773658-r16 { fill: #a7abaf }
.terminal-2710773658-r17 { fill: #331a20;font-weight: bold }
    </style>

    <defs>
    <clipPath id="terminal-2710773658-clip-terminal">
      <rect x="0" y="0" width="1097.0" height="633.4" />
    </clipPath>
    <clipPath id="terminal-2710773658-line-0">
    <rect x="0" y="1.5" width="1098" height="24.65"/>
            </clipPath>
<clipPath id="terminal-2710773658-line-1">
    <rect x="0" y="25.9" width="1098" height="24.65"/>
            </clipPath>
<clipPath id="terminal-2710773658-line-2">
    <rect x="0" y="50.3" width="1098" height="24.65"/>
            </clipPath>
<clipPath id="terminal-2710773658-line-3">
    <rect x="0" y="74.7" width="1098" height="24.65"/>
            </clipPath>
<clipPath id="terminal-2710773658-line-4">
    <rect x="0" y="99.1" width="1098" height="24.65"/>
            </clipPath>
<clipPath id="terminal-2710773658-line-5">
    <rect x="0" y="123.5" width="1098" height="24.65"/>
            </clipPath>
<clipPath id="terminal-2710773658-line-6">
    <rect x="0" y="147.9" width="1098" height="24.65"/>
            </clipPath>
<clipPath id="terminal-2710773658-line-7">
    <rect x="0" y="172.3" width="1098" height="24.65"/>
            </clipPath>
<clipPath id="terminal-2710773658-line-8">
    <rect x="0" y="196.7" width="1098" height="24.65"/>
            </clipPath>
<clipPath id="terminal-2710773658-line-9">
    <rect x="0" y="221.1" width="1098" height="24.65"/>
            </clipPath>
<clipPath id="terminal-2710773658-line-10">
    <rect x="0" y="245.5" width="1098" height="24.65"/>
            </clipPath>
<clipPath id="terminal-2710773658-line-11">
    <rect x="0" y="269.9" width="1098" height="24.65"/>
            </clipPath>
<clipPath id="terminal-2710773658-line-12">
    <rect x="0" y="294.3" width="1098" height="24.65"/>
            </clipPath>
<clipPath id="terminal-2710773658-line-13">
    <rect x="0" y="318.7" width="1098" height="24.65"/>
            </clipPath>
<clipPath id="terminal-2710773658-line-14">
    <rect x="0" y="343.1" width="1098" height="24.65"/>
            </clipPath>
<clipPath id="terminal-2710773658-line-15">
    <rect x="0" y="367.5" width="1098" height="24.65"/>
            </clipPath>
<clipPath id="terminal-2710773658-line-16">
    <rect x="0" y="391.9" width="1098" height="24.65"/>
            </clipPath>
<clipPath id="terminal-2710773658-line-17">
    <rect x="0" y="416.3" width="1098" height="24.65"/>
            </clipPath>
<clipPath id="terminal-2710773658-line-18">
    <rect x="0" y="440.7" width="1098" height="24.65"/>
            </clipPath>
<clipPath id="terminal-2710773658-line-19">
    <rect x="0" y="465.1" width="1098" height="24.65"/>
            </clipPath>
<clipPath id="terminal-2710773658-line-20">
    <rect x="0" y="489.5" width="1098" height="24.65"/>
            </clipPath>
<clipPath id="terminal-2710773658-line-21">
    <rect x="0" y="513.9" width="1098" height="24.65"/>
            </clipPath>
<clipPath id="terminal-2710773658-line-22">
    <rect x="0" y="538.3" width="1098" height="24.65"/>
            </clipPath>
<clipPath id="terminal-2710773658-line-23">
    <rect x="0" y="562.7" width="1098" height="24.65"/>
            </clipPath>
<clipPath id="terminal-2710773658-line-24">
    <rect x="0" y="587.1" width="1098" height="24.65"/>
            </clipPath>
    </defs>

    <rect fill="#292929" stroke="rgba(255,255,255,0.35)" stroke-width="1" x="1" y="1" width="1114" height="682.4" rx="8"/><text class="terminal-2710773658-title" fill="#c5c8c6" text-anchor="middle" x="557" y="27">PytmuxApp</text>
            <g transform="translate(26,22)">
            <circle cx="0" cy="0" r="7" fill="#ff5f57"/>
            <circle cx="22" cy="0" r="7" fill="#febc2e"/>
            <circle cx="44" cy="0" r="7" fill="#28c840"/>
            </g>
        
    <g transform="translate(9, 41)" clip-path="url(#terminal-2710773658-clip-terminal)">
    <rect fill="#121212" x="0" y="1.5" width="12.2" height="24.65" shape-rendering="crispEdges"/><rect fill="#0e2638" x="12.2" y="1.5" width="85.4" height="24.65" shape-rendering="crispEdges"/><rect fill="#121212" x="97.6" y="1.5" width="24.4" height="24.65" shape-rendering="crispEdges"/><rect fill="#1e3425" x="122" y="1.5" width="36.6" height="24.65" shape-rendering="crispEdges"/><rect fill="#121212" x="158.6" y="1.5" width="939.4" height="24.65" shape-rendering="crispEdges"/><rect fill="#121212" x="0" y="25.9" width="12.2" height="24.65" shape-rendering="crispEdges"/><rect fill="#121212" x="12.2" y="25.9" width="85.4" height="24.65" shape-rendering="crispEdges"/><rect fill="#121212" x="97.6" y="25.9" width="951.6" height="24.65" shape-rendering="crispEdges"/><rect fill="#1f1316" x="1049.2" y="25.9" width="36.6" height="24.65" shape-rendering="crispEdges"/><rect fill="#121212" x="1085.8" y="25.9" width="12.2" height="24.65" shape-rendering="crispEdges"/><rect fill="#121212" x="0" y="50.3" width="12.2" height="24.65" shape-rendering="crispEdges"/><rect fill="#121212" x="12.2" y="50.3" width="353.8" height="24.65" shape-rendering="crispEdges"/><rect fill="#121212" x="366" y="50.3" width="12.2" height="24.65" shape-rendering="crispEdges"/><rect fill="#121212" x="378.2" y="50.3" width="671" height="24.65" shape-rendering="crispEdges"/><rect fill="#0e1921" x="1049.2" y="50.3" width="48.8" height="24.65" shape-rendering="crispEdges"/><rect fill="#121212" x="0" y="74.7" width="12.2" height="24.65" shape-rendering="crispEdges"/><rect fill="#121212" x="12.2" y="74.7" width="1073.6" height="24.65" shape-rendering="crispEdges"/><rect fill="#121212" x="1085.8" y="74.7" width="12.2" height="24.65" shape-rendering="crispEdges"/><rect fill="#121212" x="0" y="99.1" width="12.2" height="24.65" shape-rendering="crispEdges"/><rect fill="#121212" x="12.2" y="99.1" width="1073.6" height="24.65" shape-rendering="crispEdges"/><rect fill="#121212" x="1085.8" y="99.1" width="12.2" height="24.65" shape-rendering="crispEdges"/><rect fill="#121212" x="0" y="123.5" width="12.2" height="24.65" shape-rendering="crispEdges"/><rect fill="#121212" x="12.2" y="123.5" width="1073.6" height="24.65" shape-rendering="crispEdges"/><rect fill="#121212" x="1085.8" y="123.5" width="12.2" height="24.65" shape-rendering="crispEdges"/><rect fill="#121212" x="0" y="147.9" width="12.2" height="24.65" shape-rendering="crispEdges"/><rect fill="#121212" x="12.2" y="147.9" width="36.6" height="24.65" shape-rendering="crispEdges"/><rect fill="#242f38" x="48.8" y="147.9" width="12.2" height="24.65" shape-rendering="crispEdges"/><rect fill="#242f38" x="61" y="147.9" width="976" height="24.65" shape-rendering="crispEdges"/><rect fill="#242f38" x="1037" y="147.9" width="12.2" height="24.65" shape-rendering="crispEdges"/><rect fill="#121212" x="1049.2" y="147.9" width="36.6" height="24.65" shape-rendering="crispEdges"/><rect fill="#121212" x="1085.8" y="147.9" width="12.2" height="24.65" shape-rendering="crispEdges"/><rect fill="#121212" x="0" y="172.3" width="12.2" height="24.65" shape-rendering="crispEdges"/><rect fill="#121212" x="12.2" y="172.3" width="36.6" height="24.65" shape-rendering="crispEdges"/><rect fill="#242f38" x="48.8" y="172.3" width="12.2" height="24.65" shape-rendering="crispEdges"/><rect fill="#242f38" x="61" y="172.3" width="12.2" height="24.65" shape-rendering="crispEdges"/><rect fill="#242f38" x="73.2" y="172.3" width="0" height="24.65" shape-rendering="crispEdges"/><rect fill="#242f38" x="73.2" y="172.3" width="134.2" height="24.65" shape-rendering="crispEdges"/><rect fill="#242f38" x="207.4" y="172.3" width="0" height="24.65" shape-rendering="crispEdges"/><rect fill="#242f38" x="207.4" y="172.3" width="73.2" height="24.65" shape-rendering="crispEdges"/><rect fill="#242f38" x="280.6" y="172.3" width="0" height="24.65" shape-rendering="crispEdges"/><rect fill="#242f38" x="280.6" y="172.3" width="73.2" height="24.65" shape-rendering="crispEdges"/><rect fill="#242f38" x="353.8" y="172.3" width="0" height="24.65" shape-rendering="crispEdges"/><rect fill="#242f38" x="353.8" y="172.3" width="610" height="24.65" shape-rendering="crispEdges"/><rect fill="#b93c5b" x="963.8" y="172.3" width="12.2" height="24.65" shape-rendering="crispEdges"/><rect fill="#b93c5b" x="976" y="172.3" width="36.6" height="24.65" shape-rendering="crispEdges"/><rect fill="#b93c5b" x="1012.6" y="172.3" width="12.2" height="24.65" shape-rendering="crispEdges"/><rect fill="#242f38" x="1024.8" y="172.3" width="12.2" height="24.65" shape-rendering="crispEdges"/><rect fill="#242f38" x="1037" y="172.3" width="12.2" height="24.65" shape-rendering="crispEdges"/><rect fill="#121212" x="1049.2" y="172.3" width="36.6" height="24.65" shape-rendering="crispEdges"/><rect fill="#121212" x="1085.8" y="172.3" width="12.2" height="24.65" shape-rendering="crispEdges"/><rect fill="#121212" x="0" y="196.7" width="12.2" height="24.65" shape-rendering="crispEdges"/><rect fill="#121212" x="12.2" y="196.7" width="36.6" height="24.65" shape-rendering="crispEdges"/><rect fill="#242f38" x="48.8" y="196.7" width="12.2" height="24.65" shape-rendering="crispEdges"/><rect fill="#242f38" x="61" y="196.7" width="12.2" height="24.65" shape-rendering="crispEdges"/><rect fill="#fea62b" x="73.2" y="196.7" width="134.2" height="24.65" shape-rendering="crispEdges"/><rect fill="#242f38" x="207.4" y="196.7" width="73.2" height="24.65" shape-rendering="crispEdges"/><rect fill="#242f38" x="280.6" y="196.7" width="73.2" height="24.65" shape-rendering="crispEdges"/><rect fill="#242f38" x="353.8" y="196.7" width="610" height="24.65" shape-rendering="crispEdges"/><rect fill="#242f38" x="963.8" y="196.7" width="61" height="24.65" shape-rendering="crispEdges"/><rect fill="#242f38" x="1024.8" y="196.7" width="12.2" height="24.65" shape-rendering="crispEdges"/><rect fill="#242f38" x="1037" y="196.7" width="12.2" height="24.65" shape-rendering="crispEdges"/><rect fill="#121212" x="1049.2" y="196.7" width="36.6" height="24.65" shape-rendering="crispEdges"/><rect fill="#121212" x="1085.8" y="196.7" width="12.2" height="24.65" shape-rendering="crispEdges"/><rect fill="#121212" x="0" y="221.1" width="12.2" height="24.65" shape-rendering="crispEdges"/><rect fill="#121212" x="12.2" y="221.1" width="36.6" height="24.65" shape-rendering="crispEdges"/><rect fill="#242f38" x="48.8" y="221.1" width="12.2" height="24.65" shape-rendering="crispEdges"/><rect fill="#242f38" x="61" y="221.1" width="12.2" height="24.65" shape-rendering="crispEdges"/><rect fill="#242f38" x="1024.8" y="221.1" width="12.2" height="24.65" shape-rendering="crispEdges"/><rect fill="#242f38" x="1037" y="221.1" width="12.2" height="24.65" shape-rendering="crispEdges"/><rect fill="#121212" x="1049.2" y="221.1" width="36.6" height="24.65" shape-rendering="crispEdges"/><rect fill="#121212" x="1085.8" y="221.1" width="12.2" height="24.65" shape-rendering="crispEdges"/><rect fill="#121212" x="0" y="245.5" width="12.2" height="24.65" shape-rendering="crispEdges"/><rect fill="#121212" x="12.2" y="245.5" width="36.6" height="24.65" shape-rendering="crispEdges"/><rect fill="#242f38" x="48.8" y="245.5" width="12.2" height="24.65" shape-rendering="crispEdges"/><rect fill="#242f38" x="61" y="245.5" width="12.2" height="24.65" shape-rendering="crispEdges"/><rect fill="#0178d4" x="73.2" y="245.5" width="109.8" height="24.65" shape-rendering="crispEdges"/><rect fill="#0178d4" x="183" y="245.5" width="841.8" height="24.65" shape-rendering="crispEdges"/><rect fill="#242f38" x="1024.8" y="245.5" width="12.2" height="24.65" shape-rendering="crispEdges"/><rect fill="#242f38" x="1037" y="245.5" width="12.2" height="24.65" shape-rendering="crispEdges"/><rect fill="#121212" x="1049.2" y="245.5" width="36.6" height="24.65" shape-rendering="crispEdges"/><rect fill="#121212" x="1085.8" y="245.5" width="12.2" height="24.65" shape-rendering="crispEdges"/><rect fill="#121212" x="0" y="269.9" width="12.2" height="24.65" shape-rendering="crispEdges"/><rect fill="#121212" x="12.2" y="269.9" width="36.6" height="24.65" shape-rendering="crispEdges"/><rect fill="#242f38" x="48.8" y="269.9" width="12.2" height="24.65" shape-rendering="crispEdges"/><rect fill="#242f38" x="61" y="269.9" width="12.2" height="24.65" shape-rendering="crispEdges"/><rect fill="#272727" x="73.2" y="269.9" width="463.6" height="24.65" shape-rendering="crispEdges"/><rect fill="#272727" x="536.8" y="269.9" width="488" height="24.65" shape-rendering="crispEdges"/><rect fill="#242f38" x="1024.8" y="269.9" width="12.2" height="24.65" shape-rendering="crispEdges"/><rect fill="#242f38" x="1037" y="269.9" width="12.2" height="24.65" shape-rendering="crispEdges"/><rect fill="#121212" x="1049.2" y="269.9" width="36.6" height="24.65" shape-rendering="crispEdges"/><rect fill="#121212" x="1085.8" y="269.9" width="12.2" height="24.65" shape-rendering="crispEdges"/><rect fill="#121212" x="0" y="294.3" width="12.2" height="24.65" shape-rendering="crispEdges"/><rect fill="#121212" x="12.2" y="294.3" width="36.6" height="24.65" shape-rendering="crispEdges"/><rect fill="#242f38" x="48.8" y="294.3" width="12.2" height="24.65" shape-rendering="crispEdges"/><rect fill="#242f38" x="61" y="294.3" width="12.2" height="24.65" shape-rendering="crispEdges"/><rect fill="#272727" x="73.2" y="294.3" width="353.8" height="24.65" shape-rendering="crispEdges"/><rect fill="#272727" x="427" y="294.3" width="597.8" height="24.65" shape-rendering="crispEdges"/><rect fill="#242f38" x="1024.8" y="294.3" width="12.2" height="24.65" shape-rendering="crispEdges"/><rect fill="#242f38" x="1037" y="294.3" width="12.2" height="24.65" shape-rendering="crispEdges"/><rect fill="#121212" x="1049.2" y="294.3" width="36.6" height="24.65" shape-rendering="crispEdges"/><rect fill="#121212" x="1085.8" y="294.3" width="12.2" height="24.65" shape-rendering="crispEdges"/><rect fill="#121212" x="0" y="318.7" width="12.2" height="24.65" shape-rendering="crispEdges"/><rect fill="#121212" x="12.2" y="318.7" width="36.6" height="24.65" shape-rendering="crispEdges"/><rect fill="#242f38" x="48.8" y="318.7" width="12.2" height="24.65" shape-rendering="crispEdges"/><rect fill="#242f38" x="61" y="318.7" width="12.2" height="24.65" shape-rendering="crispEdges"/><rect fill="#242f38" x="73.2" y="318.7" width="951.6" height="24.65" shape-rendering="crispEdges"/><rect fill="#242f38" x="1024.8" y="318.7" width="12.2" height="24.65" shape-rendering="crispEdges"/><rect fill="#242f38" x="1037" y="318.7" width="12.2" height="24.65" shape-rendering="crispEdges"/><rect fill="#121212" x="1049.2" y="318.7" width="36.6" height="24.65" shape-rendering="crispEdges"/><rect fill="#121212" x="1085.8" y="318.7" width="12.2" height="24.65" shape-rendering="crispEdges"/><rect fill="#121212" x="0" y="343.1" width="12.2" height="24.65" shape-rendering="crispEdges"/><rect fill="#121212" x="12.2" y="343.1" width="36.6" height="24.65" shape-rendering="crispEdges"/><rect fill="#242f38" x="48.8" y="343.1" width="12.2" height="24.65" shape-rendering="crispEdges"/><rect fill="#242f38" x="61" y="343.1" width="12.2" height="24.65" shape-rendering="crispEdges"/><rect fill="#000f18" x="73.2" y="343.1" width="451.4" height="24.65" shape-rendering="crispEdges"/><rect fill="#000f18" x="524.6" y="343.1" width="48.8" height="24.65" shape-rendering="crispEdges"/><rect fill="#000f18" x="573.4" y="343.1" width="451.4" height="24.65" shape-rendering="crispEdges"/><rect fill="#242f38" x="1024.8" y="343.1" width="12.2" height="24.65" shape-rendering="crispEdges"/><rect fill="#242f38" x="1037" y="343.1" width="12.2" height="24.65" shape-rendering="crispEdges"/><rect fill="#121212" x="1049.2" y="343.1" width="36.6" height="24.65" shape-rendering="crispEdges"/><rect fill="#121212" x="1085.8" y="343.1" width="12.2" height="24.65" shape-rendering="crispEdges"/><rect fill="#121212" x="0" y="367.5" width="12.2" height="24.65" shape-rendering="crispEdges"/><rect fill="#121212" x="12.2" y="367.5" width="36.6" height="24.65" shape-rendering="crispEdges"/><rect fill="#242f38" x="48.8" y="367.5" width="12.2" height="24.65" shape-rendering="crispEdges"/><rect fill="#242f38" x="61" y="367.5" width="12.2" height="24.65" shape-rendering="crispEdges"/><rect fill="#242f38" x="73.2" y="367.5" width="488" height="24.65" shape-rendering="crispEdges"/><rect fill="#242f38" x="561.2" y="367.5" width="463.6" height="24.65" shape-rendering="crispEdges"/><rect fill="#242f38" x="1024.8" y="367.5" width="12.2" height="24.65" shape-rendering="crispEdges"/><rect fill="#242f38" x="1037" y="367.5" width="12.2" height="24.65" shape-rendering="crispEdges"/><rect fill="#121212" x="1049.2" y="367.5" width="36.6" height="24.65" shape-rendering="crispEdges"/><rect fill="#121212" x="1085.8" y="367.5" width="12.2" height="24.65" shape-rendering="crispEdges"/><rect fill="#121212" x="0" y="391.9" width="12.2" height="24.65" shape-rendering="crispEdges"/><rect fill="#121212" x="12.2" y="391.9" width="36.6" height="24.65" shape-rendering="crispEdges"/><rect fill="#242f38" x="48.8" y="391.9" width="12.2" height="24.65" shape-rendering="crispEdges"/><rect fill="#242f38" x="61" y="391.9" width="12.2" height="24.65" shape-rendering="crispEdges"/><rect fill="#242f38" x="73.2" y="391.9" width="951.6" height="24.65" shape-rendering="crispEdges"/><rect fill="#242f38" x="1024.8" y="391.9" width="12.2" height="24.65" shape-rendering="crispEdges"/><rect fill="#242f38" x="1037" y="391.9" width="12.2" height="24.65" shape-rendering="crispEdges"/><rect fill="#121212" x="1049.2" y="391.9" width="36.6" height="24.65" shape-rendering="crispEdges"/><rect fill="#121212" x="1085.8" y="391.9" width="12.2" height="24.65" shape-rendering="crispEdges"/><rect fill="#121212" x="0" y="416.3" width="12.2" height="24.65" shape-rendering="crispEdges"/><rect fill="#121212" x="12.2" y="416.3" width="36.6" height="24.65" shape-rendering="crispEdges"/><rect fill="#242f38" x="48.8" y="416.3" width="12.2" height="24.65" shape-rendering="crispEdges"/><rect fill="#242f38" x="61" y="416.3" width="12.2" height="24.65" shape-rendering="crispEdges"/><rect fill="#242f38" x="73.2" y="416.3" width="951.6" height="24.65" shape-rendering="crispEdges"/><rect fill="#242f38" x="1024.8" y="416.3" width="12.2" height="24.65" shape-rendering="crispEdges"/><rect fill="#242f38" x="1037" y="416.3" width="12.2" height="24.65" shape-rendering="crispEdges"/><rect fill="#121212" x="1049.2" y="416.3" width="36.6" height="24.65" shape-rendering="crispEdges"/><rect fill="#121212" x="1085.8" y="416.3" width="12.2" height="24.65" shape-rendering="crispEdges"/><rect fill="#121212" x="0" y="440.7" width="12.2" height="24.65" shape-rendering="crispEdges"/><rect fill="#121212" x="12.2" y="440.7" width="36.6" height="24.65" shape-rendering="crispEdges"/><rect fill="#242f38" x="48.8" y="440.7" width="12.2" height="24.65" shape-rendering="crispEdges"/><rect fill="#242f38" x="61" y="440.7" width="12.2" height="24.65" shape-rendering="crispEdges"/><rect fill="#242f38" x="73.2" y="440.7" width="951.6" height="24.65" shape-rendering="crispEdges"/><rect fill="#242f38" x="1024.8" y="440.7" width="12.2" height="24.65" shape-rendering="crispEdges"/><rect fill="#242f38" x="1037" y="440.7" width="12.2" height="24.65" shape-rendering="crispEdges"/><rect fill="#121212" x="1049.2" y="440.7" width="36.6" height="24.65" shape-rendering="crispEdges"/><rect fill="#121212" x="1085.8" y="440.7" width="12.2" height="24.65" shape-rendering="crispEdges"/><rect fill="#121212" x="0" y="465.1" width="12.2" height="24.65" shape-rendering="crispEdges"/><rect fill="#121212" x="12.2" y="465.1" width="36.6" height="24.65" shape-rendering="crispEdges"/><rect fill="#242f38" x="48.8" y="465.1" width="12.2" height="24.65" shape-rendering="crispEdges"/><rect fill="#242f38" x="61" y="465.1" width="976" height="24.65" shape-rendering="crispEdges"/><rect fill="#242f38" x="1037" y="465.1" width="12.2" height="24.65" shape-rendering="crispEdges"/><rect fill="#121212" x="1049.2" y="465.1" width="36.6" height="24.65" shape-rendering="crispEdges"/><rect fill="#121212" x="1085.8" y="465.1" width="12.2" height="24.65" shape-rendering="crispEdges"/><rect fill="#121212" x="0" y="489.5" width="12.2" height="24.65" shape-rendering="crispEdges"/><rect fill="#121212" x="12.2" y="489.5" width="1073.6" height="24.65" shape-rendering="crispEdges"/><rect fill="#121212" x="1085.8" y="489.5" width="12.2" height="24.65" shape-rendering="crispEdges"/><rect fill="#121212" x="0" y="513.9" width="12.2" height="24.65" shape-rendering="crispEdges"/><rect fill="#121212" x="12.2" y="513.9" width="1073.6" height="24.65" shape-rendering="crispEdges"/><rect fill="#121212" x="1085.8" y="513.9" width="12.2" height="24.65" shape-rendering="crispEdges"/><rect fill="#121212" x="0" y="538.3" width="12.2" height="24.65" shape-rendering="crispEdges"/><rect fill="#121212" x="12.2" y="538.3" width="1073.6" height="24.65" shape-rendering="crispEdges"/><rect fill="#121212" x="1085.8" y="538.3" width="12.2" height="24.65" shape-rendering="crispEdges"/><rect fill="#121212" x="0" y="562.7" width="12.2" height="24.65" shape-rendering="crispEdges"/><rect fill="#121212" x="12.2" y="562.7" width="1073.6" height="24.65" shape-rendering="crispEdges"/><rect fill="#121212" x="1085.8" y="562.7" width="12.2" height="24.65" shape-rendering="crispEdges"/><rect fill="#121212" x="0" y="587.1" width="1098" height="24.65" shape-rendering="crispEdges"/><rect fill="#121212" x="0" y="611.5" width="12.2" height="24.65" shape-rendering="crispEdges"/><rect fill="#121212" x="12.2" y="611.5" width="683.2" height="24.65" shape-rendering="crispEdges"/><rect fill="#121212" x="695.4" y="611.5" width="12.2" height="24.65" shape-rendering="crispEdges"/><rect fill="#121212" x="707.6" y="611.5" width="170.8" height="24.65" shape-rendering="crispEdges"/><rect fill="#121212" x="878.4" y="611.5" width="12.2" height="24.65" shape-rendering="crispEdges"/><rect fill="#121212" x="890.6" y="611.5" width="61" height="24.65" shape-rendering="crispEdges"/><rect fill="#121212" x="951.6" y="611.5" width="12.2" height="24.65" shape-rendering="crispEdges"/><rect fill="#121212" x="963.8" y="611.5" width="122" height="24.65" shape-rendering="crispEdges"/><rect fill="#121212" x="1085.8" y="611.5" width="12.2" height="24.65" shape-rendering="crispEdges"/>
    <g class="terminal-2710773658-matrix">
    <text class="terminal-2710773658-r2" x="12.2" y="20" textLength="85.4" clip-path="url(#terminal-2710773658-line-0)">&#160;1:win&#160;</text><text class="terminal-2710773658-r3" x="122" y="20" textLength="36.6" clip-path="url(#terminal-2710773658-line-0)">[+]</text><text class="terminal-2710773658-r4" x="1098" y="20" textLength="12.2" clip-path="url(#terminal-2710773658-line-0)">
</text><text class="terminal-2710773658-r5" x="0" y="44.4" textLength="12.2" clip-path="url(#terminal-2710773658-line-1)">┌</text><text class="terminal-2710773658-r5" x="12.2" y="44.4" textLength="85.4" clip-path="url(#terminal-2710773658-line-1)">▀▀▀▀▀▀▀</text><text class="terminal-2710773658-r5" x="97.6" y="44.4" textLength="951.6" clip-path="url(#terminal-2710773658-line-1)">──────────────────────────────────────────────────────────────────────────────</text><text class="terminal-2710773658-r6" x="1049.2" y="44.4" textLength="36.6" clip-path="url(#terminal-2710773658-line-1)">[x]</text><text class="terminal-2710773658-r5" x="1085.8" y="44.4" textLength="12.2" clip-path="url(#terminal-2710773658-line-1)">┐</text><text class="terminal-2710773658-r4" x="1098" y="44.4" textLength="12.2" clip-path="url(#terminal-2710773658-line-1)">
</text><text class="terminal-2710773658-r5" x="0" y="68.8" textLength="12.2" clip-path="url(#terminal-2710773658-line-2)">│</text><text class="terminal-2710773658-r7" x="12.2" y="68.8" textLength="353.8" clip-path="url(#terminal-2710773658-line-2)">neoocean@playground&#160;pytmux&#160;%&#160;</text><text class="terminal-2710773658-r8" x="1049.2" y="68.8" textLength="48.8" clip-path="url(#terminal-2710773658-line-2)">[EN]</text><text class="terminal-2710773658-r4" x="1098" y="68.8" textLength="12.2" clip-path="url(#terminal-2710773658-line-2)">
</text><text class="terminal-2710773658-r5" x="0" y="93.2" textLength="12.2" clip-path="url(#terminal-2710773658-line-3)">│</text><text class="terminal-2710773658-r5" x="1085.8" y="93.2" textLength="12.2" clip-path="url(#terminal-2710773658-line-3)">│</text><text class="terminal-2710773658-r4" x="1098" y="93.2" textLength="12.2" clip-path="url(#terminal-2710773658-line-3)">
</text><text class="terminal-2710773658-r5" x="0" y="117.6" textLength="12.2" clip-path="url(#terminal-2710773658-line-4)">│</text><text class="terminal-2710773658-r5" x="1085.8" y="117.6" textLength="12.2" clip-path="url(#terminal-2710773658-line-4)">│</text><text class="terminal-2710773658-r4" x="1098" y="117.6" textLength="12.2" clip-path="url(#terminal-2710773658-line-4)">
</text><text class="terminal-2710773658-r5" x="0" y="142" textLength="12.2" clip-path="url(#terminal-2710773658-line-5)">│</text><text class="terminal-2710773658-r5" x="1085.8" y="142" textLength="12.2" clip-path="url(#terminal-2710773658-line-5)">│</text><text class="terminal-2710773658-r4" x="1098" y="142" textLength="12.2" clip-path="url(#terminal-2710773658-line-5)">
</text><text class="terminal-2710773658-r5" x="0" y="166.4" textLength="12.2" clip-path="url(#terminal-2710773658-line-6)">│</text><text class="terminal-2710773658-r9" x="48.8" y="166.4" textLength="12.2" clip-path="url(#terminal-2710773658-line-6)">╭</text><text class="terminal-2710773658-r9" x="61" y="166.4" textLength="976" clip-path="url(#terminal-2710773658-line-6)">────────────────────────────────────────────────────────────────────────────────</text><text class="terminal-2710773658-r9" x="1037" y="166.4" textLength="12.2" clip-path="url(#terminal-2710773658-line-6)">╮</text><text class="terminal-2710773658-r5" x="1085.8" y="166.4" textLength="12.2" clip-path="url(#terminal-2710773658-line-6)">│</text><text class="terminal-2710773658-r4" x="1098" y="166.4" textLength="12.2" clip-path="url(#terminal-2710773658-line-6)">
</text><text class="terminal-2710773658-r5" x="0" y="190.8" textLength="12.2" clip-path="url(#terminal-2710773658-line-7)">│</text><text class="terminal-2710773658-r9" x="48.8" y="190.8" textLength="12.2" clip-path="url(#terminal-2710773658-line-7)">│</text><text class="terminal-2710773658-r11" x="976" y="190.8" textLength="36.6" clip-path="url(#terminal-2710773658-line-7)">[x]</text><text class="terminal-2710773658-r9" x="1037" y="190.8" textLength="12.2" clip-path="url(#terminal-2710773658-line-7)">│</text><text class="terminal-2710773658-r5" x="1085.8" y="190.8" textLength="12.2" clip-path="url(#terminal-2710773658-line-7)">│</text><text class="terminal-2710773658-r4" x="1098" y="190.8" textLength="12.2" clip-path="url(#terminal-2710773658-line-7)">
</text><text class="terminal-2710773658-r5" x="0" y="215.2" textLength="12.2" clip-path="url(#terminal-2710773658-line-8)">│</text><text class="terminal-2710773658-r9" x="48.8" y="215.2" textLength="12.2" clip-path="url(#terminal-2710773658-line-8)">│</text><text class="terminal-2710773658-r12" x="73.2" y="215.2" textLength="12.2" clip-path="url(#terminal-2710773658-line-8)">&#160;</text><g clip-path="url(#terminal-2710773658-line-8)"><path fill="#ffffff" transform="translate(85.4 215.2) scale(0.0282081 -0.02)" d="M788 -68V290H671V199H305V288H186V-68ZM788 331V812H677V609H600V796H490V340H600V515H677V331ZM419 751H77V657H298C295 636 291 617 285 598L41 576L59 481L237 505C190 441 118 391 32 363L100 274C297 360 419 523 419 751ZM671 25H305V108H671Z"/><path fill="#ffffff" transform="translate(109.8 215.2) scale(0.0282081 -0.02)" d="M573 173C445 238 363 338 355 509H530V601H55V509H233C227 338 154 231 14 155L81 69C186 119 274 225 296 315C323 229 427 125 512 85ZM767 -79V812H650V436H499V339H650V-79ZM158 666H426V759H158Z"/></g><text class="terminal-2710773658-r12" x="134.2" y="215.2" textLength="73.2" clip-path="url(#terminal-2710773658-line-8)">(REC)&#160;</text><text class="terminal-2710773658-r13" x="207.4" y="215.2" textLength="12.2" clip-path="url(#terminal-2710773658-line-8)">&#160;</text><g clip-path="url(#terminal-2710773658-line-8)"><path fill="#a0a3a6" transform="translate(219.6 215.2) scale(0.0282081 -0.02)" d="M704 473V537H207V666H730V730H131V276H393V105H38V41H827V105H469V276H740V339H207V473Z"/><path fill="#a0a3a6" transform="translate(244 215.2) scale(0.0282081 -0.02)" d="M726 752H135V689H648C648 658 646 617 644 573L113 556L125 489L639 513C634 457 628 401 619 364H38V300H827V364H695C716 466 726 629 726 752ZM744 -39V24H213V222H137V-39Z"/></g><text class="terminal-2710773658-r13" x="268.4" y="215.2" textLength="12.2" clip-path="url(#terminal-2710773658-line-8)">&#160;</text><text class="terminal-2710773658-r13" x="280.6" y="215.2" textLength="12.2" clip-path="url(#terminal-2710773658-line-8)">&#160;</text><g clip-path="url(#terminal-2710773658-line-8)"><path fill="#a0a3a6" transform="translate(292.8 215.2) scale(0.0282081 -0.02)" d="M755 -70V804H679V492H475V428H679V-70ZM561 197C441 267 337 409 337 569V728H258V566C258 411 157 256 30 176L80 119C181 192 267 300 298 409C333 304 434 193 514 139Z"/><path fill="#a0a3a6" transform="translate(317.2 215.2) scale(0.0282081 -0.02)" d="M681 417V-70H757V804H681V482H511V417ZM475 153V731H399V508H140V731H64V153ZM399 217H140V445H399Z"/></g><text class="terminal-2710773658-r13" x="341.6" y="215.2" textLength="12.2" clip-path="url(#terminal-2710773658-line-8)">&#160;</text><text class="terminal-2710773658-r9" x="1037" y="215.2" textLength="12.2" clip-path="url(#terminal-2710773658-line-8)">│</text><text class="terminal-2710773658-r5" x="1085.8" y="215.2" textLength="12.2" clip-path="url(#terminal-2710773658-line-8)">│</text><text class="terminal-2710773658-r4" x="1098" y="215.2" textLength="12.2" clip-path="url(#terminal-2710773658-line-8)">
</text><text class="terminal-2710773658-r5" x="0" y="239.6" textLength="12.2" clip-path="url(#terminal-2710773658-line-9)">│</text><text class="terminal-2710773658-r9" x="48.8" y="239.6" textLength="12.2" clip-path="url(#terminal-2710773658-line-9)">│</text><text class="terminal-2710773658-r9" x="73.2" y="239.6" textLength="134.2" clip-path="url(#terminal-2710773658-line-9)">▀▀▀▀▀▀▀▀▀▀▀</text><text class="terminal-2710773658-r9" x="207.4" y="239.6" textLength="817.4" clip-path="url(#terminal-2710773658-line-9)">───────────────────────────────────────────────────────────────────</text><text class="terminal-2710773658-r9" x="1037" y="239.6" textLength="12.2" clip-path="url(#terminal-2710773658-line-9)">│</text><text class="terminal-2710773658-r5" x="1085.8" y="239.6" textLength="12.2" clip-path="url(#terminal-2710773658-line-9)">│</text><text class="terminal-2710773658-r4" x="1098" y="239.6" textLength="12.2" clip-path="url(#terminal-2710773658-line-9)">
</text><text class="terminal-2710773658-r5" x="0" y="264" textLength="12.2" clip-path="url(#terminal-2710773658-line-10)">│</text><text class="terminal-2710773658-r9" x="48.8" y="264" textLength="12.2" clip-path="url(#terminal-2710773658-line-10)">│</text><g clip-path="url(#terminal-2710773658-line-10)"><path fill="#ddedf9" transform="translate(73.2 264) scale(0.0282081 -0.02)" d="M737 495V587H255V797H138V495H374V392H30V299H835V392H491V495ZM125 224V131H615V-80H731V224Z"/><path fill="#ddedf9" transform="translate(97.6 264) scale(0.0282081 -0.02)" d="M514 363C514 452 425 513 302 513C180 513 90 452 90 363C90 287 154 231 247 216V153C173 150 97 150 23 150L39 53C126 53 205 56 276 59C367 64 493 75 577 87C573 116 571 147 568 176C515 169 444 164 365 159V217C454 235 514 289 514 363ZM734 812H618V-79H734V352H849V448H734ZM556 541V630H48V541ZM179 668H431V758H179ZM398 363C398 330 358 301 302 301C247 301 208 330 208 363C208 397 247 424 302 424C358 424 398 397 398 363Z"/></g><text class="terminal-2710773658-r14" x="122" y="264" textLength="61" clip-path="url(#terminal-2710773658-line-10)">:&#160;off</text><text class="terminal-2710773658-r9" x="1037" y="264" textLength="12.2" clip-path="url(#terminal-2710773658-line-10)">│</text><text class="terminal-2710773658-r5" x="1085.8" y="264" textLength="12.2" clip-path="url(#terminal-2710773658-line-10)">│</text><text class="terminal-2710773658-r4" x="1098" y="264" textLength="12.2" clip-path="url(#terminal-2710773658-line-10)">
</text><text class="terminal-2710773658-r5" x="0" y="288.4" textLength="12.2" clip-path="url(#terminal-2710773658-line-11)">│</text><text class="terminal-2710773658-r9" x="48.8" y="288.4" textLength="12.2" clip-path="url(#terminal-2710773658-line-11)">│</text><g clip-path="url(#terminal-2710773658-line-11)"><path fill="#e0e0e0" transform="translate(73.2 288.4) scale(0.0282081 -0.02)" d="M759 100C759 201 651 265 462 265C271 265 164 201 164 100C164 -2 271 -66 462 -66C651 -66 759 -2 759 100ZM462 201C600 201 681 164 681 100C681 35 600 -3 462 -3C324 -3 243 35 243 100C243 164 324 201 462 201ZM483 400H676V252H752V804H676V646H497V583H676V463H483ZM488 736H86V671H402C376 523 228 378 48 328L86 263C317 344 475 516 488 736Z"/><path fill="#e0e0e0" transform="translate(97.6 288.4) scale(0.0282081 -0.02)" d="M827 41V105H469V254H754V318H211V464H729V731H134V667H653V527H135V254H393V105H38V41Z"/></g><text class="terminal-2710773658-r10" x="122" y="288.4" textLength="414.8" clip-path="url(#terminal-2710773658-line-11)">:&#160;~/.cache/pytmux/captures/default</text><text class="terminal-2710773658-r9" x="1037" y="288.4" textLength="12.2" clip-path="url(#terminal-2710773658-line-11)">│</text><text class="terminal-2710773658-r5" x="1085.8" y="288.4" textLength="12.2" clip-path="url(#terminal-2710773658-line-11)">│</text><text class="terminal-2710773658-r4" x="1098" y="288.4" textLength="12.2" clip-path="url(#terminal-2710773658-line-11)">
</text><text class="terminal-2710773658-r5" x="0" y="312.8" textLength="12.2" clip-path="url(#terminal-2710773658-line-12)">│</text><text class="terminal-2710773658-r9" x="48.8" y="312.8" textLength="12.2" clip-path="url(#terminal-2710773658-line-12)">│</text><text class="terminal-2710773658-r10" x="73.2" y="312.8" textLength="268.4" clip-path="url(#terminal-2710773658-line-12)">capture-output&#160;on|off&#160;</text><g clip-path="url(#terminal-2710773658-line-12)"><path fill="#e0e0e0" transform="translate(341.6 312.8) scale(0.0282081 -0.02)" d="M827 41V105H469V254H754V318H211V464H729V731H134V667H653V527H135V254H393V105H38V41Z"/></g><text class="terminal-2710773658-r10" x="366" y="312.8" textLength="12.2" clip-path="url(#terminal-2710773658-line-12)">&#160;</text><g clip-path="url(#terminal-2710773658-line-12)"><path fill="#e0e0e0" transform="translate(378.2 312.8) scale(0.0282081 -0.02)" d="M704 473V537H207V666H730V730H131V276H393V105H38V41H827V105H469V276H740V339H207V473Z"/><path fill="#e0e0e0" transform="translate(402.6 312.8) scale(0.0282081 -0.02)" d="M762 -58V3H208V103H728V314H125V253H652V159H132V-58ZM729 757H134V694H651C651 609 643 538 626 474H38V412H827V474H702C720 554 729 640 729 757Z"/></g><text class="terminal-2710773658-r9" x="1037" y="312.8" textLength="12.2" clip-path="url(#terminal-2710773658-line-12)">│</text><text class="terminal-2710773658-r5" x="1085.8" y="312.8" textLength="12.2" clip-path="url(#terminal-2710773658-line-12)">│</text><text class="terminal-2710773658-r4" x="1098" y="312.8" textLength="12.2" clip-path="url(#terminal-2710773658-line-12)">
</text><text class="terminal-2710773658-r5" x="0" y="337.2" textLength="12.2" clip-path="url(#terminal-2710773658-line-13)">│</text><text class="terminal-2710773658-r9" x="48.8" y="337.2" textLength="12.2" clip-path="url(#terminal-2710773658-line-13)">│</text><text class="terminal-2710773658-r9" x="1037" y="337.2" textLength="12.2" clip-path="url(#terminal-2710773658-line-13)">│</text><text class="terminal-2710773658-r5" x="1085.8" y="337.2" textLength="12.2" clip-path="url(#terminal-2710773658-line-13)">│</text><text class="terminal-2710773658-r4" x="1098" y="337.2" textLength="12.2" clip-path="url(#terminal-2710773658-line-13)">
</text><text class="terminal-2710773658-r5" x="0" y="361.6" textLength="12.2" clip-path="url(#terminal-2710773658-line-14)">│</text><text class="terminal-2710773658-r9" x="48.8" y="361.6" textLength="12.2" clip-path="url(#terminal-2710773658-line-14)">│</text><g clip-path="url(#terminal-2710773658-line-14)"><path fill="#dddfe0" transform="translate(524.6 361.6) scale(0.0282081 -0.02)" d="M744 -68V25H268V179H730V273H151V-68ZM540 383 523 473C431 453 307 447 176 447V662H456V754H60V353H146C312 353 456 363 540 383ZM853 513V609H727V812H608V321H727V513Z"/><path fill="#dddfe0" transform="translate(549 361.6) scale(0.0282081 -0.02)" d="M767 -79V812H650V-79ZM493 719H77V622H367C351 445 218 259 23 170L95 82C367 230 486 450 493 719Z"/></g><text class="terminal-2710773658-r9" x="1037" y="361.6" textLength="12.2" clip-path="url(#terminal-2710773658-line-14)">│</text><text class="terminal-2710773658-r5" x="1085.8" y="361.6" textLength="12.2" clip-path="url(#terminal-2710773658-line-14)">│</text><text class="terminal-2710773658-r4" x="1098" y="361.6" textLength="12.2" clip-path="url(#terminal-2710773658-line-14)">
</text><text class="terminal-2710773658-r5" x="0" y="386" textLength="12.2" clip-path="url(#terminal-2710773658-line-15)">│</text><text class="terminal-2710773658-r9" x="48.8" y="386" textLength="12.2" clip-path="url(#terminal-2710773658-line-15)">│</text><text class="terminal-2710773658-r16" x="73.2" y="386" textLength="36.6" clip-path="url(#terminal-2710773658-line-15)">←→&#160;</text><g clip-path="url(#terminal-2710773658-line-15)"><path fill="#a7abaf" transform="translate(109.8 386) scale(0.0282081 -0.02)" d="M775 -58V277H698V171H276V276H200V-58ZM775 322V804H699V592H590V788H516V330H590V529H699V322ZM698 5H276V110H698ZM154 413V524H403V585H154V685H417V748H79V348H135C255 348 373 355 459 372L448 435C380 420 279 413 179 413Z"/></g><text class="terminal-2710773658-r16" x="134.2" y="386" textLength="12.2" clip-path="url(#terminal-2710773658-line-15)">·</text><g clip-path="url(#terminal-2710773658-line-15)"><path fill="#a7abaf" transform="translate(146.4 386) scale(0.0282081 -0.02)" d="M842 525V589H709V804H633V301H709V525ZM721 -57V5H233V192H712V255H156V-57ZM144 406V674H469V738H68V343H139C290 343 456 356 553 373L545 435C461 418 308 406 187 406Z"/><path fill="#a7abaf" transform="translate(170.8 386) scale(0.0282081 -0.02)" d="M752 -70V804H676V-70ZM495 711H79V647H414C398 450 268 260 47 163L91 103C317 210 491 427 495 711Z"/></g><text class="terminal-2710773658-r16" x="195.2" y="386" textLength="109.8" clip-path="url(#terminal-2710773658-line-15)">[x]&#160;·&#160;↑↓&#160;</text><g clip-path="url(#terminal-2710773658-line-15)"><path fill="#a7abaf" transform="translate(305 386) scale(0.0282081 -0.02)" d="M845 473V537H710V804H634V242H710V473ZM720 82C720 176 619 235 430 235C241 235 141 177 141 82C141 -12 241 -69 430 -69C619 -69 720 -11 720 82ZM430 170C562 170 641 138 641 82C641 25 562 -6 430 -6C298 -6 220 26 220 82C220 136 298 170 430 170ZM411 721V785H159V721ZM535 599V662H34V599ZM482 417C482 507 397 561 283 561C168 561 84 507 84 417C84 330 169 274 283 274C397 274 482 330 482 417ZM406 417C406 367 350 334 283 334C218 334 159 367 159 417C159 470 217 501 283 501C350 501 406 470 406 417Z"/><path fill="#a7abaf" transform="translate(329.4 386) scale(0.0282081 -0.02)" d="M827 300V364H469V466H726V764H139V466H393V364H38V300ZM650 529H215V702H650ZM123 213V150H653V-76H729V213Z"/></g><text class="terminal-2710773658-r16" x="353.8" y="386" textLength="158.6" clip-path="url(#terminal-2710773658-line-15)">&#160;·&#160;Enter/Esc&#160;</text><g clip-path="url(#terminal-2710773658-line-15)"><path fill="#a7abaf" transform="translate(512.4 386) scale(0.0282081 -0.02)" d="M842 525V589H709V804H633V301H709V525ZM721 -57V5H233V192H712V255H156V-57ZM144 406V674H469V738H68V343H139C290 343 456 356 553 373L545 435C461 418 308 406 187 406Z"/><path fill="#a7abaf" transform="translate(536.8 386) scale(0.0282081 -0.02)" d="M752 -70V804H676V-70ZM495 711H79V647H414C398 450 268 260 47 163L91 103C317 210 491 427 495 711Z"/></g><text class="terminal-2710773658-r9" x="1037" y="386" textLength="12.2" clip-path="url(#terminal-2710773658-line-15)">│</text><text class="terminal-2710773658-r5" x="1085.8" y="386" textLength="12.2" clip-path="url(#terminal-2710773658-line-15)">│</text><text class="terminal-2710773658-r4" x="1098" y="386" textLength="12.2" clip-path="url(#terminal-2710773658-line-15)">
</text><text class="terminal-2710773658-r5" x="0" y="410.4" textLength="12.2" clip-path="url(#terminal-2710773658-line-16)">│</text><text class="terminal-2710773658-r9" x="48.8" y="410.4" textLength="12.2" clip-path="url(#terminal-2710773658-line-16)">│</text><text class="terminal-2710773658-r9" x="1037" y="410.4" textLength="12.2" clip-path="url(#terminal-2710773658-line-16)">│</text><text class="terminal-2710773658-r5" x="1085.8" y="410.4" textLength="12.2" clip-path="url(#terminal-2710773658-line-16)">│</text><text class="terminal-2710773658-r4" x="1098" y="410.4" textLength="12.2" clip-path="url(#terminal-2710773658-line-16)">
</text><text class="terminal-2710773658-r5" x="0" y="434.8" textLength="12.2" clip-path="url(#terminal-2710773658-line-17)">│</text><text class="terminal-2710773658-r9" x="48.8" y="434.8" textLength="12.2" clip-path="url(#terminal-2710773658-line-17)">│</text><text class="terminal-2710773658-r9" x="1037" y="434.8" textLength="12.2" clip-path="url(#terminal-2710773658-line-17)">│</text><text class="terminal-2710773658-r5" x="1085.8" y="434.8" textLength="12.2" clip-path="url(#terminal-2710773658-line-17)">│</text><text class="terminal-2710773658-r4" x="1098" y="434.8" textLength="12.2" clip-path="url(#terminal-2710773658-line-17)">
</text><text class="terminal-2710773658-r5" x="0" y="459.2" textLength="12.2" clip-path="url(#terminal-2710773658-line-18)">│</text><text class="terminal-2710773658-r9" x="48.8" y="459.2" textLength="12.2" clip-path="url(#terminal-2710773658-line-18)">│</text><text class="terminal-2710773658-r9" x="1037" y="459.2" textLength="12.2" clip-path="url(#terminal-2710773658-line-18)">│</text><text class="terminal-2710773658-r5" x="1085.8" y="459.2" textLength="12.2" clip-path="url(#terminal-2710773658-line-18)">│</text><text class="terminal-2710773658-r4" x="1098" y="459.2" textLength="12.2" clip-path="url(#terminal-2710773658-line-18)">
</text><text class="terminal-2710773658-r5" x="0" y="483.6" textLength="12.2" clip-path="url(#terminal-2710773658-line-19)">│</text><text class="terminal-2710773658-r9" x="48.8" y="483.6" textLength="12.2" clip-path="url(#terminal-2710773658-line-19)">╰</text><text class="terminal-2710773658-r9" x="61" y="483.6" textLength="976" clip-path="url(#terminal-2710773658-line-19)">────────────────────────────────────────────────────────────────────────────────</text><text class="terminal-2710773658-r9" x="1037" y="483.6" textLength="12.2" clip-path="url(#terminal-2710773658-line-19)">╯</text><text class="terminal-2710773658-r5" x="1085.8" y="483.6" textLength="12.2" clip-path="url(#terminal-2710773658-line-19)">│</text><text class="terminal-2710773658-r4" x="1098" y="483.6" textLength="12.2" clip-path="url(#terminal-2710773658-line-19)">
</text><text class="terminal-2710773658-r5" x="0" y="508" textLength="12.2" clip-path="url(#terminal-2710773658-line-20)">│</text><text class="terminal-2710773658-r5" x="1085.8" y="508" textLength="12.2" clip-path="url(#terminal-2710773658-line-20)">│</text><text class="terminal-2710773658-r4" x="1098" y="508" textLength="12.2" clip-path="url(#terminal-2710773658-line-20)">
</text><text class="terminal-2710773658-r5" x="0" y="532.4" textLength="12.2" clip-path="url(#terminal-2710773658-line-21)">│</text><text class="terminal-2710773658-r5" x="1085.8" y="532.4" textLength="12.2" clip-path="url(#terminal-2710773658-line-21)">│</text><text class="terminal-2710773658-r4" x="1098" y="532.4" textLength="12.2" clip-path="url(#terminal-2710773658-line-21)">
</text><text class="terminal-2710773658-r5" x="0" y="556.8" textLength="12.2" clip-path="url(#terminal-2710773658-line-22)">│</text><text class="terminal-2710773658-r5" x="1085.8" y="556.8" textLength="12.2" clip-path="url(#terminal-2710773658-line-22)">│</text><text class="terminal-2710773658-r4" x="1098" y="556.8" textLength="12.2" clip-path="url(#terminal-2710773658-line-22)">
</text><text class="terminal-2710773658-r5" x="0" y="581.2" textLength="12.2" clip-path="url(#terminal-2710773658-line-23)">│</text><text class="terminal-2710773658-r5" x="1085.8" y="581.2" textLength="12.2" clip-path="url(#terminal-2710773658-line-23)">│</text><text class="terminal-2710773658-r4" x="1098" y="581.2" textLength="12.2" clip-path="url(#terminal-2710773658-line-23)">
</text><text class="terminal-2710773658-r5" x="0" y="605.6" textLength="1098" clip-path="url(#terminal-2710773658-line-24)">└────────────────────────────────────────────────────────────────────────────────────────┘</text><text class="terminal-2710773658-r4" x="1098" y="605.6" textLength="12.2" clip-path="url(#terminal-2710773658-line-24)">
</text><text class="terminal-2710773658-r17" x="707.6" y="630" textLength="170.8" clip-path="url(#terminal-2710773658-line-25)">ssh:playground</text><text class="terminal-2710773658-r1" x="890.6" y="630" textLength="61" clip-path="url(#terminal-2710773658-line-25)">18:17</text><text class="terminal-2710773658-r1" x="963.8" y="630" textLength="122" clip-path="url(#terminal-2710773658-line-25)">2026-06-20</text>
    </g>
    </g>
</svg>
