<svg class="rich-terminal" viewBox="0 0 1116 684.4" xmlns="http://www.w3.org/2000/svg">
    <!-- Generated with Rich https://www.textualize.io -->
    <style>

    @font-face {
        font-family: "Fira Code";
        src: local("FiraCode-Regular"),
                url("https://cdnjs.cloudflare.com/ajax/libs/firacode/6.2.0/woff2/FiraCode-Regular.woff2") format("woff2"),
                url("https://cdnjs.cloudflare.com/ajax/libs/firacode/6.2.0/woff/FiraCode-Regular.woff") format("woff");
        font-style: normal;
        font-weight: 400;
    }
    @font-face {
        font-family: "Fira Code";
        src: local("FiraCode-Bold"),
                url("https://cdnjs.cloudflare.com/ajax/libs/firacode/6.2.0/woff2/FiraCode-Bold.woff2") format("woff2"),
                url("https://cdnjs.cloudflare.com/ajax/libs/firacode/6.2.0/woff/FiraCode-Bold.woff") format("woff");
        font-style: bold;
        font-weight: 700;
    }

    .terminal-856382421-matrix {
        font-family: Fira Code, "Apple SD Gothic Neo", monospace;
        font-size: 20px;
        line-height: 24.4px;
        font-variant-east-asian: full-width;
    }

    .terminal-856382421-title {
        font-size: 18px;
        font-weight: bold;
        font-family: arial;
    }

    .terminal-856382421-r1 { fill: #e0e0e0 }
.terminal-856382421-r2 { fill: #c4c5b5;font-weight: bold }
.terminal-856382421-r3 { fill: #1a1a1a;font-weight: bold }
.terminal-856382421-r4 { fill: #c5c8c6 }
.terminal-856382421-r5 { fill: #0178d4;font-weight: bold }
.terminal-856382421-r6 { fill: #0178d4 }
.terminal-856382421-r7 { fill: #b93c5b;font-weight: bold }
    </style>

    <defs>
    <clipPath id="terminal-856382421-clip-terminal">
      <rect x="0" y="0" width="1097.0" height="633.4" />
    </clipPath>
    <clipPath id="terminal-856382421-line-0">
    <rect x="0" y="1.5" width="1098" height="24.65"/>
            </clipPath>
<clipPath id="terminal-856382421-line-1">
    <rect x="0" y="25.9" width="1098" height="24.65"/>
            </clipPath>
<clipPath id="terminal-856382421-line-2">
    <rect x="0" y="50.3" width="1098" height="24.65"/>
            </clipPath>
<clipPath id="terminal-856382421-line-3">
    <rect x="0" y="74.7" width="1098" height="24.65"/>
            </clipPath>
<clipPath id="terminal-856382421-line-4">
    <rect x="0" y="99.1" width="1098" height="24.65"/>
            </clipPath>
<clipPath id="terminal-856382421-line-5">
    <rect x="0" y="123.5" width="1098" height="24.65"/>
            </clipPath>
<clipPath id="terminal-856382421-line-6">
    <rect x="0" y="147.9" width="1098" height="24.65"/>
            </clipPath>
<clipPath id="terminal-856382421-line-7">
    <rect x="0" y="172.3" width="1098" height="24.65"/>
            </clipPath>
<clipPath id="terminal-856382421-line-8">
    <rect x="0" y="196.7" width="1098" height="24.65"/>
            </clipPath>
<clipPath id="terminal-856382421-line-9">
    <rect x="0" y="221.1" width="1098" height="24.65"/>
            </clipPath>
<clipPath id="terminal-856382421-line-10">
    <rect x="0" y="245.5" width="1098" height="24.65"/>
            </clipPath>
<clipPath id="terminal-856382421-line-11">
    <rect x="0" y="269.9" width="1098" height="24.65"/>
            </clipPath>
<clipPath id="terminal-856382421-line-12">
    <rect x="0" y="294.3" width="1098" height="24.65"/>
            </clipPath>
<clipPath id="terminal-856382421-line-13">
    <rect x="0" y="318.7" width="1098" height="24.65"/>
            </clipPath>
<clipPath id="terminal-856382421-line-14">
    <rect x="0" y="343.1" width="1098" height="24.65"/>
            </clipPath>
<clipPath id="terminal-856382421-line-15">
    <rect x="0" y="367.5" width="1098" height="24.65"/>
            </clipPath>
<clipPath id="terminal-856382421-line-16">
    <rect x="0" y="391.9" width="1098" height="24.65"/>
            </clipPath>
<clipPath id="terminal-856382421-line-17">
    <rect x="0" y="416.3" width="1098" height="24.65"/>
            </clipPath>
<clipPath id="terminal-856382421-line-18">
    <rect x="0" y="440.7" width="1098" height="24.65"/>
            </clipPath>
<clipPath id="terminal-856382421-line-19">
    <rect x="0" y="465.1" width="1098" height="24.65"/>
            </clipPath>
<clipPath id="terminal-856382421-line-20">
    <rect x="0" y="489.5" width="1098" height="24.65"/>
            </clipPath>
<clipPath id="terminal-856382421-line-21">
    <rect x="0" y="513.9" width="1098" height="24.65"/>
            </clipPath>
<clipPath id="terminal-856382421-line-22">
    <rect x="0" y="538.3" width="1098" height="24.65"/>
            </clipPath>
<clipPath id="terminal-856382421-line-23">
    <rect x="0" y="562.7" width="1098" height="24.65"/>
            </clipPath>
<clipPath id="terminal-856382421-line-24">
    <rect x="0" y="587.1" width="1098" height="24.65"/>
            </clipPath>
    </defs>

    <rect fill="#292929" stroke="rgba(255,255,255,0.35)" stroke-width="1" x="1" y="1" width="1114" height="682.4" rx="8"/><text class="terminal-856382421-title" fill="#c5c8c6" text-anchor="middle" x="557" y="27">PytmuxApp</text>
            <g transform="translate(26,22)">
            <circle cx="0" cy="0" r="7" fill="#ff5f57"/>
            <circle cx="22" cy="0" r="7" fill="#febc2e"/>
            <circle cx="44" cy="0" r="7" fill="#28c840"/>
            </g>
        
    <g transform="translate(9, 41)" clip-path="url(#terminal-856382421-clip-terminal)">
    <rect fill="#0178d4" x="12.2" y="1.5" width="85.4" height="24.65" shape-rendering="crispEdges"/><rect fill="#4ebf71" x="122" y="1.5" width="36.6" height="24.65" shape-rendering="crispEdges"/><rect fill="#0178d4" x="1000.4" y="25.9" width="48.8" height="24.65" shape-rendering="crispEdges"/><rect fill="#b93c5b" x="1049.2" y="25.9" width="36.6" height="24.65" shape-rendering="crispEdges"/>
    <g class="terminal-856382421-matrix">
    <text class="terminal-856382421-r2" x="12.2" y="20" textLength="85.4" clip-path="url(#terminal-856382421-line-0)">&#160;1:zsh&#160;</text><text class="terminal-856382421-r3" x="122" y="20" textLength="36.6" clip-path="url(#terminal-856382421-line-0)">[+]</text><text class="terminal-856382421-r4" x="1098" y="20" textLength="12.2" clip-path="url(#terminal-856382421-line-0)">
</text><text class="terminal-856382421-r5" x="0" y="44.4" textLength="12.2" clip-path="url(#terminal-856382421-line-1)">┌</text><text class="terminal-856382421-r6" x="12.2" y="44.4" textLength="85.4" clip-path="url(#terminal-856382421-line-1)">▀▀▀▀▀▀▀</text><text class="terminal-856382421-r5" x="97.6" y="44.4" textLength="902.8" clip-path="url(#terminal-856382421-line-1)">──────────────────────────────────────────────────────────────────────────</text><text class="terminal-856382421-r3" x="1000.4" y="44.4" textLength="48.8" clip-path="url(#terminal-856382421-line-1)">[EN]</text><text class="terminal-856382421-r2" x="1049.2" y="44.4" textLength="36.6" clip-path="url(#terminal-856382421-line-1)">[x]</text><text class="terminal-856382421-r5" x="1085.8" y="44.4" textLength="12.2" clip-path="url(#terminal-856382421-line-1)">┐</text><text class="terminal-856382421-r4" x="1098" y="44.4" textLength="12.2" clip-path="url(#terminal-856382421-line-1)">
</text><text class="terminal-856382421-r5" x="0" y="68.8" textLength="12.2" clip-path="url(#terminal-856382421-line-2)">│</text><text class="terminal-856382421-r4" x="12.2" y="68.8" textLength="109.8" clip-path="url(#terminal-856382421-line-2)">line&#160;22&#160;&#160;</text><g clip-path="url(#terminal-856382421-line-2)"><path fill="#c5c8c6" transform="translate(122 68.8) scale(0.0282081 -0.02)" d="M798 354C664 384 472 519 472 662V731H393V662C393 519 211 384 69 356L109 291C261 334 400 458 431 547C467 458 609 334 756 290ZM827 50V114H38V50Z"/><path fill="#c5c8c6" transform="translate(146.4 68.8) scale(0.0282081 -0.02)" d="M726 708H134V645H647V555C647 526 645 494 643 459L107 440L122 373L639 400C633 309 622 219 613 178L686 168C712 279 725 479 726 596ZM827 57V121H38V57Z"/><path fill="#c5c8c6" transform="translate(170.8 68.8) scale(0.0282081 -0.02)" d="M746 466V523H214V592H729V775H138V715H653V647H138V466H393V396H38V335H827V396H469V466ZM761 -54V6H205V86H734V269H130V213H658V140H129V-54Z"/><path fill="#c5c8c6" transform="translate(195.2 68.8) scale(0.0282081 -0.02)" d="M421 337V746H347V611H144V746H70V337ZM775 285V804H699V581H591V788H518V291H591V518H699V285ZM775 -70V238H184V175H697V-70ZM347 400H144V548H347Z"/></g><text class="terminal-856382421-r4" x="219.6" y="68.8" textLength="12.2" clip-path="url(#terminal-856382421-line-2)">&#160;</text><g clip-path="url(#terminal-856382421-line-2)"><path fill="#c5c8c6" transform="translate(231.8 68.8) scale(0.0282081 -0.02)" d="M353 404V465H148V636H399V699H71V143C258 142 357 150 449 169L439 231C365 213 256 206 148 207V404ZM527 421V-26H601V783H527V484H409V421ZM775 -70V804H700V-70Z"/><path fill="#c5c8c6" transform="translate(256.2 68.8) scale(0.0282081 -0.02)" d="M798 354C664 384 472 519 472 662V731H393V662C393 519 211 384 69 356L109 291C261 334 400 458 431 547C467 458 609 334 756 290ZM827 50V114H38V50Z"/><path fill="#c5c8c6" transform="translate(280.6 68.8) scale(0.0282081 -0.02)" d="M707 465V529H211V656H724V720H134V265H733V329H211V465ZM827 41V105H38V41Z"/></g><text class="terminal-856382421-r4" x="305" y="68.8" textLength="780.8" clip-path="url(#terminal-856382421-line-2)">&#160;&#160;&#160;&#160;&#160;&#160;&#160;&#160;&#160;&#160;&#160;&#160;&#160;&#160;&#160;&#160;&#160;&#160;&#160;&#160;&#160;&#160;&#160;&#160;&#160;&#160;&#160;&#160;&#160;&#160;&#160;&#160;&#160;&#160;&#160;&#160;&#160;&#160;&#160;&#160;&#160;&#160;&#160;&#160;&#160;&#160;&#160;&#160;&#160;&#160;&#160;&#160;&#160;&#160;&#160;&#160;&#160;&#160;&#160;&#160;&#160;&#160;&#160;&#160;</text><text class="terminal-856382421-r5" x="1085.8" y="68.8" textLength="12.2" clip-path="url(#terminal-856382421-line-2)">│</text><text class="terminal-856382421-r4" x="1098" y="68.8" textLength="12.2" clip-path="url(#terminal-856382421-line-2)">
</text><text class="terminal-856382421-r5" x="0" y="93.2" textLength="12.2" clip-path="url(#terminal-856382421-line-3)">│</text><text class="terminal-856382421-r4" x="12.2" y="93.2" textLength="109.8" clip-path="url(#terminal-856382421-line-3)">line&#160;23&#160;&#160;</text><g clip-path="url(#terminal-856382421-line-3)"><path fill="#c5c8c6" transform="translate(122 93.2) scale(0.0282081 -0.02)" d="M798 354C664 384 472 519 472 662V731H393V662C393 519 211 384 69 356L109 291C261 334 400 458 431 547C467 458 609 334 756 290ZM827 50V114H38V50Z"/><path fill="#c5c8c6" transform="translate(146.4 93.2) scale(0.0282081 -0.02)" d="M726 708H134V645H647V555C647 526 645 494 643 459L107 440L122 373L639 400C633 309 622 219 613 178L686 168C712 279 725 479 726 596ZM827 57V121H38V57Z"/><path fill="#c5c8c6" transform="translate(170.8 93.2) scale(0.0282081 -0.02)" d="M746 466V523H214V592H729V775H138V715H653V647H138V466H393V396H38V335H827V396H469V466ZM761 -54V6H205V86H734V269H130V213H658V140H129V-54Z"/><path fill="#c5c8c6" transform="translate(195.2 93.2) scale(0.0282081 -0.02)" d="M421 337V746H347V611H144V746H70V337ZM775 285V804H699V581H591V788H518V291H591V518H699V285ZM775 -70V238H184V175H697V-70ZM347 400H144V548H347Z"/></g><text class="terminal-856382421-r4" x="219.6" y="93.2" textLength="12.2" clip-path="url(#terminal-856382421-line-3)">&#160;</text><g clip-path="url(#terminal-856382421-line-3)"><path fill="#c5c8c6" transform="translate(231.8 93.2) scale(0.0282081 -0.02)" d="M353 404V465H148V636H399V699H71V143C258 142 357 150 449 169L439 231C365 213 256 206 148 207V404ZM527 421V-26H601V783H527V484H409V421ZM775 -70V804H700V-70Z"/><path fill="#c5c8c6" transform="translate(256.2 93.2) scale(0.0282081 -0.02)" d="M798 354C664 384 472 519 472 662V731H393V662C393 519 211 384 69 356L109 291C261 334 400 458 431 547C467 458 609 334 756 290ZM827 50V114H38V50Z"/><path fill="#c5c8c6" transform="translate(280.6 93.2) scale(0.0282081 -0.02)" d="M707 465V529H211V656H724V720H134V265H733V329H211V465ZM827 41V105H38V41Z"/></g><text class="terminal-856382421-r4" x="305" y="93.2" textLength="780.8" clip-path="url(#terminal-856382421-line-3)">&#160;&#160;&#160;&#160;&#160;&#160;&#160;&#160;&#160;&#160;&#160;&#160;&#160;&#160;&#160;&#160;&#160;&#160;&#160;&#160;&#160;&#160;&#160;&#160;&#160;&#160;&#160;&#160;&#160;&#160;&#160;&#160;&#160;&#160;&#160;&#160;&#160;&#160;&#160;&#160;&#160;&#160;&#160;&#160;&#160;&#160;&#160;&#160;&#160;&#160;&#160;&#160;&#160;&#160;&#160;&#160;&#160;&#160;&#160;&#160;&#160;&#160;&#160;&#160;</text><text class="terminal-856382421-r5" x="1085.8" y="93.2" textLength="12.2" clip-path="url(#terminal-856382421-line-3)">│</text><text class="terminal-856382421-r4" x="1098" y="93.2" textLength="12.2" clip-path="url(#terminal-856382421-line-3)">
</text><text class="terminal-856382421-r5" x="0" y="117.6" textLength="12.2" clip-path="url(#terminal-856382421-line-4)">│</text><text class="terminal-856382421-r4" x="12.2" y="117.6" textLength="109.8" clip-path="url(#terminal-856382421-line-4)">line&#160;24&#160;&#160;</text><g clip-path="url(#terminal-856382421-line-4)"><path fill="#c5c8c6" transform="translate(122 117.6) scale(0.0282081 -0.02)" d="M798 354C664 384 472 519 472 662V731H393V662C393 519 211 384 69 356L109 291C261 334 400 458 431 547C467 458 609 334 756 290ZM827 50V114H38V50Z"/><path fill="#c5c8c6" transform="translate(146.4 117.6) scale(0.0282081 -0.02)" d="M726 708H134V645H647V555C647 526 645 494 643 459L107 440L122 373L639 400C633 309 622 219 613 178L686 168C712 279 725 479 726 596ZM827 57V121H38V57Z"/><path fill="#c5c8c6" transform="translate(170.8 117.6) scale(0.0282081 -0.02)" d="M746 466V523H214V592H729V775H138V715H653V647H138V466H393V396H38V335H827V396H469V466ZM761 -54V6H205V86H734V269H130V213H658V140H129V-54Z"/><path fill="#c5c8c6" transform="translate(195.2 117.6) scale(0.0282081 -0.02)" d="M421 337V746H347V611H144V746H70V337ZM775 285V804H699V581H591V788H518V291H591V518H699V285ZM775 -70V238H184V175H697V-70ZM347 400H144V548H347Z"/></g><text class="terminal-856382421-r4" x="219.6" y="117.6" textLength="12.2" clip-path="url(#terminal-856382421-line-4)">&#160;</text><g clip-path="url(#terminal-856382421-line-4)"><path fill="#c5c8c6" transform="translate(231.8 117.6) scale(0.0282081 -0.02)" d="M353 404V465H148V636H399V699H71V143C258 142 357 150 449 169L439 231C365 213 256 206 148 207V404ZM527 421V-26H601V783H527V484H409V421ZM775 -70V804H700V-70Z"/><path fill="#c5c8c6" transform="translate(256.2 117.6) scale(0.0282081 -0.02)" d="M798 354C664 384 472 519 472 662V731H393V662C393 519 211 384 69 356L109 291C261 334 400 458 431 547C467 458 609 334 756 290ZM827 50V114H38V50Z"/><path fill="#c5c8c6" transform="translate(280.6 117.6) scale(0.0282081 -0.02)" d="M707 465V529H211V656H724V720H134V265H733V329H211V465ZM827 41V105H38V41Z"/></g><text class="terminal-856382421-r4" x="305" y="117.6" textLength="780.8" clip-path="url(#terminal-856382421-line-4)">&#160;&#160;&#160;&#160;&#160;&#160;&#160;&#160;&#160;&#160;&#160;&#160;&#160;&#160;&#160;&#160;&#160;&#160;&#160;&#160;&#160;&#160;&#160;&#160;&#160;&#160;&#160;&#160;&#160;&#160;&#160;&#160;&#160;&#160;&#160;&#160;&#160;&#160;&#160;&#160;&#160;&#160;&#160;&#160;&#160;&#160;&#160;&#160;&#160;&#160;&#160;&#160;&#160;&#160;&#160;&#160;&#160;&#160;&#160;&#160;&#160;&#160;&#160;&#160;</text><text class="terminal-856382421-r5" x="1085.8" y="117.6" textLength="12.2" clip-path="url(#terminal-856382421-line-4)">│</text><text class="terminal-856382421-r4" x="1098" y="117.6" textLength="12.2" clip-path="url(#terminal-856382421-line-4)">
</text><text class="terminal-856382421-r5" x="0" y="142" textLength="12.2" clip-path="url(#terminal-856382421-line-5)">│</text><text class="terminal-856382421-r4" x="12.2" y="142" textLength="109.8" clip-path="url(#terminal-856382421-line-5)">line&#160;25&#160;&#160;</text><g clip-path="url(#terminal-856382421-line-5)"><path fill="#c5c8c6" transform="translate(122 142) scale(0.0282081 -0.02)" d="M798 354C664 384 472 519 472 662V731H393V662C393 519 211 384 69 356L109 291C261 334 400 458 431 547C467 458 609 334 756 290ZM827 50V114H38V50Z"/><path fill="#c5c8c6" transform="translate(146.4 142) scale(0.0282081 -0.02)" d="M726 708H134V645H647V555C647 526 645 494 643 459L107 440L122 373L639 400C633 309 622 219 613 178L686 168C712 279 725 479 726 596ZM827 57V121H38V57Z"/><path fill="#c5c8c6" transform="translate(170.8 142) scale(0.0282081 -0.02)" d="M746 466V523H214V592H729V775H138V715H653V647H138V466H393V396H38V335H827V396H469V466ZM761 -54V6H205V86H734V269H130V213H658V140H129V-54Z"/><path fill="#c5c8c6" transform="translate(195.2 142) scale(0.0282081 -0.02)" d="M421 337V746H347V611H144V746H70V337ZM775 285V804H699V581H591V788H518V291H591V518H699V285ZM775 -70V238H184V175H697V-70ZM347 400H144V548H347Z"/></g><text class="terminal-856382421-r4" x="219.6" y="142" textLength="12.2" clip-path="url(#terminal-856382421-line-5)">&#160;</text><g clip-path="url(#terminal-856382421-line-5)"><path fill="#c5c8c6" transform="translate(231.8 142) scale(0.0282081 -0.02)" d="M353 404V465H148V636H399V699H71V143C258 142 357 150 449 169L439 231C365 213 256 206 148 207V404ZM527 421V-26H601V783H527V484H409V421ZM775 -70V804H700V-70Z"/><path fill="#c5c8c6" transform="translate(256.2 142) scale(0.0282081 -0.02)" d="M798 354C664 384 472 519 472 662V731H393V662C393 519 211 384 69 356L109 291C261 334 400 458 431 547C467 458 609 334 756 290ZM827 50V114H38V50Z"/><path fill="#c5c8c6" transform="translate(280.6 142) scale(0.0282081 -0.02)" d="M707 465V529H211V656H724V720H134V265H733V329H211V465ZM827 41V105H38V41Z"/></g><text class="terminal-856382421-r4" x="305" y="142" textLength="780.8" clip-path="url(#terminal-856382421-line-5)">&#160;&#160;&#160;&#160;&#160;&#160;&#160;&#160;&#160;&#160;&#160;&#160;&#160;&#160;&#160;&#160;&#160;&#160;&#160;&#160;&#160;&#160;&#160;&#160;&#160;&#160;&#160;&#160;&#160;&#160;&#160;&#160;&#160;&#160;&#160;&#160;&#160;&#160;&#160;&#160;&#160;&#160;&#160;&#160;&#160;&#160;&#160;&#160;&#160;&#160;&#160;&#160;&#160;&#160;&#160;&#160;&#160;&#160;&#160;&#160;&#160;&#160;&#160;&#160;</text><text class="terminal-856382421-r5" x="1085.8" y="142" textLength="12.2" clip-path="url(#terminal-856382421-line-5)">│</text><text class="terminal-856382421-r4" x="1098" y="142" textLength="12.2" clip-path="url(#terminal-856382421-line-5)">
</text><text class="terminal-856382421-r5" x="0" y="166.4" textLength="12.2" clip-path="url(#terminal-856382421-line-6)">│</text><text class="terminal-856382421-r4" x="12.2" y="166.4" textLength="109.8" clip-path="url(#terminal-856382421-line-6)">line&#160;26&#160;&#160;</text><g clip-path="url(#terminal-856382421-line-6)"><path fill="#c5c8c6" transform="translate(122 166.4) scale(0.0282081 -0.02)" d="M798 354C664 384 472 519 472 662V731H393V662C393 519 211 384 69 356L109 291C261 334 400 458 431 547C467 458 609 334 756 290ZM827 50V114H38V50Z"/><path fill="#c5c8c6" transform="translate(146.4 166.4) scale(0.0282081 -0.02)" d="M726 708H134V645H647V555C647 526 645 494 643 459L107 440L122 373L639 400C633 309 622 219 613 178L686 168C712 279 725 479 726 596ZM827 57V121H38V57Z"/><path fill="#c5c8c6" transform="translate(170.8 166.4) scale(0.0282081 -0.02)" d="M746 466V523H214V592H729V775H138V715H653V647H138V466H393V396H38V335H827V396H469V466ZM761 -54V6H205V86H734V269H130V213H658V140H129V-54Z"/><path fill="#c5c8c6" transform="translate(195.2 166.4) scale(0.0282081 -0.02)" d="M421 337V746H347V611H144V746H70V337ZM775 285V804H699V581H591V788H518V291H591V518H699V285ZM775 -70V238H184V175H697V-70ZM347 400H144V548H347Z"/></g><text class="terminal-856382421-r4" x="219.6" y="166.4" textLength="12.2" clip-path="url(#terminal-856382421-line-6)">&#160;</text><g clip-path="url(#terminal-856382421-line-6)"><path fill="#c5c8c6" transform="translate(231.8 166.4) scale(0.0282081 -0.02)" d="M353 404V465H148V636H399V699H71V143C258 142 357 150 449 169L439 231C365 213 256 206 148 207V404ZM527 421V-26H601V783H527V484H409V421ZM775 -70V804H700V-70Z"/><path fill="#c5c8c6" transform="translate(256.2 166.4) scale(0.0282081 -0.02)" d="M798 354C664 384 472 519 472 662V731H393V662C393 519 211 384 69 356L109 291C261 334 400 458 431 547C467 458 609 334 756 290ZM827 50V114H38V50Z"/><path fill="#c5c8c6" transform="translate(280.6 166.4) scale(0.0282081 -0.02)" d="M707 465V529H211V656H724V720H134V265H733V329H211V465ZM827 41V105H38V41Z"/></g><text class="terminal-856382421-r4" x="305" y="166.4" textLength="780.8" clip-path="url(#terminal-856382421-line-6)">&#160;&#160;&#160;&#160;&#160;&#160;&#160;&#160;&#160;&#160;&#160;&#160;&#160;&#160;&#160;&#160;&#160;&#160;&#160;&#160;&#160;&#160;&#160;&#160;&#160;&#160;&#160;&#160;&#160;&#160;&#160;&#160;&#160;&#160;&#160;&#160;&#160;&#160;&#160;&#160;&#160;&#160;&#160;&#160;&#160;&#160;&#160;&#160;&#160;&#160;&#160;&#160;&#160;&#160;&#160;&#160;&#160;&#160;&#160;&#160;&#160;&#160;&#160;&#160;</text><text class="terminal-856382421-r5" x="1085.8" y="166.4" textLength="12.2" clip-path="url(#terminal-856382421-line-6)">│</text><text class="terminal-856382421-r4" x="1098" y="166.4" textLength="12.2" clip-path="url(#terminal-856382421-line-6)">
</text><text class="terminal-856382421-r5" x="0" y="190.8" textLength="12.2" clip-path="url(#terminal-856382421-line-7)">│</text><text class="terminal-856382421-r4" x="12.2" y="190.8" textLength="109.8" clip-path="url(#terminal-856382421-line-7)">line&#160;27&#160;&#160;</text><g clip-path="url(#terminal-856382421-line-7)"><path fill="#c5c8c6" transform="translate(122 190.8) scale(0.0282081 -0.02)" d="M798 354C664 384 472 519 472 662V731H393V662C393 519 211 384 69 356L109 291C261 334 400 458 431 547C467 458 609 334 756 290ZM827 50V114H38V50Z"/><path fill="#c5c8c6" transform="translate(146.4 190.8) scale(0.0282081 -0.02)" d="M726 708H134V645H647V555C647 526 645 494 643 459L107 440L122 373L639 400C633 309 622 219 613 178L686 168C712 279 725 479 726 596ZM827 57V121H38V57Z"/><path fill="#c5c8c6" transform="translate(170.8 190.8) scale(0.0282081 -0.02)" d="M746 466V523H214V592H729V775H138V715H653V647H138V466H393V396H38V335H827V396H469V466ZM761 -54V6H205V86H734V269H130V213H658V140H129V-54Z"/><path fill="#c5c8c6" transform="translate(195.2 190.8) scale(0.0282081 -0.02)" d="M421 337V746H347V611H144V746H70V337ZM775 285V804H699V581H591V788H518V291H591V518H699V285ZM775 -70V238H184V175H697V-70ZM347 400H144V548H347Z"/></g><text class="terminal-856382421-r4" x="219.6" y="190.8" textLength="12.2" clip-path="url(#terminal-856382421-line-7)">&#160;</text><g clip-path="url(#terminal-856382421-line-7)"><path fill="#c5c8c6" transform="translate(231.8 190.8) scale(0.0282081 -0.02)" d="M353 404V465H148V636H399V699H71V143C258 142 357 150 449 169L439 231C365 213 256 206 148 207V404ZM527 421V-26H601V783H527V484H409V421ZM775 -70V804H700V-70Z"/><path fill="#c5c8c6" transform="translate(256.2 190.8) scale(0.0282081 -0.02)" d="M798 354C664 384 472 519 472 662V731H393V662C393 519 211 384 69 356L109 291C261 334 400 458 431 547C467 458 609 334 756 290ZM827 50V114H38V50Z"/><path fill="#c5c8c6" transform="translate(280.6 190.8) scale(0.0282081 -0.02)" d="M707 465V529H211V656H724V720H134V265H733V329H211V465ZM827 41V105H38V41Z"/></g><text class="terminal-856382421-r4" x="305" y="190.8" textLength="780.8" clip-path="url(#terminal-856382421-line-7)">&#160;&#160;&#160;&#160;&#160;&#160;&#160;&#160;&#160;&#160;&#160;&#160;&#160;&#160;&#160;&#160;&#160;&#160;&#160;&#160;&#160;&#160;&#160;&#160;&#160;&#160;&#160;&#160;&#160;&#160;&#160;&#160;&#160;&#160;&#160;&#160;&#160;&#160;&#160;&#160;&#160;&#160;&#160;&#160;&#160;&#160;&#160;&#160;&#160;&#160;&#160;&#160;&#160;&#160;&#160;&#160;&#160;&#160;&#160;&#160;&#160;&#160;&#160;&#160;</text><text class="terminal-856382421-r5" x="1085.8" y="190.8" textLength="12.2" clip-path="url(#terminal-856382421-line-7)">│</text><text class="terminal-856382421-r4" x="1098" y="190.8" textLength="12.2" clip-path="url(#terminal-856382421-line-7)">
</text><text class="terminal-856382421-r5" x="0" y="215.2" textLength="12.2" clip-path="url(#terminal-856382421-line-8)">│</text><text class="terminal-856382421-r4" x="12.2" y="215.2" textLength="109.8" clip-path="url(#terminal-856382421-line-8)">line&#160;28&#160;&#160;</text><g clip-path="url(#terminal-856382421-line-8)"><path fill="#c5c8c6" transform="translate(122 215.2) scale(0.0282081 -0.02)" d="M798 354C664 384 472 519 472 662V731H393V662C393 519 211 384 69 356L109 291C261 334 400 458 431 547C467 458 609 334 756 290ZM827 50V114H38V50Z"/><path fill="#c5c8c6" transform="translate(146.4 215.2) scale(0.0282081 -0.02)" d="M726 708H134V645H647V555C647 526 645 494 643 459L107 440L122 373L639 400C633 309 622 219 613 178L686 168C712 279 725 479 726 596ZM827 57V121H38V57Z"/><path fill="#c5c8c6" transform="translate(170.8 215.2) scale(0.0282081 -0.02)" d="M746 466V523H214V592H729V775H138V715H653V647H138V466H393V396H38V335H827V396H469V466ZM761 -54V6H205V86H734V269H130V213H658V140H129V-54Z"/><path fill="#c5c8c6" transform="translate(195.2 215.2) scale(0.0282081 -0.02)" d="M421 337V746H347V611H144V746H70V337ZM775 285V804H699V581H591V788H518V291H591V518H699V285ZM775 -70V238H184V175H697V-70ZM347 400H144V548H347Z"/></g><text class="terminal-856382421-r4" x="219.6" y="215.2" textLength="12.2" clip-path="url(#terminal-856382421-line-8)">&#160;</text><g clip-path="url(#terminal-856382421-line-8)"><path fill="#c5c8c6" transform="translate(231.8 215.2) scale(0.0282081 -0.02)" d="M353 404V465H148V636H399V699H71V143C258 142 357 150 449 169L439 231C365 213 256 206 148 207V404ZM527 421V-26H601V783H527V484H409V421ZM775 -70V804H700V-70Z"/><path fill="#c5c8c6" transform="translate(256.2 215.2) scale(0.0282081 -0.02)" d="M798 354C664 384 472 519 472 662V731H393V662C393 519 211 384 69 356L109 291C261 334 400 458 431 547C467 458 609 334 756 290ZM827 50V114H38V50Z"/><path fill="#c5c8c6" transform="translate(280.6 215.2) scale(0.0282081 -0.02)" d="M707 465V529H211V656H724V720H134V265H733V329H211V465ZM827 41V105H38V41Z"/></g><text class="terminal-856382421-r4" x="305" y="215.2" textLength="780.8" clip-path="url(#terminal-856382421-line-8)">&#160;&#160;&#160;&#160;&#160;&#160;&#160;&#160;&#160;&#160;&#160;&#160;&#160;&#160;&#160;&#160;&#160;&#160;&#160;&#160;&#160;&#160;&#160;&#160;&#160;&#160;&#160;&#160;&#160;&#160;&#160;&#160;&#160;&#160;&#160;&#160;&#160;&#160;&#160;&#160;&#160;&#160;&#160;&#160;&#160;&#160;&#160;&#160;&#160;&#160;&#160;&#160;&#160;&#160;&#160;&#160;&#160;&#160;&#160;&#160;&#160;&#160;&#160;&#160;</text><text class="terminal-856382421-r5" x="1085.8" y="215.2" textLength="12.2" clip-path="url(#terminal-856382421-line-8)">│</text><text class="terminal-856382421-r4" x="1098" y="215.2" textLength="12.2" clip-path="url(#terminal-856382421-line-8)">
</text><text class="terminal-856382421-r5" x="0" y="239.6" textLength="12.2" clip-path="url(#terminal-856382421-line-9)">│</text><text class="terminal-856382421-r4" x="12.2" y="239.6" textLength="109.8" clip-path="url(#terminal-856382421-line-9)">line&#160;29&#160;&#160;</text><g clip-path="url(#terminal-856382421-line-9)"><path fill="#c5c8c6" transform="translate(122 239.6) scale(0.0282081 -0.02)" d="M798 354C664 384 472 519 472 662V731H393V662C393 519 211 384 69 356L109 291C261 334 400 458 431 547C467 458 609 334 756 290ZM827 50V114H38V50Z"/><path fill="#c5c8c6" transform="translate(146.4 239.6) scale(0.0282081 -0.02)" d="M726 708H134V645H647V555C647 526 645 494 643 459L107 440L122 373L639 400C633 309 622 219 613 178L686 168C712 279 725 479 726 596ZM827 57V121H38V57Z"/><path fill="#c5c8c6" transform="translate(170.8 239.6) scale(0.0282081 -0.02)" d="M746 466V523H214V592H729V775H138V715H653V647H138V466H393V396H38V335H827V396H469V466ZM761 -54V6H205V86H734V269H130V213H658V140H129V-54Z"/><path fill="#c5c8c6" transform="translate(195.2 239.6) scale(0.0282081 -0.02)" d="M421 337V746H347V611H144V746H70V337ZM775 285V804H699V581H591V788H518V291H591V518H699V285ZM775 -70V238H184V175H697V-70ZM347 400H144V548H347Z"/></g><text class="terminal-856382421-r4" x="219.6" y="239.6" textLength="12.2" clip-path="url(#terminal-856382421-line-9)">&#160;</text><g clip-path="url(#terminal-856382421-line-9)"><path fill="#c5c8c6" transform="translate(231.8 239.6) scale(0.0282081 -0.02)" d="M353 404V465H148V636H399V699H71V143C258 142 357 150 449 169L439 231C365 213 256 206 148 207V404ZM527 421V-26H601V783H527V484H409V421ZM775 -70V804H700V-70Z"/><path fill="#c5c8c6" transform="translate(256.2 239.6) scale(0.0282081 -0.02)" d="M798 354C664 384 472 519 472 662V731H393V662C393 519 211 384 69 356L109 291C261 334 400 458 431 547C467 458 609 334 756 290ZM827 50V114H38V50Z"/><path fill="#c5c8c6" transform="translate(280.6 239.6) scale(0.0282081 -0.02)" d="M707 465V529H211V656H724V720H134V265H733V329H211V465ZM827 41V105H38V41Z"/></g><text class="terminal-856382421-r4" x="305" y="239.6" textLength="780.8" clip-path="url(#terminal-856382421-line-9)">&#160;&#160;&#160;&#160;&#160;&#160;&#160;&#160;&#160;&#160;&#160;&#160;&#160;&#160;&#160;&#160;&#160;&#160;&#160;&#160;&#160;&#160;&#160;&#160;&#160;&#160;&#160;&#160;&#160;&#160;&#160;&#160;&#160;&#160;&#160;&#160;&#160;&#160;&#160;&#160;&#160;&#160;&#160;&#160;&#160;&#160;&#160;&#160;&#160;&#160;&#160;&#160;&#160;&#160;&#160;&#160;&#160;&#160;&#160;&#160;&#160;&#160;&#160;&#160;</text><text class="terminal-856382421-r5" x="1085.8" y="239.6" textLength="12.2" clip-path="url(#terminal-856382421-line-9)">│</text><text class="terminal-856382421-r4" x="1098" y="239.6" textLength="12.2" clip-path="url(#terminal-856382421-line-9)">
</text><text class="terminal-856382421-r5" x="0" y="264" textLength="12.2" clip-path="url(#terminal-856382421-line-10)">│</text><text class="terminal-856382421-r4" x="12.2" y="264" textLength="109.8" clip-path="url(#terminal-856382421-line-10)">line&#160;30&#160;&#160;</text><g clip-path="url(#terminal-856382421-line-10)"><path fill="#c5c8c6" transform="translate(122 264) scale(0.0282081 -0.02)" d="M798 354C664 384 472 519 472 662V731H393V662C393 519 211 384 69 356L109 291C261 334 400 458 431 547C467 458 609 334 756 290ZM827 50V114H38V50Z"/><path fill="#c5c8c6" transform="translate(146.4 264) scale(0.0282081 -0.02)" d="M726 708H134V645H647V555C647 526 645 494 643 459L107 440L122 373L639 400C633 309 622 219 613 178L686 168C712 279 725 479 726 596ZM827 57V121H38V57Z"/><path fill="#c5c8c6" transform="translate(170.8 264) scale(0.0282081 -0.02)" d="M746 466V523H214V592H729V775H138V715H653V647H138V466H393V396H38V335H827V396H469V466ZM761 -54V6H205V86H734V269H130V213H658V140H129V-54Z"/><path fill="#c5c8c6" transform="translate(195.2 264) scale(0.0282081 -0.02)" d="M421 337V746H347V611H144V746H70V337ZM775 285V804H699V581H591V788H518V291H591V518H699V285ZM775 -70V238H184V175H697V-70ZM347 400H144V548H347Z"/></g><text class="terminal-856382421-r4" x="219.6" y="264" textLength="12.2" clip-path="url(#terminal-856382421-line-10)">&#160;</text><g clip-path="url(#terminal-856382421-line-10)"><path fill="#c5c8c6" transform="translate(231.8 264) scale(0.0282081 -0.02)" d="M353 404V465H148V636H399V699H71V143C258 142 357 150 449 169L439 231C365 213 256 206 148 207V404ZM527 421V-26H601V783H527V484H409V421ZM775 -70V804H700V-70Z"/><path fill="#c5c8c6" transform="translate(256.2 264) scale(0.0282081 -0.02)" d="M798 354C664 384 472 519 472 662V731H393V662C393 519 211 384 69 356L109 291C261 334 400 458 431 547C467 458 609 334 756 290ZM827 50V114H38V50Z"/><path fill="#c5c8c6" transform="translate(280.6 264) scale(0.0282081 -0.02)" d="M707 465V529H211V656H724V720H134V265H733V329H211V465ZM827 41V105H38V41Z"/></g><text class="terminal-856382421-r4" x="305" y="264" textLength="780.8" clip-path="url(#terminal-856382421-line-10)">&#160;&#160;&#160;&#160;&#160;&#160;&#160;&#160;&#160;&#160;&#160;&#160;&#160;&#160;&#160;&#160;&#160;&#160;&#160;&#160;&#160;&#160;&#160;&#160;&#160;&#160;&#160;&#160;&#160;&#160;&#160;&#160;&#160;&#160;&#160;&#160;&#160;&#160;&#160;&#160;&#160;&#160;&#160;&#160;&#160;&#160;&#160;&#160;&#160;&#160;&#160;&#160;&#160;&#160;&#160;&#160;&#160;&#160;&#160;&#160;&#160;&#160;&#160;&#160;</text><text class="terminal-856382421-r5" x="1085.8" y="264" textLength="12.2" clip-path="url(#terminal-856382421-line-10)">│</text><text class="terminal-856382421-r4" x="1098" y="264" textLength="12.2" clip-path="url(#terminal-856382421-line-10)">
</text><text class="terminal-856382421-r5" x="0" y="288.4" textLength="12.2" clip-path="url(#terminal-856382421-line-11)">│</text><text class="terminal-856382421-r4" x="12.2" y="288.4" textLength="109.8" clip-path="url(#terminal-856382421-line-11)">line&#160;31&#160;&#160;</text><g clip-path="url(#terminal-856382421-line-11)"><path fill="#c5c8c6" transform="translate(122 288.4) scale(0.0282081 -0.02)" d="M798 354C664 384 472 519 472 662V731H393V662C393 519 211 384 69 356L109 291C261 334 400 458 431 547C467 458 609 334 756 290ZM827 50V114H38V50Z"/><path fill="#c5c8c6" transform="translate(146.4 288.4) scale(0.0282081 -0.02)" d="M726 708H134V645H647V555C647 526 645 494 643 459L107 440L122 373L639 400C633 309 622 219 613 178L686 168C712 279 725 479 726 596ZM827 57V121H38V57Z"/><path fill="#c5c8c6" transform="translate(170.8 288.4) scale(0.0282081 -0.02)" d="M746 466V523H214V592H729V775H138V715H653V647H138V466H393V396H38V335H827V396H469V466ZM761 -54V6H205V86H734V269H130V213H658V140H129V-54Z"/><path fill="#c5c8c6" transform="translate(195.2 288.4) scale(0.0282081 -0.02)" d="M421 337V746H347V611H144V746H70V337ZM775 285V804H699V581H591V788H518V291H591V518H699V285ZM775 -70V238H184V175H697V-70ZM347 400H144V548H347Z"/></g><text class="terminal-856382421-r4" x="219.6" y="288.4" textLength="12.2" clip-path="url(#terminal-856382421-line-11)">&#160;</text><g clip-path="url(#terminal-856382421-line-11)"><path fill="#c5c8c6" transform="translate(231.8 288.4) scale(0.0282081 -0.02)" d="M353 404V465H148V636H399V699H71V143C258 142 357 150 449 169L439 231C365 213 256 206 148 207V404ZM527 421V-26H601V783H527V484H409V421ZM775 -70V804H700V-70Z"/><path fill="#c5c8c6" transform="translate(256.2 288.4) scale(0.0282081 -0.02)" d="M798 354C664 384 472 519 472 662V731H393V662C393 519 211 384 69 356L109 291C261 334 400 458 431 547C467 458 609 334 756 290ZM827 50V114H38V50Z"/><path fill="#c5c8c6" transform="translate(280.6 288.4) scale(0.0282081 -0.02)" d="M707 465V529H211V656H724V720H134V265H733V329H211V465ZM827 41V105H38V41Z"/></g><text class="terminal-856382421-r4" x="305" y="288.4" textLength="780.8" clip-path="url(#terminal-856382421-line-11)">&#160;&#160;&#160;&#160;&#160;&#160;&#160;&#160;&#160;&#160;&#160;&#160;&#160;&#160;&#160;&#160;&#160;&#160;&#160;&#160;&#160;&#160;&#160;&#160;&#160;&#160;&#160;&#160;&#160;&#160;&#160;&#160;&#160;&#160;&#160;&#160;&#160;&#160;&#160;&#160;&#160;&#160;&#160;&#160;&#160;&#160;&#160;&#160;&#160;&#160;&#160;&#160;&#160;&#160;&#160;&#160;&#160;&#160;&#160;&#160;&#160;&#160;&#160;&#160;</text><text class="terminal-856382421-r5" x="1085.8" y="288.4" textLength="12.2" clip-path="url(#terminal-856382421-line-11)">│</text><text class="terminal-856382421-r4" x="1098" y="288.4" textLength="12.2" clip-path="url(#terminal-856382421-line-11)">
</text><text class="terminal-856382421-r5" x="0" y="312.8" textLength="12.2" clip-path="url(#terminal-856382421-line-12)">│</text><text class="terminal-856382421-r4" x="12.2" y="312.8" textLength="109.8" clip-path="url(#terminal-856382421-line-12)">line&#160;32&#160;&#160;</text><g clip-path="url(#terminal-856382421-line-12)"><path fill="#c5c8c6" transform="translate(122 312.8) scale(0.0282081 -0.02)" d="M798 354C664 384 472 519 472 662V731H393V662C393 519 211 384 69 356L109 291C261 334 400 458 431 547C467 458 609 334 756 290ZM827 50V114H38V50Z"/><path fill="#c5c8c6" transform="translate(146.4 312.8) scale(0.0282081 -0.02)" d="M726 708H134V645H647V555C647 526 645 494 643 459L107 440L122 373L639 400C633 309 622 219 613 178L686 168C712 279 725 479 726 596ZM827 57V121H38V57Z"/><path fill="#c5c8c6" transform="translate(170.8 312.8) scale(0.0282081 -0.02)" d="M746 466V523H214V592H729V775H138V715H653V647H138V466H393V396H38V335H827V396H469V466ZM761 -54V6H205V86H734V269H130V213H658V140H129V-54Z"/><path fill="#c5c8c6" transform="translate(195.2 312.8) scale(0.0282081 -0.02)" d="M421 337V746H347V611H144V746H70V337ZM775 285V804H699V581H591V788H518V291H591V518H699V285ZM775 -70V238H184V175H697V-70ZM347 400H144V548H347Z"/></g><text class="terminal-856382421-r4" x="219.6" y="312.8" textLength="12.2" clip-path="url(#terminal-856382421-line-12)">&#160;</text><g clip-path="url(#terminal-856382421-line-12)"><path fill="#c5c8c6" transform="translate(231.8 312.8) scale(0.0282081 -0.02)" d="M353 404V465H148V636H399V699H71V143C258 142 357 150 449 169L439 231C365 213 256 206 148 207V404ZM527 421V-26H601V783H527V484H409V421ZM775 -70V804H700V-70Z"/><path fill="#c5c8c6" transform="translate(256.2 312.8) scale(0.0282081 -0.02)" d="M798 354C664 384 472 519 472 662V731H393V662C393 519 211 384 69 356L109 291C261 334 400 458 431 547C467 458 609 334 756 290ZM827 50V114H38V50Z"/><path fill="#c5c8c6" transform="translate(280.6 312.8) scale(0.0282081 -0.02)" d="M707 465V529H211V656H724V720H134V265H733V329H211V465ZM827 41V105H38V41Z"/></g><text class="terminal-856382421-r4" x="305" y="312.8" textLength="780.8" clip-path="url(#terminal-856382421-line-12)">&#160;&#160;&#160;&#160;&#160;&#160;&#160;&#160;&#160;&#160;&#160;&#160;&#160;&#160;&#160;&#160;&#160;&#160;&#160;&#160;&#160;&#160;&#160;&#160;&#160;&#160;&#160;&#160;&#160;&#160;&#160;&#160;&#160;&#160;&#160;&#160;&#160;&#160;&#160;&#160;&#160;&#160;&#160;&#160;&#160;&#160;&#160;&#160;&#160;&#160;&#160;&#160;&#160;&#160;&#160;&#160;&#160;&#160;&#160;&#160;&#160;&#160;&#160;&#160;</text><text class="terminal-856382421-r5" x="1085.8" y="312.8" textLength="12.2" clip-path="url(#terminal-856382421-line-12)">│</text><text class="terminal-856382421-r4" x="1098" y="312.8" textLength="12.2" clip-path="url(#terminal-856382421-line-12)">
</text><text class="terminal-856382421-r5" x="0" y="337.2" textLength="12.2" clip-path="url(#terminal-856382421-line-13)">│</text><text class="terminal-856382421-r4" x="12.2" y="337.2" textLength="109.8" clip-path="url(#terminal-856382421-line-13)">line&#160;33&#160;&#160;</text><g clip-path="url(#terminal-856382421-line-13)"><path fill="#c5c8c6" transform="translate(122 337.2) scale(0.0282081 -0.02)" d="M798 354C664 384 472 519 472 662V731H393V662C393 519 211 384 69 356L109 291C261 334 400 458 431 547C467 458 609 334 756 290ZM827 50V114H38V50Z"/><path fill="#c5c8c6" transform="translate(146.4 337.2) scale(0.0282081 -0.02)" d="M726 708H134V645H647V555C647 526 645 494 643 459L107 440L122 373L639 400C633 309 622 219 613 178L686 168C712 279 725 479 726 596ZM827 57V121H38V57Z"/><path fill="#c5c8c6" transform="translate(170.8 337.2) scale(0.0282081 -0.02)" d="M746 466V523H214V592H729V775H138V715H653V647H138V466H393V396H38V335H827V396H469V466ZM761 -54V6H205V86H734V269H130V213H658V140H129V-54Z"/><path fill="#c5c8c6" transform="translate(195.2 337.2) scale(0.0282081 -0.02)" d="M421 337V746H347V611H144V746H70V337ZM775 285V804H699V581H591V788H518V291H591V518H699V285ZM775 -70V238H184V175H697V-70ZM347 400H144V548H347Z"/></g><text class="terminal-856382421-r4" x="219.6" y="337.2" textLength="12.2" clip-path="url(#terminal-856382421-line-13)">&#160;</text><g clip-path="url(#terminal-856382421-line-13)"><path fill="#c5c8c6" transform="translate(231.8 337.2) scale(0.0282081 -0.02)" d="M353 404V465H148V636H399V699H71V143C258 142 357 150 449 169L439 231C365 213 256 206 148 207V404ZM527 421V-26H601V783H527V484H409V421ZM775 -70V804H700V-70Z"/><path fill="#c5c8c6" transform="translate(256.2 337.2) scale(0.0282081 -0.02)" d="M798 354C664 384 472 519 472 662V731H393V662C393 519 211 384 69 356L109 291C261 334 400 458 431 547C467 458 609 334 756 290ZM827 50V114H38V50Z"/><path fill="#c5c8c6" transform="translate(280.6 337.2) scale(0.0282081 -0.02)" d="M707 465V529H211V656H724V720H134V265H733V329H211V465ZM827 41V105H38V41Z"/></g><text class="terminal-856382421-r4" x="305" y="337.2" textLength="780.8" clip-path="url(#terminal-856382421-line-13)">&#160;&#160;&#160;&#160;&#160;&#160;&#160;&#160;&#160;&#160;&#160;&#160;&#160;&#160;&#160;&#160;&#160;&#160;&#160;&#160;&#160;&#160;&#160;&#160;&#160;&#160;&#160;&#160;&#160;&#160;&#160;&#160;&#160;&#160;&#160;&#160;&#160;&#160;&#160;&#160;&#160;&#160;&#160;&#160;&#160;&#160;&#160;&#160;&#160;&#160;&#160;&#160;&#160;&#160;&#160;&#160;&#160;&#160;&#160;&#160;&#160;&#160;&#160;&#160;</text><text class="terminal-856382421-r5" x="1085.8" y="337.2" textLength="12.2" clip-path="url(#terminal-856382421-line-13)">│</text><text class="terminal-856382421-r4" x="1098" y="337.2" textLength="12.2" clip-path="url(#terminal-856382421-line-13)">
</text><text class="terminal-856382421-r5" x="0" y="361.6" textLength="12.2" clip-path="url(#terminal-856382421-line-14)">│</text><text class="terminal-856382421-r4" x="12.2" y="361.6" textLength="109.8" clip-path="url(#terminal-856382421-line-14)">line&#160;34&#160;&#160;</text><g clip-path="url(#terminal-856382421-line-14)"><path fill="#c5c8c6" transform="translate(122 361.6) scale(0.0282081 -0.02)" d="M798 354C664 384 472 519 472 662V731H393V662C393 519 211 384 69 356L109 291C261 334 400 458 431 547C467 458 609 334 756 290ZM827 50V114H38V50Z"/><path fill="#c5c8c6" transform="translate(146.4 361.6) scale(0.0282081 -0.02)" d="M726 708H134V645H647V555C647 526 645 494 643 459L107 440L122 373L639 400C633 309 622 219 613 178L686 168C712 279 725 479 726 596ZM827 57V121H38V57Z"/><path fill="#c5c8c6" transform="translate(170.8 361.6) scale(0.0282081 -0.02)" d="M746 466V523H214V592H729V775H138V715H653V647H138V466H393V396H38V335H827V396H469V466ZM761 -54V6H205V86H734V269H130V213H658V140H129V-54Z"/><path fill="#c5c8c6" transform="translate(195.2 361.6) scale(0.0282081 -0.02)" d="M421 337V746H347V611H144V746H70V337ZM775 285V804H699V581H591V788H518V291H591V518H699V285ZM775 -70V238H184V175H697V-70ZM347 400H144V548H347Z"/></g><text class="terminal-856382421-r4" x="219.6" y="361.6" textLength="12.2" clip-path="url(#terminal-856382421-line-14)">&#160;</text><g clip-path="url(#terminal-856382421-line-14)"><path fill="#c5c8c6" transform="translate(231.8 361.6) scale(0.0282081 -0.02)" d="M353 404V465H148V636H399V699H71V143C258 142 357 150 449 169L439 231C365 213 256 206 148 207V404ZM527 421V-26H601V783H527V484H409V421ZM775 -70V804H700V-70Z"/><path fill="#c5c8c6" transform="translate(256.2 361.6) scale(0.0282081 -0.02)" d="M798 354C664 384 472 519 472 662V731H393V662C393 519 211 384 69 356L109 291C261 334 400 458 431 547C467 458 609 334 756 290ZM827 50V114H38V50Z"/><path fill="#c5c8c6" transform="translate(280.6 361.6) scale(0.0282081 -0.02)" d="M707 465V529H211V656H724V720H134V265H733V329H211V465ZM827 41V105H38V41Z"/></g><text class="terminal-856382421-r4" x="305" y="361.6" textLength="780.8" clip-path="url(#terminal-856382421-line-14)">&#160;&#160;&#160;&#160;&#160;&#160;&#160;&#160;&#160;&#160;&#160;&#160;&#160;&#160;&#160;&#160;&#160;&#160;&#160;&#160;&#160;&#160;&#160;&#160;&#160;&#160;&#160;&#160;&#160;&#160;&#160;&#160;&#160;&#160;&#160;&#160;&#160;&#160;&#160;&#160;&#160;&#160;&#160;&#160;&#160;&#160;&#160;&#160;&#160;&#160;&#160;&#160;&#160;&#160;&#160;&#160;&#160;&#160;&#160;&#160;&#160;&#160;&#160;&#160;</text><text class="terminal-856382421-r5" x="1085.8" y="361.6" textLength="12.2" clip-path="url(#terminal-856382421-line-14)">│</text><text class="terminal-856382421-r4" x="1098" y="361.6" textLength="12.2" clip-path="url(#terminal-856382421-line-14)">
</text><text class="terminal-856382421-r5" x="0" y="386" textLength="12.2" clip-path="url(#terminal-856382421-line-15)">│</text><text class="terminal-856382421-r4" x="12.2" y="386" textLength="109.8" clip-path="url(#terminal-856382421-line-15)">line&#160;35&#160;&#160;</text><g clip-path="url(#terminal-856382421-line-15)"><path fill="#c5c8c6" transform="translate(122 386) scale(0.0282081 -0.02)" d="M798 354C664 384 472 519 472 662V731H393V662C393 519 211 384 69 356L109 291C261 334 400 458 431 547C467 458 609 334 756 290ZM827 50V114H38V50Z"/><path fill="#c5c8c6" transform="translate(146.4 386) scale(0.0282081 -0.02)" d="M726 708H134V645H647V555C647 526 645 494 643 459L107 440L122 373L639 400C633 309 622 219 613 178L686 168C712 279 725 479 726 596ZM827 57V121H38V57Z"/><path fill="#c5c8c6" transform="translate(170.8 386) scale(0.0282081 -0.02)" d="M746 466V523H214V592H729V775H138V715H653V647H138V466H393V396H38V335H827V396H469V466ZM761 -54V6H205V86H734V269H130V213H658V140H129V-54Z"/><path fill="#c5c8c6" transform="translate(195.2 386) scale(0.0282081 -0.02)" d="M421 337V746H347V611H144V746H70V337ZM775 285V804H699V581H591V788H518V291H591V518H699V285ZM775 -70V238H184V175H697V-70ZM347 400H144V548H347Z"/></g><text class="terminal-856382421-r4" x="219.6" y="386" textLength="12.2" clip-path="url(#terminal-856382421-line-15)">&#160;</text><g clip-path="url(#terminal-856382421-line-15)"><path fill="#c5c8c6" transform="translate(231.8 386) scale(0.0282081 -0.02)" d="M353 404V465H148V636H399V699H71V143C258 142 357 150 449 169L439 231C365 213 256 206 148 207V404ZM527 421V-26H601V783H527V484H409V421ZM775 -70V804H700V-70Z"/><path fill="#c5c8c6" transform="translate(256.2 386) scale(0.0282081 -0.02)" d="M798 354C664 384 472 519 472 662V731H393V662C393 519 211 384 69 356L109 291C261 334 400 458 431 547C467 458 609 334 756 290ZM827 50V114H38V50Z"/><path fill="#c5c8c6" transform="translate(280.6 386) scale(0.0282081 -0.02)" d="M707 465V529H211V656H724V720H134V265H733V329H211V465ZM827 41V105H38V41Z"/></g><text class="terminal-856382421-r4" x="305" y="386" textLength="780.8" clip-path="url(#terminal-856382421-line-15)">&#160;&#160;&#160;&#160;&#160;&#160;&#160;&#160;&#160;&#160;&#160;&#160;&#160;&#160;&#160;&#160;&#160;&#160;&#160;&#160;&#160;&#160;&#160;&#160;&#160;&#160;&#160;&#160;&#160;&#160;&#160;&#160;&#160;&#160;&#160;&#160;&#160;&#160;&#160;&#160;&#160;&#160;&#160;&#160;&#160;&#160;&#160;&#160;&#160;&#160;&#160;&#160;&#160;&#160;&#160;&#160;&#160;&#160;&#160;&#160;&#160;&#160;&#160;&#160;</text><text class="terminal-856382421-r5" x="1085.8" y="386" textLength="12.2" clip-path="url(#terminal-856382421-line-15)">│</text><text class="terminal-856382421-r4" x="1098" y="386" textLength="12.2" clip-path="url(#terminal-856382421-line-15)">
</text><text class="terminal-856382421-r5" x="0" y="410.4" textLength="12.2" clip-path="url(#terminal-856382421-line-16)">│</text><text class="terminal-856382421-r4" x="12.2" y="410.4" textLength="109.8" clip-path="url(#terminal-856382421-line-16)">line&#160;36&#160;&#160;</text><g clip-path="url(#terminal-856382421-line-16)"><path fill="#c5c8c6" transform="translate(122 410.4) scale(0.0282081 -0.02)" d="M798 354C664 384 472 519 472 662V731H393V662C393 519 211 384 69 356L109 291C261 334 400 458 431 547C467 458 609 334 756 290ZM827 50V114H38V50Z"/><path fill="#c5c8c6" transform="translate(146.4 410.4) scale(0.0282081 -0.02)" d="M726 708H134V645H647V555C647 526 645 494 643 459L107 440L122 373L639 400C633 309 622 219 613 178L686 168C712 279 725 479 726 596ZM827 57V121H38V57Z"/><path fill="#c5c8c6" transform="translate(170.8 410.4) scale(0.0282081 -0.02)" d="M746 466V523H214V592H729V775H138V715H653V647H138V466H393V396H38V335H827V396H469V466ZM761 -54V6H205V86H734V269H130V213H658V140H129V-54Z"/><path fill="#c5c8c6" transform="translate(195.2 410.4) scale(0.0282081 -0.02)" d="M421 337V746H347V611H144V746H70V337ZM775 285V804H699V581H591V788H518V291H591V518H699V285ZM775 -70V238H184V175H697V-70ZM347 400H144V548H347Z"/></g><text class="terminal-856382421-r4" x="219.6" y="410.4" textLength="12.2" clip-path="url(#terminal-856382421-line-16)">&#160;</text><g clip-path="url(#terminal-856382421-line-16)"><path fill="#c5c8c6" transform="translate(231.8 410.4) scale(0.0282081 -0.02)" d="M353 404V465H148V636H399V699H71V143C258 142 357 150 449 169L439 231C365 213 256 206 148 207V404ZM527 421V-26H601V783H527V484H409V421ZM775 -70V804H700V-70Z"/><path fill="#c5c8c6" transform="translate(256.2 410.4) scale(0.0282081 -0.02)" d="M798 354C664 384 472 519 472 662V731H393V662C393 519 211 384 69 356L109 291C261 334 400 458 431 547C467 458 609 334 756 290ZM827 50V114H38V50Z"/><path fill="#c5c8c6" transform="translate(280.6 410.4) scale(0.0282081 -0.02)" d="M707 465V529H211V656H724V720H134V265H733V329H211V465ZM827 41V105H38V41Z"/></g><text class="terminal-856382421-r4" x="305" y="410.4" textLength="780.8" clip-path="url(#terminal-856382421-line-16)">&#160;&#160;&#160;&#160;&#160;&#160;&#160;&#160;&#160;&#160;&#160;&#160;&#160;&#160;&#160;&#160;&#160;&#160;&#160;&#160;&#160;&#160;&#160;&#160;&#160;&#160;&#160;&#160;&#160;&#160;&#160;&#160;&#160;&#160;&#160;&#160;&#160;&#160;&#160;&#160;&#160;&#160;&#160;&#160;&#160;&#160;&#160;&#160;&#160;&#160;&#160;&#160;&#160;&#160;&#160;&#160;&#160;&#160;&#160;&#160;&#160;&#160;&#160;&#160;</text><text class="terminal-856382421-r5" x="1085.8" y="410.4" textLength="12.2" clip-path="url(#terminal-856382421-line-16)">│</text><text class="terminal-856382421-r4" x="1098" y="410.4" textLength="12.2" clip-path="url(#terminal-856382421-line-16)">
</text><text class="terminal-856382421-r5" x="0" y="434.8" textLength="12.2" clip-path="url(#terminal-856382421-line-17)">│</text><text class="terminal-856382421-r4" x="12.2" y="434.8" textLength="109.8" clip-path="url(#terminal-856382421-line-17)">line&#160;37&#160;&#160;</text><g clip-path="url(#terminal-856382421-line-17)"><path fill="#c5c8c6" transform="translate(122 434.8) scale(0.0282081 -0.02)" d="M798 354C664 384 472 519 472 662V731H393V662C393 519 211 384 69 356L109 291C261 334 400 458 431 547C467 458 609 334 756 290ZM827 50V114H38V50Z"/><path fill="#c5c8c6" transform="translate(146.4 434.8) scale(0.0282081 -0.02)" d="M726 708H134V645H647V555C647 526 645 494 643 459L107 440L122 373L639 400C633 309 622 219 613 178L686 168C712 279 725 479 726 596ZM827 57V121H38V57Z"/><path fill="#c5c8c6" transform="translate(170.8 434.8) scale(0.0282081 -0.02)" d="M746 466V523H214V592H729V775H138V715H653V647H138V466H393V396H38V335H827V396H469V466ZM761 -54V6H205V86H734V269H130V213H658V140H129V-54Z"/><path fill="#c5c8c6" transform="translate(195.2 434.8) scale(0.0282081 -0.02)" d="M421 337V746H347V611H144V746H70V337ZM775 285V804H699V581H591V788H518V291H591V518H699V285ZM775 -70V238H184V175H697V-70ZM347 400H144V548H347Z"/></g><text class="terminal-856382421-r4" x="219.6" y="434.8" textLength="12.2" clip-path="url(#terminal-856382421-line-17)">&#160;</text><g clip-path="url(#terminal-856382421-line-17)"><path fill="#c5c8c6" transform="translate(231.8 434.8) scale(0.0282081 -0.02)" d="M353 404V465H148V636H399V699H71V143C258 142 357 150 449 169L439 231C365 213 256 206 148 207V404ZM527 421V-26H601V783H527V484H409V421ZM775 -70V804H700V-70Z"/><path fill="#c5c8c6" transform="translate(256.2 434.8) scale(0.0282081 -0.02)" d="M798 354C664 384 472 519 472 662V731H393V662C393 519 211 384 69 356L109 291C261 334 400 458 431 547C467 458 609 334 756 290ZM827 50V114H38V50Z"/><path fill="#c5c8c6" transform="translate(280.6 434.8) scale(0.0282081 -0.02)" d="M707 465V529H211V656H724V720H134V265H733V329H211V465ZM827 41V105H38V41Z"/></g><text class="terminal-856382421-r4" x="305" y="434.8" textLength="780.8" clip-path="url(#terminal-856382421-line-17)">&#160;&#160;&#160;&#160;&#160;&#160;&#160;&#160;&#160;&#160;&#160;&#160;&#160;&#160;&#160;&#160;&#160;&#160;&#160;&#160;&#160;&#160;&#160;&#160;&#160;&#160;&#160;&#160;&#160;&#160;&#160;&#160;&#160;&#160;&#160;&#160;&#160;&#160;&#160;&#160;&#160;&#160;&#160;&#160;&#160;&#160;&#160;&#160;&#160;&#160;&#160;&#160;&#160;&#160;&#160;&#160;&#160;&#160;&#160;&#160;&#160;&#160;&#160;&#160;</text><text class="terminal-856382421-r5" x="1085.8" y="434.8" textLength="12.2" clip-path="url(#terminal-856382421-line-17)">│</text><text class="terminal-856382421-r4" x="1098" y="434.8" textLength="12.2" clip-path="url(#terminal-856382421-line-17)">
</text><text class="terminal-856382421-r5" x="0" y="459.2" textLength="12.2" clip-path="url(#terminal-856382421-line-18)">│</text><text class="terminal-856382421-r4" x="12.2" y="459.2" textLength="109.8" clip-path="url(#terminal-856382421-line-18)">line&#160;38&#160;&#160;</text><g clip-path="url(#terminal-856382421-line-18)"><path fill="#c5c8c6" transform="translate(122 459.2) scale(0.0282081 -0.02)" d="M798 354C664 384 472 519 472 662V731H393V662C393 519 211 384 69 356L109 291C261 334 400 458 431 547C467 458 609 334 756 290ZM827 50V114H38V50Z"/><path fill="#c5c8c6" transform="translate(146.4 459.2) scale(0.0282081 -0.02)" d="M726 708H134V645H647V555C647 526 645 494 643 459L107 440L122 373L639 400C633 309 622 219 613 178L686 168C712 279 725 479 726 596ZM827 57V121H38V57Z"/><path fill="#c5c8c6" transform="translate(170.8 459.2) scale(0.0282081 -0.02)" d="M746 466V523H214V592H729V775H138V715H653V647H138V466H393V396H38V335H827V396H469V466ZM761 -54V6H205V86H734V269H130V213H658V140H129V-54Z"/><path fill="#c5c8c6" transform="translate(195.2 459.2) scale(0.0282081 -0.02)" d="M421 337V746H347V611H144V746H70V337ZM775 285V804H699V581H591V788H518V291H591V518H699V285ZM775 -70V238H184V175H697V-70ZM347 400H144V548H347Z"/></g><text class="terminal-856382421-r4" x="219.6" y="459.2" textLength="12.2" clip-path="url(#terminal-856382421-line-18)">&#160;</text><g clip-path="url(#terminal-856382421-line-18)"><path fill="#c5c8c6" transform="translate(231.8 459.2) scale(0.0282081 -0.02)" d="M353 404V465H148V636H399V699H71V143C258 142 357 150 449 169L439 231C365 213 256 206 148 207V404ZM527 421V-26H601V783H527V484H409V421ZM775 -70V804H700V-70Z"/><path fill="#c5c8c6" transform="translate(256.2 459.2) scale(0.0282081 -0.02)" d="M798 354C664 384 472 519 472 662V731H393V662C393 519 211 384 69 356L109 291C261 334 400 458 431 547C467 458 609 334 756 290ZM827 50V114H38V50Z"/><path fill="#c5c8c6" transform="translate(280.6 459.2) scale(0.0282081 -0.02)" d="M707 465V529H211V656H724V720H134V265H733V329H211V465ZM827 41V105H38V41Z"/></g><text class="terminal-856382421-r4" x="305" y="459.2" textLength="780.8" clip-path="url(#terminal-856382421-line-18)">&#160;&#160;&#160;&#160;&#160;&#160;&#160;&#160;&#160;&#160;&#160;&#160;&#160;&#160;&#160;&#160;&#160;&#160;&#160;&#160;&#160;&#160;&#160;&#160;&#160;&#160;&#160;&#160;&#160;&#160;&#160;&#160;&#160;&#160;&#160;&#160;&#160;&#160;&#160;&#160;&#160;&#160;&#160;&#160;&#160;&#160;&#160;&#160;&#160;&#160;&#160;&#160;&#160;&#160;&#160;&#160;&#160;&#160;&#160;&#160;&#160;&#160;&#160;&#160;</text><text class="terminal-856382421-r5" x="1085.8" y="459.2" textLength="12.2" clip-path="url(#terminal-856382421-line-18)">│</text><text class="terminal-856382421-r4" x="1098" y="459.2" textLength="12.2" clip-path="url(#terminal-856382421-line-18)">
</text><text class="terminal-856382421-r5" x="0" y="483.6" textLength="12.2" clip-path="url(#terminal-856382421-line-19)">│</text><text class="terminal-856382421-r4" x="12.2" y="483.6" textLength="109.8" clip-path="url(#terminal-856382421-line-19)">line&#160;39&#160;&#160;</text><g clip-path="url(#terminal-856382421-line-19)"><path fill="#c5c8c6" transform="translate(122 483.6) scale(0.0282081 -0.02)" d="M798 354C664 384 472 519 472 662V731H393V662C393 519 211 384 69 356L109 291C261 334 400 458 431 547C467 458 609 334 756 290ZM827 50V114H38V50Z"/><path fill="#c5c8c6" transform="translate(146.4 483.6) scale(0.0282081 -0.02)" d="M726 708H134V645H647V555C647 526 645 494 643 459L107 440L122 373L639 400C633 309 622 219 613 178L686 168C712 279 725 479 726 596ZM827 57V121H38V57Z"/><path fill="#c5c8c6" transform="translate(170.8 483.6) scale(0.0282081 -0.02)" d="M746 466V523H214V592H729V775H138V715H653V647H138V466H393V396H38V335H827V396H469V466ZM761 -54V6H205V86H734V269H130V213H658V140H129V-54Z"/><path fill="#c5c8c6" transform="translate(195.2 483.6) scale(0.0282081 -0.02)" d="M421 337V746H347V611H144V746H70V337ZM775 285V804H699V581H591V788H518V291H591V518H699V285ZM775 -70V238H184V175H697V-70ZM347 400H144V548H347Z"/></g><text class="terminal-856382421-r4" x="219.6" y="483.6" textLength="12.2" clip-path="url(#terminal-856382421-line-19)">&#160;</text><g clip-path="url(#terminal-856382421-line-19)"><path fill="#c5c8c6" transform="translate(231.8 483.6) scale(0.0282081 -0.02)" d="M353 404V465H148V636H399V699H71V143C258 142 357 150 449 169L439 231C365 213 256 206 148 207V404ZM527 421V-26H601V783H527V484H409V421ZM775 -70V804H700V-70Z"/><path fill="#c5c8c6" transform="translate(256.2 483.6) scale(0.0282081 -0.02)" d="M798 354C664 384 472 519 472 662V731H393V662C393 519 211 384 69 356L109 291C261 334 400 458 431 547C467 458 609 334 756 290ZM827 50V114H38V50Z"/><path fill="#c5c8c6" transform="translate(280.6 483.6) scale(0.0282081 -0.02)" d="M707 465V529H211V656H724V720H134V265H733V329H211V465ZM827 41V105H38V41Z"/></g><text class="terminal-856382421-r4" x="305" y="483.6" textLength="780.8" clip-path="url(#terminal-856382421-line-19)">&#160;&#160;&#160;&#160;&#160;&#160;&#160;&#160;&#160;&#160;&#160;&#160;&#160;&#160;&#160;&#160;&#160;&#160;&#160;&#160;&#160;&#160;&#160;&#160;&#160;&#160;&#160;&#160;&#160;&#160;&#160;&#160;&#160;&#160;&#160;&#160;&#160;&#160;&#160;&#160;&#160;&#160;&#160;&#160;&#160;&#160;&#160;&#160;&#160;&#160;&#160;&#160;&#160;&#160;&#160;&#160;&#160;&#160;&#160;&#160;&#160;&#160;&#160;&#160;</text><text class="terminal-856382421-r5" x="1085.8" y="483.6" textLength="12.2" clip-path="url(#terminal-856382421-line-19)">│</text><text class="terminal-856382421-r4" x="1098" y="483.6" textLength="12.2" clip-path="url(#terminal-856382421-line-19)">
</text><text class="terminal-856382421-r5" x="0" y="508" textLength="12.2" clip-path="url(#terminal-856382421-line-20)">│</text><text class="terminal-856382421-r4" x="12.2" y="508" textLength="109.8" clip-path="url(#terminal-856382421-line-20)">line&#160;40&#160;&#160;</text><g clip-path="url(#terminal-856382421-line-20)"><path fill="#c5c8c6" transform="translate(122 508) scale(0.0282081 -0.02)" d="M798 354C664 384 472 519 472 662V731H393V662C393 519 211 384 69 356L109 291C261 334 400 458 431 547C467 458 609 334 756 290ZM827 50V114H38V50Z"/><path fill="#c5c8c6" transform="translate(146.4 508) scale(0.0282081 -0.02)" d="M726 708H134V645H647V555C647 526 645 494 643 459L107 440L122 373L639 400C633 309 622 219 613 178L686 168C712 279 725 479 726 596ZM827 57V121H38V57Z"/><path fill="#c5c8c6" transform="translate(170.8 508) scale(0.0282081 -0.02)" d="M746 466V523H214V592H729V775H138V715H653V647H138V466H393V396H38V335H827V396H469V466ZM761 -54V6H205V86H734V269H130V213H658V140H129V-54Z"/><path fill="#c5c8c6" transform="translate(195.2 508) scale(0.0282081 -0.02)" d="M421 337V746H347V611H144V746H70V337ZM775 285V804H699V581H591V788H518V291H591V518H699V285ZM775 -70V238H184V175H697V-70ZM347 400H144V548H347Z"/></g><text class="terminal-856382421-r4" x="219.6" y="508" textLength="12.2" clip-path="url(#terminal-856382421-line-20)">&#160;</text><g clip-path="url(#terminal-856382421-line-20)"><path fill="#c5c8c6" transform="translate(231.8 508) scale(0.0282081 -0.02)" d="M353 404V465H148V636H399V699H71V143C258 142 357 150 449 169L439 231C365 213 256 206 148 207V404ZM527 421V-26H601V783H527V484H409V421ZM775 -70V804H700V-70Z"/><path fill="#c5c8c6" transform="translate(256.2 508) scale(0.0282081 -0.02)" d="M798 354C664 384 472 519 472 662V731H393V662C393 519 211 384 69 356L109 291C261 334 400 458 431 547C467 458 609 334 756 290ZM827 50V114H38V50Z"/><path fill="#c5c8c6" transform="translate(280.6 508) scale(0.0282081 -0.02)" d="M707 465V529H211V656H724V720H134V265H733V329H211V465ZM827 41V105H38V41Z"/></g><text class="terminal-856382421-r4" x="305" y="508" textLength="780.8" clip-path="url(#terminal-856382421-line-20)">&#160;&#160;&#160;&#160;&#160;&#160;&#160;&#160;&#160;&#160;&#160;&#160;&#160;&#160;&#160;&#160;&#160;&#160;&#160;&#160;&#160;&#160;&#160;&#160;&#160;&#160;&#160;&#160;&#160;&#160;&#160;&#160;&#160;&#160;&#160;&#160;&#160;&#160;&#160;&#160;&#160;&#160;&#160;&#160;&#160;&#160;&#160;&#160;&#160;&#160;&#160;&#160;&#160;&#160;&#160;&#160;&#160;&#160;&#160;&#160;&#160;&#160;&#160;&#160;</text><text class="terminal-856382421-r5" x="1085.8" y="508" textLength="12.2" clip-path="url(#terminal-856382421-line-20)">│</text><text class="terminal-856382421-r4" x="1098" y="508" textLength="12.2" clip-path="url(#terminal-856382421-line-20)">
</text><text class="terminal-856382421-r5" x="0" y="532.4" textLength="12.2" clip-path="url(#terminal-856382421-line-21)">│</text><text class="terminal-856382421-r4" x="12.2" y="532.4" textLength="109.8" clip-path="url(#terminal-856382421-line-21)">line&#160;41&#160;&#160;</text><g clip-path="url(#terminal-856382421-line-21)"><path fill="#c5c8c6" transform="translate(122 532.4) scale(0.0282081 -0.02)" d="M798 354C664 384 472 519 472 662V731H393V662C393 519 211 384 69 356L109 291C261 334 400 458 431 547C467 458 609 334 756 290ZM827 50V114H38V50Z"/><path fill="#c5c8c6" transform="translate(146.4 532.4) scale(0.0282081 -0.02)" d="M726 708H134V645H647V555C647 526 645 494 643 459L107 440L122 373L639 400C633 309 622 219 613 178L686 168C712 279 725 479 726 596ZM827 57V121H38V57Z"/><path fill="#c5c8c6" transform="translate(170.8 532.4) scale(0.0282081 -0.02)" d="M746 466V523H214V592H729V775H138V715H653V647H138V466H393V396H38V335H827V396H469V466ZM761 -54V6H205V86H734V269H130V213H658V140H129V-54Z"/><path fill="#c5c8c6" transform="translate(195.2 532.4) scale(0.0282081 -0.02)" d="M421 337V746H347V611H144V746H70V337ZM775 285V804H699V581H591V788H518V291H591V518H699V285ZM775 -70V238H184V175H697V-70ZM347 400H144V548H347Z"/></g><text class="terminal-856382421-r4" x="219.6" y="532.4" textLength="12.2" clip-path="url(#terminal-856382421-line-21)">&#160;</text><g clip-path="url(#terminal-856382421-line-21)"><path fill="#c5c8c6" transform="translate(231.8 532.4) scale(0.0282081 -0.02)" d="M353 404V465H148V636H399V699H71V143C258 142 357 150 449 169L439 231C365 213 256 206 148 207V404ZM527 421V-26H601V783H527V484H409V421ZM775 -70V804H700V-70Z"/><path fill="#c5c8c6" transform="translate(256.2 532.4) scale(0.0282081 -0.02)" d="M798 354C664 384 472 519 472 662V731H393V662C393 519 211 384 69 356L109 291C261 334 400 458 431 547C467 458 609 334 756 290ZM827 50V114H38V50Z"/><path fill="#c5c8c6" transform="translate(280.6 532.4) scale(0.0282081 -0.02)" d="M707 465V529H211V656H724V720H134V265H733V329H211V465ZM827 41V105H38V41Z"/></g><text class="terminal-856382421-r4" x="305" y="532.4" textLength="780.8" clip-path="url(#terminal-856382421-line-21)">&#160;&#160;&#160;&#160;&#160;&#160;&#160;&#160;&#160;&#160;&#160;&#160;&#160;&#160;&#160;&#160;&#160;&#160;&#160;&#160;&#160;&#160;&#160;&#160;&#160;&#160;&#160;&#160;&#160;&#160;&#160;&#160;&#160;&#160;&#160;&#160;&#160;&#160;&#160;&#160;&#160;&#160;&#160;&#160;&#160;&#160;&#160;&#160;&#160;&#160;&#160;&#160;&#160;&#160;&#160;&#160;&#160;&#160;&#160;&#160;&#160;&#160;&#160;&#160;</text><text class="terminal-856382421-r5" x="1085.8" y="532.4" textLength="12.2" clip-path="url(#terminal-856382421-line-21)">│</text><text class="terminal-856382421-r4" x="1098" y="532.4" textLength="12.2" clip-path="url(#terminal-856382421-line-21)">
</text><text class="terminal-856382421-r5" x="0" y="556.8" textLength="12.2" clip-path="url(#terminal-856382421-line-22)">│</text><text class="terminal-856382421-r4" x="12.2" y="556.8" textLength="109.8" clip-path="url(#terminal-856382421-line-22)">line&#160;42&#160;&#160;</text><g clip-path="url(#terminal-856382421-line-22)"><path fill="#c5c8c6" transform="translate(122 556.8) scale(0.0282081 -0.02)" d="M798 354C664 384 472 519 472 662V731H393V662C393 519 211 384 69 356L109 291C261 334 400 458 431 547C467 458 609 334 756 290ZM827 50V114H38V50Z"/><path fill="#c5c8c6" transform="translate(146.4 556.8) scale(0.0282081 -0.02)" d="M726 708H134V645H647V555C647 526 645 494 643 459L107 440L122 373L639 400C633 309 622 219 613 178L686 168C712 279 725 479 726 596ZM827 57V121H38V57Z"/><path fill="#c5c8c6" transform="translate(170.8 556.8) scale(0.0282081 -0.02)" d="M746 466V523H214V592H729V775H138V715H653V647H138V466H393V396H38V335H827V396H469V466ZM761 -54V6H205V86H734V269H130V213H658V140H129V-54Z"/><path fill="#c5c8c6" transform="translate(195.2 556.8) scale(0.0282081 -0.02)" d="M421 337V746H347V611H144V746H70V337ZM775 285V804H699V581H591V788H518V291H591V518H699V285ZM775 -70V238H184V175H697V-70ZM347 400H144V548H347Z"/></g><text class="terminal-856382421-r4" x="219.6" y="556.8" textLength="12.2" clip-path="url(#terminal-856382421-line-22)">&#160;</text><g clip-path="url(#terminal-856382421-line-22)"><path fill="#c5c8c6" transform="translate(231.8 556.8) scale(0.0282081 -0.02)" d="M353 404V465H148V636H399V699H71V143C258 142 357 150 449 169L439 231C365 213 256 206 148 207V404ZM527 421V-26H601V783H527V484H409V421ZM775 -70V804H700V-70Z"/><path fill="#c5c8c6" transform="translate(256.2 556.8) scale(0.0282081 -0.02)" d="M798 354C664 384 472 519 472 662V731H393V662C393 519 211 384 69 356L109 291C261 334 400 458 431 547C467 458 609 334 756 290ZM827 50V114H38V50Z"/><path fill="#c5c8c6" transform="translate(280.6 556.8) scale(0.0282081 -0.02)" d="M707 465V529H211V656H724V720H134V265H733V329H211V465ZM827 41V105H38V41Z"/></g><text class="terminal-856382421-r4" x="305" y="556.8" textLength="780.8" clip-path="url(#terminal-856382421-line-22)">&#160;&#160;&#160;&#160;&#160;&#160;&#160;&#160;&#160;&#160;&#160;&#160;&#160;&#160;&#160;&#160;&#160;&#160;&#160;&#160;&#160;&#160;&#160;&#160;&#160;&#160;&#160;&#160;&#160;&#160;&#160;&#160;&#160;&#160;&#160;&#160;&#160;&#160;&#160;&#160;&#160;&#160;&#160;&#160;&#160;&#160;&#160;&#160;&#160;&#160;&#160;&#160;&#160;&#160;&#160;&#160;&#160;&#160;&#160;&#160;&#160;&#160;&#160;&#160;</text><text class="terminal-856382421-r5" x="1085.8" y="556.8" textLength="12.2" clip-path="url(#terminal-856382421-line-22)">│</text><text class="terminal-856382421-r4" x="1098" y="556.8" textLength="12.2" clip-path="url(#terminal-856382421-line-22)">
</text><text class="terminal-856382421-r5" x="0" y="581.2" textLength="12.2" clip-path="url(#terminal-856382421-line-23)">│</text><text class="terminal-856382421-r4" x="12.2" y="581.2" textLength="109.8" clip-path="url(#terminal-856382421-line-23)">line&#160;43&#160;&#160;</text><g clip-path="url(#terminal-856382421-line-23)"><path fill="#c5c8c6" transform="translate(122 581.2) scale(0.0282081 -0.02)" d="M798 354C664 384 472 519 472 662V731H393V662C393 519 211 384 69 356L109 291C261 334 400 458 431 547C467 458 609 334 756 290ZM827 50V114H38V50Z"/><path fill="#c5c8c6" transform="translate(146.4 581.2) scale(0.0282081 -0.02)" d="M726 708H134V645H647V555C647 526 645 494 643 459L107 440L122 373L639 400C633 309 622 219 613 178L686 168C712 279 725 479 726 596ZM827 57V121H38V57Z"/><path fill="#c5c8c6" transform="translate(170.8 581.2) scale(0.0282081 -0.02)" d="M746 466V523H214V592H729V775H138V715H653V647H138V466H393V396H38V335H827V396H469V466ZM761 -54V6H205V86H734V269H130V213H658V140H129V-54Z"/><path fill="#c5c8c6" transform="translate(195.2 581.2) scale(0.0282081 -0.02)" d="M421 337V746H347V611H144V746H70V337ZM775 285V804H699V581H591V788H518V291H591V518H699V285ZM775 -70V238H184V175H697V-70ZM347 400H144V548H347Z"/></g><text class="terminal-856382421-r4" x="219.6" y="581.2" textLength="12.2" clip-path="url(#terminal-856382421-line-23)">&#160;</text><g clip-path="url(#terminal-856382421-line-23)"><path fill="#c5c8c6" transform="translate(231.8 581.2) scale(0.0282081 -0.02)" d="M353 404V465H148V636H399V699H71V143C258 142 357 150 449 169L439 231C365 213 256 206 148 207V404ZM527 421V-26H601V783H527V484H409V421ZM775 -70V804H700V-70Z"/><path fill="#c5c8c6" transform="translate(256.2 581.2) scale(0.0282081 -0.02)" d="M798 354C664 384 472 519 472 662V731H393V662C393 519 211 384 69 356L109 291C261 334 400 458 431 547C467 458 609 334 756 290ZM827 50V114H38V50Z"/><path fill="#c5c8c6" transform="translate(280.6 581.2) scale(0.0282081 -0.02)" d="M707 465V529H211V656H724V720H134V265H733V329H211V465ZM827 41V105H38V41Z"/></g><text class="terminal-856382421-r4" x="305" y="581.2" textLength="780.8" clip-path="url(#terminal-856382421-line-23)">&#160;&#160;&#160;&#160;&#160;&#160;&#160;&#160;&#160;&#160;&#160;&#160;&#160;&#160;&#160;&#160;&#160;&#160;&#160;&#160;&#160;&#160;&#160;&#160;&#160;&#160;&#160;&#160;&#160;&#160;&#160;&#160;&#160;&#160;&#160;&#160;&#160;&#160;&#160;&#160;&#160;&#160;&#160;&#160;&#160;&#160;&#160;&#160;&#160;&#160;&#160;&#160;&#160;&#160;&#160;&#160;&#160;&#160;&#160;&#160;&#160;&#160;&#160;&#160;</text><text class="terminal-856382421-r5" x="1085.8" y="581.2" textLength="12.2" clip-path="url(#terminal-856382421-line-23)">│</text><text class="terminal-856382421-r4" x="1098" y="581.2" textLength="12.2" clip-path="url(#terminal-856382421-line-23)">
</text><text class="terminal-856382421-r5" x="0" y="605.6" textLength="1098" clip-path="url(#terminal-856382421-line-24)">└────────────────────────────────────────────────────────────────────────────────────────┘</text><text class="terminal-856382421-r4" x="1098" y="605.6" textLength="12.2" clip-path="url(#terminal-856382421-line-24)">
</text><text class="terminal-856382421-r7" x="707.6" y="630" textLength="170.8" clip-path="url(#terminal-856382421-line-25)">ssh:playground</text><text class="terminal-856382421-r1" x="890.6" y="630" textLength="61" clip-path="url(#terminal-856382421-line-25)">17:39</text><text class="terminal-856382421-r1" x="963.8" y="630" textLength="122" clip-path="url(#terminal-856382421-line-25)">2026-06-20</text>
    </g>
    </g>
</svg>
