<svg class="rich-terminal" viewBox="0 0 1116 684.4" xmlns="http://www.w3.org/2000/svg">
    <!-- Generated with Rich https://www.textualize.io -->
    <style>

    @font-face {
        font-family: "Fira Code";
        src: local("FiraCode-Regular"),
                url("https://cdnjs.cloudflare.com/ajax/libs/firacode/6.2.0/woff2/FiraCode-Regular.woff2") format("woff2"),
                url("https://cdnjs.cloudflare.com/ajax/libs/firacode/6.2.0/woff/FiraCode-Regular.woff") format("woff");
        font-style: normal;
        font-weight: 400;
    }
    @font-face {
        font-family: "Fira Code";
        src: local("FiraCode-Bold"),
                url("https://cdnjs.cloudflare.com/ajax/libs/firacode/6.2.0/woff2/FiraCode-Bold.woff2") format("woff2"),
                url("https://cdnjs.cloudflare.com/ajax/libs/firacode/6.2.0/woff/FiraCode-Bold.woff") format("woff");
        font-style: bold;
        font-weight: 700;
    }

    .terminal-2279133504-matrix {
        font-family: Fira Code, "Apple SD Gothic Neo", monospace;
        font-size: 20px;
        line-height: 24.4px;
        font-variant-east-asian: full-width;
    }

    .terminal-2279133504-title {
        font-size: 18px;
        font-weight: bold;
        font-family: arial;
    }

    .terminal-2279133504-r1 { fill: #e0e0e0 }
.terminal-2279133504-r2 { fill: #c4c5b5;font-weight: bold }
.terminal-2279133504-r3 { fill: #1a1a1a;font-weight: bold }
.terminal-2279133504-r4 { fill: #c5c8c6 }
.terminal-2279133504-r5 { fill: #b93c5b }
.terminal-2279133504-r6 { fill: #0178d4 }
.terminal-2279133504-r7 { fill: #b93c5b;font-weight: bold }
.terminal-2279133504-r8 { fill: #767676 }
.terminal-2279133504-r9 { fill: #292929 }
    </style>

    <defs>
    <clipPath id="terminal-2279133504-clip-terminal">
      <rect x="0" y="0" width="1097.0" height="633.4" />
    </clipPath>
    <clipPath id="terminal-2279133504-line-0">
    <rect x="0" y="1.5" width="1098" height="24.65"/>
            </clipPath>
<clipPath id="terminal-2279133504-line-1">
    <rect x="0" y="25.9" width="1098" height="24.65"/>
            </clipPath>
<clipPath id="terminal-2279133504-line-2">
    <rect x="0" y="50.3" width="1098" height="24.65"/>
            </clipPath>
<clipPath id="terminal-2279133504-line-3">
    <rect x="0" y="74.7" width="1098" height="24.65"/>
            </clipPath>
<clipPath id="terminal-2279133504-line-4">
    <rect x="0" y="99.1" width="1098" height="24.65"/>
            </clipPath>
<clipPath id="terminal-2279133504-line-5">
    <rect x="0" y="123.5" width="1098" height="24.65"/>
            </clipPath>
<clipPath id="terminal-2279133504-line-6">
    <rect x="0" y="147.9" width="1098" height="24.65"/>
            </clipPath>
<clipPath id="terminal-2279133504-line-7">
    <rect x="0" y="172.3" width="1098" height="24.65"/>
            </clipPath>
<clipPath id="terminal-2279133504-line-8">
    <rect x="0" y="196.7" width="1098" height="24.65"/>
            </clipPath>
<clipPath id="terminal-2279133504-line-9">
    <rect x="0" y="221.1" width="1098" height="24.65"/>
            </clipPath>
<clipPath id="terminal-2279133504-line-10">
    <rect x="0" y="245.5" width="1098" height="24.65"/>
            </clipPath>
<clipPath id="terminal-2279133504-line-11">
    <rect x="0" y="269.9" width="1098" height="24.65"/>
            </clipPath>
<clipPath id="terminal-2279133504-line-12">
    <rect x="0" y="294.3" width="1098" height="24.65"/>
            </clipPath>
<clipPath id="terminal-2279133504-line-13">
    <rect x="0" y="318.7" width="1098" height="24.65"/>
            </clipPath>
<clipPath id="terminal-2279133504-line-14">
    <rect x="0" y="343.1" width="1098" height="24.65"/>
            </clipPath>
<clipPath id="terminal-2279133504-line-15">
    <rect x="0" y="367.5" width="1098" height="24.65"/>
            </clipPath>
<clipPath id="terminal-2279133504-line-16">
    <rect x="0" y="391.9" width="1098" height="24.65"/>
            </clipPath>
<clipPath id="terminal-2279133504-line-17">
    <rect x="0" y="416.3" width="1098" height="24.65"/>
            </clipPath>
<clipPath id="terminal-2279133504-line-18">
    <rect x="0" y="440.7" width="1098" height="24.65"/>
            </clipPath>
<clipPath id="terminal-2279133504-line-19">
    <rect x="0" y="465.1" width="1098" height="24.65"/>
            </clipPath>
<clipPath id="terminal-2279133504-line-20">
    <rect x="0" y="489.5" width="1098" height="24.65"/>
            </clipPath>
<clipPath id="terminal-2279133504-line-21">
    <rect x="0" y="513.9" width="1098" height="24.65"/>
            </clipPath>
<clipPath id="terminal-2279133504-line-22">
    <rect x="0" y="538.3" width="1098" height="24.65"/>
            </clipPath>
<clipPath id="terminal-2279133504-line-23">
    <rect x="0" y="562.7" width="1098" height="24.65"/>
            </clipPath>
<clipPath id="terminal-2279133504-line-24">
    <rect x="0" y="587.1" width="1098" height="24.65"/>
            </clipPath>
    </defs>

    <rect fill="#292929" stroke="rgba(255,255,255,0.35)" stroke-width="1" x="1" y="1" width="1114" height="682.4" rx="8"/><path transform="translate(557 27) scale(0.0102564 -0.0102564)" d="M1114 954Q1114 793 1045.5 696.0Q977 599 857.0 555.0Q737 511 581 511H405V0H231V1377H583Q829 1377 971.5 1274.0Q1114 1171 1114 954ZM928 952Q928 1058 886.0 1121.0Q844 1184 770.5 1211.5Q697 1239 604 1239H405V651H597Q693 651 768.0 677.0Q843 703 885.5 768.5Q928 834 928 952Z"/><path transform="translate(569.2 27) scale(0.0102564 -0.0102564)" d="M1077 1053 707 -7Q670 -114 613.5 -203.0Q557 -292 466.5 -350.5Q376 -409 237 -423L211 -289Q320 -271 383.0 -234.0Q446 -197 482.5 -139.5Q519 -82 547 0H491L123 1053H303L605 128L903 1053Z"/><path transform="translate(581.4 27) scale(0.0102564 -0.0102564)" d="M1037 53Q983 17 906.0 -3.0Q829 -23 755 -23Q585 -23 493.0 66.0Q401 155 401 295V923H159V1053H401V1292L569 1312V1053H933L913 923H569V297Q569 209 615.5 163.0Q662 117 770 117Q829 117 879.0 131.0Q929 145 972 167Z"/><path transform="translate(593.6 27) scale(0.0102564 -0.0102564)" d="M895 1075Q945 1075 992.0 1053.0Q1039 1031 1069.0 968.0Q1099 905 1099 784V0H943V757Q943 856 931.0 900.0Q919 944 862 944Q815 944 768.0 914.5Q721 885 678 818V0H521V757Q521 856 509.0 900.0Q497 944 440 944Q391 944 345.0 914.5Q299 885 256 818V0H101V1053H233L243 931Q286 992 339.5 1033.5Q393 1075 472 1075Q532 1075 585.0 1046.5Q638 1018 663 936Q706 998 760.0 1036.5Q814 1075 895 1075Z"/><path transform="translate(605.8 27) scale(0.0102564 -0.0102564)" d="M369 1053V307Q369 203 412.0 157.0Q455 111 546 111Q633 111 710.5 160.5Q788 210 831 278V1053H999V0H856L842 142Q780 62 688.5 19.5Q597 -23 505 -23Q352 -23 276.5 58.5Q201 140 201 287V1053Z"/><path transform="translate(618 27) scale(0.0102564 -0.0102564)" d="M303 0H111L500 556L159 1053H358L602 661L849 1053H1041L701 563L1089 0H883L595 452Z"/><path transform="translate(630.2 27) scale(0.0102564 -0.0102564)" d="M867 351H322L212 0H41L489 1377H711L1159 0H977ZM367 495H822L596 1231Z"/><path transform="translate(642.4 27) scale(0.0102564 -0.0102564)" d="M672 1075Q812 1075 895.5 1007.0Q979 939 1016.0 815.5Q1053 692 1053 527Q1053 368 1008.5 243.5Q964 119 874.0 48.0Q784 -23 647 -23Q474 -23 369 99V-403L201 -424V1053H344L358 906Q416 987 496.0 1031.0Q576 1075 672 1075ZM632 940Q545 940 478.0 887.5Q411 835 369 771V249Q410 188 472.5 152.5Q535 117 610 117Q741 117 807.0 217.0Q873 317 873 528Q873 940 632 940Z"/><path transform="translate(654.6 27) scale(0.0102564 -0.0102564)" d="M672 1075Q812 1075 895.5 1007.0Q979 939 1016.0 815.5Q1053 692 1053 527Q1053 368 1008.5 243.5Q964 119 874.0 48.0Q784 -23 647 -23Q474 -23 369 99V-403L201 -424V1053H344L358 906Q416 987 496.0 1031.0Q576 1075 672 1075ZM632 940Q545 940 478.0 887.5Q411 835 369 771V249Q410 188 472.5 152.5Q535 117 610 117Q741 117 807.0 217.0Q873 317 873 528Q873 940 632 940Z"/>
            <g transform="translate(26,22)">
            <circle cx="0" cy="0" r="7" fill="#ff5f57"/>
            <circle cx="22" cy="0" r="7" fill="#febc2e"/>
            <circle cx="44" cy="0" r="7" fill="#28c840"/>
            </g>
        
    <g transform="translate(9, 41)" clip-path="url(#terminal-2279133504-clip-terminal)">
    <rect fill="#0178d4" x="12.2" y="1.5" width="85.4" height="24.65" shape-rendering="crispEdges"/><rect fill="#4ebf71" x="122" y="1.5" width="36.6" height="24.65" shape-rendering="crispEdges"/><rect fill="#b93c5b" x="1049.2" y="25.9" width="36.6" height="24.65" shape-rendering="crispEdges"/><rect fill="#c5c8c6" x="780.8" y="50.3" width="12.2" height="24.65" shape-rendering="crispEdges"/><rect fill="#0178d4" x="1049.2" y="50.3" width="48.8" height="24.65" shape-rendering="crispEdges"/>
    <g class="terminal-2279133504-matrix">
    <path fill="#c4c5b5" transform="translate(24.4 20) scale(0.0102564 -0.0102564)" d="M1102 239V0H201V239H535V1075L250 897L116 1114L563 1386H843V239Z"/><path fill="#c4c5b5" transform="translate(36.6 20) scale(0.0102564 -0.0102564)" d="M389 868Q389 925 417.5 972.5Q446 1020 494.0 1049.0Q542 1078 600 1078Q688 1078 748.5 1015.5Q809 953 809 868Q809 783 748.5 721.0Q688 659 600 659Q512 659 450.5 721.0Q389 783 389 868ZM389 177Q389 262 450.5 323.0Q512 384 600 384Q688 384 748.5 323.0Q809 262 809 177Q809 91 748.5 28.5Q688 -34 600 -34Q512 -34 450.5 28.5Q389 91 389 177Z"/><path fill="#c4c5b5" transform="translate(48.8 20) scale(0.0102564 -0.0102564)" d="M1042 0H693L602 714L507 0H164L7 1062H296L365 197L477 928H743L843 197L914 1062H1193Z"/><path fill="#c4c5b5" transform="translate(61 20) scale(0.0102564 -0.0102564)" d="M598 1618Q680 1618 732.0 1567.0Q784 1516 784 1440Q784 1364 732.0 1312.5Q680 1261 598 1261Q515 1261 462.5 1312.5Q410 1364 410 1440Q410 1516 462.5 1567.0Q515 1618 598 1618ZM789 1062V216H1059V0H172V216H473V846H182V1062Z"/><path fill="#c4c5b5" transform="translate(73.2 20) scale(0.0102564 -0.0102564)" d="M140 0V1062H416L438 939Q509 1019 588.0 1058.0Q667 1097 768 1097Q904 1097 982.0 1014.0Q1060 931 1060 780V0H744V689Q744 787 722.5 825.5Q701 864 642 864Q592 864 546.5 832.0Q501 800 456 743V0Z"/><path fill="#1a1a1a" transform="translate(122 20) scale(0.0102564 -0.0102564)" d="M312 -246V1646H928V1410H610V-12H928V-246Z"/><path fill="#1a1a1a" transform="translate(134.2 20) scale(0.0102564 -0.0102564)" d="M731 1158V747H1134V503H731V92H467V503H66V747H467V1158Z"/><path fill="#1a1a1a" transform="translate(146.4 20) scale(0.0102564 -0.0102564)" d="M888 1646V-246H272V-10H590V1410H272V1646Z"/><path d="M6.1,50.3 L6.1,38.1 L12.2,38.1" stroke="#b93c5b" stroke-width="1.8" fill="none"/><rect x="12.2" y="25.9" width="13" height="13" fill="#0178d4"/><rect x="24.4" y="25.9" width="13" height="13" fill="#0178d4"/><rect x="36.6" y="25.9" width="13" height="13" fill="#0178d4"/><rect x="48.8" y="25.9" width="13" height="13" fill="#0178d4"/><rect x="61" y="25.9" width="13" height="13" fill="#0178d4"/><rect x="73.2" y="25.9" width="13" height="13" fill="#0178d4"/><rect x="85.4" y="25.9" width="13" height="13" fill="#0178d4"/><path d="M97.6,38.1 H109.8" stroke="#b93c5b" stroke-width="1.8" fill="none"/><path d="M109.8,38.1 H122" stroke="#b93c5b" stroke-width="1.8" fill="none"/><path d="M122,38.1 H134.2" stroke="#b93c5b" stroke-width="1.8" fill="none"/><path d="M134.2,38.1 H146.4" stroke="#b93c5b" stroke-width="1.8" fill="none"/><path d="M146.4,38.1 H158.6" stroke="#b93c5b" stroke-width="1.8" fill="none"/><path d="M158.6,38.1 H170.8" stroke="#b93c5b" stroke-width="1.8" fill="none"/><path d="M170.8,38.1 H183" stroke="#b93c5b" stroke-width="1.8" fill="none"/><path d="M183,38.1 H195.2" stroke="#b93c5b" stroke-width="1.8" fill="none"/><path d="M195.2,38.1 H207.4" stroke="#b93c5b" stroke-width="1.8" fill="none"/><path d="M207.4,38.1 H219.6" stroke="#b93c5b" stroke-width="1.8" fill="none"/><path d="M219.6,38.1 H231.8" stroke="#b93c5b" stroke-width="1.8" fill="none"/><path d="M231.8,38.1 H244" stroke="#b93c5b" stroke-width="1.8" fill="none"/><path d="M244,38.1 H256.2" stroke="#b93c5b" stroke-width="1.8" fill="none"/><path d="M256.2,38.1 H268.4" stroke="#b93c5b" stroke-width="1.8" fill="none"/><path d="M268.4,38.1 H280.6" stroke="#b93c5b" stroke-width="1.8" fill="none"/><path d="M280.6,38.1 H292.8" stroke="#b93c5b" stroke-width="1.8" fill="none"/><path d="M292.8,38.1 H305" stroke="#b93c5b" stroke-width="1.8" fill="none"/><path d="M305,38.1 H317.2" stroke="#b93c5b" stroke-width="1.8" fill="none"/><path d="M317.2,38.1 H329.4" stroke="#b93c5b" stroke-width="1.8" fill="none"/><path d="M329.4,38.1 H341.6" stroke="#b93c5b" stroke-width="1.8" fill="none"/><path d="M341.6,38.1 H353.8" stroke="#b93c5b" stroke-width="1.8" fill="none"/><path d="M353.8,38.1 H366" stroke="#b93c5b" stroke-width="1.8" fill="none"/><path d="M366,38.1 H378.2" stroke="#b93c5b" stroke-width="1.8" fill="none"/><path d="M378.2,38.1 H390.4" stroke="#b93c5b" stroke-width="1.8" fill="none"/><path d="M390.4,38.1 H402.6" stroke="#b93c5b" stroke-width="1.8" fill="none"/><path d="M402.6,38.1 H414.8" stroke="#b93c5b" stroke-width="1.8" fill="none"/><path d="M414.8,38.1 H427" stroke="#b93c5b" stroke-width="1.8" fill="none"/><path d="M427,38.1 H439.2" stroke="#b93c5b" stroke-width="1.8" fill="none"/><path d="M439.2,38.1 H451.4" stroke="#b93c5b" stroke-width="1.8" fill="none"/><path d="M451.4,38.1 H463.6" stroke="#b93c5b" stroke-width="1.8" fill="none"/><path d="M463.6,38.1 H475.8" stroke="#b93c5b" stroke-width="1.8" fill="none"/><path d="M475.8,38.1 H488" stroke="#b93c5b" stroke-width="1.8" fill="none"/><path d="M488,38.1 H500.2" stroke="#b93c5b" stroke-width="1.8" fill="none"/><path d="M500.2,38.1 H512.4" stroke="#b93c5b" stroke-width="1.8" fill="none"/><path d="M512.4,38.1 H524.6" stroke="#b93c5b" stroke-width="1.8" fill="none"/><path d="M524.6,38.1 H536.8" stroke="#b93c5b" stroke-width="1.8" fill="none"/><path d="M536.8,38.1 H549 M542.9,38.1 V50.3" stroke="#b93c5b" stroke-width="1.8" fill="none"/><path d="M549,38.1 H561.2" stroke="#b93c5b" stroke-width="1.8" fill="none"/><path d="M561.2,38.1 H573.4" stroke="#b93c5b" stroke-width="1.8" fill="none"/><path d="M573.4,38.1 H585.6" stroke="#b93c5b" stroke-width="1.8" fill="none"/><path d="M585.6,38.1 H597.8" stroke="#b93c5b" stroke-width="1.8" fill="none"/><path d="M597.8,38.1 H610" stroke="#b93c5b" stroke-width="1.8" fill="none"/><path d="M610,38.1 H622.2" stroke="#b93c5b" stroke-width="1.8" fill="none"/><path d="M622.2,38.1 H634.4" stroke="#b93c5b" stroke-width="1.8" fill="none"/><path d="M634.4,38.1 H646.6" stroke="#b93c5b" stroke-width="1.8" fill="none"/><path d="M646.6,38.1 H658.8" stroke="#b93c5b" stroke-width="1.8" fill="none"/><path d="M658.8,38.1 H671" stroke="#b93c5b" stroke-width="1.8" fill="none"/><path d="M671,38.1 H683.2" stroke="#b93c5b" stroke-width="1.8" fill="none"/><path d="M683.2,38.1 H695.4" stroke="#b93c5b" stroke-width="1.8" fill="none"/><path d="M695.4,38.1 H707.6" stroke="#b93c5b" stroke-width="1.8" fill="none"/><path d="M707.6,38.1 H719.8" stroke="#b93c5b" stroke-width="1.8" fill="none"/><path d="M719.8,38.1 H732" stroke="#b93c5b" stroke-width="1.8" fill="none"/><path d="M732,38.1 H744.2" stroke="#b93c5b" stroke-width="1.8" fill="none"/><path d="M744.2,38.1 H756.4" stroke="#b93c5b" stroke-width="1.8" fill="none"/><path d="M756.4,38.1 H768.6" stroke="#b93c5b" stroke-width="1.8" fill="none"/><path d="M768.6,38.1 H780.8" stroke="#b93c5b" stroke-width="1.8" fill="none"/><path d="M780.8,38.1 H793" stroke="#b93c5b" stroke-width="1.8" fill="none"/><path d="M793,38.1 H805.2" stroke="#b93c5b" stroke-width="1.8" fill="none"/><path d="M805.2,38.1 H817.4" stroke="#b93c5b" stroke-width="1.8" fill="none"/><path d="M817.4,38.1 H829.6" stroke="#b93c5b" stroke-width="1.8" fill="none"/><path d="M829.6,38.1 H841.8" stroke="#b93c5b" stroke-width="1.8" fill="none"/><path d="M841.8,38.1 H854" stroke="#b93c5b" stroke-width="1.8" fill="none"/><path d="M854,38.1 H866.2" stroke="#b93c5b" stroke-width="1.8" fill="none"/><path d="M866.2,38.1 H878.4" stroke="#b93c5b" stroke-width="1.8" fill="none"/><path d="M878.4,38.1 H890.6" stroke="#b93c5b" stroke-width="1.8" fill="none"/><path d="M890.6,38.1 H902.8" stroke="#b93c5b" stroke-width="1.8" fill="none"/><path d="M902.8,38.1 H915" stroke="#b93c5b" stroke-width="1.8" fill="none"/><path d="M915,38.1 H927.2" stroke="#b93c5b" stroke-width="1.8" fill="none"/><path d="M927.2,38.1 H939.4" stroke="#b93c5b" stroke-width="1.8" fill="none"/><path d="M939.4,38.1 H951.6" stroke="#b93c5b" stroke-width="1.8" fill="none"/><path d="M951.6,38.1 H963.8" stroke="#b93c5b" stroke-width="1.8" fill="none"/><path d="M963.8,38.1 H976" stroke="#b93c5b" stroke-width="1.8" fill="none"/><path d="M976,38.1 H988.2" stroke="#b93c5b" stroke-width="1.8" fill="none"/><path d="M988.2,38.1 H1000.4" stroke="#b93c5b" stroke-width="1.8" fill="none"/><path d="M1000.4,38.1 H1012.6" stroke="#b93c5b" stroke-width="1.8" fill="none"/><path d="M1012.6,38.1 H1024.8" stroke="#b93c5b" stroke-width="1.8" fill="none"/><path d="M1024.8,38.1 H1037" stroke="#b93c5b" stroke-width="1.8" fill="none"/><path d="M1037,38.1 H1049.2" stroke="#b93c5b" stroke-width="1.8" fill="none"/><path fill="#c4c5b5" transform="translate(1049.2 44.4) scale(0.0102564 -0.0102564)" d="M312 -246V1646H928V1410H610V-12H928V-246Z"/><path fill="#c4c5b5" transform="translate(1061.4 44.4) scale(0.0102564 -0.0102564)" d="M386 0H44L408 558L78 1062H432L602 722L766 1062H1102L790 570L1156 0H798L588 397Z"/><path fill="#c4c5b5" transform="translate(1073.6 44.4) scale(0.0102564 -0.0102564)" d="M888 1646V-246H272V-10H590V1410H272V1646Z"/><path d="M1091.9,50.3 L1091.9,38.1 L1085.8,38.1" stroke="#b93c5b" stroke-width="1.8" fill="none"/><path d="M6.1,50.3 V74.7" stroke="#b93c5b" stroke-width="1.8" fill="none"/><path fill="#767676" transform="translate(12.2 68.8) scale(0.0102564 -0.0102564)" d="M369 1053V307Q369 203 412.0 157.0Q455 111 546 111Q633 111 710.5 160.5Q788 210 831 278V1053H999V0H856L842 142Q780 62 688.5 19.5Q597 -23 505 -23Q352 -23 276.5 58.5Q201 140 201 287V1053Z"/><path fill="#767676" transform="translate(24.4 68.8) scale(0.0102564 -0.0102564)" d="M559 116Q681 116 751.0 161.0Q821 206 821 283Q821 330 803.5 365.0Q786 400 732.0 428.5Q678 457 566 485Q457 512 376.5 547.5Q296 583 251.5 640.0Q207 697 207 788Q207 921 318.0 998.0Q429 1075 607 1075Q734 1075 828.5 1041.0Q923 1007 989 959L915 845Q856 886 783.5 912.5Q711 939 609 939Q485 939 433.0 900.5Q381 862 381 801Q381 754 406.5 723.5Q432 693 493.0 669.0Q554 645 661 616Q764 588 841.0 550.0Q918 512 960.5 450.5Q1003 389 1003 291Q1003 179 939.0 109.5Q875 40 773.5 8.5Q672 -23 559 -23Q416 -23 315.5 18.5Q215 60 147 119L243 230Q305 179 385.5 147.5Q466 116 559 116Z"/><path fill="#767676" transform="translate(36.6 68.8) scale(0.0102564 -0.0102564)" d="M333 467Q340 284 429.5 200.5Q519 117 641 117Q722 117 787.0 141.0Q852 165 922 212L1001 101Q928 43 833.0 10.0Q738 -23 639 -23Q485 -23 377.5 46.0Q270 115 213.5 238.5Q157 362 157 525Q157 685 213.5 809.0Q270 933 373.5 1004.0Q477 1075 617 1075Q816 1075 930.5 937.0Q1045 799 1045 559Q1045 532 1043.5 508.0Q1042 484 1041 467ZM619 937Q502 937 423.0 854.0Q344 771 334 597H883Q880 766 809.0 851.5Q738 937 619 937Z"/><path fill="#767676" transform="translate(48.8 68.8) scale(0.0102564 -0.0102564)" d="M211 0V129H375V924H211V1053H503L534 804Q595 934 682.0 1005.0Q769 1076 912 1076Q956 1076 990.5 1069.5Q1025 1063 1061 1053L1037 697H899V921Q895 921 890 921Q648 921 543 575V129H757V0Z"/><path fill="#767676" transform="translate(61 68.8) scale(0.0102564 -0.0102564)" d="M567 1399Q722 1399 828.5 1352.5Q935 1306 1002.5 1225.0Q1070 1144 1106.5 1038.0Q1143 932 1157.0 812.0Q1171 692 1171 569Q1171 317 1147.5 150.5Q1124 -16 1061.0 -98.5Q998 -181 877 -181Q815 -181 769.5 -151.0Q724 -121 695.5 -75.5Q667 -30 654.0 18.5Q641 67 642 103H634Q615 57 582.0 12.5Q549 -32 495.0 -61.5Q441 -91 361 -91Q252 -91 185.5 -31.5Q119 28 89.0 131.5Q59 235 59 367Q59 628 162.5 755.5Q266 883 451 883Q521 883 585.0 868.0Q649 853 733 808V217Q733 109 752.0 52.5Q771 -4 803.0 -25.0Q835 -46 874 -46Q937 -46 963.0 36.0Q989 118 994.0 257.0Q999 396 999 567Q999 710 983.0 834.5Q967 959 922.0 1053.0Q877 1147 792.0 1200.0Q707 1253 569 1253Q471 1253 357.0 1217.0Q243 1181 115 1069L19 1181Q153 1298 293.5 1348.5Q434 1399 567 1399ZM459 759Q323 759 272.5 659.5Q222 560 222 367Q222 220 256.0 127.5Q290 35 381 35Q451 35 491.5 67.0Q532 99 553.5 140.5Q575 182 587 211V729Q529 759 459 759Z"/><path fill="#767676" transform="translate(73.2 68.8) scale(0.0102564 -0.0102564)" d="M369 1493V909Q431 991 521.5 1033.0Q612 1075 705 1075Q859 1075 930.0 993.0Q1001 911 1001 765V0H833V761Q833 856 789.0 899.5Q745 943 651 943Q591 943 537.0 916.0Q483 889 440.0 849.0Q397 809 369 767V0H201V1475Z"/><path fill="#767676" transform="translate(85.4 68.8) scale(0.0102564 -0.0102564)" d="M602 1075Q825 1075 939.0 926.0Q1053 777 1053 527Q1053 366 1001.0 242.0Q949 118 848.0 47.5Q747 -23 600 -23Q377 -23 262.0 127.0Q147 277 147 525Q147 687 199.0 811.5Q251 936 352.5 1005.5Q454 1075 602 1075ZM602 938Q466 938 396.5 837.0Q327 736 327 525Q327 316 395.5 215.5Q464 115 600 115Q736 115 804.5 216.0Q873 317 873 527Q873 737 805.0 837.5Q737 938 602 938Z"/><path fill="#767676" transform="translate(97.6 68.8) scale(0.0102564 -0.0102564)" d="M559 116Q681 116 751.0 161.0Q821 206 821 283Q821 330 803.5 365.0Q786 400 732.0 428.5Q678 457 566 485Q457 512 376.5 547.5Q296 583 251.5 640.0Q207 697 207 788Q207 921 318.0 998.0Q429 1075 607 1075Q734 1075 828.5 1041.0Q923 1007 989 959L915 845Q856 886 783.5 912.5Q711 939 609 939Q485 939 433.0 900.5Q381 862 381 801Q381 754 406.5 723.5Q432 693 493.0 669.0Q554 645 661 616Q764 588 841.0 550.0Q918 512 960.5 450.5Q1003 389 1003 291Q1003 179 939.0 109.5Q875 40 773.5 8.5Q672 -23 559 -23Q416 -23 315.5 18.5Q215 60 147 119L243 230Q305 179 385.5 147.5Q466 116 559 116Z"/><path fill="#767676" transform="translate(109.8 68.8) scale(0.0102564 -0.0102564)" d="M1037 53Q983 17 906.0 -3.0Q829 -23 755 -23Q585 -23 493.0 66.0Q401 155 401 295V923H159V1053H401V1292L569 1312V1053H933L913 923H569V297Q569 209 615.5 163.0Q662 117 770 117Q829 117 879.0 131.0Q929 145 972 167Z"/><path fill="#767676" transform="translate(134.2 68.8) scale(0.0102564 -0.0102564)" d="M672 1075Q812 1075 895.5 1007.0Q979 939 1016.0 815.5Q1053 692 1053 527Q1053 368 1008.5 243.5Q964 119 874.0 48.0Q784 -23 647 -23Q474 -23 369 99V-403L201 -424V1053H344L358 906Q416 987 496.0 1031.0Q576 1075 672 1075ZM632 940Q545 940 478.0 887.5Q411 835 369 771V249Q410 188 472.5 152.5Q535 117 610 117Q741 117 807.0 217.0Q873 317 873 528Q873 940 632 940Z"/><path fill="#767676" transform="translate(146.4 68.8) scale(0.0102564 -0.0102564)" d="M1077 1053 707 -7Q670 -114 613.5 -203.0Q557 -292 466.5 -350.5Q376 -409 237 -423L211 -289Q320 -271 383.0 -234.0Q446 -197 482.5 -139.5Q519 -82 547 0H491L123 1053H303L605 128L903 1053Z"/><path fill="#767676" transform="translate(158.6 68.8) scale(0.0102564 -0.0102564)" d="M1037 53Q983 17 906.0 -3.0Q829 -23 755 -23Q585 -23 493.0 66.0Q401 155 401 295V923H159V1053H401V1292L569 1312V1053H933L913 923H569V297Q569 209 615.5 163.0Q662 117 770 117Q829 117 879.0 131.0Q929 145 972 167Z"/><path fill="#767676" transform="translate(170.8 68.8) scale(0.0102564 -0.0102564)" d="M895 1075Q945 1075 992.0 1053.0Q1039 1031 1069.0 968.0Q1099 905 1099 784V0H943V757Q943 856 931.0 900.0Q919 944 862 944Q815 944 768.0 914.5Q721 885 678 818V0H521V757Q521 856 509.0 900.0Q497 944 440 944Q391 944 345.0 914.5Q299 885 256 818V0H101V1053H233L243 931Q286 992 339.5 1033.5Q393 1075 472 1075Q532 1075 585.0 1046.5Q638 1018 663 936Q706 998 760.0 1036.5Q814 1075 895 1075Z"/><path fill="#767676" transform="translate(183 68.8) scale(0.0102564 -0.0102564)" d="M369 1053V307Q369 203 412.0 157.0Q455 111 546 111Q633 111 710.5 160.5Q788 210 831 278V1053H999V0H856L842 142Q780 62 688.5 19.5Q597 -23 505 -23Q352 -23 276.5 58.5Q201 140 201 287V1053Z"/><path fill="#767676" transform="translate(195.2 68.8) scale(0.0102564 -0.0102564)" d="M303 0H111L500 556L159 1053H358L602 661L849 1053H1041L701 563L1089 0H883L595 452Z"/><path fill="#767676" transform="translate(219.6 68.8) scale(0.0102564 -0.0102564)" d="M1009 1414 1117 1344 170 -40 65 30ZM332 1399Q426 1399 491.0 1355.0Q556 1311 590.5 1238.0Q625 1165 625 1079Q625 994 590.5 920.0Q556 846 491.0 801.0Q426 756 332 756Q239 756 173.0 801.0Q107 846 72.0 920.0Q37 994 37 1079Q37 1166 72.0 1238.5Q107 1311 173.0 1355.0Q239 1399 332 1399ZM332 1279Q273 1279 232.0 1230.0Q191 1181 191 1079Q191 981 231.0 927.5Q271 874 332 874Q392 874 431.5 923.0Q471 972 471 1079Q471 1187 431.5 1233.0Q392 1279 332 1279ZM872 632Q966 632 1031.0 587.5Q1096 543 1130.5 470.0Q1165 397 1165 311Q1165 226 1130.5 152.5Q1096 79 1031.0 33.5Q966 -12 872 -12Q779 -12 713.0 33.5Q647 79 612.0 152.5Q577 226 577 311Q577 398 612.0 471.0Q647 544 713.0 588.0Q779 632 872 632ZM872 511Q813 511 772.0 463.5Q731 416 731 311Q731 214 771.0 160.0Q811 106 872 106Q932 106 971.5 155.0Q1011 204 1011 311Q1011 419 971.5 465.0Q932 511 872 511Z"/><path d="M542.9,50.3 V74.7" stroke="#b93c5b" stroke-width="1.8" fill="none"/><path fill="#c5c8c6" transform="translate(549 68.8) scale(0.0102564 -0.0102564)" d="M369 1053V307Q369 203 412.0 157.0Q455 111 546 111Q633 111 710.5 160.5Q788 210 831 278V1053H999V0H856L842 142Q780 62 688.5 19.5Q597 -23 505 -23Q352 -23 276.5 58.5Q201 140 201 287V1053Z"/><path fill="#c5c8c6" transform="translate(561.2 68.8) scale(0.0102564 -0.0102564)" d="M559 116Q681 116 751.0 161.0Q821 206 821 283Q821 330 803.5 365.0Q786 400 732.0 428.5Q678 457 566 485Q457 512 376.5 547.5Q296 583 251.5 640.0Q207 697 207 788Q207 921 318.0 998.0Q429 1075 607 1075Q734 1075 828.5 1041.0Q923 1007 989 959L915 845Q856 886 783.5 912.5Q711 939 609 939Q485 939 433.0 900.5Q381 862 381 801Q381 754 406.5 723.5Q432 693 493.0 669.0Q554 645 661 616Q764 588 841.0 550.0Q918 512 960.5 450.5Q1003 389 1003 291Q1003 179 939.0 109.5Q875 40 773.5 8.5Q672 -23 559 -23Q416 -23 315.5 18.5Q215 60 147 119L243 230Q305 179 385.5 147.5Q466 116 559 116Z"/><path fill="#c5c8c6" transform="translate(573.4 68.8) scale(0.0102564 -0.0102564)" d="M333 467Q340 284 429.5 200.5Q519 117 641 117Q722 117 787.0 141.0Q852 165 922 212L1001 101Q928 43 833.0 10.0Q738 -23 639 -23Q485 -23 377.5 46.0Q270 115 213.5 238.5Q157 362 157 525Q157 685 213.5 809.0Q270 933 373.5 1004.0Q477 1075 617 1075Q816 1075 930.5 937.0Q1045 799 1045 559Q1045 532 1043.5 508.0Q1042 484 1041 467ZM619 937Q502 937 423.0 854.0Q344 771 334 597H883Q880 766 809.0 851.5Q738 937 619 937Z"/><path fill="#c5c8c6" transform="translate(585.6 68.8) scale(0.0102564 -0.0102564)" d="M211 0V129H375V924H211V1053H503L534 804Q595 934 682.0 1005.0Q769 1076 912 1076Q956 1076 990.5 1069.5Q1025 1063 1061 1053L1037 697H899V921Q895 921 890 921Q648 921 543 575V129H757V0Z"/><path fill="#c5c8c6" transform="translate(597.8 68.8) scale(0.0102564 -0.0102564)" d="M567 1399Q722 1399 828.5 1352.5Q935 1306 1002.5 1225.0Q1070 1144 1106.5 1038.0Q1143 932 1157.0 812.0Q1171 692 1171 569Q1171 317 1147.5 150.5Q1124 -16 1061.0 -98.5Q998 -181 877 -181Q815 -181 769.5 -151.0Q724 -121 695.5 -75.5Q667 -30 654.0 18.5Q641 67 642 103H634Q615 57 582.0 12.5Q549 -32 495.0 -61.5Q441 -91 361 -91Q252 -91 185.5 -31.5Q119 28 89.0 131.5Q59 235 59 367Q59 628 162.5 755.5Q266 883 451 883Q521 883 585.0 868.0Q649 853 733 808V217Q733 109 752.0 52.5Q771 -4 803.0 -25.0Q835 -46 874 -46Q937 -46 963.0 36.0Q989 118 994.0 257.0Q999 396 999 567Q999 710 983.0 834.5Q967 959 922.0 1053.0Q877 1147 792.0 1200.0Q707 1253 569 1253Q471 1253 357.0 1217.0Q243 1181 115 1069L19 1181Q153 1298 293.5 1348.5Q434 1399 567 1399ZM459 759Q323 759 272.5 659.5Q222 560 222 367Q222 220 256.0 127.5Q290 35 381 35Q451 35 491.5 67.0Q532 99 553.5 140.5Q575 182 587 211V729Q529 759 459 759Z"/><path fill="#c5c8c6" transform="translate(610 68.8) scale(0.0102564 -0.0102564)" d="M369 1493V909Q431 991 521.5 1033.0Q612 1075 705 1075Q859 1075 930.0 993.0Q1001 911 1001 765V0H833V761Q833 856 789.0 899.5Q745 943 651 943Q591 943 537.0 916.0Q483 889 440.0 849.0Q397 809 369 767V0H201V1475Z"/><path fill="#c5c8c6" transform="translate(622.2 68.8) scale(0.0102564 -0.0102564)" d="M602 1075Q825 1075 939.0 926.0Q1053 777 1053 527Q1053 366 1001.0 242.0Q949 118 848.0 47.5Q747 -23 600 -23Q377 -23 262.0 127.0Q147 277 147 525Q147 687 199.0 811.5Q251 936 352.5 1005.5Q454 1075 602 1075ZM602 938Q466 938 396.5 837.0Q327 736 327 525Q327 316 395.5 215.5Q464 115 600 115Q736 115 804.5 216.0Q873 317 873 527Q873 737 805.0 837.5Q737 938 602 938Z"/><path fill="#c5c8c6" transform="translate(634.4 68.8) scale(0.0102564 -0.0102564)" d="M559 116Q681 116 751.0 161.0Q821 206 821 283Q821 330 803.5 365.0Q786 400 732.0 428.5Q678 457 566 485Q457 512 376.5 547.5Q296 583 251.5 640.0Q207 697 207 788Q207 921 318.0 998.0Q429 1075 607 1075Q734 1075 828.5 1041.0Q923 1007 989 959L915 845Q856 886 783.5 912.5Q711 939 609 939Q485 939 433.0 900.5Q381 862 381 801Q381 754 406.5 723.5Q432 693 493.0 669.0Q554 645 661 616Q764 588 841.0 550.0Q918 512 960.5 450.5Q1003 389 1003 291Q1003 179 939.0 109.5Q875 40 773.5 8.5Q672 -23 559 -23Q416 -23 315.5 18.5Q215 60 147 119L243 230Q305 179 385.5 147.5Q466 116 559 116Z"/><path fill="#c5c8c6" transform="translate(646.6 68.8) scale(0.0102564 -0.0102564)" d="M1037 53Q983 17 906.0 -3.0Q829 -23 755 -23Q585 -23 493.0 66.0Q401 155 401 295V923H159V1053H401V1292L569 1312V1053H933L913 923H569V297Q569 209 615.5 163.0Q662 117 770 117Q829 117 879.0 131.0Q929 145 972 167Z"/><path fill="#c5c8c6" transform="translate(671 68.8) scale(0.0102564 -0.0102564)" d="M672 1075Q812 1075 895.5 1007.0Q979 939 1016.0 815.5Q1053 692 1053 527Q1053 368 1008.5 243.5Q964 119 874.0 48.0Q784 -23 647 -23Q474 -23 369 99V-403L201 -424V1053H344L358 906Q416 987 496.0 1031.0Q576 1075 672 1075ZM632 940Q545 940 478.0 887.5Q411 835 369 771V249Q410 188 472.5 152.5Q535 117 610 117Q741 117 807.0 217.0Q873 317 873 528Q873 940 632 940Z"/><path fill="#c5c8c6" transform="translate(683.2 68.8) scale(0.0102564 -0.0102564)" d="M1077 1053 707 -7Q670 -114 613.5 -203.0Q557 -292 466.5 -350.5Q376 -409 237 -423L211 -289Q320 -271 383.0 -234.0Q446 -197 482.5 -139.5Q519 -82 547 0H491L123 1053H303L605 128L903 1053Z"/><path fill="#c5c8c6" transform="translate(695.4 68.8) scale(0.0102564 -0.0102564)" d="M1037 53Q983 17 906.0 -3.0Q829 -23 755 -23Q585 -23 493.0 66.0Q401 155 401 295V923H159V1053H401V1292L569 1312V1053H933L913 923H569V297Q569 209 615.5 163.0Q662 117 770 117Q829 117 879.0 131.0Q929 145 972 167Z"/><path fill="#c5c8c6" transform="translate(707.6 68.8) scale(0.0102564 -0.0102564)" d="M895 1075Q945 1075 992.0 1053.0Q1039 1031 1069.0 968.0Q1099 905 1099 784V0H943V757Q943 856 931.0 900.0Q919 944 862 944Q815 944 768.0 914.5Q721 885 678 818V0H521V757Q521 856 509.0 900.0Q497 944 440 944Q391 944 345.0 914.5Q299 885 256 818V0H101V1053H233L243 931Q286 992 339.5 1033.5Q393 1075 472 1075Q532 1075 585.0 1046.5Q638 1018 663 936Q706 998 760.0 1036.5Q814 1075 895 1075Z"/><path fill="#c5c8c6" transform="translate(719.8 68.8) scale(0.0102564 -0.0102564)" d="M369 1053V307Q369 203 412.0 157.0Q455 111 546 111Q633 111 710.5 160.5Q788 210 831 278V1053H999V0H856L842 142Q780 62 688.5 19.5Q597 -23 505 -23Q352 -23 276.5 58.5Q201 140 201 287V1053Z"/><path fill="#c5c8c6" transform="translate(732 68.8) scale(0.0102564 -0.0102564)" d="M303 0H111L500 556L159 1053H358L602 661L849 1053H1041L701 563L1089 0H883L595 452Z"/><path fill="#c5c8c6" transform="translate(756.4 68.8) scale(0.0102564 -0.0102564)" d="M1009 1414 1117 1344 170 -40 65 30ZM332 1399Q426 1399 491.0 1355.0Q556 1311 590.5 1238.0Q625 1165 625 1079Q625 994 590.5 920.0Q556 846 491.0 801.0Q426 756 332 756Q239 756 173.0 801.0Q107 846 72.0 920.0Q37 994 37 1079Q37 1166 72.0 1238.5Q107 1311 173.0 1355.0Q239 1399 332 1399ZM332 1279Q273 1279 232.0 1230.0Q191 1181 191 1079Q191 981 231.0 927.5Q271 874 332 874Q392 874 431.5 923.0Q471 972 471 1079Q471 1187 431.5 1233.0Q392 1279 332 1279ZM872 632Q966 632 1031.0 587.5Q1096 543 1130.5 470.0Q1165 397 1165 311Q1165 226 1130.5 152.5Q1096 79 1031.0 33.5Q966 -12 872 -12Q779 -12 713.0 33.5Q647 79 612.0 152.5Q577 226 577 311Q577 398 612.0 471.0Q647 544 713.0 588.0Q779 632 872 632ZM872 511Q813 511 772.0 463.5Q731 416 731 311Q731 214 771.0 160.0Q811 106 872 106Q932 106 971.5 155.0Q1011 204 1011 311Q1011 419 971.5 465.0Q932 511 872 511Z"/><path fill="#1a1a1a" transform="translate(1049.2 68.8) scale(0.0102564 -0.0102564)" d="M312 -246V1646H928V1410H610V-12H928V-246Z"/><path fill="#1a1a1a" transform="translate(1061.4 68.8) scale(0.0102564 -0.0102564)" d="M514 1152V819H994V589H514V235H1093V0H186V1386H1092L1059 1152Z"/><path fill="#1a1a1a" transform="translate(1073.6 68.8) scale(0.0102564 -0.0102564)" d="M698 0 333 1115Q342 1056 354.0 963.5Q366 871 374.5 758.0Q383 645 383 523V0H104V1386H513L867 277Q851 372 834.0 520.0Q817 668 817 855V1386H1096V0Z"/><path fill="#1a1a1a" transform="translate(1085.8 68.8) scale(0.0102564 -0.0102564)" d="M888 1646V-246H272V-10H590V1410H272V1646Z"/><path d="M6.1,74.7 V99.1" stroke="#b93c5b" stroke-width="1.8" fill="none"/><path d="M542.9,74.7 V99.1" stroke="#b93c5b" stroke-width="1.8" fill="none"/><path d="M1091.9,74.7 V99.1" stroke="#b93c5b" stroke-width="1.8" fill="none"/><path d="M6.1,99.1 V123.5" stroke="#b93c5b" stroke-width="1.8" fill="none"/><path d="M542.9,99.1 V123.5" stroke="#b93c5b" stroke-width="1.8" fill="none"/><path d="M1091.9,99.1 V123.5" stroke="#b93c5b" stroke-width="1.8" fill="none"/><path d="M6.1,123.5 V147.9" stroke="#b93c5b" stroke-width="1.8" fill="none"/><path d="M542.9,123.5 V147.9" stroke="#b93c5b" stroke-width="1.8" fill="none"/><path d="M1091.9,123.5 V147.9" stroke="#b93c5b" stroke-width="1.8" fill="none"/><path d="M6.1,147.9 V172.3" stroke="#b93c5b" stroke-width="1.8" fill="none"/><path d="M542.9,147.9 V172.3" stroke="#b93c5b" stroke-width="1.8" fill="none"/><path d="M1091.9,147.9 V172.3" stroke="#b93c5b" stroke-width="1.8" fill="none"/><path d="M6.1,172.3 V196.7" stroke="#b93c5b" stroke-width="1.8" fill="none"/><path d="M542.9,172.3 V196.7" stroke="#b93c5b" stroke-width="1.8" fill="none"/><path d="M1091.9,172.3 V196.7" stroke="#b93c5b" stroke-width="1.8" fill="none"/><path d="M6.1,196.7 V221.1" stroke="#b93c5b" stroke-width="1.8" fill="none"/><path d="M542.9,196.7 V221.1" stroke="#b93c5b" stroke-width="1.8" fill="none"/><path d="M1091.9,196.7 V221.1" stroke="#b93c5b" stroke-width="1.8" fill="none"/><path d="M6.1,221.1 V245.5" stroke="#b93c5b" stroke-width="1.8" fill="none"/><path d="M542.9,221.1 V245.5" stroke="#b93c5b" stroke-width="1.8" fill="none"/><path d="M1091.9,221.1 V245.5" stroke="#b93c5b" stroke-width="1.8" fill="none"/><path d="M6.1,245.5 V269.9" stroke="#b93c5b" stroke-width="1.8" fill="none"/><path d="M542.9,245.5 V269.9" stroke="#b93c5b" stroke-width="1.8" fill="none"/><path d="M1091.9,245.5 V269.9" stroke="#b93c5b" stroke-width="1.8" fill="none"/><path d="M6.1,269.9 V294.3" stroke="#b93c5b" stroke-width="1.8" fill="none"/><path d="M542.9,269.9 V294.3" stroke="#b93c5b" stroke-width="1.8" fill="none"/><path d="M1091.9,269.9 V294.3" stroke="#b93c5b" stroke-width="1.8" fill="none"/><path d="M6.1,294.3 V318.7" stroke="#b93c5b" stroke-width="1.8" fill="none"/><path d="M542.9,294.3 V318.7" stroke="#b93c5b" stroke-width="1.8" fill="none"/><path d="M1091.9,294.3 V318.7" stroke="#b93c5b" stroke-width="1.8" fill="none"/><path d="M6.1,318.7 V343.1" stroke="#b93c5b" stroke-width="1.8" fill="none"/><path d="M542.9,318.7 V343.1" stroke="#b93c5b" stroke-width="1.8" fill="none"/><path d="M1091.9,318.7 V343.1" stroke="#b93c5b" stroke-width="1.8" fill="none"/><path d="M6.1,343.1 V367.5" stroke="#b93c5b" stroke-width="1.8" fill="none"/><path d="M542.9,343.1 V367.5" stroke="#b93c5b" stroke-width="1.8" fill="none"/><path d="M1091.9,343.1 V367.5" stroke="#b93c5b" stroke-width="1.8" fill="none"/><path d="M6.1,367.5 V391.9" stroke="#b93c5b" stroke-width="1.8" fill="none"/><path d="M542.9,367.5 V391.9" stroke="#b93c5b" stroke-width="1.8" fill="none"/><path d="M1091.9,367.5 V391.9" stroke="#b93c5b" stroke-width="1.8" fill="none"/><path d="M6.1,391.9 V416.3" stroke="#b93c5b" stroke-width="1.8" fill="none"/><path d="M542.9,391.9 V416.3" stroke="#b93c5b" stroke-width="1.8" fill="none"/><path d="M1091.9,391.9 V416.3" stroke="#b93c5b" stroke-width="1.8" fill="none"/><path d="M6.1,416.3 V440.7" stroke="#b93c5b" stroke-width="1.8" fill="none"/><path d="M542.9,416.3 V440.7" stroke="#b93c5b" stroke-width="1.8" fill="none"/><path d="M1091.9,416.3 V440.7" stroke="#b93c5b" stroke-width="1.8" fill="none"/><path d="M6.1,440.7 V465.1" stroke="#b93c5b" stroke-width="1.8" fill="none"/><path d="M542.9,440.7 V465.1" stroke="#b93c5b" stroke-width="1.8" fill="none"/><path d="M1091.9,440.7 V465.1" stroke="#b93c5b" stroke-width="1.8" fill="none"/><path d="M6.1,465.1 V489.5" stroke="#b93c5b" stroke-width="1.8" fill="none"/><path d="M542.9,465.1 V489.5" stroke="#b93c5b" stroke-width="1.8" fill="none"/><path d="M1091.9,465.1 V489.5" stroke="#b93c5b" stroke-width="1.8" fill="none"/><path d="M6.1,489.5 V513.9" stroke="#b93c5b" stroke-width="1.8" fill="none"/><path d="M542.9,489.5 V513.9" stroke="#b93c5b" stroke-width="1.8" fill="none"/><path d="M1091.9,489.5 V513.9" stroke="#b93c5b" stroke-width="1.8" fill="none"/><path d="M6.1,513.9 V538.3" stroke="#b93c5b" stroke-width="1.8" fill="none"/><path d="M542.9,513.9 V538.3" stroke="#b93c5b" stroke-width="1.8" fill="none"/><path d="M1091.9,513.9 V538.3" stroke="#b93c5b" stroke-width="1.8" fill="none"/><path d="M6.1,538.3 V562.7" stroke="#b93c5b" stroke-width="1.8" fill="none"/><path d="M542.9,538.3 V562.7" stroke="#b93c5b" stroke-width="1.8" fill="none"/><path d="M1091.9,538.3 V562.7" stroke="#b93c5b" stroke-width="1.8" fill="none"/><path d="M6.1,562.7 V587.1" stroke="#b93c5b" stroke-width="1.8" fill="none"/><path d="M542.9,562.7 V587.1" stroke="#b93c5b" stroke-width="1.8" fill="none"/><path d="M1091.9,562.7 V587.1" stroke="#b93c5b" stroke-width="1.8" fill="none"/><path d="M6.1,587.1 L6.1,599.3 L12.2,599.3" stroke="#b93c5b" stroke-width="1.8" fill="none"/><path d="M12.2,599.3 H24.4" stroke="#b93c5b" stroke-width="1.8" fill="none"/><path d="M24.4,599.3 H36.6" stroke="#b93c5b" stroke-width="1.8" fill="none"/><path d="M36.6,599.3 H48.8" stroke="#b93c5b" stroke-width="1.8" fill="none"/><path d="M48.8,599.3 H61" stroke="#b93c5b" stroke-width="1.8" fill="none"/><path d="M61,599.3 H73.2" stroke="#b93c5b" stroke-width="1.8" fill="none"/><path d="M73.2,599.3 H85.4" stroke="#b93c5b" stroke-width="1.8" fill="none"/><path d="M85.4,599.3 H97.6" stroke="#b93c5b" stroke-width="1.8" fill="none"/><path d="M97.6,599.3 H109.8" stroke="#b93c5b" stroke-width="1.8" fill="none"/><path d="M109.8,599.3 H122" stroke="#b93c5b" stroke-width="1.8" fill="none"/><path d="M122,599.3 H134.2" stroke="#b93c5b" stroke-width="1.8" fill="none"/><path d="M134.2,599.3 H146.4" stroke="#b93c5b" stroke-width="1.8" fill="none"/><path d="M146.4,599.3 H158.6" stroke="#b93c5b" stroke-width="1.8" fill="none"/><path d="M158.6,599.3 H170.8" stroke="#b93c5b" stroke-width="1.8" fill="none"/><path d="M170.8,599.3 H183" stroke="#b93c5b" stroke-width="1.8" fill="none"/><path d="M183,599.3 H195.2" stroke="#b93c5b" stroke-width="1.8" fill="none"/><path d="M195.2,599.3 H207.4" stroke="#b93c5b" stroke-width="1.8" fill="none"/><path d="M207.4,599.3 H219.6" stroke="#b93c5b" stroke-width="1.8" fill="none"/><path d="M219.6,599.3 H231.8" stroke="#b93c5b" stroke-width="1.8" fill="none"/><path d="M231.8,599.3 H244" stroke="#b93c5b" stroke-width="1.8" fill="none"/><path d="M244,599.3 H256.2" stroke="#b93c5b" stroke-width="1.8" fill="none"/><path d="M256.2,599.3 H268.4" stroke="#b93c5b" stroke-width="1.8" fill="none"/><path d="M268.4,599.3 H280.6" stroke="#b93c5b" stroke-width="1.8" fill="none"/><path d="M280.6,599.3 H292.8" stroke="#b93c5b" stroke-width="1.8" fill="none"/><path d="M292.8,599.3 H305" stroke="#b93c5b" stroke-width="1.8" fill="none"/><path d="M305,599.3 H317.2" stroke="#b93c5b" stroke-width="1.8" fill="none"/><path d="M317.2,599.3 H329.4" stroke="#b93c5b" stroke-width="1.8" fill="none"/><path d="M329.4,599.3 H341.6" stroke="#b93c5b" stroke-width="1.8" fill="none"/><path d="M341.6,599.3 H353.8" stroke="#b93c5b" stroke-width="1.8" fill="none"/><path d="M353.8,599.3 H366" stroke="#b93c5b" stroke-width="1.8" fill="none"/><path d="M366,599.3 H378.2" stroke="#b93c5b" stroke-width="1.8" fill="none"/><path d="M378.2,599.3 H390.4" stroke="#b93c5b" stroke-width="1.8" fill="none"/><path d="M390.4,599.3 H402.6" stroke="#b93c5b" stroke-width="1.8" fill="none"/><path d="M402.6,599.3 H414.8" stroke="#b93c5b" stroke-width="1.8" fill="none"/><path d="M414.8,599.3 H427" stroke="#b93c5b" stroke-width="1.8" fill="none"/><path d="M427,599.3 H439.2" stroke="#b93c5b" stroke-width="1.8" fill="none"/><path d="M439.2,599.3 H451.4" stroke="#b93c5b" stroke-width="1.8" fill="none"/><path d="M451.4,599.3 H463.6" stroke="#b93c5b" stroke-width="1.8" fill="none"/><path d="M463.6,599.3 H475.8" stroke="#b93c5b" stroke-width="1.8" fill="none"/><path d="M475.8,599.3 H488" stroke="#b93c5b" stroke-width="1.8" fill="none"/><path d="M488,599.3 H500.2" stroke="#b93c5b" stroke-width="1.8" fill="none"/><path d="M500.2,599.3 H512.4" stroke="#b93c5b" stroke-width="1.8" fill="none"/><path d="M512.4,599.3 H524.6" stroke="#b93c5b" stroke-width="1.8" fill="none"/><path d="M524.6,599.3 H536.8" stroke="#b93c5b" stroke-width="1.8" fill="none"/><path d="M536.8,599.3 H549 M542.9,587.1 V599.3" stroke="#b93c5b" stroke-width="1.8" fill="none"/><path d="M549,599.3 H561.2" stroke="#b93c5b" stroke-width="1.8" fill="none"/><path d="M561.2,599.3 H573.4" stroke="#b93c5b" stroke-width="1.8" fill="none"/><path d="M573.4,599.3 H585.6" stroke="#b93c5b" stroke-width="1.8" fill="none"/><path d="M585.6,599.3 H597.8" stroke="#b93c5b" stroke-width="1.8" fill="none"/><path d="M597.8,599.3 H610" stroke="#b93c5b" stroke-width="1.8" fill="none"/><path d="M610,599.3 H622.2" stroke="#b93c5b" stroke-width="1.8" fill="none"/><path d="M622.2,599.3 H634.4" stroke="#b93c5b" stroke-width="1.8" fill="none"/><path d="M634.4,599.3 H646.6" stroke="#b93c5b" stroke-width="1.8" fill="none"/><path d="M646.6,599.3 H658.8" stroke="#b93c5b" stroke-width="1.8" fill="none"/><path d="M658.8,599.3 H671" stroke="#b93c5b" stroke-width="1.8" fill="none"/><path d="M671,599.3 H683.2" stroke="#b93c5b" stroke-width="1.8" fill="none"/><path d="M683.2,599.3 H695.4" stroke="#b93c5b" stroke-width="1.8" fill="none"/><path d="M695.4,599.3 H707.6" stroke="#b93c5b" stroke-width="1.8" fill="none"/><path d="M707.6,599.3 H719.8" stroke="#b93c5b" stroke-width="1.8" fill="none"/><path d="M719.8,599.3 H732" stroke="#b93c5b" stroke-width="1.8" fill="none"/><path d="M732,599.3 H744.2" stroke="#b93c5b" stroke-width="1.8" fill="none"/><path d="M744.2,599.3 H756.4" stroke="#b93c5b" stroke-width="1.8" fill="none"/><path d="M756.4,599.3 H768.6" stroke="#b93c5b" stroke-width="1.8" fill="none"/><path d="M768.6,599.3 H780.8" stroke="#b93c5b" stroke-width="1.8" fill="none"/><path d="M780.8,599.3 H793" stroke="#b93c5b" stroke-width="1.8" fill="none"/><path d="M793,599.3 H805.2" stroke="#b93c5b" stroke-width="1.8" fill="none"/><path d="M805.2,599.3 H817.4" stroke="#b93c5b" stroke-width="1.8" fill="none"/><path d="M817.4,599.3 H829.6" stroke="#b93c5b" stroke-width="1.8" fill="none"/><path d="M829.6,599.3 H841.8" stroke="#b93c5b" stroke-width="1.8" fill="none"/><path d="M841.8,599.3 H854" stroke="#b93c5b" stroke-width="1.8" fill="none"/><path d="M854,599.3 H866.2" stroke="#b93c5b" stroke-width="1.8" fill="none"/><path d="M866.2,599.3 H878.4" stroke="#b93c5b" stroke-width="1.8" fill="none"/><path d="M878.4,599.3 H890.6" stroke="#b93c5b" stroke-width="1.8" fill="none"/><path d="M890.6,599.3 H902.8" stroke="#b93c5b" stroke-width="1.8" fill="none"/><path d="M902.8,599.3 H915" stroke="#b93c5b" stroke-width="1.8" fill="none"/><path d="M915,599.3 H927.2" stroke="#b93c5b" stroke-width="1.8" fill="none"/><path d="M927.2,599.3 H939.4" stroke="#b93c5b" stroke-width="1.8" fill="none"/><path d="M939.4,599.3 H951.6" stroke="#b93c5b" stroke-width="1.8" fill="none"/><path d="M951.6,599.3 H963.8" stroke="#b93c5b" stroke-width="1.8" fill="none"/><path d="M963.8,599.3 H976" stroke="#b93c5b" stroke-width="1.8" fill="none"/><path d="M976,599.3 H988.2" stroke="#b93c5b" stroke-width="1.8" fill="none"/><path d="M988.2,599.3 H1000.4" stroke="#b93c5b" stroke-width="1.8" fill="none"/><path d="M1000.4,599.3 H1012.6" stroke="#b93c5b" stroke-width="1.8" fill="none"/><path d="M1012.6,599.3 H1024.8" stroke="#b93c5b" stroke-width="1.8" fill="none"/><path d="M1024.8,599.3 H1037" stroke="#b93c5b" stroke-width="1.8" fill="none"/><path d="M1037,599.3 H1049.2" stroke="#b93c5b" stroke-width="1.8" fill="none"/><path d="M1049.2,599.3 H1061.4" stroke="#b93c5b" stroke-width="1.8" fill="none"/><path d="M1061.4,599.3 H1073.6" stroke="#b93c5b" stroke-width="1.8" fill="none"/><path d="M1073.6,599.3 H1085.8" stroke="#b93c5b" stroke-width="1.8" fill="none"/><path d="M1091.9,587.1 L1091.9,599.3 L1085.8,599.3" stroke="#b93c5b" stroke-width="1.8" fill="none"/><path fill="#b93c5b" transform="translate(780.8 630) scale(0.0102564 -0.0102564)" d="M566 192Q645 192 693.5 217.0Q742 242 742 292Q742 326 723.0 349.0Q704 372 650.0 393.0Q596 414 490 443Q344 482 252.5 555.0Q161 628 161 769Q161 911 279.5 1004.0Q398 1097 622 1097Q764 1097 869.5 1060.5Q975 1024 1052 968L926 782Q860 823 784.0 847.5Q708 872 631 872Q479 872 479 790Q479 763 498.5 743.5Q518 724 572.0 703.5Q626 683 730 653Q833 624 909.5 586.0Q986 548 1028.0 484.5Q1070 421 1070 317Q1070 201 1001.0 122.5Q932 44 818.0 5.0Q704 -34 568 -34Q414 -34 296.0 10.0Q178 54 95 126L254 304Q316 256 394.5 224.0Q473 192 566 192Z"/><path fill="#b93c5b" transform="translate(793 630) scale(0.0102564 -0.0102564)" d="M566 192Q645 192 693.5 217.0Q742 242 742 292Q742 326 723.0 349.0Q704 372 650.0 393.0Q596 414 490 443Q344 482 252.5 555.0Q161 628 161 769Q161 911 279.5 1004.0Q398 1097 622 1097Q764 1097 869.5 1060.5Q975 1024 1052 968L926 782Q860 823 784.0 847.5Q708 872 631 872Q479 872 479 790Q479 763 498.5 743.5Q518 724 572.0 703.5Q626 683 730 653Q833 624 909.5 586.0Q986 548 1028.0 484.5Q1070 421 1070 317Q1070 201 1001.0 122.5Q932 44 818.0 5.0Q704 -34 568 -34Q414 -34 296.0 10.0Q178 54 95 126L254 304Q316 256 394.5 224.0Q473 192 566 192Z"/><path fill="#b93c5b" transform="translate(805.2 630) scale(0.0102564 -0.0102564)" d="M456 1515V957Q589 1097 768 1097Q910 1097 985.0 1014.0Q1060 931 1060 780V0H744V692Q744 788 722.5 826.0Q701 864 642 864Q592 864 546.5 829.5Q501 795 456 735V0H140V1484Z"/><path fill="#b93c5b" transform="translate(817.4 630) scale(0.0102564 -0.0102564)" d="M389 868Q389 925 417.5 972.5Q446 1020 494.0 1049.0Q542 1078 600 1078Q688 1078 748.5 1015.5Q809 953 809 868Q809 783 748.5 721.0Q688 659 600 659Q512 659 450.5 721.0Q389 783 389 868ZM389 177Q389 262 450.5 323.0Q512 384 600 384Q688 384 748.5 323.0Q809 262 809 177Q809 91 748.5 28.5Q688 -34 600 -34Q512 -34 450.5 28.5Q389 91 389 177Z"/><path fill="#b93c5b" transform="translate(829.6 630) scale(0.0102564 -0.0102564)" d="M456 1515V957Q589 1097 768 1097Q910 1097 985.0 1014.0Q1060 931 1060 780V0H744V692Q744 788 722.5 826.0Q701 864 642 864Q592 864 546.5 829.5Q501 795 456 735V0H140V1484Z"/><path fill="#b93c5b" transform="translate(841.8 630) scale(0.0102564 -0.0102564)" d="M600 1097Q764 1097 879.0 1027.0Q994 957 1055.0 830.5Q1116 704 1116 534Q1116 268 980.0 117.0Q844 -34 600 -34Q356 -34 220.0 115.0Q84 264 84 532Q84 701 145.5 828.0Q207 955 322.5 1026.0Q438 1097 600 1097ZM600 864Q503 864 456.5 784.5Q410 705 410 532Q410 356 456.5 277.0Q503 198 600 198Q697 198 743.5 277.0Q790 356 790 534Q790 706 743.5 785.0Q697 864 600 864Z"/><path fill="#b93c5b" transform="translate(854 630) scale(0.0102564 -0.0102564)" d="M566 192Q645 192 693.5 217.0Q742 242 742 292Q742 326 723.0 349.0Q704 372 650.0 393.0Q596 414 490 443Q344 482 252.5 555.0Q161 628 161 769Q161 911 279.5 1004.0Q398 1097 622 1097Q764 1097 869.5 1060.5Q975 1024 1052 968L926 782Q860 823 784.0 847.5Q708 872 631 872Q479 872 479 790Q479 763 498.5 743.5Q518 724 572.0 703.5Q626 683 730 653Q833 624 909.5 586.0Q986 548 1028.0 484.5Q1070 421 1070 317Q1070 201 1001.0 122.5Q932 44 818.0 5.0Q704 -34 568 -34Q414 -34 296.0 10.0Q178 54 95 126L254 304Q316 256 394.5 224.0Q473 192 566 192Z"/><path fill="#b93c5b" transform="translate(866.2 630) scale(0.0102564 -0.0102564)" d="M1096 62Q1034 22 946.0 -6.0Q858 -34 748 -34Q540 -34 439.0 72.5Q338 179 338 362V844H115V1062H338V1292L654 1330V1062H996L965 844H654V362Q654 283 690.0 249.0Q726 215 805 215Q861 215 907.5 228.5Q954 242 991 263Z"/><path fill="#e0e0e0" transform="translate(890.6 630) scale(0.0102564 -0.0102564)" d="M1035 137V0H240V137H579V1195L263 1003L190 1123L600 1377H747V137Z"/><path fill="#e0e0e0" transform="translate(902.8 630) scale(0.0102564 -0.0102564)" d="M1035 137V0H240V137H579V1195L263 1003L190 1123L600 1377H747V137Z"/><path fill="#e0e0e0" transform="translate(915 630) scale(0.0102564 -0.0102564)" d="M437 861Q437 928 483.5 975.0Q530 1022 598 1022Q668 1022 714.5 975.0Q761 928 761 861Q761 794 714.5 746.0Q668 698 598 698Q530 698 483.5 746.0Q437 794 437 861ZM437 140Q437 205 483.5 253.0Q530 301 598 301Q668 301 714.5 253.0Q761 205 761 140Q761 72 714.5 24.5Q668 -23 598 -23Q530 -23 483.5 24.5Q437 72 437 140Z"/><path fill="#e0e0e0" transform="translate(927.2 630) scale(0.0102564 -0.0102564)" d="M537 1399Q667 1399 762.0 1352.0Q857 1305 908.5 1227.0Q960 1149 960 1055Q960 971 923.0 903.5Q886 836 825.0 792.0Q764 748 691 734Q772 728 843.5 688.5Q915 649 959.5 576.0Q1004 503 1004 397Q1004 278 944.0 182.5Q884 87 776.5 32.0Q669 -23 526 -23Q410 -23 296.0 21.0Q182 65 103 161L216 253Q275 184 356.5 150.0Q438 116 522 116Q666 116 747.0 191.5Q828 267 828 397Q828 544 746.5 601.0Q665 658 543 658H427L448 791H529Q596 791 655.5 817.0Q715 843 753.0 896.0Q791 949 791 1031Q791 1145 715.0 1205.0Q639 1265 531 1265Q441 1265 374.0 1233.5Q307 1202 239 1138L146 1241Q234 1324 333.0 1361.5Q432 1399 537 1399Z"/><path fill="#e0e0e0" transform="translate(939.4 630) scale(0.0102564 -0.0102564)" d="M537 1399Q667 1399 762.0 1352.0Q857 1305 908.5 1227.0Q960 1149 960 1055Q960 971 923.0 903.5Q886 836 825.0 792.0Q764 748 691 734Q772 728 843.5 688.5Q915 649 959.5 576.0Q1004 503 1004 397Q1004 278 944.0 182.5Q884 87 776.5 32.0Q669 -23 526 -23Q410 -23 296.0 21.0Q182 65 103 161L216 253Q275 184 356.5 150.0Q438 116 522 116Q666 116 747.0 191.5Q828 267 828 397Q828 544 746.5 601.0Q665 658 543 658H427L448 791H529Q596 791 655.5 817.0Q715 843 753.0 896.0Q791 949 791 1031Q791 1145 715.0 1205.0Q639 1265 531 1265Q441 1265 374.0 1233.5Q307 1202 239 1138L146 1241Q234 1324 333.0 1361.5Q432 1399 537 1399Z"/><path fill="#e0e0e0" transform="translate(963.8 630) scale(0.0102564 -0.0102564)" d="M539 1399Q669 1399 762.0 1348.5Q855 1298 904.5 1211.0Q954 1124 954 1015Q954 920 921.0 829.5Q888 739 815.5 639.5Q743 540 625.0 419.0Q507 298 337 143H986L965 0H146V137Q341 324 464.5 453.0Q588 582 656.0 675.5Q724 769 750.5 847.0Q777 925 777 1009Q777 1125 712.0 1192.0Q647 1259 531 1259Q429 1259 364.0 1224.0Q299 1189 234 1112L118 1202Q200 1302 299.5 1350.5Q399 1399 539 1399Z"/><path fill="#e0e0e0" transform="translate(976 630) scale(0.0102564 -0.0102564)" d="M600 1399Q822 1399 936.5 1215.0Q1051 1031 1051 689Q1051 346 936.5 161.5Q822 -23 600 -23Q378 -23 263.5 161.5Q149 346 149 689Q149 1031 263.5 1215.0Q378 1399 600 1399ZM600 1264Q473 1264 400.0 1129.5Q327 995 327 689Q327 460 362 329L783 1175Q720 1264 600 1264ZM874 689Q874 920 838 1050L419 201Q482 113 600 113Q728 113 801.0 248.0Q874 383 874 689Z"/><path fill="#e0e0e0" transform="translate(988.2 630) scale(0.0102564 -0.0102564)" d="M539 1399Q669 1399 762.0 1348.5Q855 1298 904.5 1211.0Q954 1124 954 1015Q954 920 921.0 829.5Q888 739 815.5 639.5Q743 540 625.0 419.0Q507 298 337 143H986L965 0H146V137Q341 324 464.5 453.0Q588 582 656.0 675.5Q724 769 750.5 847.0Q777 925 777 1009Q777 1125 712.0 1192.0Q647 1259 531 1259Q429 1259 364.0 1224.0Q299 1189 234 1112L118 1202Q200 1302 299.5 1350.5Q399 1399 539 1399Z"/><path fill="#e0e0e0" transform="translate(1000.4 630) scale(0.0102564 -0.0102564)" d="M671 1399Q750 1399 817.5 1378.5Q885 1358 943 1319L877 1205Q781 1263 668 1263Q509 1263 421.0 1113.0Q333 963 327 711Q393 809 475.5 853.0Q558 897 659 897Q765 897 854.0 849.5Q943 802 996.0 706.0Q1049 610 1049 463Q1049 311 990.5 202.0Q932 93 833.5 35.0Q735 -23 616 -23Q449 -23 348.5 60.0Q248 143 203.5 294.5Q159 446 159 651Q159 879 219.5 1047.0Q280 1215 395.0 1307.0Q510 1399 671 1399ZM633 759Q534 759 457.0 705.0Q380 651 329 564Q334 331 401.5 222.0Q469 113 615 113Q746 113 811.5 205.5Q877 298 877 459Q877 628 810.0 693.5Q743 759 633 759Z"/><path fill="#e0e0e0" transform="translate(1012.6 630) scale(0.0102564 -0.0102564)" d="M199 553V699H1001V553Z"/><path fill="#e0e0e0" transform="translate(1024.8 630) scale(0.0102564 -0.0102564)" d="M600 1399Q822 1399 936.5 1215.0Q1051 1031 1051 689Q1051 346 936.5 161.5Q822 -23 600 -23Q378 -23 263.5 161.5Q149 346 149 689Q149 1031 263.5 1215.0Q378 1399 600 1399ZM600 1264Q473 1264 400.0 1129.5Q327 995 327 689Q327 460 362 329L783 1175Q720 1264 600 1264ZM874 689Q874 920 838 1050L419 201Q482 113 600 113Q728 113 801.0 248.0Q874 383 874 689Z"/><path fill="#e0e0e0" transform="translate(1037 630) scale(0.0102564 -0.0102564)" d="M671 1399Q750 1399 817.5 1378.5Q885 1358 943 1319L877 1205Q781 1263 668 1263Q509 1263 421.0 1113.0Q333 963 327 711Q393 809 475.5 853.0Q558 897 659 897Q765 897 854.0 849.5Q943 802 996.0 706.0Q1049 610 1049 463Q1049 311 990.5 202.0Q932 93 833.5 35.0Q735 -23 616 -23Q449 -23 348.5 60.0Q248 143 203.5 294.5Q159 446 159 651Q159 879 219.5 1047.0Q280 1215 395.0 1307.0Q510 1399 671 1399ZM633 759Q534 759 457.0 705.0Q380 651 329 564Q334 331 401.5 222.0Q469 113 615 113Q746 113 811.5 205.5Q877 298 877 459Q877 628 810.0 693.5Q743 759 633 759Z"/><path fill="#e0e0e0" transform="translate(1049.2 630) scale(0.0102564 -0.0102564)" d="M199 553V699H1001V553Z"/><path fill="#e0e0e0" transform="translate(1061.4 630) scale(0.0102564 -0.0102564)" d="M539 1399Q669 1399 762.0 1348.5Q855 1298 904.5 1211.0Q954 1124 954 1015Q954 920 921.0 829.5Q888 739 815.5 639.5Q743 540 625.0 419.0Q507 298 337 143H986L965 0H146V137Q341 324 464.5 453.0Q588 582 656.0 675.5Q724 769 750.5 847.0Q777 925 777 1009Q777 1125 712.0 1192.0Q647 1259 531 1259Q429 1259 364.0 1224.0Q299 1189 234 1112L118 1202Q200 1302 299.5 1350.5Q399 1399 539 1399Z"/><path fill="#e0e0e0" transform="translate(1073.6 630) scale(0.0102564 -0.0102564)" d="M537 1399Q667 1399 762.0 1352.0Q857 1305 908.5 1227.0Q960 1149 960 1055Q960 971 923.0 903.5Q886 836 825.0 792.0Q764 748 691 734Q772 728 843.5 688.5Q915 649 959.5 576.0Q1004 503 1004 397Q1004 278 944.0 182.5Q884 87 776.5 32.0Q669 -23 526 -23Q410 -23 296.0 21.0Q182 65 103 161L216 253Q275 184 356.5 150.0Q438 116 522 116Q666 116 747.0 191.5Q828 267 828 397Q828 544 746.5 601.0Q665 658 543 658H427L448 791H529Q596 791 655.5 817.0Q715 843 753.0 896.0Q791 949 791 1031Q791 1145 715.0 1205.0Q639 1265 531 1265Q441 1265 374.0 1233.5Q307 1202 239 1138L146 1241Q234 1324 333.0 1361.5Q432 1399 537 1399Z"/>
    </g>
    </g>
</svg>
