<svg class="rich-terminal" viewBox="0 0 1116 684.4" xmlns="http://www.w3.org/2000/svg">
    <!-- Generated with Rich https://www.textualize.io -->
    <style>

    @font-face {
        font-family: "Fira Code";
        src: local("FiraCode-Regular"),
                url("https://cdnjs.cloudflare.com/ajax/libs/firacode/6.2.0/woff2/FiraCode-Regular.woff2") format("woff2"),
                url("https://cdnjs.cloudflare.com/ajax/libs/firacode/6.2.0/woff/FiraCode-Regular.woff") format("woff");
        font-style: normal;
        font-weight: 400;
    }
    @font-face {
        font-family: "Fira Code";
        src: local("FiraCode-Bold"),
                url("https://cdnjs.cloudflare.com/ajax/libs/firacode/6.2.0/woff2/FiraCode-Bold.woff2") format("woff2"),
                url("https://cdnjs.cloudflare.com/ajax/libs/firacode/6.2.0/woff/FiraCode-Bold.woff") format("woff");
        font-style: bold;
        font-weight: 700;
    }

    .terminal-3423231576-matrix {
        font-family: Fira Code, "Apple SD Gothic Neo", monospace;
        font-size: 20px;
        line-height: 24.4px;
        font-variant-east-asian: full-width;
    }

    .terminal-3423231576-title {
        font-size: 18px;
        font-weight: bold;
        font-family: arial;
    }

    .terminal-3423231576-r1 { fill: #646464 }
.terminal-3423231576-r2 { fill: #595953;font-weight: bold }
.terminal-3423231576-r3 { fill: #151515;font-weight: bold }
.terminal-3423231576-r4 { fill: #c5c8c6 }
.terminal-3423231576-r5 { fill: #0a2030 }
.terminal-3423231576-r6 { fill: #2d2d2d }
.terminal-3423231576-r7 { fill: #222222 }
.terminal-3423231576-r8 { fill: #0a0a0a }
.terminal-3423231576-r9 { fill: #fea62b }
.terminal-3423231576-r10 { fill: #e0e0e0 }
.terminal-3423231576-r11 { fill: #45505a }
.terminal-3423231576-r12 { fill: #b93c5b }
.terminal-3423231576-r13 { fill: #81878e;font-weight: bold }
.terminal-3423231576-r14 { fill: #f5e5e9;font-weight: bold }
.terminal-3423231576-r15 { fill: #54222f;font-weight: bold }
    </style>

    <defs>
    <clipPath id="terminal-3423231576-clip-terminal">
      <rect x="0" y="0" width="1097.0" height="633.4" />
    </clipPath>
    <clipPath id="terminal-3423231576-line-0">
    <rect x="0" y="1.5" width="1098" height="24.65"/>
            </clipPath>
<clipPath id="terminal-3423231576-line-1">
    <rect x="0" y="25.9" width="1098" height="24.65"/>
            </clipPath>
<clipPath id="terminal-3423231576-line-2">
    <rect x="0" y="50.3" width="1098" height="24.65"/>
            </clipPath>
<clipPath id="terminal-3423231576-line-3">
    <rect x="0" y="74.7" width="1098" height="24.65"/>
            </clipPath>
<clipPath id="terminal-3423231576-line-4">
    <rect x="0" y="99.1" width="1098" height="24.65"/>
            </clipPath>
<clipPath id="terminal-3423231576-line-5">
    <rect x="0" y="123.5" width="1098" height="24.65"/>
            </clipPath>
<clipPath id="terminal-3423231576-line-6">
    <rect x="0" y="147.9" width="1098" height="24.65"/>
            </clipPath>
<clipPath id="terminal-3423231576-line-7">
    <rect x="0" y="172.3" width="1098" height="24.65"/>
            </clipPath>
<clipPath id="terminal-3423231576-line-8">
    <rect x="0" y="196.7" width="1098" height="24.65"/>
            </clipPath>
<clipPath id="terminal-3423231576-line-9">
    <rect x="0" y="221.1" width="1098" height="24.65"/>
            </clipPath>
<clipPath id="terminal-3423231576-line-10">
    <rect x="0" y="245.5" width="1098" height="24.65"/>
            </clipPath>
<clipPath id="terminal-3423231576-line-11">
    <rect x="0" y="269.9" width="1098" height="24.65"/>
            </clipPath>
<clipPath id="terminal-3423231576-line-12">
    <rect x="0" y="294.3" width="1098" height="24.65"/>
            </clipPath>
<clipPath id="terminal-3423231576-line-13">
    <rect x="0" y="318.7" width="1098" height="24.65"/>
            </clipPath>
<clipPath id="terminal-3423231576-line-14">
    <rect x="0" y="343.1" width="1098" height="24.65"/>
            </clipPath>
<clipPath id="terminal-3423231576-line-15">
    <rect x="0" y="367.5" width="1098" height="24.65"/>
            </clipPath>
<clipPath id="terminal-3423231576-line-16">
    <rect x="0" y="391.9" width="1098" height="24.65"/>
            </clipPath>
<clipPath id="terminal-3423231576-line-17">
    <rect x="0" y="416.3" width="1098" height="24.65"/>
            </clipPath>
<clipPath id="terminal-3423231576-line-18">
    <rect x="0" y="440.7" width="1098" height="24.65"/>
            </clipPath>
<clipPath id="terminal-3423231576-line-19">
    <rect x="0" y="465.1" width="1098" height="24.65"/>
            </clipPath>
<clipPath id="terminal-3423231576-line-20">
    <rect x="0" y="489.5" width="1098" height="24.65"/>
            </clipPath>
<clipPath id="terminal-3423231576-line-21">
    <rect x="0" y="513.9" width="1098" height="24.65"/>
            </clipPath>
<clipPath id="terminal-3423231576-line-22">
    <rect x="0" y="538.3" width="1098" height="24.65"/>
            </clipPath>
<clipPath id="terminal-3423231576-line-23">
    <rect x="0" y="562.7" width="1098" height="24.65"/>
            </clipPath>
<clipPath id="terminal-3423231576-line-24">
    <rect x="0" y="587.1" width="1098" height="24.65"/>
            </clipPath>
    </defs>

    <rect fill="#292929" stroke="rgba(255,255,255,0.35)" stroke-width="1" x="1" y="1" width="1114" height="682.4" rx="8"/><path transform="translate(557 27) scale(0.0102564 -0.0102564)" d="M1114 954Q1114 793 1045.5 696.0Q977 599 857.0 555.0Q737 511 581 511H405V0H231V1377H583Q829 1377 971.5 1274.0Q1114 1171 1114 954ZM928 952Q928 1058 886.0 1121.0Q844 1184 770.5 1211.5Q697 1239 604 1239H405V651H597Q693 651 768.0 677.0Q843 703 885.5 768.5Q928 834 928 952Z"/><path transform="translate(569.2 27) scale(0.0102564 -0.0102564)" d="M1077 1053 707 -7Q670 -114 613.5 -203.0Q557 -292 466.5 -350.5Q376 -409 237 -423L211 -289Q320 -271 383.0 -234.0Q446 -197 482.5 -139.5Q519 -82 547 0H491L123 1053H303L605 128L903 1053Z"/><path transform="translate(581.4 27) scale(0.0102564 -0.0102564)" d="M1037 53Q983 17 906.0 -3.0Q829 -23 755 -23Q585 -23 493.0 66.0Q401 155 401 295V923H159V1053H401V1292L569 1312V1053H933L913 923H569V297Q569 209 615.5 163.0Q662 117 770 117Q829 117 879.0 131.0Q929 145 972 167Z"/><path transform="translate(593.6 27) scale(0.0102564 -0.0102564)" d="M895 1075Q945 1075 992.0 1053.0Q1039 1031 1069.0 968.0Q1099 905 1099 784V0H943V757Q943 856 931.0 900.0Q919 944 862 944Q815 944 768.0 914.5Q721 885 678 818V0H521V757Q521 856 509.0 900.0Q497 944 440 944Q391 944 345.0 914.5Q299 885 256 818V0H101V1053H233L243 931Q286 992 339.5 1033.5Q393 1075 472 1075Q532 1075 585.0 1046.5Q638 1018 663 936Q706 998 760.0 1036.5Q814 1075 895 1075Z"/><path transform="translate(605.8 27) scale(0.0102564 -0.0102564)" d="M369 1053V307Q369 203 412.0 157.0Q455 111 546 111Q633 111 710.5 160.5Q788 210 831 278V1053H999V0H856L842 142Q780 62 688.5 19.5Q597 -23 505 -23Q352 -23 276.5 58.5Q201 140 201 287V1053Z"/><path transform="translate(618 27) scale(0.0102564 -0.0102564)" d="M303 0H111L500 556L159 1053H358L602 661L849 1053H1041L701 563L1089 0H883L595 452Z"/><path transform="translate(630.2 27) scale(0.0102564 -0.0102564)" d="M867 351H322L212 0H41L489 1377H711L1159 0H977ZM367 495H822L596 1231Z"/><path transform="translate(642.4 27) scale(0.0102564 -0.0102564)" d="M672 1075Q812 1075 895.5 1007.0Q979 939 1016.0 815.5Q1053 692 1053 527Q1053 368 1008.5 243.5Q964 119 874.0 48.0Q784 -23 647 -23Q474 -23 369 99V-403L201 -424V1053H344L358 906Q416 987 496.0 1031.0Q576 1075 672 1075ZM632 940Q545 940 478.0 887.5Q411 835 369 771V249Q410 188 472.5 152.5Q535 117 610 117Q741 117 807.0 217.0Q873 317 873 528Q873 940 632 940Z"/><path transform="translate(654.6 27) scale(0.0102564 -0.0102564)" d="M672 1075Q812 1075 895.5 1007.0Q979 939 1016.0 815.5Q1053 692 1053 527Q1053 368 1008.5 243.5Q964 119 874.0 48.0Q784 -23 647 -23Q474 -23 369 99V-403L201 -424V1053H344L358 906Q416 987 496.0 1031.0Q576 1075 672 1075ZM632 940Q545 940 478.0 887.5Q411 835 369 771V249Q410 188 472.5 152.5Q535 117 610 117Q741 117 807.0 217.0Q873 317 873 528Q873 940 632 940Z"/>
            <g transform="translate(26,22)">
            <circle cx="0" cy="0" r="7" fill="#ff5f57"/>
            <circle cx="22" cy="0" r="7" fill="#febc2e"/>
            <circle cx="44" cy="0" r="7" fill="#28c840"/>
            </g>
        
    <g transform="translate(9, 41)" clip-path="url(#terminal-3423231576-clip-terminal)">
    <rect fill="#121212" x="0" y="1.5" width="12.2" height="24.65" shape-rendering="crispEdges"/><rect fill="#0b3a5f" x="12.2" y="1.5" width="85.4" height="24.65" shape-rendering="crispEdges"/><rect fill="#121212" x="97.6" y="1.5" width="24.4" height="24.65" shape-rendering="crispEdges"/><rect fill="#2a5738" x="122" y="1.5" width="36.6" height="24.65" shape-rendering="crispEdges"/><rect fill="#121212" x="158.6" y="1.5" width="939.4" height="24.65" shape-rendering="crispEdges"/><rect fill="#121212" x="0" y="25.9" width="12.2" height="24.65" shape-rendering="crispEdges"/><rect fill="#121212" x="12.2" y="25.9" width="85.4" height="24.65" shape-rendering="crispEdges"/><rect fill="#121212" x="97.6" y="25.9" width="951.6" height="24.65" shape-rendering="crispEdges"/><rect fill="#2c151a" x="1049.2" y="25.9" width="36.6" height="24.65" shape-rendering="crispEdges"/><rect fill="#121212" x="1085.8" y="25.9" width="12.2" height="24.65" shape-rendering="crispEdges"/><rect fill="#121212" x="0" y="50.3" width="12.2" height="24.65" shape-rendering="crispEdges"/><rect fill="#121212" x="12.2" y="50.3" width="231.8" height="24.65" shape-rendering="crispEdges"/><rect fill="#121212" x="244" y="50.3" width="12.2" height="24.65" shape-rendering="crispEdges"/><rect fill="#121212" x="256.2" y="50.3" width="793" height="24.65" shape-rendering="crispEdges"/><rect fill="#0a2030" x="1049.2" y="50.3" width="48.8" height="24.65" shape-rendering="crispEdges"/><rect fill="#121212" x="0" y="74.7" width="12.2" height="24.65" shape-rendering="crispEdges"/><rect fill="#121212" x="12.2" y="74.7" width="1073.6" height="24.65" shape-rendering="crispEdges"/><rect fill="#121212" x="1085.8" y="74.7" width="12.2" height="24.65" shape-rendering="crispEdges"/><rect fill="#121212" x="0" y="99.1" width="12.2" height="24.65" shape-rendering="crispEdges"/><rect fill="#121212" x="12.2" y="99.1" width="1073.6" height="24.65" shape-rendering="crispEdges"/><rect fill="#121212" x="1085.8" y="99.1" width="12.2" height="24.65" shape-rendering="crispEdges"/><rect fill="#121212" x="0" y="123.5" width="12.2" height="24.65" shape-rendering="crispEdges"/><rect fill="#121212" x="12.2" y="123.5" width="1073.6" height="24.65" shape-rendering="crispEdges"/><rect fill="#121212" x="1085.8" y="123.5" width="12.2" height="24.65" shape-rendering="crispEdges"/><rect fill="#121212" x="0" y="147.9" width="12.2" height="24.65" shape-rendering="crispEdges"/><rect fill="#121212" x="12.2" y="147.9" width="1073.6" height="24.65" shape-rendering="crispEdges"/><rect fill="#121212" x="1085.8" y="147.9" width="12.2" height="24.65" shape-rendering="crispEdges"/><rect fill="#121212" x="0" y="172.3" width="12.2" height="24.65" shape-rendering="crispEdges"/><rect fill="#121212" x="12.2" y="172.3" width="1073.6" height="24.65" shape-rendering="crispEdges"/><rect fill="#121212" x="1085.8" y="172.3" width="12.2" height="24.65" shape-rendering="crispEdges"/><rect fill="#121212" x="0" y="196.7" width="12.2" height="24.65" shape-rendering="crispEdges"/><rect fill="#121212" x="12.2" y="196.7" width="244" height="24.65" shape-rendering="crispEdges"/><rect fill="#242f38" x="256.2" y="196.7" width="12.2" height="24.65" shape-rendering="crispEdges"/><rect fill="#242f38" x="268.4" y="196.7" width="12.2" height="24.65" shape-rendering="crispEdges"/><rect fill="#242f38" x="280.6" y="196.7" width="158.6" height="24.65" shape-rendering="crispEdges"/><rect fill="#242f38" x="439.2" y="196.7" width="390.4" height="24.65" shape-rendering="crispEdges"/><rect fill="#242f38" x="829.6" y="196.7" width="12.2" height="24.65" shape-rendering="crispEdges"/><rect fill="#121212" x="841.8" y="196.7" width="244" height="24.65" shape-rendering="crispEdges"/><rect fill="#121212" x="1085.8" y="196.7" width="12.2" height="24.65" shape-rendering="crispEdges"/><rect fill="#121212" x="0" y="221.1" width="12.2" height="24.65" shape-rendering="crispEdges"/><rect fill="#121212" x="12.2" y="221.1" width="244" height="24.65" shape-rendering="crispEdges"/><rect fill="#242f38" x="256.2" y="221.1" width="12.2" height="24.65" shape-rendering="crispEdges"/><rect fill="#242f38" x="268.4" y="221.1" width="561.2" height="24.65" shape-rendering="crispEdges"/><rect fill="#242f38" x="829.6" y="221.1" width="12.2" height="24.65" shape-rendering="crispEdges"/><rect fill="#121212" x="841.8" y="221.1" width="244" height="24.65" shape-rendering="crispEdges"/><rect fill="#121212" x="1085.8" y="221.1" width="12.2" height="24.65" shape-rendering="crispEdges"/><rect fill="#121212" x="0" y="245.5" width="12.2" height="24.65" shape-rendering="crispEdges"/><rect fill="#121212" x="12.2" y="245.5" width="244" height="24.65" shape-rendering="crispEdges"/><rect fill="#242f38" x="256.2" y="245.5" width="12.2" height="24.65" shape-rendering="crispEdges"/><rect fill="#242f38" x="268.4" y="245.5" width="24.4" height="24.65" shape-rendering="crispEdges"/><rect fill="#242f38" x="292.8" y="245.5" width="488" height="24.65" shape-rendering="crispEdges"/><rect fill="#242f38" x="780.8" y="245.5" width="24.4" height="24.65" shape-rendering="crispEdges"/><rect fill="#242f38" x="805.2" y="245.5" width="24.4" height="24.65" shape-rendering="crispEdges"/><rect fill="#242f38" x="829.6" y="245.5" width="12.2" height="24.65" shape-rendering="crispEdges"/><rect fill="#121212" x="841.8" y="245.5" width="244" height="24.65" shape-rendering="crispEdges"/><rect fill="#121212" x="1085.8" y="245.5" width="12.2" height="24.65" shape-rendering="crispEdges"/><rect fill="#121212" x="0" y="269.9" width="12.2" height="24.65" shape-rendering="crispEdges"/><rect fill="#121212" x="12.2" y="269.9" width="244" height="24.65" shape-rendering="crispEdges"/><rect fill="#242f38" x="256.2" y="269.9" width="12.2" height="24.65" shape-rendering="crispEdges"/><rect fill="#242f38" x="268.4" y="269.9" width="24.4" height="24.65" shape-rendering="crispEdges"/><rect fill="#242f38" x="292.8" y="269.9" width="231.8" height="24.65" shape-rendering="crispEdges"/><rect fill="#242f38" x="524.6" y="269.9" width="280.6" height="24.65" shape-rendering="crispEdges"/><rect fill="#242f38" x="805.2" y="269.9" width="24.4" height="24.65" shape-rendering="crispEdges"/><rect fill="#242f38" x="829.6" y="269.9" width="12.2" height="24.65" shape-rendering="crispEdges"/><rect fill="#121212" x="841.8" y="269.9" width="244" height="24.65" shape-rendering="crispEdges"/><rect fill="#121212" x="1085.8" y="269.9" width="12.2" height="24.65" shape-rendering="crispEdges"/><rect fill="#121212" x="0" y="294.3" width="12.2" height="24.65" shape-rendering="crispEdges"/><rect fill="#121212" x="12.2" y="294.3" width="244" height="24.65" shape-rendering="crispEdges"/><rect fill="#242f38" x="256.2" y="294.3" width="12.2" height="24.65" shape-rendering="crispEdges"/><rect fill="#242f38" x="268.4" y="294.3" width="24.4" height="24.65" shape-rendering="crispEdges"/><rect fill="#242f38" x="292.8" y="294.3" width="512.4" height="24.65" shape-rendering="crispEdges"/><rect fill="#242f38" x="805.2" y="294.3" width="24.4" height="24.65" shape-rendering="crispEdges"/><rect fill="#242f38" x="829.6" y="294.3" width="12.2" height="24.65" shape-rendering="crispEdges"/><rect fill="#121212" x="841.8" y="294.3" width="244" height="24.65" shape-rendering="crispEdges"/><rect fill="#121212" x="1085.8" y="294.3" width="12.2" height="24.65" shape-rendering="crispEdges"/><rect fill="#121212" x="0" y="318.7" width="12.2" height="24.65" shape-rendering="crispEdges"/><rect fill="#121212" x="12.2" y="318.7" width="244" height="24.65" shape-rendering="crispEdges"/><rect fill="#242f38" x="256.2" y="318.7" width="12.2" height="24.65" shape-rendering="crispEdges"/><rect fill="#242f38" x="268.4" y="318.7" width="24.4" height="24.65" shape-rendering="crispEdges"/><rect fill="#242f38" x="292.8" y="318.7" width="12.2" height="24.65" shape-rendering="crispEdges"/><rect fill="#343f49" x="305" y="318.7" width="12.2" height="24.65" shape-rendering="crispEdges"/><rect fill="#343f49" x="317.2" y="318.7" width="207.4" height="24.65" shape-rendering="crispEdges"/><rect fill="#343f49" x="524.6" y="318.7" width="12.2" height="24.65" shape-rendering="crispEdges"/><rect fill="#242f38" x="536.8" y="318.7" width="12.2" height="24.65" shape-rendering="crispEdges"/><rect fill="#b93c5b" x="549" y="318.7" width="12.2" height="24.65" shape-rendering="crispEdges"/><rect fill="#b93c5b" x="561.2" y="318.7" width="219.6" height="24.65" shape-rendering="crispEdges"/><rect fill="#b93c5b" x="780.8" y="318.7" width="12.2" height="24.65" shape-rendering="crispEdges"/><rect fill="#242f38" x="793" y="318.7" width="12.2" height="24.65" shape-rendering="crispEdges"/><rect fill="#242f38" x="805.2" y="318.7" width="24.4" height="24.65" shape-rendering="crispEdges"/><rect fill="#242f38" x="829.6" y="318.7" width="12.2" height="24.65" shape-rendering="crispEdges"/><rect fill="#121212" x="841.8" y="318.7" width="244" height="24.65" shape-rendering="crispEdges"/><rect fill="#121212" x="1085.8" y="318.7" width="12.2" height="24.65" shape-rendering="crispEdges"/><rect fill="#121212" x="0" y="343.1" width="12.2" height="24.65" shape-rendering="crispEdges"/><rect fill="#121212" x="12.2" y="343.1" width="244" height="24.65" shape-rendering="crispEdges"/><rect fill="#242f38" x="256.2" y="343.1" width="12.2" height="24.65" shape-rendering="crispEdges"/><rect fill="#242f38" x="268.4" y="343.1" width="24.4" height="24.65" shape-rendering="crispEdges"/><rect fill="#242f38" x="292.8" y="343.1" width="12.2" height="24.65" shape-rendering="crispEdges"/><rect fill="#343f49" x="305" y="343.1" width="12.2" height="24.65" shape-rendering="crispEdges"/><rect fill="#343f49" x="317.2" y="343.1" width="73.2" height="24.65" shape-rendering="crispEdges"/><rect fill="#343f49" x="390.4" y="343.1" width="48.8" height="24.65" shape-rendering="crispEdges"/><rect fill="#343f49" x="439.2" y="343.1" width="85.4" height="24.65" shape-rendering="crispEdges"/><rect fill="#343f49" x="524.6" y="343.1" width="12.2" height="24.65" shape-rendering="crispEdges"/><rect fill="#242f38" x="536.8" y="343.1" width="12.2" height="24.65" shape-rendering="crispEdges"/><rect fill="#b93c5b" x="549" y="343.1" width="12.2" height="24.65" shape-rendering="crispEdges"/><rect fill="#b93c5b" x="561.2" y="343.1" width="85.4" height="24.65" shape-rendering="crispEdges"/><rect fill="#b93c5b" x="646.6" y="343.1" width="48.8" height="24.65" shape-rendering="crispEdges"/><rect fill="#b93c5b" x="695.4" y="343.1" width="85.4" height="24.65" shape-rendering="crispEdges"/><rect fill="#b93c5b" x="780.8" y="343.1" width="12.2" height="24.65" shape-rendering="crispEdges"/><rect fill="#242f38" x="793" y="343.1" width="12.2" height="24.65" shape-rendering="crispEdges"/><rect fill="#242f38" x="805.2" y="343.1" width="24.4" height="24.65" shape-rendering="crispEdges"/><rect fill="#242f38" x="829.6" y="343.1" width="12.2" height="24.65" shape-rendering="crispEdges"/><rect fill="#121212" x="841.8" y="343.1" width="244" height="24.65" shape-rendering="crispEdges"/><rect fill="#121212" x="1085.8" y="343.1" width="12.2" height="24.65" shape-rendering="crispEdges"/><rect fill="#121212" x="0" y="367.5" width="12.2" height="24.65" shape-rendering="crispEdges"/><rect fill="#121212" x="12.2" y="367.5" width="244" height="24.65" shape-rendering="crispEdges"/><rect fill="#242f38" x="256.2" y="367.5" width="12.2" height="24.65" shape-rendering="crispEdges"/><rect fill="#242f38" x="268.4" y="367.5" width="24.4" height="24.65" shape-rendering="crispEdges"/><rect fill="#242f38" x="292.8" y="367.5" width="12.2" height="24.65" shape-rendering="crispEdges"/><rect fill="#343f49" x="305" y="367.5" width="12.2" height="24.65" shape-rendering="crispEdges"/><rect fill="#343f49" x="317.2" y="367.5" width="207.4" height="24.65" shape-rendering="crispEdges"/><rect fill="#343f49" x="524.6" y="367.5" width="12.2" height="24.65" shape-rendering="crispEdges"/><rect fill="#242f38" x="536.8" y="367.5" width="12.2" height="24.65" shape-rendering="crispEdges"/><rect fill="#b93c5b" x="549" y="367.5" width="12.2" height="24.65" shape-rendering="crispEdges"/><rect fill="#b93c5b" x="561.2" y="367.5" width="219.6" height="24.65" shape-rendering="crispEdges"/><rect fill="#b93c5b" x="780.8" y="367.5" width="12.2" height="24.65" shape-rendering="crispEdges"/><rect fill="#242f38" x="793" y="367.5" width="12.2" height="24.65" shape-rendering="crispEdges"/><rect fill="#242f38" x="805.2" y="367.5" width="24.4" height="24.65" shape-rendering="crispEdges"/><rect fill="#242f38" x="829.6" y="367.5" width="12.2" height="24.65" shape-rendering="crispEdges"/><rect fill="#121212" x="841.8" y="367.5" width="244" height="24.65" shape-rendering="crispEdges"/><rect fill="#121212" x="1085.8" y="367.5" width="12.2" height="24.65" shape-rendering="crispEdges"/><rect fill="#121212" x="0" y="391.9" width="12.2" height="24.65" shape-rendering="crispEdges"/><rect fill="#121212" x="12.2" y="391.9" width="244" height="24.65" shape-rendering="crispEdges"/><rect fill="#242f38" x="256.2" y="391.9" width="12.2" height="24.65" shape-rendering="crispEdges"/><rect fill="#242f38" x="268.4" y="391.9" width="561.2" height="24.65" shape-rendering="crispEdges"/><rect fill="#242f38" x="829.6" y="391.9" width="12.2" height="24.65" shape-rendering="crispEdges"/><rect fill="#121212" x="841.8" y="391.9" width="244" height="24.65" shape-rendering="crispEdges"/><rect fill="#121212" x="1085.8" y="391.9" width="12.2" height="24.65" shape-rendering="crispEdges"/><rect fill="#121212" x="0" y="416.3" width="12.2" height="24.65" shape-rendering="crispEdges"/><rect fill="#121212" x="12.2" y="416.3" width="244" height="24.65" shape-rendering="crispEdges"/><rect fill="#242f38" x="256.2" y="416.3" width="12.2" height="24.65" shape-rendering="crispEdges"/><rect fill="#242f38" x="268.4" y="416.3" width="73.2" height="24.65" shape-rendering="crispEdges"/><rect fill="#242f38" x="341.6" y="416.3" width="475.8" height="24.65" shape-rendering="crispEdges"/><rect fill="#242f38" x="817.4" y="416.3" width="12.2" height="24.65" shape-rendering="crispEdges"/><rect fill="#242f38" x="829.6" y="416.3" width="12.2" height="24.65" shape-rendering="crispEdges"/><rect fill="#121212" x="841.8" y="416.3" width="244" height="24.65" shape-rendering="crispEdges"/><rect fill="#121212" x="1085.8" y="416.3" width="12.2" height="24.65" shape-rendering="crispEdges"/><rect fill="#121212" x="0" y="440.7" width="12.2" height="24.65" shape-rendering="crispEdges"/><rect fill="#121212" x="12.2" y="440.7" width="1073.6" height="24.65" shape-rendering="crispEdges"/><rect fill="#121212" x="1085.8" y="440.7" width="12.2" height="24.65" shape-rendering="crispEdges"/><rect fill="#121212" x="0" y="465.1" width="12.2" height="24.65" shape-rendering="crispEdges"/><rect fill="#121212" x="12.2" y="465.1" width="1073.6" height="24.65" shape-rendering="crispEdges"/><rect fill="#121212" x="1085.8" y="465.1" width="12.2" height="24.65" shape-rendering="crispEdges"/><rect fill="#121212" x="0" y="489.5" width="12.2" height="24.65" shape-rendering="crispEdges"/><rect fill="#121212" x="12.2" y="489.5" width="1073.6" height="24.65" shape-rendering="crispEdges"/><rect fill="#121212" x="1085.8" y="489.5" width="12.2" height="24.65" shape-rendering="crispEdges"/><rect fill="#121212" x="0" y="513.9" width="12.2" height="24.65" shape-rendering="crispEdges"/><rect fill="#121212" x="12.2" y="513.9" width="1073.6" height="24.65" shape-rendering="crispEdges"/><rect fill="#121212" x="1085.8" y="513.9" width="12.2" height="24.65" shape-rendering="crispEdges"/><rect fill="#121212" x="0" y="538.3" width="12.2" height="24.65" shape-rendering="crispEdges"/><rect fill="#121212" x="12.2" y="538.3" width="1073.6" height="24.65" shape-rendering="crispEdges"/><rect fill="#121212" x="1085.8" y="538.3" width="12.2" height="24.65" shape-rendering="crispEdges"/><rect fill="#121212" x="0" y="562.7" width="12.2" height="24.65" shape-rendering="crispEdges"/><rect fill="#121212" x="12.2" y="562.7" width="1073.6" height="24.65" shape-rendering="crispEdges"/><rect fill="#121212" x="1085.8" y="562.7" width="12.2" height="24.65" shape-rendering="crispEdges"/><rect fill="#121212" x="0" y="587.1" width="1098" height="24.65" shape-rendering="crispEdges"/><rect fill="#121212" x="0" y="611.5" width="12.2" height="24.65" shape-rendering="crispEdges"/><rect fill="#121212" x="12.2" y="611.5" width="756.4" height="24.65" shape-rendering="crispEdges"/><rect fill="#121212" x="768.6" y="611.5" width="12.2" height="24.65" shape-rendering="crispEdges"/><rect fill="#121212" x="780.8" y="611.5" width="97.6" height="24.65" shape-rendering="crispEdges"/><rect fill="#121212" x="878.4" y="611.5" width="12.2" height="24.65" shape-rendering="crispEdges"/><rect fill="#121212" x="890.6" y="611.5" width="61" height="24.65" shape-rendering="crispEdges"/><rect fill="#121212" x="951.6" y="611.5" width="12.2" height="24.65" shape-rendering="crispEdges"/><rect fill="#121212" x="963.8" y="611.5" width="122" height="24.65" shape-rendering="crispEdges"/><rect fill="#121212" x="1085.8" y="611.5" width="12.2" height="24.65" shape-rendering="crispEdges"/>
    <g class="terminal-3423231576-matrix">
    <path fill="#595953" transform="translate(24.4 20) scale(0.0102564 -0.0102564)" d="M1102 239V0H201V239H535V1075L250 897L116 1114L563 1386H843V239Z"/><path fill="#595953" transform="translate(36.6 20) scale(0.0102564 -0.0102564)" d="M389 868Q389 925 417.5 972.5Q446 1020 494.0 1049.0Q542 1078 600 1078Q688 1078 748.5 1015.5Q809 953 809 868Q809 783 748.5 721.0Q688 659 600 659Q512 659 450.5 721.0Q389 783 389 868ZM389 177Q389 262 450.5 323.0Q512 384 600 384Q688 384 748.5 323.0Q809 262 809 177Q809 91 748.5 28.5Q688 -34 600 -34Q512 -34 450.5 28.5Q389 91 389 177Z"/><path fill="#595953" transform="translate(48.8 20) scale(0.0102564 -0.0102564)" d="M1042 0H693L602 714L507 0H164L7 1062H296L365 197L477 928H743L843 197L914 1062H1193Z"/><path fill="#595953" transform="translate(61 20) scale(0.0102564 -0.0102564)" d="M598 1618Q680 1618 732.0 1567.0Q784 1516 784 1440Q784 1364 732.0 1312.5Q680 1261 598 1261Q515 1261 462.5 1312.5Q410 1364 410 1440Q410 1516 462.5 1567.0Q515 1618 598 1618ZM789 1062V216H1059V0H172V216H473V846H182V1062Z"/><path fill="#595953" transform="translate(73.2 20) scale(0.0102564 -0.0102564)" d="M140 0V1062H416L438 939Q509 1019 588.0 1058.0Q667 1097 768 1097Q904 1097 982.0 1014.0Q1060 931 1060 780V0H744V689Q744 787 722.5 825.5Q701 864 642 864Q592 864 546.5 832.0Q501 800 456 743V0Z"/><path fill="#151515" transform="translate(122 20) scale(0.0102564 -0.0102564)" d="M312 -246V1646H928V1410H610V-12H928V-246Z"/><path fill="#151515" transform="translate(134.2 20) scale(0.0102564 -0.0102564)" d="M731 1158V747H1134V503H731V92H467V503H66V747H467V1158Z"/><path fill="#151515" transform="translate(146.4 20) scale(0.0102564 -0.0102564)" d="M888 1646V-246H272V-10H590V1410H272V1646Z"/><path d="M6.1,50.3 L6.1,38.1 L12.2,38.1" stroke="#0a2030" stroke-width="1.8" fill="none"/><rect x="12.2" y="25.9" width="13" height="13" fill="#0a2030"/><rect x="24.4" y="25.9" width="13" height="13" fill="#0a2030"/><rect x="36.6" y="25.9" width="13" height="13" fill="#0a2030"/><rect x="48.8" y="25.9" width="13" height="13" fill="#0a2030"/><rect x="61" y="25.9" width="13" height="13" fill="#0a2030"/><rect x="73.2" y="25.9" width="13" height="13" fill="#0a2030"/><rect x="85.4" y="25.9" width="13" height="13" fill="#0a2030"/><path d="M97.6,38.1 H109.8" stroke="#0a2030" stroke-width="1.8" fill="none"/><path d="M109.8,38.1 H122" stroke="#0a2030" stroke-width="1.8" fill="none"/><path d="M122,38.1 H134.2" stroke="#0a2030" stroke-width="1.8" fill="none"/><path d="M134.2,38.1 H146.4" stroke="#0a2030" stroke-width="1.8" fill="none"/><path d="M146.4,38.1 H158.6" stroke="#0a2030" stroke-width="1.8" fill="none"/><path d="M158.6,38.1 H170.8" stroke="#0a2030" stroke-width="1.8" fill="none"/><path d="M170.8,38.1 H183" stroke="#0a2030" stroke-width="1.8" fill="none"/><path d="M183,38.1 H195.2" stroke="#0a2030" stroke-width="1.8" fill="none"/><path d="M195.2,38.1 H207.4" stroke="#0a2030" stroke-width="1.8" fill="none"/><path d="M207.4,38.1 H219.6" stroke="#0a2030" stroke-width="1.8" fill="none"/><path d="M219.6,38.1 H231.8" stroke="#0a2030" stroke-width="1.8" fill="none"/><path d="M231.8,38.1 H244" stroke="#0a2030" stroke-width="1.8" fill="none"/><path d="M244,38.1 H256.2" stroke="#0a2030" stroke-width="1.8" fill="none"/><path d="M256.2,38.1 H268.4" stroke="#0a2030" stroke-width="1.8" fill="none"/><path d="M268.4,38.1 H280.6" stroke="#0a2030" stroke-width="1.8" fill="none"/><path d="M280.6,38.1 H292.8" stroke="#0a2030" stroke-width="1.8" fill="none"/><path d="M292.8,38.1 H305" stroke="#0a2030" stroke-width="1.8" fill="none"/><path d="M305,38.1 H317.2" stroke="#0a2030" stroke-width="1.8" fill="none"/><path d="M317.2,38.1 H329.4" stroke="#0a2030" stroke-width="1.8" fill="none"/><path d="M329.4,38.1 H341.6" stroke="#0a2030" stroke-width="1.8" fill="none"/><path d="M341.6,38.1 H353.8" stroke="#0a2030" stroke-width="1.8" fill="none"/><path d="M353.8,38.1 H366" stroke="#0a2030" stroke-width="1.8" fill="none"/><path d="M366,38.1 H378.2" stroke="#0a2030" stroke-width="1.8" fill="none"/><path d="M378.2,38.1 H390.4" stroke="#0a2030" stroke-width="1.8" fill="none"/><path d="M390.4,38.1 H402.6" stroke="#0a2030" stroke-width="1.8" fill="none"/><path d="M402.6,38.1 H414.8" stroke="#0a2030" stroke-width="1.8" fill="none"/><path d="M414.8,38.1 H427" stroke="#0a2030" stroke-width="1.8" fill="none"/><path d="M427,38.1 H439.2" stroke="#0a2030" stroke-width="1.8" fill="none"/><path d="M439.2,38.1 H451.4" stroke="#0a2030" stroke-width="1.8" fill="none"/><path d="M451.4,38.1 H463.6" stroke="#0a2030" stroke-width="1.8" fill="none"/><path d="M463.6,38.1 H475.8" stroke="#0a2030" stroke-width="1.8" fill="none"/><path d="M475.8,38.1 H488" stroke="#0a2030" stroke-width="1.8" fill="none"/><path d="M488,38.1 H500.2" stroke="#0a2030" stroke-width="1.8" fill="none"/><path d="M500.2,38.1 H512.4" stroke="#0a2030" stroke-width="1.8" fill="none"/><path d="M512.4,38.1 H524.6" stroke="#0a2030" stroke-width="1.8" fill="none"/><path d="M524.6,38.1 H536.8" stroke="#0a2030" stroke-width="1.8" fill="none"/><path d="M536.8,38.1 H549" stroke="#0a2030" stroke-width="1.8" fill="none"/><path d="M549,38.1 H561.2" stroke="#0a2030" stroke-width="1.8" fill="none"/><path d="M561.2,38.1 H573.4" stroke="#0a2030" stroke-width="1.8" fill="none"/><path d="M573.4,38.1 H585.6" stroke="#0a2030" stroke-width="1.8" fill="none"/><path d="M585.6,38.1 H597.8" stroke="#0a2030" stroke-width="1.8" fill="none"/><path d="M597.8,38.1 H610" stroke="#0a2030" stroke-width="1.8" fill="none"/><path d="M610,38.1 H622.2" stroke="#0a2030" stroke-width="1.8" fill="none"/><path d="M622.2,38.1 H634.4" stroke="#0a2030" stroke-width="1.8" fill="none"/><path d="M634.4,38.1 H646.6" stroke="#0a2030" stroke-width="1.8" fill="none"/><path d="M646.6,38.1 H658.8" stroke="#0a2030" stroke-width="1.8" fill="none"/><path d="M658.8,38.1 H671" stroke="#0a2030" stroke-width="1.8" fill="none"/><path d="M671,38.1 H683.2" stroke="#0a2030" stroke-width="1.8" fill="none"/><path d="M683.2,38.1 H695.4" stroke="#0a2030" stroke-width="1.8" fill="none"/><path d="M695.4,38.1 H707.6" stroke="#0a2030" stroke-width="1.8" fill="none"/><path d="M707.6,38.1 H719.8" stroke="#0a2030" stroke-width="1.8" fill="none"/><path d="M719.8,38.1 H732" stroke="#0a2030" stroke-width="1.8" fill="none"/><path d="M732,38.1 H744.2" stroke="#0a2030" stroke-width="1.8" fill="none"/><path d="M744.2,38.1 H756.4" stroke="#0a2030" stroke-width="1.8" fill="none"/><path d="M756.4,38.1 H768.6" stroke="#0a2030" stroke-width="1.8" fill="none"/><path d="M768.6,38.1 H780.8" stroke="#0a2030" stroke-width="1.8" fill="none"/><path d="M780.8,38.1 H793" stroke="#0a2030" stroke-width="1.8" fill="none"/><path d="M793,38.1 H805.2" stroke="#0a2030" stroke-width="1.8" fill="none"/><path d="M805.2,38.1 H817.4" stroke="#0a2030" stroke-width="1.8" fill="none"/><path d="M817.4,38.1 H829.6" stroke="#0a2030" stroke-width="1.8" fill="none"/><path d="M829.6,38.1 H841.8" stroke="#0a2030" stroke-width="1.8" fill="none"/><path d="M841.8,38.1 H854" stroke="#0a2030" stroke-width="1.8" fill="none"/><path d="M854,38.1 H866.2" stroke="#0a2030" stroke-width="1.8" fill="none"/><path d="M866.2,38.1 H878.4" stroke="#0a2030" stroke-width="1.8" fill="none"/><path d="M878.4,38.1 H890.6" stroke="#0a2030" stroke-width="1.8" fill="none"/><path d="M890.6,38.1 H902.8" stroke="#0a2030" stroke-width="1.8" fill="none"/><path d="M902.8,38.1 H915" stroke="#0a2030" stroke-width="1.8" fill="none"/><path d="M915,38.1 H927.2" stroke="#0a2030" stroke-width="1.8" fill="none"/><path d="M927.2,38.1 H939.4" stroke="#0a2030" stroke-width="1.8" fill="none"/><path d="M939.4,38.1 H951.6" stroke="#0a2030" stroke-width="1.8" fill="none"/><path d="M951.6,38.1 H963.8" stroke="#0a2030" stroke-width="1.8" fill="none"/><path d="M963.8,38.1 H976" stroke="#0a2030" stroke-width="1.8" fill="none"/><path d="M976,38.1 H988.2" stroke="#0a2030" stroke-width="1.8" fill="none"/><path d="M988.2,38.1 H1000.4" stroke="#0a2030" stroke-width="1.8" fill="none"/><path d="M1000.4,38.1 H1012.6" stroke="#0a2030" stroke-width="1.8" fill="none"/><path d="M1012.6,38.1 H1024.8" stroke="#0a2030" stroke-width="1.8" fill="none"/><path d="M1024.8,38.1 H1037" stroke="#0a2030" stroke-width="1.8" fill="none"/><path d="M1037,38.1 H1049.2" stroke="#0a2030" stroke-width="1.8" fill="none"/><path fill="#2d2d2d" transform="translate(1049.2 44.4) scale(0.0102564 -0.0102564)" d="M368 -231V1631H869V1486H527V-88H869V-231Z"/><path fill="#2d2d2d" transform="translate(1061.4 44.4) scale(0.0102564 -0.0102564)" d="M303 0H111L500 556L159 1053H358L602 661L849 1053H1041L701 563L1089 0H883L595 452Z"/><path fill="#2d2d2d" transform="translate(1073.6 44.4) scale(0.0102564 -0.0102564)" d="M832 1631V-231H331V-89H673V1486H331V1631Z"/><path d="M1091.9,50.3 L1091.9,38.1 L1085.8,38.1" stroke="#0a2030" stroke-width="1.8" fill="none"/><path d="M6.1,50.3 V74.7" stroke="#0a2030" stroke-width="1.8" fill="none"/><path fill="#222222" transform="translate(12.2 68.8) scale(0.0102564 -0.0102564)" d="M369 1053V307Q369 203 412.0 157.0Q455 111 546 111Q633 111 710.5 160.5Q788 210 831 278V1053H999V0H856L842 142Q780 62 688.5 19.5Q597 -23 505 -23Q352 -23 276.5 58.5Q201 140 201 287V1053Z"/><path fill="#222222" transform="translate(24.4 68.8) scale(0.0102564 -0.0102564)" d="M559 116Q681 116 751.0 161.0Q821 206 821 283Q821 330 803.5 365.0Q786 400 732.0 428.5Q678 457 566 485Q457 512 376.5 547.5Q296 583 251.5 640.0Q207 697 207 788Q207 921 318.0 998.0Q429 1075 607 1075Q734 1075 828.5 1041.0Q923 1007 989 959L915 845Q856 886 783.5 912.5Q711 939 609 939Q485 939 433.0 900.5Q381 862 381 801Q381 754 406.5 723.5Q432 693 493.0 669.0Q554 645 661 616Q764 588 841.0 550.0Q918 512 960.5 450.5Q1003 389 1003 291Q1003 179 939.0 109.5Q875 40 773.5 8.5Q672 -23 559 -23Q416 -23 315.5 18.5Q215 60 147 119L243 230Q305 179 385.5 147.5Q466 116 559 116Z"/><path fill="#222222" transform="translate(36.6 68.8) scale(0.0102564 -0.0102564)" d="M333 467Q340 284 429.5 200.5Q519 117 641 117Q722 117 787.0 141.0Q852 165 922 212L1001 101Q928 43 833.0 10.0Q738 -23 639 -23Q485 -23 377.5 46.0Q270 115 213.5 238.5Q157 362 157 525Q157 685 213.5 809.0Q270 933 373.5 1004.0Q477 1075 617 1075Q816 1075 930.5 937.0Q1045 799 1045 559Q1045 532 1043.5 508.0Q1042 484 1041 467ZM619 937Q502 937 423.0 854.0Q344 771 334 597H883Q880 766 809.0 851.5Q738 937 619 937Z"/><path fill="#222222" transform="translate(48.8 68.8) scale(0.0102564 -0.0102564)" d="M211 0V129H375V924H211V1053H503L534 804Q595 934 682.0 1005.0Q769 1076 912 1076Q956 1076 990.5 1069.5Q1025 1063 1061 1053L1037 697H899V921Q895 921 890 921Q648 921 543 575V129H757V0Z"/><path fill="#222222" transform="translate(61 68.8) scale(0.0102564 -0.0102564)" d="M567 1399Q722 1399 828.5 1352.5Q935 1306 1002.5 1225.0Q1070 1144 1106.5 1038.0Q1143 932 1157.0 812.0Q1171 692 1171 569Q1171 317 1147.5 150.5Q1124 -16 1061.0 -98.5Q998 -181 877 -181Q815 -181 769.5 -151.0Q724 -121 695.5 -75.5Q667 -30 654.0 18.5Q641 67 642 103H634Q615 57 582.0 12.5Q549 -32 495.0 -61.5Q441 -91 361 -91Q252 -91 185.5 -31.5Q119 28 89.0 131.5Q59 235 59 367Q59 628 162.5 755.5Q266 883 451 883Q521 883 585.0 868.0Q649 853 733 808V217Q733 109 752.0 52.5Q771 -4 803.0 -25.0Q835 -46 874 -46Q937 -46 963.0 36.0Q989 118 994.0 257.0Q999 396 999 567Q999 710 983.0 834.5Q967 959 922.0 1053.0Q877 1147 792.0 1200.0Q707 1253 569 1253Q471 1253 357.0 1217.0Q243 1181 115 1069L19 1181Q153 1298 293.5 1348.5Q434 1399 567 1399ZM459 759Q323 759 272.5 659.5Q222 560 222 367Q222 220 256.0 127.5Q290 35 381 35Q451 35 491.5 67.0Q532 99 553.5 140.5Q575 182 587 211V729Q529 759 459 759Z"/><path fill="#222222" transform="translate(73.2 68.8) scale(0.0102564 -0.0102564)" d="M369 1493V909Q431 991 521.5 1033.0Q612 1075 705 1075Q859 1075 930.0 993.0Q1001 911 1001 765V0H833V761Q833 856 789.0 899.5Q745 943 651 943Q591 943 537.0 916.0Q483 889 440.0 849.0Q397 809 369 767V0H201V1475Z"/><path fill="#222222" transform="translate(85.4 68.8) scale(0.0102564 -0.0102564)" d="M602 1075Q825 1075 939.0 926.0Q1053 777 1053 527Q1053 366 1001.0 242.0Q949 118 848.0 47.5Q747 -23 600 -23Q377 -23 262.0 127.0Q147 277 147 525Q147 687 199.0 811.5Q251 936 352.5 1005.5Q454 1075 602 1075ZM602 938Q466 938 396.5 837.0Q327 736 327 525Q327 316 395.5 215.5Q464 115 600 115Q736 115 804.5 216.0Q873 317 873 527Q873 737 805.0 837.5Q737 938 602 938Z"/><path fill="#222222" transform="translate(97.6 68.8) scale(0.0102564 -0.0102564)" d="M559 116Q681 116 751.0 161.0Q821 206 821 283Q821 330 803.5 365.0Q786 400 732.0 428.5Q678 457 566 485Q457 512 376.5 547.5Q296 583 251.5 640.0Q207 697 207 788Q207 921 318.0 998.0Q429 1075 607 1075Q734 1075 828.5 1041.0Q923 1007 989 959L915 845Q856 886 783.5 912.5Q711 939 609 939Q485 939 433.0 900.5Q381 862 381 801Q381 754 406.5 723.5Q432 693 493.0 669.0Q554 645 661 616Q764 588 841.0 550.0Q918 512 960.5 450.5Q1003 389 1003 291Q1003 179 939.0 109.5Q875 40 773.5 8.5Q672 -23 559 -23Q416 -23 315.5 18.5Q215 60 147 119L243 230Q305 179 385.5 147.5Q466 116 559 116Z"/><path fill="#222222" transform="translate(109.8 68.8) scale(0.0102564 -0.0102564)" d="M1037 53Q983 17 906.0 -3.0Q829 -23 755 -23Q585 -23 493.0 66.0Q401 155 401 295V923H159V1053H401V1292L569 1312V1053H933L913 923H569V297Q569 209 615.5 163.0Q662 117 770 117Q829 117 879.0 131.0Q929 145 972 167Z"/><path fill="#222222" transform="translate(134.2 68.8) scale(0.0102564 -0.0102564)" d="M672 1075Q812 1075 895.5 1007.0Q979 939 1016.0 815.5Q1053 692 1053 527Q1053 368 1008.5 243.5Q964 119 874.0 48.0Q784 -23 647 -23Q474 -23 369 99V-403L201 -424V1053H344L358 906Q416 987 496.0 1031.0Q576 1075 672 1075ZM632 940Q545 940 478.0 887.5Q411 835 369 771V249Q410 188 472.5 152.5Q535 117 610 117Q741 117 807.0 217.0Q873 317 873 528Q873 940 632 940Z"/><path fill="#222222" transform="translate(146.4 68.8) scale(0.0102564 -0.0102564)" d="M1077 1053 707 -7Q670 -114 613.5 -203.0Q557 -292 466.5 -350.5Q376 -409 237 -423L211 -289Q320 -271 383.0 -234.0Q446 -197 482.5 -139.5Q519 -82 547 0H491L123 1053H303L605 128L903 1053Z"/><path fill="#222222" transform="translate(158.6 68.8) scale(0.0102564 -0.0102564)" d="M1037 53Q983 17 906.0 -3.0Q829 -23 755 -23Q585 -23 493.0 66.0Q401 155 401 295V923H159V1053H401V1292L569 1312V1053H933L913 923H569V297Q569 209 615.5 163.0Q662 117 770 117Q829 117 879.0 131.0Q929 145 972 167Z"/><path fill="#222222" transform="translate(170.8 68.8) scale(0.0102564 -0.0102564)" d="M895 1075Q945 1075 992.0 1053.0Q1039 1031 1069.0 968.0Q1099 905 1099 784V0H943V757Q943 856 931.0 900.0Q919 944 862 944Q815 944 768.0 914.5Q721 885 678 818V0H521V757Q521 856 509.0 900.0Q497 944 440 944Q391 944 345.0 914.5Q299 885 256 818V0H101V1053H233L243 931Q286 992 339.5 1033.5Q393 1075 472 1075Q532 1075 585.0 1046.5Q638 1018 663 936Q706 998 760.0 1036.5Q814 1075 895 1075Z"/><path fill="#222222" transform="translate(183 68.8) scale(0.0102564 -0.0102564)" d="M369 1053V307Q369 203 412.0 157.0Q455 111 546 111Q633 111 710.5 160.5Q788 210 831 278V1053H999V0H856L842 142Q780 62 688.5 19.5Q597 -23 505 -23Q352 -23 276.5 58.5Q201 140 201 287V1053Z"/><path fill="#222222" transform="translate(195.2 68.8) scale(0.0102564 -0.0102564)" d="M303 0H111L500 556L159 1053H358L602 661L849 1053H1041L701 563L1089 0H883L595 452Z"/><path fill="#222222" transform="translate(219.6 68.8) scale(0.0102564 -0.0102564)" d="M1009 1414 1117 1344 170 -40 65 30ZM332 1399Q426 1399 491.0 1355.0Q556 1311 590.5 1238.0Q625 1165 625 1079Q625 994 590.5 920.0Q556 846 491.0 801.0Q426 756 332 756Q239 756 173.0 801.0Q107 846 72.0 920.0Q37 994 37 1079Q37 1166 72.0 1238.5Q107 1311 173.0 1355.0Q239 1399 332 1399ZM332 1279Q273 1279 232.0 1230.0Q191 1181 191 1079Q191 981 231.0 927.5Q271 874 332 874Q392 874 431.5 923.0Q471 972 471 1079Q471 1187 431.5 1233.0Q392 1279 332 1279ZM872 632Q966 632 1031.0 587.5Q1096 543 1130.5 470.0Q1165 397 1165 311Q1165 226 1130.5 152.5Q1096 79 1031.0 33.5Q966 -12 872 -12Q779 -12 713.0 33.5Q647 79 612.0 152.5Q577 226 577 311Q577 398 612.0 471.0Q647 544 713.0 588.0Q779 632 872 632ZM872 511Q813 511 772.0 463.5Q731 416 731 311Q731 214 771.0 160.0Q811 106 872 106Q932 106 971.5 155.0Q1011 204 1011 311Q1011 419 971.5 465.0Q932 511 872 511Z"/><path fill="#0a0a0a" transform="translate(1049.2 68.8) scale(0.0102564 -0.0102564)" d="M368 -231V1631H869V1486H527V-88H869V-231Z"/><path fill="#0a0a0a" transform="translate(1061.4 68.8) scale(0.0102564 -0.0102564)" d="M425 1235V771H935V628H425V139H1051V0H251V1377H1033L1013 1235Z"/><path fill="#0a0a0a" transform="translate(1073.6 68.8) scale(0.0102564 -0.0102564)" d="M790 0 305 1211Q306 1181 312.0 1097.5Q318 1014 323.0 905.5Q328 797 328 690V0H167V1377H402L895 161Q894 190 888.0 267.5Q882 345 877.0 454.5Q872 564 872 688V1377H1033V0Z"/><path fill="#0a0a0a" transform="translate(1085.8 68.8) scale(0.0102564 -0.0102564)" d="M832 1631V-231H331V-89H673V1486H331V1631Z"/><path d="M6.1,74.7 V99.1" stroke="#0a2030" stroke-width="1.8" fill="none"/><path d="M1091.9,74.7 V99.1" stroke="#0a2030" stroke-width="1.8" fill="none"/><path d="M6.1,99.1 V123.5" stroke="#0a2030" stroke-width="1.8" fill="none"/><path d="M1091.9,99.1 V123.5" stroke="#0a2030" stroke-width="1.8" fill="none"/><path d="M6.1,123.5 V147.9" stroke="#0a2030" stroke-width="1.8" fill="none"/><path d="M1091.9,123.5 V147.9" stroke="#0a2030" stroke-width="1.8" fill="none"/><path d="M6.1,147.9 V172.3" stroke="#0a2030" stroke-width="1.8" fill="none"/><path d="M1091.9,147.9 V172.3" stroke="#0a2030" stroke-width="1.8" fill="none"/><path d="M6.1,172.3 V196.7" stroke="#0a2030" stroke-width="1.8" fill="none"/><path d="M1091.9,172.3 V196.7" stroke="#0a2030" stroke-width="1.8" fill="none"/><path d="M6.1,196.7 V221.1" stroke="#0a2030" stroke-width="1.8" fill="none"/><path d="M262.3,221.1 L262.3,214.39 Q262.3,208.9 267.79,208.9 L268.4,208.9" stroke="#fea62b" stroke-width="1.8" fill="none"/><path d="M268.4,208.9 H280.6" stroke="#fea62b" stroke-width="1.8" fill="none"/><path fill="#fea62b" transform="translate(292.8 215.2) scale(0.0102564 -0.0102564)" d="M672 1075Q812 1075 895.5 1007.0Q979 939 1016.0 815.5Q1053 692 1053 527Q1053 368 1008.5 243.5Q964 119 874.0 48.0Q784 -23 647 -23Q474 -23 369 99V-403L201 -424V1053H344L358 906Q416 987 496.0 1031.0Q576 1075 672 1075ZM632 940Q545 940 478.0 887.5Q411 835 369 771V249Q410 188 472.5 152.5Q535 117 610 117Q741 117 807.0 217.0Q873 317 873 528Q873 940 632 940Z"/><path fill="#fea62b" transform="translate(305 215.2) scale(0.0102564 -0.0102564)" d="M1077 1053 707 -7Q670 -114 613.5 -203.0Q557 -292 466.5 -350.5Q376 -409 237 -423L211 -289Q320 -271 383.0 -234.0Q446 -197 482.5 -139.5Q519 -82 547 0H491L123 1053H303L605 128L903 1053Z"/><path fill="#fea62b" transform="translate(317.2 215.2) scale(0.0102564 -0.0102564)" d="M1037 53Q983 17 906.0 -3.0Q829 -23 755 -23Q585 -23 493.0 66.0Q401 155 401 295V923H159V1053H401V1292L569 1312V1053H933L913 923H569V297Q569 209 615.5 163.0Q662 117 770 117Q829 117 879.0 131.0Q929 145 972 167Z"/><path fill="#fea62b" transform="translate(329.4 215.2) scale(0.0102564 -0.0102564)" d="M895 1075Q945 1075 992.0 1053.0Q1039 1031 1069.0 968.0Q1099 905 1099 784V0H943V757Q943 856 931.0 900.0Q919 944 862 944Q815 944 768.0 914.5Q721 885 678 818V0H521V757Q521 856 509.0 900.0Q497 944 440 944Q391 944 345.0 914.5Q299 885 256 818V0H101V1053H233L243 931Q286 992 339.5 1033.5Q393 1075 472 1075Q532 1075 585.0 1046.5Q638 1018 663 936Q706 998 760.0 1036.5Q814 1075 895 1075Z"/><path fill="#fea62b" transform="translate(341.6 215.2) scale(0.0102564 -0.0102564)" d="M369 1053V307Q369 203 412.0 157.0Q455 111 546 111Q633 111 710.5 160.5Q788 210 831 278V1053H999V0H856L842 142Q780 62 688.5 19.5Q597 -23 505 -23Q352 -23 276.5 58.5Q201 140 201 287V1053Z"/><path fill="#fea62b" transform="translate(353.8 215.2) scale(0.0102564 -0.0102564)" d="M303 0H111L500 556L159 1053H358L602 661L849 1053H1041L701 563L1089 0H883L595 452Z"/><path fill="#fea62b" transform="translate(379.42 217.671) scale(0.0253873 -0.0253873)" d="M739 83C739 180 628 232 432 232C237 232 127 176 127 83C127 -12 237 -68 432 -68C628 -68 739 -13 739 83ZM788 512C666 524 505 592 477 696H755V759H110V696H389C363 593 214 524 79 511L114 448C268 470 398 548 432 629C476 549 607 472 753 448ZM432 171C574 171 662 139 662 83C662 25 574 -6 432 -6C291 -6 204 25 204 83C204 139 291 171 432 171ZM827 303V367H470V499H394V367H38V303Z"/><path fill="#fea62b" transform="translate(403.82 218.801) scale(0.0253873 -0.0253873)" d="M753 275V338H211V478H728V739H137V675H652V541H134V275H258V105H38V41H827V105H612V275ZM334 275H537V105H334Z"/><path d="M439.2,208.9 H451.4" stroke="#fea62b" stroke-width="1.8" fill="none"/><path d="M451.4,208.9 H463.6" stroke="#fea62b" stroke-width="1.8" fill="none"/><path d="M463.6,208.9 H475.8" stroke="#fea62b" stroke-width="1.8" fill="none"/><path d="M475.8,208.9 H488" stroke="#fea62b" stroke-width="1.8" fill="none"/><path d="M488,208.9 H500.2" stroke="#fea62b" stroke-width="1.8" fill="none"/><path d="M500.2,208.9 H512.4" stroke="#fea62b" stroke-width="1.8" fill="none"/><path d="M512.4,208.9 H524.6" stroke="#fea62b" stroke-width="1.8" fill="none"/><path d="M524.6,208.9 H536.8" stroke="#fea62b" stroke-width="1.8" fill="none"/><path d="M536.8,208.9 H549" stroke="#fea62b" stroke-width="1.8" fill="none"/><path d="M549,208.9 H561.2" stroke="#fea62b" stroke-width="1.8" fill="none"/><path d="M561.2,208.9 H573.4" stroke="#fea62b" stroke-width="1.8" fill="none"/><path d="M573.4,208.9 H585.6" stroke="#fea62b" stroke-width="1.8" fill="none"/><path d="M585.6,208.9 H597.8" stroke="#fea62b" stroke-width="1.8" fill="none"/><path d="M597.8,208.9 H610" stroke="#fea62b" stroke-width="1.8" fill="none"/><path d="M610,208.9 H622.2" stroke="#fea62b" stroke-width="1.8" fill="none"/><path d="M622.2,208.9 H634.4" stroke="#fea62b" stroke-width="1.8" fill="none"/><path d="M634.4,208.9 H646.6" stroke="#fea62b" stroke-width="1.8" fill="none"/><path d="M646.6,208.9 H658.8" stroke="#fea62b" stroke-width="1.8" fill="none"/><path d="M658.8,208.9 H671" stroke="#fea62b" stroke-width="1.8" fill="none"/><path d="M671,208.9 H683.2" stroke="#fea62b" stroke-width="1.8" fill="none"/><path d="M683.2,208.9 H695.4" stroke="#fea62b" stroke-width="1.8" fill="none"/><path d="M695.4,208.9 H707.6" stroke="#fea62b" stroke-width="1.8" fill="none"/><path d="M707.6,208.9 H719.8" stroke="#fea62b" stroke-width="1.8" fill="none"/><path d="M719.8,208.9 H732" stroke="#fea62b" stroke-width="1.8" fill="none"/><path d="M732,208.9 H744.2" stroke="#fea62b" stroke-width="1.8" fill="none"/><path d="M744.2,208.9 H756.4" stroke="#fea62b" stroke-width="1.8" fill="none"/><path d="M756.4,208.9 H768.6" stroke="#fea62b" stroke-width="1.8" fill="none"/><path d="M768.6,208.9 H780.8" stroke="#fea62b" stroke-width="1.8" fill="none"/><path d="M780.8,208.9 H793" stroke="#fea62b" stroke-width="1.8" fill="none"/><path d="M793,208.9 H805.2" stroke="#fea62b" stroke-width="1.8" fill="none"/><path d="M805.2,208.9 H817.4" stroke="#fea62b" stroke-width="1.8" fill="none"/><path d="M817.4,208.9 H829.6" stroke="#fea62b" stroke-width="1.8" fill="none"/><path d="M835.7,221.1 L835.7,214.39 Q835.7,208.9 830.21,208.9 L829.6,208.9" stroke="#fea62b" stroke-width="1.8" fill="none"/><path d="M1091.9,196.7 V221.1" stroke="#0a2030" stroke-width="1.8" fill="none"/><path d="M6.1,221.1 V245.5" stroke="#0a2030" stroke-width="1.8" fill="none"/><path d="M262.3,221.1 V245.5" stroke="#fea62b" stroke-width="1.8" fill="none"/><path d="M835.7,221.1 V245.5" stroke="#fea62b" stroke-width="1.8" fill="none"/><path d="M1091.9,221.1 V245.5" stroke="#0a2030" stroke-width="1.8" fill="none"/><path d="M6.1,245.5 V269.9" stroke="#0a2030" stroke-width="1.8" fill="none"/><path d="M262.3,245.5 V269.9" stroke="#fea62b" stroke-width="1.8" fill="none"/><path fill="#e0e0e0" transform="translate(294.02 267.017) scale(0.0253873 -0.0253873)" d="M757 -70V804H681V-70ZM67 430C67 244 149 120 292 120C437 120 518 244 518 429C518 614 437 738 292 738C149 738 67 614 67 430ZM446 429C446 286 385 186 292 186C200 186 139 286 139 429C139 573 200 672 292 672C385 672 446 573 446 429Z"/><path fill="#e0e0e0" transform="translate(330.62 267.169) scale(0.0253873 -0.0253873)" d="M775 -58V277H698V171H276V276H200V-58ZM775 322V804H699V592H590V788H516V330H590V529H699V322ZM698 5H276V110H698ZM154 413V524H403V585H154V685H417V748H79V348H135C255 348 373 355 459 372L448 435C380 420 279 413 179 413Z"/><path fill="#e0e0e0" transform="translate(355.02 266.966) scale(0.0253873 -0.0253873)" d="M827 362V426H38V362ZM739 640C739 736 623 792 433 792C245 792 129 736 129 640C129 544 245 489 433 489C623 489 739 544 739 640ZM433 730C572 730 662 695 662 640C662 586 572 552 433 552C296 552 207 586 207 640C207 695 296 730 433 730ZM757 -62V0H206V88H728V284H128V223H652V146H130V-62Z"/><path fill="#e0e0e0" transform="translate(391.62 267.182) scale(0.0253873 -0.0253873)" d="M842 525V589H709V804H633V301H709V525ZM721 -57V5H233V192H712V255H156V-57ZM144 406V674H469V738H68V343H139C290 343 456 356 553 373L545 435C461 418 308 406 187 406Z"/><path fill="#e0e0e0" transform="translate(416.02 267.576) scale(0.0253873 -0.0253873)" d="M827 50V114H38V50ZM750 507C750 640 624 728 431 728C241 728 114 640 114 507C114 373 241 286 431 286C623 286 750 373 750 507ZM674 506C674 413 577 351 431 351C286 351 190 413 190 506C190 601 286 664 431 664C578 664 674 601 674 506Z"/><path fill="#e0e0e0" transform="translate(440.42 267.385) scale(0.0253873 -0.0253873)" d="M676 589V459H513V396H676V169H752V804H676V652H513V589ZM771 -41V23H265V227H189V-41ZM476 318V726H77V318ZM399 380H153V663H399Z"/><path fill="#e0e0e0" transform="translate(475.8 264) scale(0.0102564 -0.0102564)" d="M672 1075Q812 1075 895.5 1007.0Q979 939 1016.0 815.5Q1053 692 1053 527Q1053 368 1008.5 243.5Q964 119 874.0 48.0Q784 -23 647 -23Q474 -23 369 99V-403L201 -424V1053H344L358 906Q416 987 496.0 1031.0Q576 1075 672 1075ZM632 940Q545 940 478.0 887.5Q411 835 369 771V249Q410 188 472.5 152.5Q535 117 610 117Q741 117 807.0 217.0Q873 317 873 528Q873 940 632 940Z"/><path fill="#e0e0e0" transform="translate(488 264) scale(0.0102564 -0.0102564)" d="M1077 1053 707 -7Q670 -114 613.5 -203.0Q557 -292 466.5 -350.5Q376 -409 237 -423L211 -289Q320 -271 383.0 -234.0Q446 -197 482.5 -139.5Q519 -82 547 0H491L123 1053H303L605 128L903 1053Z"/><path fill="#e0e0e0" transform="translate(500.2 264) scale(0.0102564 -0.0102564)" d="M1037 53Q983 17 906.0 -3.0Q829 -23 755 -23Q585 -23 493.0 66.0Q401 155 401 295V923H159V1053H401V1292L569 1312V1053H933L913 923H569V297Q569 209 615.5 163.0Q662 117 770 117Q829 117 879.0 131.0Q929 145 972 167Z"/><path fill="#e0e0e0" transform="translate(512.4 264) scale(0.0102564 -0.0102564)" d="M895 1075Q945 1075 992.0 1053.0Q1039 1031 1069.0 968.0Q1099 905 1099 784V0H943V757Q943 856 931.0 900.0Q919 944 862 944Q815 944 768.0 914.5Q721 885 678 818V0H521V757Q521 856 509.0 900.0Q497 944 440 944Q391 944 345.0 914.5Q299 885 256 818V0H101V1053H233L243 931Q286 992 339.5 1033.5Q393 1075 472 1075Q532 1075 585.0 1046.5Q638 1018 663 936Q706 998 760.0 1036.5Q814 1075 895 1075Z"/><path fill="#e0e0e0" transform="translate(524.6 264) scale(0.0102564 -0.0102564)" d="M369 1053V307Q369 203 412.0 157.0Q455 111 546 111Q633 111 710.5 160.5Q788 210 831 278V1053H999V0H856L842 142Q780 62 688.5 19.5Q597 -23 505 -23Q352 -23 276.5 58.5Q201 140 201 287V1053Z"/><path fill="#e0e0e0" transform="translate(536.8 264) scale(0.0102564 -0.0102564)" d="M303 0H111L500 556L159 1053H358L602 661L849 1053H1041L701 563L1089 0H883L595 452Z"/><path fill="#e0e0e0" transform="translate(562.42 267.017) scale(0.0253873 -0.0253873)" d="M710 804H634V-70H710V375H853V440H710ZM483 710H72V646H401C385 449 260 265 42 164L89 104C314 221 478 426 483 710Z"/><path fill="#e0e0e0" transform="translate(599.02 266.471) scale(0.0253873 -0.0253873)" d="M739 83C739 180 628 232 432 232C237 232 127 176 127 83C127 -12 237 -68 432 -68C628 -68 739 -13 739 83ZM788 512C666 524 505 592 477 696H755V759H110V696H389C363 593 214 524 79 511L114 448C268 470 398 548 432 629C476 549 607 472 753 448ZM432 171C574 171 662 139 662 83C662 25 574 -6 432 -6C291 -6 204 25 204 83C204 139 291 171 432 171ZM827 303V367H470V499H394V367H38V303Z"/><path fill="#e0e0e0" transform="translate(623.42 267.601) scale(0.0253873 -0.0253873)" d="M753 275V338H211V478H728V739H137V675H652V541H134V275H258V105H38V41H827V105H612V275ZM334 275H537V105H334Z"/><path fill="#e0e0e0" transform="translate(647.82 267.169) scale(0.0253873 -0.0253873)" d="M754 -58V257H678V165H261V255H185V-58ZM617 341 610 402C556 394 462 387 368 383V486H546V549H190V693H538V756H114V486H292V380C197 377 106 377 39 377L50 310C108 310 237 313 336 318C442 323 548 333 617 341ZM678 4H261V103H678ZM754 304V804H678V304Z"/><path fill="#e0e0e0" transform="translate(672.22 267.017) scale(0.0253873 -0.0253873)" d="M746 804H671V-70H746ZM582 251C478 228 276 212 164 212V713H87V145H126C260 145 488 162 589 185Z"/><path fill="#e0e0e0" transform="translate(696.62 267.017) scale(0.0253873 -0.0253873)" d="M712 804H636V-70H712V393H854V457H712ZM149 209V649H487V713H72V144H158C310 144 483 156 577 174L569 237C485 219 312 209 199 209Z"/><path fill="#e0e0e0" transform="translate(719.8 264) scale(0.0102564 -0.0102564)" d="M425 700Q425 491 472.5 339.5Q520 188 615.0 63.0Q710 -62 853 -188L765 -280Q603 -148 487.5 -9.0Q372 130 310.5 301.0Q249 472 249 700Q249 928 310.5 1099.0Q372 1270 487.5 1409.0Q603 1548 765 1680L853 1588Q745 1492 664.5 1399.5Q584 1307 531.0 1205.0Q478 1103 451.5 980.0Q425 857 425 700Z"/><path fill="#e0e0e0" transform="translate(733.22 267.436) scale(0.0253873 -0.0253873)" d="M827 41V105H469V314H730V726H133V314H393V105H38V41ZM654 377H209V663H654Z"/><path fill="#e0e0e0" transform="translate(757.62 266.776) scale(0.0253873 -0.0253873)" d="M734 -43V21H212V198H136V-43ZM827 276V339H38V276ZM734 455V518H211V694H728V758H135V455Z"/><path d="M835.7,245.5 V269.9" stroke="#fea62b" stroke-width="1.8" fill="none"/><path d="M1091.9,245.5 V269.9" stroke="#0a2030" stroke-width="1.8" fill="none"/><path d="M6.1,269.9 V294.3" stroke="#0a2030" stroke-width="1.8" fill="none"/><path d="M262.3,269.9 V294.3" stroke="#fea62b" stroke-width="1.8" fill="none"/><path fill="#e0e0e0" transform="translate(294.02 291.493) scale(0.0253873 -0.0253873)" d="M807 -64V-1H278V92H775V298H198V235H698V151H202V-64ZM479 417C391 459 298 542 298 669V764H224V668C224 542 145 444 38 392L85 337C176 384 240 465 263 538C288 470 371 393 435 359ZM609 352V788H536V695H405V634H536V547H406V486H536V352ZM775 344V804H699V344Z"/><path fill="#e0e0e0" transform="translate(330.62 290.871) scale(0.0253873 -0.0253873)" d="M739 83C739 180 628 232 432 232C237 232 127 176 127 83C127 -12 237 -68 432 -68C628 -68 739 -13 739 83ZM788 512C666 524 505 592 477 696H755V759H110V696H389C363 593 214 524 79 511L114 448C268 470 398 548 432 629C476 549 607 472 753 448ZM432 171C574 171 662 139 662 83C662 25 574 -6 432 -6C291 -6 204 25 204 83C204 139 291 171 432 171ZM827 303V367H470V499H394V367H38V303Z"/><path fill="#e0e0e0" transform="translate(355.02 292.001) scale(0.0253873 -0.0253873)" d="M753 275V338H211V478H728V739H137V675H652V541H134V275H258V105H38V41H827V105H612V275ZM334 275H537V105H334Z"/><path fill="#e0e0e0" transform="translate(378.2 288.4) scale(0.0102564 -0.0102564)" d="M775 700Q775 857 748.5 980.0Q722 1103 669.0 1205.0Q616 1307 535.5 1399.5Q455 1492 347 1588L435 1680Q597 1548 712.5 1409.0Q828 1270 889.5 1099.0Q951 928 951 700Q951 472 889.5 301.0Q828 130 712.5 -9.0Q597 -148 435 -280L347 -188Q490 -62 585.0 63.0Q680 188 727.5 339.5Q775 491 775 700Z"/><path fill="#e0e0e0" transform="translate(390.4 288.4) scale(0.0102564 -0.0102564)" d="M423 154Q423 227 473.0 278.0Q523 329 598 329Q674 329 724.5 278.0Q775 227 775 154Q775 80 724.5 28.5Q674 -23 598 -23Q523 -23 473.0 28.5Q423 80 423 154Z"/><path fill="#e0e0e0" transform="translate(416.02 291.582) scale(0.0253873 -0.0253873)" d="M842 525V589H709V804H633V301H709V525ZM721 -57V5H233V192H712V255H156V-57ZM144 406V674H469V738H68V343H139C290 343 456 356 553 373L545 435C461 418 308 406 187 406Z"/><path fill="#e0e0e0" transform="translate(440.42 291.366) scale(0.0253873 -0.0253873)" d="M827 362V426H38V362ZM739 640C739 736 623 792 433 792C245 792 129 736 129 640C129 544 245 489 433 489C623 489 739 544 739 640ZM433 730C572 730 662 695 662 640C662 586 572 552 433 552C296 552 207 586 207 640C207 695 296 730 433 730ZM757 -62V0H206V88H728V284H128V223H652V146H130V-62Z"/><path fill="#e0e0e0" transform="translate(464.82 291.417) scale(0.0253873 -0.0253873)" d="M723 804H648V-70H723V376H856V440H723ZM290 708H55V644H213C211 500 140 292 10 175L72 130C218 285 290 488 290 708ZM528 708H330V644H453C453 510 403 263 259 119L323 76C480 263 528 476 528 708Z"/><path fill="#e0e0e0" transform="translate(489.22 292.09) scale(0.0253873 -0.0253873)" d="M747 519C747 654 622 746 431 746C243 746 117 654 117 519C117 384 243 294 431 294C621 294 747 384 747 519ZM674 519C674 421 577 355 431 355C286 355 190 421 190 519C190 617 286 683 431 683C578 683 674 617 674 519ZM827 41V105H629V268L553 270V105H309V270L233 268V105H38V41Z"/><path fill="#e0e0e0" transform="translate(512.4 288.4) scale(0.0102564 -0.0102564)" d="M599 1399Q722 1399 810.5 1355.0Q899 1311 946.0 1240.5Q993 1170 993 1091Q993 995 957.0 934.5Q921 874 867.0 832.0Q813 790 759.5 751.0Q706 712 669.5 659.0Q633 606 633 523V454H464V533Q464 630 499.5 694.0Q535 758 588.0 803.0Q641 848 694.0 886.5Q747 925 783.0 970.0Q819 1015 819 1081Q819 1167 751.0 1213.0Q683 1259 582 1259Q511 1259 436.0 1224.5Q361 1190 299 1113L179 1201Q266 1304 372.0 1351.5Q478 1399 599 1399ZM553 245Q611 245 650.0 206.0Q689 167 689 112Q689 56 650.0 16.5Q611 -23 553 -23Q497 -23 459.0 16.5Q421 56 421 112Q421 167 459.0 206.0Q497 245 553 245Z"/><path d="M835.7,269.9 V294.3" stroke="#fea62b" stroke-width="1.8" fill="none"/><path d="M1091.9,269.9 V294.3" stroke="#0a2030" stroke-width="1.8" fill="none"/><path d="M6.1,294.3 V318.7" stroke="#0a2030" stroke-width="1.8" fill="none"/><path d="M262.3,294.3 V318.7" stroke="#fea62b" stroke-width="1.8" fill="none"/><path d="M835.7,294.3 V318.7" stroke="#fea62b" stroke-width="1.8" fill="none"/><path d="M1091.9,294.3 V318.7" stroke="#0a2030" stroke-width="1.8" fill="none"/><path d="M6.1,318.7 V343.1" stroke="#0a2030" stroke-width="1.8" fill="none"/><path d="M262.3,318.7 V343.1" stroke="#fea62b" stroke-width="1.8" fill="none"/><path d="M311.1,343.1 L311.1,336.39 Q311.1,330.9 316.59,330.9 L317.2,330.9" stroke="#45505a" stroke-width="1.8" fill="none"/><path d="M317.2,330.9 H329.4" stroke="#45505a" stroke-width="1.8" fill="none"/><path d="M329.4,330.9 H341.6" stroke="#45505a" stroke-width="1.8" fill="none"/><path d="M341.6,330.9 H353.8" stroke="#45505a" stroke-width="1.8" fill="none"/><path d="M353.8,330.9 H366" stroke="#45505a" stroke-width="1.8" fill="none"/><path d="M366,330.9 H378.2" stroke="#45505a" stroke-width="1.8" fill="none"/><path d="M378.2,330.9 H390.4" stroke="#45505a" stroke-width="1.8" fill="none"/><path d="M390.4,330.9 H402.6" stroke="#45505a" stroke-width="1.8" fill="none"/><path d="M402.6,330.9 H414.8" stroke="#45505a" stroke-width="1.8" fill="none"/><path d="M414.8,330.9 H427" stroke="#45505a" stroke-width="1.8" fill="none"/><path d="M427,330.9 H439.2" stroke="#45505a" stroke-width="1.8" fill="none"/><path d="M439.2,330.9 H451.4" stroke="#45505a" stroke-width="1.8" fill="none"/><path d="M451.4,330.9 H463.6" stroke="#45505a" stroke-width="1.8" fill="none"/><path d="M463.6,330.9 H475.8" stroke="#45505a" stroke-width="1.8" fill="none"/><path d="M475.8,330.9 H488" stroke="#45505a" stroke-width="1.8" fill="none"/><path d="M488,330.9 H500.2" stroke="#45505a" stroke-width="1.8" fill="none"/><path d="M500.2,330.9 H512.4" stroke="#45505a" stroke-width="1.8" fill="none"/><path d="M512.4,330.9 H524.6" stroke="#45505a" stroke-width="1.8" fill="none"/><path d="M530.7,343.1 L530.7,336.39 Q530.7,330.9 525.21,330.9 L524.6,330.9" stroke="#45505a" stroke-width="1.8" fill="none"/><path d="M555.1,343.1 L555.1,336.39 Q555.1,330.9 560.59,330.9 L561.2,330.9" stroke="#b93c5b" stroke-width="1.8" fill="none"/><path d="M561.2,330.9 H573.4" stroke="#b93c5b" stroke-width="1.8" fill="none"/><path d="M573.4,330.9 H585.6" stroke="#b93c5b" stroke-width="1.8" fill="none"/><path d="M585.6,330.9 H597.8" stroke="#b93c5b" stroke-width="1.8" fill="none"/><path d="M597.8,330.9 H610" stroke="#b93c5b" stroke-width="1.8" fill="none"/><path d="M610,330.9 H622.2" stroke="#b93c5b" stroke-width="1.8" fill="none"/><path d="M622.2,330.9 H634.4" stroke="#b93c5b" stroke-width="1.8" fill="none"/><path d="M634.4,330.9 H646.6" stroke="#b93c5b" stroke-width="1.8" fill="none"/><path d="M646.6,330.9 H658.8" stroke="#b93c5b" stroke-width="1.8" fill="none"/><path d="M658.8,330.9 H671" stroke="#b93c5b" stroke-width="1.8" fill="none"/><path d="M671,330.9 H683.2" stroke="#b93c5b" stroke-width="1.8" fill="none"/><path d="M683.2,330.9 H695.4" stroke="#b93c5b" stroke-width="1.8" fill="none"/><path d="M695.4,330.9 H707.6" stroke="#b93c5b" stroke-width="1.8" fill="none"/><path d="M707.6,330.9 H719.8" stroke="#b93c5b" stroke-width="1.8" fill="none"/><path d="M719.8,330.9 H732" stroke="#b93c5b" stroke-width="1.8" fill="none"/><path d="M732,330.9 H744.2" stroke="#b93c5b" stroke-width="1.8" fill="none"/><path d="M744.2,330.9 H756.4" stroke="#b93c5b" stroke-width="1.8" fill="none"/><path d="M756.4,330.9 H768.6" stroke="#b93c5b" stroke-width="1.8" fill="none"/><path d="M768.6,330.9 H780.8" stroke="#b93c5b" stroke-width="1.8" fill="none"/><path d="M786.9,343.1 L786.9,336.39 Q786.9,330.9 781.41,330.9 L780.8,330.9" stroke="#b93c5b" stroke-width="1.8" fill="none"/><path d="M835.7,318.7 V343.1" stroke="#fea62b" stroke-width="1.8" fill="none"/><path d="M1091.9,318.7 V343.1" stroke="#0a2030" stroke-width="1.8" fill="none"/><path d="M6.1,343.1 V367.5" stroke="#0a2030" stroke-width="1.8" fill="none"/><path d="M262.3,343.1 V367.5" stroke="#fea62b" stroke-width="1.8" fill="none"/><path d="M311.1,343.1 V367.5" stroke="#45505a" stroke-width="1.8" fill="none"/><path fill="#81878e" transform="translate(391.62 364.744) scale(0.0253873 -0.0253873)" d="M744 -68V25H268V179H730V273H151V-68ZM540 383 523 473C431 453 307 447 176 447V662H456V754H60V353H146C312 353 456 363 540 383ZM853 513V609H727V812H608V321H727V513Z"/><path fill="#81878e" transform="translate(416.02 364.604) scale(0.0253873 -0.0253873)" d="M767 -79V812H650V-79ZM493 719H77V622H367C351 445 218 259 23 170L95 82C367 230 486 450 493 719Z"/><path d="M530.7,343.1 V367.5" stroke="#45505a" stroke-width="1.8" fill="none"/><path d="M555.1,343.1 V367.5" stroke="#b93c5b" stroke-width="1.8" fill="none"/><path fill="#f5e5e9" transform="translate(647.82 364.604) scale(0.0253873 -0.0253873)" d="M773 812H656V-79H773ZM91 564H263C248 488 160 446 59 429L108 342C196 354 293 407 327 475C363 417 455 370 537 360L583 448C498 453 404 493 386 564H558V656H91ZM379 -53V219C466 224 556 231 623 241L614 330C535 321 444 314 319 309C220 306 127 304 23 304L40 209C106 209 176 210 261 213V-53ZM196 703H455V795H196Z"/><path fill="#f5e5e9" transform="translate(672.22 365.43) scale(0.0253873 -0.0253873)" d="M812 417C677 439 494 555 494 712V766H372V712C372 553 200 441 55 420L108 325C230 352 386 443 432 563C483 446 635 353 757 325ZM835 32V124H489V336H371V124H30V32Z"/><path d="M786.9,343.1 V367.5" stroke="#b93c5b" stroke-width="1.8" fill="none"/><path d="M835.7,343.1 V367.5" stroke="#fea62b" stroke-width="1.8" fill="none"/><path d="M1091.9,343.1 V367.5" stroke="#0a2030" stroke-width="1.8" fill="none"/><path d="M6.1,367.5 V391.9" stroke="#0a2030" stroke-width="1.8" fill="none"/><path d="M262.3,367.5 V391.9" stroke="#fea62b" stroke-width="1.8" fill="none"/><path d="M311.1,367.5 L311.1,374.21 Q311.1,379.7 316.59,379.7 L317.2,379.7" stroke="#45505a" stroke-width="1.8" fill="none"/><path d="M317.2,379.7 H329.4" stroke="#45505a" stroke-width="1.8" fill="none"/><path d="M329.4,379.7 H341.6" stroke="#45505a" stroke-width="1.8" fill="none"/><path d="M341.6,379.7 H353.8" stroke="#45505a" stroke-width="1.8" fill="none"/><path d="M353.8,379.7 H366" stroke="#45505a" stroke-width="1.8" fill="none"/><path d="M366,379.7 H378.2" stroke="#45505a" stroke-width="1.8" fill="none"/><path d="M378.2,379.7 H390.4" stroke="#45505a" stroke-width="1.8" fill="none"/><path d="M390.4,379.7 H402.6" stroke="#45505a" stroke-width="1.8" fill="none"/><path d="M402.6,379.7 H414.8" stroke="#45505a" stroke-width="1.8" fill="none"/><path d="M414.8,379.7 H427" stroke="#45505a" stroke-width="1.8" fill="none"/><path d="M427,379.7 H439.2" stroke="#45505a" stroke-width="1.8" fill="none"/><path d="M439.2,379.7 H451.4" stroke="#45505a" stroke-width="1.8" fill="none"/><path d="M451.4,379.7 H463.6" stroke="#45505a" stroke-width="1.8" fill="none"/><path d="M463.6,379.7 H475.8" stroke="#45505a" stroke-width="1.8" fill="none"/><path d="M475.8,379.7 H488" stroke="#45505a" stroke-width="1.8" fill="none"/><path d="M488,379.7 H500.2" stroke="#45505a" stroke-width="1.8" fill="none"/><path d="M500.2,379.7 H512.4" stroke="#45505a" stroke-width="1.8" fill="none"/><path d="M512.4,379.7 H524.6" stroke="#45505a" stroke-width="1.8" fill="none"/><path d="M530.7,367.5 L530.7,374.21 Q530.7,379.7 525.21,379.7 L524.6,379.7" stroke="#45505a" stroke-width="1.8" fill="none"/><path d="M555.1,367.5 L555.1,374.21 Q555.1,379.7 560.59,379.7 L561.2,379.7" stroke="#b93c5b" stroke-width="1.8" fill="none"/><path d="M561.2,379.7 H573.4" stroke="#b93c5b" stroke-width="1.8" fill="none"/><path d="M573.4,379.7 H585.6" stroke="#b93c5b" stroke-width="1.8" fill="none"/><path d="M585.6,379.7 H597.8" stroke="#b93c5b" stroke-width="1.8" fill="none"/><path d="M597.8,379.7 H610" stroke="#b93c5b" stroke-width="1.8" fill="none"/><path d="M610,379.7 H622.2" stroke="#b93c5b" stroke-width="1.8" fill="none"/><path d="M622.2,379.7 H634.4" stroke="#b93c5b" stroke-width="1.8" fill="none"/><path d="M634.4,379.7 H646.6" stroke="#b93c5b" stroke-width="1.8" fill="none"/><path d="M646.6,379.7 H658.8" stroke="#b93c5b" stroke-width="1.8" fill="none"/><path d="M658.8,379.7 H671" stroke="#b93c5b" stroke-width="1.8" fill="none"/><path d="M671,379.7 H683.2" stroke="#b93c5b" stroke-width="1.8" fill="none"/><path d="M683.2,379.7 H695.4" stroke="#b93c5b" stroke-width="1.8" fill="none"/><path d="M695.4,379.7 H707.6" stroke="#b93c5b" stroke-width="1.8" fill="none"/><path d="M707.6,379.7 H719.8" stroke="#b93c5b" stroke-width="1.8" fill="none"/><path d="M719.8,379.7 H732" stroke="#b93c5b" stroke-width="1.8" fill="none"/><path d="M732,379.7 H744.2" stroke="#b93c5b" stroke-width="1.8" fill="none"/><path d="M744.2,379.7 H756.4" stroke="#b93c5b" stroke-width="1.8" fill="none"/><path d="M756.4,379.7 H768.6" stroke="#b93c5b" stroke-width="1.8" fill="none"/><path d="M768.6,379.7 H780.8" stroke="#b93c5b" stroke-width="1.8" fill="none"/><path d="M786.9,367.5 L786.9,374.21 Q786.9,379.7 781.41,379.7 L780.8,379.7" stroke="#b93c5b" stroke-width="1.8" fill="none"/><path d="M835.7,367.5 V391.9" stroke="#fea62b" stroke-width="1.8" fill="none"/><path d="M1091.9,367.5 V391.9" stroke="#0a2030" stroke-width="1.8" fill="none"/><path d="M6.1,391.9 V416.3" stroke="#0a2030" stroke-width="1.8" fill="none"/><path d="M262.3,391.9 V416.3" stroke="#fea62b" stroke-width="1.8" fill="none"/><path d="M835.7,391.9 V416.3" stroke="#fea62b" stroke-width="1.8" fill="none"/><path d="M1091.9,391.9 V416.3" stroke="#0a2030" stroke-width="1.8" fill="none"/><path d="M6.1,416.3 V440.7" stroke="#0a2030" stroke-width="1.8" fill="none"/><path d="M262.3,416.3 L262.3,423.01 Q262.3,428.5 267.79,428.5 L268.4,428.5" stroke="#fea62b" stroke-width="1.8" fill="none"/><path d="M268.4,428.5 H280.6" stroke="#fea62b" stroke-width="1.8" fill="none"/><path d="M280.6,428.5 H292.8" stroke="#fea62b" stroke-width="1.8" fill="none"/><path d="M292.8,428.5 H305" stroke="#fea62b" stroke-width="1.8" fill="none"/><path d="M305,428.5 H317.2" stroke="#fea62b" stroke-width="1.8" fill="none"/><path d="M317.2,428.5 H329.4" stroke="#fea62b" stroke-width="1.8" fill="none"/><path d="M329.4,428.5 H341.6" stroke="#fea62b" stroke-width="1.8" fill="none"/><path fill="#fea62b" transform="translate(353.8 434.8) scale(0.0102564 -0.0102564)" d="M589 1267 713 1161 428 847Q387 802 365.0 780.5Q343 759 300 732H1155V584H299Q336 560 367.0 530.5Q398 501 428 469L713 155L589 49L45 658Z"/><path fill="#fea62b" transform="translate(366 434.8) scale(0.0102564 -0.0102564)" d="M611 1267 1155 658 611 49 487 155 772 469Q802 501 833.0 530.5Q864 560 901 584H45V732H900Q857 759 835.0 780.5Q813 802 772 847L487 1161Z"/><path fill="#fea62b" transform="translate(391.62 437.817) scale(0.0253873 -0.0253873)" d="M757 -70V804H681V-70ZM67 430C67 244 149 120 292 120C437 120 518 244 518 429C518 614 437 738 292 738C149 738 67 614 67 430ZM446 429C446 286 385 186 292 186C200 186 139 286 139 429C139 573 200 672 292 672C385 672 446 573 446 429Z"/><path fill="#fea62b" transform="translate(416.02 437.284) scale(0.0253873 -0.0253873)" d="M733 83C733 182 624 235 432 235C241 235 133 178 133 83C133 -14 241 -70 432 -70C624 -70 733 -15 733 83ZM732 473V536H211V699H728V762H134V473H394V362H38V299H827V362H470V473ZM432 173C571 173 655 139 655 83C655 25 571 -7 432 -7C295 -7 211 25 211 83C211 139 295 173 432 173Z"/><path fill="#fea62b" transform="translate(451.4 434.8) scale(0.0102564 -0.0102564)" d="M423 684Q423 757 473.0 808.0Q523 859 598 859Q674 859 724.5 808.0Q775 757 775 684Q775 610 724.5 558.5Q674 507 598 507Q523 507 473.0 558.5Q423 610 423 684Z"/><path fill="#fea62b" transform="translate(475.8 434.8) scale(0.0102564 -0.0102564)" d="M425 1235V771H935V628H425V139H1051V0H251V1377H1033L1013 1235Z"/><path fill="#fea62b" transform="translate(488 434.8) scale(0.0102564 -0.0102564)" d="M201 0V1053H344L357 907Q421 988 517.0 1031.5Q613 1075 705 1075Q860 1075 930.5 993.0Q1001 911 1001 765V0H833V641Q833 749 821.0 815.0Q809 881 770.5 912.0Q732 943 653 943Q591 943 536.5 916.0Q482 889 439.5 848.5Q397 808 369 767V0Z"/><path fill="#fea62b" transform="translate(500.2 434.8) scale(0.0102564 -0.0102564)" d="M1037 53Q983 17 906.0 -3.0Q829 -23 755 -23Q585 -23 493.0 66.0Q401 155 401 295V923H159V1053H401V1292L569 1312V1053H933L913 923H569V297Q569 209 615.5 163.0Q662 117 770 117Q829 117 879.0 131.0Q929 145 972 167Z"/><path fill="#fea62b" transform="translate(512.4 434.8) scale(0.0102564 -0.0102564)" d="M333 467Q340 284 429.5 200.5Q519 117 641 117Q722 117 787.0 141.0Q852 165 922 212L1001 101Q928 43 833.0 10.0Q738 -23 639 -23Q485 -23 377.5 46.0Q270 115 213.5 238.5Q157 362 157 525Q157 685 213.5 809.0Q270 933 373.5 1004.0Q477 1075 617 1075Q816 1075 930.5 937.0Q1045 799 1045 559Q1045 532 1043.5 508.0Q1042 484 1041 467ZM619 937Q502 937 423.0 854.0Q344 771 334 597H883Q880 766 809.0 851.5Q738 937 619 937Z"/><path fill="#fea62b" transform="translate(524.6 434.8) scale(0.0102564 -0.0102564)" d="M211 0V129H375V924H211V1053H503L534 804Q595 934 682.0 1005.0Q769 1076 912 1076Q956 1076 990.5 1069.5Q1025 1063 1061 1053L1037 697H899V921Q895 921 890 921Q648 921 543 575V129H757V0Z"/><path fill="#fea62b" transform="translate(550.22 437.741) scale(0.0253873 -0.0253873)" d="M586 264 579 323C528 315 433 307 341 303V358C435 366 508 403 508 474C508 555 415 591 304 591C193 591 102 554 102 473C102 402 172 367 264 358V299C175 295 86 293 23 293L35 230C96 230 216 235 315 241C418 246 523 257 586 264ZM844 450V514H712V804H635V223H712V450ZM139 177V114H635V-76H712V177ZM556 620V682H54V620ZM435 474C435 433 377 413 304 413C230 413 174 432 174 474C174 514 229 534 304 534C377 534 435 514 435 474ZM425 730V793H185V730Z"/><path fill="#fea62b" transform="translate(574.62 437.817) scale(0.0253873 -0.0253873)" d="M759 96C759 199 653 263 465 263C278 263 173 199 173 96C173 -6 278 -70 465 -70C653 -70 759 -6 759 96ZM61 667H260C260 651 260 630 259 620C255 496 144 385 34 343L75 282C169 323 274 428 298 510C334 431 428 349 519 313L564 374C457 406 345 501 338 620C337 630 337 650 337 667H534V731H61ZM465 199C602 199 681 162 681 96C681 31 602 -6 465 -6C331 -6 250 31 250 96C250 162 331 199 465 199ZM676 513V261H752V804H676V577H500V513Z"/><path fill="#fea62b" transform="translate(610 434.8) scale(0.0102564 -0.0102564)" d="M423 684Q423 757 473.0 808.0Q523 859 598 859Q674 859 724.5 808.0Q775 757 775 684Q775 610 724.5 558.5Q674 507 598 507Q523 507 473.0 558.5Q423 610 423 684Z"/><path fill="#fea62b" transform="translate(634.4 434.8) scale(0.0102564 -0.0102564)" d="M1077 1053 707 -7Q670 -114 613.5 -203.0Q557 -292 466.5 -350.5Q376 -409 237 -423L211 -289Q320 -271 383.0 -234.0Q446 -197 482.5 -139.5Q519 -82 547 0H491L123 1053H303L605 128L903 1053Z"/><path fill="#fea62b" transform="translate(646.6 434.8) scale(0.0102564 -0.0102564)" d="M241 -206 105 -146 961 1619 1095 1553Z"/><path fill="#fea62b" transform="translate(658.8 434.8) scale(0.0102564 -0.0102564)" d="M201 0V1053H344L357 907Q421 988 517.0 1031.5Q613 1075 705 1075Q860 1075 930.5 993.0Q1001 911 1001 765V0H833V641Q833 749 821.0 815.0Q809 881 770.5 912.0Q732 943 653 943Q591 943 536.5 916.0Q482 889 439.5 848.5Q397 808 369 767V0Z"/><path fill="#fea62b" transform="translate(683.2 434.8) scale(0.0102564 -0.0102564)" d="M423 684Q423 757 473.0 808.0Q523 859 598 859Q674 859 724.5 808.0Q775 757 775 684Q775 610 724.5 558.5Q674 507 598 507Q523 507 473.0 558.5Q423 610 423 684Z"/><path fill="#fea62b" transform="translate(707.6 434.8) scale(0.0102564 -0.0102564)" d="M425 1235V771H935V628H425V139H1051V0H251V1377H1033L1013 1235Z"/><path fill="#fea62b" transform="translate(719.8 434.8) scale(0.0102564 -0.0102564)" d="M559 116Q681 116 751.0 161.0Q821 206 821 283Q821 330 803.5 365.0Q786 400 732.0 428.5Q678 457 566 485Q457 512 376.5 547.5Q296 583 251.5 640.0Q207 697 207 788Q207 921 318.0 998.0Q429 1075 607 1075Q734 1075 828.5 1041.0Q923 1007 989 959L915 845Q856 886 783.5 912.5Q711 939 609 939Q485 939 433.0 900.5Q381 862 381 801Q381 754 406.5 723.5Q432 693 493.0 669.0Q554 645 661 616Q764 588 841.0 550.0Q918 512 960.5 450.5Q1003 389 1003 291Q1003 179 939.0 109.5Q875 40 773.5 8.5Q672 -23 559 -23Q416 -23 315.5 18.5Q215 60 147 119L243 230Q305 179 385.5 147.5Q466 116 559 116Z"/><path fill="#fea62b" transform="translate(732 434.8) scale(0.0102564 -0.0102564)" d="M677 122Q756 122 824.5 147.5Q893 173 951 214L1033 104Q964 45 867.0 11.0Q770 -23 677 -23Q520 -23 409.5 44.5Q299 112 241.0 234.5Q183 357 183 522Q183 680 241.0 805.0Q299 930 410.0 1002.5Q521 1075 679 1075Q880 1075 1031 953L949 841Q812 935 677 935Q541 935 453.0 832.5Q365 730 365 522Q365 311 453.0 216.5Q541 122 677 122Z"/><path fill="#fea62b" transform="translate(757.62 437.817) scale(0.0253873 -0.0253873)" d="M102 592H288C275 498 168 436 68 425L103 368C211 388 298 449 328 515C361 453 453 399 547 384L581 444C486 451 378 508 365 592H556V656H102ZM753 -70V804H677V-70ZM362 -38V260C458 264 563 271 628 279L619 339C550 332 439 324 326 320C229 316 133 314 29 314L41 248C120 250 202 251 286 255V-38ZM210 714H447V777H210Z"/><path fill="#fea62b" transform="translate(782.02 438.401) scale(0.0253873 -0.0253873)" d="M796 372C652 400 472 526 472 676V739H393V676C393 526 223 401 70 372L110 311C263 353 398 461 431 561C469 463 601 354 754 311ZM827 41V105H469V329H393V105H38V41Z"/><path d="M817.4,428.5 H829.6" stroke="#fea62b" stroke-width="1.8" fill="none"/><path d="M835.7,416.3 L835.7,423.01 Q835.7,428.5 830.21,428.5 L829.6,428.5" stroke="#fea62b" stroke-width="1.8" fill="none"/><path d="M1091.9,416.3 V440.7" stroke="#0a2030" stroke-width="1.8" fill="none"/><path d="M6.1,440.7 V465.1" stroke="#0a2030" stroke-width="1.8" fill="none"/><path d="M1091.9,440.7 V465.1" stroke="#0a2030" stroke-width="1.8" fill="none"/><path d="M6.1,465.1 V489.5" stroke="#0a2030" stroke-width="1.8" fill="none"/><path d="M1091.9,465.1 V489.5" stroke="#0a2030" stroke-width="1.8" fill="none"/><path d="M6.1,489.5 V513.9" stroke="#0a2030" stroke-width="1.8" fill="none"/><path d="M1091.9,489.5 V513.9" stroke="#0a2030" stroke-width="1.8" fill="none"/><path d="M6.1,513.9 V538.3" stroke="#0a2030" stroke-width="1.8" fill="none"/><path d="M1091.9,513.9 V538.3" stroke="#0a2030" stroke-width="1.8" fill="none"/><path d="M6.1,538.3 V562.7" stroke="#0a2030" stroke-width="1.8" fill="none"/><path d="M1091.9,538.3 V562.7" stroke="#0a2030" stroke-width="1.8" fill="none"/><path d="M6.1,562.7 V587.1" stroke="#0a2030" stroke-width="1.8" fill="none"/><path d="M1091.9,562.7 V587.1" stroke="#0a2030" stroke-width="1.8" fill="none"/><path d="M6.1,587.1 L6.1,599.3 L12.2,599.3" stroke="#0a2030" stroke-width="1.8" fill="none"/><path d="M12.2,599.3 H24.4" stroke="#0a2030" stroke-width="1.8" fill="none"/><path d="M24.4,599.3 H36.6" stroke="#0a2030" stroke-width="1.8" fill="none"/><path d="M36.6,599.3 H48.8" stroke="#0a2030" stroke-width="1.8" fill="none"/><path d="M48.8,599.3 H61" stroke="#0a2030" stroke-width="1.8" fill="none"/><path d="M61,599.3 H73.2" stroke="#0a2030" stroke-width="1.8" fill="none"/><path d="M73.2,599.3 H85.4" stroke="#0a2030" stroke-width="1.8" fill="none"/><path d="M85.4,599.3 H97.6" stroke="#0a2030" stroke-width="1.8" fill="none"/><path d="M97.6,599.3 H109.8" stroke="#0a2030" stroke-width="1.8" fill="none"/><path d="M109.8,599.3 H122" stroke="#0a2030" stroke-width="1.8" fill="none"/><path d="M122,599.3 H134.2" stroke="#0a2030" stroke-width="1.8" fill="none"/><path d="M134.2,599.3 H146.4" stroke="#0a2030" stroke-width="1.8" fill="none"/><path d="M146.4,599.3 H158.6" stroke="#0a2030" stroke-width="1.8" fill="none"/><path d="M158.6,599.3 H170.8" stroke="#0a2030" stroke-width="1.8" fill="none"/><path d="M170.8,599.3 H183" stroke="#0a2030" stroke-width="1.8" fill="none"/><path d="M183,599.3 H195.2" stroke="#0a2030" stroke-width="1.8" fill="none"/><path d="M195.2,599.3 H207.4" stroke="#0a2030" stroke-width="1.8" fill="none"/><path d="M207.4,599.3 H219.6" stroke="#0a2030" stroke-width="1.8" fill="none"/><path d="M219.6,599.3 H231.8" stroke="#0a2030" stroke-width="1.8" fill="none"/><path d="M231.8,599.3 H244" stroke="#0a2030" stroke-width="1.8" fill="none"/><path d="M244,599.3 H256.2" stroke="#0a2030" stroke-width="1.8" fill="none"/><path d="M256.2,599.3 H268.4" stroke="#0a2030" stroke-width="1.8" fill="none"/><path d="M268.4,599.3 H280.6" stroke="#0a2030" stroke-width="1.8" fill="none"/><path d="M280.6,599.3 H292.8" stroke="#0a2030" stroke-width="1.8" fill="none"/><path d="M292.8,599.3 H305" stroke="#0a2030" stroke-width="1.8" fill="none"/><path d="M305,599.3 H317.2" stroke="#0a2030" stroke-width="1.8" fill="none"/><path d="M317.2,599.3 H329.4" stroke="#0a2030" stroke-width="1.8" fill="none"/><path d="M329.4,599.3 H341.6" stroke="#0a2030" stroke-width="1.8" fill="none"/><path d="M341.6,599.3 H353.8" stroke="#0a2030" stroke-width="1.8" fill="none"/><path d="M353.8,599.3 H366" stroke="#0a2030" stroke-width="1.8" fill="none"/><path d="M366,599.3 H378.2" stroke="#0a2030" stroke-width="1.8" fill="none"/><path d="M378.2,599.3 H390.4" stroke="#0a2030" stroke-width="1.8" fill="none"/><path d="M390.4,599.3 H402.6" stroke="#0a2030" stroke-width="1.8" fill="none"/><path d="M402.6,599.3 H414.8" stroke="#0a2030" stroke-width="1.8" fill="none"/><path d="M414.8,599.3 H427" stroke="#0a2030" stroke-width="1.8" fill="none"/><path d="M427,599.3 H439.2" stroke="#0a2030" stroke-width="1.8" fill="none"/><path d="M439.2,599.3 H451.4" stroke="#0a2030" stroke-width="1.8" fill="none"/><path d="M451.4,599.3 H463.6" stroke="#0a2030" stroke-width="1.8" fill="none"/><path d="M463.6,599.3 H475.8" stroke="#0a2030" stroke-width="1.8" fill="none"/><path d="M475.8,599.3 H488" stroke="#0a2030" stroke-width="1.8" fill="none"/><path d="M488,599.3 H500.2" stroke="#0a2030" stroke-width="1.8" fill="none"/><path d="M500.2,599.3 H512.4" stroke="#0a2030" stroke-width="1.8" fill="none"/><path d="M512.4,599.3 H524.6" stroke="#0a2030" stroke-width="1.8" fill="none"/><path d="M524.6,599.3 H536.8" stroke="#0a2030" stroke-width="1.8" fill="none"/><path d="M536.8,599.3 H549" stroke="#0a2030" stroke-width="1.8" fill="none"/><path d="M549,599.3 H561.2" stroke="#0a2030" stroke-width="1.8" fill="none"/><path d="M561.2,599.3 H573.4" stroke="#0a2030" stroke-width="1.8" fill="none"/><path d="M573.4,599.3 H585.6" stroke="#0a2030" stroke-width="1.8" fill="none"/><path d="M585.6,599.3 H597.8" stroke="#0a2030" stroke-width="1.8" fill="none"/><path d="M597.8,599.3 H610" stroke="#0a2030" stroke-width="1.8" fill="none"/><path d="M610,599.3 H622.2" stroke="#0a2030" stroke-width="1.8" fill="none"/><path d="M622.2,599.3 H634.4" stroke="#0a2030" stroke-width="1.8" fill="none"/><path d="M634.4,599.3 H646.6" stroke="#0a2030" stroke-width="1.8" fill="none"/><path d="M646.6,599.3 H658.8" stroke="#0a2030" stroke-width="1.8" fill="none"/><path d="M658.8,599.3 H671" stroke="#0a2030" stroke-width="1.8" fill="none"/><path d="M671,599.3 H683.2" stroke="#0a2030" stroke-width="1.8" fill="none"/><path d="M683.2,599.3 H695.4" stroke="#0a2030" stroke-width="1.8" fill="none"/><path d="M695.4,599.3 H707.6" stroke="#0a2030" stroke-width="1.8" fill="none"/><path d="M707.6,599.3 H719.8" stroke="#0a2030" stroke-width="1.8" fill="none"/><path d="M719.8,599.3 H732" stroke="#0a2030" stroke-width="1.8" fill="none"/><path d="M732,599.3 H744.2" stroke="#0a2030" stroke-width="1.8" fill="none"/><path d="M744.2,599.3 H756.4" stroke="#0a2030" stroke-width="1.8" fill="none"/><path d="M756.4,599.3 H768.6" stroke="#0a2030" stroke-width="1.8" fill="none"/><path d="M768.6,599.3 H780.8" stroke="#0a2030" stroke-width="1.8" fill="none"/><path d="M780.8,599.3 H793" stroke="#0a2030" stroke-width="1.8" fill="none"/><path d="M793,599.3 H805.2" stroke="#0a2030" stroke-width="1.8" fill="none"/><path d="M805.2,599.3 H817.4" stroke="#0a2030" stroke-width="1.8" fill="none"/><path d="M817.4,599.3 H829.6" stroke="#0a2030" stroke-width="1.8" fill="none"/><path d="M829.6,599.3 H841.8" stroke="#0a2030" stroke-width="1.8" fill="none"/><path d="M841.8,599.3 H854" stroke="#0a2030" stroke-width="1.8" fill="none"/><path d="M854,599.3 H866.2" stroke="#0a2030" stroke-width="1.8" fill="none"/><path d="M866.2,599.3 H878.4" stroke="#0a2030" stroke-width="1.8" fill="none"/><path d="M878.4,599.3 H890.6" stroke="#0a2030" stroke-width="1.8" fill="none"/><path d="M890.6,599.3 H902.8" stroke="#0a2030" stroke-width="1.8" fill="none"/><path d="M902.8,599.3 H915" stroke="#0a2030" stroke-width="1.8" fill="none"/><path d="M915,599.3 H927.2" stroke="#0a2030" stroke-width="1.8" fill="none"/><path d="M927.2,599.3 H939.4" stroke="#0a2030" stroke-width="1.8" fill="none"/><path d="M939.4,599.3 H951.6" stroke="#0a2030" stroke-width="1.8" fill="none"/><path d="M951.6,599.3 H963.8" stroke="#0a2030" stroke-width="1.8" fill="none"/><path d="M963.8,599.3 H976" stroke="#0a2030" stroke-width="1.8" fill="none"/><path d="M976,599.3 H988.2" stroke="#0a2030" stroke-width="1.8" fill="none"/><path d="M988.2,599.3 H1000.4" stroke="#0a2030" stroke-width="1.8" fill="none"/><path d="M1000.4,599.3 H1012.6" stroke="#0a2030" stroke-width="1.8" fill="none"/><path d="M1012.6,599.3 H1024.8" stroke="#0a2030" stroke-width="1.8" fill="none"/><path d="M1024.8,599.3 H1037" stroke="#0a2030" stroke-width="1.8" fill="none"/><path d="M1037,599.3 H1049.2" stroke="#0a2030" stroke-width="1.8" fill="none"/><path d="M1049.2,599.3 H1061.4" stroke="#0a2030" stroke-width="1.8" fill="none"/><path d="M1061.4,599.3 H1073.6" stroke="#0a2030" stroke-width="1.8" fill="none"/><path d="M1073.6,599.3 H1085.8" stroke="#0a2030" stroke-width="1.8" fill="none"/><path d="M1091.9,587.1 L1091.9,599.3 L1085.8,599.3" stroke="#0a2030" stroke-width="1.8" fill="none"/><path fill="#54222f" transform="translate(780.8 630) scale(0.0102564 -0.0102564)" d="M566 192Q645 192 693.5 217.0Q742 242 742 292Q742 326 723.0 349.0Q704 372 650.0 393.0Q596 414 490 443Q344 482 252.5 555.0Q161 628 161 769Q161 911 279.5 1004.0Q398 1097 622 1097Q764 1097 869.5 1060.5Q975 1024 1052 968L926 782Q860 823 784.0 847.5Q708 872 631 872Q479 872 479 790Q479 763 498.5 743.5Q518 724 572.0 703.5Q626 683 730 653Q833 624 909.5 586.0Q986 548 1028.0 484.5Q1070 421 1070 317Q1070 201 1001.0 122.5Q932 44 818.0 5.0Q704 -34 568 -34Q414 -34 296.0 10.0Q178 54 95 126L254 304Q316 256 394.5 224.0Q473 192 566 192Z"/><path fill="#54222f" transform="translate(793 630) scale(0.0102564 -0.0102564)" d="M566 192Q645 192 693.5 217.0Q742 242 742 292Q742 326 723.0 349.0Q704 372 650.0 393.0Q596 414 490 443Q344 482 252.5 555.0Q161 628 161 769Q161 911 279.5 1004.0Q398 1097 622 1097Q764 1097 869.5 1060.5Q975 1024 1052 968L926 782Q860 823 784.0 847.5Q708 872 631 872Q479 872 479 790Q479 763 498.5 743.5Q518 724 572.0 703.5Q626 683 730 653Q833 624 909.5 586.0Q986 548 1028.0 484.5Q1070 421 1070 317Q1070 201 1001.0 122.5Q932 44 818.0 5.0Q704 -34 568 -34Q414 -34 296.0 10.0Q178 54 95 126L254 304Q316 256 394.5 224.0Q473 192 566 192Z"/><path fill="#54222f" transform="translate(805.2 630) scale(0.0102564 -0.0102564)" d="M456 1515V957Q589 1097 768 1097Q910 1097 985.0 1014.0Q1060 931 1060 780V0H744V692Q744 788 722.5 826.0Q701 864 642 864Q592 864 546.5 829.5Q501 795 456 735V0H140V1484Z"/><path fill="#54222f" transform="translate(817.4 630) scale(0.0102564 -0.0102564)" d="M389 868Q389 925 417.5 972.5Q446 1020 494.0 1049.0Q542 1078 600 1078Q688 1078 748.5 1015.5Q809 953 809 868Q809 783 748.5 721.0Q688 659 600 659Q512 659 450.5 721.0Q389 783 389 868ZM389 177Q389 262 450.5 323.0Q512 384 600 384Q688 384 748.5 323.0Q809 262 809 177Q809 91 748.5 28.5Q688 -34 600 -34Q512 -34 450.5 28.5Q389 91 389 177Z"/><path fill="#54222f" transform="translate(829.6 630) scale(0.0102564 -0.0102564)" d="M456 1515V957Q589 1097 768 1097Q910 1097 985.0 1014.0Q1060 931 1060 780V0H744V692Q744 788 722.5 826.0Q701 864 642 864Q592 864 546.5 829.5Q501 795 456 735V0H140V1484Z"/><path fill="#54222f" transform="translate(841.8 630) scale(0.0102564 -0.0102564)" d="M600 1097Q764 1097 879.0 1027.0Q994 957 1055.0 830.5Q1116 704 1116 534Q1116 268 980.0 117.0Q844 -34 600 -34Q356 -34 220.0 115.0Q84 264 84 532Q84 701 145.5 828.0Q207 955 322.5 1026.0Q438 1097 600 1097ZM600 864Q503 864 456.5 784.5Q410 705 410 532Q410 356 456.5 277.0Q503 198 600 198Q697 198 743.5 277.0Q790 356 790 534Q790 706 743.5 785.0Q697 864 600 864Z"/><path fill="#54222f" transform="translate(854 630) scale(0.0102564 -0.0102564)" d="M566 192Q645 192 693.5 217.0Q742 242 742 292Q742 326 723.0 349.0Q704 372 650.0 393.0Q596 414 490 443Q344 482 252.5 555.0Q161 628 161 769Q161 911 279.5 1004.0Q398 1097 622 1097Q764 1097 869.5 1060.5Q975 1024 1052 968L926 782Q860 823 784.0 847.5Q708 872 631 872Q479 872 479 790Q479 763 498.5 743.5Q518 724 572.0 703.5Q626 683 730 653Q833 624 909.5 586.0Q986 548 1028.0 484.5Q1070 421 1070 317Q1070 201 1001.0 122.5Q932 44 818.0 5.0Q704 -34 568 -34Q414 -34 296.0 10.0Q178 54 95 126L254 304Q316 256 394.5 224.0Q473 192 566 192Z"/><path fill="#54222f" transform="translate(866.2 630) scale(0.0102564 -0.0102564)" d="M1096 62Q1034 22 946.0 -6.0Q858 -34 748 -34Q540 -34 439.0 72.5Q338 179 338 362V844H115V1062H338V1292L654 1330V1062H996L965 844H654V362Q654 283 690.0 249.0Q726 215 805 215Q861 215 907.5 228.5Q954 242 991 263Z"/><path fill="#646464" transform="translate(890.6 630) scale(0.0102564 -0.0102564)" d="M1035 137V0H240V137H579V1195L263 1003L190 1123L600 1377H747V137Z"/><path fill="#646464" transform="translate(902.8 630) scale(0.0102564 -0.0102564)" d="M1035 137V0H240V137H579V1195L263 1003L190 1123L600 1377H747V137Z"/><path fill="#646464" transform="translate(915 630) scale(0.0102564 -0.0102564)" d="M437 861Q437 928 483.5 975.0Q530 1022 598 1022Q668 1022 714.5 975.0Q761 928 761 861Q761 794 714.5 746.0Q668 698 598 698Q530 698 483.5 746.0Q437 794 437 861ZM437 140Q437 205 483.5 253.0Q530 301 598 301Q668 301 714.5 253.0Q761 205 761 140Q761 72 714.5 24.5Q668 -23 598 -23Q530 -23 483.5 24.5Q437 72 437 140Z"/><path fill="#646464" transform="translate(927.2 630) scale(0.0102564 -0.0102564)" d="M537 1399Q667 1399 762.0 1352.0Q857 1305 908.5 1227.0Q960 1149 960 1055Q960 971 923.0 903.5Q886 836 825.0 792.0Q764 748 691 734Q772 728 843.5 688.5Q915 649 959.5 576.0Q1004 503 1004 397Q1004 278 944.0 182.5Q884 87 776.5 32.0Q669 -23 526 -23Q410 -23 296.0 21.0Q182 65 103 161L216 253Q275 184 356.5 150.0Q438 116 522 116Q666 116 747.0 191.5Q828 267 828 397Q828 544 746.5 601.0Q665 658 543 658H427L448 791H529Q596 791 655.5 817.0Q715 843 753.0 896.0Q791 949 791 1031Q791 1145 715.0 1205.0Q639 1265 531 1265Q441 1265 374.0 1233.5Q307 1202 239 1138L146 1241Q234 1324 333.0 1361.5Q432 1399 537 1399Z"/><path fill="#646464" transform="translate(939.4 630) scale(0.0102564 -0.0102564)" d="M537 1399Q667 1399 762.0 1352.0Q857 1305 908.5 1227.0Q960 1149 960 1055Q960 971 923.0 903.5Q886 836 825.0 792.0Q764 748 691 734Q772 728 843.5 688.5Q915 649 959.5 576.0Q1004 503 1004 397Q1004 278 944.0 182.5Q884 87 776.5 32.0Q669 -23 526 -23Q410 -23 296.0 21.0Q182 65 103 161L216 253Q275 184 356.5 150.0Q438 116 522 116Q666 116 747.0 191.5Q828 267 828 397Q828 544 746.5 601.0Q665 658 543 658H427L448 791H529Q596 791 655.5 817.0Q715 843 753.0 896.0Q791 949 791 1031Q791 1145 715.0 1205.0Q639 1265 531 1265Q441 1265 374.0 1233.5Q307 1202 239 1138L146 1241Q234 1324 333.0 1361.5Q432 1399 537 1399Z"/><path fill="#646464" transform="translate(963.8 630) scale(0.0102564 -0.0102564)" d="M539 1399Q669 1399 762.0 1348.5Q855 1298 904.5 1211.0Q954 1124 954 1015Q954 920 921.0 829.5Q888 739 815.5 639.5Q743 540 625.0 419.0Q507 298 337 143H986L965 0H146V137Q341 324 464.5 453.0Q588 582 656.0 675.5Q724 769 750.5 847.0Q777 925 777 1009Q777 1125 712.0 1192.0Q647 1259 531 1259Q429 1259 364.0 1224.0Q299 1189 234 1112L118 1202Q200 1302 299.5 1350.5Q399 1399 539 1399Z"/><path fill="#646464" transform="translate(976 630) scale(0.0102564 -0.0102564)" d="M600 1399Q822 1399 936.5 1215.0Q1051 1031 1051 689Q1051 346 936.5 161.5Q822 -23 600 -23Q378 -23 263.5 161.5Q149 346 149 689Q149 1031 263.5 1215.0Q378 1399 600 1399ZM600 1264Q473 1264 400.0 1129.5Q327 995 327 689Q327 460 362 329L783 1175Q720 1264 600 1264ZM874 689Q874 920 838 1050L419 201Q482 113 600 113Q728 113 801.0 248.0Q874 383 874 689Z"/><path fill="#646464" transform="translate(988.2 630) scale(0.0102564 -0.0102564)" d="M539 1399Q669 1399 762.0 1348.5Q855 1298 904.5 1211.0Q954 1124 954 1015Q954 920 921.0 829.5Q888 739 815.5 639.5Q743 540 625.0 419.0Q507 298 337 143H986L965 0H146V137Q341 324 464.5 453.0Q588 582 656.0 675.5Q724 769 750.5 847.0Q777 925 777 1009Q777 1125 712.0 1192.0Q647 1259 531 1259Q429 1259 364.0 1224.0Q299 1189 234 1112L118 1202Q200 1302 299.5 1350.5Q399 1399 539 1399Z"/><path fill="#646464" transform="translate(1000.4 630) scale(0.0102564 -0.0102564)" d="M671 1399Q750 1399 817.5 1378.5Q885 1358 943 1319L877 1205Q781 1263 668 1263Q509 1263 421.0 1113.0Q333 963 327 711Q393 809 475.5 853.0Q558 897 659 897Q765 897 854.0 849.5Q943 802 996.0 706.0Q1049 610 1049 463Q1049 311 990.5 202.0Q932 93 833.5 35.0Q735 -23 616 -23Q449 -23 348.5 60.0Q248 143 203.5 294.5Q159 446 159 651Q159 879 219.5 1047.0Q280 1215 395.0 1307.0Q510 1399 671 1399ZM633 759Q534 759 457.0 705.0Q380 651 329 564Q334 331 401.5 222.0Q469 113 615 113Q746 113 811.5 205.5Q877 298 877 459Q877 628 810.0 693.5Q743 759 633 759Z"/><path fill="#646464" transform="translate(1012.6 630) scale(0.0102564 -0.0102564)" d="M199 553V699H1001V553Z"/><path fill="#646464" transform="translate(1024.8 630) scale(0.0102564 -0.0102564)" d="M600 1399Q822 1399 936.5 1215.0Q1051 1031 1051 689Q1051 346 936.5 161.5Q822 -23 600 -23Q378 -23 263.5 161.5Q149 346 149 689Q149 1031 263.5 1215.0Q378 1399 600 1399ZM600 1264Q473 1264 400.0 1129.5Q327 995 327 689Q327 460 362 329L783 1175Q720 1264 600 1264ZM874 689Q874 920 838 1050L419 201Q482 113 600 113Q728 113 801.0 248.0Q874 383 874 689Z"/><path fill="#646464" transform="translate(1037 630) scale(0.0102564 -0.0102564)" d="M671 1399Q750 1399 817.5 1378.5Q885 1358 943 1319L877 1205Q781 1263 668 1263Q509 1263 421.0 1113.0Q333 963 327 711Q393 809 475.5 853.0Q558 897 659 897Q765 897 854.0 849.5Q943 802 996.0 706.0Q1049 610 1049 463Q1049 311 990.5 202.0Q932 93 833.5 35.0Q735 -23 616 -23Q449 -23 348.5 60.0Q248 143 203.5 294.5Q159 446 159 651Q159 879 219.5 1047.0Q280 1215 395.0 1307.0Q510 1399 671 1399ZM633 759Q534 759 457.0 705.0Q380 651 329 564Q334 331 401.5 222.0Q469 113 615 113Q746 113 811.5 205.5Q877 298 877 459Q877 628 810.0 693.5Q743 759 633 759Z"/><path fill="#646464" transform="translate(1049.2 630) scale(0.0102564 -0.0102564)" d="M199 553V699H1001V553Z"/><path fill="#646464" transform="translate(1061.4 630) scale(0.0102564 -0.0102564)" d="M539 1399Q669 1399 762.0 1348.5Q855 1298 904.5 1211.0Q954 1124 954 1015Q954 920 921.0 829.5Q888 739 815.5 639.5Q743 540 625.0 419.0Q507 298 337 143H986L965 0H146V137Q341 324 464.5 453.0Q588 582 656.0 675.5Q724 769 750.5 847.0Q777 925 777 1009Q777 1125 712.0 1192.0Q647 1259 531 1259Q429 1259 364.0 1224.0Q299 1189 234 1112L118 1202Q200 1302 299.5 1350.5Q399 1399 539 1399Z"/><path fill="#646464" transform="translate(1073.6 630) scale(0.0102564 -0.0102564)" d="M537 1399Q667 1399 762.0 1352.0Q857 1305 908.5 1227.0Q960 1149 960 1055Q960 971 923.0 903.5Q886 836 825.0 792.0Q764 748 691 734Q772 728 843.5 688.5Q915 649 959.5 576.0Q1004 503 1004 397Q1004 278 944.0 182.5Q884 87 776.5 32.0Q669 -23 526 -23Q410 -23 296.0 21.0Q182 65 103 161L216 253Q275 184 356.5 150.0Q438 116 522 116Q666 116 747.0 191.5Q828 267 828 397Q828 544 746.5 601.0Q665 658 543 658H427L448 791H529Q596 791 655.5 817.0Q715 843 753.0 896.0Q791 949 791 1031Q791 1145 715.0 1205.0Q639 1265 531 1265Q441 1265 374.0 1233.5Q307 1202 239 1138L146 1241Q234 1324 333.0 1361.5Q432 1399 537 1399Z"/>
    </g>
    </g>
</svg>
