<svg class="rich-terminal" viewBox="0 0 1238 782.0" xmlns="http://www.w3.org/2000/svg">
    <!-- Generated with Rich https://www.textualize.io -->
    <style>

    @font-face {
        font-family: "Fira Code";
        src: local("FiraCode-Regular"),
                url("https://cdnjs.cloudflare.com/ajax/libs/firacode/6.2.0/woff2/FiraCode-Regular.woff2") format("woff2"),
                url("https://cdnjs.cloudflare.com/ajax/libs/firacode/6.2.0/woff/FiraCode-Regular.woff") format("woff");
        font-style: normal;
        font-weight: 400;
    }
    @font-face {
        font-family: "Fira Code";
        src: local("FiraCode-Bold"),
                url("https://cdnjs.cloudflare.com/ajax/libs/firacode/6.2.0/woff2/FiraCode-Bold.woff2") format("woff2"),
                url("https://cdnjs.cloudflare.com/ajax/libs/firacode/6.2.0/woff/FiraCode-Bold.woff") format("woff");
        font-style: bold;
        font-weight: 700;
    }

    .terminal-1254338098-matrix {
        font-family: Fira Code, monospace;
        font-size: 20px;
        line-height: 24.4px;
        font-variant-east-asian: full-width;
    }

    .terminal-1254338098-title {
        font-size: 18px;
        font-weight: bold;
        font-family: arial;
    }

    .terminal-1254338098-r1 { fill: #3b3b3b }
.terminal-1254338098-r2 { fill: #353532;font-weight: bold }
.terminal-1254338098-r3 { fill: #131313;font-weight: bold }
.terminal-1254338098-r4 { fill: #c5c8c6 }
.terminal-1254338098-r5 { fill: #0e1921 }
.terminal-1254338098-r6 { fill: #fea62b }
.terminal-1254338098-r7 { fill: #1f1f1f }
.terminal-1254338098-r8 { fill: #fea62b;font-weight: bold }
.terminal-1254338098-r9 { fill: #f5e5e9;font-weight: bold }
.terminal-1254338098-r10 { fill: #1a1a1a }
.terminal-1254338098-r11 { fill: #e0e0e0 }
.terminal-1254338098-r12 { fill: #151515 }
.terminal-1254338098-r13 { fill: #ddedf9;font-weight: bold }
.terminal-1254338098-r14 { fill: #252525 }
.terminal-1254338098-r15 { fill: #1b1b1b }
.terminal-1254338098-r16 { fill: #211a1a }
.terminal-1254338098-r17 { fill: #1e1e1e }
.terminal-1254338098-r18 { fill: #191919 }
.terminal-1254338098-r19 { fill: #331a20;font-weight: bold }
    </style>

    <defs>
    <clipPath id="terminal-1254338098-clip-terminal">
      <rect x="0" y="0" width="1219.0" height="731.0" />
    </clipPath>
    <clipPath id="terminal-1254338098-line-0">
    <rect x="0" y="1.5" width="1220" height="24.65"/>
            </clipPath>
<clipPath id="terminal-1254338098-line-1">
    <rect x="0" y="25.9" width="1220" height="24.65"/>
            </clipPath>
<clipPath id="terminal-1254338098-line-2">
    <rect x="0" y="50.3" width="1220" height="24.65"/>
            </clipPath>
<clipPath id="terminal-1254338098-line-3">
    <rect x="0" y="74.7" width="1220" height="24.65"/>
            </clipPath>
<clipPath id="terminal-1254338098-line-4">
    <rect x="0" y="99.1" width="1220" height="24.65"/>
            </clipPath>
<clipPath id="terminal-1254338098-line-5">
    <rect x="0" y="123.5" width="1220" height="24.65"/>
            </clipPath>
<clipPath id="terminal-1254338098-line-6">
    <rect x="0" y="147.9" width="1220" height="24.65"/>
            </clipPath>
<clipPath id="terminal-1254338098-line-7">
    <rect x="0" y="172.3" width="1220" height="24.65"/>
            </clipPath>
<clipPath id="terminal-1254338098-line-8">
    <rect x="0" y="196.7" width="1220" height="24.65"/>
            </clipPath>
<clipPath id="terminal-1254338098-line-9">
    <rect x="0" y="221.1" width="1220" height="24.65"/>
            </clipPath>
<clipPath id="terminal-1254338098-line-10">
    <rect x="0" y="245.5" width="1220" height="24.65"/>
            </clipPath>
<clipPath id="terminal-1254338098-line-11">
    <rect x="0" y="269.9" width="1220" height="24.65"/>
            </clipPath>
<clipPath id="terminal-1254338098-line-12">
    <rect x="0" y="294.3" width="1220" height="24.65"/>
            </clipPath>
<clipPath id="terminal-1254338098-line-13">
    <rect x="0" y="318.7" width="1220" height="24.65"/>
            </clipPath>
<clipPath id="terminal-1254338098-line-14">
    <rect x="0" y="343.1" width="1220" height="24.65"/>
            </clipPath>
<clipPath id="terminal-1254338098-line-15">
    <rect x="0" y="367.5" width="1220" height="24.65"/>
            </clipPath>
<clipPath id="terminal-1254338098-line-16">
    <rect x="0" y="391.9" width="1220" height="24.65"/>
            </clipPath>
<clipPath id="terminal-1254338098-line-17">
    <rect x="0" y="416.3" width="1220" height="24.65"/>
            </clipPath>
<clipPath id="terminal-1254338098-line-18">
    <rect x="0" y="440.7" width="1220" height="24.65"/>
            </clipPath>
<clipPath id="terminal-1254338098-line-19">
    <rect x="0" y="465.1" width="1220" height="24.65"/>
            </clipPath>
<clipPath id="terminal-1254338098-line-20">
    <rect x="0" y="489.5" width="1220" height="24.65"/>
            </clipPath>
<clipPath id="terminal-1254338098-line-21">
    <rect x="0" y="513.9" width="1220" height="24.65"/>
            </clipPath>
<clipPath id="terminal-1254338098-line-22">
    <rect x="0" y="538.3" width="1220" height="24.65"/>
            </clipPath>
<clipPath id="terminal-1254338098-line-23">
    <rect x="0" y="562.7" width="1220" height="24.65"/>
            </clipPath>
<clipPath id="terminal-1254338098-line-24">
    <rect x="0" y="587.1" width="1220" height="24.65"/>
            </clipPath>
<clipPath id="terminal-1254338098-line-25">
    <rect x="0" y="611.5" width="1220" height="24.65"/>
            </clipPath>
<clipPath id="terminal-1254338098-line-26">
    <rect x="0" y="635.9" width="1220" height="24.65"/>
            </clipPath>
<clipPath id="terminal-1254338098-line-27">
    <rect x="0" y="660.3" width="1220" height="24.65"/>
            </clipPath>
<clipPath id="terminal-1254338098-line-28">
    <rect x="0" y="684.7" width="1220" height="24.65"/>
            </clipPath>
    </defs>

    <rect fill="#292929" stroke="rgba(255,255,255,0.35)" stroke-width="1" x="1" y="1" width="1236" height="780" rx="8"/><text class="terminal-1254338098-title" fill="#c5c8c6" text-anchor="middle" x="618" y="27">PytmuxApp</text>
            <g transform="translate(26,22)">
            <circle cx="0" cy="0" r="7" fill="#ff5f57"/>
            <circle cx="22" cy="0" r="7" fill="#febc2e"/>
            <circle cx="44" cy="0" r="7" fill="#28c840"/>
            </g>
        
    <g transform="translate(9, 41)" clip-path="url(#terminal-1254338098-clip-terminal)">
    <rect fill="#121212" x="0" y="1.5" width="12.2" height="24.65" shape-rendering="crispEdges"/><rect fill="#0e2638" x="12.2" y="1.5" width="146.4" height="24.65" shape-rendering="crispEdges"/><rect fill="#121212" x="158.6" y="1.5" width="24.4" height="24.65" shape-rendering="crispEdges"/><rect fill="#1e3425" x="183" y="1.5" width="36.6" height="24.65" shape-rendering="crispEdges"/><rect fill="#121212" x="219.6" y="1.5" width="1000.4" height="24.65" shape-rendering="crispEdges"/><rect fill="#121212" x="0" y="25.9" width="12.2" height="24.65" shape-rendering="crispEdges"/><rect fill="#121212" x="12.2" y="25.9" width="12.2" height="24.65" shape-rendering="crispEdges"/><rect fill="#242f38" x="24.4" y="25.9" width="12.2" height="24.65" shape-rendering="crispEdges"/><rect fill="#242f38" x="36.6" y="25.9" width="1146.8" height="24.65" shape-rendering="crispEdges"/><rect fill="#242f38" x="1183.4" y="25.9" width="12.2" height="24.65" shape-rendering="crispEdges"/><rect fill="#121212" x="1195.6" y="25.9" width="24.4" height="24.65" shape-rendering="crispEdges"/><rect fill="#121212" x="0" y="50.3" width="12.2" height="24.65" shape-rendering="crispEdges"/><rect fill="#0e151d" x="12.2" y="50.3" width="12.2" height="24.65" shape-rendering="crispEdges"/><rect fill="#242f38" x="24.4" y="50.3" width="12.2" height="24.65" shape-rendering="crispEdges"/><rect fill="#242f38" x="36.6" y="50.3" width="12.2" height="24.65" shape-rendering="crispEdges"/><rect fill="#242f38" x="48.8" y="50.3" width="305" height="24.65" shape-rendering="crispEdges"/><rect fill="#242f38" x="353.8" y="50.3" width="756.4" height="24.65" shape-rendering="crispEdges"/><rect fill="#b93c5b" x="1110.2" y="50.3" width="12.2" height="24.65" shape-rendering="crispEdges"/><rect fill="#b93c5b" x="1122.4" y="50.3" width="36.6" height="24.65" shape-rendering="crispEdges"/><rect fill="#b93c5b" x="1159" y="50.3" width="12.2" height="24.65" shape-rendering="crispEdges"/><rect fill="#242f38" x="1171.2" y="50.3" width="12.2" height="24.65" shape-rendering="crispEdges"/><rect fill="#242f38" x="1183.4" y="50.3" width="12.2" height="24.65" shape-rendering="crispEdges"/><rect fill="#1f1316" x="1195.6" y="50.3" width="12.2" height="24.65" shape-rendering="crispEdges"/><rect fill="#121212" x="1207.8" y="50.3" width="12.2" height="24.65" shape-rendering="crispEdges"/><rect fill="#121212" x="0" y="74.7" width="12.2" height="24.65" shape-rendering="crispEdges"/><rect fill="#121212" x="12.2" y="74.7" width="12.2" height="24.65" shape-rendering="crispEdges"/><rect fill="#242f38" x="24.4" y="74.7" width="12.2" height="24.65" shape-rendering="crispEdges"/><rect fill="#242f38" x="36.6" y="74.7" width="12.2" height="24.65" shape-rendering="crispEdges"/><rect fill="#272727" x="48.8" y="74.7" width="122" height="24.65" shape-rendering="crispEdges"/><rect fill="#272727" x="170.8" y="74.7" width="1000.4" height="24.65" shape-rendering="crispEdges"/><rect fill="#242f38" x="1171.2" y="74.7" width="12.2" height="24.65" shape-rendering="crispEdges"/><rect fill="#242f38" x="1183.4" y="74.7" width="12.2" height="24.65" shape-rendering="crispEdges"/><rect fill="#121212" x="1195.6" y="74.7" width="12.2" height="24.65" shape-rendering="crispEdges"/><rect fill="#121212" x="1207.8" y="74.7" width="12.2" height="24.65" shape-rendering="crispEdges"/><rect fill="#121212" x="0" y="99.1" width="12.2" height="24.65" shape-rendering="crispEdges"/><rect fill="#121212" x="12.2" y="99.1" width="12.2" height="24.65" shape-rendering="crispEdges"/><rect fill="#242f38" x="24.4" y="99.1" width="12.2" height="24.65" shape-rendering="crispEdges"/><rect fill="#242f38" x="36.6" y="99.1" width="12.2" height="24.65" shape-rendering="crispEdges"/><rect fill="#272727" x="48.8" y="99.1" width="524.6" height="24.65" shape-rendering="crispEdges"/><rect fill="#272727" x="573.4" y="99.1" width="597.8" height="24.65" shape-rendering="crispEdges"/><rect fill="#242f38" x="1171.2" y="99.1" width="12.2" height="24.65" shape-rendering="crispEdges"/><rect fill="#242f38" x="1183.4" y="99.1" width="12.2" height="24.65" shape-rendering="crispEdges"/><rect fill="#121212" x="1195.6" y="99.1" width="12.2" height="24.65" shape-rendering="crispEdges"/><rect fill="#121212" x="1207.8" y="99.1" width="12.2" height="24.65" shape-rendering="crispEdges"/><rect fill="#121212" x="0" y="123.5" width="12.2" height="24.65" shape-rendering="crispEdges"/><rect fill="#131313" x="12.2" y="123.5" width="12.2" height="24.65" shape-rendering="crispEdges"/><rect fill="#242f38" x="24.4" y="123.5" width="12.2" height="24.65" shape-rendering="crispEdges"/><rect fill="#242f38" x="36.6" y="123.5" width="12.2" height="24.65" shape-rendering="crispEdges"/><rect fill="#0178d4" x="48.8" y="123.5" width="353.8" height="24.65" shape-rendering="crispEdges"/><rect fill="#0178d4" x="402.6" y="123.5" width="768.6" height="24.65" shape-rendering="crispEdges"/><rect fill="#242f38" x="1171.2" y="123.5" width="12.2" height="24.65" shape-rendering="crispEdges"/><rect fill="#242f38" x="1183.4" y="123.5" width="12.2" height="24.65" shape-rendering="crispEdges"/><rect fill="#131313" x="1195.6" y="123.5" width="12.2" height="24.65" shape-rendering="crispEdges"/><rect fill="#121212" x="1207.8" y="123.5" width="12.2" height="24.65" shape-rendering="crispEdges"/><rect fill="#121212" x="0" y="147.9" width="12.2" height="24.65" shape-rendering="crispEdges"/><rect fill="#121212" x="12.2" y="147.9" width="12.2" height="24.65" shape-rendering="crispEdges"/><rect fill="#242f38" x="24.4" y="147.9" width="12.2" height="24.65" shape-rendering="crispEdges"/><rect fill="#242f38" x="36.6" y="147.9" width="12.2" height="24.65" shape-rendering="crispEdges"/><rect fill="#272727" x="48.8" y="147.9" width="292.8" height="24.65" shape-rendering="crispEdges"/><rect fill="#272727" x="341.6" y="147.9" width="829.6" height="24.65" shape-rendering="crispEdges"/><rect fill="#242f38" x="1171.2" y="147.9" width="12.2" height="24.65" shape-rendering="crispEdges"/><rect fill="#242f38" x="1183.4" y="147.9" width="12.2" height="24.65" shape-rendering="crispEdges"/><rect fill="#121212" x="1195.6" y="147.9" width="12.2" height="24.65" shape-rendering="crispEdges"/><rect fill="#121212" x="1207.8" y="147.9" width="12.2" height="24.65" shape-rendering="crispEdges"/><rect fill="#121212" x="0" y="172.3" width="12.2" height="24.65" shape-rendering="crispEdges"/><rect fill="#121212" x="12.2" y="172.3" width="12.2" height="24.65" shape-rendering="crispEdges"/><rect fill="#242f38" x="24.4" y="172.3" width="12.2" height="24.65" shape-rendering="crispEdges"/><rect fill="#242f38" x="36.6" y="172.3" width="12.2" height="24.65" shape-rendering="crispEdges"/><rect fill="#272727" x="48.8" y="172.3" width="244" height="24.65" shape-rendering="crispEdges"/><rect fill="#272727" x="292.8" y="172.3" width="878.4" height="24.65" shape-rendering="crispEdges"/><rect fill="#242f38" x="1171.2" y="172.3" width="12.2" height="24.65" shape-rendering="crispEdges"/><rect fill="#242f38" x="1183.4" y="172.3" width="12.2" height="24.65" shape-rendering="crispEdges"/><rect fill="#121212" x="1195.6" y="172.3" width="12.2" height="24.65" shape-rendering="crispEdges"/><rect fill="#121212" x="1207.8" y="172.3" width="12.2" height="24.65" shape-rendering="crispEdges"/><rect fill="#121212" x="0" y="196.7" width="12.2" height="24.65" shape-rendering="crispEdges"/><rect fill="#121212" x="12.2" y="196.7" width="12.2" height="24.65" shape-rendering="crispEdges"/><rect fill="#242f38" x="24.4" y="196.7" width="12.2" height="24.65" shape-rendering="crispEdges"/><rect fill="#242f38" x="36.6" y="196.7" width="1146.8" height="24.65" shape-rendering="crispEdges"/><rect fill="#242f38" x="1183.4" y="196.7" width="12.2" height="24.65" shape-rendering="crispEdges"/><rect fill="#121212" x="1195.6" y="196.7" width="12.2" height="24.65" shape-rendering="crispEdges"/><rect fill="#121212" x="1207.8" y="196.7" width="12.2" height="24.65" shape-rendering="crispEdges"/><rect fill="#121212" x="0" y="221.1" width="12.2" height="24.65" shape-rendering="crispEdges"/><rect fill="#121212" x="12.2" y="221.1" width="12.2" height="24.65" shape-rendering="crispEdges"/><rect fill="#121212" x="24.4" y="221.1" width="1183.4" height="24.65" shape-rendering="crispEdges"/><rect fill="#121212" x="1207.8" y="221.1" width="12.2" height="24.65" shape-rendering="crispEdges"/><rect fill="#121212" x="0" y="245.5" width="12.2" height="24.65" shape-rendering="crispEdges"/><rect fill="#121212" x="12.2" y="245.5" width="1195.6" height="24.65" shape-rendering="crispEdges"/><rect fill="#121212" x="1207.8" y="245.5" width="12.2" height="24.65" shape-rendering="crispEdges"/><rect fill="#121212" x="0" y="269.9" width="12.2" height="24.65" shape-rendering="crispEdges"/><rect fill="#121212" x="12.2" y="269.9" width="1195.6" height="24.65" shape-rendering="crispEdges"/><rect fill="#121212" x="1207.8" y="269.9" width="12.2" height="24.65" shape-rendering="crispEdges"/><rect fill="#121212" x="0" y="294.3" width="12.2" height="24.65" shape-rendering="crispEdges"/><rect fill="#121212" x="12.2" y="294.3" width="1195.6" height="24.65" shape-rendering="crispEdges"/><rect fill="#121212" x="1207.8" y="294.3" width="12.2" height="24.65" shape-rendering="crispEdges"/><rect fill="#121212" x="0" y="318.7" width="12.2" height="24.65" shape-rendering="crispEdges"/><rect fill="#121212" x="12.2" y="318.7" width="1195.6" height="24.65" shape-rendering="crispEdges"/><rect fill="#121212" x="1207.8" y="318.7" width="12.2" height="24.65" shape-rendering="crispEdges"/><rect fill="#121212" x="0" y="343.1" width="12.2" height="24.65" shape-rendering="crispEdges"/><rect fill="#121212" x="12.2" y="343.1" width="1195.6" height="24.65" shape-rendering="crispEdges"/><rect fill="#121212" x="1207.8" y="343.1" width="12.2" height="24.65" shape-rendering="crispEdges"/><rect fill="#121212" x="0" y="367.5" width="12.2" height="24.65" shape-rendering="crispEdges"/><rect fill="#121212" x="12.2" y="367.5" width="12.2" height="24.65" shape-rendering="crispEdges"/><rect fill="#121212" x="24.4" y="367.5" width="12.2" height="24.65" shape-rendering="crispEdges"/><rect fill="#121212" x="36.6" y="367.5" width="158.6" height="24.65" shape-rendering="crispEdges"/><rect fill="#121212" x="195.2" y="367.5" width="1012.6" height="24.65" shape-rendering="crispEdges"/><rect fill="#121212" x="1207.8" y="367.5" width="12.2" height="24.65" shape-rendering="crispEdges"/><rect fill="#121212" x="0" y="391.9" width="12.2" height="24.65" shape-rendering="crispEdges"/><rect fill="#121212" x="12.2" y="391.9" width="1195.6" height="24.65" shape-rendering="crispEdges"/><rect fill="#121212" x="1207.8" y="391.9" width="12.2" height="24.65" shape-rendering="crispEdges"/><rect fill="#121212" x="0" y="416.3" width="12.2" height="24.65" shape-rendering="crispEdges"/><rect fill="#131313" x="12.2" y="416.3" width="24.4" height="24.65" shape-rendering="crispEdges"/><rect fill="#131313" x="36.6" y="416.3" width="305" height="24.65" shape-rendering="crispEdges"/><rect fill="#131313" x="341.6" y="416.3" width="866.2" height="24.65" shape-rendering="crispEdges"/><rect fill="#121212" x="1207.8" y="416.3" width="12.2" height="24.65" shape-rendering="crispEdges"/><rect fill="#121212" x="0" y="440.7" width="12.2" height="24.65" shape-rendering="crispEdges"/><rect fill="#121212" x="12.2" y="440.7" width="1195.6" height="24.65" shape-rendering="crispEdges"/><rect fill="#121212" x="1207.8" y="440.7" width="12.2" height="24.65" shape-rendering="crispEdges"/><rect fill="#121212" x="0" y="465.1" width="12.2" height="24.65" shape-rendering="crispEdges"/><rect fill="#121212" x="12.2" y="465.1" width="12.2" height="24.65" shape-rendering="crispEdges"/><rect fill="#121212" x="24.4" y="465.1" width="109.8" height="24.65" shape-rendering="crispEdges"/><rect fill="#121212" x="134.2" y="465.1" width="12.2" height="24.65" shape-rendering="crispEdges"/><rect fill="#121212" x="146.4" y="465.1" width="1061.4" height="24.65" shape-rendering="crispEdges"/><rect fill="#121212" x="1207.8" y="465.1" width="12.2" height="24.65" shape-rendering="crispEdges"/><rect fill="#121212" x="0" y="489.5" width="12.2" height="24.65" shape-rendering="crispEdges"/><rect fill="#121212" x="12.2" y="489.5" width="1195.6" height="24.65" shape-rendering="crispEdges"/><rect fill="#121212" x="1207.8" y="489.5" width="12.2" height="24.65" shape-rendering="crispEdges"/><rect fill="#121212" x="0" y="513.9" width="12.2" height="24.65" shape-rendering="crispEdges"/><rect fill="#121212" x="12.2" y="513.9" width="12.2" height="24.65" shape-rendering="crispEdges"/><rect fill="#121212" x="24.4" y="513.9" width="12.2" height="24.65" shape-rendering="crispEdges"/><rect fill="#121212" x="36.6" y="513.9" width="146.4" height="24.65" shape-rendering="crispEdges"/><rect fill="#121212" x="183" y="513.9" width="85.4" height="24.65" shape-rendering="crispEdges"/><rect fill="#121212" x="268.4" y="513.9" width="12.2" height="24.65" shape-rendering="crispEdges"/><rect fill="#121212" x="280.6" y="513.9" width="146.4" height="24.65" shape-rendering="crispEdges"/><rect fill="#121212" x="427" y="513.9" width="97.6" height="24.65" shape-rendering="crispEdges"/><rect fill="#121212" x="524.6" y="513.9" width="12.2" height="24.65" shape-rendering="crispEdges"/><rect fill="#121212" x="536.8" y="513.9" width="671" height="24.65" shape-rendering="crispEdges"/><rect fill="#121212" x="1207.8" y="513.9" width="12.2" height="24.65" shape-rendering="crispEdges"/><rect fill="#121212" x="0" y="538.3" width="12.2" height="24.65" shape-rendering="crispEdges"/><rect fill="#121212" x="12.2" y="538.3" width="1012.6" height="24.65" shape-rendering="crispEdges"/><rect fill="#121212" x="1024.8" y="538.3" width="183" height="24.65" shape-rendering="crispEdges"/><rect fill="#121212" x="1207.8" y="538.3" width="12.2" height="24.65" shape-rendering="crispEdges"/><rect fill="#121212" x="0" y="562.7" width="12.2" height="24.65" shape-rendering="crispEdges"/><rect fill="#121212" x="12.2" y="562.7" width="1195.6" height="24.65" shape-rendering="crispEdges"/><rect fill="#121212" x="1207.8" y="562.7" width="12.2" height="24.65" shape-rendering="crispEdges"/><rect fill="#121212" x="0" y="587.1" width="12.2" height="24.65" shape-rendering="crispEdges"/><rect fill="#121212" x="12.2" y="587.1" width="1195.6" height="24.65" shape-rendering="crispEdges"/><rect fill="#121212" x="1207.8" y="587.1" width="12.2" height="24.65" shape-rendering="crispEdges"/><rect fill="#121212" x="0" y="611.5" width="12.2" height="24.65" shape-rendering="crispEdges"/><rect fill="#121212" x="12.2" y="611.5" width="24.4" height="24.65" shape-rendering="crispEdges"/><rect fill="#121212" x="36.6" y="611.5" width="12.2" height="24.65" shape-rendering="crispEdges"/><rect fill="#121212" x="48.8" y="611.5" width="1159" height="24.65" shape-rendering="crispEdges"/><rect fill="#121212" x="1207.8" y="611.5" width="12.2" height="24.65" shape-rendering="crispEdges"/><rect fill="#121212" x="0" y="635.9" width="12.2" height="24.65" shape-rendering="crispEdges"/><rect fill="#121212" x="12.2" y="635.9" width="1195.6" height="24.65" shape-rendering="crispEdges"/><rect fill="#121212" x="1207.8" y="635.9" width="12.2" height="24.65" shape-rendering="crispEdges"/><rect fill="#121212" x="0" y="660.3" width="12.2" height="24.65" shape-rendering="crispEdges"/><rect fill="#121212" x="12.2" y="660.3" width="24.4" height="24.65" shape-rendering="crispEdges"/><rect fill="#121212" x="36.6" y="660.3" width="195.2" height="24.65" shape-rendering="crispEdges"/><rect fill="#121212" x="231.8" y="660.3" width="976" height="24.65" shape-rendering="crispEdges"/><rect fill="#121212" x="1207.8" y="660.3" width="12.2" height="24.65" shape-rendering="crispEdges"/><rect fill="#121212" x="0" y="684.7" width="1220" height="24.65" shape-rendering="crispEdges"/><rect fill="#121212" x="0" y="709.1" width="12.2" height="24.65" shape-rendering="crispEdges"/><rect fill="#331a20" x="12.2" y="709.1" width="48.8" height="24.65" shape-rendering="crispEdges"/><rect fill="#0e1c26" x="61" y="709.1" width="366" height="24.65" shape-rendering="crispEdges"/><rect fill="#121212" x="427" y="709.1" width="390.4" height="24.65" shape-rendering="crispEdges"/><rect fill="#121212" x="817.4" y="709.1" width="12.2" height="24.65" shape-rendering="crispEdges"/><rect fill="#121212" x="829.6" y="709.1" width="170.8" height="24.65" shape-rendering="crispEdges"/><rect fill="#121212" x="1000.4" y="709.1" width="12.2" height="24.65" shape-rendering="crispEdges"/><rect fill="#121212" x="1012.6" y="709.1" width="61" height="24.65" shape-rendering="crispEdges"/><rect fill="#121212" x="1073.6" y="709.1" width="12.2" height="24.65" shape-rendering="crispEdges"/><rect fill="#121212" x="1085.8" y="709.1" width="122" height="24.65" shape-rendering="crispEdges"/><rect fill="#121212" x="1207.8" y="709.1" width="12.2" height="24.65" shape-rendering="crispEdges"/>
    <g class="terminal-1254338098-matrix">
    <text class="terminal-1254338098-r2" x="12.2" y="20" textLength="146.4" clip-path="url(#terminal-1254338098-line-0)">&#160;◐&#160;1:claude&#160;</text><text class="terminal-1254338098-r3" x="183" y="20" textLength="36.6" clip-path="url(#terminal-1254338098-line-0)">[+]</text><text class="terminal-1254338098-r4" x="1220" y="20" textLength="12.2" clip-path="url(#terminal-1254338098-line-0)">
</text><text class="terminal-1254338098-r5" x="0" y="44.4" textLength="12.2" clip-path="url(#terminal-1254338098-line-1)">┌</text><text class="terminal-1254338098-r5" x="12.2" y="44.4" textLength="12.2" clip-path="url(#terminal-1254338098-line-1)">▀</text><text class="terminal-1254338098-r6" x="24.4" y="44.4" textLength="12.2" clip-path="url(#terminal-1254338098-line-1)">╭</text><text class="terminal-1254338098-r6" x="36.6" y="44.4" textLength="1146.8" clip-path="url(#terminal-1254338098-line-1)">──────────────────────────────────────────────────────────────────────────────────────────────</text><text class="terminal-1254338098-r6" x="1183.4" y="44.4" textLength="12.2" clip-path="url(#terminal-1254338098-line-1)">╮</text><text class="terminal-1254338098-r5" x="1195.6" y="44.4" textLength="24.4" clip-path="url(#terminal-1254338098-line-1)">─┐</text><text class="terminal-1254338098-r4" x="1220" y="44.4" textLength="12.2" clip-path="url(#terminal-1254338098-line-1)">
</text><text class="terminal-1254338098-r5" x="0" y="68.8" textLength="12.2" clip-path="url(#terminal-1254338098-line-2)">│</text><text class="terminal-1254338098-r6" x="24.4" y="68.8" textLength="12.2" clip-path="url(#terminal-1254338098-line-2)">│</text><text class="terminal-1254338098-r8" x="48.8" y="68.8" textLength="305" clip-path="url(#terminal-1254338098-line-2)">프롬프트&#160;히스토리(시간순)</text><text class="terminal-1254338098-r9" x="1122.4" y="68.8" textLength="36.6" clip-path="url(#terminal-1254338098-line-2)">[x]</text><text class="terminal-1254338098-r6" x="1183.4" y="68.8" textLength="12.2" clip-path="url(#terminal-1254338098-line-2)">│</text><text class="terminal-1254338098-r7" x="1195.6" y="68.8" textLength="12.2" clip-path="url(#terminal-1254338098-line-2)">]</text><text class="terminal-1254338098-r5" x="1207.8" y="68.8" textLength="12.2" clip-path="url(#terminal-1254338098-line-2)">│</text><text class="terminal-1254338098-r4" x="1220" y="68.8" textLength="12.2" clip-path="url(#terminal-1254338098-line-2)">
</text><text class="terminal-1254338098-r5" x="0" y="93.2" textLength="12.2" clip-path="url(#terminal-1254338098-line-3)">│</text><text class="terminal-1254338098-r6" x="24.4" y="93.2" textLength="12.2" clip-path="url(#terminal-1254338098-line-3)">│</text><text class="terminal-1254338098-r11" x="48.8" y="93.2" textLength="122" clip-path="url(#terminal-1254338098-line-3)">&#160;1.&#160;claude</text><text class="terminal-1254338098-r6" x="1183.4" y="93.2" textLength="12.2" clip-path="url(#terminal-1254338098-line-3)">│</text><text class="terminal-1254338098-r5" x="1207.8" y="93.2" textLength="12.2" clip-path="url(#terminal-1254338098-line-3)">│</text><text class="terminal-1254338098-r4" x="1220" y="93.2" textLength="12.2" clip-path="url(#terminal-1254338098-line-3)">
</text><text class="terminal-1254338098-r5" x="0" y="117.6" textLength="12.2" clip-path="url(#terminal-1254338098-line-4)">│</text><text class="terminal-1254338098-r6" x="24.4" y="117.6" textLength="12.2" clip-path="url(#terminal-1254338098-line-4)">│</text><text class="terminal-1254338098-r11" x="48.8" y="117.6" textLength="524.6" clip-path="url(#terminal-1254338098-line-4)">&#160;2.&#160;pytmux&#160;가&#160;무엇인지&#160;두&#160;문장으로&#160;설명해줘</text><text class="terminal-1254338098-r6" x="1183.4" y="117.6" textLength="12.2" clip-path="url(#terminal-1254338098-line-4)">│</text><text class="terminal-1254338098-r5" x="1207.8" y="117.6" textLength="12.2" clip-path="url(#terminal-1254338098-line-4)">│</text><text class="terminal-1254338098-r4" x="1220" y="117.6" textLength="12.2" clip-path="url(#terminal-1254338098-line-4)">
</text><text class="terminal-1254338098-r5" x="0" y="142" textLength="12.2" clip-path="url(#terminal-1254338098-line-5)">│</text><text class="terminal-1254338098-r12" x="12.2" y="142" textLength="12.2" clip-path="url(#terminal-1254338098-line-5)">·</text><text class="terminal-1254338098-r6" x="24.4" y="142" textLength="12.2" clip-path="url(#terminal-1254338098-line-5)">│</text><text class="terminal-1254338098-r13" x="48.8" y="142" textLength="353.8" clip-path="url(#terminal-1254338098-line-5)">&#160;3.&#160;스크롤백은&#160;어떻게&#160;보나요?</text><text class="terminal-1254338098-r6" x="1183.4" y="142" textLength="12.2" clip-path="url(#terminal-1254338098-line-5)">│</text><text class="terminal-1254338098-r5" x="1207.8" y="142" textLength="12.2" clip-path="url(#terminal-1254338098-line-5)">│</text><text class="terminal-1254338098-r4" x="1220" y="142" textLength="12.2" clip-path="url(#terminal-1254338098-line-5)">
</text><text class="terminal-1254338098-r5" x="0" y="166.4" textLength="12.2" clip-path="url(#terminal-1254338098-line-6)">│</text><text class="terminal-1254338098-r6" x="24.4" y="166.4" textLength="12.2" clip-path="url(#terminal-1254338098-line-6)">│</text><text class="terminal-1254338098-r11" x="48.8" y="166.4" textLength="292.8" clip-path="url(#terminal-1254338098-line-6)">────────────────────────</text><text class="terminal-1254338098-r6" x="1183.4" y="166.4" textLength="12.2" clip-path="url(#terminal-1254338098-line-6)">│</text><text class="terminal-1254338098-r5" x="1207.8" y="166.4" textLength="12.2" clip-path="url(#terminal-1254338098-line-6)">│</text><text class="terminal-1254338098-r4" x="1220" y="166.4" textLength="12.2" clip-path="url(#terminal-1254338098-line-6)">
</text><text class="terminal-1254338098-r5" x="0" y="190.8" textLength="12.2" clip-path="url(#terminal-1254338098-line-7)">│</text><text class="terminal-1254338098-r6" x="24.4" y="190.8" textLength="12.2" clip-path="url(#terminal-1254338098-line-7)">│</text><text class="terminal-1254338098-r11" x="48.8" y="190.8" textLength="244" clip-path="url(#terminal-1254338098-line-7)">&#160;&#160;[h]&#160;이&#160;헤더&#160;숨기기</text><text class="terminal-1254338098-r6" x="1183.4" y="190.8" textLength="12.2" clip-path="url(#terminal-1254338098-line-7)">│</text><text class="terminal-1254338098-r5" x="1207.8" y="190.8" textLength="12.2" clip-path="url(#terminal-1254338098-line-7)">│</text><text class="terminal-1254338098-r4" x="1220" y="190.8" textLength="12.2" clip-path="url(#terminal-1254338098-line-7)">
</text><text class="terminal-1254338098-r5" x="0" y="215.2" textLength="12.2" clip-path="url(#terminal-1254338098-line-8)">│</text><text class="terminal-1254338098-r6" x="24.4" y="215.2" textLength="12.2" clip-path="url(#terminal-1254338098-line-8)">╰</text><text class="terminal-1254338098-r6" x="36.6" y="215.2" textLength="1146.8" clip-path="url(#terminal-1254338098-line-8)">──────────────────────────────────────────────────────────────────────────────────────────────</text><text class="terminal-1254338098-r6" x="1183.4" y="215.2" textLength="12.2" clip-path="url(#terminal-1254338098-line-8)">╯</text><text class="terminal-1254338098-r5" x="1207.8" y="215.2" textLength="12.2" clip-path="url(#terminal-1254338098-line-8)">│</text><text class="terminal-1254338098-r4" x="1220" y="215.2" textLength="12.2" clip-path="url(#terminal-1254338098-line-8)">
</text><text class="terminal-1254338098-r5" x="0" y="239.6" textLength="12.2" clip-path="url(#terminal-1254338098-line-9)">│</text><text class="terminal-1254338098-r14" x="12.2" y="239.6" textLength="12.2" clip-path="url(#terminal-1254338098-line-9)">·</text><text class="terminal-1254338098-r10" x="24.4" y="239.6" textLength="1183.4" clip-path="url(#terminal-1254338098-line-9)">&#160;pytmux는&#160;Python과&#160;Textual&#160;(https://textual.textualize.io/)로&#160;만든&#160;tmux&#160;유사&#160;터미널&#160;멀티플렉서로,</text><text class="terminal-1254338098-r5" x="1207.8" y="239.6" textLength="12.2" clip-path="url(#terminal-1254338098-line-9)">│</text><text class="terminal-1254338098-r4" x="1220" y="239.6" textLength="12.2" clip-path="url(#terminal-1254338098-line-9)">
</text><text class="terminal-1254338098-r5" x="0" y="264" textLength="12.2" clip-path="url(#terminal-1254338098-line-10)">│</text><text class="terminal-1254338098-r10" x="12.2" y="264" textLength="1195.6" clip-path="url(#terminal-1254338098-line-10)">&#160;&#160;하나의&#160;터미널&#160;창&#160;안에서&#160;여러&#160;셸을&#160;패널과&#160;탭으로&#160;나눠&#160;쓸&#160;수&#160;있게&#160;해줍니다.&#160;셸&#160;PTY를&#160;백그라운드&#160;&#160;&#160;</text><text class="terminal-1254338098-r5" x="1207.8" y="264" textLength="12.2" clip-path="url(#terminal-1254338098-line-10)">│</text><text class="terminal-1254338098-r4" x="1220" y="264" textLength="12.2" clip-path="url(#terminal-1254338098-line-10)">
</text><text class="terminal-1254338098-r5" x="0" y="288.4" textLength="12.2" clip-path="url(#terminal-1254338098-line-11)">│</text><text class="terminal-1254338098-r10" x="12.2" y="288.4" textLength="1195.6" clip-path="url(#terminal-1254338098-line-11)">&#160;&#160;데몬이&#160;보유하기&#160;때문에&#160;앱을&#160;닫거나&#160;터미널&#160;창을&#160;닫아도(detach)&#160;셸&#160;세션이&#160;계속&#160;살아있고,&#160;다시&#160;&#160;&#160;&#160;&#160;</text><text class="terminal-1254338098-r5" x="1207.8" y="288.4" textLength="12.2" clip-path="url(#terminal-1254338098-line-11)">│</text><text class="terminal-1254338098-r4" x="1220" y="288.4" textLength="12.2" clip-path="url(#terminal-1254338098-line-11)">
</text><text class="terminal-1254338098-r5" x="0" y="312.8" textLength="12.2" clip-path="url(#terminal-1254338098-line-12)">│</text><text class="terminal-1254338098-r10" x="12.2" y="312.8" textLength="1195.6" clip-path="url(#terminal-1254338098-line-12)">&#160;&#160;실행하면&#160;이어서&#160;붙을&#160;수&#160;있으며,&#160;마우스와&#160;TUI&#160;메뉴를&#160;1급으로&#160;지원해&#160;단축키를&#160;외우지&#160;않아도&#160;거의&#160;&#160;</text><text class="terminal-1254338098-r5" x="1207.8" y="312.8" textLength="12.2" clip-path="url(#terminal-1254338098-line-12)">│</text><text class="terminal-1254338098-r4" x="1220" y="312.8" textLength="12.2" clip-path="url(#terminal-1254338098-line-12)">
</text><text class="terminal-1254338098-r5" x="0" y="337.2" textLength="12.2" clip-path="url(#terminal-1254338098-line-13)">│</text><text class="terminal-1254338098-r10" x="12.2" y="337.2" textLength="1195.6" clip-path="url(#terminal-1254338098-line-13)">&#160;&#160;모든&#160;동작을&#160;할&#160;수&#160;있습니다.&#160;&#160;&#160;&#160;&#160;&#160;&#160;&#160;&#160;&#160;&#160;&#160;&#160;&#160;&#160;&#160;&#160;&#160;&#160;&#160;&#160;&#160;&#160;&#160;&#160;&#160;&#160;&#160;&#160;&#160;&#160;&#160;&#160;&#160;&#160;&#160;&#160;&#160;&#160;&#160;&#160;&#160;&#160;&#160;&#160;&#160;&#160;&#160;&#160;&#160;&#160;&#160;&#160;&#160;&#160;&#160;&#160;&#160;&#160;&#160;&#160;&#160;&#160;&#160;&#160;&#160;&#160;&#160;&#160;</text><text class="terminal-1254338098-r5" x="1207.8" y="337.2" textLength="12.2" clip-path="url(#terminal-1254338098-line-13)">│</text><text class="terminal-1254338098-r4" x="1220" y="337.2" textLength="12.2" clip-path="url(#terminal-1254338098-line-13)">
</text><text class="terminal-1254338098-r5" x="0" y="361.6" textLength="12.2" clip-path="url(#terminal-1254338098-line-14)">│</text><text class="terminal-1254338098-r5" x="1207.8" y="361.6" textLength="12.2" clip-path="url(#terminal-1254338098-line-14)">│</text><text class="terminal-1254338098-r4" x="1220" y="361.6" textLength="12.2" clip-path="url(#terminal-1254338098-line-14)">
</text><text class="terminal-1254338098-r5" x="0" y="386" textLength="12.2" clip-path="url(#terminal-1254338098-line-15)">│</text><text class="terminal-1254338098-r15" x="12.2" y="386" textLength="12.2" clip-path="url(#terminal-1254338098-line-15)">·</text><text class="terminal-1254338098-r15" x="36.6" y="386" textLength="158.6" clip-path="url(#terminal-1254338098-line-15)">Baked&#160;for&#160;12s</text><text class="terminal-1254338098-r5" x="1207.8" y="386" textLength="12.2" clip-path="url(#terminal-1254338098-line-15)">│</text><text class="terminal-1254338098-r4" x="1220" y="386" textLength="12.2" clip-path="url(#terminal-1254338098-line-15)">
</text><text class="terminal-1254338098-r5" x="0" y="410.4" textLength="12.2" clip-path="url(#terminal-1254338098-line-16)">│</text><text class="terminal-1254338098-r5" x="1207.8" y="410.4" textLength="12.2" clip-path="url(#terminal-1254338098-line-16)">│</text><text class="terminal-1254338098-r4" x="1220" y="410.4" textLength="12.2" clip-path="url(#terminal-1254338098-line-16)">
</text><text class="terminal-1254338098-r5" x="0" y="434.8" textLength="12.2" clip-path="url(#terminal-1254338098-line-17)">│</text><text class="terminal-1254338098-r12" x="12.2" y="434.8" textLength="24.4" clip-path="url(#terminal-1254338098-line-17)">·&#160;</text><text class="terminal-1254338098-r14" x="36.6" y="434.8" textLength="305" clip-path="url(#terminal-1254338098-line-17)">스크롤백은&#160;어떻게&#160;보나요?</text><text class="terminal-1254338098-r5" x="1207.8" y="434.8" textLength="12.2" clip-path="url(#terminal-1254338098-line-17)">│</text><text class="terminal-1254338098-r4" x="1220" y="434.8" textLength="12.2" clip-path="url(#terminal-1254338098-line-17)">
</text><text class="terminal-1254338098-r5" x="0" y="459.2" textLength="12.2" clip-path="url(#terminal-1254338098-line-18)">│</text><text class="terminal-1254338098-r5" x="1207.8" y="459.2" textLength="12.2" clip-path="url(#terminal-1254338098-line-18)">│</text><text class="terminal-1254338098-r4" x="1220" y="459.2" textLength="12.2" clip-path="url(#terminal-1254338098-line-18)">
</text><text class="terminal-1254338098-r5" x="0" y="483.6" textLength="12.2" clip-path="url(#terminal-1254338098-line-19)">│</text><text class="terminal-1254338098-r15" x="12.2" y="483.6" textLength="12.2" clip-path="url(#terminal-1254338098-line-19)">·</text><text class="terminal-1254338098-r10" x="24.4" y="483.6" textLength="109.8" clip-path="url(#terminal-1254338098-line-19)">&#160;Running&#160;</text><text class="terminal-1254338098-r10" x="134.2" y="483.6" textLength="12.2" clip-path="url(#terminal-1254338098-line-19)">1</text><text class="terminal-1254338098-r10" x="146.4" y="483.6" textLength="1061.4" clip-path="url(#terminal-1254338098-line-19)">&#160;shell&#160;command…&#160;&#160;&#160;&#160;&#160;&#160;&#160;&#160;&#160;&#160;&#160;&#160;&#160;&#160;&#160;&#160;&#160;&#160;&#160;&#160;&#160;&#160;&#160;&#160;&#160;&#160;&#160;&#160;&#160;&#160;&#160;&#160;&#160;&#160;&#160;&#160;&#160;&#160;&#160;&#160;&#160;&#160;&#160;&#160;&#160;&#160;&#160;&#160;&#160;&#160;&#160;&#160;&#160;&#160;&#160;&#160;&#160;&#160;&#160;&#160;&#160;&#160;&#160;&#160;&#160;&#160;&#160;&#160;&#160;&#160;&#160;&#160;</text><text class="terminal-1254338098-r5" x="1207.8" y="483.6" textLength="12.2" clip-path="url(#terminal-1254338098-line-19)">│</text><text class="terminal-1254338098-r4" x="1220" y="483.6" textLength="12.2" clip-path="url(#terminal-1254338098-line-19)">
</text><text class="terminal-1254338098-r5" x="0" y="508" textLength="12.2" clip-path="url(#terminal-1254338098-line-20)">│</text><text class="terminal-1254338098-r5" x="1207.8" y="508" textLength="12.2" clip-path="url(#terminal-1254338098-line-20)">│</text><text class="terminal-1254338098-r4" x="1220" y="508" textLength="12.2" clip-path="url(#terminal-1254338098-line-20)">
</text><text class="terminal-1254338098-r5" x="0" y="532.4" textLength="12.2" clip-path="url(#terminal-1254338098-line-21)">│</text><text class="terminal-1254338098-r16" x="12.2" y="532.4" textLength="12.2" clip-path="url(#terminal-1254338098-line-21)">·</text><text class="terminal-1254338098-r16" x="36.6" y="532.4" textLength="146.4" clip-path="url(#terminal-1254338098-line-21)">Flummoxing…&#160;</text><text class="terminal-1254338098-r15" x="183" y="532.4" textLength="85.4" clip-path="url(#terminal-1254338098-line-21)">(2s&#160;·&#160;·</text><text class="terminal-1254338098-r15" x="280.6" y="532.4" textLength="146.4" clip-path="url(#terminal-1254338098-line-21)">79&#160;tokens&#160;·&#160;</text><text class="terminal-1254338098-r17" x="427" y="532.4" textLength="97.6" clip-path="url(#terminal-1254338098-line-21)">thinking</text><text class="terminal-1254338098-r15" x="524.6" y="532.4" textLength="12.2" clip-path="url(#terminal-1254338098-line-21)">)</text><text class="terminal-1254338098-r5" x="1207.8" y="532.4" textLength="12.2" clip-path="url(#terminal-1254338098-line-21)">│</text><text class="terminal-1254338098-r4" x="1220" y="532.4" textLength="12.2" clip-path="url(#terminal-1254338098-line-21)">
</text><text class="terminal-1254338098-r5" x="0" y="556.8" textLength="12.2" clip-path="url(#terminal-1254338098-line-22)">│</text><text class="terminal-1254338098-r15" x="12.2" y="556.8" textLength="1012.6" clip-path="url(#terminal-1254338098-line-22)">&#160;&#160;·&#160; Tip:&#160;Name&#160;your&#160;conversations&#160;with&#160;/rename&#160;to&#160;find&#160;them&#160;easily&#160;in&#160;/resume&#160;later</text><text class="terminal-1254338098-r5" x="1207.8" y="556.8" textLength="12.2" clip-path="url(#terminal-1254338098-line-22)">│</text><text class="terminal-1254338098-r4" x="1220" y="556.8" textLength="12.2" clip-path="url(#terminal-1254338098-line-22)">
</text><text class="terminal-1254338098-r5" x="0" y="581.2" textLength="12.2" clip-path="url(#terminal-1254338098-line-23)">│</text><text class="terminal-1254338098-r5" x="1207.8" y="581.2" textLength="12.2" clip-path="url(#terminal-1254338098-line-23)">│</text><text class="terminal-1254338098-r4" x="1220" y="581.2" textLength="12.2" clip-path="url(#terminal-1254338098-line-23)">
</text><text class="terminal-1254338098-r5" x="0" y="605.6" textLength="12.2" clip-path="url(#terminal-1254338098-line-24)">│</text><text class="terminal-1254338098-r18" x="12.2" y="605.6" textLength="1195.6" clip-path="url(#terminal-1254338098-line-24)">──────────────────────────────────────────────────────────────────────────────────────────────────</text><text class="terminal-1254338098-r5" x="1207.8" y="605.6" textLength="12.2" clip-path="url(#terminal-1254338098-line-24)">│</text><text class="terminal-1254338098-r4" x="1220" y="605.6" textLength="12.2" clip-path="url(#terminal-1254338098-line-24)">
</text><text class="terminal-1254338098-r5" x="0" y="630" textLength="12.2" clip-path="url(#terminal-1254338098-line-25)">│</text><text class="terminal-1254338098-r15" x="12.2" y="630" textLength="24.4" clip-path="url(#terminal-1254338098-line-25)">· </text><text class="terminal-1254338098-r5" x="1207.8" y="630" textLength="12.2" clip-path="url(#terminal-1254338098-line-25)">│</text><text class="terminal-1254338098-r4" x="1220" y="630" textLength="12.2" clip-path="url(#terminal-1254338098-line-25)">
</text><text class="terminal-1254338098-r5" x="0" y="654.4" textLength="12.2" clip-path="url(#terminal-1254338098-line-26)">│</text><text class="terminal-1254338098-r18" x="12.2" y="654.4" textLength="1195.6" clip-path="url(#terminal-1254338098-line-26)">──────────────────────────────────────────────────────────────────────────────────────────────────</text><text class="terminal-1254338098-r5" x="1207.8" y="654.4" textLength="12.2" clip-path="url(#terminal-1254338098-line-26)">│</text><text class="terminal-1254338098-r4" x="1220" y="654.4" textLength="12.2" clip-path="url(#terminal-1254338098-line-26)">
</text><text class="terminal-1254338098-r5" x="0" y="678.8" textLength="12.2" clip-path="url(#terminal-1254338098-line-27)">│</text><text class="terminal-1254338098-r15" x="36.6" y="678.8" textLength="195.2" clip-path="url(#terminal-1254338098-line-27)">esc&#160;to&#160;interrupt</text><text class="terminal-1254338098-r5" x="1207.8" y="678.8" textLength="12.2" clip-path="url(#terminal-1254338098-line-27)">│</text><text class="terminal-1254338098-r4" x="1220" y="678.8" textLength="12.2" clip-path="url(#terminal-1254338098-line-27)">
</text><text class="terminal-1254338098-r5" x="0" y="703.2" textLength="1220" clip-path="url(#terminal-1254338098-line-28)">└──────────────────────────────────────────────────────────────────────────────────────────────────┘</text><text class="terminal-1254338098-r4" x="1220" y="703.2" textLength="12.2" clip-path="url(#terminal-1254338098-line-28)">
</text><text class="terminal-1254338098-r2" x="12.2" y="727.6" textLength="48.8" clip-path="url(#terminal-1254338098-line-29)">REC&#160;</text><text class="terminal-1254338098-r2" x="61" y="727.6" textLength="366" clip-path="url(#terminal-1254338098-line-29)">&#160;opus-4.8&#160;·&#160;ctx:~0%/1M&#160;·&#160;Σ&#160;79&#160;</text><text class="terminal-1254338098-r19" x="829.6" y="727.6" textLength="170.8" clip-path="url(#terminal-1254338098-line-29)">ssh:playground</text><text class="terminal-1254338098-r1" x="1012.6" y="727.6" textLength="61" clip-path="url(#terminal-1254338098-line-29)">09:59</text><text class="terminal-1254338098-r1" x="1085.8" y="727.6" textLength="122" clip-path="url(#terminal-1254338098-line-29)">2026-06-07</text>
    </g>
    </g>
</svg>
