<svg class="rich-terminal" viewBox="0 0 1116 684.4" xmlns="http://www.w3.org/2000/svg">
    <!-- Generated with Rich https://www.textualize.io -->
    <style>

    @font-face {
        font-family: "Fira Code";
        src: local("FiraCode-Regular"),
                url("https://cdnjs.cloudflare.com/ajax/libs/firacode/6.2.0/woff2/FiraCode-Regular.woff2") format("woff2"),
                url("https://cdnjs.cloudflare.com/ajax/libs/firacode/6.2.0/woff/FiraCode-Regular.woff") format("woff");
        font-style: normal;
        font-weight: 400;
    }
    @font-face {
        font-family: "Fira Code";
        src: local("FiraCode-Bold"),
                url("https://cdnjs.cloudflare.com/ajax/libs/firacode/6.2.0/woff2/FiraCode-Bold.woff2") format("woff2"),
                url("https://cdnjs.cloudflare.com/ajax/libs/firacode/6.2.0/woff/FiraCode-Bold.woff") format("woff");
        font-style: bold;
        font-weight: 700;
    }

    .terminal-3443057598-matrix {
        font-family: Fira Code, monospace;
        font-size: 20px;
        line-height: 24.4px;
        font-variant-east-asian: full-width;
    }

    .terminal-3443057598-title {
        font-size: 18px;
        font-weight: bold;
        font-family: arial;
    }

    .terminal-3443057598-r1 { fill: #3b3b3b }
.terminal-3443057598-r2 { fill: #353532;font-weight: bold }
.terminal-3443057598-r3 { fill: #131313;font-weight: bold }
.terminal-3443057598-r4 { fill: #c5c8c6 }
.terminal-3443057598-r5 { fill: #0e1921 }
.terminal-3443057598-r6 { fill: #fea62b }
.terminal-3443057598-r7 { fill: #1a1a1a }
.terminal-3443057598-r8 { fill: #fea62b;font-weight: bold }
.terminal-3443057598-r9 { fill: #f5e5e9;font-weight: bold }
.terminal-3443057598-r10 { fill: #1f1f1f }
.terminal-3443057598-r11 { fill: #ddedf9;font-weight: bold }
.terminal-3443057598-r12 { fill: #e0e0e0 }
.terminal-3443057598-r13 { fill: #331a20;font-weight: bold }
    </style>

    <defs>
    <clipPath id="terminal-3443057598-clip-terminal">
      <rect x="0" y="0" width="1097.0" height="633.4" />
    </clipPath>
    <clipPath id="terminal-3443057598-line-0">
    <rect x="0" y="1.5" width="1098" height="24.65"/>
            </clipPath>
<clipPath id="terminal-3443057598-line-1">
    <rect x="0" y="25.9" width="1098" height="24.65"/>
            </clipPath>
<clipPath id="terminal-3443057598-line-2">
    <rect x="0" y="50.3" width="1098" height="24.65"/>
            </clipPath>
<clipPath id="terminal-3443057598-line-3">
    <rect x="0" y="74.7" width="1098" height="24.65"/>
            </clipPath>
<clipPath id="terminal-3443057598-line-4">
    <rect x="0" y="99.1" width="1098" height="24.65"/>
            </clipPath>
<clipPath id="terminal-3443057598-line-5">
    <rect x="0" y="123.5" width="1098" height="24.65"/>
            </clipPath>
<clipPath id="terminal-3443057598-line-6">
    <rect x="0" y="147.9" width="1098" height="24.65"/>
            </clipPath>
<clipPath id="terminal-3443057598-line-7">
    <rect x="0" y="172.3" width="1098" height="24.65"/>
            </clipPath>
<clipPath id="terminal-3443057598-line-8">
    <rect x="0" y="196.7" width="1098" height="24.65"/>
            </clipPath>
<clipPath id="terminal-3443057598-line-9">
    <rect x="0" y="221.1" width="1098" height="24.65"/>
            </clipPath>
<clipPath id="terminal-3443057598-line-10">
    <rect x="0" y="245.5" width="1098" height="24.65"/>
            </clipPath>
<clipPath id="terminal-3443057598-line-11">
    <rect x="0" y="269.9" width="1098" height="24.65"/>
            </clipPath>
<clipPath id="terminal-3443057598-line-12">
    <rect x="0" y="294.3" width="1098" height="24.65"/>
            </clipPath>
<clipPath id="terminal-3443057598-line-13">
    <rect x="0" y="318.7" width="1098" height="24.65"/>
            </clipPath>
<clipPath id="terminal-3443057598-line-14">
    <rect x="0" y="343.1" width="1098" height="24.65"/>
            </clipPath>
<clipPath id="terminal-3443057598-line-15">
    <rect x="0" y="367.5" width="1098" height="24.65"/>
            </clipPath>
<clipPath id="terminal-3443057598-line-16">
    <rect x="0" y="391.9" width="1098" height="24.65"/>
            </clipPath>
<clipPath id="terminal-3443057598-line-17">
    <rect x="0" y="416.3" width="1098" height="24.65"/>
            </clipPath>
<clipPath id="terminal-3443057598-line-18">
    <rect x="0" y="440.7" width="1098" height="24.65"/>
            </clipPath>
<clipPath id="terminal-3443057598-line-19">
    <rect x="0" y="465.1" width="1098" height="24.65"/>
            </clipPath>
<clipPath id="terminal-3443057598-line-20">
    <rect x="0" y="489.5" width="1098" height="24.65"/>
            </clipPath>
<clipPath id="terminal-3443057598-line-21">
    <rect x="0" y="513.9" width="1098" height="24.65"/>
            </clipPath>
<clipPath id="terminal-3443057598-line-22">
    <rect x="0" y="538.3" width="1098" height="24.65"/>
            </clipPath>
<clipPath id="terminal-3443057598-line-23">
    <rect x="0" y="562.7" width="1098" height="24.65"/>
            </clipPath>
<clipPath id="terminal-3443057598-line-24">
    <rect x="0" y="587.1" width="1098" height="24.65"/>
            </clipPath>
    </defs>

    <rect fill="#292929" stroke="rgba(255,255,255,0.35)" stroke-width="1" x="1" y="1" width="1114" height="682.4" rx="8"/><text class="terminal-3443057598-title" fill="#c5c8c6" text-anchor="middle" x="557" y="27">PytmuxApp</text>
            <g transform="translate(26,22)">
            <circle cx="0" cy="0" r="7" fill="#ff5f57"/>
            <circle cx="22" cy="0" r="7" fill="#febc2e"/>
            <circle cx="44" cy="0" r="7" fill="#28c840"/>
            </g>
        
    <g transform="translate(9, 41)" clip-path="url(#terminal-3443057598-clip-terminal)">
    <rect fill="#121212" x="0" y="1.5" width="12.2" height="24.65" shape-rendering="crispEdges"/><rect fill="#0e2638" x="12.2" y="1.5" width="85.4" height="24.65" shape-rendering="crispEdges"/><rect fill="#121212" x="97.6" y="1.5" width="24.4" height="24.65" shape-rendering="crispEdges"/><rect fill="#1e3425" x="122" y="1.5" width="36.6" height="24.65" shape-rendering="crispEdges"/><rect fill="#121212" x="158.6" y="1.5" width="939.4" height="24.65" shape-rendering="crispEdges"/><rect fill="#121212" x="0" y="25.9" width="12.2" height="24.65" shape-rendering="crispEdges"/><rect fill="#121212" x="12.2" y="25.9" width="85.4" height="24.65" shape-rendering="crispEdges"/><rect fill="#121212" x="97.6" y="25.9" width="48.8" height="24.65" shape-rendering="crispEdges"/><rect fill="#242f38" x="146.4" y="25.9" width="12.2" height="24.65" shape-rendering="crispEdges"/><rect fill="#242f38" x="158.6" y="25.9" width="780.8" height="24.65" shape-rendering="crispEdges"/><rect fill="#242f38" x="939.4" y="25.9" width="12.2" height="24.65" shape-rendering="crispEdges"/><rect fill="#121212" x="951.6" y="25.9" width="146.4" height="24.65" shape-rendering="crispEdges"/><rect fill="#121212" x="0" y="50.3" width="12.2" height="24.65" shape-rendering="crispEdges"/><rect fill="#121212" x="12.2" y="50.3" width="134.2" height="24.65" shape-rendering="crispEdges"/><rect fill="#242f38" x="146.4" y="50.3" width="12.2" height="24.65" shape-rendering="crispEdges"/><rect fill="#242f38" x="158.6" y="50.3" width="12.2" height="24.65" shape-rendering="crispEdges"/><rect fill="#242f38" x="170.8" y="50.3" width="292.8" height="24.65" shape-rendering="crispEdges"/><rect fill="#242f38" x="463.6" y="50.3" width="402.6" height="24.65" shape-rendering="crispEdges"/><rect fill="#b93c5b" x="866.2" y="50.3" width="12.2" height="24.65" shape-rendering="crispEdges"/><rect fill="#b93c5b" x="878.4" y="50.3" width="36.6" height="24.65" shape-rendering="crispEdges"/><rect fill="#b93c5b" x="915" y="50.3" width="12.2" height="24.65" shape-rendering="crispEdges"/><rect fill="#242f38" x="927.2" y="50.3" width="12.2" height="24.65" shape-rendering="crispEdges"/><rect fill="#242f38" x="939.4" y="50.3" width="12.2" height="24.65" shape-rendering="crispEdges"/><rect fill="#121212" x="951.6" y="50.3" width="97.6" height="24.65" shape-rendering="crispEdges"/><rect fill="#1f1316" x="1049.2" y="50.3" width="36.6" height="24.65" shape-rendering="crispEdges"/><rect fill="#121212" x="1085.8" y="50.3" width="12.2" height="24.65" shape-rendering="crispEdges"/><rect fill="#121212" x="0" y="74.7" width="12.2" height="24.65" shape-rendering="crispEdges"/><rect fill="#121212" x="12.2" y="74.7" width="134.2" height="24.65" shape-rendering="crispEdges"/><rect fill="#242f38" x="146.4" y="74.7" width="12.2" height="24.65" shape-rendering="crispEdges"/><rect fill="#242f38" x="158.6" y="74.7" width="12.2" height="24.65" shape-rendering="crispEdges"/><rect fill="#0178d4" x="170.8" y="74.7" width="378.2" height="24.65" shape-rendering="crispEdges"/><rect fill="#0178d4" x="549" y="74.7" width="378.2" height="24.65" shape-rendering="crispEdges"/><rect fill="#242f38" x="927.2" y="74.7" width="12.2" height="24.65" shape-rendering="crispEdges"/><rect fill="#242f38" x="939.4" y="74.7" width="12.2" height="24.65" shape-rendering="crispEdges"/><rect fill="#121212" x="951.6" y="74.7" width="134.2" height="24.65" shape-rendering="crispEdges"/><rect fill="#121212" x="1085.8" y="74.7" width="12.2" height="24.65" shape-rendering="crispEdges"/><rect fill="#121212" x="0" y="99.1" width="12.2" height="24.65" shape-rendering="crispEdges"/><rect fill="#121212" x="12.2" y="99.1" width="134.2" height="24.65" shape-rendering="crispEdges"/><rect fill="#242f38" x="146.4" y="99.1" width="12.2" height="24.65" shape-rendering="crispEdges"/><rect fill="#242f38" x="158.6" y="99.1" width="12.2" height="24.65" shape-rendering="crispEdges"/><rect fill="#272727" x="170.8" y="99.1" width="0" height="24.65" shape-rendering="crispEdges"/><rect fill="#272727" x="170.8" y="99.1" width="756.4" height="24.65" shape-rendering="crispEdges"/><rect fill="#242f38" x="927.2" y="99.1" width="12.2" height="24.65" shape-rendering="crispEdges"/><rect fill="#242f38" x="939.4" y="99.1" width="12.2" height="24.65" shape-rendering="crispEdges"/><rect fill="#121212" x="951.6" y="99.1" width="134.2" height="24.65" shape-rendering="crispEdges"/><rect fill="#121212" x="1085.8" y="99.1" width="12.2" height="24.65" shape-rendering="crispEdges"/><rect fill="#121212" x="0" y="123.5" width="12.2" height="24.65" shape-rendering="crispEdges"/><rect fill="#121212" x="12.2" y="123.5" width="134.2" height="24.65" shape-rendering="crispEdges"/><rect fill="#242f38" x="146.4" y="123.5" width="12.2" height="24.65" shape-rendering="crispEdges"/><rect fill="#242f38" x="158.6" y="123.5" width="12.2" height="24.65" shape-rendering="crispEdges"/><rect fill="#272727" x="170.8" y="123.5" width="536.8" height="24.65" shape-rendering="crispEdges"/><rect fill="#272727" x="707.6" y="123.5" width="219.6" height="24.65" shape-rendering="crispEdges"/><rect fill="#242f38" x="927.2" y="123.5" width="12.2" height="24.65" shape-rendering="crispEdges"/><rect fill="#242f38" x="939.4" y="123.5" width="12.2" height="24.65" shape-rendering="crispEdges"/><rect fill="#121212" x="951.6" y="123.5" width="134.2" height="24.65" shape-rendering="crispEdges"/><rect fill="#121212" x="1085.8" y="123.5" width="12.2" height="24.65" shape-rendering="crispEdges"/><rect fill="#121212" x="0" y="147.9" width="12.2" height="24.65" shape-rendering="crispEdges"/><rect fill="#121212" x="12.2" y="147.9" width="134.2" height="24.65" shape-rendering="crispEdges"/><rect fill="#242f38" x="146.4" y="147.9" width="12.2" height="24.65" shape-rendering="crispEdges"/><rect fill="#242f38" x="158.6" y="147.9" width="12.2" height="24.65" shape-rendering="crispEdges"/><rect fill="#272727" x="170.8" y="147.9" width="305" height="24.65" shape-rendering="crispEdges"/><rect fill="#272727" x="475.8" y="147.9" width="451.4" height="24.65" shape-rendering="crispEdges"/><rect fill="#242f38" x="927.2" y="147.9" width="12.2" height="24.65" shape-rendering="crispEdges"/><rect fill="#242f38" x="939.4" y="147.9" width="12.2" height="24.65" shape-rendering="crispEdges"/><rect fill="#121212" x="951.6" y="147.9" width="134.2" height="24.65" shape-rendering="crispEdges"/><rect fill="#121212" x="1085.8" y="147.9" width="12.2" height="24.65" shape-rendering="crispEdges"/><rect fill="#121212" x="0" y="172.3" width="12.2" height="24.65" shape-rendering="crispEdges"/><rect fill="#121212" x="12.2" y="172.3" width="134.2" height="24.65" shape-rendering="crispEdges"/><rect fill="#242f38" x="146.4" y="172.3" width="12.2" height="24.65" shape-rendering="crispEdges"/><rect fill="#242f38" x="158.6" y="172.3" width="12.2" height="24.65" shape-rendering="crispEdges"/><rect fill="#272727" x="170.8" y="172.3" width="378.2" height="24.65" shape-rendering="crispEdges"/><rect fill="#272727" x="549" y="172.3" width="378.2" height="24.65" shape-rendering="crispEdges"/><rect fill="#242f38" x="927.2" y="172.3" width="12.2" height="24.65" shape-rendering="crispEdges"/><rect fill="#242f38" x="939.4" y="172.3" width="12.2" height="24.65" shape-rendering="crispEdges"/><rect fill="#121212" x="951.6" y="172.3" width="134.2" height="24.65" shape-rendering="crispEdges"/><rect fill="#121212" x="1085.8" y="172.3" width="12.2" height="24.65" shape-rendering="crispEdges"/><rect fill="#121212" x="0" y="196.7" width="12.2" height="24.65" shape-rendering="crispEdges"/><rect fill="#121212" x="12.2" y="196.7" width="134.2" height="24.65" shape-rendering="crispEdges"/><rect fill="#242f38" x="146.4" y="196.7" width="12.2" height="24.65" shape-rendering="crispEdges"/><rect fill="#242f38" x="158.6" y="196.7" width="12.2" height="24.65" shape-rendering="crispEdges"/><rect fill="#272727" x="170.8" y="196.7" width="414.8" height="24.65" shape-rendering="crispEdges"/><rect fill="#272727" x="585.6" y="196.7" width="341.6" height="24.65" shape-rendering="crispEdges"/><rect fill="#242f38" x="927.2" y="196.7" width="12.2" height="24.65" shape-rendering="crispEdges"/><rect fill="#242f38" x="939.4" y="196.7" width="12.2" height="24.65" shape-rendering="crispEdges"/><rect fill="#121212" x="951.6" y="196.7" width="134.2" height="24.65" shape-rendering="crispEdges"/><rect fill="#121212" x="1085.8" y="196.7" width="12.2" height="24.65" shape-rendering="crispEdges"/><rect fill="#121212" x="0" y="221.1" width="12.2" height="24.65" shape-rendering="crispEdges"/><rect fill="#121212" x="12.2" y="221.1" width="134.2" height="24.65" shape-rendering="crispEdges"/><rect fill="#242f38" x="146.4" y="221.1" width="12.2" height="24.65" shape-rendering="crispEdges"/><rect fill="#242f38" x="158.6" y="221.1" width="12.2" height="24.65" shape-rendering="crispEdges"/><rect fill="#272727" x="170.8" y="221.1" width="463.6" height="24.65" shape-rendering="crispEdges"/><rect fill="#272727" x="634.4" y="221.1" width="292.8" height="24.65" shape-rendering="crispEdges"/><rect fill="#242f38" x="927.2" y="221.1" width="12.2" height="24.65" shape-rendering="crispEdges"/><rect fill="#242f38" x="939.4" y="221.1" width="12.2" height="24.65" shape-rendering="crispEdges"/><rect fill="#121212" x="951.6" y="221.1" width="134.2" height="24.65" shape-rendering="crispEdges"/><rect fill="#121212" x="1085.8" y="221.1" width="12.2" height="24.65" shape-rendering="crispEdges"/><rect fill="#121212" x="0" y="245.5" width="12.2" height="24.65" shape-rendering="crispEdges"/><rect fill="#121212" x="12.2" y="245.5" width="134.2" height="24.65" shape-rendering="crispEdges"/><rect fill="#242f38" x="146.4" y="245.5" width="12.2" height="24.65" shape-rendering="crispEdges"/><rect fill="#242f38" x="158.6" y="245.5" width="12.2" height="24.65" shape-rendering="crispEdges"/><rect fill="#272727" x="170.8" y="245.5" width="0" height="24.65" shape-rendering="crispEdges"/><rect fill="#272727" x="170.8" y="245.5" width="756.4" height="24.65" shape-rendering="crispEdges"/><rect fill="#242f38" x="927.2" y="245.5" width="12.2" height="24.65" shape-rendering="crispEdges"/><rect fill="#242f38" x="939.4" y="245.5" width="12.2" height="24.65" shape-rendering="crispEdges"/><rect fill="#121212" x="951.6" y="245.5" width="134.2" height="24.65" shape-rendering="crispEdges"/><rect fill="#121212" x="1085.8" y="245.5" width="12.2" height="24.65" shape-rendering="crispEdges"/><rect fill="#121212" x="0" y="269.9" width="12.2" height="24.65" shape-rendering="crispEdges"/><rect fill="#121212" x="12.2" y="269.9" width="134.2" height="24.65" shape-rendering="crispEdges"/><rect fill="#242f38" x="146.4" y="269.9" width="12.2" height="24.65" shape-rendering="crispEdges"/><rect fill="#242f38" x="158.6" y="269.9" width="12.2" height="24.65" shape-rendering="crispEdges"/><rect fill="#272727" x="170.8" y="269.9" width="744.2" height="24.65" shape-rendering="crispEdges"/><rect fill="#272727" x="915" y="269.9" width="12.2" height="24.65" shape-rendering="crispEdges"/><rect fill="#242f38" x="927.2" y="269.9" width="12.2" height="24.65" shape-rendering="crispEdges"/><rect fill="#242f38" x="939.4" y="269.9" width="12.2" height="24.65" shape-rendering="crispEdges"/><rect fill="#121212" x="951.6" y="269.9" width="134.2" height="24.65" shape-rendering="crispEdges"/><rect fill="#121212" x="1085.8" y="269.9" width="12.2" height="24.65" shape-rendering="crispEdges"/><rect fill="#121212" x="0" y="294.3" width="12.2" height="24.65" shape-rendering="crispEdges"/><rect fill="#121212" x="12.2" y="294.3" width="134.2" height="24.65" shape-rendering="crispEdges"/><rect fill="#242f38" x="146.4" y="294.3" width="12.2" height="24.65" shape-rendering="crispEdges"/><rect fill="#242f38" x="158.6" y="294.3" width="12.2" height="24.65" shape-rendering="crispEdges"/><rect fill="#272727" x="170.8" y="294.3" width="524.6" height="24.65" shape-rendering="crispEdges"/><rect fill="#272727" x="695.4" y="294.3" width="231.8" height="24.65" shape-rendering="crispEdges"/><rect fill="#242f38" x="927.2" y="294.3" width="12.2" height="24.65" shape-rendering="crispEdges"/><rect fill="#242f38" x="939.4" y="294.3" width="12.2" height="24.65" shape-rendering="crispEdges"/><rect fill="#121212" x="951.6" y="294.3" width="134.2" height="24.65" shape-rendering="crispEdges"/><rect fill="#121212" x="1085.8" y="294.3" width="12.2" height="24.65" shape-rendering="crispEdges"/><rect fill="#121212" x="0" y="318.7" width="12.2" height="24.65" shape-rendering="crispEdges"/><rect fill="#121212" x="12.2" y="318.7" width="134.2" height="24.65" shape-rendering="crispEdges"/><rect fill="#242f38" x="146.4" y="318.7" width="12.2" height="24.65" shape-rendering="crispEdges"/><rect fill="#242f38" x="158.6" y="318.7" width="12.2" height="24.65" shape-rendering="crispEdges"/><rect fill="#272727" x="170.8" y="318.7" width="0" height="24.65" shape-rendering="crispEdges"/><rect fill="#272727" x="170.8" y="318.7" width="756.4" height="24.65" shape-rendering="crispEdges"/><rect fill="#242f38" x="927.2" y="318.7" width="12.2" height="24.65" shape-rendering="crispEdges"/><rect fill="#242f38" x="939.4" y="318.7" width="12.2" height="24.65" shape-rendering="crispEdges"/><rect fill="#121212" x="951.6" y="318.7" width="134.2" height="24.65" shape-rendering="crispEdges"/><rect fill="#121212" x="1085.8" y="318.7" width="12.2" height="24.65" shape-rendering="crispEdges"/><rect fill="#121212" x="0" y="343.1" width="12.2" height="24.65" shape-rendering="crispEdges"/><rect fill="#121212" x="12.2" y="343.1" width="134.2" height="24.65" shape-rendering="crispEdges"/><rect fill="#242f38" x="146.4" y="343.1" width="12.2" height="24.65" shape-rendering="crispEdges"/><rect fill="#242f38" x="158.6" y="343.1" width="12.2" height="24.65" shape-rendering="crispEdges"/><rect fill="#272727" x="170.8" y="343.1" width="756.4" height="24.65" shape-rendering="crispEdges"/><rect fill="#242f38" x="927.2" y="343.1" width="12.2" height="24.65" shape-rendering="crispEdges"/><rect fill="#242f38" x="939.4" y="343.1" width="12.2" height="24.65" shape-rendering="crispEdges"/><rect fill="#121212" x="951.6" y="343.1" width="134.2" height="24.65" shape-rendering="crispEdges"/><rect fill="#121212" x="1085.8" y="343.1" width="12.2" height="24.65" shape-rendering="crispEdges"/><rect fill="#121212" x="0" y="367.5" width="12.2" height="24.65" shape-rendering="crispEdges"/><rect fill="#121212" x="12.2" y="367.5" width="134.2" height="24.65" shape-rendering="crispEdges"/><rect fill="#242f38" x="146.4" y="367.5" width="12.2" height="24.65" shape-rendering="crispEdges"/><rect fill="#242f38" x="158.6" y="367.5" width="780.8" height="24.65" shape-rendering="crispEdges"/><rect fill="#242f38" x="939.4" y="367.5" width="12.2" height="24.65" shape-rendering="crispEdges"/><rect fill="#121212" x="951.6" y="367.5" width="134.2" height="24.65" shape-rendering="crispEdges"/><rect fill="#121212" x="1085.8" y="367.5" width="12.2" height="24.65" shape-rendering="crispEdges"/><rect fill="#121212" x="0" y="391.9" width="12.2" height="24.65" shape-rendering="crispEdges"/><rect fill="#121212" x="12.2" y="391.9" width="1073.6" height="24.65" shape-rendering="crispEdges"/><rect fill="#121212" x="1085.8" y="391.9" width="12.2" height="24.65" shape-rendering="crispEdges"/><rect fill="#121212" x="0" y="416.3" width="12.2" height="24.65" shape-rendering="crispEdges"/><rect fill="#121212" x="12.2" y="416.3" width="1073.6" height="24.65" shape-rendering="crispEdges"/><rect fill="#121212" x="1085.8" y="416.3" width="12.2" height="24.65" shape-rendering="crispEdges"/><rect fill="#121212" x="0" y="440.7" width="12.2" height="24.65" shape-rendering="crispEdges"/><rect fill="#121212" x="12.2" y="440.7" width="1073.6" height="24.65" shape-rendering="crispEdges"/><rect fill="#121212" x="1085.8" y="440.7" width="12.2" height="24.65" shape-rendering="crispEdges"/><rect fill="#121212" x="0" y="465.1" width="12.2" height="24.65" shape-rendering="crispEdges"/><rect fill="#121212" x="12.2" y="465.1" width="1073.6" height="24.65" shape-rendering="crispEdges"/><rect fill="#121212" x="1085.8" y="465.1" width="12.2" height="24.65" shape-rendering="crispEdges"/><rect fill="#121212" x="0" y="489.5" width="12.2" height="24.65" shape-rendering="crispEdges"/><rect fill="#121212" x="12.2" y="489.5" width="1073.6" height="24.65" shape-rendering="crispEdges"/><rect fill="#121212" x="1085.8" y="489.5" width="12.2" height="24.65" shape-rendering="crispEdges"/><rect fill="#121212" x="0" y="513.9" width="12.2" height="24.65" shape-rendering="crispEdges"/><rect fill="#121212" x="12.2" y="513.9" width="1073.6" height="24.65" shape-rendering="crispEdges"/><rect fill="#121212" x="1085.8" y="513.9" width="12.2" height="24.65" shape-rendering="crispEdges"/><rect fill="#121212" x="0" y="538.3" width="12.2" height="24.65" shape-rendering="crispEdges"/><rect fill="#121212" x="12.2" y="538.3" width="1073.6" height="24.65" shape-rendering="crispEdges"/><rect fill="#121212" x="1085.8" y="538.3" width="12.2" height="24.65" shape-rendering="crispEdges"/><rect fill="#121212" x="0" y="562.7" width="12.2" height="24.65" shape-rendering="crispEdges"/><rect fill="#121212" x="12.2" y="562.7" width="1073.6" height="24.65" shape-rendering="crispEdges"/><rect fill="#121212" x="1085.8" y="562.7" width="12.2" height="24.65" shape-rendering="crispEdges"/><rect fill="#121212" x="0" y="587.1" width="1098" height="24.65" shape-rendering="crispEdges"/><rect fill="#121212" x="0" y="611.5" width="12.2" height="24.65" shape-rendering="crispEdges"/><rect fill="#331a20" x="12.2" y="611.5" width="48.8" height="24.65" shape-rendering="crispEdges"/><rect fill="#121212" x="61" y="611.5" width="634.4" height="24.65" shape-rendering="crispEdges"/><rect fill="#121212" x="695.4" y="611.5" width="12.2" height="24.65" shape-rendering="crispEdges"/><rect fill="#121212" x="707.6" y="611.5" width="170.8" height="24.65" shape-rendering="crispEdges"/><rect fill="#121212" x="878.4" y="611.5" width="12.2" height="24.65" shape-rendering="crispEdges"/><rect fill="#121212" x="890.6" y="611.5" width="61" height="24.65" shape-rendering="crispEdges"/><rect fill="#121212" x="951.6" y="611.5" width="12.2" height="24.65" shape-rendering="crispEdges"/><rect fill="#121212" x="963.8" y="611.5" width="122" height="24.65" shape-rendering="crispEdges"/><rect fill="#121212" x="1085.8" y="611.5" width="12.2" height="24.65" shape-rendering="crispEdges"/>
    <g class="terminal-3443057598-matrix">
    <text class="terminal-3443057598-r2" x="12.2" y="20" textLength="85.4" clip-path="url(#terminal-3443057598-line-0)">&#160;1:win&#160;</text><text class="terminal-3443057598-r3" x="122" y="20" textLength="36.6" clip-path="url(#terminal-3443057598-line-0)">[+]</text><text class="terminal-3443057598-r4" x="1098" y="20" textLength="12.2" clip-path="url(#terminal-3443057598-line-0)">
</text><text class="terminal-3443057598-r5" x="0" y="44.4" textLength="12.2" clip-path="url(#terminal-3443057598-line-1)">┌</text><text class="terminal-3443057598-r5" x="12.2" y="44.4" textLength="85.4" clip-path="url(#terminal-3443057598-line-1)">▀▀▀▀▀▀▀</text><text class="terminal-3443057598-r5" x="97.6" y="44.4" textLength="48.8" clip-path="url(#terminal-3443057598-line-1)">────</text><text class="terminal-3443057598-r6" x="146.4" y="44.4" textLength="12.2" clip-path="url(#terminal-3443057598-line-1)">╭</text><text class="terminal-3443057598-r6" x="158.6" y="44.4" textLength="780.8" clip-path="url(#terminal-3443057598-line-1)">────────────────────────────────────────────────────────────────</text><text class="terminal-3443057598-r6" x="939.4" y="44.4" textLength="12.2" clip-path="url(#terminal-3443057598-line-1)">╮</text><text class="terminal-3443057598-r5" x="951.6" y="44.4" textLength="146.4" clip-path="url(#terminal-3443057598-line-1)">───────────┐</text><text class="terminal-3443057598-r4" x="1098" y="44.4" textLength="12.2" clip-path="url(#terminal-3443057598-line-1)">
</text><text class="terminal-3443057598-r5" x="0" y="68.8" textLength="12.2" clip-path="url(#terminal-3443057598-line-2)">│</text><text class="terminal-3443057598-r7" x="12.2" y="68.8" textLength="134.2" clip-path="url(#terminal-3443057598-line-2)">neoocean@pl</text><text class="terminal-3443057598-r6" x="146.4" y="68.8" textLength="12.2" clip-path="url(#terminal-3443057598-line-2)">│</text><text class="terminal-3443057598-r8" x="170.8" y="68.8" textLength="244" clip-path="url(#terminal-3443057598-line-2)">restart-check&#160;(드라이런)</text><text class="terminal-3443057598-r9" x="878.4" y="68.8" textLength="36.6" clip-path="url(#terminal-3443057598-line-2)">[x]</text><text class="terminal-3443057598-r6" x="939.4" y="68.8" textLength="12.2" clip-path="url(#terminal-3443057598-line-2)">│</text><text class="terminal-3443057598-r10" x="1049.2" y="68.8" textLength="36.6" clip-path="url(#terminal-3443057598-line-2)">[x]</text><text class="terminal-3443057598-r5" x="1085.8" y="68.8" textLength="12.2" clip-path="url(#terminal-3443057598-line-2)">│</text><text class="terminal-3443057598-r4" x="1098" y="68.8" textLength="12.2" clip-path="url(#terminal-3443057598-line-2)">
</text><text class="terminal-3443057598-r5" x="0" y="93.2" textLength="12.2" clip-path="url(#terminal-3443057598-line-3)">│</text><text class="terminal-3443057598-r6" x="146.4" y="93.2" textLength="12.2" clip-path="url(#terminal-3443057598-line-3)">│</text><text class="terminal-3443057598-r11" x="170.8" y="93.2" textLength="292.8" clip-path="url(#terminal-3443057598-line-3)">✅&#160;안전&#160;—&#160;restart-all&#160;수행&#160;가능</text><text class="terminal-3443057598-r6" x="939.4" y="93.2" textLength="12.2" clip-path="url(#terminal-3443057598-line-3)">│</text><text class="terminal-3443057598-r5" x="1085.8" y="93.2" textLength="12.2" clip-path="url(#terminal-3443057598-line-3)">│</text><text class="terminal-3443057598-r4" x="1098" y="93.2" textLength="12.2" clip-path="url(#terminal-3443057598-line-3)">
</text><text class="terminal-3443057598-r5" x="0" y="117.6" textLength="12.2" clip-path="url(#terminal-3443057598-line-4)">│</text><text class="terminal-3443057598-r6" x="146.4" y="117.6" textLength="12.2" clip-path="url(#terminal-3443057598-line-4)">│</text><text class="terminal-3443057598-r6" x="939.4" y="117.6" textLength="12.2" clip-path="url(#terminal-3443057598-line-4)">│</text><text class="terminal-3443057598-r5" x="1085.8" y="117.6" textLength="12.2" clip-path="url(#terminal-3443057598-line-4)">│</text><text class="terminal-3443057598-r4" x="1098" y="117.6" textLength="12.2" clip-path="url(#terminal-3443057598-line-4)">
</text><text class="terminal-3443057598-r5" x="0" y="142" textLength="12.2" clip-path="url(#terminal-3443057598-line-5)">│</text><text class="terminal-3443057598-r6" x="146.4" y="142" textLength="12.2" clip-path="url(#terminal-3443057598-line-5)">│</text><text class="terminal-3443057598-r12" x="170.8" y="142" textLength="427" clip-path="url(#terminal-3443057598-line-5)">&#160;&#160;[PASS]&#160;서버&#160;re-exec&#160;지원(POSIX·이벤트루프)</text><text class="terminal-3443057598-r6" x="939.4" y="142" textLength="12.2" clip-path="url(#terminal-3443057598-line-5)">│</text><text class="terminal-3443057598-r5" x="1085.8" y="142" textLength="12.2" clip-path="url(#terminal-3443057598-line-5)">│</text><text class="terminal-3443057598-r4" x="1098" y="142" textLength="12.2" clip-path="url(#terminal-3443057598-line-5)">
</text><text class="terminal-3443057598-r5" x="0" y="166.4" textLength="12.2" clip-path="url(#terminal-3443057598-line-6)">│</text><text class="terminal-3443057598-r6" x="146.4" y="166.4" textLength="12.2" clip-path="url(#terminal-3443057598-line-6)">│</text><text class="terminal-3443057598-r12" x="170.8" y="166.4" textLength="219.6" clip-path="url(#terminal-3443057598-line-6)">&#160;&#160;[PASS]&#160;복원할&#160;세션&#160;존재</text><text class="terminal-3443057598-r6" x="939.4" y="166.4" textLength="12.2" clip-path="url(#terminal-3443057598-line-6)">│</text><text class="terminal-3443057598-r5" x="1085.8" y="166.4" textLength="12.2" clip-path="url(#terminal-3443057598-line-6)">│</text><text class="terminal-3443057598-r4" x="1098" y="166.4" textLength="12.2" clip-path="url(#terminal-3443057598-line-6)">
</text><text class="terminal-3443057598-r5" x="0" y="190.8" textLength="12.2" clip-path="url(#terminal-3443057598-line-7)">│</text><text class="terminal-3443057598-r6" x="146.4" y="190.8" textLength="12.2" clip-path="url(#terminal-3443057598-line-7)">│</text><text class="terminal-3443057598-r12" x="170.8" y="190.8" textLength="317.2" clip-path="url(#terminal-3443057598-line-7)">&#160;&#160;[PASS]&#160;상태&#160;직렬화&#160;round-trip</text><text class="terminal-3443057598-r6" x="939.4" y="190.8" textLength="12.2" clip-path="url(#terminal-3443057598-line-7)">│</text><text class="terminal-3443057598-r5" x="1085.8" y="190.8" textLength="12.2" clip-path="url(#terminal-3443057598-line-7)">│</text><text class="terminal-3443057598-r4" x="1098" y="190.8" textLength="12.2" clip-path="url(#terminal-3443057598-line-7)">
</text><text class="terminal-3443057598-r5" x="0" y="215.2" textLength="12.2" clip-path="url(#terminal-3443057598-line-8)">│</text><text class="terminal-3443057598-r6" x="146.4" y="215.2" textLength="12.2" clip-path="url(#terminal-3443057598-line-8)">│</text><text class="terminal-3443057598-r12" x="170.8" y="215.2" textLength="366" clip-path="url(#terminal-3443057598-line-8)">&#160;&#160;[PASS]&#160;패널&#160;master&#160;fd&#160;보유&#160;(3/3)</text><text class="terminal-3443057598-r6" x="939.4" y="215.2" textLength="12.2" clip-path="url(#terminal-3443057598-line-8)">│</text><text class="terminal-3443057598-r5" x="1085.8" y="215.2" textLength="12.2" clip-path="url(#terminal-3443057598-line-8)">│</text><text class="terminal-3443057598-r4" x="1098" y="215.2" textLength="12.2" clip-path="url(#terminal-3443057598-line-8)">
</text><text class="terminal-3443057598-r5" x="0" y="239.6" textLength="12.2" clip-path="url(#terminal-3443057598-line-9)">│</text><text class="terminal-3443057598-r6" x="146.4" y="239.6" textLength="12.2" clip-path="url(#terminal-3443057598-line-9)">│</text><text class="terminal-3443057598-r12" x="170.8" y="239.6" textLength="353.8" clip-path="url(#terminal-3443057598-line-9)">&#160;&#160;[PASS]&#160;클라이언트&#160;relaunch&#160;인자&#160;해석</text><text class="terminal-3443057598-r6" x="939.4" y="239.6" textLength="12.2" clip-path="url(#terminal-3443057598-line-9)">│</text><text class="terminal-3443057598-r5" x="1085.8" y="239.6" textLength="12.2" clip-path="url(#terminal-3443057598-line-9)">│</text><text class="terminal-3443057598-r4" x="1098" y="239.6" textLength="12.2" clip-path="url(#terminal-3443057598-line-9)">
</text><text class="terminal-3443057598-r5" x="0" y="264" textLength="12.2" clip-path="url(#terminal-3443057598-line-10)">│</text><text class="terminal-3443057598-r6" x="146.4" y="264" textLength="12.2" clip-path="url(#terminal-3443057598-line-10)">│</text><text class="terminal-3443057598-r6" x="939.4" y="264" textLength="12.2" clip-path="url(#terminal-3443057598-line-10)">│</text><text class="terminal-3443057598-r5" x="1085.8" y="264" textLength="12.2" clip-path="url(#terminal-3443057598-line-10)">│</text><text class="terminal-3443057598-r4" x="1098" y="264" textLength="12.2" clip-path="url(#terminal-3443057598-line-10)">
</text><text class="terminal-3443057598-r5" x="0" y="288.4" textLength="12.2" clip-path="url(#terminal-3443057598-line-11)">│</text><text class="terminal-3443057598-r6" x="146.4" y="288.4" textLength="12.2" clip-path="url(#terminal-3443057598-line-11)">│</text><text class="terminal-3443057598-r12" x="170.8" y="288.4" textLength="549" clip-path="url(#terminal-3443057598-line-11)">&#160;&#160;서버&#160;버전:&#160;실행=p4:5281&#160;&#160;디스크=p4:5290&#160;&#160;→&#160;재시작&#160;시&#160;갱신됨</text><text class="terminal-3443057598-r6" x="939.4" y="288.4" textLength="12.2" clip-path="url(#terminal-3443057598-line-11)">│</text><text class="terminal-3443057598-r5" x="1085.8" y="288.4" textLength="12.2" clip-path="url(#terminal-3443057598-line-11)">│</text><text class="terminal-3443057598-r4" x="1098" y="288.4" textLength="12.2" clip-path="url(#terminal-3443057598-line-11)">
</text><text class="terminal-3443057598-r5" x="0" y="312.8" textLength="12.2" clip-path="url(#terminal-3443057598-line-12)">│</text><text class="terminal-3443057598-r6" x="146.4" y="312.8" textLength="12.2" clip-path="url(#terminal-3443057598-line-12)">│</text><text class="terminal-3443057598-r12" x="170.8" y="312.8" textLength="414.8" clip-path="url(#terminal-3443057598-line-12)">&#160;&#160;클라&#160;버전:&#160;실행=p4:57063&#160;&#160;디스크=p4:57063</text><text class="terminal-3443057598-r6" x="939.4" y="312.8" textLength="12.2" clip-path="url(#terminal-3443057598-line-12)">│</text><text class="terminal-3443057598-r5" x="1085.8" y="312.8" textLength="12.2" clip-path="url(#terminal-3443057598-line-12)">│</text><text class="terminal-3443057598-r4" x="1098" y="312.8" textLength="12.2" clip-path="url(#terminal-3443057598-line-12)">
</text><text class="terminal-3443057598-r5" x="0" y="337.2" textLength="12.2" clip-path="url(#terminal-3443057598-line-13)">│</text><text class="terminal-3443057598-r6" x="146.4" y="337.2" textLength="12.2" clip-path="url(#terminal-3443057598-line-13)">│</text><text class="terminal-3443057598-r6" x="939.4" y="337.2" textLength="12.2" clip-path="url(#terminal-3443057598-line-13)">│</text><text class="terminal-3443057598-r5" x="1085.8" y="337.2" textLength="12.2" clip-path="url(#terminal-3443057598-line-13)">│</text><text class="terminal-3443057598-r4" x="1098" y="337.2" textLength="12.2" clip-path="url(#terminal-3443057598-line-13)">
</text><text class="terminal-3443057598-r5" x="0" y="361.6" textLength="12.2" clip-path="url(#terminal-3443057598-line-14)">│</text><text class="terminal-3443057598-r6" x="146.4" y="361.6" textLength="12.2" clip-path="url(#terminal-3443057598-line-14)">│</text><text class="terminal-3443057598-r12" x="170.8" y="361.6" textLength="463.6" clip-path="url(#terminal-3443057598-line-14)">&#160;&#160;(버전&#160;차이는&#160;위험이&#160;아니라&#160;&#x27;재시작이&#160;새&#160;코드를&#160;로드&#x27;를&#160;뜻함)</text><text class="terminal-3443057598-r6" x="939.4" y="361.6" textLength="12.2" clip-path="url(#terminal-3443057598-line-14)">│</text><text class="terminal-3443057598-r5" x="1085.8" y="361.6" textLength="12.2" clip-path="url(#terminal-3443057598-line-14)">│</text><text class="terminal-3443057598-r4" x="1098" y="361.6" textLength="12.2" clip-path="url(#terminal-3443057598-line-14)">
</text><text class="terminal-3443057598-r5" x="0" y="386" textLength="12.2" clip-path="url(#terminal-3443057598-line-15)">│</text><text class="terminal-3443057598-r6" x="146.4" y="386" textLength="12.2" clip-path="url(#terminal-3443057598-line-15)">╰</text><text class="terminal-3443057598-r6" x="158.6" y="386" textLength="780.8" clip-path="url(#terminal-3443057598-line-15)">────────────────────────────────────────────────────────────────</text><text class="terminal-3443057598-r6" x="939.4" y="386" textLength="12.2" clip-path="url(#terminal-3443057598-line-15)">╯</text><text class="terminal-3443057598-r5" x="1085.8" y="386" textLength="12.2" clip-path="url(#terminal-3443057598-line-15)">│</text><text class="terminal-3443057598-r4" x="1098" y="386" textLength="12.2" clip-path="url(#terminal-3443057598-line-15)">
</text><text class="terminal-3443057598-r5" x="0" y="410.4" textLength="12.2" clip-path="url(#terminal-3443057598-line-16)">│</text><text class="terminal-3443057598-r5" x="1085.8" y="410.4" textLength="12.2" clip-path="url(#terminal-3443057598-line-16)">│</text><text class="terminal-3443057598-r4" x="1098" y="410.4" textLength="12.2" clip-path="url(#terminal-3443057598-line-16)">
</text><text class="terminal-3443057598-r5" x="0" y="434.8" textLength="12.2" clip-path="url(#terminal-3443057598-line-17)">│</text><text class="terminal-3443057598-r5" x="1085.8" y="434.8" textLength="12.2" clip-path="url(#terminal-3443057598-line-17)">│</text><text class="terminal-3443057598-r4" x="1098" y="434.8" textLength="12.2" clip-path="url(#terminal-3443057598-line-17)">
</text><text class="terminal-3443057598-r5" x="0" y="459.2" textLength="12.2" clip-path="url(#terminal-3443057598-line-18)">│</text><text class="terminal-3443057598-r5" x="1085.8" y="459.2" textLength="12.2" clip-path="url(#terminal-3443057598-line-18)">│</text><text class="terminal-3443057598-r4" x="1098" y="459.2" textLength="12.2" clip-path="url(#terminal-3443057598-line-18)">
</text><text class="terminal-3443057598-r5" x="0" y="483.6" textLength="12.2" clip-path="url(#terminal-3443057598-line-19)">│</text><text class="terminal-3443057598-r5" x="1085.8" y="483.6" textLength="12.2" clip-path="url(#terminal-3443057598-line-19)">│</text><text class="terminal-3443057598-r4" x="1098" y="483.6" textLength="12.2" clip-path="url(#terminal-3443057598-line-19)">
</text><text class="terminal-3443057598-r5" x="0" y="508" textLength="12.2" clip-path="url(#terminal-3443057598-line-20)">│</text><text class="terminal-3443057598-r5" x="1085.8" y="508" textLength="12.2" clip-path="url(#terminal-3443057598-line-20)">│</text><text class="terminal-3443057598-r4" x="1098" y="508" textLength="12.2" clip-path="url(#terminal-3443057598-line-20)">
</text><text class="terminal-3443057598-r5" x="0" y="532.4" textLength="12.2" clip-path="url(#terminal-3443057598-line-21)">│</text><text class="terminal-3443057598-r5" x="1085.8" y="532.4" textLength="12.2" clip-path="url(#terminal-3443057598-line-21)">│</text><text class="terminal-3443057598-r4" x="1098" y="532.4" textLength="12.2" clip-path="url(#terminal-3443057598-line-21)">
</text><text class="terminal-3443057598-r5" x="0" y="556.8" textLength="12.2" clip-path="url(#terminal-3443057598-line-22)">│</text><text class="terminal-3443057598-r5" x="1085.8" y="556.8" textLength="12.2" clip-path="url(#terminal-3443057598-line-22)">│</text><text class="terminal-3443057598-r4" x="1098" y="556.8" textLength="12.2" clip-path="url(#terminal-3443057598-line-22)">
</text><text class="terminal-3443057598-r5" x="0" y="581.2" textLength="12.2" clip-path="url(#terminal-3443057598-line-23)">│</text><text class="terminal-3443057598-r5" x="1085.8" y="581.2" textLength="12.2" clip-path="url(#terminal-3443057598-line-23)">│</text><text class="terminal-3443057598-r4" x="1098" y="581.2" textLength="12.2" clip-path="url(#terminal-3443057598-line-23)">
</text><text class="terminal-3443057598-r5" x="0" y="605.6" textLength="1098" clip-path="url(#terminal-3443057598-line-24)">└────────────────────────────────────────────────────────────────────────────────────────┘</text><text class="terminal-3443057598-r4" x="1098" y="605.6" textLength="12.2" clip-path="url(#terminal-3443057598-line-24)">
</text><text class="terminal-3443057598-r2" x="12.2" y="630" textLength="48.8" clip-path="url(#terminal-3443057598-line-25)">REC&#160;</text><text class="terminal-3443057598-r13" x="707.6" y="630" textLength="170.8" clip-path="url(#terminal-3443057598-line-25)">ssh:playground</text><text class="terminal-3443057598-r1" x="890.6" y="630" textLength="61" clip-path="url(#terminal-3443057598-line-25)">18:09</text><text class="terminal-3443057598-r1" x="963.8" y="630" textLength="122" clip-path="url(#terminal-3443057598-line-25)">2026-06-06</text>
    </g>
    </g>
</svg>
