<svg class="rich-terminal" viewBox="0 0 1116 684.4" xmlns="http://www.w3.org/2000/svg">
    <!-- Generated with Rich https://www.textualize.io -->
    <style>

    @font-face {
        font-family: "Fira Code";
        src: local("FiraCode-Regular"),
                url("https://cdnjs.cloudflare.com/ajax/libs/firacode/6.2.0/woff2/FiraCode-Regular.woff2") format("woff2"),
                url("https://cdnjs.cloudflare.com/ajax/libs/firacode/6.2.0/woff/FiraCode-Regular.woff") format("woff");
        font-style: normal;
        font-weight: 400;
    }
    @font-face {
        font-family: "Fira Code";
        src: local("FiraCode-Bold"),
                url("https://cdnjs.cloudflare.com/ajax/libs/firacode/6.2.0/woff2/FiraCode-Bold.woff2") format("woff2"),
                url("https://cdnjs.cloudflare.com/ajax/libs/firacode/6.2.0/woff/FiraCode-Bold.woff") format("woff");
        font-style: bold;
        font-weight: 700;
    }

    .terminal-862653360-matrix {
        font-family: Fira Code, monospace;
        font-size: 20px;
        line-height: 24.4px;
        font-variant-east-asian: full-width;
    }

    .terminal-862653360-title {
        font-size: 18px;
        font-weight: bold;
        font-family: arial;
    }

    .terminal-862653360-r1 { fill: #3b3b3b }
.terminal-862653360-r2 { fill: #353532;font-weight: bold }
.terminal-862653360-r3 { fill: #131313;font-weight: bold }
.terminal-862653360-r4 { fill: #c5c8c6 }
.terminal-862653360-r5 { fill: #0e1921 }
.terminal-862653360-r6 { fill: #1f1f1f }
.terminal-862653360-r7 { fill: #1a1a1a }
.terminal-862653360-r8 { fill: #0e0e0e }
.terminal-862653360-r9 { fill: #fea62b }
.terminal-862653360-r10 { fill: #ddedf9;font-weight: bold }
.terminal-862653360-r11 { fill: #e0e0e0 }
.terminal-862653360-r12 { fill: #abafb2 }
.terminal-862653360-r13 { fill: #331a20;font-weight: bold }
    </style>

    <defs>
    <clipPath id="terminal-862653360-clip-terminal">
      <rect x="0" y="0" width="1097.0" height="633.4" />
    </clipPath>
    <clipPath id="terminal-862653360-line-0">
    <rect x="0" y="1.5" width="1098" height="24.65"/>
            </clipPath>
<clipPath id="terminal-862653360-line-1">
    <rect x="0" y="25.9" width="1098" height="24.65"/>
            </clipPath>
<clipPath id="terminal-862653360-line-2">
    <rect x="0" y="50.3" width="1098" height="24.65"/>
            </clipPath>
<clipPath id="terminal-862653360-line-3">
    <rect x="0" y="74.7" width="1098" height="24.65"/>
            </clipPath>
<clipPath id="terminal-862653360-line-4">
    <rect x="0" y="99.1" width="1098" height="24.65"/>
            </clipPath>
<clipPath id="terminal-862653360-line-5">
    <rect x="0" y="123.5" width="1098" height="24.65"/>
            </clipPath>
<clipPath id="terminal-862653360-line-6">
    <rect x="0" y="147.9" width="1098" height="24.65"/>
            </clipPath>
<clipPath id="terminal-862653360-line-7">
    <rect x="0" y="172.3" width="1098" height="24.65"/>
            </clipPath>
<clipPath id="terminal-862653360-line-8">
    <rect x="0" y="196.7" width="1098" height="24.65"/>
            </clipPath>
<clipPath id="terminal-862653360-line-9">
    <rect x="0" y="221.1" width="1098" height="24.65"/>
            </clipPath>
<clipPath id="terminal-862653360-line-10">
    <rect x="0" y="245.5" width="1098" height="24.65"/>
            </clipPath>
<clipPath id="terminal-862653360-line-11">
    <rect x="0" y="269.9" width="1098" height="24.65"/>
            </clipPath>
<clipPath id="terminal-862653360-line-12">
    <rect x="0" y="294.3" width="1098" height="24.65"/>
            </clipPath>
<clipPath id="terminal-862653360-line-13">
    <rect x="0" y="318.7" width="1098" height="24.65"/>
            </clipPath>
<clipPath id="terminal-862653360-line-14">
    <rect x="0" y="343.1" width="1098" height="24.65"/>
            </clipPath>
<clipPath id="terminal-862653360-line-15">
    <rect x="0" y="367.5" width="1098" height="24.65"/>
            </clipPath>
<clipPath id="terminal-862653360-line-16">
    <rect x="0" y="391.9" width="1098" height="24.65"/>
            </clipPath>
<clipPath id="terminal-862653360-line-17">
    <rect x="0" y="416.3" width="1098" height="24.65"/>
            </clipPath>
<clipPath id="terminal-862653360-line-18">
    <rect x="0" y="440.7" width="1098" height="24.65"/>
            </clipPath>
<clipPath id="terminal-862653360-line-19">
    <rect x="0" y="465.1" width="1098" height="24.65"/>
            </clipPath>
<clipPath id="terminal-862653360-line-20">
    <rect x="0" y="489.5" width="1098" height="24.65"/>
            </clipPath>
<clipPath id="terminal-862653360-line-21">
    <rect x="0" y="513.9" width="1098" height="24.65"/>
            </clipPath>
<clipPath id="terminal-862653360-line-22">
    <rect x="0" y="538.3" width="1098" height="24.65"/>
            </clipPath>
<clipPath id="terminal-862653360-line-23">
    <rect x="0" y="562.7" width="1098" height="24.65"/>
            </clipPath>
<clipPath id="terminal-862653360-line-24">
    <rect x="0" y="587.1" width="1098" height="24.65"/>
            </clipPath>
    </defs>

    <rect fill="#292929" stroke="rgba(255,255,255,0.35)" stroke-width="1" x="1" y="1" width="1114" height="682.4" rx="8"/><text class="terminal-862653360-title" fill="#c5c8c6" text-anchor="middle" x="557" y="27">PytmuxApp</text>
            <g transform="translate(26,22)">
            <circle cx="0" cy="0" r="7" fill="#ff5f57"/>
            <circle cx="22" cy="0" r="7" fill="#febc2e"/>
            <circle cx="44" cy="0" r="7" fill="#28c840"/>
            </g>
        
    <g transform="translate(9, 41)" clip-path="url(#terminal-862653360-clip-terminal)">
    <rect fill="#121212" x="0" y="1.5" width="12.2" height="24.65" shape-rendering="crispEdges"/><rect fill="#0e2638" x="12.2" y="1.5" width="85.4" height="24.65" shape-rendering="crispEdges"/><rect fill="#121212" x="97.6" y="1.5" width="24.4" height="24.65" shape-rendering="crispEdges"/><rect fill="#1e3425" x="122" y="1.5" width="36.6" height="24.65" shape-rendering="crispEdges"/><rect fill="#121212" x="158.6" y="1.5" width="939.4" height="24.65" shape-rendering="crispEdges"/><rect fill="#121212" x="0" y="25.9" width="12.2" height="24.65" shape-rendering="crispEdges"/><rect fill="#121212" x="12.2" y="25.9" width="85.4" height="24.65" shape-rendering="crispEdges"/><rect fill="#121212" x="97.6" y="25.9" width="951.6" height="24.65" shape-rendering="crispEdges"/><rect fill="#1f1316" x="1049.2" y="25.9" width="36.6" height="24.65" shape-rendering="crispEdges"/><rect fill="#121212" x="1085.8" y="25.9" width="12.2" height="24.65" shape-rendering="crispEdges"/><rect fill="#121212" x="0" y="50.3" width="12.2" height="24.65" shape-rendering="crispEdges"/><rect fill="#121212" x="12.2" y="50.3" width="353.8" height="24.65" shape-rendering="crispEdges"/><rect fill="#121212" x="366" y="50.3" width="12.2" height="24.65" shape-rendering="crispEdges"/><rect fill="#121212" x="378.2" y="50.3" width="671" height="24.65" shape-rendering="crispEdges"/><rect fill="#0e1921" x="1049.2" y="50.3" width="48.8" height="24.65" shape-rendering="crispEdges"/><rect fill="#121212" x="0" y="74.7" width="12.2" height="24.65" shape-rendering="crispEdges"/><rect fill="#121212" x="12.2" y="74.7" width="146.4" height="24.65" shape-rendering="crispEdges"/><rect fill="#2d3740" x="158.6" y="74.7" width="12.2" height="24.65" shape-rendering="crispEdges"/><rect fill="#2d3740" x="170.8" y="74.7" width="756.4" height="24.65" shape-rendering="crispEdges"/><rect fill="#2d3740" x="927.2" y="74.7" width="12.2" height="24.65" shape-rendering="crispEdges"/><rect fill="#121212" x="939.4" y="74.7" width="146.4" height="24.65" shape-rendering="crispEdges"/><rect fill="#121212" x="1085.8" y="74.7" width="12.2" height="24.65" shape-rendering="crispEdges"/><rect fill="#121212" x="0" y="99.1" width="12.2" height="24.65" shape-rendering="crispEdges"/><rect fill="#121212" x="12.2" y="99.1" width="146.4" height="24.65" shape-rendering="crispEdges"/><rect fill="#2d3740" x="158.6" y="99.1" width="12.2" height="24.65" shape-rendering="crispEdges"/><rect fill="#0178d4" x="170.8" y="99.1" width="256.2" height="24.65" shape-rendering="crispEdges"/><rect fill="#0178d4" x="427" y="99.1" width="500.2" height="24.65" shape-rendering="crispEdges"/><rect fill="#2d3740" x="927.2" y="99.1" width="12.2" height="24.65" shape-rendering="crispEdges"/><rect fill="#121212" x="939.4" y="99.1" width="146.4" height="24.65" shape-rendering="crispEdges"/><rect fill="#121212" x="1085.8" y="99.1" width="12.2" height="24.65" shape-rendering="crispEdges"/><rect fill="#121212" x="0" y="123.5" width="12.2" height="24.65" shape-rendering="crispEdges"/><rect fill="#121212" x="12.2" y="123.5" width="146.4" height="24.65" shape-rendering="crispEdges"/><rect fill="#2d3740" x="158.6" y="123.5" width="12.2" height="24.65" shape-rendering="crispEdges"/><rect fill="#2d3740" x="170.8" y="123.5" width="597.8" height="24.65" shape-rendering="crispEdges"/><rect fill="#2d3740" x="768.6" y="123.5" width="158.6" height="24.65" shape-rendering="crispEdges"/><rect fill="#2d3740" x="927.2" y="123.5" width="12.2" height="24.65" shape-rendering="crispEdges"/><rect fill="#121212" x="939.4" y="123.5" width="146.4" height="24.65" shape-rendering="crispEdges"/><rect fill="#121212" x="1085.8" y="123.5" width="12.2" height="24.65" shape-rendering="crispEdges"/><rect fill="#121212" x="0" y="147.9" width="12.2" height="24.65" shape-rendering="crispEdges"/><rect fill="#121212" x="12.2" y="147.9" width="146.4" height="24.65" shape-rendering="crispEdges"/><rect fill="#2d3740" x="158.6" y="147.9" width="12.2" height="24.65" shape-rendering="crispEdges"/><rect fill="#2d3740" x="170.8" y="147.9" width="341.6" height="24.65" shape-rendering="crispEdges"/><rect fill="#2d3740" x="512.4" y="147.9" width="414.8" height="24.65" shape-rendering="crispEdges"/><rect fill="#2d3740" x="927.2" y="147.9" width="12.2" height="24.65" shape-rendering="crispEdges"/><rect fill="#121212" x="939.4" y="147.9" width="146.4" height="24.65" shape-rendering="crispEdges"/><rect fill="#121212" x="1085.8" y="147.9" width="12.2" height="24.65" shape-rendering="crispEdges"/><rect fill="#121212" x="0" y="172.3" width="12.2" height="24.65" shape-rendering="crispEdges"/><rect fill="#121212" x="12.2" y="172.3" width="146.4" height="24.65" shape-rendering="crispEdges"/><rect fill="#2d3740" x="158.6" y="172.3" width="12.2" height="24.65" shape-rendering="crispEdges"/><rect fill="#2d3740" x="170.8" y="172.3" width="610" height="24.65" shape-rendering="crispEdges"/><rect fill="#2d3740" x="780.8" y="172.3" width="146.4" height="24.65" shape-rendering="crispEdges"/><rect fill="#2d3740" x="927.2" y="172.3" width="12.2" height="24.65" shape-rendering="crispEdges"/><rect fill="#121212" x="939.4" y="172.3" width="146.4" height="24.65" shape-rendering="crispEdges"/><rect fill="#121212" x="1085.8" y="172.3" width="12.2" height="24.65" shape-rendering="crispEdges"/><rect fill="#121212" x="0" y="196.7" width="12.2" height="24.65" shape-rendering="crispEdges"/><rect fill="#121212" x="12.2" y="196.7" width="146.4" height="24.65" shape-rendering="crispEdges"/><rect fill="#2d3740" x="158.6" y="196.7" width="12.2" height="24.65" shape-rendering="crispEdges"/><rect fill="#2d3740" x="170.8" y="196.7" width="427" height="24.65" shape-rendering="crispEdges"/><rect fill="#2d3740" x="597.8" y="196.7" width="329.4" height="24.65" shape-rendering="crispEdges"/><rect fill="#2d3740" x="927.2" y="196.7" width="12.2" height="24.65" shape-rendering="crispEdges"/><rect fill="#121212" x="939.4" y="196.7" width="146.4" height="24.65" shape-rendering="crispEdges"/><rect fill="#121212" x="1085.8" y="196.7" width="12.2" height="24.65" shape-rendering="crispEdges"/><rect fill="#121212" x="0" y="221.1" width="12.2" height="24.65" shape-rendering="crispEdges"/><rect fill="#121212" x="12.2" y="221.1" width="146.4" height="24.65" shape-rendering="crispEdges"/><rect fill="#2d3740" x="158.6" y="221.1" width="12.2" height="24.65" shape-rendering="crispEdges"/><rect fill="#2d3740" x="170.8" y="221.1" width="292.8" height="24.65" shape-rendering="crispEdges"/><rect fill="#2d3740" x="463.6" y="221.1" width="463.6" height="24.65" shape-rendering="crispEdges"/><rect fill="#2d3740" x="927.2" y="221.1" width="12.2" height="24.65" shape-rendering="crispEdges"/><rect fill="#121212" x="939.4" y="221.1" width="146.4" height="24.65" shape-rendering="crispEdges"/><rect fill="#121212" x="1085.8" y="221.1" width="12.2" height="24.65" shape-rendering="crispEdges"/><rect fill="#121212" x="0" y="245.5" width="12.2" height="24.65" shape-rendering="crispEdges"/><rect fill="#121212" x="12.2" y="245.5" width="146.4" height="24.65" shape-rendering="crispEdges"/><rect fill="#2d3740" x="158.6" y="245.5" width="12.2" height="24.65" shape-rendering="crispEdges"/><rect fill="#2d3740" x="170.8" y="245.5" width="292.8" height="24.65" shape-rendering="crispEdges"/><rect fill="#2d3740" x="463.6" y="245.5" width="463.6" height="24.65" shape-rendering="crispEdges"/><rect fill="#2d3740" x="927.2" y="245.5" width="12.2" height="24.65" shape-rendering="crispEdges"/><rect fill="#121212" x="939.4" y="245.5" width="146.4" height="24.65" shape-rendering="crispEdges"/><rect fill="#121212" x="1085.8" y="245.5" width="12.2" height="24.65" shape-rendering="crispEdges"/><rect fill="#121212" x="0" y="269.9" width="12.2" height="24.65" shape-rendering="crispEdges"/><rect fill="#121212" x="12.2" y="269.9" width="146.4" height="24.65" shape-rendering="crispEdges"/><rect fill="#2d3740" x="158.6" y="269.9" width="12.2" height="24.65" shape-rendering="crispEdges"/><rect fill="#2d3740" x="170.8" y="269.9" width="475.8" height="24.65" shape-rendering="crispEdges"/><rect fill="#2d3740" x="646.6" y="269.9" width="280.6" height="24.65" shape-rendering="crispEdges"/><rect fill="#2d3740" x="927.2" y="269.9" width="12.2" height="24.65" shape-rendering="crispEdges"/><rect fill="#121212" x="939.4" y="269.9" width="146.4" height="24.65" shape-rendering="crispEdges"/><rect fill="#121212" x="1085.8" y="269.9" width="12.2" height="24.65" shape-rendering="crispEdges"/><rect fill="#121212" x="0" y="294.3" width="12.2" height="24.65" shape-rendering="crispEdges"/><rect fill="#121212" x="12.2" y="294.3" width="146.4" height="24.65" shape-rendering="crispEdges"/><rect fill="#2d3740" x="158.6" y="294.3" width="12.2" height="24.65" shape-rendering="crispEdges"/><rect fill="#2d3740" x="170.8" y="294.3" width="427" height="24.65" shape-rendering="crispEdges"/><rect fill="#2d3740" x="597.8" y="294.3" width="329.4" height="24.65" shape-rendering="crispEdges"/><rect fill="#2d3740" x="927.2" y="294.3" width="12.2" height="24.65" shape-rendering="crispEdges"/><rect fill="#121212" x="939.4" y="294.3" width="146.4" height="24.65" shape-rendering="crispEdges"/><rect fill="#121212" x="1085.8" y="294.3" width="12.2" height="24.65" shape-rendering="crispEdges"/><rect fill="#121212" x="0" y="318.7" width="12.2" height="24.65" shape-rendering="crispEdges"/><rect fill="#121212" x="12.2" y="318.7" width="146.4" height="24.65" shape-rendering="crispEdges"/><rect fill="#2d3740" x="158.6" y="318.7" width="12.2" height="24.65" shape-rendering="crispEdges"/><rect fill="#2d3740" x="170.8" y="318.7" width="366" height="24.65" shape-rendering="crispEdges"/><rect fill="#2d3740" x="536.8" y="318.7" width="390.4" height="24.65" shape-rendering="crispEdges"/><rect fill="#2d3740" x="927.2" y="318.7" width="12.2" height="24.65" shape-rendering="crispEdges"/><rect fill="#121212" x="939.4" y="318.7" width="146.4" height="24.65" shape-rendering="crispEdges"/><rect fill="#121212" x="1085.8" y="318.7" width="12.2" height="24.65" shape-rendering="crispEdges"/><rect fill="#121212" x="0" y="343.1" width="12.2" height="24.65" shape-rendering="crispEdges"/><rect fill="#121212" x="12.2" y="343.1" width="146.4" height="24.65" shape-rendering="crispEdges"/><rect fill="#2d3740" x="158.6" y="343.1" width="12.2" height="24.65" shape-rendering="crispEdges"/><rect fill="#2d3740" x="170.8" y="343.1" width="524.6" height="24.65" shape-rendering="crispEdges"/><rect fill="#2d3740" x="695.4" y="343.1" width="231.8" height="24.65" shape-rendering="crispEdges"/><rect fill="#2d3740" x="927.2" y="343.1" width="12.2" height="24.65" shape-rendering="crispEdges"/><rect fill="#121212" x="939.4" y="343.1" width="146.4" height="24.65" shape-rendering="crispEdges"/><rect fill="#121212" x="1085.8" y="343.1" width="12.2" height="24.65" shape-rendering="crispEdges"/><rect fill="#121212" x="0" y="367.5" width="12.2" height="24.65" shape-rendering="crispEdges"/><rect fill="#121212" x="12.2" y="367.5" width="146.4" height="24.65" shape-rendering="crispEdges"/><rect fill="#2d3740" x="158.6" y="367.5" width="12.2" height="24.65" shape-rendering="crispEdges"/><rect fill="#2d3740" x="170.8" y="367.5" width="268.4" height="24.65" shape-rendering="crispEdges"/><rect fill="#2d3740" x="439.2" y="367.5" width="488" height="24.65" shape-rendering="crispEdges"/><rect fill="#2d3740" x="927.2" y="367.5" width="12.2" height="24.65" shape-rendering="crispEdges"/><rect fill="#121212" x="939.4" y="367.5" width="146.4" height="24.65" shape-rendering="crispEdges"/><rect fill="#121212" x="1085.8" y="367.5" width="12.2" height="24.65" shape-rendering="crispEdges"/><rect fill="#121212" x="0" y="391.9" width="12.2" height="24.65" shape-rendering="crispEdges"/><rect fill="#121212" x="12.2" y="391.9" width="146.4" height="24.65" shape-rendering="crispEdges"/><rect fill="#2d3740" x="158.6" y="391.9" width="12.2" height="24.65" shape-rendering="crispEdges"/><rect fill="#2d3740" x="170.8" y="391.9" width="549" height="24.65" shape-rendering="crispEdges"/><rect fill="#2d3740" x="719.8" y="391.9" width="207.4" height="24.65" shape-rendering="crispEdges"/><rect fill="#2d3740" x="927.2" y="391.9" width="12.2" height="24.65" shape-rendering="crispEdges"/><rect fill="#121212" x="939.4" y="391.9" width="146.4" height="24.65" shape-rendering="crispEdges"/><rect fill="#121212" x="1085.8" y="391.9" width="12.2" height="24.65" shape-rendering="crispEdges"/><rect fill="#121212" x="0" y="416.3" width="12.2" height="24.65" shape-rendering="crispEdges"/><rect fill="#121212" x="12.2" y="416.3" width="146.4" height="24.65" shape-rendering="crispEdges"/><rect fill="#2d3740" x="158.6" y="416.3" width="12.2" height="24.65" shape-rendering="crispEdges"/><rect fill="#2d3740" x="170.8" y="416.3" width="353.8" height="24.65" shape-rendering="crispEdges"/><rect fill="#2d3740" x="524.6" y="416.3" width="402.6" height="24.65" shape-rendering="crispEdges"/><rect fill="#2d3740" x="927.2" y="416.3" width="12.2" height="24.65" shape-rendering="crispEdges"/><rect fill="#121212" x="939.4" y="416.3" width="146.4" height="24.65" shape-rendering="crispEdges"/><rect fill="#121212" x="1085.8" y="416.3" width="12.2" height="24.65" shape-rendering="crispEdges"/><rect fill="#121212" x="0" y="440.7" width="12.2" height="24.65" shape-rendering="crispEdges"/><rect fill="#121212" x="12.2" y="440.7" width="146.4" height="24.65" shape-rendering="crispEdges"/><rect fill="#2d3740" x="158.6" y="440.7" width="12.2" height="24.65" shape-rendering="crispEdges"/><rect fill="#2d3740" x="170.8" y="440.7" width="353.8" height="24.65" shape-rendering="crispEdges"/><rect fill="#2d3740" x="524.6" y="440.7" width="402.6" height="24.65" shape-rendering="crispEdges"/><rect fill="#2d3740" x="927.2" y="440.7" width="12.2" height="24.65" shape-rendering="crispEdges"/><rect fill="#121212" x="939.4" y="440.7" width="146.4" height="24.65" shape-rendering="crispEdges"/><rect fill="#121212" x="1085.8" y="440.7" width="12.2" height="24.65" shape-rendering="crispEdges"/><rect fill="#121212" x="0" y="465.1" width="12.2" height="24.65" shape-rendering="crispEdges"/><rect fill="#121212" x="12.2" y="465.1" width="146.4" height="24.65" shape-rendering="crispEdges"/><rect fill="#2d3740" x="158.6" y="465.1" width="12.2" height="24.65" shape-rendering="crispEdges"/><rect fill="#2d3740" x="170.8" y="465.1" width="683.2" height="24.65" shape-rendering="crispEdges"/><rect fill="#2d3740" x="854" y="465.1" width="73.2" height="24.65" shape-rendering="crispEdges"/><rect fill="#2d3740" x="927.2" y="465.1" width="12.2" height="24.65" shape-rendering="crispEdges"/><rect fill="#121212" x="939.4" y="465.1" width="146.4" height="24.65" shape-rendering="crispEdges"/><rect fill="#121212" x="1085.8" y="465.1" width="12.2" height="24.65" shape-rendering="crispEdges"/><rect fill="#121212" x="0" y="489.5" width="12.2" height="24.65" shape-rendering="crispEdges"/><rect fill="#121212" x="12.2" y="489.5" width="146.4" height="24.65" shape-rendering="crispEdges"/><rect fill="#2d3740" x="158.6" y="489.5" width="12.2" height="24.65" shape-rendering="crispEdges"/><rect fill="#2d3740" x="170.8" y="489.5" width="317.2" height="24.65" shape-rendering="crispEdges"/><rect fill="#2d3740" x="488" y="489.5" width="439.2" height="24.65" shape-rendering="crispEdges"/><rect fill="#2d3740" x="927.2" y="489.5" width="12.2" height="24.65" shape-rendering="crispEdges"/><rect fill="#121212" x="939.4" y="489.5" width="146.4" height="24.65" shape-rendering="crispEdges"/><rect fill="#121212" x="1085.8" y="489.5" width="12.2" height="24.65" shape-rendering="crispEdges"/><rect fill="#121212" x="0" y="513.9" width="12.2" height="24.65" shape-rendering="crispEdges"/><rect fill="#121212" x="12.2" y="513.9" width="146.4" height="24.65" shape-rendering="crispEdges"/><rect fill="#2d3740" x="158.6" y="513.9" width="12.2" height="24.65" shape-rendering="crispEdges"/><rect fill="#2d3740" x="170.8" y="513.9" width="756.4" height="24.65" shape-rendering="crispEdges"/><rect fill="#2d3740" x="927.2" y="513.9" width="12.2" height="24.65" shape-rendering="crispEdges"/><rect fill="#121212" x="939.4" y="513.9" width="146.4" height="24.65" shape-rendering="crispEdges"/><rect fill="#121212" x="1085.8" y="513.9" width="12.2" height="24.65" shape-rendering="crispEdges"/><rect fill="#121212" x="0" y="538.3" width="12.2" height="24.65" shape-rendering="crispEdges"/><rect fill="#121212" x="12.2" y="538.3" width="1073.6" height="24.65" shape-rendering="crispEdges"/><rect fill="#121212" x="1085.8" y="538.3" width="12.2" height="24.65" shape-rendering="crispEdges"/><rect fill="#121212" x="0" y="562.7" width="12.2" height="24.65" shape-rendering="crispEdges"/><rect fill="#121212" x="12.2" y="562.7" width="1073.6" height="24.65" shape-rendering="crispEdges"/><rect fill="#121212" x="1085.8" y="562.7" width="12.2" height="24.65" shape-rendering="crispEdges"/><rect fill="#121212" x="0" y="587.1" width="1098" height="24.65" shape-rendering="crispEdges"/><rect fill="#121212" x="0" y="611.5" width="12.2" height="24.65" shape-rendering="crispEdges"/><rect fill="#121212" x="12.2" y="611.5" width="683.2" height="24.65" shape-rendering="crispEdges"/><rect fill="#121212" x="695.4" y="611.5" width="12.2" height="24.65" shape-rendering="crispEdges"/><rect fill="#121212" x="707.6" y="611.5" width="170.8" height="24.65" shape-rendering="crispEdges"/><rect fill="#121212" x="878.4" y="611.5" width="12.2" height="24.65" shape-rendering="crispEdges"/><rect fill="#121212" x="890.6" y="611.5" width="61" height="24.65" shape-rendering="crispEdges"/><rect fill="#121212" x="951.6" y="611.5" width="12.2" height="24.65" shape-rendering="crispEdges"/><rect fill="#121212" x="963.8" y="611.5" width="122" height="24.65" shape-rendering="crispEdges"/><rect fill="#121212" x="1085.8" y="611.5" width="12.2" height="24.65" shape-rendering="crispEdges"/>
    <g class="terminal-862653360-matrix">
    <text class="terminal-862653360-r2" x="12.2" y="20" textLength="85.4" clip-path="url(#terminal-862653360-line-0)">&#160;1:win&#160;</text><text class="terminal-862653360-r3" x="122" y="20" textLength="36.6" clip-path="url(#terminal-862653360-line-0)">[+]</text><text class="terminal-862653360-r4" x="1098" y="20" textLength="12.2" clip-path="url(#terminal-862653360-line-0)">
</text><text class="terminal-862653360-r5" x="0" y="44.4" textLength="12.2" clip-path="url(#terminal-862653360-line-1)">┌</text><text class="terminal-862653360-r5" x="12.2" y="44.4" textLength="85.4" clip-path="url(#terminal-862653360-line-1)">▀▀▀▀▀▀▀</text><text class="terminal-862653360-r5" x="97.6" y="44.4" textLength="951.6" clip-path="url(#terminal-862653360-line-1)">──────────────────────────────────────────────────────────────────────────────</text><text class="terminal-862653360-r6" x="1049.2" y="44.4" textLength="36.6" clip-path="url(#terminal-862653360-line-1)">[x]</text><text class="terminal-862653360-r5" x="1085.8" y="44.4" textLength="12.2" clip-path="url(#terminal-862653360-line-1)">┐</text><text class="terminal-862653360-r4" x="1098" y="44.4" textLength="12.2" clip-path="url(#terminal-862653360-line-1)">
</text><text class="terminal-862653360-r5" x="0" y="68.8" textLength="12.2" clip-path="url(#terminal-862653360-line-2)">│</text><text class="terminal-862653360-r7" x="12.2" y="68.8" textLength="353.8" clip-path="url(#terminal-862653360-line-2)">neoocean@playground&#160;pytmux&#160;%&#160;</text><text class="terminal-862653360-r8" x="1049.2" y="68.8" textLength="48.8" clip-path="url(#terminal-862653360-line-2)">[EN]</text><text class="terminal-862653360-r4" x="1098" y="68.8" textLength="12.2" clip-path="url(#terminal-862653360-line-2)">
</text><text class="terminal-862653360-r5" x="0" y="93.2" textLength="12.2" clip-path="url(#terminal-862653360-line-3)">│</text><text class="terminal-862653360-r9" x="158.6" y="93.2" textLength="12.2" clip-path="url(#terminal-862653360-line-3)">╭</text><text class="terminal-862653360-r9" x="170.8" y="93.2" textLength="756.4" clip-path="url(#terminal-862653360-line-3)">──────────────────────────────────────────────────────────────</text><text class="terminal-862653360-r9" x="927.2" y="93.2" textLength="12.2" clip-path="url(#terminal-862653360-line-3)">╮</text><text class="terminal-862653360-r5" x="1085.8" y="93.2" textLength="12.2" clip-path="url(#terminal-862653360-line-3)">│</text><text class="terminal-862653360-r4" x="1098" y="93.2" textLength="12.2" clip-path="url(#terminal-862653360-line-3)">
</text><text class="terminal-862653360-r5" x="0" y="117.6" textLength="12.2" clip-path="url(#terminal-862653360-line-4)">│</text><text class="terminal-862653360-r9" x="158.6" y="117.6" textLength="12.2" clip-path="url(#terminal-862653360-line-4)">│</text><text class="terminal-862653360-r10" x="170.8" y="117.6" textLength="256.2" clip-path="url(#terminal-862653360-line-4)">토큰리밋&#160;자동재개&#160;&#160;&#160;○</text><text class="terminal-862653360-r9" x="927.2" y="117.6" textLength="12.2" clip-path="url(#terminal-862653360-line-4)">│</text><text class="terminal-862653360-r5" x="1085.8" y="117.6" textLength="12.2" clip-path="url(#terminal-862653360-line-4)">│</text><text class="terminal-862653360-r4" x="1098" y="117.6" textLength="12.2" clip-path="url(#terminal-862653360-line-4)">
</text><text class="terminal-862653360-r5" x="0" y="142" textLength="12.2" clip-path="url(#terminal-862653360-line-5)">│</text><text class="terminal-862653360-r9" x="158.6" y="142" textLength="12.2" clip-path="url(#terminal-862653360-line-5)">│</text><text class="terminal-862653360-r11" x="170.8" y="142" textLength="597.8" clip-path="url(#terminal-862653360-line-5)">실측&#160;세션한도&#160;게이트(자동재개&#160;보류&#160;%)&#160;&#160;&#160;실측&#160;≥95%</text><text class="terminal-862653360-r9" x="927.2" y="142" textLength="12.2" clip-path="url(#terminal-862653360-line-5)">│</text><text class="terminal-862653360-r5" x="1085.8" y="142" textLength="12.2" clip-path="url(#terminal-862653360-line-5)">│</text><text class="terminal-862653360-r4" x="1098" y="142" textLength="12.2" clip-path="url(#terminal-862653360-line-5)">
</text><text class="terminal-862653360-r5" x="0" y="166.4" textLength="12.2" clip-path="url(#terminal-862653360-line-6)">│</text><text class="terminal-862653360-r9" x="158.6" y="166.4" textLength="12.2" clip-path="url(#terminal-862653360-line-6)">│</text><text class="terminal-862653360-r11" x="170.8" y="166.4" textLength="341.6" clip-path="url(#terminal-862653360-line-6)">실측&#160;주간한도&#160;게이트(%)&#160;&#160;&#160;끔</text><text class="terminal-862653360-r9" x="927.2" y="166.4" textLength="12.2" clip-path="url(#terminal-862653360-line-6)">│</text><text class="terminal-862653360-r5" x="1085.8" y="166.4" textLength="12.2" clip-path="url(#terminal-862653360-line-6)">│</text><text class="terminal-862653360-r4" x="1098" y="166.4" textLength="12.2" clip-path="url(#terminal-862653360-line-6)">
</text><text class="terminal-862653360-r5" x="0" y="190.8" textLength="12.2" clip-path="url(#terminal-862653360-line-7)">│</text><text class="terminal-862653360-r9" x="158.6" y="190.8" textLength="12.2" clip-path="url(#terminal-862653360-line-7)">│</text><text class="terminal-862653360-r11" x="170.8" y="190.8" textLength="610" clip-path="url(#terminal-862653360-line-7)">실측&#160;한도&#160;압박(게이트의&#160;80%)&#160;시&#160;plan&#160;모드&#160;유도&#160;&#160;&#160;○</text><text class="terminal-862653360-r9" x="927.2" y="190.8" textLength="12.2" clip-path="url(#terminal-862653360-line-7)">│</text><text class="terminal-862653360-r5" x="1085.8" y="190.8" textLength="12.2" clip-path="url(#terminal-862653360-line-7)">│</text><text class="terminal-862653360-r4" x="1098" y="190.8" textLength="12.2" clip-path="url(#terminal-862653360-line-7)">
</text><text class="terminal-862653360-r5" x="0" y="215.2" textLength="12.2" clip-path="url(#terminal-862653360-line-8)">│</text><text class="terminal-862653360-r9" x="158.6" y="215.2" textLength="12.2" clip-path="url(#terminal-862653360-line-8)">│</text><text class="terminal-862653360-r11" x="170.8" y="215.2" textLength="427" clip-path="url(#terminal-862653360-line-8)">컨텍스트&#160;잔량&#160;부족&#160;시&#160;자동&#160;정리&#160;&#160;&#160;○</text><text class="terminal-862653360-r9" x="927.2" y="215.2" textLength="12.2" clip-path="url(#terminal-862653360-line-8)">│</text><text class="terminal-862653360-r5" x="1085.8" y="215.2" textLength="12.2" clip-path="url(#terminal-862653360-line-8)">│</text><text class="terminal-862653360-r4" x="1098" y="215.2" textLength="12.2" clip-path="url(#terminal-862653360-line-8)">
</text><text class="terminal-862653360-r5" x="0" y="239.6" textLength="12.2" clip-path="url(#terminal-862653360-line-9)">│</text><text class="terminal-862653360-r9" x="158.6" y="239.6" textLength="12.2" clip-path="url(#terminal-862653360-line-9)">│</text><text class="terminal-862653360-r11" x="170.8" y="239.6" textLength="292.8" clip-path="url(#terminal-862653360-line-9)">&#160;&#160;└&#160;정리&#160;방식&#160;&#160;&#160;/compact</text><text class="terminal-862653360-r9" x="927.2" y="239.6" textLength="12.2" clip-path="url(#terminal-862653360-line-9)">│</text><text class="terminal-862653360-r5" x="1085.8" y="239.6" textLength="12.2" clip-path="url(#terminal-862653360-line-9)">│</text><text class="terminal-862653360-r4" x="1098" y="239.6" textLength="12.2" clip-path="url(#terminal-862653360-line-9)">
</text><text class="terminal-862653360-r5" x="0" y="264" textLength="12.2" clip-path="url(#terminal-862653360-line-10)">│</text><text class="terminal-862653360-r9" x="158.6" y="264" textLength="12.2" clip-path="url(#terminal-862653360-line-10)">│</text><text class="terminal-862653360-r11" x="170.8" y="264" textLength="292.8" clip-path="url(#terminal-862653360-line-10)">&#160;&#160;└&#160;잔량&#160;임계&#160;&#160;&#160;잔량&lt;15%</text><text class="terminal-862653360-r9" x="927.2" y="264" textLength="12.2" clip-path="url(#terminal-862653360-line-10)">│</text><text class="terminal-862653360-r5" x="1085.8" y="264" textLength="12.2" clip-path="url(#terminal-862653360-line-10)">│</text><text class="terminal-862653360-r4" x="1098" y="264" textLength="12.2" clip-path="url(#terminal-862653360-line-10)">
</text><text class="terminal-862653360-r5" x="0" y="288.4" textLength="12.2" clip-path="url(#terminal-862653360-line-11)">│</text><text class="terminal-862653360-r9" x="158.6" y="288.4" textLength="12.2" clip-path="url(#terminal-862653360-line-11)">│</text><text class="terminal-862653360-r11" x="170.8" y="288.4" textLength="475.8" clip-path="url(#terminal-862653360-line-11)">&#160;&#160;└&#160;정리&#160;빈도&#160;상한&#160;&#160;&#160;120초마다&#160;최대&#160;1회</text><text class="terminal-862653360-r9" x="927.2" y="288.4" textLength="12.2" clip-path="url(#terminal-862653360-line-11)">│</text><text class="terminal-862653360-r5" x="1085.8" y="288.4" textLength="12.2" clip-path="url(#terminal-862653360-line-11)">│</text><text class="terminal-862653360-r4" x="1098" y="288.4" textLength="12.2" clip-path="url(#terminal-862653360-line-11)">
</text><text class="terminal-862653360-r5" x="0" y="312.8" textLength="12.2" clip-path="url(#terminal-862653360-line-12)">│</text><text class="terminal-862653360-r9" x="158.6" y="312.8" textLength="12.2" clip-path="url(#terminal-862653360-line-12)">│</text><text class="terminal-862653360-r11" x="170.8" y="312.8" textLength="427" clip-path="url(#terminal-862653360-line-12)">idle&#160;지속&#160;시&#160;자동&#160;문서화+/clear&#160;&#160;&#160;○</text><text class="terminal-862653360-r9" x="927.2" y="312.8" textLength="12.2" clip-path="url(#terminal-862653360-line-12)">│</text><text class="terminal-862653360-r5" x="1085.8" y="312.8" textLength="12.2" clip-path="url(#terminal-862653360-line-12)">│</text><text class="terminal-862653360-r4" x="1098" y="312.8" textLength="12.2" clip-path="url(#terminal-862653360-line-12)">
</text><text class="terminal-862653360-r5" x="0" y="337.2" textLength="12.2" clip-path="url(#terminal-862653360-line-13)">│</text><text class="terminal-862653360-r9" x="158.6" y="337.2" textLength="12.2" clip-path="url(#terminal-862653360-line-13)">│</text><text class="terminal-862653360-r11" x="170.8" y="337.2" textLength="366" clip-path="url(#terminal-862653360-line-13)">idle&#160;지속&#160;시&#160;자동&#160;/compact&#160;&#160;&#160;○</text><text class="terminal-862653360-r9" x="927.2" y="337.2" textLength="12.2" clip-path="url(#terminal-862653360-line-13)">│</text><text class="terminal-862653360-r5" x="1085.8" y="337.2" textLength="12.2" clip-path="url(#terminal-862653360-line-13)">│</text><text class="terminal-862653360-r4" x="1098" y="337.2" textLength="12.2" clip-path="url(#terminal-862653360-line-13)">
</text><text class="terminal-862653360-r5" x="0" y="361.6" textLength="12.2" clip-path="url(#terminal-862653360-line-14)">│</text><text class="terminal-862653360-r9" x="158.6" y="361.6" textLength="12.2" clip-path="url(#terminal-862653360-line-14)">│</text><text class="terminal-862653360-r11" x="170.8" y="361.6" textLength="524.6" clip-path="url(#terminal-862653360-line-14)">컨텍스트&#160;하드스톱&#160;시&#160;즉시&#160;자동&#160;/compact&#160;&#160;&#160;●</text><text class="terminal-862653360-r9" x="927.2" y="361.6" textLength="12.2" clip-path="url(#terminal-862653360-line-14)">│</text><text class="terminal-862653360-r5" x="1085.8" y="361.6" textLength="12.2" clip-path="url(#terminal-862653360-line-14)">│</text><text class="terminal-862653360-r4" x="1098" y="361.6" textLength="12.2" clip-path="url(#terminal-862653360-line-14)">
</text><text class="terminal-862653360-r5" x="0" y="386" textLength="12.2" clip-path="url(#terminal-862653360-line-15)">│</text><text class="terminal-862653360-r9" x="158.6" y="386" textLength="12.2" clip-path="url(#terminal-862653360-line-15)">│</text><text class="terminal-862653360-r11" x="170.8" y="386" textLength="268.4" clip-path="url(#terminal-862653360-line-15)">권한모드&#160;자동&#160;오토&#160;&#160;&#160;○</text><text class="terminal-862653360-r9" x="927.2" y="386" textLength="12.2" clip-path="url(#terminal-862653360-line-15)">│</text><text class="terminal-862653360-r5" x="1085.8" y="386" textLength="12.2" clip-path="url(#terminal-862653360-line-15)">│</text><text class="terminal-862653360-r4" x="1098" y="386" textLength="12.2" clip-path="url(#terminal-862653360-line-15)">
</text><text class="terminal-862653360-r5" x="0" y="410.4" textLength="12.2" clip-path="url(#terminal-862653360-line-16)">│</text><text class="terminal-862653360-r9" x="158.6" y="410.4" textLength="12.2" clip-path="url(#terminal-862653360-line-16)">│</text><text class="terminal-862653360-r11" x="170.8" y="410.4" textLength="549" clip-path="url(#terminal-862653360-line-16)">프롬프트&#160;단위&#160;클리어(완료마다&#160;doc+/clear)&#160;&#160;&#160;○</text><text class="terminal-862653360-r9" x="927.2" y="410.4" textLength="12.2" clip-path="url(#terminal-862653360-line-16)">│</text><text class="terminal-862653360-r5" x="1085.8" y="410.4" textLength="12.2" clip-path="url(#terminal-862653360-line-16)">│</text><text class="terminal-862653360-r4" x="1098" y="410.4" textLength="12.2" clip-path="url(#terminal-862653360-line-16)">
</text><text class="terminal-862653360-r5" x="0" y="434.8" textLength="12.2" clip-path="url(#terminal-862653360-line-17)">│</text><text class="terminal-862653360-r9" x="158.6" y="434.8" textLength="12.2" clip-path="url(#terminal-862653360-line-17)">│</text><text class="terminal-862653360-r11" x="170.8" y="434.8" textLength="353.8" clip-path="url(#terminal-862653360-line-17)">장기&#160;턴&#160;경고(초)&#160;&#160;&#160;600초&#160;이상</text><text class="terminal-862653360-r9" x="927.2" y="434.8" textLength="12.2" clip-path="url(#terminal-862653360-line-17)">│</text><text class="terminal-862653360-r5" x="1085.8" y="434.8" textLength="12.2" clip-path="url(#terminal-862653360-line-17)">│</text><text class="terminal-862653360-r4" x="1098" y="434.8" textLength="12.2" clip-path="url(#terminal-862653360-line-17)">
</text><text class="terminal-862653360-r5" x="0" y="459.2" textLength="12.2" clip-path="url(#terminal-862653360-line-18)">│</text><text class="terminal-862653360-r9" x="158.6" y="459.2" textLength="12.2" clip-path="url(#terminal-862653360-line-18)">│</text><text class="terminal-862653360-r11" x="170.8" y="459.2" textLength="353.8" clip-path="url(#terminal-862653360-line-18)">반복&#160;루프&#160;경고(회)&#160;&#160;&#160;3회&#160;이상</text><text class="terminal-862653360-r9" x="927.2" y="459.2" textLength="12.2" clip-path="url(#terminal-862653360-line-18)">│</text><text class="terminal-862653360-r5" x="1085.8" y="459.2" textLength="12.2" clip-path="url(#terminal-862653360-line-18)">│</text><text class="terminal-862653360-r4" x="1098" y="459.2" textLength="12.2" clip-path="url(#terminal-862653360-line-18)">
</text><text class="terminal-862653360-r5" x="0" y="483.6" textLength="12.2" clip-path="url(#terminal-862653360-line-19)">│</text><text class="terminal-862653360-r9" x="158.6" y="483.6" textLength="12.2" clip-path="url(#terminal-862653360-line-19)">│</text><text class="terminal-862653360-r11" x="170.8" y="483.6" textLength="683.2" clip-path="url(#terminal-862653360-line-19)">모델&#160;과선택&#160;힌트(Opus&#160;반복+여유&#160;시&#160;가벼운&#160;모델&#160;제안)&#160;&#160;&#160;○</text><text class="terminal-862653360-r9" x="927.2" y="483.6" textLength="12.2" clip-path="url(#terminal-862653360-line-19)">│</text><text class="terminal-862653360-r5" x="1085.8" y="483.6" textLength="12.2" clip-path="url(#terminal-862653360-line-19)">│</text><text class="terminal-862653360-r4" x="1098" y="483.6" textLength="12.2" clip-path="url(#terminal-862653360-line-19)">
</text><text class="terminal-862653360-r5" x="0" y="508" textLength="12.2" clip-path="url(#terminal-862653360-line-20)">│</text><text class="terminal-862653360-r9" x="158.6" y="508" textLength="12.2" clip-path="url(#terminal-862653360-line-20)">│</text><text class="terminal-862653360-r12" x="170.8" y="508" textLength="317.2" clip-path="url(#terminal-862653360-line-20)">Enter&#160;토글/순환&#160;·&#160;ESC&#160;닫기</text><text class="terminal-862653360-r9" x="927.2" y="508" textLength="12.2" clip-path="url(#terminal-862653360-line-20)">│</text><text class="terminal-862653360-r5" x="1085.8" y="508" textLength="12.2" clip-path="url(#terminal-862653360-line-20)">│</text><text class="terminal-862653360-r4" x="1098" y="508" textLength="12.2" clip-path="url(#terminal-862653360-line-20)">
</text><text class="terminal-862653360-r5" x="0" y="532.4" textLength="12.2" clip-path="url(#terminal-862653360-line-21)">│</text><text class="terminal-862653360-r9" x="158.6" y="532.4" textLength="12.2" clip-path="url(#terminal-862653360-line-21)">╰</text><text class="terminal-862653360-r9" x="170.8" y="532.4" textLength="756.4" clip-path="url(#terminal-862653360-line-21)">──────────────────────────────────────────────────────────────</text><text class="terminal-862653360-r9" x="927.2" y="532.4" textLength="12.2" clip-path="url(#terminal-862653360-line-21)">╯</text><text class="terminal-862653360-r5" x="1085.8" y="532.4" textLength="12.2" clip-path="url(#terminal-862653360-line-21)">│</text><text class="terminal-862653360-r4" x="1098" y="532.4" textLength="12.2" clip-path="url(#terminal-862653360-line-21)">
</text><text class="terminal-862653360-r5" x="0" y="556.8" textLength="12.2" clip-path="url(#terminal-862653360-line-22)">│</text><text class="terminal-862653360-r5" x="1085.8" y="556.8" textLength="12.2" clip-path="url(#terminal-862653360-line-22)">│</text><text class="terminal-862653360-r4" x="1098" y="556.8" textLength="12.2" clip-path="url(#terminal-862653360-line-22)">
</text><text class="terminal-862653360-r5" x="0" y="581.2" textLength="12.2" clip-path="url(#terminal-862653360-line-23)">│</text><text class="terminal-862653360-r5" x="1085.8" y="581.2" textLength="12.2" clip-path="url(#terminal-862653360-line-23)">│</text><text class="terminal-862653360-r4" x="1098" y="581.2" textLength="12.2" clip-path="url(#terminal-862653360-line-23)">
</text><text class="terminal-862653360-r5" x="0" y="605.6" textLength="1098" clip-path="url(#terminal-862653360-line-24)">└────────────────────────────────────────────────────────────────────────────────────────┘</text><text class="terminal-862653360-r4" x="1098" y="605.6" textLength="12.2" clip-path="url(#terminal-862653360-line-24)">
</text><text class="terminal-862653360-r13" x="707.6" y="630" textLength="170.8" clip-path="url(#terminal-862653360-line-25)">ssh:playground</text><text class="terminal-862653360-r1" x="890.6" y="630" textLength="61" clip-path="url(#terminal-862653360-line-25)">19:22</text><text class="terminal-862653360-r1" x="963.8" y="630" textLength="122" clip-path="url(#terminal-862653360-line-25)">2026-06-14</text>
    </g>
    </g>
</svg>
