<svg class="rich-terminal" viewBox="0 0 1116 684.4" xmlns="http://www.w3.org/2000/svg">
    <!-- Generated with Rich https://www.textualize.io -->
    <style>

    @font-face {
        font-family: "Fira Code";
        src: local("FiraCode-Regular"),
                url("https://cdnjs.cloudflare.com/ajax/libs/firacode/6.2.0/woff2/FiraCode-Regular.woff2") format("woff2"),
                url("https://cdnjs.cloudflare.com/ajax/libs/firacode/6.2.0/woff/FiraCode-Regular.woff") format("woff");
        font-style: normal;
        font-weight: 400;
    }
    @font-face {
        font-family: "Fira Code";
        src: local("FiraCode-Bold"),
                url("https://cdnjs.cloudflare.com/ajax/libs/firacode/6.2.0/woff2/FiraCode-Bold.woff2") format("woff2"),
                url("https://cdnjs.cloudflare.com/ajax/libs/firacode/6.2.0/woff/FiraCode-Bold.woff") format("woff");
        font-style: bold;
        font-weight: 700;
    }

    .terminal-1557999931-matrix {
        font-family: Fira Code, monospace;
        font-size: 20px;
        line-height: 24.4px;
        font-variant-east-asian: full-width;
    }

    .terminal-1557999931-title {
        font-size: 18px;
        font-weight: bold;
        font-family: arial;
    }

    .terminal-1557999931-r1 { fill: #646464 }
.terminal-1557999931-r2 { fill: #595953;font-weight: bold }
.terminal-1557999931-r3 { fill: #151515;font-weight: bold }
.terminal-1557999931-r4 { fill: #c5c8c6 }
.terminal-1557999931-r5 { fill: #0a2030 }
.terminal-1557999931-r6 { fill: #222222 }
.terminal-1557999931-r7 { fill: #2d2d2d }
.terminal-1557999931-r8 { fill: #fea62b }
.terminal-1557999931-r9 { fill: #fea62b;font-weight: bold }
.terminal-1557999931-r10 { fill: #f5e5e9;font-weight: bold }
.terminal-1557999931-r11 { fill: #a5a5a5 }
.terminal-1557999931-r12 { fill: #211505;font-weight: bold }
.terminal-1557999931-r13 { fill: #dde8f3 }
.terminal-1557999931-r14 { fill: #e0e0e0 }
.terminal-1557999931-r15 { fill: #272727 }
.terminal-1557999931-r16 { fill: #000000 }
.terminal-1557999931-r17 { fill: #54222f;font-weight: bold }
    </style>

    <defs>
    <clipPath id="terminal-1557999931-clip-terminal">
      <rect x="0" y="0" width="1097.0" height="633.4" />
    </clipPath>
    <clipPath id="terminal-1557999931-line-0">
    <rect x="0" y="1.5" width="1098" height="24.65"/>
            </clipPath>
<clipPath id="terminal-1557999931-line-1">
    <rect x="0" y="25.9" width="1098" height="24.65"/>
            </clipPath>
<clipPath id="terminal-1557999931-line-2">
    <rect x="0" y="50.3" width="1098" height="24.65"/>
            </clipPath>
<clipPath id="terminal-1557999931-line-3">
    <rect x="0" y="74.7" width="1098" height="24.65"/>
            </clipPath>
<clipPath id="terminal-1557999931-line-4">
    <rect x="0" y="99.1" width="1098" height="24.65"/>
            </clipPath>
<clipPath id="terminal-1557999931-line-5">
    <rect x="0" y="123.5" width="1098" height="24.65"/>
            </clipPath>
<clipPath id="terminal-1557999931-line-6">
    <rect x="0" y="147.9" width="1098" height="24.65"/>
            </clipPath>
<clipPath id="terminal-1557999931-line-7">
    <rect x="0" y="172.3" width="1098" height="24.65"/>
            </clipPath>
<clipPath id="terminal-1557999931-line-8">
    <rect x="0" y="196.7" width="1098" height="24.65"/>
            </clipPath>
<clipPath id="terminal-1557999931-line-9">
    <rect x="0" y="221.1" width="1098" height="24.65"/>
            </clipPath>
<clipPath id="terminal-1557999931-line-10">
    <rect x="0" y="245.5" width="1098" height="24.65"/>
            </clipPath>
<clipPath id="terminal-1557999931-line-11">
    <rect x="0" y="269.9" width="1098" height="24.65"/>
            </clipPath>
<clipPath id="terminal-1557999931-line-12">
    <rect x="0" y="294.3" width="1098" height="24.65"/>
            </clipPath>
<clipPath id="terminal-1557999931-line-13">
    <rect x="0" y="318.7" width="1098" height="24.65"/>
            </clipPath>
<clipPath id="terminal-1557999931-line-14">
    <rect x="0" y="343.1" width="1098" height="24.65"/>
            </clipPath>
<clipPath id="terminal-1557999931-line-15">
    <rect x="0" y="367.5" width="1098" height="24.65"/>
            </clipPath>
<clipPath id="terminal-1557999931-line-16">
    <rect x="0" y="391.9" width="1098" height="24.65"/>
            </clipPath>
<clipPath id="terminal-1557999931-line-17">
    <rect x="0" y="416.3" width="1098" height="24.65"/>
            </clipPath>
<clipPath id="terminal-1557999931-line-18">
    <rect x="0" y="440.7" width="1098" height="24.65"/>
            </clipPath>
<clipPath id="terminal-1557999931-line-19">
    <rect x="0" y="465.1" width="1098" height="24.65"/>
            </clipPath>
<clipPath id="terminal-1557999931-line-20">
    <rect x="0" y="489.5" width="1098" height="24.65"/>
            </clipPath>
<clipPath id="terminal-1557999931-line-21">
    <rect x="0" y="513.9" width="1098" height="24.65"/>
            </clipPath>
<clipPath id="terminal-1557999931-line-22">
    <rect x="0" y="538.3" width="1098" height="24.65"/>
            </clipPath>
<clipPath id="terminal-1557999931-line-23">
    <rect x="0" y="562.7" width="1098" height="24.65"/>
            </clipPath>
<clipPath id="terminal-1557999931-line-24">
    <rect x="0" y="587.1" width="1098" height="24.65"/>
            </clipPath>
    </defs>

    <rect fill="#292929" stroke="rgba(255,255,255,0.35)" stroke-width="1" x="1" y="1" width="1114" height="682.4" rx="8"/><text class="terminal-1557999931-title" fill="#c5c8c6" text-anchor="middle" x="557" y="27">PytmuxApp</text>
            <g transform="translate(26,22)">
            <circle cx="0" cy="0" r="7" fill="#ff5f57"/>
            <circle cx="22" cy="0" r="7" fill="#febc2e"/>
            <circle cx="44" cy="0" r="7" fill="#28c840"/>
            </g>
        
    <g transform="translate(9, 41)" clip-path="url(#terminal-1557999931-clip-terminal)">
    <rect fill="#121212" x="0" y="1.5" width="12.2" height="24.65" shape-rendering="crispEdges"/><rect fill="#0b3a5f" x="12.2" y="1.5" width="85.4" height="24.65" shape-rendering="crispEdges"/><rect fill="#121212" x="97.6" y="1.5" width="24.4" height="24.65" shape-rendering="crispEdges"/><rect fill="#2a5738" x="122" y="1.5" width="36.6" height="24.65" shape-rendering="crispEdges"/><rect fill="#121212" x="158.6" y="1.5" width="939.4" height="24.65" shape-rendering="crispEdges"/><rect fill="#121212" x="0" y="25.9" width="12.2" height="24.65" shape-rendering="crispEdges"/><rect fill="#121212" x="12.2" y="25.9" width="85.4" height="24.65" shape-rendering="crispEdges"/><rect fill="#121212" x="97.6" y="25.9" width="1000.4" height="24.65" shape-rendering="crispEdges"/><rect fill="#121212" x="0" y="50.3" width="12.2" height="24.65" shape-rendering="crispEdges"/><rect fill="#121212" x="12.2" y="50.3" width="353.8" height="24.65" shape-rendering="crispEdges"/><rect fill="#121212" x="366" y="50.3" width="12.2" height="24.65" shape-rendering="crispEdges"/><rect fill="#121212" x="378.2" y="50.3" width="671" height="24.65" shape-rendering="crispEdges"/><rect fill="#2c151a" x="1049.2" y="50.3" width="36.6" height="24.65" shape-rendering="crispEdges"/><rect fill="#121212" x="1085.8" y="50.3" width="12.2" height="24.65" shape-rendering="crispEdges"/><rect fill="#121212" x="0" y="74.7" width="12.2" height="24.65" shape-rendering="crispEdges"/><rect fill="#121212" x="12.2" y="74.7" width="1073.6" height="24.65" shape-rendering="crispEdges"/><rect fill="#121212" x="1085.8" y="74.7" width="12.2" height="24.65" shape-rendering="crispEdges"/><rect fill="#121212" x="0" y="99.1" width="12.2" height="24.65" shape-rendering="crispEdges"/><rect fill="#121212" x="12.2" y="99.1" width="1073.6" height="24.65" shape-rendering="crispEdges"/><rect fill="#121212" x="1085.8" y="99.1" width="12.2" height="24.65" shape-rendering="crispEdges"/><rect fill="#121212" x="0" y="123.5" width="12.2" height="24.65" shape-rendering="crispEdges"/><rect fill="#121212" x="12.2" y="123.5" width="1073.6" height="24.65" shape-rendering="crispEdges"/><rect fill="#121212" x="1085.8" y="123.5" width="12.2" height="24.65" shape-rendering="crispEdges"/><rect fill="#121212" x="0" y="147.9" width="12.2" height="24.65" shape-rendering="crispEdges"/><rect fill="#121212" x="12.2" y="147.9" width="12.2" height="24.65" shape-rendering="crispEdges"/><rect fill="#242f38" x="24.4" y="147.9" width="12.2" height="24.65" shape-rendering="crispEdges"/><rect fill="#242f38" x="36.6" y="147.9" width="1024.8" height="24.65" shape-rendering="crispEdges"/><rect fill="#242f38" x="1061.4" y="147.9" width="12.2" height="24.65" shape-rendering="crispEdges"/><rect fill="#121212" x="1073.6" y="147.9" width="12.2" height="24.65" shape-rendering="crispEdges"/><rect fill="#121212" x="1085.8" y="147.9" width="12.2" height="24.65" shape-rendering="crispEdges"/><rect fill="#121212" x="0" y="172.3" width="12.2" height="24.65" shape-rendering="crispEdges"/><rect fill="#121212" x="12.2" y="172.3" width="12.2" height="24.65" shape-rendering="crispEdges"/><rect fill="#242f38" x="24.4" y="172.3" width="12.2" height="24.65" shape-rendering="crispEdges"/><rect fill="#242f38" x="36.6" y="172.3" width="12.2" height="24.65" shape-rendering="crispEdges"/><rect fill="#242f38" x="48.8" y="172.3" width="268.4" height="24.65" shape-rendering="crispEdges"/><rect fill="#242f38" x="317.2" y="172.3" width="671" height="24.65" shape-rendering="crispEdges"/><rect fill="#b93c5b" x="988.2" y="172.3" width="12.2" height="24.65" shape-rendering="crispEdges"/><rect fill="#b93c5b" x="1000.4" y="172.3" width="36.6" height="24.65" shape-rendering="crispEdges"/><rect fill="#b93c5b" x="1037" y="172.3" width="12.2" height="24.65" shape-rendering="crispEdges"/><rect fill="#242f38" x="1049.2" y="172.3" width="12.2" height="24.65" shape-rendering="crispEdges"/><rect fill="#242f38" x="1061.4" y="172.3" width="12.2" height="24.65" shape-rendering="crispEdges"/><rect fill="#121212" x="1073.6" y="172.3" width="12.2" height="24.65" shape-rendering="crispEdges"/><rect fill="#121212" x="1085.8" y="172.3" width="12.2" height="24.65" shape-rendering="crispEdges"/><rect fill="#121212" x="0" y="196.7" width="12.2" height="24.65" shape-rendering="crispEdges"/><rect fill="#121212" x="12.2" y="196.7" width="12.2" height="24.65" shape-rendering="crispEdges"/><rect fill="#242f38" x="24.4" y="196.7" width="12.2" height="24.65" shape-rendering="crispEdges"/><rect fill="#242f38" x="36.6" y="196.7" width="12.2" height="24.65" shape-rendering="crispEdges"/><rect fill="#1e1e1e" x="48.8" y="196.7" width="12.2" height="24.65" shape-rendering="crispEdges"/><rect fill="#1e1e1e" x="61" y="196.7" width="48.8" height="24.65" shape-rendering="crispEdges"/><rect fill="#1e1e1e" x="109.8" y="196.7" width="12.2" height="24.65" shape-rendering="crispEdges"/><rect fill="#242f38" x="122" y="196.7" width="12.2" height="24.65" shape-rendering="crispEdges"/><rect fill="#fea62b" x="134.2" y="196.7" width="12.2" height="24.65" shape-rendering="crispEdges"/><rect fill="#fea62b" x="146.4" y="196.7" width="24.4" height="24.65" shape-rendering="crispEdges"/><rect fill="#fea62b" x="170.8" y="196.7" width="12.2" height="24.65" shape-rendering="crispEdges"/><rect fill="#242f38" x="183" y="196.7" width="12.2" height="24.65" shape-rendering="crispEdges"/><rect fill="#1e1e1e" x="195.2" y="196.7" width="12.2" height="24.65" shape-rendering="crispEdges"/><rect fill="#1e1e1e" x="207.4" y="196.7" width="24.4" height="24.65" shape-rendering="crispEdges"/><rect fill="#1e1e1e" x="231.8" y="196.7" width="12.2" height="24.65" shape-rendering="crispEdges"/><rect fill="#242f38" x="244" y="196.7" width="12.2" height="24.65" shape-rendering="crispEdges"/><rect fill="#1e1e1e" x="256.2" y="196.7" width="12.2" height="24.65" shape-rendering="crispEdges"/><rect fill="#1e1e1e" x="268.4" y="196.7" width="24.4" height="24.65" shape-rendering="crispEdges"/><rect fill="#1e1e1e" x="292.8" y="196.7" width="12.2" height="24.65" shape-rendering="crispEdges"/><rect fill="#242f38" x="305" y="196.7" width="12.2" height="24.65" shape-rendering="crispEdges"/><rect fill="#0053aa" x="317.2" y="196.7" width="12.2" height="24.65" shape-rendering="crispEdges"/><rect fill="#0053aa" x="329.4" y="196.7" width="48.8" height="24.65" shape-rendering="crispEdges"/><rect fill="#0053aa" x="378.2" y="196.7" width="12.2" height="24.65" shape-rendering="crispEdges"/><rect fill="#242f38" x="390.4" y="196.7" width="12.2" height="24.65" shape-rendering="crispEdges"/><rect fill="#0053aa" x="402.6" y="196.7" width="12.2" height="24.65" shape-rendering="crispEdges"/><rect fill="#0053aa" x="414.8" y="196.7" width="73.2" height="24.65" shape-rendering="crispEdges"/><rect fill="#0053aa" x="488" y="196.7" width="12.2" height="24.65" shape-rendering="crispEdges"/><rect fill="#242f38" x="500.2" y="196.7" width="12.2" height="24.65" shape-rendering="crispEdges"/><rect fill="#0053aa" x="512.4" y="196.7" width="12.2" height="24.65" shape-rendering="crispEdges"/><rect fill="#0053aa" x="524.6" y="196.7" width="97.6" height="24.65" shape-rendering="crispEdges"/><rect fill="#0053aa" x="622.2" y="196.7" width="12.2" height="24.65" shape-rendering="crispEdges"/><rect fill="#242f38" x="634.4" y="196.7" width="414.8" height="24.65" shape-rendering="crispEdges"/><rect fill="#242f38" x="1049.2" y="196.7" width="12.2" height="24.65" shape-rendering="crispEdges"/><rect fill="#242f38" x="1061.4" y="196.7" width="12.2" height="24.65" shape-rendering="crispEdges"/><rect fill="#121212" x="1073.6" y="196.7" width="12.2" height="24.65" shape-rendering="crispEdges"/><rect fill="#121212" x="1085.8" y="196.7" width="12.2" height="24.65" shape-rendering="crispEdges"/><rect fill="#121212" x="0" y="221.1" width="12.2" height="24.65" shape-rendering="crispEdges"/><rect fill="#121212" x="12.2" y="221.1" width="12.2" height="24.65" shape-rendering="crispEdges"/><rect fill="#242f38" x="24.4" y="221.1" width="12.2" height="24.65" shape-rendering="crispEdges"/><rect fill="#242f38" x="36.6" y="221.1" width="12.2" height="24.65" shape-rendering="crispEdges"/><rect fill="#272727" x="48.8" y="221.1" width="366" height="24.65" shape-rendering="crispEdges"/><rect fill="#272727" x="414.8" y="221.1" width="610" height="24.65" shape-rendering="crispEdges"/><rect fill="#003054" x="1024.8" y="221.1" width="24.4" height="24.65" shape-rendering="crispEdges"/><rect fill="#242f38" x="1049.2" y="221.1" width="12.2" height="24.65" shape-rendering="crispEdges"/><rect fill="#242f38" x="1061.4" y="221.1" width="12.2" height="24.65" shape-rendering="crispEdges"/><rect fill="#121212" x="1073.6" y="221.1" width="12.2" height="24.65" shape-rendering="crispEdges"/><rect fill="#121212" x="1085.8" y="221.1" width="12.2" height="24.65" shape-rendering="crispEdges"/><rect fill="#121212" x="0" y="245.5" width="12.2" height="24.65" shape-rendering="crispEdges"/><rect fill="#121212" x="12.2" y="245.5" width="12.2" height="24.65" shape-rendering="crispEdges"/><rect fill="#242f38" x="24.4" y="245.5" width="12.2" height="24.65" shape-rendering="crispEdges"/><rect fill="#242f38" x="36.6" y="245.5" width="12.2" height="24.65" shape-rendering="crispEdges"/><rect fill="#272727" x="48.8" y="245.5" width="524.6" height="24.65" shape-rendering="crispEdges"/><rect fill="#272727" x="573.4" y="245.5" width="451.4" height="24.65" shape-rendering="crispEdges"/><rect fill="#003054" x="1024.8" y="245.5" width="24.4" height="24.65" shape-rendering="crispEdges"/><rect fill="#242f38" x="1049.2" y="245.5" width="12.2" height="24.65" shape-rendering="crispEdges"/><rect fill="#242f38" x="1061.4" y="245.5" width="12.2" height="24.65" shape-rendering="crispEdges"/><rect fill="#121212" x="1073.6" y="245.5" width="12.2" height="24.65" shape-rendering="crispEdges"/><rect fill="#121212" x="1085.8" y="245.5" width="12.2" height="24.65" shape-rendering="crispEdges"/><rect fill="#121212" x="0" y="269.9" width="12.2" height="24.65" shape-rendering="crispEdges"/><rect fill="#121212" x="12.2" y="269.9" width="12.2" height="24.65" shape-rendering="crispEdges"/><rect fill="#242f38" x="24.4" y="269.9" width="12.2" height="24.65" shape-rendering="crispEdges"/><rect fill="#242f38" x="36.6" y="269.9" width="12.2" height="24.65" shape-rendering="crispEdges"/><rect fill="#272727" x="48.8" y="269.9" width="707.6" height="24.65" shape-rendering="crispEdges"/><rect fill="#272727" x="756.4" y="269.9" width="268.4" height="24.65" shape-rendering="crispEdges"/><rect fill="#003054" x="1024.8" y="269.9" width="24.4" height="24.65" shape-rendering="crispEdges"/><rect fill="#242f38" x="1049.2" y="269.9" width="12.2" height="24.65" shape-rendering="crispEdges"/><rect fill="#242f38" x="1061.4" y="269.9" width="12.2" height="24.65" shape-rendering="crispEdges"/><rect fill="#121212" x="1073.6" y="269.9" width="12.2" height="24.65" shape-rendering="crispEdges"/><rect fill="#121212" x="1085.8" y="269.9" width="12.2" height="24.65" shape-rendering="crispEdges"/><rect fill="#121212" x="0" y="294.3" width="12.2" height="24.65" shape-rendering="crispEdges"/><rect fill="#121212" x="12.2" y="294.3" width="12.2" height="24.65" shape-rendering="crispEdges"/><rect fill="#242f38" x="24.4" y="294.3" width="12.2" height="24.65" shape-rendering="crispEdges"/><rect fill="#242f38" x="36.6" y="294.3" width="12.2" height="24.65" shape-rendering="crispEdges"/><rect fill="#272727" x="48.8" y="294.3" width="695.4" height="24.65" shape-rendering="crispEdges"/><rect fill="#272727" x="744.2" y="294.3" width="280.6" height="24.65" shape-rendering="crispEdges"/><rect fill="#003054" x="1024.8" y="294.3" width="24.4" height="24.65" shape-rendering="crispEdges"/><rect fill="#242f38" x="1049.2" y="294.3" width="12.2" height="24.65" shape-rendering="crispEdges"/><rect fill="#242f38" x="1061.4" y="294.3" width="12.2" height="24.65" shape-rendering="crispEdges"/><rect fill="#121212" x="1073.6" y="294.3" width="12.2" height="24.65" shape-rendering="crispEdges"/><rect fill="#121212" x="1085.8" y="294.3" width="12.2" height="24.65" shape-rendering="crispEdges"/><rect fill="#121212" x="0" y="318.7" width="12.2" height="24.65" shape-rendering="crispEdges"/><rect fill="#121212" x="12.2" y="318.7" width="12.2" height="24.65" shape-rendering="crispEdges"/><rect fill="#242f38" x="24.4" y="318.7" width="12.2" height="24.65" shape-rendering="crispEdges"/><rect fill="#242f38" x="36.6" y="318.7" width="12.2" height="24.65" shape-rendering="crispEdges"/><rect fill="#272727" x="48.8" y="318.7" width="646.6" height="24.65" shape-rendering="crispEdges"/><rect fill="#272727" x="695.4" y="318.7" width="329.4" height="24.65" shape-rendering="crispEdges"/><rect fill="#003054" x="1024.8" y="318.7" width="24.4" height="24.65" shape-rendering="crispEdges"/><rect fill="#242f38" x="1049.2" y="318.7" width="12.2" height="24.65" shape-rendering="crispEdges"/><rect fill="#242f38" x="1061.4" y="318.7" width="12.2" height="24.65" shape-rendering="crispEdges"/><rect fill="#121212" x="1073.6" y="318.7" width="12.2" height="24.65" shape-rendering="crispEdges"/><rect fill="#121212" x="1085.8" y="318.7" width="12.2" height="24.65" shape-rendering="crispEdges"/><rect fill="#121212" x="0" y="343.1" width="12.2" height="24.65" shape-rendering="crispEdges"/><rect fill="#121212" x="12.2" y="343.1" width="12.2" height="24.65" shape-rendering="crispEdges"/><rect fill="#242f38" x="24.4" y="343.1" width="12.2" height="24.65" shape-rendering="crispEdges"/><rect fill="#242f38" x="36.6" y="343.1" width="12.2" height="24.65" shape-rendering="crispEdges"/><rect fill="#272727" x="48.8" y="343.1" width="427" height="24.65" shape-rendering="crispEdges"/><rect fill="#272727" x="475.8" y="343.1" width="549" height="24.65" shape-rendering="crispEdges"/><rect fill="#003054" x="1024.8" y="343.1" width="24.4" height="24.65" shape-rendering="crispEdges"/><rect fill="#242f38" x="1049.2" y="343.1" width="12.2" height="24.65" shape-rendering="crispEdges"/><rect fill="#242f38" x="1061.4" y="343.1" width="12.2" height="24.65" shape-rendering="crispEdges"/><rect fill="#121212" x="1073.6" y="343.1" width="12.2" height="24.65" shape-rendering="crispEdges"/><rect fill="#121212" x="1085.8" y="343.1" width="12.2" height="24.65" shape-rendering="crispEdges"/><rect fill="#121212" x="0" y="367.5" width="12.2" height="24.65" shape-rendering="crispEdges"/><rect fill="#121212" x="12.2" y="367.5" width="12.2" height="24.65" shape-rendering="crispEdges"/><rect fill="#242f38" x="24.4" y="367.5" width="12.2" height="24.65" shape-rendering="crispEdges"/><rect fill="#242f38" x="36.6" y="367.5" width="12.2" height="24.65" shape-rendering="crispEdges"/><rect fill="#272727" x="48.8" y="367.5" width="219.6" height="24.65" shape-rendering="crispEdges"/><rect fill="#272727" x="268.4" y="367.5" width="756.4" height="24.65" shape-rendering="crispEdges"/><rect fill="#003054" x="1024.8" y="367.5" width="24.4" height="24.65" shape-rendering="crispEdges"/><rect fill="#242f38" x="1049.2" y="367.5" width="12.2" height="24.65" shape-rendering="crispEdges"/><rect fill="#242f38" x="1061.4" y="367.5" width="12.2" height="24.65" shape-rendering="crispEdges"/><rect fill="#121212" x="1073.6" y="367.5" width="12.2" height="24.65" shape-rendering="crispEdges"/><rect fill="#121212" x="1085.8" y="367.5" width="12.2" height="24.65" shape-rendering="crispEdges"/><rect fill="#121212" x="0" y="391.9" width="12.2" height="24.65" shape-rendering="crispEdges"/><rect fill="#121212" x="12.2" y="391.9" width="12.2" height="24.65" shape-rendering="crispEdges"/><rect fill="#242f38" x="24.4" y="391.9" width="12.2" height="24.65" shape-rendering="crispEdges"/><rect fill="#242f38" x="36.6" y="391.9" width="12.2" height="24.65" shape-rendering="crispEdges"/><rect fill="#272727" x="48.8" y="391.9" width="0" height="24.65" shape-rendering="crispEdges"/><rect fill="#272727" x="48.8" y="391.9" width="976" height="24.65" shape-rendering="crispEdges"/><rect fill="#000000" x="1024.8" y="391.9" width="24.4" height="24.65" shape-rendering="crispEdges"/><rect fill="#242f38" x="1049.2" y="391.9" width="12.2" height="24.65" shape-rendering="crispEdges"/><rect fill="#242f38" x="1061.4" y="391.9" width="12.2" height="24.65" shape-rendering="crispEdges"/><rect fill="#121212" x="1073.6" y="391.9" width="12.2" height="24.65" shape-rendering="crispEdges"/><rect fill="#121212" x="1085.8" y="391.9" width="12.2" height="24.65" shape-rendering="crispEdges"/><rect fill="#121212" x="0" y="416.3" width="12.2" height="24.65" shape-rendering="crispEdges"/><rect fill="#121212" x="12.2" y="416.3" width="12.2" height="24.65" shape-rendering="crispEdges"/><rect fill="#242f38" x="24.4" y="416.3" width="12.2" height="24.65" shape-rendering="crispEdges"/><rect fill="#242f38" x="36.6" y="416.3" width="12.2" height="24.65" shape-rendering="crispEdges"/><rect fill="#242f38" x="48.8" y="416.3" width="1000.4" height="24.65" shape-rendering="crispEdges"/><rect fill="#242f38" x="1049.2" y="416.3" width="12.2" height="24.65" shape-rendering="crispEdges"/><rect fill="#242f38" x="1061.4" y="416.3" width="12.2" height="24.65" shape-rendering="crispEdges"/><rect fill="#121212" x="1073.6" y="416.3" width="12.2" height="24.65" shape-rendering="crispEdges"/><rect fill="#121212" x="1085.8" y="416.3" width="12.2" height="24.65" shape-rendering="crispEdges"/><rect fill="#121212" x="0" y="440.7" width="12.2" height="24.65" shape-rendering="crispEdges"/><rect fill="#121212" x="12.2" y="440.7" width="12.2" height="24.65" shape-rendering="crispEdges"/><rect fill="#242f38" x="24.4" y="440.7" width="12.2" height="24.65" shape-rendering="crispEdges"/><rect fill="#242f38" x="36.6" y="440.7" width="12.2" height="24.65" shape-rendering="crispEdges"/><rect fill="#242f38" x="48.8" y="440.7" width="1000.4" height="24.65" shape-rendering="crispEdges"/><rect fill="#242f38" x="1049.2" y="440.7" width="12.2" height="24.65" shape-rendering="crispEdges"/><rect fill="#242f38" x="1061.4" y="440.7" width="12.2" height="24.65" shape-rendering="crispEdges"/><rect fill="#121212" x="1073.6" y="440.7" width="12.2" height="24.65" shape-rendering="crispEdges"/><rect fill="#121212" x="1085.8" y="440.7" width="12.2" height="24.65" shape-rendering="crispEdges"/><rect fill="#121212" x="0" y="465.1" width="12.2" height="24.65" shape-rendering="crispEdges"/><rect fill="#121212" x="12.2" y="465.1" width="12.2" height="24.65" shape-rendering="crispEdges"/><rect fill="#242f38" x="24.4" y="465.1" width="12.2" height="24.65" shape-rendering="crispEdges"/><rect fill="#242f38" x="36.6" y="465.1" width="1024.8" height="24.65" shape-rendering="crispEdges"/><rect fill="#242f38" x="1061.4" y="465.1" width="12.2" height="24.65" shape-rendering="crispEdges"/><rect fill="#121212" x="1073.6" y="465.1" width="12.2" height="24.65" shape-rendering="crispEdges"/><rect fill="#121212" x="1085.8" y="465.1" width="12.2" height="24.65" shape-rendering="crispEdges"/><rect fill="#121212" x="0" y="489.5" width="12.2" height="24.65" shape-rendering="crispEdges"/><rect fill="#121212" x="12.2" y="489.5" width="1073.6" height="24.65" shape-rendering="crispEdges"/><rect fill="#121212" x="1085.8" y="489.5" width="12.2" height="24.65" shape-rendering="crispEdges"/><rect fill="#121212" x="0" y="513.9" width="12.2" height="24.65" shape-rendering="crispEdges"/><rect fill="#121212" x="12.2" y="513.9" width="1073.6" height="24.65" shape-rendering="crispEdges"/><rect fill="#121212" x="1085.8" y="513.9" width="12.2" height="24.65" shape-rendering="crispEdges"/><rect fill="#121212" x="0" y="538.3" width="12.2" height="24.65" shape-rendering="crispEdges"/><rect fill="#121212" x="12.2" y="538.3" width="1073.6" height="24.65" shape-rendering="crispEdges"/><rect fill="#121212" x="1085.8" y="538.3" width="12.2" height="24.65" shape-rendering="crispEdges"/><rect fill="#121212" x="0" y="562.7" width="12.2" height="24.65" shape-rendering="crispEdges"/><rect fill="#121212" x="12.2" y="562.7" width="1073.6" height="24.65" shape-rendering="crispEdges"/><rect fill="#121212" x="1085.8" y="562.7" width="12.2" height="24.65" shape-rendering="crispEdges"/><rect fill="#121212" x="0" y="587.1" width="1098" height="24.65" shape-rendering="crispEdges"/><rect fill="#121212" x="0" y="611.5" width="12.2" height="24.65" shape-rendering="crispEdges"/><rect fill="#54222f" x="12.2" y="611.5" width="48.8" height="24.65" shape-rendering="crispEdges"/><rect fill="#121212" x="61" y="611.5" width="634.4" height="24.65" shape-rendering="crispEdges"/><rect fill="#121212" x="695.4" y="611.5" width="12.2" height="24.65" shape-rendering="crispEdges"/><rect fill="#121212" x="707.6" y="611.5" width="170.8" height="24.65" shape-rendering="crispEdges"/><rect fill="#121212" x="878.4" y="611.5" width="12.2" height="24.65" shape-rendering="crispEdges"/><rect fill="#121212" x="890.6" y="611.5" width="61" height="24.65" shape-rendering="crispEdges"/><rect fill="#121212" x="951.6" y="611.5" width="12.2" height="24.65" shape-rendering="crispEdges"/><rect fill="#121212" x="963.8" y="611.5" width="122" height="24.65" shape-rendering="crispEdges"/><rect fill="#121212" x="1085.8" y="611.5" width="12.2" height="24.65" shape-rendering="crispEdges"/>
    <g class="terminal-1557999931-matrix">
    <text class="terminal-1557999931-r2" x="12.2" y="20" textLength="85.4" clip-path="url(#terminal-1557999931-line-0)">&#160;1:win&#160;</text><text class="terminal-1557999931-r3" x="122" y="20" textLength="36.6" clip-path="url(#terminal-1557999931-line-0)">[+]</text><text class="terminal-1557999931-r4" x="1098" y="20" textLength="12.2" clip-path="url(#terminal-1557999931-line-0)">
</text><text class="terminal-1557999931-r5" x="0" y="44.4" textLength="12.2" clip-path="url(#terminal-1557999931-line-1)">┌</text><text class="terminal-1557999931-r5" x="12.2" y="44.4" textLength="85.4" clip-path="url(#terminal-1557999931-line-1)">▀▀▀▀▀▀▀</text><text class="terminal-1557999931-r5" x="97.6" y="44.4" textLength="1000.4" clip-path="url(#terminal-1557999931-line-1)">─────────────────────────────────────────────────────────────────────────────────┐</text><text class="terminal-1557999931-r4" x="1098" y="44.4" textLength="12.2" clip-path="url(#terminal-1557999931-line-1)">
</text><text class="terminal-1557999931-r5" x="0" y="68.8" textLength="12.2" clip-path="url(#terminal-1557999931-line-2)">│</text><text class="terminal-1557999931-r6" x="12.2" y="68.8" textLength="353.8" clip-path="url(#terminal-1557999931-line-2)">neoocean@playground&#160;pytmux&#160;%&#160;</text><text class="terminal-1557999931-r7" x="1049.2" y="68.8" textLength="36.6" clip-path="url(#terminal-1557999931-line-2)">[x]</text><text class="terminal-1557999931-r5" x="1085.8" y="68.8" textLength="12.2" clip-path="url(#terminal-1557999931-line-2)">│</text><text class="terminal-1557999931-r4" x="1098" y="68.8" textLength="12.2" clip-path="url(#terminal-1557999931-line-2)">
</text><text class="terminal-1557999931-r5" x="0" y="93.2" textLength="12.2" clip-path="url(#terminal-1557999931-line-3)">│</text><text class="terminal-1557999931-r5" x="1085.8" y="93.2" textLength="12.2" clip-path="url(#terminal-1557999931-line-3)">│</text><text class="terminal-1557999931-r4" x="1098" y="93.2" textLength="12.2" clip-path="url(#terminal-1557999931-line-3)">
</text><text class="terminal-1557999931-r5" x="0" y="117.6" textLength="12.2" clip-path="url(#terminal-1557999931-line-4)">│</text><text class="terminal-1557999931-r5" x="1085.8" y="117.6" textLength="12.2" clip-path="url(#terminal-1557999931-line-4)">│</text><text class="terminal-1557999931-r4" x="1098" y="117.6" textLength="12.2" clip-path="url(#terminal-1557999931-line-4)">
</text><text class="terminal-1557999931-r5" x="0" y="142" textLength="12.2" clip-path="url(#terminal-1557999931-line-5)">│</text><text class="terminal-1557999931-r5" x="1085.8" y="142" textLength="12.2" clip-path="url(#terminal-1557999931-line-5)">│</text><text class="terminal-1557999931-r4" x="1098" y="142" textLength="12.2" clip-path="url(#terminal-1557999931-line-5)">
</text><text class="terminal-1557999931-r5" x="0" y="166.4" textLength="12.2" clip-path="url(#terminal-1557999931-line-6)">│</text><text class="terminal-1557999931-r8" x="24.4" y="166.4" textLength="12.2" clip-path="url(#terminal-1557999931-line-6)">╭</text><text class="terminal-1557999931-r8" x="36.6" y="166.4" textLength="1024.8" clip-path="url(#terminal-1557999931-line-6)">────────────────────────────────────────────────────────────────────────────────────</text><text class="terminal-1557999931-r8" x="1061.4" y="166.4" textLength="12.2" clip-path="url(#terminal-1557999931-line-6)">╮</text><text class="terminal-1557999931-r5" x="1085.8" y="166.4" textLength="12.2" clip-path="url(#terminal-1557999931-line-6)">│</text><text class="terminal-1557999931-r4" x="1098" y="166.4" textLength="12.2" clip-path="url(#terminal-1557999931-line-6)">
</text><text class="terminal-1557999931-r5" x="0" y="190.8" textLength="12.2" clip-path="url(#terminal-1557999931-line-7)">│</text><text class="terminal-1557999931-r8" x="24.4" y="190.8" textLength="12.2" clip-path="url(#terminal-1557999931-line-7)">│</text><text class="terminal-1557999931-r9" x="48.8" y="190.8" textLength="268.4" clip-path="url(#terminal-1557999931-line-7)">토큰&#160;사용량&#160;(단위:day)</text><text class="terminal-1557999931-r10" x="1000.4" y="190.8" textLength="36.6" clip-path="url(#terminal-1557999931-line-7)">[x]</text><text class="terminal-1557999931-r8" x="1061.4" y="190.8" textLength="12.2" clip-path="url(#terminal-1557999931-line-7)">│</text><text class="terminal-1557999931-r5" x="1085.8" y="190.8" textLength="12.2" clip-path="url(#terminal-1557999931-line-7)">│</text><text class="terminal-1557999931-r4" x="1098" y="190.8" textLength="12.2" clip-path="url(#terminal-1557999931-line-7)">
</text><text class="terminal-1557999931-r5" x="0" y="215.2" textLength="12.2" clip-path="url(#terminal-1557999931-line-8)">│</text><text class="terminal-1557999931-r8" x="24.4" y="215.2" textLength="12.2" clip-path="url(#terminal-1557999931-line-8)">│</text><text class="terminal-1557999931-r11" x="61" y="215.2" textLength="48.8" clip-path="url(#terminal-1557999931-line-8)">시간</text><text class="terminal-1557999931-r12" x="146.4" y="215.2" textLength="24.4" clip-path="url(#terminal-1557999931-line-8)">일</text><text class="terminal-1557999931-r11" x="207.4" y="215.2" textLength="24.4" clip-path="url(#terminal-1557999931-line-8)">주</text><text class="terminal-1557999931-r11" x="268.4" y="215.2" textLength="24.4" clip-path="url(#terminal-1557999931-line-8)">월</text><text class="terminal-1557999931-r13" x="329.4" y="215.2" textLength="48.8" clip-path="url(#terminal-1557999931-line-8)">계정</text><text class="terminal-1557999931-r13" x="414.8" y="215.2" textLength="73.2" clip-path="url(#terminal-1557999931-line-8)">/usage</text><text class="terminal-1557999931-r13" x="524.6" y="215.2" textLength="97.6" clip-path="url(#terminal-1557999931-line-8)">시나리오</text><text class="terminal-1557999931-r8" x="1061.4" y="215.2" textLength="12.2" clip-path="url(#terminal-1557999931-line-8)">│</text><text class="terminal-1557999931-r5" x="1085.8" y="215.2" textLength="12.2" clip-path="url(#terminal-1557999931-line-8)">│</text><text class="terminal-1557999931-r4" x="1098" y="215.2" textLength="12.2" clip-path="url(#terminal-1557999931-line-8)">
</text><text class="terminal-1557999931-r5" x="0" y="239.6" textLength="12.2" clip-path="url(#terminal-1557999931-line-9)">│</text><text class="terminal-1557999931-r8" x="24.4" y="239.6" textLength="12.2" clip-path="url(#terminal-1557999931-line-9)">│</text><text class="terminal-1557999931-r14" x="48.8" y="239.6" textLength="366" clip-path="url(#terminal-1557999931-line-9)">──&#160;Claude&#160;한도(/usage&#160;실측)&#160;──</text><text class="terminal-1557999931-r8" x="1061.4" y="239.6" textLength="12.2" clip-path="url(#terminal-1557999931-line-9)">│</text><text class="terminal-1557999931-r5" x="1085.8" y="239.6" textLength="12.2" clip-path="url(#terminal-1557999931-line-9)">│</text><text class="terminal-1557999931-r4" x="1098" y="239.6" textLength="12.2" clip-path="url(#terminal-1557999931-line-9)">
</text><text class="terminal-1557999931-r5" x="0" y="264" textLength="12.2" clip-path="url(#terminal-1557999931-line-10)">│</text><text class="terminal-1557999931-r8" x="24.4" y="264" textLength="12.2" clip-path="url(#terminal-1557999931-line-10)">│</text><text class="terminal-1557999931-r14" x="48.8" y="264" textLength="524.6" clip-path="url(#terminal-1557999931-line-10)">&#160;&#160;세션(5h):&#160;2%&#160;사용&#160;·&#160;리셋&#160;2pm&#160;(Asia/Seoul)</text><text class="terminal-1557999931-r8" x="1061.4" y="264" textLength="12.2" clip-path="url(#terminal-1557999931-line-10)">│</text><text class="terminal-1557999931-r5" x="1085.8" y="264" textLength="12.2" clip-path="url(#terminal-1557999931-line-10)">│</text><text class="terminal-1557999931-r4" x="1098" y="264" textLength="12.2" clip-path="url(#terminal-1557999931-line-10)">
</text><text class="terminal-1557999931-r5" x="0" y="288.4" textLength="12.2" clip-path="url(#terminal-1557999931-line-11)">│</text><text class="terminal-1557999931-r8" x="24.4" y="288.4" textLength="12.2" clip-path="url(#terminal-1557999931-line-11)">│</text><text class="terminal-1557999931-r14" x="48.8" y="288.4" textLength="707.6" clip-path="url(#terminal-1557999931-line-11)">&#160;&#160;주간(전모델):&#160;14%&#160;사용&#160;·&#160;리셋&#160;Jun&#160;13&#160;at&#160;3am&#160;(Asia/Seoul)</text><text class="terminal-1557999931-r8" x="1061.4" y="288.4" textLength="12.2" clip-path="url(#terminal-1557999931-line-11)">│</text><text class="terminal-1557999931-r5" x="1085.8" y="288.4" textLength="12.2" clip-path="url(#terminal-1557999931-line-11)">│</text><text class="terminal-1557999931-r4" x="1098" y="288.4" textLength="12.2" clip-path="url(#terminal-1557999931-line-11)">
</text><text class="terminal-1557999931-r5" x="0" y="312.8" textLength="12.2" clip-path="url(#terminal-1557999931-line-12)">│</text><text class="terminal-1557999931-r8" x="24.4" y="312.8" textLength="12.2" clip-path="url(#terminal-1557999931-line-12)">│</text><text class="terminal-1557999931-r14" x="48.8" y="312.8" textLength="695.4" clip-path="url(#terminal-1557999931-line-12)">&#160;&#160;주간(Sonnet):&#160;0%&#160;사용&#160;·&#160;리셋&#160;Jun&#160;13&#160;at&#160;3am&#160;(Asia/Seoul)</text><text class="terminal-1557999931-r8" x="1061.4" y="312.8" textLength="12.2" clip-path="url(#terminal-1557999931-line-12)">│</text><text class="terminal-1557999931-r5" x="1085.8" y="312.8" textLength="12.2" clip-path="url(#terminal-1557999931-line-12)">│</text><text class="terminal-1557999931-r4" x="1098" y="312.8" textLength="12.2" clip-path="url(#terminal-1557999931-line-12)">
</text><text class="terminal-1557999931-r5" x="0" y="337.2" textLength="12.2" clip-path="url(#terminal-1557999931-line-13)">│</text><text class="terminal-1557999931-r8" x="24.4" y="337.2" textLength="12.2" clip-path="url(#terminal-1557999931-line-13)">│</text><text class="terminal-1557999931-r14" x="48.8" y="337.2" textLength="646.6" clip-path="url(#terminal-1557999931-line-13)">──&#160;토큰&#160;로그&#160;·&#160;계정:&#160;전체&#160;(탭/키&#160;h·d·w·m,&#160;[a]계정)&#160;──</text><text class="terminal-1557999931-r8" x="1061.4" y="337.2" textLength="12.2" clip-path="url(#terminal-1557999931-line-13)">│</text><text class="terminal-1557999931-r5" x="1085.8" y="337.2" textLength="12.2" clip-path="url(#terminal-1557999931-line-13)">│</text><text class="terminal-1557999931-r4" x="1098" y="337.2" textLength="12.2" clip-path="url(#terminal-1557999931-line-13)">
</text><text class="terminal-1557999931-r5" x="0" y="361.6" textLength="12.2" clip-path="url(#terminal-1557999931-line-14)">│</text><text class="terminal-1557999931-r8" x="24.4" y="361.6" textLength="12.2" clip-path="url(#terminal-1557999931-line-14)">│</text><text class="terminal-1557999931-r14" x="48.8" y="361.6" textLength="427" clip-path="url(#terminal-1557999931-line-14)">토큰&#160;사용량&#160;—&#160;단위:day&#160;&#160;전체&#160;Σ20.5k</text><text class="terminal-1557999931-r8" x="1061.4" y="361.6" textLength="12.2" clip-path="url(#terminal-1557999931-line-14)">│</text><text class="terminal-1557999931-r5" x="1085.8" y="361.6" textLength="12.2" clip-path="url(#terminal-1557999931-line-14)">│</text><text class="terminal-1557999931-r4" x="1098" y="361.6" textLength="12.2" clip-path="url(#terminal-1557999931-line-14)">
</text><text class="terminal-1557999931-r5" x="0" y="386" textLength="12.2" clip-path="url(#terminal-1557999931-line-15)">│</text><text class="terminal-1557999931-r8" x="24.4" y="386" textLength="12.2" clip-path="url(#terminal-1557999931-line-15)">│</text><text class="terminal-1557999931-r14" x="48.8" y="386" textLength="219.6" clip-path="url(#terminal-1557999931-line-15)">&#160;&#160;[default]&#160;Σ20.5k</text><text class="terminal-1557999931-r16" x="1024.8" y="386" textLength="24.4" clip-path="url(#terminal-1557999931-line-15)">▄▄</text><text class="terminal-1557999931-r8" x="1061.4" y="386" textLength="12.2" clip-path="url(#terminal-1557999931-line-15)">│</text><text class="terminal-1557999931-r5" x="1085.8" y="386" textLength="12.2" clip-path="url(#terminal-1557999931-line-15)">│</text><text class="terminal-1557999931-r4" x="1098" y="386" textLength="12.2" clip-path="url(#terminal-1557999931-line-15)">
</text><text class="terminal-1557999931-r5" x="0" y="410.4" textLength="12.2" clip-path="url(#terminal-1557999931-line-16)">│</text><text class="terminal-1557999931-r8" x="24.4" y="410.4" textLength="12.2" clip-path="url(#terminal-1557999931-line-16)">│</text><text class="terminal-1557999931-r8" x="1061.4" y="410.4" textLength="12.2" clip-path="url(#terminal-1557999931-line-16)">│</text><text class="terminal-1557999931-r5" x="1085.8" y="410.4" textLength="12.2" clip-path="url(#terminal-1557999931-line-16)">│</text><text class="terminal-1557999931-r4" x="1098" y="410.4" textLength="12.2" clip-path="url(#terminal-1557999931-line-16)">
</text><text class="terminal-1557999931-r5" x="0" y="434.8" textLength="12.2" clip-path="url(#terminal-1557999931-line-17)">│</text><text class="terminal-1557999931-r8" x="24.4" y="434.8" textLength="12.2" clip-path="url(#terminal-1557999931-line-17)">│</text><text class="terminal-1557999931-r8" x="1061.4" y="434.8" textLength="12.2" clip-path="url(#terminal-1557999931-line-17)">│</text><text class="terminal-1557999931-r5" x="1085.8" y="434.8" textLength="12.2" clip-path="url(#terminal-1557999931-line-17)">│</text><text class="terminal-1557999931-r4" x="1098" y="434.8" textLength="12.2" clip-path="url(#terminal-1557999931-line-17)">
</text><text class="terminal-1557999931-r5" x="0" y="459.2" textLength="12.2" clip-path="url(#terminal-1557999931-line-18)">│</text><text class="terminal-1557999931-r8" x="24.4" y="459.2" textLength="12.2" clip-path="url(#terminal-1557999931-line-18)">│</text><text class="terminal-1557999931-r8" x="1061.4" y="459.2" textLength="12.2" clip-path="url(#terminal-1557999931-line-18)">│</text><text class="terminal-1557999931-r5" x="1085.8" y="459.2" textLength="12.2" clip-path="url(#terminal-1557999931-line-18)">│</text><text class="terminal-1557999931-r4" x="1098" y="459.2" textLength="12.2" clip-path="url(#terminal-1557999931-line-18)">
</text><text class="terminal-1557999931-r5" x="0" y="483.6" textLength="12.2" clip-path="url(#terminal-1557999931-line-19)">│</text><text class="terminal-1557999931-r8" x="24.4" y="483.6" textLength="12.2" clip-path="url(#terminal-1557999931-line-19)">╰</text><text class="terminal-1557999931-r8" x="36.6" y="483.6" textLength="1024.8" clip-path="url(#terminal-1557999931-line-19)">────────────────────────────────────────────────────────────────────────────────────</text><text class="terminal-1557999931-r8" x="1061.4" y="483.6" textLength="12.2" clip-path="url(#terminal-1557999931-line-19)">╯</text><text class="terminal-1557999931-r5" x="1085.8" y="483.6" textLength="12.2" clip-path="url(#terminal-1557999931-line-19)">│</text><text class="terminal-1557999931-r4" x="1098" y="483.6" textLength="12.2" clip-path="url(#terminal-1557999931-line-19)">
</text><text class="terminal-1557999931-r5" x="0" y="508" textLength="12.2" clip-path="url(#terminal-1557999931-line-20)">│</text><text class="terminal-1557999931-r5" x="1085.8" y="508" textLength="12.2" clip-path="url(#terminal-1557999931-line-20)">│</text><text class="terminal-1557999931-r4" x="1098" y="508" textLength="12.2" clip-path="url(#terminal-1557999931-line-20)">
</text><text class="terminal-1557999931-r5" x="0" y="532.4" textLength="12.2" clip-path="url(#terminal-1557999931-line-21)">│</text><text class="terminal-1557999931-r5" x="1085.8" y="532.4" textLength="12.2" clip-path="url(#terminal-1557999931-line-21)">│</text><text class="terminal-1557999931-r4" x="1098" y="532.4" textLength="12.2" clip-path="url(#terminal-1557999931-line-21)">
</text><text class="terminal-1557999931-r5" x="0" y="556.8" textLength="12.2" clip-path="url(#terminal-1557999931-line-22)">│</text><text class="terminal-1557999931-r5" x="1085.8" y="556.8" textLength="12.2" clip-path="url(#terminal-1557999931-line-22)">│</text><text class="terminal-1557999931-r4" x="1098" y="556.8" textLength="12.2" clip-path="url(#terminal-1557999931-line-22)">
</text><text class="terminal-1557999931-r5" x="0" y="581.2" textLength="12.2" clip-path="url(#terminal-1557999931-line-23)">│</text><text class="terminal-1557999931-r5" x="1085.8" y="581.2" textLength="12.2" clip-path="url(#terminal-1557999931-line-23)">│</text><text class="terminal-1557999931-r4" x="1098" y="581.2" textLength="12.2" clip-path="url(#terminal-1557999931-line-23)">
</text><text class="terminal-1557999931-r5" x="0" y="605.6" textLength="1098" clip-path="url(#terminal-1557999931-line-24)">└────────────────────────────────────────────────────────────────────────────────────────┘</text><text class="terminal-1557999931-r4" x="1098" y="605.6" textLength="12.2" clip-path="url(#terminal-1557999931-line-24)">
</text><text class="terminal-1557999931-r2" x="12.2" y="630" textLength="48.8" clip-path="url(#terminal-1557999931-line-25)">REC&#160;</text><text class="terminal-1557999931-r17" x="707.6" y="630" textLength="170.8" clip-path="url(#terminal-1557999931-line-25)">ssh:playground</text><text class="terminal-1557999931-r1" x="890.6" y="630" textLength="61" clip-path="url(#terminal-1557999931-line-25)">09:57</text><text class="terminal-1557999931-r1" x="963.8" y="630" textLength="122" clip-path="url(#terminal-1557999931-line-25)">2026-06-07</text>
    </g>
    </g>
</svg>
