<svg class="rich-terminal" viewBox="0 0 1116 684.4" xmlns="http://www.w3.org/2000/svg">
    <!-- Generated with Rich https://www.textualize.io -->
    <style>

    @font-face {
        font-family: "Fira Code";
        src: local("FiraCode-Regular"),
                url("https://cdnjs.cloudflare.com/ajax/libs/firacode/6.2.0/woff2/FiraCode-Regular.woff2") format("woff2"),
                url("https://cdnjs.cloudflare.com/ajax/libs/firacode/6.2.0/woff/FiraCode-Regular.woff") format("woff");
        font-style: normal;
        font-weight: 400;
    }
    @font-face {
        font-family: "Fira Code";
        src: local("FiraCode-Bold"),
                url("https://cdnjs.cloudflare.com/ajax/libs/firacode/6.2.0/woff2/FiraCode-Bold.woff2") format("woff2"),
                url("https://cdnjs.cloudflare.com/ajax/libs/firacode/6.2.0/woff/FiraCode-Bold.woff") format("woff");
        font-style: bold;
        font-weight: 700;
    }

    .terminal-549339775-matrix {
        font-family: Fira Code, "Apple SD Gothic Neo", monospace;
        font-size: 20px;
        line-height: 24.4px;
        font-variant-east-asian: full-width;
    }

    .terminal-549339775-title {
        font-size: 18px;
        font-weight: bold;
        font-family: arial;
    }

    .terminal-549339775-r1 { fill: #3b3b3b }
.terminal-549339775-r2 { fill: #353532;font-weight: bold }
.terminal-549339775-r3 { fill: #131313;font-weight: bold }
.terminal-549339775-r4 { fill: #c5c8c6 }
.terminal-549339775-r5 { fill: #0e1921 }
.terminal-549339775-r6 { fill: #fea62b }
.terminal-549339775-r7 { fill: #1f1f1f }
.terminal-549339775-r8 { fill: #1a1a1a }
.terminal-549339775-r9 { fill: #fea62b;font-weight: bold }
.terminal-549339775-r10 { fill: #f5e5e9;font-weight: bold }
.terminal-549339775-r11 { fill: #0e0e0e }
.terminal-549339775-r12 { fill: #e0e0e0 }
.terminal-549339775-r13 { fill: #331a20;font-weight: bold }
    </style>

    <defs>
    <clipPath id="terminal-549339775-clip-terminal">
      <rect x="0" y="0" width="1097.0" height="633.4" />
    </clipPath>
    <clipPath id="terminal-549339775-line-0">
    <rect x="0" y="1.5" width="1098" height="24.65"/>
            </clipPath>
<clipPath id="terminal-549339775-line-1">
    <rect x="0" y="25.9" width="1098" height="24.65"/>
            </clipPath>
<clipPath id="terminal-549339775-line-2">
    <rect x="0" y="50.3" width="1098" height="24.65"/>
            </clipPath>
<clipPath id="terminal-549339775-line-3">
    <rect x="0" y="74.7" width="1098" height="24.65"/>
            </clipPath>
<clipPath id="terminal-549339775-line-4">
    <rect x="0" y="99.1" width="1098" height="24.65"/>
            </clipPath>
<clipPath id="terminal-549339775-line-5">
    <rect x="0" y="123.5" width="1098" height="24.65"/>
            </clipPath>
<clipPath id="terminal-549339775-line-6">
    <rect x="0" y="147.9" width="1098" height="24.65"/>
            </clipPath>
<clipPath id="terminal-549339775-line-7">
    <rect x="0" y="172.3" width="1098" height="24.65"/>
            </clipPath>
<clipPath id="terminal-549339775-line-8">
    <rect x="0" y="196.7" width="1098" height="24.65"/>
            </clipPath>
<clipPath id="terminal-549339775-line-9">
    <rect x="0" y="221.1" width="1098" height="24.65"/>
            </clipPath>
<clipPath id="terminal-549339775-line-10">
    <rect x="0" y="245.5" width="1098" height="24.65"/>
            </clipPath>
<clipPath id="terminal-549339775-line-11">
    <rect x="0" y="269.9" width="1098" height="24.65"/>
            </clipPath>
<clipPath id="terminal-549339775-line-12">
    <rect x="0" y="294.3" width="1098" height="24.65"/>
            </clipPath>
<clipPath id="terminal-549339775-line-13">
    <rect x="0" y="318.7" width="1098" height="24.65"/>
            </clipPath>
<clipPath id="terminal-549339775-line-14">
    <rect x="0" y="343.1" width="1098" height="24.65"/>
            </clipPath>
<clipPath id="terminal-549339775-line-15">
    <rect x="0" y="367.5" width="1098" height="24.65"/>
            </clipPath>
<clipPath id="terminal-549339775-line-16">
    <rect x="0" y="391.9" width="1098" height="24.65"/>
            </clipPath>
<clipPath id="terminal-549339775-line-17">
    <rect x="0" y="416.3" width="1098" height="24.65"/>
            </clipPath>
<clipPath id="terminal-549339775-line-18">
    <rect x="0" y="440.7" width="1098" height="24.65"/>
            </clipPath>
<clipPath id="terminal-549339775-line-19">
    <rect x="0" y="465.1" width="1098" height="24.65"/>
            </clipPath>
<clipPath id="terminal-549339775-line-20">
    <rect x="0" y="489.5" width="1098" height="24.65"/>
            </clipPath>
<clipPath id="terminal-549339775-line-21">
    <rect x="0" y="513.9" width="1098" height="24.65"/>
            </clipPath>
<clipPath id="terminal-549339775-line-22">
    <rect x="0" y="538.3" width="1098" height="24.65"/>
            </clipPath>
<clipPath id="terminal-549339775-line-23">
    <rect x="0" y="562.7" width="1098" height="24.65"/>
            </clipPath>
<clipPath id="terminal-549339775-line-24">
    <rect x="0" y="587.1" width="1098" height="24.65"/>
            </clipPath>
    </defs>

    <rect fill="#292929" stroke="rgba(255,255,255,0.35)" stroke-width="1" x="1" y="1" width="1114" height="682.4" rx="8"/><text class="terminal-549339775-title" fill="#c5c8c6" text-anchor="middle" x="557" y="27">PytmuxApp</text>
            <g transform="translate(26,22)">
            <circle cx="0" cy="0" r="7" fill="#ff5f57"/>
            <circle cx="22" cy="0" r="7" fill="#febc2e"/>
            <circle cx="44" cy="0" r="7" fill="#28c840"/>
            </g>
        
    <g transform="translate(9, 41)" clip-path="url(#terminal-549339775-clip-terminal)">
    <rect fill="#121212" x="0" y="1.5" width="12.2" height="24.65" shape-rendering="crispEdges"/><rect fill="#0e2638" x="12.2" y="1.5" width="85.4" height="24.65" shape-rendering="crispEdges"/><rect fill="#121212" x="97.6" y="1.5" width="24.4" height="24.65" shape-rendering="crispEdges"/><rect fill="#1e3425" x="122" y="1.5" width="36.6" height="24.65" shape-rendering="crispEdges"/><rect fill="#121212" x="158.6" y="1.5" width="939.4" height="24.65" shape-rendering="crispEdges"/><rect fill="#121212" x="0" y="25.9" width="12.2" height="24.65" shape-rendering="crispEdges"/><rect fill="#121212" x="12.2" y="25.9" width="12.2" height="24.65" shape-rendering="crispEdges"/><rect fill="#242f38" x="24.4" y="25.9" width="12.2" height="24.65" shape-rendering="crispEdges"/><rect fill="#242f38" x="36.6" y="25.9" width="1024.8" height="24.65" shape-rendering="crispEdges"/><rect fill="#242f38" x="1061.4" y="25.9" width="12.2" height="24.65" shape-rendering="crispEdges"/><rect fill="#1f1316" x="1073.6" y="25.9" width="12.2" height="24.65" shape-rendering="crispEdges"/><rect fill="#121212" x="1085.8" y="25.9" width="12.2" height="24.65" shape-rendering="crispEdges"/><rect fill="#121212" x="0" y="50.3" width="12.2" height="24.65" shape-rendering="crispEdges"/><rect fill="#121212" x="12.2" y="50.3" width="12.2" height="24.65" shape-rendering="crispEdges"/><rect fill="#242f38" x="24.4" y="50.3" width="12.2" height="24.65" shape-rendering="crispEdges"/><rect fill="#242f38" x="36.6" y="50.3" width="12.2" height="24.65" shape-rendering="crispEdges"/><rect fill="#242f38" x="48.8" y="50.3" width="305" height="24.65" shape-rendering="crispEdges"/><rect fill="#242f38" x="353.8" y="50.3" width="634.4" height="24.65" shape-rendering="crispEdges"/><rect fill="#b93c5b" x="988.2" y="50.3" width="12.2" height="24.65" shape-rendering="crispEdges"/><rect fill="#b93c5b" x="1000.4" y="50.3" width="36.6" height="24.65" shape-rendering="crispEdges"/><rect fill="#b93c5b" x="1037" y="50.3" width="12.2" height="24.65" shape-rendering="crispEdges"/><rect fill="#242f38" x="1049.2" y="50.3" width="12.2" height="24.65" shape-rendering="crispEdges"/><rect fill="#242f38" x="1061.4" y="50.3" width="12.2" height="24.65" shape-rendering="crispEdges"/><rect fill="#0e1921" x="1073.6" y="50.3" width="24.4" height="24.65" shape-rendering="crispEdges"/><rect fill="#121212" x="0" y="74.7" width="12.2" height="24.65" shape-rendering="crispEdges"/><rect fill="#121212" x="12.2" y="74.7" width="12.2" height="24.65" shape-rendering="crispEdges"/><rect fill="#242f38" x="24.4" y="74.7" width="12.2" height="24.65" shape-rendering="crispEdges"/><rect fill="#242f38" x="36.6" y="74.7" width="12.2" height="24.65" shape-rendering="crispEdges"/><rect fill="#272727" x="48.8" y="74.7" width="817.4" height="24.65" shape-rendering="crispEdges"/><rect fill="#272727" x="866.2" y="74.7" width="183" height="24.65" shape-rendering="crispEdges"/><rect fill="#242f38" x="1049.2" y="74.7" width="12.2" height="24.65" shape-rendering="crispEdges"/><rect fill="#242f38" x="1061.4" y="74.7" width="12.2" height="24.65" shape-rendering="crispEdges"/><rect fill="#121212" x="1073.6" y="74.7" width="12.2" height="24.65" shape-rendering="crispEdges"/><rect fill="#121212" x="1085.8" y="74.7" width="12.2" height="24.65" shape-rendering="crispEdges"/><rect fill="#121212" x="0" y="99.1" width="12.2" height="24.65" shape-rendering="crispEdges"/><rect fill="#121212" x="12.2" y="99.1" width="12.2" height="24.65" shape-rendering="crispEdges"/><rect fill="#242f38" x="24.4" y="99.1" width="12.2" height="24.65" shape-rendering="crispEdges"/><rect fill="#242f38" x="36.6" y="99.1" width="12.2" height="24.65" shape-rendering="crispEdges"/><rect fill="#272727" x="48.8" y="99.1" width="512.4" height="24.65" shape-rendering="crispEdges"/><rect fill="#272727" x="561.2" y="99.1" width="488" height="24.65" shape-rendering="crispEdges"/><rect fill="#242f38" x="1049.2" y="99.1" width="12.2" height="24.65" shape-rendering="crispEdges"/><rect fill="#242f38" x="1061.4" y="99.1" width="12.2" height="24.65" shape-rendering="crispEdges"/><rect fill="#121212" x="1073.6" y="99.1" width="12.2" height="24.65" shape-rendering="crispEdges"/><rect fill="#121212" x="1085.8" y="99.1" width="12.2" height="24.65" shape-rendering="crispEdges"/><rect fill="#121212" x="0" y="123.5" width="12.2" height="24.65" shape-rendering="crispEdges"/><rect fill="#121212" x="12.2" y="123.5" width="12.2" height="24.65" shape-rendering="crispEdges"/><rect fill="#242f38" x="24.4" y="123.5" width="12.2" height="24.65" shape-rendering="crispEdges"/><rect fill="#242f38" x="36.6" y="123.5" width="12.2" height="24.65" shape-rendering="crispEdges"/><rect fill="#272727" x="48.8" y="123.5" width="0" height="24.65" shape-rendering="crispEdges"/><rect fill="#272727" x="48.8" y="123.5" width="1000.4" height="24.65" shape-rendering="crispEdges"/><rect fill="#242f38" x="1049.2" y="123.5" width="12.2" height="24.65" shape-rendering="crispEdges"/><rect fill="#242f38" x="1061.4" y="123.5" width="12.2" height="24.65" shape-rendering="crispEdges"/><rect fill="#121212" x="1073.6" y="123.5" width="12.2" height="24.65" shape-rendering="crispEdges"/><rect fill="#121212" x="1085.8" y="123.5" width="12.2" height="24.65" shape-rendering="crispEdges"/><rect fill="#121212" x="0" y="147.9" width="12.2" height="24.65" shape-rendering="crispEdges"/><rect fill="#121212" x="12.2" y="147.9" width="12.2" height="24.65" shape-rendering="crispEdges"/><rect fill="#242f38" x="24.4" y="147.9" width="12.2" height="24.65" shape-rendering="crispEdges"/><rect fill="#242f38" x="36.6" y="147.9" width="12.2" height="24.65" shape-rendering="crispEdges"/><rect fill="#272727" x="48.8" y="147.9" width="732" height="24.65" shape-rendering="crispEdges"/><rect fill="#272727" x="780.8" y="147.9" width="268.4" height="24.65" shape-rendering="crispEdges"/><rect fill="#242f38" x="1049.2" y="147.9" width="12.2" height="24.65" shape-rendering="crispEdges"/><rect fill="#242f38" x="1061.4" y="147.9" width="12.2" height="24.65" shape-rendering="crispEdges"/><rect fill="#121212" x="1073.6" y="147.9" width="12.2" height="24.65" shape-rendering="crispEdges"/><rect fill="#121212" x="1085.8" y="147.9" width="12.2" height="24.65" shape-rendering="crispEdges"/><rect fill="#121212" x="0" y="172.3" width="12.2" height="24.65" shape-rendering="crispEdges"/><rect fill="#121212" x="12.2" y="172.3" width="12.2" height="24.65" shape-rendering="crispEdges"/><rect fill="#242f38" x="24.4" y="172.3" width="12.2" height="24.65" shape-rendering="crispEdges"/><rect fill="#242f38" x="36.6" y="172.3" width="12.2" height="24.65" shape-rendering="crispEdges"/><rect fill="#272727" x="48.8" y="172.3" width="768.6" height="24.65" shape-rendering="crispEdges"/><rect fill="#272727" x="817.4" y="172.3" width="231.8" height="24.65" shape-rendering="crispEdges"/><rect fill="#242f38" x="1049.2" y="172.3" width="12.2" height="24.65" shape-rendering="crispEdges"/><rect fill="#242f38" x="1061.4" y="172.3" width="12.2" height="24.65" shape-rendering="crispEdges"/><rect fill="#121212" x="1073.6" y="172.3" width="12.2" height="24.65" shape-rendering="crispEdges"/><rect fill="#121212" x="1085.8" y="172.3" width="12.2" height="24.65" shape-rendering="crispEdges"/><rect fill="#121212" x="0" y="196.7" width="12.2" height="24.65" shape-rendering="crispEdges"/><rect fill="#121212" x="12.2" y="196.7" width="12.2" height="24.65" shape-rendering="crispEdges"/><rect fill="#242f38" x="24.4" y="196.7" width="12.2" height="24.65" shape-rendering="crispEdges"/><rect fill="#242f38" x="36.6" y="196.7" width="12.2" height="24.65" shape-rendering="crispEdges"/><rect fill="#272727" x="48.8" y="196.7" width="780.8" height="24.65" shape-rendering="crispEdges"/><rect fill="#272727" x="829.6" y="196.7" width="219.6" height="24.65" shape-rendering="crispEdges"/><rect fill="#242f38" x="1049.2" y="196.7" width="12.2" height="24.65" shape-rendering="crispEdges"/><rect fill="#242f38" x="1061.4" y="196.7" width="12.2" height="24.65" shape-rendering="crispEdges"/><rect fill="#121212" x="1073.6" y="196.7" width="12.2" height="24.65" shape-rendering="crispEdges"/><rect fill="#121212" x="1085.8" y="196.7" width="12.2" height="24.65" shape-rendering="crispEdges"/><rect fill="#121212" x="0" y="221.1" width="12.2" height="24.65" shape-rendering="crispEdges"/><rect fill="#121212" x="12.2" y="221.1" width="12.2" height="24.65" shape-rendering="crispEdges"/><rect fill="#242f38" x="24.4" y="221.1" width="12.2" height="24.65" shape-rendering="crispEdges"/><rect fill="#242f38" x="36.6" y="221.1" width="12.2" height="24.65" shape-rendering="crispEdges"/><rect fill="#272727" x="48.8" y="221.1" width="0" height="24.65" shape-rendering="crispEdges"/><rect fill="#272727" x="48.8" y="221.1" width="1000.4" height="24.65" shape-rendering="crispEdges"/><rect fill="#242f38" x="1049.2" y="221.1" width="12.2" height="24.65" shape-rendering="crispEdges"/><rect fill="#242f38" x="1061.4" y="221.1" width="12.2" height="24.65" shape-rendering="crispEdges"/><rect fill="#121212" x="1073.6" y="221.1" width="12.2" height="24.65" shape-rendering="crispEdges"/><rect fill="#121212" x="1085.8" y="221.1" width="12.2" height="24.65" shape-rendering="crispEdges"/><rect fill="#121212" x="0" y="245.5" width="12.2" height="24.65" shape-rendering="crispEdges"/><rect fill="#121212" x="12.2" y="245.5" width="12.2" height="24.65" shape-rendering="crispEdges"/><rect fill="#242f38" x="24.4" y="245.5" width="12.2" height="24.65" shape-rendering="crispEdges"/><rect fill="#242f38" x="36.6" y="245.5" width="12.2" height="24.65" shape-rendering="crispEdges"/><rect fill="#272727" x="48.8" y="245.5" width="671" height="24.65" shape-rendering="crispEdges"/><rect fill="#272727" x="719.8" y="245.5" width="329.4" height="24.65" shape-rendering="crispEdges"/><rect fill="#242f38" x="1049.2" y="245.5" width="12.2" height="24.65" shape-rendering="crispEdges"/><rect fill="#242f38" x="1061.4" y="245.5" width="12.2" height="24.65" shape-rendering="crispEdges"/><rect fill="#121212" x="1073.6" y="245.5" width="12.2" height="24.65" shape-rendering="crispEdges"/><rect fill="#121212" x="1085.8" y="245.5" width="12.2" height="24.65" shape-rendering="crispEdges"/><rect fill="#121212" x="0" y="269.9" width="12.2" height="24.65" shape-rendering="crispEdges"/><rect fill="#121212" x="12.2" y="269.9" width="12.2" height="24.65" shape-rendering="crispEdges"/><rect fill="#242f38" x="24.4" y="269.9" width="12.2" height="24.65" shape-rendering="crispEdges"/><rect fill="#242f38" x="36.6" y="269.9" width="1024.8" height="24.65" shape-rendering="crispEdges"/><rect fill="#242f38" x="1061.4" y="269.9" width="12.2" height="24.65" shape-rendering="crispEdges"/><rect fill="#121212" x="1073.6" y="269.9" width="12.2" height="24.65" shape-rendering="crispEdges"/><rect fill="#121212" x="1085.8" y="269.9" width="12.2" height="24.65" shape-rendering="crispEdges"/><rect fill="#121212" x="0" y="294.3" width="12.2" height="24.65" shape-rendering="crispEdges"/><rect fill="#121212" x="12.2" y="294.3" width="1073.6" height="24.65" shape-rendering="crispEdges"/><rect fill="#121212" x="1085.8" y="294.3" width="12.2" height="24.65" shape-rendering="crispEdges"/><rect fill="#121212" x="0" y="318.7" width="12.2" height="24.65" shape-rendering="crispEdges"/><rect fill="#121212" x="12.2" y="318.7" width="1073.6" height="24.65" shape-rendering="crispEdges"/><rect fill="#121212" x="1085.8" y="318.7" width="12.2" height="24.65" shape-rendering="crispEdges"/><rect fill="#121212" x="0" y="343.1" width="12.2" height="24.65" shape-rendering="crispEdges"/><rect fill="#121212" x="12.2" y="343.1" width="1073.6" height="24.65" shape-rendering="crispEdges"/><rect fill="#121212" x="1085.8" y="343.1" width="12.2" height="24.65" shape-rendering="crispEdges"/><rect fill="#121212" x="0" y="367.5" width="12.2" height="24.65" shape-rendering="crispEdges"/><rect fill="#121212" x="12.2" y="367.5" width="1073.6" height="24.65" shape-rendering="crispEdges"/><rect fill="#121212" x="1085.8" y="367.5" width="12.2" height="24.65" shape-rendering="crispEdges"/><rect fill="#121212" x="0" y="391.9" width="12.2" height="24.65" shape-rendering="crispEdges"/><rect fill="#121212" x="12.2" y="391.9" width="1073.6" height="24.65" shape-rendering="crispEdges"/><rect fill="#121212" x="1085.8" y="391.9" width="12.2" height="24.65" shape-rendering="crispEdges"/><rect fill="#121212" x="0" y="416.3" width="12.2" height="24.65" shape-rendering="crispEdges"/><rect fill="#121212" x="12.2" y="416.3" width="1073.6" height="24.65" shape-rendering="crispEdges"/><rect fill="#121212" x="1085.8" y="416.3" width="12.2" height="24.65" shape-rendering="crispEdges"/><rect fill="#121212" x="0" y="440.7" width="12.2" height="24.65" shape-rendering="crispEdges"/><rect fill="#121212" x="12.2" y="440.7" width="1073.6" height="24.65" shape-rendering="crispEdges"/><rect fill="#121212" x="1085.8" y="440.7" width="12.2" height="24.65" shape-rendering="crispEdges"/><rect fill="#121212" x="0" y="465.1" width="12.2" height="24.65" shape-rendering="crispEdges"/><rect fill="#121212" x="12.2" y="465.1" width="1073.6" height="24.65" shape-rendering="crispEdges"/><rect fill="#121212" x="1085.8" y="465.1" width="12.2" height="24.65" shape-rendering="crispEdges"/><rect fill="#121212" x="0" y="489.5" width="12.2" height="24.65" shape-rendering="crispEdges"/><rect fill="#121212" x="12.2" y="489.5" width="1073.6" height="24.65" shape-rendering="crispEdges"/><rect fill="#121212" x="1085.8" y="489.5" width="12.2" height="24.65" shape-rendering="crispEdges"/><rect fill="#121212" x="0" y="513.9" width="12.2" height="24.65" shape-rendering="crispEdges"/><rect fill="#121212" x="12.2" y="513.9" width="1073.6" height="24.65" shape-rendering="crispEdges"/><rect fill="#121212" x="1085.8" y="513.9" width="12.2" height="24.65" shape-rendering="crispEdges"/><rect fill="#121212" x="0" y="538.3" width="12.2" height="24.65" shape-rendering="crispEdges"/><rect fill="#121212" x="12.2" y="538.3" width="1073.6" height="24.65" shape-rendering="crispEdges"/><rect fill="#121212" x="1085.8" y="538.3" width="12.2" height="24.65" shape-rendering="crispEdges"/><rect fill="#121212" x="0" y="562.7" width="12.2" height="24.65" shape-rendering="crispEdges"/><rect fill="#121212" x="12.2" y="562.7" width="1073.6" height="24.65" shape-rendering="crispEdges"/><rect fill="#121212" x="1085.8" y="562.7" width="12.2" height="24.65" shape-rendering="crispEdges"/><rect fill="#121212" x="0" y="587.1" width="1098" height="24.65" shape-rendering="crispEdges"/><rect fill="#121212" x="0" y="611.5" width="12.2" height="24.65" shape-rendering="crispEdges"/><rect fill="#121212" x="12.2" y="611.5" width="683.2" height="24.65" shape-rendering="crispEdges"/><rect fill="#121212" x="695.4" y="611.5" width="12.2" height="24.65" shape-rendering="crispEdges"/><rect fill="#121212" x="707.6" y="611.5" width="170.8" height="24.65" shape-rendering="crispEdges"/><rect fill="#121212" x="878.4" y="611.5" width="12.2" height="24.65" shape-rendering="crispEdges"/><rect fill="#121212" x="890.6" y="611.5" width="61" height="24.65" shape-rendering="crispEdges"/><rect fill="#121212" x="951.6" y="611.5" width="12.2" height="24.65" shape-rendering="crispEdges"/><rect fill="#121212" x="963.8" y="611.5" width="122" height="24.65" shape-rendering="crispEdges"/><rect fill="#121212" x="1085.8" y="611.5" width="12.2" height="24.65" shape-rendering="crispEdges"/>
    <g class="terminal-549339775-matrix">
    <text class="terminal-549339775-r2" x="12.2" y="20" textLength="85.4" clip-path="url(#terminal-549339775-line-0)">&#160;1:win&#160;</text><text class="terminal-549339775-r3" x="122" y="20" textLength="36.6" clip-path="url(#terminal-549339775-line-0)">[+]</text><text class="terminal-549339775-r4" x="1098" y="20" textLength="12.2" clip-path="url(#terminal-549339775-line-0)">
</text><text class="terminal-549339775-r5" x="0" y="44.4" textLength="12.2" clip-path="url(#terminal-549339775-line-1)">┌</text><text class="terminal-549339775-r5" x="12.2" y="44.4" textLength="12.2" clip-path="url(#terminal-549339775-line-1)">▀</text><text class="terminal-549339775-r6" x="24.4" y="44.4" textLength="12.2" clip-path="url(#terminal-549339775-line-1)">╭</text><text class="terminal-549339775-r6" x="36.6" y="44.4" textLength="1024.8" clip-path="url(#terminal-549339775-line-1)">────────────────────────────────────────────────────────────────────────────────────</text><text class="terminal-549339775-r6" x="1061.4" y="44.4" textLength="12.2" clip-path="url(#terminal-549339775-line-1)">╮</text><text class="terminal-549339775-r7" x="1073.6" y="44.4" textLength="12.2" clip-path="url(#terminal-549339775-line-1)">]</text><text class="terminal-549339775-r5" x="1085.8" y="44.4" textLength="12.2" clip-path="url(#terminal-549339775-line-1)">┐</text><text class="terminal-549339775-r4" x="1098" y="44.4" textLength="12.2" clip-path="url(#terminal-549339775-line-1)">
</text><text class="terminal-549339775-r5" x="0" y="68.8" textLength="12.2" clip-path="url(#terminal-549339775-line-2)">│</text><text class="terminal-549339775-r8" x="12.2" y="68.8" textLength="12.2" clip-path="url(#terminal-549339775-line-2)">n</text><text class="terminal-549339775-r6" x="24.4" y="68.8" textLength="12.2" clip-path="url(#terminal-549339775-line-2)">│</text><g clip-path="url(#terminal-549339775-line-2)"><path fill="#fea62b" transform="translate(48.8 68.8) scale(0.0282081 -0.02)" d="M537 618C537 714 444 784 314 784C184 784 88 714 88 620C88 522 184 454 314 454C444 454 537 522 537 618ZM495 213H665V123H782V812H665V297H495ZM796 -55V38H259V208H142V-55ZM405 166V333C474 338 540 344 601 354L594 440C469 424 245 413 26 413C32 383 37 351 42 321C109 321 196 322 289 325V166ZM421 618C421 579 380 542 314 542C246 542 206 579 206 618C206 657 246 697 314 697C380 697 421 657 421 618Z"/><path fill="#fea62b" transform="translate(73.2 68.8) scale(0.0282081 -0.02)" d="M767 296V812H650V662H499V566H650V481H486V385H650V296ZM768 -80V250H164V157H650V-80ZM486 759H73V662H357C325 514 186 421 30 387L91 293C325 367 477 511 486 759Z"/></g><text class="terminal-549339775-r9" x="97.6" y="68.8" textLength="12.2" clip-path="url(#terminal-549339775-line-2)">&#160;</text><g clip-path="url(#terminal-549339775-line-2)"><path fill="#fea62b" transform="translate(109.8 68.8) scale(0.0282081 -0.02)" d="M469 211C363 274 305 401 305 575V616H444V709H42V616H192V573C192 397 135 270 8 186L79 107C151 148 227 251 248 334C270 255 345 164 403 127ZM610 -38V795H501V505H385V409H501V-38ZM789 -79V812H678V-79Z"/><path fill="#fea62b" transform="translate(134.2 68.8) scale(0.0282081 -0.02)" d="M36 432C36 245 121 115 266 115C399 115 481 225 494 386H650V-79H767V812H650V485H493C479 644 398 751 266 751C121 751 36 620 36 432ZM384 432C384 292 335 209 266 209C199 209 150 292 150 432C150 573 199 657 266 657C335 657 384 573 384 432Z"/></g><text class="terminal-549339775-r9" x="158.6" y="68.8" textLength="195.2" clip-path="url(#terminal-549339775-line-2)">(Remote&#160;Control)</text><text class="terminal-549339775-r10" x="1000.4" y="68.8" textLength="36.6" clip-path="url(#terminal-549339775-line-2)">[x]</text><text class="terminal-549339775-r6" x="1061.4" y="68.8" textLength="12.2" clip-path="url(#terminal-549339775-line-2)">│</text><text class="terminal-549339775-r11" x="1073.6" y="68.8" textLength="24.4" clip-path="url(#terminal-549339775-line-2)">N]</text><text class="terminal-549339775-r4" x="1098" y="68.8" textLength="12.2" clip-path="url(#terminal-549339775-line-2)">
</text><text class="terminal-549339775-r5" x="0" y="93.2" textLength="12.2" clip-path="url(#terminal-549339775-line-3)">│</text><text class="terminal-549339775-r6" x="24.4" y="93.2" textLength="12.2" clip-path="url(#terminal-549339775-line-3)">│</text><g clip-path="url(#terminal-549339775-line-3)"><path fill="#e0e0e0" transform="translate(48.8 93.2) scale(0.0282081 -0.02)" d="M757 -70V804H681V-70ZM67 430C67 244 149 120 292 120C437 120 518 244 518 429C518 614 437 738 292 738C149 738 67 614 67 430ZM446 429C446 286 385 186 292 186C200 186 139 286 139 429C139 573 200 672 292 672C385 672 446 573 446 429Z"/></g><text class="terminal-549339775-r12" x="73.2" y="93.2" textLength="12.2" clip-path="url(#terminal-549339775-line-3)">&#160;</text><g clip-path="url(#terminal-549339775-line-3)"><path fill="#e0e0e0" transform="translate(85.4 93.2) scale(0.0282081 -0.02)" d="M777 -70V804H703V448H597V783H523V-25H597V385H703V-70ZM478 174C477 194 476 214 473 234C443 230 404 226 362 223C373 340 384 460 394 577L318 585C309 464 302 338 294 218C286 217 278 217 271 217C248 216 227 214 204 214C197 337 188 462 181 583L105 574C114 455 123 332 133 213H26L38 145C112 146 194 150 275 154C353 159 432 166 478 174ZM451 630V694H42V630Z"/><path fill="#e0e0e0" transform="translate(109.8 93.2) scale(0.0282081 -0.02)" d="M752 351V804H676V652H409V589H676V351ZM785 -63V0H261V94H753V305H184V242H677V154H185V-63ZM545 485C446 464 279 446 162 448V755H86V383H151C266 383 462 401 555 421Z"/><path fill="#e0e0e0" transform="translate(134.2 93.2) scale(0.0282081 -0.02)" d="M680 804V-70H756V804ZM542 528C542 656 444 736 315 736C188 736 87 651 87 528C87 411 186 325 315 325C441 325 542 404 542 528ZM468 528C468 446 398 389 315 389C230 389 161 447 161 528C161 610 231 671 315 671C400 671 468 616 468 528ZM629 152 622 214C558 206 445 199 323 195C217 189 114 187 39 188L53 121C119 122 215 125 318 130C429 135 554 143 629 152Z"/></g><text class="terminal-549339775-r12" x="158.6" y="93.2" textLength="158.6" clip-path="url(#terminal-549339775-line-3)">&#160;Claude&#160;Code&#160;</text><g clip-path="url(#terminal-549339775-line-3)"><path fill="#e0e0e0" transform="translate(317.2 93.2) scale(0.0282081 -0.02)" d="M710 804H634V-70H710V375H853V440H710ZM483 710H72V646H401C385 449 260 265 42 164L89 104C314 221 478 426 483 710Z"/></g><text class="terminal-549339775-r12" x="341.6" y="93.2" textLength="12.2" clip-path="url(#terminal-549339775-line-3)">&#160;</text><g clip-path="url(#terminal-549339775-line-3)"><path fill="#e0e0e0" transform="translate(353.8 93.2) scale(0.0282081 -0.02)" d="M775 -70V804H700V-70ZM526 402V-25H601V783H526V466H323V402ZM143 213V635H415V698H67V148H163C280 150 378 160 460 174L451 239C370 222 249 207 143 213Z"/><path fill="#e0e0e0" transform="translate(378.2 93.2) scale(0.0282081 -0.02)" d="M798 354C664 384 472 519 472 662V731H393V662C393 519 211 384 69 356L109 291C261 334 400 458 431 547C467 458 609 334 756 290ZM827 50V114H38V50Z"/><path fill="#e0e0e0" transform="translate(402.6 93.2) scale(0.0282081 -0.02)" d="M726 708H134V645H647V555C647 526 645 494 643 459L107 440L122 373L639 400C633 309 622 219 613 178L686 168C712 279 725 479 726 596ZM827 57V121H38V57Z"/><path fill="#e0e0e0" transform="translate(427 93.2) scale(0.0282081 -0.02)" d="M709 -58V283H634V172H234V282H158V-58ZM842 528V592H709V804H633V327H709V528ZM634 5H234V110H634ZM144 403V526H463V588H144V692H470V755H68V340H148C294 340 443 350 540 367L532 428C424 407 262 403 144 403Z"/></g><text class="terminal-549339775-r12" x="451.4" y="93.2" textLength="12.2" clip-path="url(#terminal-549339775-line-3)">&#160;</text><g clip-path="url(#terminal-549339775-line-3)"><path fill="#e0e0e0" transform="translate(463.6 93.2) scale(0.0282081 -0.02)" d="M775 -58V283H698V174H277V280H201V-58ZM447 560C447 675 368 759 250 759C132 759 52 674 52 560C52 448 132 362 250 362C368 362 447 447 447 560ZM775 328V804H699V598H594V788H521V338H594V535H699V328ZM372 560C372 485 327 428 250 428C173 428 127 485 127 560C127 635 173 693 250 693C327 693 372 635 372 560ZM698 4H277V112H698Z"/></g><text class="terminal-549339775-r12" x="488" y="93.2" textLength="24.4" clip-path="url(#terminal-549339775-line-3)">&#160;'</text><g clip-path="url(#terminal-549339775-line-3)"><path fill="#e0e0e0" transform="translate(512.4 93.2) scale(0.0282081 -0.02)" d="M547 601C547 700 450 763 315 763C180 763 81 700 81 602C81 500 180 441 315 441C450 441 547 501 547 601ZM756 132V804H680V287H496V227H680V132ZM774 -49V15H225V204H149V-49ZM472 601C472 542 409 503 315 503C221 503 157 542 157 601C157 661 221 700 315 700C409 700 472 660 472 601ZM359 167V331C451 337 548 343 603 351L597 410C512 401 417 392 320 388C225 385 118 384 28 385L40 320C113 320 200 323 283 326V167Z"/><path fill="#e0e0e0" transform="translate(536.8 93.2) scale(0.0282081 -0.02)" d="M484 403H676V284H752V804H676V647H494V583H676V467H484ZM753 -70V238H170V175H677V-70ZM486 744H88V679H402C379 531 228 395 54 356L93 294C315 363 469 516 486 744Z"/></g><text class="terminal-549339775-r12" x="561.2" y="93.2" textLength="12.2" clip-path="url(#terminal-549339775-line-3)">&#160;</text><g clip-path="url(#terminal-549339775-line-3)"><path fill="#e0e0e0" transform="translate(573.4 93.2) scale(0.0282081 -0.02)" d="M484 192C376 262 294 370 294 542V638H462V701H45V638H219V540C219 370 127 232 24 166L75 113C160 173 239 277 257 374C282 282 374 180 436 136ZM602 -26V783H527V483H387V420H527V-26ZM775 -70V804H700V-70Z"/><path fill="#e0e0e0" transform="translate(597.8 93.2) scale(0.0282081 -0.02)" d="M49 434C49 248 129 125 270 125C403 125 481 235 489 403H676V-70H752V804H676V468H489C479 634 402 743 270 743C129 743 49 619 49 434ZM415 433C415 291 356 191 270 191C183 191 125 291 125 433C125 577 183 677 270 677C356 677 415 577 415 433Z"/></g><text class="terminal-549339775-r12" x="622.2" y="93.2" textLength="12.2" clip-path="url(#terminal-549339775-line-3)">'</text><g clip-path="url(#terminal-549339775-line-3)"><path fill="#e0e0e0" transform="translate(634.4 93.2) scale(0.0282081 -0.02)" d="M827 41V105H469V254H754V318H211V464H729V731H134V667H653V527H135V254H393V105H38V41Z"/></g><text class="terminal-549339775-r12" x="658.8" y="93.2" textLength="12.2" clip-path="url(#terminal-549339775-line-3)">&#160;</text><g clip-path="url(#terminal-549339775-line-3)"><path fill="#e0e0e0" transform="translate(671 93.2) scale(0.0282081 -0.02)" d="M676 617V456H517V393H676V169H752V804H676V680H517V617ZM771 -41V22H263V225H187V-41ZM270 745C142 745 43 655 43 526C43 395 142 309 271 309C399 309 497 396 497 526C497 656 398 745 270 745ZM270 678C361 678 423 615 423 526C423 438 361 376 271 376C184 376 118 438 118 526C118 615 183 678 270 678Z"/><path fill="#e0e0e0" transform="translate(695.4 93.2) scale(0.0282081 -0.02)" d="M785 -65V-5H263V100H752V311H184V251H676V155H187V-65ZM485 756H86V692H398C369 549 241 433 49 385L87 323C305 386 467 526 485 756ZM494 615H676V514H483V453H676V359H752V804H676V675H494Z"/><path fill="#e0e0e0" transform="translate(719.8 93.2) scale(0.0282081 -0.02)" d="M784 -70V804H710V434H604V783H530V-26H604V370H710V-70ZM465 367V431H143V651H461V714H68V367H226V205C147 202 82 200 23 200L35 135C94 135 172 137 267 142C345 146 431 156 498 165L492 226C438 218 361 212 300 209V367Z"/></g><text class="terminal-549339775-r12" x="744.2" y="93.2" textLength="12.2" clip-path="url(#terminal-549339775-line-3)">&#160;</text><g clip-path="url(#terminal-549339775-line-3)"><path fill="#e0e0e0" transform="translate(756.4 93.2) scale(0.0282081 -0.02)" d="M752 296V804H676V296ZM790 -72 836 -18C753 13 666 109 666 217V267H590V214C590 108 509 13 415 -33L463 -84C534 -49 607 30 629 96C650 33 729 -43 789 -72ZM465 48C398 74 336 135 336 228V264H260V221C260 115 172 19 83 -20L129 -74C204 -38 281 46 302 112C322 64 369 19 413 -4ZM286 755C162 755 59 671 59 544C59 417 162 337 286 337C410 337 512 417 512 545C512 671 410 755 286 755ZM286 693C378 693 439 631 439 544C439 458 377 399 286 399C198 399 133 458 133 545C133 631 198 693 286 693Z"/><path fill="#e0e0e0" transform="translate(780.8 93.2) scale(0.0282081 -0.02)" d="M786 534C651 549 473 642 473 765V793H394V765C394 642 219 549 82 534L118 468C250 494 395 576 433 667C476 576 618 493 750 468ZM827 335V399H38V335ZM727 -58V274H650V171H215V273H139V-58ZM650 5H215V109H650Z"/><path fill="#e0e0e0" transform="translate(805.2 93.2) scale(0.0282081 -0.02)" d="M746 804H671V-70H746ZM582 251C478 228 276 212 164 212V713H87V145H126C260 145 488 162 589 185Z"/><path fill="#e0e0e0" transform="translate(829.6 93.2) scale(0.0282081 -0.02)" d="M712 804H636V-70H712V393H854V457H712ZM149 209V649H487V713H72V144H158C310 144 483 156 577 174L569 237C485 219 312 209 199 209Z"/></g><text class="terminal-549339775-r12" x="854" y="93.2" textLength="12.2" clip-path="url(#terminal-549339775-line-3)">.</text><text class="terminal-549339775-r6" x="1061.4" y="93.2" textLength="12.2" clip-path="url(#terminal-549339775-line-3)">│</text><text class="terminal-549339775-r5" x="1085.8" y="93.2" textLength="12.2" clip-path="url(#terminal-549339775-line-3)">│</text><text class="terminal-549339775-r4" x="1098" y="93.2" textLength="12.2" clip-path="url(#terminal-549339775-line-3)">
</text><text class="terminal-549339775-r5" x="0" y="117.6" textLength="12.2" clip-path="url(#terminal-549339775-line-4)">│</text><text class="terminal-549339775-r6" x="24.4" y="117.6" textLength="12.2" clip-path="url(#terminal-549339775-line-4)">│</text><text class="terminal-549339775-r12" x="48.8" y="117.6" textLength="12.2" clip-path="url(#terminal-549339775-line-4)">(</text><g clip-path="url(#terminal-549339775-line-4)"><path fill="#e0e0e0" transform="translate(61 117.6) scale(0.0282081 -0.02)" d="M777 -70V804H703V448H597V783H523V-25H597V385H703V-70ZM478 174C477 194 476 214 473 234C443 230 404 226 362 223C373 340 384 460 394 577L318 585C309 464 302 338 294 218C286 217 278 217 271 217C248 216 227 214 204 214C197 337 188 462 181 583L105 574C114 455 123 332 133 213H26L38 145C112 146 194 150 275 154C353 159 432 166 478 174ZM451 630V694H42V630Z"/><path fill="#e0e0e0" transform="translate(85.4 117.6) scale(0.0282081 -0.02)" d="M752 351V804H676V652H409V589H676V351ZM785 -63V0H261V94H753V305H184V242H677V154H185V-63ZM545 485C446 464 279 446 162 448V755H86V383H151C266 383 462 401 555 421Z"/></g><text class="terminal-549339775-r12" x="109.8" y="117.6" textLength="12.2" clip-path="url(#terminal-549339775-line-4)">&#160;</text><g clip-path="url(#terminal-549339775-line-4)"><path fill="#e0e0e0" transform="translate(122 117.6) scale(0.0282081 -0.02)" d="M583 166C525 157 432 149 335 143V226C438 236 505 290 505 370C505 462 422 518 298 518C175 518 91 461 91 370C91 291 157 237 258 226V139C174 136 85 136 23 138L37 72C110 72 202 72 299 78C404 85 520 96 588 104ZM852 351V416H712V804H635V-70H712V351ZM431 370C431 321 378 286 298 286C219 286 164 321 164 370C164 421 219 455 298 455C378 455 431 421 431 370ZM561 563V626H41V563ZM422 697V761H171V697Z"/><path fill="#e0e0e0" transform="translate(146.4 117.6) scale(0.0282081 -0.02)" d="M676 589V459H513V396H676V169H752V804H676V652H513V589ZM771 -41V23H265V227H189V-41ZM476 318V726H77V318ZM399 380H153V663H399Z"/><path fill="#e0e0e0" transform="translate(170.8 117.6) scale(0.0282081 -0.02)" d="M680 804V-70H756V804ZM542 528C542 656 444 736 315 736C188 736 87 651 87 528C87 411 186 325 315 325C441 325 542 404 542 528ZM468 528C468 446 398 389 315 389C230 389 161 447 161 528C161 610 231 671 315 671C400 671 468 616 468 528ZM629 152 622 214C558 206 445 199 323 195C217 189 114 187 39 188L53 121C119 122 215 125 318 130C429 135 554 143 629 152Z"/></g><text class="terminal-549339775-r12" x="195.2" y="117.6" textLength="305" clip-path="url(#terminal-549339775-line-4)">&#160;'Remote&#160;Control&#160;active'&#160;</text><g clip-path="url(#terminal-549339775-line-4)"><path fill="#e0e0e0" transform="translate(500.2 117.6) scale(0.0282081 -0.02)" d="M827 41V105H611V291H535V105H328V291H252V105H38V41ZM746 336V400H610L640 607L565 619L539 400H324L308 620L229 612L252 400H115V336ZM747 663V727H114V663Z"/><path fill="#e0e0e0" transform="translate(524.6 117.6) scale(0.0282081 -0.02)" d="M758 -70V804H681V-70ZM570 198C449 270 343 413 343 573V728H266V570C266 415 161 256 33 176L83 119C184 191 274 298 306 407C340 302 443 194 522 140Z"/></g><text class="terminal-549339775-r12" x="549" y="117.6" textLength="12.2" clip-path="url(#terminal-549339775-line-4)">)</text><text class="terminal-549339775-r6" x="1061.4" y="117.6" textLength="12.2" clip-path="url(#terminal-549339775-line-4)">│</text><text class="terminal-549339775-r5" x="1085.8" y="117.6" textLength="12.2" clip-path="url(#terminal-549339775-line-4)">│</text><text class="terminal-549339775-r4" x="1098" y="117.6" textLength="12.2" clip-path="url(#terminal-549339775-line-4)">
</text><text class="terminal-549339775-r5" x="0" y="142" textLength="12.2" clip-path="url(#terminal-549339775-line-5)">│</text><text class="terminal-549339775-r6" x="24.4" y="142" textLength="12.2" clip-path="url(#terminal-549339775-line-5)">│</text><text class="terminal-549339775-r6" x="1061.4" y="142" textLength="12.2" clip-path="url(#terminal-549339775-line-5)">│</text><text class="terminal-549339775-r5" x="1085.8" y="142" textLength="12.2" clip-path="url(#terminal-549339775-line-5)">│</text><text class="terminal-549339775-r4" x="1098" y="142" textLength="12.2" clip-path="url(#terminal-549339775-line-5)">
</text><text class="terminal-549339775-r5" x="0" y="166.4" textLength="12.2" clip-path="url(#terminal-549339775-line-6)">│</text><text class="terminal-549339775-r6" x="24.4" y="166.4" textLength="12.2" clip-path="url(#terminal-549339775-line-6)">│</text><text class="terminal-549339775-r12" x="48.8" y="166.4" textLength="24.4" clip-path="url(#terminal-549339775-line-6)">•&#160;</text><g clip-path="url(#terminal-549339775-line-6)"><path fill="#e0e0e0" transform="translate(73.2 166.4) scale(0.0282081 -0.02)" d="M547 601C547 700 450 763 315 763C180 763 81 700 81 602C81 500 180 441 315 441C450 441 547 501 547 601ZM756 132V804H680V287H496V227H680V132ZM774 -49V15H225V204H149V-49ZM472 601C472 542 409 503 315 503C221 503 157 542 157 601C157 661 221 700 315 700C409 700 472 660 472 601ZM359 167V331C451 337 548 343 603 351L597 410C512 401 417 392 320 388C225 385 118 384 28 385L40 320C113 320 200 323 283 326V167Z"/><path fill="#e0e0e0" transform="translate(97.6 166.4) scale(0.0282081 -0.02)" d="M484 403H676V284H752V804H676V647H494V583H676V467H484ZM753 -70V238H170V175H677V-70ZM486 744H88V679H402C379 531 228 395 54 356L93 294C315 363 469 516 486 744Z"/></g><text class="terminal-549339775-r12" x="122" y="166.4" textLength="12.2" clip-path="url(#terminal-549339775-line-6)">&#160;</text><g clip-path="url(#terminal-549339775-line-6)"><path fill="#e0e0e0" transform="translate(134.2 166.4) scale(0.0282081 -0.02)" d="M484 192C376 262 294 370 294 542V638H462V701H45V638H219V540C219 370 127 232 24 166L75 113C160 173 239 277 257 374C282 282 374 180 436 136ZM602 -26V783H527V483H387V420H527V-26ZM775 -70V804H700V-70Z"/><path fill="#e0e0e0" transform="translate(158.6 166.4) scale(0.0282081 -0.02)" d="M49 434C49 248 129 125 270 125C403 125 481 235 489 403H676V-70H752V804H676V468H489C479 634 402 743 270 743C129 743 49 619 49 434ZM415 433C415 291 356 191 270 191C183 191 125 291 125 433C125 577 183 677 270 677C356 677 415 577 415 433Z"/><path fill="#e0e0e0" transform="translate(183 166.4) scale(0.0282081 -0.02)" d="M827 289V353H38V289ZM743 -51V12H217V207H141V-51ZM739 462V525H220V767H144V462Z"/></g><text class="terminal-549339775-r12" x="207.4" y="166.4" textLength="207.4" clip-path="url(#terminal-549339775-line-6)">&#160;Claude&#160;Code&#160;CLI&#160;</text><g clip-path="url(#terminal-549339775-line-6)"><path fill="#e0e0e0" transform="translate(414.8 166.4) scale(0.0282081 -0.02)" d="M680 804V-70H756V804ZM542 528C542 656 444 736 315 736C188 736 87 651 87 528C87 411 186 325 315 325C441 325 542 404 542 528ZM468 528C468 446 398 389 315 389C230 389 161 447 161 528C161 610 231 671 315 671C400 671 468 616 468 528ZM629 152 622 214C558 206 445 199 323 195C217 189 114 187 39 188L53 121C119 122 215 125 318 130C429 135 554 143 629 152Z"/></g><text class="terminal-549339775-r12" x="439.2" y="166.4" textLength="85.4" clip-path="url(#terminal-549339775-line-6)">&#160;'/rc'&#160;</text><g clip-path="url(#terminal-549339775-line-6)"><path fill="#e0e0e0" transform="translate(524.6 166.4) scale(0.0282081 -0.02)" d="M759 96C759 199 651 264 462 264C271 264 164 199 164 96C164 -6 271 -70 462 -70C651 -70 759 -6 759 96ZM462 199C600 199 681 162 681 96C681 31 600 -6 462 -6C324 -6 243 31 243 96C243 162 324 199 462 199ZM519 600H676V483H518V420H676V260H752V804H676V663H519ZM477 337V737H77V337ZM400 399H153V674H400Z"/><path fill="#e0e0e0" transform="translate(549 166.4) scale(0.0282081 -0.02)" d="M760 90C760 190 652 249 461 249C269 249 161 190 161 90C161 -8 269 -68 461 -68C652 -68 760 -8 760 90ZM520 601H676V489H520V426H676V250H752V804H676V664H520ZM461 186C601 186 682 151 682 90C682 29 601 -5 461 -5C321 -5 238 29 238 90C238 151 321 186 461 186ZM499 384C415 369 293 366 175 366H145V502H458V748H69V685H382V564H69V304H172C274 304 422 309 506 323Z"/><path fill="#e0e0e0" transform="translate(573.4 166.4) scale(0.0282081 -0.02)" d="M827 50V114H38V50ZM750 507C750 640 624 728 431 728C241 728 114 640 114 507C114 373 241 286 431 286C623 286 750 373 750 507ZM674 506C674 413 577 351 431 351C286 351 190 413 190 506C190 601 286 664 431 664C578 664 674 601 674 506Z"/><path fill="#e0e0e0" transform="translate(597.8 166.4) scale(0.0282081 -0.02)" d="M827 41V105H469V254H754V318H211V464H729V731H134V667H653V527H135V254H393V105H38V41Z"/></g><text class="terminal-549339775-r12" x="622.2" y="166.4" textLength="12.2" clip-path="url(#terminal-549339775-line-6)">&#160;</text><g clip-path="url(#terminal-549339775-line-6)"><path fill="#e0e0e0" transform="translate(634.4 166.4) scale(0.0282081 -0.02)" d="M474 710H87V646H393C390 594 383 547 368 502L42 477L58 407L345 439C288 309 180 213 37 148L86 88C327 214 471 393 474 710ZM471 259H676V-70H752V804H676V558H484V494H676V323H471Z"/><path fill="#e0e0e0" transform="translate(658.8 166.4) scale(0.0282081 -0.02)" d="M827 56V120H415V436H339V120H38V56ZM721 713H119V649H642V564C642 449 631 317 611 235L686 223C712 334 720 470 721 603Z"/></g><text class="terminal-549339775-r12" x="683.2" y="166.4" textLength="12.2" clip-path="url(#terminal-549339775-line-6)">&#160;</text><g clip-path="url(#terminal-549339775-line-6)"><path fill="#e0e0e0" transform="translate(695.4 166.4) scale(0.0282081 -0.02)" d="M726 -57V326H650V198H214V324H138V-57ZM728 770H458V707H650C650 628 637 543 617 469H352C372 553 389 667 389 770H110V707H310C310 630 293 533 274 469H38V405H827V469H693C713 558 728 675 728 770ZM650 6H214V136H650Z"/><path fill="#e0e0e0" transform="translate(719.8 166.4) scale(0.0282081 -0.02)" d="M746 804H671V-70H746ZM582 251C478 228 276 212 164 212V713H87V145H126C260 145 488 162 589 185Z"/><path fill="#e0e0e0" transform="translate(744.2 166.4) scale(0.0282081 -0.02)" d="M712 804H636V-70H712V393H854V457H712ZM149 209V649H487V713H72V144H158C310 144 483 156 577 174L569 237C485 219 312 209 199 209Z"/></g><text class="terminal-549339775-r12" x="768.6" y="166.4" textLength="12.2" clip-path="url(#terminal-549339775-line-6)">.</text><text class="terminal-549339775-r6" x="1061.4" y="166.4" textLength="12.2" clip-path="url(#terminal-549339775-line-6)">│</text><text class="terminal-549339775-r5" x="1085.8" y="166.4" textLength="12.2" clip-path="url(#terminal-549339775-line-6)">│</text><text class="terminal-549339775-r4" x="1098" y="166.4" textLength="12.2" clip-path="url(#terminal-549339775-line-6)">
</text><text class="terminal-549339775-r5" x="0" y="190.8" textLength="12.2" clip-path="url(#terminal-549339775-line-7)">│</text><text class="terminal-549339775-r6" x="24.4" y="190.8" textLength="12.2" clip-path="url(#terminal-549339775-line-7)">│</text><text class="terminal-549339775-r12" x="48.8" y="190.8" textLength="48.8" clip-path="url(#terminal-549339775-line-7)">&#160;&#160;→&#160;</text><g clip-path="url(#terminal-549339775-line-7)"><path fill="#e0e0e0" transform="translate(97.6 190.8) scale(0.0282081 -0.02)" d="M757 -70V804H681V-70ZM67 430C67 244 149 120 292 120C437 120 518 244 518 429C518 614 437 738 292 738C149 738 67 614 67 430ZM446 429C446 286 385 186 292 186C200 186 139 286 139 429C139 573 200 672 292 672C385 672 446 573 446 429Z"/></g><text class="terminal-549339775-r12" x="122" y="190.8" textLength="12.2" clip-path="url(#terminal-549339775-line-7)">&#160;</text><g clip-path="url(#terminal-549339775-line-7)"><path fill="#e0e0e0" transform="translate(134.2 190.8) scale(0.0282081 -0.02)" d="M583 166C525 157 432 149 335 143V226C438 236 505 290 505 370C505 462 422 518 298 518C175 518 91 461 91 370C91 291 157 237 258 226V139C174 136 85 136 23 138L37 72C110 72 202 72 299 78C404 85 520 96 588 104ZM852 351V416H712V804H635V-70H712V351ZM431 370C431 321 378 286 298 286C219 286 164 321 164 370C164 421 219 455 298 455C378 455 431 421 431 370ZM561 563V626H41V563ZM422 697V761H171V697Z"/><path fill="#e0e0e0" transform="translate(158.6 190.8) scale(0.0282081 -0.02)" d="M676 589V459H513V396H676V169H752V804H676V652H513V589ZM771 -41V23H265V227H189V-41ZM476 318V726H77V318ZM399 380H153V663H399Z"/><path fill="#e0e0e0" transform="translate(183 190.8) scale(0.0282081 -0.02)" d="M244 728C117 728 52 604 52 429C52 253 117 130 244 130C364 130 428 237 436 395H530V-28H604V787H530V458H436C430 617 365 728 244 728ZM361 429C361 287 315 197 244 197C174 197 129 287 129 429C129 570 174 661 244 661C315 661 361 570 361 429ZM775 -70V804H700V-70Z"/><path fill="#e0e0e0" transform="translate(207.4 190.8) scale(0.0282081 -0.02)" d="M755 -70V804H679V492H475V428H679V-70ZM561 197C441 267 337 409 337 569V728H258V566C258 411 157 256 30 176L80 119C181 192 267 300 298 409C333 304 434 193 514 139Z"/></g><text class="terminal-549339775-r12" x="231.8" y="190.8" textLength="61" clip-path="url(#terminal-549339775-line-7)">&#160;[r]&#160;</text><g clip-path="url(#terminal-549339775-line-7)"><path fill="#e0e0e0" transform="translate(292.8 190.8) scale(0.0282081 -0.02)" d="M512 714H101V651H432C430 599 421 550 406 504L63 484L79 415L381 441C318 311 202 213 58 151L107 93C347 209 509 398 512 714ZM757 -70V804H681V-70Z"/><path fill="#e0e0e0" transform="translate(317.2 190.8) scale(0.0282081 -0.02)" d="M827 41V105H469V254H754V318H211V464H729V731H134V667H653V527H135V254H393V105H38V41Z"/></g><text class="terminal-549339775-r12" x="341.6" y="190.8" textLength="12.2" clip-path="url(#terminal-549339775-line-7)">&#160;</text><g clip-path="url(#terminal-549339775-line-7)"><path fill="#e0e0e0" transform="translate(353.8 190.8) scale(0.0282081 -0.02)" d="M852 392V457H710V804H634V-70H710V392ZM478 147V730H401V508H143V730H67V147ZM401 211H143V445H401Z"/><path fill="#e0e0e0" transform="translate(378.2 190.8) scale(0.0282081 -0.02)" d="M827 41V105H469V254H754V318H211V464H729V731H134V667H653V527H135V254H393V105H38V41Z"/></g><text class="terminal-549339775-r12" x="402.6" y="190.8" textLength="12.2" clip-path="url(#terminal-549339775-line-7)">&#160;</text><g clip-path="url(#terminal-549339775-line-7)"><path fill="#e0e0e0" transform="translate(414.8 190.8) scale(0.0282081 -0.02)" d="M704 473V537H207V666H730V730H131V276H393V105H38V41H827V105H469V276H740V339H207V473Z"/><path fill="#e0e0e0" transform="translate(439.2 190.8) scale(0.0282081 -0.02)" d="M762 -58V3H208V103H728V314H125V253H652V159H132V-58ZM729 757H134V694H651C651 609 643 538 626 474H38V412H827V474H702C720 554 729 640 729 757Z"/><path fill="#e0e0e0" transform="translate(463.6 190.8) scale(0.0282081 -0.02)" d="M843 493V557H710V804H634V297H710V493ZM710 -64V255H634V161H236V254H160V-64ZM634 0H236V98H634ZM415 728V792H163V728ZM543 605V667H34V605ZM492 428C492 516 407 570 289 570C168 570 86 516 86 428C86 342 170 287 289 287C407 287 492 342 492 428ZM415 428C415 378 357 347 289 347C222 347 161 378 161 428C161 479 221 509 289 509C357 509 415 479 415 428Z"/><path fill="#e0e0e0" transform="translate(488 190.8) scale(0.0282081 -0.02)" d="M746 804H671V-70H746ZM582 251C478 228 276 212 164 212V713H87V145H126C260 145 488 162 589 185Z"/><path fill="#e0e0e0" transform="translate(512.4 190.8) scale(0.0282081 -0.02)" d="M712 804H636V-70H712V393H854V457H712ZM149 209V649H487V713H72V144H158C310 144 483 156 577 174L569 237C485 219 312 209 199 209Z"/></g><text class="terminal-549339775-r12" x="536.8" y="190.8" textLength="12.2" clip-path="url(#terminal-549339775-line-7)">(</text><g clip-path="url(#terminal-549339775-line-7)"><path fill="#e0e0e0" transform="translate(549 190.8) scale(0.0282081 -0.02)" d="M775 -70V804H700V447H595V783H521V-26H595V383H700V-70ZM455 303C455 408 377 478 264 478C152 478 73 409 73 303C73 203 152 129 264 129C377 129 455 198 455 303ZM382 303C382 237 333 192 264 192C195 192 147 235 147 303C147 370 195 414 264 414C333 414 382 370 382 303ZM471 528V591H36V528ZM377 671V737H138V671Z"/><path fill="#e0e0e0" transform="translate(573.4 190.8) scale(0.0282081 -0.02)" d="M842 511V574H709V804H633V281H709V511ZM720 100C720 198 619 267 430 267C240 267 141 200 141 100C141 1 240 -66 430 -66C619 -66 720 2 720 100ZM641 100C641 37 562 -3 430 -3C298 -3 220 38 220 100C220 162 298 203 430 203C562 203 641 163 641 100ZM143 404V670H461V734H67V341H138C289 341 451 354 548 371L540 433C455 417 307 404 186 404Z"/></g><text class="terminal-549339775-r12" x="597.8" y="190.8" textLength="12.2" clip-path="url(#terminal-549339775-line-7)">&#160;</text><g clip-path="url(#terminal-549339775-line-7)"><path fill="#e0e0e0" transform="translate(610 190.8) scale(0.0282081 -0.02)" d="M777 -70V804H703V448H597V783H523V-25H597V385H703V-70ZM478 174C477 194 476 214 473 234C443 230 404 226 362 223C373 340 384 460 394 577L318 585C309 464 302 338 294 218C286 217 278 217 271 217C248 216 227 214 204 214C197 337 188 462 181 583L105 574C114 455 123 332 133 213H26L38 145C112 146 194 150 275 154C353 159 432 166 478 174ZM451 630V694H42V630Z"/><path fill="#e0e0e0" transform="translate(634.4 190.8) scale(0.0282081 -0.02)" d="M752 351V804H676V652H409V589H676V351ZM785 -63V0H261V94H753V305H184V242H677V154H185V-63ZM545 485C446 464 279 446 162 448V755H86V383H151C266 383 462 401 555 421Z"/><path fill="#e0e0e0" transform="translate(658.8 190.8) scale(0.0282081 -0.02)" d="M244 728C117 728 52 604 52 429C52 253 117 130 244 130C364 130 428 237 436 395H530V-28H604V787H530V458H436C430 617 365 728 244 728ZM361 429C361 287 315 197 244 197C174 197 129 287 129 429C129 570 174 661 244 661C315 661 361 570 361 429ZM775 -70V804H700V-70Z"/></g><text class="terminal-549339775-r12" x="683.2" y="190.8" textLength="61" clip-path="url(#terminal-549339775-line-7)">&#160;/rc&#160;</text><g clip-path="url(#terminal-549339775-line-7)"><path fill="#e0e0e0" transform="translate(744.2 190.8) scale(0.0282081 -0.02)" d="M790 452C656 467 477 556 473 679H754V742H110V679H393C389 557 220 465 77 450L112 386C261 411 397 501 432 583C472 501 611 413 754 388ZM469 -70V243H827V307H38V243H393V-70Z"/><path fill="#e0e0e0" transform="translate(768.6 190.8) scale(0.0282081 -0.02)" d="M752 336V804H676V336ZM753 -58V288H677V177H265V288H189V-58ZM677 4H265V115H677ZM286 761C163 761 61 679 61 556C61 432 164 354 286 354C409 354 510 432 510 557C510 681 409 761 286 761ZM286 695C376 695 434 638 434 556C434 473 375 417 286 417C200 417 137 473 137 557C137 639 200 695 286 695Z"/></g><text class="terminal-549339775-r12" x="793" y="190.8" textLength="24.4" clip-path="url(#terminal-549339775-line-7)">).</text><text class="terminal-549339775-r6" x="1061.4" y="190.8" textLength="12.2" clip-path="url(#terminal-549339775-line-7)">│</text><text class="terminal-549339775-r5" x="1085.8" y="190.8" textLength="12.2" clip-path="url(#terminal-549339775-line-7)">│</text><text class="terminal-549339775-r4" x="1098" y="190.8" textLength="12.2" clip-path="url(#terminal-549339775-line-7)">
</text><text class="terminal-549339775-r5" x="0" y="215.2" textLength="12.2" clip-path="url(#terminal-549339775-line-8)">│</text><text class="terminal-549339775-r6" x="24.4" y="215.2" textLength="12.2" clip-path="url(#terminal-549339775-line-8)">│</text><text class="terminal-549339775-r12" x="48.8" y="215.2" textLength="24.4" clip-path="url(#terminal-549339775-line-8)">•&#160;</text><g clip-path="url(#terminal-549339775-line-8)"><path fill="#e0e0e0" transform="translate(73.2 215.2) scale(0.0282081 -0.02)" d="M547 601C547 700 450 763 315 763C180 763 81 700 81 602C81 500 180 441 315 441C450 441 547 501 547 601ZM756 132V804H680V287H496V227H680V132ZM774 -49V15H225V204H149V-49ZM472 601C472 542 409 503 315 503C221 503 157 542 157 601C157 661 221 700 315 700C409 700 472 660 472 601ZM359 167V331C451 337 548 343 603 351L597 410C512 401 417 392 320 388C225 385 118 384 28 385L40 320C113 320 200 323 283 326V167Z"/><path fill="#e0e0e0" transform="translate(97.6 215.2) scale(0.0282081 -0.02)" d="M484 403H676V284H752V804H676V647H494V583H676V467H484ZM753 -70V238H170V175H677V-70ZM486 744H88V679H402C379 531 228 395 54 356L93 294C315 363 469 516 486 744Z"/></g><text class="terminal-549339775-r12" x="122" y="215.2" textLength="12.2" clip-path="url(#terminal-549339775-line-8)">&#160;</text><g clip-path="url(#terminal-549339775-line-8)"><path fill="#e0e0e0" transform="translate(134.2 215.2) scale(0.0282081 -0.02)" d="M484 192C376 262 294 370 294 542V638H462V701H45V638H219V540C219 370 127 232 24 166L75 113C160 173 239 277 257 374C282 282 374 180 436 136ZM602 -26V783H527V483H387V420H527V-26ZM775 -70V804H700V-70Z"/><path fill="#e0e0e0" transform="translate(158.6 215.2) scale(0.0282081 -0.02)" d="M49 434C49 248 129 125 270 125C403 125 481 235 489 403H676V-70H752V804H676V468H489C479 634 402 743 270 743C129 743 49 619 49 434ZM415 433C415 291 356 191 270 191C183 191 125 291 125 433C125 577 183 677 270 677C356 677 415 577 415 433Z"/><path fill="#e0e0e0" transform="translate(183 215.2) scale(0.0282081 -0.02)" d="M827 41V105H469V254H754V318H211V464H729V731H134V667H653V527H135V254H393V105H38V41Z"/></g><text class="terminal-549339775-r12" x="207.4" y="215.2" textLength="12.2" clip-path="url(#terminal-549339775-line-8)">&#160;</text><g clip-path="url(#terminal-549339775-line-8)"><path fill="#e0e0e0" transform="translate(219.6 215.2) scale(0.0282081 -0.02)" d="M752 336V804H676V336ZM753 -58V288H677V177H265V288H189V-58ZM677 4H265V115H677ZM286 761C163 761 61 679 61 556C61 432 164 354 286 354C409 354 510 432 510 557C510 681 409 761 286 761ZM286 695C376 695 434 638 434 556C434 473 375 417 286 417C200 417 137 473 137 557C137 639 200 695 286 695Z"/><path fill="#e0e0e0" transform="translate(244 215.2) scale(0.0282081 -0.02)" d="M499 378C415 363 293 360 175 360H145V503H458V753H69V690H382V565H69V298H172C274 298 422 304 506 318ZM752 265V804H676V672H516V609H676V491H516V429H676V265ZM162 217V154H676V-78H752V217Z"/><path fill="#e0e0e0" transform="translate(268.4 215.2) scale(0.0282081 -0.02)" d="M617 287 610 347C556 339 461 332 367 327V443H557V504H183V678H552V740H107V443H290V324C196 322 106 322 39 322L50 256C108 256 237 259 336 263C442 269 548 278 617 287ZM772 -48V15H260V199H184V-48ZM754 144V804H678V144Z"/></g><text class="terminal-549339775-r12" x="292.8" y="215.2" textLength="12.2" clip-path="url(#terminal-549339775-line-8)">&#160;</text><g clip-path="url(#terminal-549339775-line-8)"><path fill="#e0e0e0" transform="translate(305 215.2) scale(0.0282081 -0.02)" d="M752 282V346H609L644 588L569 600L538 346H323L305 601L227 590L251 346H108V282ZM827 46V111H38V46ZM753 648V712H107V648Z"/><path fill="#e0e0e0" transform="translate(329.4 215.2) scale(0.0282081 -0.02)" d="M738 427V487H219V575H721V774H140V714H645V633H143V427H393V339H38V276H827V339H469V427ZM727 -58V201H139V-58ZM650 5H215V138H650Z"/><path fill="#e0e0e0" transform="translate(353.8 215.2) scale(0.0282081 -0.02)" d="M752 282V346H609L644 588L569 600L538 346H323L305 601L227 590L251 346H108V282ZM827 46V111H38V46ZM753 648V712H107V648Z"/><path fill="#e0e0e0" transform="translate(378.2 215.2) scale(0.0282081 -0.02)" d="M707 465V529H211V656H724V720H134V265H733V329H211V465ZM827 41V105H38V41Z"/><path fill="#e0e0e0" transform="translate(402.6 215.2) scale(0.0282081 -0.02)" d="M827 41V105H469V319H738V382H210V667H733V730H133V319H393V105H38V41Z"/></g><text class="terminal-549339775-r12" x="427" y="215.2" textLength="12.2" clip-path="url(#terminal-549339775-line-8)">&#160;</text><g clip-path="url(#terminal-549339775-line-8)"><path fill="#e0e0e0" transform="translate(439.2 215.2) scale(0.0282081 -0.02)" d="M532 401C433 435 318 542 318 681V762H241V678C241 539 147 429 22 370L64 311C166 364 255 451 282 544C317 456 403 381 487 340ZM722 98C722 202 612 266 428 266C245 266 136 202 136 98C136 -6 245 -69 428 -69C612 -69 722 -6 722 98ZM428 203C561 203 644 165 644 98C644 31 561 -6 428 -6C296 -6 214 31 214 98C214 165 296 203 428 203ZM843 503V567H710V804H634V265H710V503Z"/><path fill="#e0e0e0" transform="translate(463.6 215.2) scale(0.0282081 -0.02)" d="M842 487V551H709V804H633V170H709V487ZM743 -40V23H243V227H166V-40ZM144 375V662H469V726H68V312H139C290 312 456 325 553 342L546 404C462 387 308 375 187 375Z"/></g><text class="terminal-549339775-r12" x="488" y="215.2" textLength="12.2" clip-path="url(#terminal-549339775-line-8)">&#160;</text><g clip-path="url(#terminal-549339775-line-8)"><path fill="#e0e0e0" transform="translate(500.2 215.2) scale(0.0282081 -0.02)" d="M752 282V346H609L644 588L569 600L538 346H323L305 601L227 590L251 346H108V282ZM827 46V111H38V46ZM753 648V712H107V648Z"/><path fill="#e0e0e0" transform="translate(524.6 215.2) scale(0.0282081 -0.02)" d="M738 427V487H219V575H721V774H140V714H645V633H143V427H393V339H38V276H827V339H469V427ZM727 -58V201H139V-58ZM650 5H215V138H650Z"/><path fill="#e0e0e0" transform="translate(549 215.2) scale(0.0282081 -0.02)" d="M752 282V346H609L644 588L569 600L538 346H323L305 601L227 590L251 346H108V282ZM827 46V111H38V46ZM753 648V712H107V648Z"/><path fill="#e0e0e0" transform="translate(573.4 215.2) scale(0.0282081 -0.02)" d="M707 465V529H211V656H724V720H134V265H733V329H211V465ZM827 41V105H38V41Z"/></g><text class="terminal-549339775-r12" x="597.8" y="215.2" textLength="12.2" clip-path="url(#terminal-549339775-line-8)">&#160;</text><g clip-path="url(#terminal-549339775-line-8)"><path fill="#e0e0e0" transform="translate(610 215.2) scale(0.0282081 -0.02)" d="M777 -70V804H702V-70ZM614 -26V783H540V448H431V384H540V-26ZM367 668V733H135V668ZM464 529V592H37V529ZM436 297C436 401 363 469 253 469C144 469 70 401 70 297C70 198 144 125 253 125C363 125 436 193 436 297ZM364 297C364 233 318 189 253 189C187 189 141 231 141 297C141 361 187 405 253 405C318 405 364 362 364 297Z"/><path fill="#e0e0e0" transform="translate(634.4 215.2) scale(0.0282081 -0.02)" d="M751 -70V804H675V485H417V420H675V-70ZM543 240C446 221 280 208 150 213V653H486V717H74V148L134 147C290 144 455 156 552 174Z"/><path fill="#e0e0e0" transform="translate(658.8 215.2) scale(0.0282081 -0.02)" d="M244 728C117 728 52 604 52 429C52 253 117 130 244 130C364 130 428 237 436 395H530V-28H604V787H530V458H436C430 617 365 728 244 728ZM361 429C361 287 315 197 244 197C174 197 129 287 129 429C129 570 174 661 244 661C315 661 361 570 361 429ZM775 -70V804H700V-70Z"/></g><text class="terminal-549339775-r12" x="683.2" y="215.2" textLength="12.2" clip-path="url(#terminal-549339775-line-8)">&#160;</text><g clip-path="url(#terminal-549339775-line-8)"><path fill="#e0e0e0" transform="translate(695.4 215.2) scale(0.0282081 -0.02)" d="M843 480V544H710V804H634V170H710V480ZM744 -40V23H230V229H154V-40ZM478 302V745H401V595H141V745H65V302ZM401 364H141V533H401Z"/><path fill="#e0e0e0" transform="translate(719.8 215.2) scale(0.0282081 -0.02)" d="M753 94C753 198 646 261 455 261C265 261 158 198 158 94C158 -7 265 -72 455 -72C646 -72 753 -7 753 94ZM517 406H676V263H752V804H676V688H517V623H676V471H517ZM675 94C675 30 594 -7 455 -7C319 -7 237 30 237 94C237 159 319 197 455 197C594 197 675 159 675 94ZM270 751C147 751 45 667 45 541C45 414 148 334 270 334C393 334 494 414 494 542C494 669 393 751 270 751ZM270 686C360 686 418 628 418 541C418 453 359 396 270 396C184 396 121 453 121 542C121 629 184 686 270 686Z"/><path fill="#e0e0e0" transform="translate(744.2 215.2) scale(0.0282081 -0.02)" d="M754 -58V257H678V165H261V255H185V-58ZM617 341 610 402C556 394 462 387 368 383V486H546V549H190V693H538V756H114V486H292V380C197 377 106 377 39 377L50 310C108 310 237 313 336 318C442 323 548 333 617 341ZM678 4H261V103H678ZM754 304V804H678V304Z"/><path fill="#e0e0e0" transform="translate(768.6 215.2) scale(0.0282081 -0.02)" d="M746 804H671V-70H746ZM582 251C478 228 276 212 164 212V713H87V145H126C260 145 488 162 589 185Z"/><path fill="#e0e0e0" transform="translate(793 215.2) scale(0.0282081 -0.02)" d="M712 804H636V-70H712V393H854V457H712ZM149 209V649H487V713H72V144H158C310 144 483 156 577 174L569 237C485 219 312 209 199 209Z"/></g><text class="terminal-549339775-r12" x="817.4" y="215.2" textLength="12.2" clip-path="url(#terminal-549339775-line-8)">.</text><text class="terminal-549339775-r6" x="1061.4" y="215.2" textLength="12.2" clip-path="url(#terminal-549339775-line-8)">│</text><text class="terminal-549339775-r5" x="1085.8" y="215.2" textLength="12.2" clip-path="url(#terminal-549339775-line-8)">│</text><text class="terminal-549339775-r4" x="1098" y="215.2" textLength="12.2" clip-path="url(#terminal-549339775-line-8)">
</text><text class="terminal-549339775-r5" x="0" y="239.6" textLength="12.2" clip-path="url(#terminal-549339775-line-9)">│</text><text class="terminal-549339775-r6" x="24.4" y="239.6" textLength="12.2" clip-path="url(#terminal-549339775-line-9)">│</text><text class="terminal-549339775-r6" x="1061.4" y="239.6" textLength="12.2" clip-path="url(#terminal-549339775-line-9)">│</text><text class="terminal-549339775-r5" x="1085.8" y="239.6" textLength="12.2" clip-path="url(#terminal-549339775-line-9)">│</text><text class="terminal-549339775-r4" x="1098" y="239.6" textLength="12.2" clip-path="url(#terminal-549339775-line-9)">
</text><text class="terminal-549339775-r5" x="0" y="264" textLength="12.2" clip-path="url(#terminal-549339775-line-10)">│</text><text class="terminal-549339775-r6" x="24.4" y="264" textLength="12.2" clip-path="url(#terminal-549339775-line-10)">│</text><text class="terminal-549339775-r12" x="48.8" y="264" textLength="48.8" clip-path="url(#terminal-549339775-line-10)">[r]&#160;</text><g clip-path="url(#terminal-549339775-line-10)"><path fill="#e0e0e0" transform="translate(97.6 264) scale(0.0282081 -0.02)" d="M547 601C547 700 450 763 315 763C180 763 81 700 81 602C81 500 180 441 315 441C450 441 547 501 547 601ZM756 132V804H680V287H496V227H680V132ZM774 -49V15H225V204H149V-49ZM472 601C472 542 409 503 315 503C221 503 157 542 157 601C157 661 221 700 315 700C409 700 472 660 472 601ZM359 167V331C451 337 548 343 603 351L597 410C512 401 417 392 320 388C225 385 118 384 28 385L40 320C113 320 200 323 283 326V167Z"/><path fill="#e0e0e0" transform="translate(122 264) scale(0.0282081 -0.02)" d="M484 403H676V284H752V804H676V647H494V583H676V467H484ZM753 -70V238H170V175H677V-70ZM486 744H88V679H402C379 531 228 395 54 356L93 294C315 363 469 516 486 744Z"/></g><text class="terminal-549339775-r12" x="146.4" y="264" textLength="12.2" clip-path="url(#terminal-549339775-line-10)">&#160;</text><g clip-path="url(#terminal-549339775-line-10)"><path fill="#e0e0e0" transform="translate(158.6 264) scale(0.0282081 -0.02)" d="M484 192C376 262 294 370 294 542V638H462V701H45V638H219V540C219 370 127 232 24 166L75 113C160 173 239 277 257 374C282 282 374 180 436 136ZM602 -26V783H527V483H387V420H527V-26ZM775 -70V804H700V-70Z"/><path fill="#e0e0e0" transform="translate(183 264) scale(0.0282081 -0.02)" d="M49 434C49 248 129 125 270 125C403 125 481 235 489 403H676V-70H752V804H676V468H489C479 634 402 743 270 743C129 743 49 619 49 434ZM415 433C415 291 356 191 270 191C183 191 125 291 125 433C125 577 183 677 270 677C356 677 415 577 415 433Z"/></g><text class="terminal-549339775-r12" x="207.4" y="264" textLength="12.2" clip-path="url(#terminal-549339775-line-10)">&#160;</text><g clip-path="url(#terminal-549339775-line-10)"><path fill="#e0e0e0" transform="translate(219.6 264) scale(0.0282081 -0.02)" d="M704 473V537H207V666H730V730H131V276H393V105H38V41H827V105H469V276H740V339H207V473Z"/><path fill="#e0e0e0" transform="translate(244 264) scale(0.0282081 -0.02)" d="M762 -58V3H208V103H728V314H125V253H652V159H132V-58ZM729 757H134V694H651C651 609 643 538 626 474H38V412H827V474H702C720 554 729 640 729 757Z"/></g><text class="terminal-549339775-r12" x="268.4" y="264" textLength="146.4" clip-path="url(#terminal-549339775-line-10)">(/rc)&#160;&#160;&#160;·&#160;&#160;&#160;</text><g clip-path="url(#terminal-549339775-line-10)"><path fill="#e0e0e0" transform="translate(414.8 264) scale(0.0282081 -0.02)" d="M842 525V589H709V804H633V301H709V525ZM721 -57V5H233V192H712V255H156V-57ZM144 406V674H469V738H68V343H139C290 343 456 356 553 373L545 435C461 418 308 406 187 406Z"/><path fill="#e0e0e0" transform="translate(439.2 264) scale(0.0282081 -0.02)" d="M752 -70V804H676V-70ZM495 711H79V647H414C398 450 268 260 47 163L91 103C317 210 491 427 495 711Z"/></g><text class="terminal-549339775-r12" x="463.6" y="264" textLength="73.2" clip-path="url(#terminal-549339775-line-10)">:&#160;Esc&#160;</text><g clip-path="url(#terminal-549339775-line-10)"><path fill="#e0e0e0" transform="translate(536.8 264) scale(0.0282081 -0.02)" d="M827 41V105H469V276H393V105H38V41ZM761 325V388H517V657H760V723H441V325ZM405 343 397 408C341 393 237 385 177 385V656H388V721H101V318C203 318 327 325 405 343Z"/><path fill="#e0e0e0" transform="translate(561.2 264) scale(0.0282081 -0.02)" d="M827 289V353H38V289ZM743 -51V12H217V207H141V-51ZM739 462V525H220V767H144V462Z"/></g><text class="terminal-549339775-r12" x="585.6" y="264" textLength="12.2" clip-path="url(#terminal-549339775-line-10)">&#160;</text><g clip-path="url(#terminal-549339775-line-10)"><path fill="#e0e0e0" transform="translate(597.8 264) scale(0.0282081 -0.02)" d="M852 392V457H710V804H634V-70H710V392ZM478 147V730H401V508H143V730H67V147ZM401 211H143V445H401Z"/><path fill="#e0e0e0" transform="translate(622.2 264) scale(0.0282081 -0.02)" d="M843 527V591H710V804H634V328H710V527ZM731 -59V0H239V84H698V142H239V221H713V281H163V-59ZM286 753H56V689H209C198 590 142 487 26 418L81 368C178 438 286 552 286 753ZM533 753H325V689H455C451 576 400 449 279 367L336 317C456 412 533 545 533 753Z"/></g><text class="terminal-549339775-r12" x="646.6" y="264" textLength="12.2" clip-path="url(#terminal-549339775-line-10)">&#160;</text><g clip-path="url(#terminal-549339775-line-10)"><path fill="#e0e0e0" transform="translate(658.8 264) scale(0.0282081 -0.02)" d="M721 763H134V700H643C643 676 642 651 641 625L109 605L121 541L636 565C633 520 625 477 617 443H38V381H827V443H693C711 526 721 639 721 763ZM762 -54V8H204V99H728V300H125V238H652V155H128V-54Z"/><path fill="#e0e0e0" transform="translate(683.2 264) scale(0.0282081 -0.02)" d="M752 277V804H676V277ZM170 230V167H676V-70H753V230ZM554 411C463 392 295 387 158 387V512H473V752H78V689H397V574H82V323H179C334 324 473 334 563 349Z"/></g><text class="terminal-549339775-r12" x="707.6" y="264" textLength="12.2" clip-path="url(#terminal-549339775-line-10)">.</text><text class="terminal-549339775-r6" x="1061.4" y="264" textLength="12.2" clip-path="url(#terminal-549339775-line-10)">│</text><text class="terminal-549339775-r5" x="1085.8" y="264" textLength="12.2" clip-path="url(#terminal-549339775-line-10)">│</text><text class="terminal-549339775-r4" x="1098" y="264" textLength="12.2" clip-path="url(#terminal-549339775-line-10)">
</text><text class="terminal-549339775-r5" x="0" y="288.4" textLength="12.2" clip-path="url(#terminal-549339775-line-11)">│</text><text class="terminal-549339775-r6" x="24.4" y="288.4" textLength="12.2" clip-path="url(#terminal-549339775-line-11)">╰</text><text class="terminal-549339775-r6" x="36.6" y="288.4" textLength="1024.8" clip-path="url(#terminal-549339775-line-11)">────────────────────────────────────────────────────────────────────────────────────</text><text class="terminal-549339775-r6" x="1061.4" y="288.4" textLength="12.2" clip-path="url(#terminal-549339775-line-11)">╯</text><text class="terminal-549339775-r5" x="1085.8" y="288.4" textLength="12.2" clip-path="url(#terminal-549339775-line-11)">│</text><text class="terminal-549339775-r4" x="1098" y="288.4" textLength="12.2" clip-path="url(#terminal-549339775-line-11)">
</text><text class="terminal-549339775-r5" x="0" y="312.8" textLength="12.2" clip-path="url(#terminal-549339775-line-12)">│</text><text class="terminal-549339775-r5" x="1085.8" y="312.8" textLength="12.2" clip-path="url(#terminal-549339775-line-12)">│</text><text class="terminal-549339775-r4" x="1098" y="312.8" textLength="12.2" clip-path="url(#terminal-549339775-line-12)">
</text><text class="terminal-549339775-r5" x="0" y="337.2" textLength="12.2" clip-path="url(#terminal-549339775-line-13)">│</text><text class="terminal-549339775-r5" x="1085.8" y="337.2" textLength="12.2" clip-path="url(#terminal-549339775-line-13)">│</text><text class="terminal-549339775-r4" x="1098" y="337.2" textLength="12.2" clip-path="url(#terminal-549339775-line-13)">
</text><text class="terminal-549339775-r5" x="0" y="361.6" textLength="12.2" clip-path="url(#terminal-549339775-line-14)">│</text><text class="terminal-549339775-r5" x="1085.8" y="361.6" textLength="12.2" clip-path="url(#terminal-549339775-line-14)">│</text><text class="terminal-549339775-r4" x="1098" y="361.6" textLength="12.2" clip-path="url(#terminal-549339775-line-14)">
</text><text class="terminal-549339775-r5" x="0" y="386" textLength="12.2" clip-path="url(#terminal-549339775-line-15)">│</text><text class="terminal-549339775-r5" x="1085.8" y="386" textLength="12.2" clip-path="url(#terminal-549339775-line-15)">│</text><text class="terminal-549339775-r4" x="1098" y="386" textLength="12.2" clip-path="url(#terminal-549339775-line-15)">
</text><text class="terminal-549339775-r5" x="0" y="410.4" textLength="12.2" clip-path="url(#terminal-549339775-line-16)">│</text><text class="terminal-549339775-r5" x="1085.8" y="410.4" textLength="12.2" clip-path="url(#terminal-549339775-line-16)">│</text><text class="terminal-549339775-r4" x="1098" y="410.4" textLength="12.2" clip-path="url(#terminal-549339775-line-16)">
</text><text class="terminal-549339775-r5" x="0" y="434.8" textLength="12.2" clip-path="url(#terminal-549339775-line-17)">│</text><text class="terminal-549339775-r5" x="1085.8" y="434.8" textLength="12.2" clip-path="url(#terminal-549339775-line-17)">│</text><text class="terminal-549339775-r4" x="1098" y="434.8" textLength="12.2" clip-path="url(#terminal-549339775-line-17)">
</text><text class="terminal-549339775-r5" x="0" y="459.2" textLength="12.2" clip-path="url(#terminal-549339775-line-18)">│</text><text class="terminal-549339775-r5" x="1085.8" y="459.2" textLength="12.2" clip-path="url(#terminal-549339775-line-18)">│</text><text class="terminal-549339775-r4" x="1098" y="459.2" textLength="12.2" clip-path="url(#terminal-549339775-line-18)">
</text><text class="terminal-549339775-r5" x="0" y="483.6" textLength="12.2" clip-path="url(#terminal-549339775-line-19)">│</text><text class="terminal-549339775-r5" x="1085.8" y="483.6" textLength="12.2" clip-path="url(#terminal-549339775-line-19)">│</text><text class="terminal-549339775-r4" x="1098" y="483.6" textLength="12.2" clip-path="url(#terminal-549339775-line-19)">
</text><text class="terminal-549339775-r5" x="0" y="508" textLength="12.2" clip-path="url(#terminal-549339775-line-20)">│</text><text class="terminal-549339775-r5" x="1085.8" y="508" textLength="12.2" clip-path="url(#terminal-549339775-line-20)">│</text><text class="terminal-549339775-r4" x="1098" y="508" textLength="12.2" clip-path="url(#terminal-549339775-line-20)">
</text><text class="terminal-549339775-r5" x="0" y="532.4" textLength="12.2" clip-path="url(#terminal-549339775-line-21)">│</text><text class="terminal-549339775-r5" x="1085.8" y="532.4" textLength="12.2" clip-path="url(#terminal-549339775-line-21)">│</text><text class="terminal-549339775-r4" x="1098" y="532.4" textLength="12.2" clip-path="url(#terminal-549339775-line-21)">
</text><text class="terminal-549339775-r5" x="0" y="556.8" textLength="12.2" clip-path="url(#terminal-549339775-line-22)">│</text><text class="terminal-549339775-r5" x="1085.8" y="556.8" textLength="12.2" clip-path="url(#terminal-549339775-line-22)">│</text><text class="terminal-549339775-r4" x="1098" y="556.8" textLength="12.2" clip-path="url(#terminal-549339775-line-22)">
</text><text class="terminal-549339775-r5" x="0" y="581.2" textLength="12.2" clip-path="url(#terminal-549339775-line-23)">│</text><text class="terminal-549339775-r5" x="1085.8" y="581.2" textLength="12.2" clip-path="url(#terminal-549339775-line-23)">│</text><text class="terminal-549339775-r4" x="1098" y="581.2" textLength="12.2" clip-path="url(#terminal-549339775-line-23)">
</text><text class="terminal-549339775-r5" x="0" y="605.6" textLength="1098" clip-path="url(#terminal-549339775-line-24)">└────────────────────────────────────────────────────────────────────────────────────────┘</text><text class="terminal-549339775-r4" x="1098" y="605.6" textLength="12.2" clip-path="url(#terminal-549339775-line-24)">
</text><text class="terminal-549339775-r13" x="707.6" y="630" textLength="170.8" clip-path="url(#terminal-549339775-line-25)">ssh:playground</text><text class="terminal-549339775-r1" x="890.6" y="630" textLength="61" clip-path="url(#terminal-549339775-line-25)">17:39</text><text class="terminal-549339775-r1" x="963.8" y="630" textLength="122" clip-path="url(#terminal-549339775-line-25)">2026-06-20</text>
    </g>
    </g>
</svg>
