<svg class="rich-terminal" viewBox="0 0 1116 684.4" xmlns="http://www.w3.org/2000/svg">
    <!-- Generated with Rich https://www.textualize.io -->
    <style>

    @font-face {
        font-family: "Fira Code";
        src: local("FiraCode-Regular"),
                url("https://cdnjs.cloudflare.com/ajax/libs/firacode/6.2.0/woff2/FiraCode-Regular.woff2") format("woff2"),
                url("https://cdnjs.cloudflare.com/ajax/libs/firacode/6.2.0/woff/FiraCode-Regular.woff") format("woff");
        font-style: normal;
        font-weight: 400;
    }
    @font-face {
        font-family: "Fira Code";
        src: local("FiraCode-Bold"),
                url("https://cdnjs.cloudflare.com/ajax/libs/firacode/6.2.0/woff2/FiraCode-Bold.woff2") format("woff2"),
                url("https://cdnjs.cloudflare.com/ajax/libs/firacode/6.2.0/woff/FiraCode-Bold.woff") format("woff");
        font-style: bold;
        font-weight: 700;
    }

    .terminal-734977385-matrix {
        font-family: Fira Code, monospace;
        font-size: 20px;
        line-height: 24.4px;
        font-variant-east-asian: full-width;
    }

    .terminal-734977385-title {
        font-size: 18px;
        font-weight: bold;
        font-family: arial;
    }

    .terminal-734977385-r1 { fill: #646464 }
.terminal-734977385-r2 { fill: #595953;font-weight: bold }
.terminal-734977385-r3 { fill: #151515;font-weight: bold }
.terminal-734977385-r4 { fill: #c5c8c6 }
.terminal-734977385-r5 { fill: #0a2030 }
.terminal-734977385-r6 { fill: #2d2d2d }
.terminal-734977385-r7 { fill: #222222 }
.terminal-734977385-r8 { fill: #0a0a0a }
.terminal-734977385-r9 { fill: #fea62b }
.terminal-734977385-r10 { fill: #e0e0e0 }
.terminal-734977385-r11 { fill: #45505a }
.terminal-734977385-r12 { fill: #b93c5b }
.terminal-734977385-r13 { fill: #81878e;font-weight: bold }
.terminal-734977385-r14 { fill: #f5e5e9;font-weight: bold }
.terminal-734977385-r15 { fill: #54222f;font-weight: bold }
    </style>

    <defs>
    <clipPath id="terminal-734977385-clip-terminal">
      <rect x="0" y="0" width="1097.0" height="633.4" />
    </clipPath>
    <clipPath id="terminal-734977385-line-0">
    <rect x="0" y="1.5" width="1098" height="24.65"/>
            </clipPath>
<clipPath id="terminal-734977385-line-1">
    <rect x="0" y="25.9" width="1098" height="24.65"/>
            </clipPath>
<clipPath id="terminal-734977385-line-2">
    <rect x="0" y="50.3" width="1098" height="24.65"/>
            </clipPath>
<clipPath id="terminal-734977385-line-3">
    <rect x="0" y="74.7" width="1098" height="24.65"/>
            </clipPath>
<clipPath id="terminal-734977385-line-4">
    <rect x="0" y="99.1" width="1098" height="24.65"/>
            </clipPath>
<clipPath id="terminal-734977385-line-5">
    <rect x="0" y="123.5" width="1098" height="24.65"/>
            </clipPath>
<clipPath id="terminal-734977385-line-6">
    <rect x="0" y="147.9" width="1098" height="24.65"/>
            </clipPath>
<clipPath id="terminal-734977385-line-7">
    <rect x="0" y="172.3" width="1098" height="24.65"/>
            </clipPath>
<clipPath id="terminal-734977385-line-8">
    <rect x="0" y="196.7" width="1098" height="24.65"/>
            </clipPath>
<clipPath id="terminal-734977385-line-9">
    <rect x="0" y="221.1" width="1098" height="24.65"/>
            </clipPath>
<clipPath id="terminal-734977385-line-10">
    <rect x="0" y="245.5" width="1098" height="24.65"/>
            </clipPath>
<clipPath id="terminal-734977385-line-11">
    <rect x="0" y="269.9" width="1098" height="24.65"/>
            </clipPath>
<clipPath id="terminal-734977385-line-12">
    <rect x="0" y="294.3" width="1098" height="24.65"/>
            </clipPath>
<clipPath id="terminal-734977385-line-13">
    <rect x="0" y="318.7" width="1098" height="24.65"/>
            </clipPath>
<clipPath id="terminal-734977385-line-14">
    <rect x="0" y="343.1" width="1098" height="24.65"/>
            </clipPath>
<clipPath id="terminal-734977385-line-15">
    <rect x="0" y="367.5" width="1098" height="24.65"/>
            </clipPath>
<clipPath id="terminal-734977385-line-16">
    <rect x="0" y="391.9" width="1098" height="24.65"/>
            </clipPath>
<clipPath id="terminal-734977385-line-17">
    <rect x="0" y="416.3" width="1098" height="24.65"/>
            </clipPath>
<clipPath id="terminal-734977385-line-18">
    <rect x="0" y="440.7" width="1098" height="24.65"/>
            </clipPath>
<clipPath id="terminal-734977385-line-19">
    <rect x="0" y="465.1" width="1098" height="24.65"/>
            </clipPath>
<clipPath id="terminal-734977385-line-20">
    <rect x="0" y="489.5" width="1098" height="24.65"/>
            </clipPath>
<clipPath id="terminal-734977385-line-21">
    <rect x="0" y="513.9" width="1098" height="24.65"/>
            </clipPath>
<clipPath id="terminal-734977385-line-22">
    <rect x="0" y="538.3" width="1098" height="24.65"/>
            </clipPath>
<clipPath id="terminal-734977385-line-23">
    <rect x="0" y="562.7" width="1098" height="24.65"/>
            </clipPath>
<clipPath id="terminal-734977385-line-24">
    <rect x="0" y="587.1" width="1098" height="24.65"/>
            </clipPath>
    </defs>

    <rect fill="#292929" stroke="rgba(255,255,255,0.35)" stroke-width="1" x="1" y="1" width="1114" height="682.4" rx="8"/><text class="terminal-734977385-title" fill="#c5c8c6" text-anchor="middle" x="557" y="27">PytmuxApp</text>
            <g transform="translate(26,22)">
            <circle cx="0" cy="0" r="7" fill="#ff5f57"/>
            <circle cx="22" cy="0" r="7" fill="#febc2e"/>
            <circle cx="44" cy="0" r="7" fill="#28c840"/>
            </g>
        
    <g transform="translate(9, 41)" clip-path="url(#terminal-734977385-clip-terminal)">
    <rect fill="#121212" x="0" y="1.5" width="12.2" height="24.65" shape-rendering="crispEdges"/><rect fill="#0b3a5f" x="12.2" y="1.5" width="85.4" height="24.65" shape-rendering="crispEdges"/><rect fill="#121212" x="97.6" y="1.5" width="24.4" height="24.65" shape-rendering="crispEdges"/><rect fill="#2a5738" x="122" y="1.5" width="36.6" height="24.65" shape-rendering="crispEdges"/><rect fill="#121212" x="158.6" y="1.5" width="939.4" height="24.65" shape-rendering="crispEdges"/><rect fill="#121212" x="0" y="25.9" width="12.2" height="24.65" shape-rendering="crispEdges"/><rect fill="#121212" x="12.2" y="25.9" width="85.4" height="24.65" shape-rendering="crispEdges"/><rect fill="#121212" x="97.6" y="25.9" width="951.6" height="24.65" shape-rendering="crispEdges"/><rect fill="#2c151a" x="1049.2" y="25.9" width="36.6" height="24.65" shape-rendering="crispEdges"/><rect fill="#121212" x="1085.8" y="25.9" width="12.2" height="24.65" shape-rendering="crispEdges"/><rect fill="#121212" x="0" y="50.3" width="12.2" height="24.65" shape-rendering="crispEdges"/><rect fill="#121212" x="12.2" y="50.3" width="353.8" height="24.65" shape-rendering="crispEdges"/><rect fill="#121212" x="366" y="50.3" width="12.2" height="24.65" shape-rendering="crispEdges"/><rect fill="#121212" x="378.2" y="50.3" width="671" height="24.65" shape-rendering="crispEdges"/><rect fill="#0a2030" x="1049.2" y="50.3" width="48.8" height="24.65" shape-rendering="crispEdges"/><rect fill="#121212" x="0" y="74.7" width="12.2" height="24.65" shape-rendering="crispEdges"/><rect fill="#121212" x="12.2" y="74.7" width="1073.6" height="24.65" shape-rendering="crispEdges"/><rect fill="#121212" x="1085.8" y="74.7" width="12.2" height="24.65" shape-rendering="crispEdges"/><rect fill="#121212" x="0" y="99.1" width="12.2" height="24.65" shape-rendering="crispEdges"/><rect fill="#121212" x="12.2" y="99.1" width="1073.6" height="24.65" shape-rendering="crispEdges"/><rect fill="#121212" x="1085.8" y="99.1" width="12.2" height="24.65" shape-rendering="crispEdges"/><rect fill="#121212" x="0" y="123.5" width="12.2" height="24.65" shape-rendering="crispEdges"/><rect fill="#121212" x="12.2" y="123.5" width="244" height="24.65" shape-rendering="crispEdges"/><rect fill="#242f38" x="256.2" y="123.5" width="12.2" height="24.65" shape-rendering="crispEdges"/><rect fill="#242f38" x="268.4" y="123.5" width="12.2" height="24.65" shape-rendering="crispEdges"/><rect fill="#242f38" x="280.6" y="123.5" width="158.6" height="24.65" shape-rendering="crispEdges"/><rect fill="#242f38" x="439.2" y="123.5" width="390.4" height="24.65" shape-rendering="crispEdges"/><rect fill="#242f38" x="829.6" y="123.5" width="12.2" height="24.65" shape-rendering="crispEdges"/><rect fill="#121212" x="841.8" y="123.5" width="244" height="24.65" shape-rendering="crispEdges"/><rect fill="#121212" x="1085.8" y="123.5" width="12.2" height="24.65" shape-rendering="crispEdges"/><rect fill="#121212" x="0" y="147.9" width="12.2" height="24.65" shape-rendering="crispEdges"/><rect fill="#121212" x="12.2" y="147.9" width="244" height="24.65" shape-rendering="crispEdges"/><rect fill="#242f38" x="256.2" y="147.9" width="12.2" height="24.65" shape-rendering="crispEdges"/><rect fill="#242f38" x="268.4" y="147.9" width="561.2" height="24.65" shape-rendering="crispEdges"/><rect fill="#242f38" x="829.6" y="147.9" width="12.2" height="24.65" shape-rendering="crispEdges"/><rect fill="#121212" x="841.8" y="147.9" width="244" height="24.65" shape-rendering="crispEdges"/><rect fill="#121212" x="1085.8" y="147.9" width="12.2" height="24.65" shape-rendering="crispEdges"/><rect fill="#121212" x="0" y="172.3" width="12.2" height="24.65" shape-rendering="crispEdges"/><rect fill="#121212" x="12.2" y="172.3" width="244" height="24.65" shape-rendering="crispEdges"/><rect fill="#242f38" x="256.2" y="172.3" width="12.2" height="24.65" shape-rendering="crispEdges"/><rect fill="#242f38" x="268.4" y="172.3" width="24.4" height="24.65" shape-rendering="crispEdges"/><rect fill="#242f38" x="292.8" y="172.3" width="500.2" height="24.65" shape-rendering="crispEdges"/><rect fill="#242f38" x="793" y="172.3" width="12.2" height="24.65" shape-rendering="crispEdges"/><rect fill="#242f38" x="805.2" y="172.3" width="24.4" height="24.65" shape-rendering="crispEdges"/><rect fill="#242f38" x="829.6" y="172.3" width="12.2" height="24.65" shape-rendering="crispEdges"/><rect fill="#121212" x="841.8" y="172.3" width="244" height="24.65" shape-rendering="crispEdges"/><rect fill="#121212" x="1085.8" y="172.3" width="12.2" height="24.65" shape-rendering="crispEdges"/><rect fill="#121212" x="0" y="196.7" width="12.2" height="24.65" shape-rendering="crispEdges"/><rect fill="#121212" x="12.2" y="196.7" width="244" height="24.65" shape-rendering="crispEdges"/><rect fill="#242f38" x="256.2" y="196.7" width="12.2" height="24.65" shape-rendering="crispEdges"/><rect fill="#242f38" x="268.4" y="196.7" width="24.4" height="24.65" shape-rendering="crispEdges"/><rect fill="#242f38" x="292.8" y="196.7" width="195.2" height="24.65" shape-rendering="crispEdges"/><rect fill="#242f38" x="488" y="196.7" width="317.2" height="24.65" shape-rendering="crispEdges"/><rect fill="#242f38" x="805.2" y="196.7" width="24.4" height="24.65" shape-rendering="crispEdges"/><rect fill="#242f38" x="829.6" y="196.7" width="12.2" height="24.65" shape-rendering="crispEdges"/><rect fill="#121212" x="841.8" y="196.7" width="244" height="24.65" shape-rendering="crispEdges"/><rect fill="#121212" x="1085.8" y="196.7" width="12.2" height="24.65" shape-rendering="crispEdges"/><rect fill="#121212" x="0" y="221.1" width="12.2" height="24.65" shape-rendering="crispEdges"/><rect fill="#121212" x="12.2" y="221.1" width="244" height="24.65" shape-rendering="crispEdges"/><rect fill="#242f38" x="256.2" y="221.1" width="12.2" height="24.65" shape-rendering="crispEdges"/><rect fill="#242f38" x="268.4" y="221.1" width="24.4" height="24.65" shape-rendering="crispEdges"/><rect fill="#242f38" x="292.8" y="221.1" width="0" height="24.65" shape-rendering="crispEdges"/><rect fill="#242f38" x="292.8" y="221.1" width="512.4" height="24.65" shape-rendering="crispEdges"/><rect fill="#242f38" x="805.2" y="221.1" width="24.4" height="24.65" shape-rendering="crispEdges"/><rect fill="#242f38" x="829.6" y="221.1" width="12.2" height="24.65" shape-rendering="crispEdges"/><rect fill="#121212" x="841.8" y="221.1" width="244" height="24.65" shape-rendering="crispEdges"/><rect fill="#121212" x="1085.8" y="221.1" width="12.2" height="24.65" shape-rendering="crispEdges"/><rect fill="#121212" x="0" y="245.5" width="12.2" height="24.65" shape-rendering="crispEdges"/><rect fill="#121212" x="12.2" y="245.5" width="244" height="24.65" shape-rendering="crispEdges"/><rect fill="#242f38" x="256.2" y="245.5" width="12.2" height="24.65" shape-rendering="crispEdges"/><rect fill="#242f38" x="268.4" y="245.5" width="24.4" height="24.65" shape-rendering="crispEdges"/><rect fill="#242f38" x="292.8" y="245.5" width="24.4" height="24.65" shape-rendering="crispEdges"/><rect fill="#242f38" x="317.2" y="245.5" width="439.2" height="24.65" shape-rendering="crispEdges"/><rect fill="#242f38" x="756.4" y="245.5" width="48.8" height="24.65" shape-rendering="crispEdges"/><rect fill="#242f38" x="805.2" y="245.5" width="24.4" height="24.65" shape-rendering="crispEdges"/><rect fill="#242f38" x="829.6" y="245.5" width="12.2" height="24.65" shape-rendering="crispEdges"/><rect fill="#121212" x="841.8" y="245.5" width="244" height="24.65" shape-rendering="crispEdges"/><rect fill="#121212" x="1085.8" y="245.5" width="12.2" height="24.65" shape-rendering="crispEdges"/><rect fill="#121212" x="0" y="269.9" width="12.2" height="24.65" shape-rendering="crispEdges"/><rect fill="#121212" x="12.2" y="269.9" width="244" height="24.65" shape-rendering="crispEdges"/><rect fill="#242f38" x="256.2" y="269.9" width="12.2" height="24.65" shape-rendering="crispEdges"/><rect fill="#242f38" x="268.4" y="269.9" width="24.4" height="24.65" shape-rendering="crispEdges"/><rect fill="#242f38" x="292.8" y="269.9" width="24.4" height="24.65" shape-rendering="crispEdges"/><rect fill="#242f38" x="317.2" y="269.9" width="317.2" height="24.65" shape-rendering="crispEdges"/><rect fill="#242f38" x="634.4" y="269.9" width="170.8" height="24.65" shape-rendering="crispEdges"/><rect fill="#242f38" x="805.2" y="269.9" width="24.4" height="24.65" shape-rendering="crispEdges"/><rect fill="#242f38" x="829.6" y="269.9" width="12.2" height="24.65" shape-rendering="crispEdges"/><rect fill="#121212" x="841.8" y="269.9" width="244" height="24.65" shape-rendering="crispEdges"/><rect fill="#121212" x="1085.8" y="269.9" width="12.2" height="24.65" shape-rendering="crispEdges"/><rect fill="#121212" x="0" y="294.3" width="12.2" height="24.65" shape-rendering="crispEdges"/><rect fill="#121212" x="12.2" y="294.3" width="244" height="24.65" shape-rendering="crispEdges"/><rect fill="#242f38" x="256.2" y="294.3" width="12.2" height="24.65" shape-rendering="crispEdges"/><rect fill="#242f38" x="268.4" y="294.3" width="24.4" height="24.65" shape-rendering="crispEdges"/><rect fill="#242f38" x="292.8" y="294.3" width="0" height="24.65" shape-rendering="crispEdges"/><rect fill="#242f38" x="292.8" y="294.3" width="512.4" height="24.65" shape-rendering="crispEdges"/><rect fill="#242f38" x="805.2" y="294.3" width="24.4" height="24.65" shape-rendering="crispEdges"/><rect fill="#242f38" x="829.6" y="294.3" width="12.2" height="24.65" shape-rendering="crispEdges"/><rect fill="#121212" x="841.8" y="294.3" width="244" height="24.65" shape-rendering="crispEdges"/><rect fill="#121212" x="1085.8" y="294.3" width="12.2" height="24.65" shape-rendering="crispEdges"/><rect fill="#121212" x="0" y="318.7" width="12.2" height="24.65" shape-rendering="crispEdges"/><rect fill="#121212" x="12.2" y="318.7" width="244" height="24.65" shape-rendering="crispEdges"/><rect fill="#242f38" x="256.2" y="318.7" width="12.2" height="24.65" shape-rendering="crispEdges"/><rect fill="#242f38" x="268.4" y="318.7" width="24.4" height="24.65" shape-rendering="crispEdges"/><rect fill="#242f38" x="292.8" y="318.7" width="244" height="24.65" shape-rendering="crispEdges"/><rect fill="#242f38" x="536.8" y="318.7" width="268.4" height="24.65" shape-rendering="crispEdges"/><rect fill="#242f38" x="805.2" y="318.7" width="24.4" height="24.65" shape-rendering="crispEdges"/><rect fill="#242f38" x="829.6" y="318.7" width="12.2" height="24.65" shape-rendering="crispEdges"/><rect fill="#121212" x="841.8" y="318.7" width="244" height="24.65" shape-rendering="crispEdges"/><rect fill="#121212" x="1085.8" y="318.7" width="12.2" height="24.65" shape-rendering="crispEdges"/><rect fill="#121212" x="0" y="343.1" width="12.2" height="24.65" shape-rendering="crispEdges"/><rect fill="#121212" x="12.2" y="343.1" width="244" height="24.65" shape-rendering="crispEdges"/><rect fill="#242f38" x="256.2" y="343.1" width="12.2" height="24.65" shape-rendering="crispEdges"/><rect fill="#242f38" x="268.4" y="343.1" width="24.4" height="24.65" shape-rendering="crispEdges"/><rect fill="#242f38" x="292.8" y="343.1" width="512.4" height="24.65" shape-rendering="crispEdges"/><rect fill="#242f38" x="805.2" y="343.1" width="24.4" height="24.65" shape-rendering="crispEdges"/><rect fill="#242f38" x="829.6" y="343.1" width="12.2" height="24.65" shape-rendering="crispEdges"/><rect fill="#121212" x="841.8" y="343.1" width="244" height="24.65" shape-rendering="crispEdges"/><rect fill="#121212" x="1085.8" y="343.1" width="12.2" height="24.65" shape-rendering="crispEdges"/><rect fill="#121212" x="0" y="367.5" width="12.2" height="24.65" shape-rendering="crispEdges"/><rect fill="#121212" x="12.2" y="367.5" width="244" height="24.65" shape-rendering="crispEdges"/><rect fill="#242f38" x="256.2" y="367.5" width="12.2" height="24.65" shape-rendering="crispEdges"/><rect fill="#242f38" x="268.4" y="367.5" width="24.4" height="24.65" shape-rendering="crispEdges"/><rect fill="#242f38" x="292.8" y="367.5" width="12.2" height="24.65" shape-rendering="crispEdges"/><rect fill="#343f49" x="305" y="367.5" width="12.2" height="24.65" shape-rendering="crispEdges"/><rect fill="#343f49" x="317.2" y="367.5" width="207.4" height="24.65" shape-rendering="crispEdges"/><rect fill="#343f49" x="524.6" y="367.5" width="12.2" height="24.65" shape-rendering="crispEdges"/><rect fill="#242f38" x="536.8" y="367.5" width="12.2" height="24.65" shape-rendering="crispEdges"/><rect fill="#b93c5b" x="549" y="367.5" width="12.2" height="24.65" shape-rendering="crispEdges"/><rect fill="#b93c5b" x="561.2" y="367.5" width="219.6" height="24.65" shape-rendering="crispEdges"/><rect fill="#b93c5b" x="780.8" y="367.5" width="12.2" height="24.65" shape-rendering="crispEdges"/><rect fill="#242f38" x="793" y="367.5" width="12.2" height="24.65" shape-rendering="crispEdges"/><rect fill="#242f38" x="805.2" y="367.5" width="24.4" height="24.65" shape-rendering="crispEdges"/><rect fill="#242f38" x="829.6" y="367.5" width="12.2" height="24.65" shape-rendering="crispEdges"/><rect fill="#121212" x="841.8" y="367.5" width="244" height="24.65" shape-rendering="crispEdges"/><rect fill="#121212" x="1085.8" y="367.5" width="12.2" height="24.65" shape-rendering="crispEdges"/><rect fill="#121212" x="0" y="391.9" width="12.2" height="24.65" shape-rendering="crispEdges"/><rect fill="#121212" x="12.2" y="391.9" width="244" height="24.65" shape-rendering="crispEdges"/><rect fill="#242f38" x="256.2" y="391.9" width="12.2" height="24.65" shape-rendering="crispEdges"/><rect fill="#242f38" x="268.4" y="391.9" width="24.4" height="24.65" shape-rendering="crispEdges"/><rect fill="#242f38" x="292.8" y="391.9" width="12.2" height="24.65" shape-rendering="crispEdges"/><rect fill="#343f49" x="305" y="391.9" width="12.2" height="24.65" shape-rendering="crispEdges"/><rect fill="#343f49" x="317.2" y="391.9" width="61" height="24.65" shape-rendering="crispEdges"/><rect fill="#343f49" x="378.2" y="391.9" width="73.2" height="24.65" shape-rendering="crispEdges"/><rect fill="#343f49" x="451.4" y="391.9" width="73.2" height="24.65" shape-rendering="crispEdges"/><rect fill="#343f49" x="524.6" y="391.9" width="12.2" height="24.65" shape-rendering="crispEdges"/><rect fill="#242f38" x="536.8" y="391.9" width="12.2" height="24.65" shape-rendering="crispEdges"/><rect fill="#b93c5b" x="549" y="391.9" width="12.2" height="24.65" shape-rendering="crispEdges"/><rect fill="#b93c5b" x="561.2" y="391.9" width="85.4" height="24.65" shape-rendering="crispEdges"/><rect fill="#b93c5b" x="646.6" y="391.9" width="48.8" height="24.65" shape-rendering="crispEdges"/><rect fill="#b93c5b" x="695.4" y="391.9" width="85.4" height="24.65" shape-rendering="crispEdges"/><rect fill="#b93c5b" x="780.8" y="391.9" width="12.2" height="24.65" shape-rendering="crispEdges"/><rect fill="#242f38" x="793" y="391.9" width="12.2" height="24.65" shape-rendering="crispEdges"/><rect fill="#242f38" x="805.2" y="391.9" width="24.4" height="24.65" shape-rendering="crispEdges"/><rect fill="#242f38" x="829.6" y="391.9" width="12.2" height="24.65" shape-rendering="crispEdges"/><rect fill="#121212" x="841.8" y="391.9" width="244" height="24.65" shape-rendering="crispEdges"/><rect fill="#121212" x="1085.8" y="391.9" width="12.2" height="24.65" shape-rendering="crispEdges"/><rect fill="#121212" x="0" y="416.3" width="12.2" height="24.65" shape-rendering="crispEdges"/><rect fill="#121212" x="12.2" y="416.3" width="244" height="24.65" shape-rendering="crispEdges"/><rect fill="#242f38" x="256.2" y="416.3" width="12.2" height="24.65" shape-rendering="crispEdges"/><rect fill="#242f38" x="268.4" y="416.3" width="24.4" height="24.65" shape-rendering="crispEdges"/><rect fill="#242f38" x="292.8" y="416.3" width="12.2" height="24.65" shape-rendering="crispEdges"/><rect fill="#343f49" x="305" y="416.3" width="12.2" height="24.65" shape-rendering="crispEdges"/><rect fill="#343f49" x="317.2" y="416.3" width="207.4" height="24.65" shape-rendering="crispEdges"/><rect fill="#343f49" x="524.6" y="416.3" width="12.2" height="24.65" shape-rendering="crispEdges"/><rect fill="#242f38" x="536.8" y="416.3" width="12.2" height="24.65" shape-rendering="crispEdges"/><rect fill="#b93c5b" x="549" y="416.3" width="12.2" height="24.65" shape-rendering="crispEdges"/><rect fill="#b93c5b" x="561.2" y="416.3" width="219.6" height="24.65" shape-rendering="crispEdges"/><rect fill="#b93c5b" x="780.8" y="416.3" width="12.2" height="24.65" shape-rendering="crispEdges"/><rect fill="#242f38" x="793" y="416.3" width="12.2" height="24.65" shape-rendering="crispEdges"/><rect fill="#242f38" x="805.2" y="416.3" width="24.4" height="24.65" shape-rendering="crispEdges"/><rect fill="#242f38" x="829.6" y="416.3" width="12.2" height="24.65" shape-rendering="crispEdges"/><rect fill="#121212" x="841.8" y="416.3" width="244" height="24.65" shape-rendering="crispEdges"/><rect fill="#121212" x="1085.8" y="416.3" width="12.2" height="24.65" shape-rendering="crispEdges"/><rect fill="#121212" x="0" y="440.7" width="12.2" height="24.65" shape-rendering="crispEdges"/><rect fill="#121212" x="12.2" y="440.7" width="244" height="24.65" shape-rendering="crispEdges"/><rect fill="#242f38" x="256.2" y="440.7" width="12.2" height="24.65" shape-rendering="crispEdges"/><rect fill="#242f38" x="268.4" y="440.7" width="561.2" height="24.65" shape-rendering="crispEdges"/><rect fill="#242f38" x="829.6" y="440.7" width="12.2" height="24.65" shape-rendering="crispEdges"/><rect fill="#121212" x="841.8" y="440.7" width="244" height="24.65" shape-rendering="crispEdges"/><rect fill="#121212" x="1085.8" y="440.7" width="12.2" height="24.65" shape-rendering="crispEdges"/><rect fill="#121212" x="0" y="465.1" width="12.2" height="24.65" shape-rendering="crispEdges"/><rect fill="#121212" x="12.2" y="465.1" width="244" height="24.65" shape-rendering="crispEdges"/><rect fill="#242f38" x="256.2" y="465.1" width="12.2" height="24.65" shape-rendering="crispEdges"/><rect fill="#242f38" x="268.4" y="465.1" width="73.2" height="24.65" shape-rendering="crispEdges"/><rect fill="#242f38" x="341.6" y="465.1" width="475.8" height="24.65" shape-rendering="crispEdges"/><rect fill="#242f38" x="817.4" y="465.1" width="12.2" height="24.65" shape-rendering="crispEdges"/><rect fill="#242f38" x="829.6" y="465.1" width="12.2" height="24.65" shape-rendering="crispEdges"/><rect fill="#121212" x="841.8" y="465.1" width="244" height="24.65" shape-rendering="crispEdges"/><rect fill="#121212" x="1085.8" y="465.1" width="12.2" height="24.65" shape-rendering="crispEdges"/><rect fill="#121212" x="0" y="489.5" width="12.2" height="24.65" shape-rendering="crispEdges"/><rect fill="#121212" x="12.2" y="489.5" width="1073.6" height="24.65" shape-rendering="crispEdges"/><rect fill="#121212" x="1085.8" y="489.5" width="12.2" height="24.65" shape-rendering="crispEdges"/><rect fill="#121212" x="0" y="513.9" width="12.2" height="24.65" shape-rendering="crispEdges"/><rect fill="#121212" x="12.2" y="513.9" width="1073.6" height="24.65" shape-rendering="crispEdges"/><rect fill="#121212" x="1085.8" y="513.9" width="12.2" height="24.65" shape-rendering="crispEdges"/><rect fill="#121212" x="0" y="538.3" width="12.2" height="24.65" shape-rendering="crispEdges"/><rect fill="#121212" x="12.2" y="538.3" width="1073.6" height="24.65" shape-rendering="crispEdges"/><rect fill="#121212" x="1085.8" y="538.3" width="12.2" height="24.65" shape-rendering="crispEdges"/><rect fill="#121212" x="0" y="562.7" width="12.2" height="24.65" shape-rendering="crispEdges"/><rect fill="#121212" x="12.2" y="562.7" width="1073.6" height="24.65" shape-rendering="crispEdges"/><rect fill="#121212" x="1085.8" y="562.7" width="12.2" height="24.65" shape-rendering="crispEdges"/><rect fill="#121212" x="0" y="587.1" width="1098" height="24.65" shape-rendering="crispEdges"/><rect fill="#121212" x="0" y="611.5" width="12.2" height="24.65" shape-rendering="crispEdges"/><rect fill="#121212" x="12.2" y="611.5" width="683.2" height="24.65" shape-rendering="crispEdges"/><rect fill="#121212" x="695.4" y="611.5" width="12.2" height="24.65" shape-rendering="crispEdges"/><rect fill="#121212" x="707.6" y="611.5" width="170.8" height="24.65" shape-rendering="crispEdges"/><rect fill="#121212" x="878.4" y="611.5" width="12.2" height="24.65" shape-rendering="crispEdges"/><rect fill="#121212" x="890.6" y="611.5" width="61" height="24.65" shape-rendering="crispEdges"/><rect fill="#121212" x="951.6" y="611.5" width="12.2" height="24.65" shape-rendering="crispEdges"/><rect fill="#121212" x="963.8" y="611.5" width="122" height="24.65" shape-rendering="crispEdges"/><rect fill="#121212" x="1085.8" y="611.5" width="12.2" height="24.65" shape-rendering="crispEdges"/>
    <g class="terminal-734977385-matrix">
    <text class="terminal-734977385-r2" x="12.2" y="20" textLength="85.4" clip-path="url(#terminal-734977385-line-0)">&#160;1:win&#160;</text><text class="terminal-734977385-r3" x="122" y="20" textLength="36.6" clip-path="url(#terminal-734977385-line-0)">[+]</text><text class="terminal-734977385-r4" x="1098" y="20" textLength="12.2" clip-path="url(#terminal-734977385-line-0)">
</text><text class="terminal-734977385-r5" x="0" y="44.4" textLength="12.2" clip-path="url(#terminal-734977385-line-1)">┌</text><text class="terminal-734977385-r5" x="12.2" y="44.4" textLength="85.4" clip-path="url(#terminal-734977385-line-1)">▀▀▀▀▀▀▀</text><text class="terminal-734977385-r5" x="97.6" y="44.4" textLength="951.6" clip-path="url(#terminal-734977385-line-1)">──────────────────────────────────────────────────────────────────────────────</text><text class="terminal-734977385-r6" x="1049.2" y="44.4" textLength="36.6" clip-path="url(#terminal-734977385-line-1)">[x]</text><text class="terminal-734977385-r5" x="1085.8" y="44.4" textLength="12.2" clip-path="url(#terminal-734977385-line-1)">┐</text><text class="terminal-734977385-r4" x="1098" y="44.4" textLength="12.2" clip-path="url(#terminal-734977385-line-1)">
</text><text class="terminal-734977385-r5" x="0" y="68.8" textLength="12.2" clip-path="url(#terminal-734977385-line-2)">│</text><text class="terminal-734977385-r7" x="12.2" y="68.8" textLength="353.8" clip-path="url(#terminal-734977385-line-2)">neoocean@playground&#160;pytmux&#160;%&#160;</text><text class="terminal-734977385-r8" x="1049.2" y="68.8" textLength="48.8" clip-path="url(#terminal-734977385-line-2)">[EN]</text><text class="terminal-734977385-r4" x="1098" y="68.8" textLength="12.2" clip-path="url(#terminal-734977385-line-2)">
</text><text class="terminal-734977385-r5" x="0" y="93.2" textLength="12.2" clip-path="url(#terminal-734977385-line-3)">│</text><text class="terminal-734977385-r5" x="1085.8" y="93.2" textLength="12.2" clip-path="url(#terminal-734977385-line-3)">│</text><text class="terminal-734977385-r4" x="1098" y="93.2" textLength="12.2" clip-path="url(#terminal-734977385-line-3)">
</text><text class="terminal-734977385-r5" x="0" y="117.6" textLength="12.2" clip-path="url(#terminal-734977385-line-4)">│</text><text class="terminal-734977385-r5" x="1085.8" y="117.6" textLength="12.2" clip-path="url(#terminal-734977385-line-4)">│</text><text class="terminal-734977385-r4" x="1098" y="117.6" textLength="12.2" clip-path="url(#terminal-734977385-line-4)">
</text><text class="terminal-734977385-r5" x="0" y="142" textLength="12.2" clip-path="url(#terminal-734977385-line-5)">│</text><text class="terminal-734977385-r9" x="256.2" y="142" textLength="12.2" clip-path="url(#terminal-734977385-line-5)">╭</text><text class="terminal-734977385-r9" x="268.4" y="142" textLength="12.2" clip-path="url(#terminal-734977385-line-5)">─</text><text class="terminal-734977385-r9" x="280.6" y="142" textLength="158.6" clip-path="url(#terminal-734977385-line-5)">&#160;재시작&#160;확인&#160;</text><text class="terminal-734977385-r9" x="439.2" y="142" textLength="390.4" clip-path="url(#terminal-734977385-line-5)">────────────────────────────────</text><text class="terminal-734977385-r9" x="829.6" y="142" textLength="12.2" clip-path="url(#terminal-734977385-line-5)">╮</text><text class="terminal-734977385-r5" x="1085.8" y="142" textLength="12.2" clip-path="url(#terminal-734977385-line-5)">│</text><text class="terminal-734977385-r4" x="1098" y="142" textLength="12.2" clip-path="url(#terminal-734977385-line-5)">
</text><text class="terminal-734977385-r5" x="0" y="166.4" textLength="12.2" clip-path="url(#terminal-734977385-line-6)">│</text><text class="terminal-734977385-r9" x="256.2" y="166.4" textLength="12.2" clip-path="url(#terminal-734977385-line-6)">│</text><text class="terminal-734977385-r9" x="829.6" y="166.4" textLength="12.2" clip-path="url(#terminal-734977385-line-6)">│</text><text class="terminal-734977385-r5" x="1085.8" y="166.4" textLength="12.2" clip-path="url(#terminal-734977385-line-6)">│</text><text class="terminal-734977385-r4" x="1098" y="166.4" textLength="12.2" clip-path="url(#terminal-734977385-line-6)">
</text><text class="terminal-734977385-r5" x="0" y="190.8" textLength="12.2" clip-path="url(#terminal-734977385-line-7)">│</text><text class="terminal-734977385-r9" x="256.2" y="190.8" textLength="12.2" clip-path="url(#terminal-734977385-line-7)">│</text><text class="terminal-734977385-r10" x="292.8" y="190.8" textLength="500.2" clip-path="url(#terminal-734977385-line-7)">드라이런&#160;FAIL&#160;—&#160;전체&#160;재시작&#160;안전&#160;점검에서</text><text class="terminal-734977385-r9" x="829.6" y="190.8" textLength="12.2" clip-path="url(#terminal-734977385-line-7)">│</text><text class="terminal-734977385-r5" x="1085.8" y="190.8" textLength="12.2" clip-path="url(#terminal-734977385-line-7)">│</text><text class="terminal-734977385-r4" x="1098" y="190.8" textLength="12.2" clip-path="url(#terminal-734977385-line-7)">
</text><text class="terminal-734977385-r5" x="0" y="215.2" textLength="12.2" clip-path="url(#terminal-734977385-line-8)">│</text><text class="terminal-734977385-r9" x="256.2" y="215.2" textLength="12.2" clip-path="url(#terminal-734977385-line-8)">│</text><text class="terminal-734977385-r10" x="292.8" y="215.2" textLength="195.2" clip-path="url(#terminal-734977385-line-8)">문제가&#160;있습니다:</text><text class="terminal-734977385-r9" x="829.6" y="215.2" textLength="12.2" clip-path="url(#terminal-734977385-line-8)">│</text><text class="terminal-734977385-r5" x="1085.8" y="215.2" textLength="12.2" clip-path="url(#terminal-734977385-line-8)">│</text><text class="terminal-734977385-r4" x="1098" y="215.2" textLength="12.2" clip-path="url(#terminal-734977385-line-8)">
</text><text class="terminal-734977385-r5" x="0" y="239.6" textLength="12.2" clip-path="url(#terminal-734977385-line-9)">│</text><text class="terminal-734977385-r9" x="256.2" y="239.6" textLength="12.2" clip-path="url(#terminal-734977385-line-9)">│</text><text class="terminal-734977385-r9" x="829.6" y="239.6" textLength="12.2" clip-path="url(#terminal-734977385-line-9)">│</text><text class="terminal-734977385-r5" x="1085.8" y="239.6" textLength="12.2" clip-path="url(#terminal-734977385-line-9)">│</text><text class="terminal-734977385-r4" x="1098" y="239.6" textLength="12.2" clip-path="url(#terminal-734977385-line-9)">
</text><text class="terminal-734977385-r5" x="0" y="264" textLength="12.2" clip-path="url(#terminal-734977385-line-10)">│</text><text class="terminal-734977385-r9" x="256.2" y="264" textLength="12.2" clip-path="url(#terminal-734977385-line-10)">│</text><text class="terminal-734977385-r10" x="317.2" y="264" textLength="439.2" clip-path="url(#terminal-734977385-line-10)">&#160;서버&#160;re-exec&#160;지원(POSIX·이벤트루프)</text><text class="terminal-734977385-r9" x="829.6" y="264" textLength="12.2" clip-path="url(#terminal-734977385-line-10)">│</text><text class="terminal-734977385-r5" x="1085.8" y="264" textLength="12.2" clip-path="url(#terminal-734977385-line-10)">│</text><text class="terminal-734977385-r4" x="1098" y="264" textLength="12.2" clip-path="url(#terminal-734977385-line-10)">
</text><text class="terminal-734977385-r5" x="0" y="288.4" textLength="12.2" clip-path="url(#terminal-734977385-line-11)">│</text><text class="terminal-734977385-r9" x="256.2" y="288.4" textLength="12.2" clip-path="url(#terminal-734977385-line-11)">│</text><text class="terminal-734977385-r10" x="317.2" y="288.4" textLength="317.2" clip-path="url(#terminal-734977385-line-11)">&#160;패널&#160;master&#160;fd&#160;보유&#160;(0/4)</text><text class="terminal-734977385-r9" x="829.6" y="288.4" textLength="12.2" clip-path="url(#terminal-734977385-line-11)">│</text><text class="terminal-734977385-r5" x="1085.8" y="288.4" textLength="12.2" clip-path="url(#terminal-734977385-line-11)">│</text><text class="terminal-734977385-r4" x="1098" y="288.4" textLength="12.2" clip-path="url(#terminal-734977385-line-11)">
</text><text class="terminal-734977385-r5" x="0" y="312.8" textLength="12.2" clip-path="url(#terminal-734977385-line-12)">│</text><text class="terminal-734977385-r9" x="256.2" y="312.8" textLength="12.2" clip-path="url(#terminal-734977385-line-12)">│</text><text class="terminal-734977385-r9" x="829.6" y="312.8" textLength="12.2" clip-path="url(#terminal-734977385-line-12)">│</text><text class="terminal-734977385-r5" x="1085.8" y="312.8" textLength="12.2" clip-path="url(#terminal-734977385-line-12)">│</text><text class="terminal-734977385-r4" x="1098" y="312.8" textLength="12.2" clip-path="url(#terminal-734977385-line-12)">
</text><text class="terminal-734977385-r5" x="0" y="337.2" textLength="12.2" clip-path="url(#terminal-734977385-line-13)">│</text><text class="terminal-734977385-r9" x="256.2" y="337.2" textLength="12.2" clip-path="url(#terminal-734977385-line-13)">│</text><text class="terminal-734977385-r10" x="292.8" y="337.2" textLength="244" clip-path="url(#terminal-734977385-line-13)">그래도&#160;재시작할까요?</text><text class="terminal-734977385-r9" x="829.6" y="337.2" textLength="12.2" clip-path="url(#terminal-734977385-line-13)">│</text><text class="terminal-734977385-r5" x="1085.8" y="337.2" textLength="12.2" clip-path="url(#terminal-734977385-line-13)">│</text><text class="terminal-734977385-r4" x="1098" y="337.2" textLength="12.2" clip-path="url(#terminal-734977385-line-13)">
</text><text class="terminal-734977385-r5" x="0" y="361.6" textLength="12.2" clip-path="url(#terminal-734977385-line-14)">│</text><text class="terminal-734977385-r9" x="256.2" y="361.6" textLength="12.2" clip-path="url(#terminal-734977385-line-14)">│</text><text class="terminal-734977385-r9" x="829.6" y="361.6" textLength="12.2" clip-path="url(#terminal-734977385-line-14)">│</text><text class="terminal-734977385-r5" x="1085.8" y="361.6" textLength="12.2" clip-path="url(#terminal-734977385-line-14)">│</text><text class="terminal-734977385-r4" x="1098" y="361.6" textLength="12.2" clip-path="url(#terminal-734977385-line-14)">
</text><text class="terminal-734977385-r5" x="0" y="386" textLength="12.2" clip-path="url(#terminal-734977385-line-15)">│</text><text class="terminal-734977385-r9" x="256.2" y="386" textLength="12.2" clip-path="url(#terminal-734977385-line-15)">│</text><text class="terminal-734977385-r11" x="305" y="386" textLength="12.2" clip-path="url(#terminal-734977385-line-15)">╭</text><text class="terminal-734977385-r11" x="317.2" y="386" textLength="207.4" clip-path="url(#terminal-734977385-line-15)">─────────────────</text><text class="terminal-734977385-r11" x="524.6" y="386" textLength="12.2" clip-path="url(#terminal-734977385-line-15)">╮</text><text class="terminal-734977385-r12" x="549" y="386" textLength="12.2" clip-path="url(#terminal-734977385-line-15)">╭</text><text class="terminal-734977385-r12" x="561.2" y="386" textLength="219.6" clip-path="url(#terminal-734977385-line-15)">──────────────────</text><text class="terminal-734977385-r12" x="780.8" y="386" textLength="12.2" clip-path="url(#terminal-734977385-line-15)">╮</text><text class="terminal-734977385-r9" x="829.6" y="386" textLength="12.2" clip-path="url(#terminal-734977385-line-15)">│</text><text class="terminal-734977385-r5" x="1085.8" y="386" textLength="12.2" clip-path="url(#terminal-734977385-line-15)">│</text><text class="terminal-734977385-r4" x="1098" y="386" textLength="12.2" clip-path="url(#terminal-734977385-line-15)">
</text><text class="terminal-734977385-r5" x="0" y="410.4" textLength="12.2" clip-path="url(#terminal-734977385-line-16)">│</text><text class="terminal-734977385-r9" x="256.2" y="410.4" textLength="12.2" clip-path="url(#terminal-734977385-line-16)">│</text><text class="terminal-734977385-r11" x="305" y="410.4" textLength="12.2" clip-path="url(#terminal-734977385-line-16)">│</text><text class="terminal-734977385-r13" x="378.2" y="410.4" textLength="73.2" clip-path="url(#terminal-734977385-line-16)">재시작</text><text class="terminal-734977385-r11" x="524.6" y="410.4" textLength="12.2" clip-path="url(#terminal-734977385-line-16)">│</text><text class="terminal-734977385-r12" x="549" y="410.4" textLength="12.2" clip-path="url(#terminal-734977385-line-16)">│</text><text class="terminal-734977385-r14" x="646.6" y="410.4" textLength="48.8" clip-path="url(#terminal-734977385-line-16)">취소</text><text class="terminal-734977385-r12" x="780.8" y="410.4" textLength="12.2" clip-path="url(#terminal-734977385-line-16)">│</text><text class="terminal-734977385-r9" x="829.6" y="410.4" textLength="12.2" clip-path="url(#terminal-734977385-line-16)">│</text><text class="terminal-734977385-r5" x="1085.8" y="410.4" textLength="12.2" clip-path="url(#terminal-734977385-line-16)">│</text><text class="terminal-734977385-r4" x="1098" y="410.4" textLength="12.2" clip-path="url(#terminal-734977385-line-16)">
</text><text class="terminal-734977385-r5" x="0" y="434.8" textLength="12.2" clip-path="url(#terminal-734977385-line-17)">│</text><text class="terminal-734977385-r9" x="256.2" y="434.8" textLength="12.2" clip-path="url(#terminal-734977385-line-17)">│</text><text class="terminal-734977385-r11" x="305" y="434.8" textLength="12.2" clip-path="url(#terminal-734977385-line-17)">╰</text><text class="terminal-734977385-r11" x="317.2" y="434.8" textLength="207.4" clip-path="url(#terminal-734977385-line-17)">─────────────────</text><text class="terminal-734977385-r11" x="524.6" y="434.8" textLength="12.2" clip-path="url(#terminal-734977385-line-17)">╯</text><text class="terminal-734977385-r12" x="549" y="434.8" textLength="12.2" clip-path="url(#terminal-734977385-line-17)">╰</text><text class="terminal-734977385-r12" x="561.2" y="434.8" textLength="219.6" clip-path="url(#terminal-734977385-line-17)">──────────────────</text><text class="terminal-734977385-r12" x="780.8" y="434.8" textLength="12.2" clip-path="url(#terminal-734977385-line-17)">╯</text><text class="terminal-734977385-r9" x="829.6" y="434.8" textLength="12.2" clip-path="url(#terminal-734977385-line-17)">│</text><text class="terminal-734977385-r5" x="1085.8" y="434.8" textLength="12.2" clip-path="url(#terminal-734977385-line-17)">│</text><text class="terminal-734977385-r4" x="1098" y="434.8" textLength="12.2" clip-path="url(#terminal-734977385-line-17)">
</text><text class="terminal-734977385-r5" x="0" y="459.2" textLength="12.2" clip-path="url(#terminal-734977385-line-18)">│</text><text class="terminal-734977385-r9" x="256.2" y="459.2" textLength="12.2" clip-path="url(#terminal-734977385-line-18)">│</text><text class="terminal-734977385-r9" x="829.6" y="459.2" textLength="12.2" clip-path="url(#terminal-734977385-line-18)">│</text><text class="terminal-734977385-r5" x="1085.8" y="459.2" textLength="12.2" clip-path="url(#terminal-734977385-line-18)">│</text><text class="terminal-734977385-r4" x="1098" y="459.2" textLength="12.2" clip-path="url(#terminal-734977385-line-18)">
</text><text class="terminal-734977385-r5" x="0" y="483.6" textLength="12.2" clip-path="url(#terminal-734977385-line-19)">│</text><text class="terminal-734977385-r9" x="256.2" y="483.6" textLength="12.2" clip-path="url(#terminal-734977385-line-19)">╰</text><text class="terminal-734977385-r9" x="268.4" y="483.6" textLength="73.2" clip-path="url(#terminal-734977385-line-19)">──────</text><text class="terminal-734977385-r9" x="341.6" y="483.6" textLength="475.8" clip-path="url(#terminal-734977385-line-19)">&#160;←→&#160;이동&#160;·&#160;Enter&#160;확정&#160;·&#160;y/n&#160;·&#160;Esc&#160;취소&#160;</text><text class="terminal-734977385-r9" x="817.4" y="483.6" textLength="12.2" clip-path="url(#terminal-734977385-line-19)">─</text><text class="terminal-734977385-r9" x="829.6" y="483.6" textLength="12.2" clip-path="url(#terminal-734977385-line-19)">╯</text><text class="terminal-734977385-r5" x="1085.8" y="483.6" textLength="12.2" clip-path="url(#terminal-734977385-line-19)">│</text><text class="terminal-734977385-r4" x="1098" y="483.6" textLength="12.2" clip-path="url(#terminal-734977385-line-19)">
</text><text class="terminal-734977385-r5" x="0" y="508" textLength="12.2" clip-path="url(#terminal-734977385-line-20)">│</text><text class="terminal-734977385-r5" x="1085.8" y="508" textLength="12.2" clip-path="url(#terminal-734977385-line-20)">│</text><text class="terminal-734977385-r4" x="1098" y="508" textLength="12.2" clip-path="url(#terminal-734977385-line-20)">
</text><text class="terminal-734977385-r5" x="0" y="532.4" textLength="12.2" clip-path="url(#terminal-734977385-line-21)">│</text><text class="terminal-734977385-r5" x="1085.8" y="532.4" textLength="12.2" clip-path="url(#terminal-734977385-line-21)">│</text><text class="terminal-734977385-r4" x="1098" y="532.4" textLength="12.2" clip-path="url(#terminal-734977385-line-21)">
</text><text class="terminal-734977385-r5" x="0" y="556.8" textLength="12.2" clip-path="url(#terminal-734977385-line-22)">│</text><text class="terminal-734977385-r5" x="1085.8" y="556.8" textLength="12.2" clip-path="url(#terminal-734977385-line-22)">│</text><text class="terminal-734977385-r4" x="1098" y="556.8" textLength="12.2" clip-path="url(#terminal-734977385-line-22)">
</text><text class="terminal-734977385-r5" x="0" y="581.2" textLength="12.2" clip-path="url(#terminal-734977385-line-23)">│</text><text class="terminal-734977385-r5" x="1085.8" y="581.2" textLength="12.2" clip-path="url(#terminal-734977385-line-23)">│</text><text class="terminal-734977385-r4" x="1098" y="581.2" textLength="12.2" clip-path="url(#terminal-734977385-line-23)">
</text><text class="terminal-734977385-r5" x="0" y="605.6" textLength="1098" clip-path="url(#terminal-734977385-line-24)">└────────────────────────────────────────────────────────────────────────────────────────┘</text><text class="terminal-734977385-r4" x="1098" y="605.6" textLength="12.2" clip-path="url(#terminal-734977385-line-24)">
</text><text class="terminal-734977385-r15" x="707.6" y="630" textLength="170.8" clip-path="url(#terminal-734977385-line-25)">ssh:playground</text><text class="terminal-734977385-r1" x="890.6" y="630" textLength="61" clip-path="url(#terminal-734977385-line-25)">19:22</text><text class="terminal-734977385-r1" x="963.8" y="630" textLength="122" clip-path="url(#terminal-734977385-line-25)">2026-06-14</text>
    </g>
    </g>
</svg>
