<svg class="rich-terminal" viewBox="0 0 1116 684.4" xmlns="http://www.w3.org/2000/svg">
    <!-- Generated with Rich https://www.textualize.io -->
    <style>

    @font-face {
        font-family: "Fira Code";
        src: local("FiraCode-Regular"),
                url("https://cdnjs.cloudflare.com/ajax/libs/firacode/6.2.0/woff2/FiraCode-Regular.woff2") format("woff2"),
                url("https://cdnjs.cloudflare.com/ajax/libs/firacode/6.2.0/woff/FiraCode-Regular.woff") format("woff");
        font-style: normal;
        font-weight: 400;
    }
    @font-face {
        font-family: "Fira Code";
        src: local("FiraCode-Bold"),
                url("https://cdnjs.cloudflare.com/ajax/libs/firacode/6.2.0/woff2/FiraCode-Bold.woff2") format("woff2"),
                url("https://cdnjs.cloudflare.com/ajax/libs/firacode/6.2.0/woff/FiraCode-Bold.woff") format("woff");
        font-style: bold;
        font-weight: 700;
    }

    .terminal-444773341-matrix {
        font-family: Fira Code, "Apple SD Gothic Neo", monospace;
        font-size: 20px;
        line-height: 24.4px;
        font-variant-east-asian: full-width;
    }

    .terminal-444773341-title {
        font-size: 18px;
        font-weight: bold;
        font-family: arial;
    }

    .terminal-444773341-r1 { fill: #3b3b3b }
.terminal-444773341-r2 { fill: #353532;font-weight: bold }
.terminal-444773341-r3 { fill: #131313;font-weight: bold }
.terminal-444773341-r4 { fill: #c5c8c6 }
.terminal-444773341-r5 { fill: #0e1921 }
.terminal-444773341-r6 { fill: #fea62b }
.terminal-444773341-r7 { fill: #1f1f1f }
.terminal-444773341-r8 { fill: #1a1a1a }
.terminal-444773341-r9 { fill: #fea62b;font-weight: bold }
.terminal-444773341-r10 { fill: #f5e5e9;font-weight: bold }
.terminal-444773341-r11 { fill: #0e0e0e }
.terminal-444773341-r12 { fill: #e0e0e0 }
.terminal-444773341-r13 { fill: #331a20;font-weight: bold }
    </style>

    <defs>
    <clipPath id="terminal-444773341-clip-terminal">
      <rect x="0" y="0" width="1097.0" height="633.4" />
    </clipPath>
    <clipPath id="terminal-444773341-line-0">
    <rect x="0" y="1.5" width="1098" height="24.65"/>
            </clipPath>
<clipPath id="terminal-444773341-line-1">
    <rect x="0" y="25.9" width="1098" height="24.65"/>
            </clipPath>
<clipPath id="terminal-444773341-line-2">
    <rect x="0" y="50.3" width="1098" height="24.65"/>
            </clipPath>
<clipPath id="terminal-444773341-line-3">
    <rect x="0" y="74.7" width="1098" height="24.65"/>
            </clipPath>
<clipPath id="terminal-444773341-line-4">
    <rect x="0" y="99.1" width="1098" height="24.65"/>
            </clipPath>
<clipPath id="terminal-444773341-line-5">
    <rect x="0" y="123.5" width="1098" height="24.65"/>
            </clipPath>
<clipPath id="terminal-444773341-line-6">
    <rect x="0" y="147.9" width="1098" height="24.65"/>
            </clipPath>
<clipPath id="terminal-444773341-line-7">
    <rect x="0" y="172.3" width="1098" height="24.65"/>
            </clipPath>
<clipPath id="terminal-444773341-line-8">
    <rect x="0" y="196.7" width="1098" height="24.65"/>
            </clipPath>
<clipPath id="terminal-444773341-line-9">
    <rect x="0" y="221.1" width="1098" height="24.65"/>
            </clipPath>
<clipPath id="terminal-444773341-line-10">
    <rect x="0" y="245.5" width="1098" height="24.65"/>
            </clipPath>
<clipPath id="terminal-444773341-line-11">
    <rect x="0" y="269.9" width="1098" height="24.65"/>
            </clipPath>
<clipPath id="terminal-444773341-line-12">
    <rect x="0" y="294.3" width="1098" height="24.65"/>
            </clipPath>
<clipPath id="terminal-444773341-line-13">
    <rect x="0" y="318.7" width="1098" height="24.65"/>
            </clipPath>
<clipPath id="terminal-444773341-line-14">
    <rect x="0" y="343.1" width="1098" height="24.65"/>
            </clipPath>
<clipPath id="terminal-444773341-line-15">
    <rect x="0" y="367.5" width="1098" height="24.65"/>
            </clipPath>
<clipPath id="terminal-444773341-line-16">
    <rect x="0" y="391.9" width="1098" height="24.65"/>
            </clipPath>
<clipPath id="terminal-444773341-line-17">
    <rect x="0" y="416.3" width="1098" height="24.65"/>
            </clipPath>
<clipPath id="terminal-444773341-line-18">
    <rect x="0" y="440.7" width="1098" height="24.65"/>
            </clipPath>
<clipPath id="terminal-444773341-line-19">
    <rect x="0" y="465.1" width="1098" height="24.65"/>
            </clipPath>
<clipPath id="terminal-444773341-line-20">
    <rect x="0" y="489.5" width="1098" height="24.65"/>
            </clipPath>
<clipPath id="terminal-444773341-line-21">
    <rect x="0" y="513.9" width="1098" height="24.65"/>
            </clipPath>
<clipPath id="terminal-444773341-line-22">
    <rect x="0" y="538.3" width="1098" height="24.65"/>
            </clipPath>
<clipPath id="terminal-444773341-line-23">
    <rect x="0" y="562.7" width="1098" height="24.65"/>
            </clipPath>
<clipPath id="terminal-444773341-line-24">
    <rect x="0" y="587.1" width="1098" height="24.65"/>
            </clipPath>
    </defs>

    <rect fill="#292929" stroke="rgba(255,255,255,0.35)" stroke-width="1" x="1" y="1" width="1114" height="682.4" rx="8"/><text class="terminal-444773341-title" fill="#c5c8c6" text-anchor="middle" x="557" y="27">PytmuxApp</text>
            <g transform="translate(26,22)">
            <circle cx="0" cy="0" r="7" fill="#ff5f57"/>
            <circle cx="22" cy="0" r="7" fill="#febc2e"/>
            <circle cx="44" cy="0" r="7" fill="#28c840"/>
            </g>
        
    <g transform="translate(9, 41)" clip-path="url(#terminal-444773341-clip-terminal)">
    <rect fill="#121212" x="0" y="1.5" width="12.2" height="24.65" shape-rendering="crispEdges"/><rect fill="#0e2638" x="12.2" y="1.5" width="85.4" height="24.65" shape-rendering="crispEdges"/><rect fill="#121212" x="97.6" y="1.5" width="24.4" height="24.65" shape-rendering="crispEdges"/><rect fill="#1e3425" x="122" y="1.5" width="36.6" height="24.65" shape-rendering="crispEdges"/><rect fill="#121212" x="158.6" y="1.5" width="939.4" height="24.65" shape-rendering="crispEdges"/><rect fill="#121212" x="0" y="25.9" width="12.2" height="24.65" shape-rendering="crispEdges"/><rect fill="#121212" x="12.2" y="25.9" width="85.4" height="24.65" shape-rendering="crispEdges"/><rect fill="#121212" x="97.6" y="25.9" width="48.8" height="24.65" shape-rendering="crispEdges"/><rect fill="#242f38" x="146.4" y="25.9" width="12.2" height="24.65" shape-rendering="crispEdges"/><rect fill="#242f38" x="158.6" y="25.9" width="780.8" height="24.65" shape-rendering="crispEdges"/><rect fill="#242f38" x="939.4" y="25.9" width="12.2" height="24.65" shape-rendering="crispEdges"/><rect fill="#121212" x="951.6" y="25.9" width="97.6" height="24.65" shape-rendering="crispEdges"/><rect fill="#1f1316" x="1049.2" y="25.9" width="36.6" height="24.65" shape-rendering="crispEdges"/><rect fill="#121212" x="1085.8" y="25.9" width="12.2" height="24.65" shape-rendering="crispEdges"/><rect fill="#121212" x="0" y="50.3" width="12.2" height="24.65" shape-rendering="crispEdges"/><rect fill="#121212" x="12.2" y="50.3" width="134.2" height="24.65" shape-rendering="crispEdges"/><rect fill="#242f38" x="146.4" y="50.3" width="12.2" height="24.65" shape-rendering="crispEdges"/><rect fill="#242f38" x="158.6" y="50.3" width="12.2" height="24.65" shape-rendering="crispEdges"/><rect fill="#242f38" x="170.8" y="50.3" width="305" height="24.65" shape-rendering="crispEdges"/><rect fill="#242f38" x="475.8" y="50.3" width="390.4" height="24.65" shape-rendering="crispEdges"/><rect fill="#b93c5b" x="866.2" y="50.3" width="12.2" height="24.65" shape-rendering="crispEdges"/><rect fill="#b93c5b" x="878.4" y="50.3" width="36.6" height="24.65" shape-rendering="crispEdges"/><rect fill="#b93c5b" x="915" y="50.3" width="12.2" height="24.65" shape-rendering="crispEdges"/><rect fill="#242f38" x="927.2" y="50.3" width="12.2" height="24.65" shape-rendering="crispEdges"/><rect fill="#242f38" x="939.4" y="50.3" width="12.2" height="24.65" shape-rendering="crispEdges"/><rect fill="#121212" x="951.6" y="50.3" width="97.6" height="24.65" shape-rendering="crispEdges"/><rect fill="#0e1921" x="1049.2" y="50.3" width="48.8" height="24.65" shape-rendering="crispEdges"/><rect fill="#121212" x="0" y="74.7" width="12.2" height="24.65" shape-rendering="crispEdges"/><rect fill="#121212" x="12.2" y="74.7" width="134.2" height="24.65" shape-rendering="crispEdges"/><rect fill="#242f38" x="146.4" y="74.7" width="12.2" height="24.65" shape-rendering="crispEdges"/><rect fill="#242f38" x="158.6" y="74.7" width="12.2" height="24.65" shape-rendering="crispEdges"/><rect fill="#272727" x="170.8" y="74.7" width="610" height="24.65" shape-rendering="crispEdges"/><rect fill="#272727" x="780.8" y="74.7" width="146.4" height="24.65" shape-rendering="crispEdges"/><rect fill="#242f38" x="927.2" y="74.7" width="12.2" height="24.65" shape-rendering="crispEdges"/><rect fill="#242f38" x="939.4" y="74.7" width="12.2" height="24.65" shape-rendering="crispEdges"/><rect fill="#121212" x="951.6" y="74.7" width="134.2" height="24.65" shape-rendering="crispEdges"/><rect fill="#121212" x="1085.8" y="74.7" width="12.2" height="24.65" shape-rendering="crispEdges"/><rect fill="#121212" x="0" y="99.1" width="12.2" height="24.65" shape-rendering="crispEdges"/><rect fill="#121212" x="12.2" y="99.1" width="134.2" height="24.65" shape-rendering="crispEdges"/><rect fill="#242f38" x="146.4" y="99.1" width="12.2" height="24.65" shape-rendering="crispEdges"/><rect fill="#242f38" x="158.6" y="99.1" width="12.2" height="24.65" shape-rendering="crispEdges"/><rect fill="#272727" x="170.8" y="99.1" width="646.6" height="24.65" shape-rendering="crispEdges"/><rect fill="#272727" x="817.4" y="99.1" width="109.8" height="24.65" shape-rendering="crispEdges"/><rect fill="#242f38" x="927.2" y="99.1" width="12.2" height="24.65" shape-rendering="crispEdges"/><rect fill="#242f38" x="939.4" y="99.1" width="12.2" height="24.65" shape-rendering="crispEdges"/><rect fill="#121212" x="951.6" y="99.1" width="134.2" height="24.65" shape-rendering="crispEdges"/><rect fill="#121212" x="1085.8" y="99.1" width="12.2" height="24.65" shape-rendering="crispEdges"/><rect fill="#121212" x="0" y="123.5" width="12.2" height="24.65" shape-rendering="crispEdges"/><rect fill="#121212" x="12.2" y="123.5" width="134.2" height="24.65" shape-rendering="crispEdges"/><rect fill="#242f38" x="146.4" y="123.5" width="12.2" height="24.65" shape-rendering="crispEdges"/><rect fill="#242f38" x="158.6" y="123.5" width="12.2" height="24.65" shape-rendering="crispEdges"/><rect fill="#272727" x="170.8" y="123.5" width="73.2" height="24.65" shape-rendering="crispEdges"/><rect fill="#272727" x="244" y="123.5" width="683.2" height="24.65" shape-rendering="crispEdges"/><rect fill="#242f38" x="927.2" y="123.5" width="12.2" height="24.65" shape-rendering="crispEdges"/><rect fill="#242f38" x="939.4" y="123.5" width="12.2" height="24.65" shape-rendering="crispEdges"/><rect fill="#121212" x="951.6" y="123.5" width="134.2" height="24.65" shape-rendering="crispEdges"/><rect fill="#121212" x="1085.8" y="123.5" width="12.2" height="24.65" shape-rendering="crispEdges"/><rect fill="#121212" x="0" y="147.9" width="12.2" height="24.65" shape-rendering="crispEdges"/><rect fill="#121212" x="12.2" y="147.9" width="134.2" height="24.65" shape-rendering="crispEdges"/><rect fill="#242f38" x="146.4" y="147.9" width="12.2" height="24.65" shape-rendering="crispEdges"/><rect fill="#242f38" x="158.6" y="147.9" width="12.2" height="24.65" shape-rendering="crispEdges"/><rect fill="#272727" x="170.8" y="147.9" width="646.6" height="24.65" shape-rendering="crispEdges"/><rect fill="#272727" x="817.4" y="147.9" width="109.8" height="24.65" shape-rendering="crispEdges"/><rect fill="#242f38" x="927.2" y="147.9" width="12.2" height="24.65" shape-rendering="crispEdges"/><rect fill="#242f38" x="939.4" y="147.9" width="12.2" height="24.65" shape-rendering="crispEdges"/><rect fill="#121212" x="951.6" y="147.9" width="134.2" height="24.65" shape-rendering="crispEdges"/><rect fill="#121212" x="1085.8" y="147.9" width="12.2" height="24.65" shape-rendering="crispEdges"/><rect fill="#121212" x="0" y="172.3" width="12.2" height="24.65" shape-rendering="crispEdges"/><rect fill="#121212" x="12.2" y="172.3" width="134.2" height="24.65" shape-rendering="crispEdges"/><rect fill="#242f38" x="146.4" y="172.3" width="12.2" height="24.65" shape-rendering="crispEdges"/><rect fill="#242f38" x="158.6" y="172.3" width="12.2" height="24.65" shape-rendering="crispEdges"/><rect fill="#272727" x="170.8" y="172.3" width="73.2" height="24.65" shape-rendering="crispEdges"/><rect fill="#272727" x="244" y="172.3" width="683.2" height="24.65" shape-rendering="crispEdges"/><rect fill="#242f38" x="927.2" y="172.3" width="12.2" height="24.65" shape-rendering="crispEdges"/><rect fill="#242f38" x="939.4" y="172.3" width="12.2" height="24.65" shape-rendering="crispEdges"/><rect fill="#121212" x="951.6" y="172.3" width="134.2" height="24.65" shape-rendering="crispEdges"/><rect fill="#121212" x="1085.8" y="172.3" width="12.2" height="24.65" shape-rendering="crispEdges"/><rect fill="#121212" x="0" y="196.7" width="12.2" height="24.65" shape-rendering="crispEdges"/><rect fill="#121212" x="12.2" y="196.7" width="134.2" height="24.65" shape-rendering="crispEdges"/><rect fill="#242f38" x="146.4" y="196.7" width="12.2" height="24.65" shape-rendering="crispEdges"/><rect fill="#242f38" x="158.6" y="196.7" width="12.2" height="24.65" shape-rendering="crispEdges"/><rect fill="#272727" x="170.8" y="196.7" width="256.2" height="24.65" shape-rendering="crispEdges"/><rect fill="#272727" x="427" y="196.7" width="500.2" height="24.65" shape-rendering="crispEdges"/><rect fill="#242f38" x="927.2" y="196.7" width="12.2" height="24.65" shape-rendering="crispEdges"/><rect fill="#242f38" x="939.4" y="196.7" width="12.2" height="24.65" shape-rendering="crispEdges"/><rect fill="#121212" x="951.6" y="196.7" width="134.2" height="24.65" shape-rendering="crispEdges"/><rect fill="#121212" x="1085.8" y="196.7" width="12.2" height="24.65" shape-rendering="crispEdges"/><rect fill="#121212" x="0" y="221.1" width="12.2" height="24.65" shape-rendering="crispEdges"/><rect fill="#121212" x="12.2" y="221.1" width="134.2" height="24.65" shape-rendering="crispEdges"/><rect fill="#242f38" x="146.4" y="221.1" width="12.2" height="24.65" shape-rendering="crispEdges"/><rect fill="#242f38" x="158.6" y="221.1" width="780.8" height="24.65" shape-rendering="crispEdges"/><rect fill="#242f38" x="939.4" y="221.1" width="12.2" height="24.65" shape-rendering="crispEdges"/><rect fill="#121212" x="951.6" y="221.1" width="134.2" height="24.65" shape-rendering="crispEdges"/><rect fill="#121212" x="1085.8" y="221.1" width="12.2" height="24.65" shape-rendering="crispEdges"/><rect fill="#121212" x="0" y="245.5" width="12.2" height="24.65" shape-rendering="crispEdges"/><rect fill="#121212" x="12.2" y="245.5" width="1073.6" height="24.65" shape-rendering="crispEdges"/><rect fill="#121212" x="1085.8" y="245.5" width="12.2" height="24.65" shape-rendering="crispEdges"/><rect fill="#121212" x="0" y="269.9" width="12.2" height="24.65" shape-rendering="crispEdges"/><rect fill="#121212" x="12.2" y="269.9" width="1073.6" height="24.65" shape-rendering="crispEdges"/><rect fill="#121212" x="1085.8" y="269.9" width="12.2" height="24.65" shape-rendering="crispEdges"/><rect fill="#121212" x="0" y="294.3" width="12.2" height="24.65" shape-rendering="crispEdges"/><rect fill="#121212" x="12.2" y="294.3" width="1073.6" height="24.65" shape-rendering="crispEdges"/><rect fill="#121212" x="1085.8" y="294.3" width="12.2" height="24.65" shape-rendering="crispEdges"/><rect fill="#121212" x="0" y="318.7" width="12.2" height="24.65" shape-rendering="crispEdges"/><rect fill="#121212" x="12.2" y="318.7" width="1073.6" height="24.65" shape-rendering="crispEdges"/><rect fill="#121212" x="1085.8" y="318.7" width="12.2" height="24.65" shape-rendering="crispEdges"/><rect fill="#121212" x="0" y="343.1" width="12.2" height="24.65" shape-rendering="crispEdges"/><rect fill="#121212" x="12.2" y="343.1" width="1073.6" height="24.65" shape-rendering="crispEdges"/><rect fill="#121212" x="1085.8" y="343.1" width="12.2" height="24.65" shape-rendering="crispEdges"/><rect fill="#121212" x="0" y="367.5" width="12.2" height="24.65" shape-rendering="crispEdges"/><rect fill="#121212" x="12.2" y="367.5" width="1073.6" height="24.65" shape-rendering="crispEdges"/><rect fill="#121212" x="1085.8" y="367.5" width="12.2" height="24.65" shape-rendering="crispEdges"/><rect fill="#121212" x="0" y="391.9" width="12.2" height="24.65" shape-rendering="crispEdges"/><rect fill="#121212" x="12.2" y="391.9" width="1073.6" height="24.65" shape-rendering="crispEdges"/><rect fill="#121212" x="1085.8" y="391.9" width="12.2" height="24.65" shape-rendering="crispEdges"/><rect fill="#121212" x="0" y="416.3" width="12.2" height="24.65" shape-rendering="crispEdges"/><rect fill="#121212" x="12.2" y="416.3" width="1073.6" height="24.65" shape-rendering="crispEdges"/><rect fill="#121212" x="1085.8" y="416.3" width="12.2" height="24.65" shape-rendering="crispEdges"/><rect fill="#121212" x="0" y="440.7" width="12.2" height="24.65" shape-rendering="crispEdges"/><rect fill="#121212" x="12.2" y="440.7" width="1073.6" height="24.65" shape-rendering="crispEdges"/><rect fill="#121212" x="1085.8" y="440.7" width="12.2" height="24.65" shape-rendering="crispEdges"/><rect fill="#121212" x="0" y="465.1" width="12.2" height="24.65" shape-rendering="crispEdges"/><rect fill="#121212" x="12.2" y="465.1" width="1073.6" height="24.65" shape-rendering="crispEdges"/><rect fill="#121212" x="1085.8" y="465.1" width="12.2" height="24.65" shape-rendering="crispEdges"/><rect fill="#121212" x="0" y="489.5" width="12.2" height="24.65" shape-rendering="crispEdges"/><rect fill="#121212" x="12.2" y="489.5" width="1073.6" height="24.65" shape-rendering="crispEdges"/><rect fill="#121212" x="1085.8" y="489.5" width="12.2" height="24.65" shape-rendering="crispEdges"/><rect fill="#121212" x="0" y="513.9" width="12.2" height="24.65" shape-rendering="crispEdges"/><rect fill="#121212" x="12.2" y="513.9" width="1073.6" height="24.65" shape-rendering="crispEdges"/><rect fill="#121212" x="1085.8" y="513.9" width="12.2" height="24.65" shape-rendering="crispEdges"/><rect fill="#121212" x="0" y="538.3" width="12.2" height="24.65" shape-rendering="crispEdges"/><rect fill="#121212" x="12.2" y="538.3" width="1073.6" height="24.65" shape-rendering="crispEdges"/><rect fill="#121212" x="1085.8" y="538.3" width="12.2" height="24.65" shape-rendering="crispEdges"/><rect fill="#121212" x="0" y="562.7" width="12.2" height="24.65" shape-rendering="crispEdges"/><rect fill="#121212" x="12.2" y="562.7" width="1073.6" height="24.65" shape-rendering="crispEdges"/><rect fill="#121212" x="1085.8" y="562.7" width="12.2" height="24.65" shape-rendering="crispEdges"/><rect fill="#121212" x="0" y="587.1" width="1098" height="24.65" shape-rendering="crispEdges"/><rect fill="#121212" x="0" y="611.5" width="12.2" height="24.65" shape-rendering="crispEdges"/><rect fill="#121212" x="12.2" y="611.5" width="683.2" height="24.65" shape-rendering="crispEdges"/><rect fill="#121212" x="695.4" y="611.5" width="12.2" height="24.65" shape-rendering="crispEdges"/><rect fill="#121212" x="707.6" y="611.5" width="170.8" height="24.65" shape-rendering="crispEdges"/><rect fill="#121212" x="878.4" y="611.5" width="12.2" height="24.65" shape-rendering="crispEdges"/><rect fill="#121212" x="890.6" y="611.5" width="61" height="24.65" shape-rendering="crispEdges"/><rect fill="#121212" x="951.6" y="611.5" width="12.2" height="24.65" shape-rendering="crispEdges"/><rect fill="#121212" x="963.8" y="611.5" width="122" height="24.65" shape-rendering="crispEdges"/><rect fill="#121212" x="1085.8" y="611.5" width="12.2" height="24.65" shape-rendering="crispEdges"/>
    <g class="terminal-444773341-matrix">
    <text class="terminal-444773341-r2" x="12.2" y="20" textLength="85.4" clip-path="url(#terminal-444773341-line-0)">&#160;1:win&#160;</text><text class="terminal-444773341-r3" x="122" y="20" textLength="36.6" clip-path="url(#terminal-444773341-line-0)">[+]</text><text class="terminal-444773341-r4" x="1098" y="20" textLength="12.2" clip-path="url(#terminal-444773341-line-0)">
</text><text class="terminal-444773341-r5" x="0" y="44.4" textLength="12.2" clip-path="url(#terminal-444773341-line-1)">┌</text><text class="terminal-444773341-r5" x="12.2" y="44.4" textLength="85.4" clip-path="url(#terminal-444773341-line-1)">▀▀▀▀▀▀▀</text><text class="terminal-444773341-r5" x="97.6" y="44.4" textLength="48.8" clip-path="url(#terminal-444773341-line-1)">────</text><text class="terminal-444773341-r6" x="146.4" y="44.4" textLength="12.2" clip-path="url(#terminal-444773341-line-1)">╭</text><text class="terminal-444773341-r6" x="158.6" y="44.4" textLength="780.8" clip-path="url(#terminal-444773341-line-1)">────────────────────────────────────────────────────────────────</text><text class="terminal-444773341-r6" x="939.4" y="44.4" textLength="12.2" clip-path="url(#terminal-444773341-line-1)">╮</text><text class="terminal-444773341-r5" x="951.6" y="44.4" textLength="97.6" clip-path="url(#terminal-444773341-line-1)">────────</text><text class="terminal-444773341-r7" x="1049.2" y="44.4" textLength="36.6" clip-path="url(#terminal-444773341-line-1)">[x]</text><text class="terminal-444773341-r5" x="1085.8" y="44.4" textLength="12.2" clip-path="url(#terminal-444773341-line-1)">┐</text><text class="terminal-444773341-r4" x="1098" y="44.4" textLength="12.2" clip-path="url(#terminal-444773341-line-1)">
</text><text class="terminal-444773341-r5" x="0" y="68.8" textLength="12.2" clip-path="url(#terminal-444773341-line-2)">│</text><text class="terminal-444773341-r8" x="12.2" y="68.8" textLength="134.2" clip-path="url(#terminal-444773341-line-2)">neoocean@pl</text><text class="terminal-444773341-r6" x="146.4" y="68.8" textLength="12.2" clip-path="url(#terminal-444773341-line-2)">│</text><text class="terminal-444773341-r9" x="170.8" y="68.8" textLength="85.4" clip-path="url(#terminal-444773341-line-2)">Claude&#160;</text><g clip-path="url(#terminal-444773341-line-2)"><path fill="#fea62b" transform="translate(256.2 68.8) scale(0.0282081 -0.02)" d="M726 812H610V-79H726V373H854V469H726ZM566 221C431 307 350 445 350 621V737H229V615C229 437 153 294 8 201C33 173 56 145 80 116C172 170 262 282 291 383C321 286 424 181 497 134C521 163 542 192 566 221Z"/><path fill="#fea62b" transform="translate(280.6 68.8) scale(0.0282081 -0.02)" d="M121 620C121 567 155 521 218 490V382H30V289H835V382H643V487C709 518 744 565 744 620C744 719 633 792 432 792C233 792 121 719 121 620ZM743 87C743 188 630 252 432 252C236 252 123 188 123 87C123 -16 236 -80 433 -80C630 -80 743 -16 743 87ZM242 620C242 669 312 703 432 703C554 703 624 669 624 620C624 573 550 539 432 539C312 539 242 573 242 620ZM623 86C623 40 548 13 432 13C317 13 243 40 243 86C243 132 317 159 432 159C548 159 623 132 623 86ZM433 449C466 449 497 451 526 455V382H335V456C365 452 398 449 433 449Z"/></g><text class="terminal-444773341-r9" x="305" y="68.8" textLength="12.2" clip-path="url(#terminal-444773341-line-2)">&#160;</text><g clip-path="url(#terminal-444773341-line-2)"><path fill="#fea62b" transform="translate(317.2 68.8) scale(0.0282081 -0.02)" d="M540 561V652H23V561ZM497 372C497 466 407 536 287 536C164 536 75 466 75 372C75 277 165 210 287 210C407 210 497 277 497 372ZM155 694H420V783H155ZM727 812H610V150H727V427H851V524H727ZM748 -58V35H257V177H139V-58ZM191 372C191 414 235 443 287 443C338 443 383 414 383 372C383 332 338 304 287 304C235 304 191 332 191 372Z"/><path fill="#fea62b" transform="translate(341.6 68.8) scale(0.0282081 -0.02)" d="M737 331V424H251V654H732V747H134V331H372V125H30V33H835V125H489V331Z"/></g><text class="terminal-444773341-r9" x="366" y="68.8" textLength="109.8" clip-path="url(#terminal-444773341-line-2)">&#160;(/usage)</text><text class="terminal-444773341-r10" x="878.4" y="68.8" textLength="36.6" clip-path="url(#terminal-444773341-line-2)">[x]</text><text class="terminal-444773341-r6" x="939.4" y="68.8" textLength="12.2" clip-path="url(#terminal-444773341-line-2)">│</text><text class="terminal-444773341-r11" x="1049.2" y="68.8" textLength="48.8" clip-path="url(#terminal-444773341-line-2)">[EN]</text><text class="terminal-444773341-r4" x="1098" y="68.8" textLength="12.2" clip-path="url(#terminal-444773341-line-2)">
</text><text class="terminal-444773341-r5" x="0" y="93.2" textLength="12.2" clip-path="url(#terminal-444773341-line-3)">│</text><text class="terminal-444773341-r6" x="146.4" y="93.2" textLength="12.2" clip-path="url(#terminal-444773341-line-3)">│</text><g clip-path="url(#terminal-444773341-line-3)"><path fill="#e0e0e0" transform="translate(170.8 93.2) scale(0.0282081 -0.02)" d="M778 -70V804H703V-70ZM605 -26V783H531V489H376V425H531V-26ZM478 206C383 269 281 396 281 566V723H206V564C206 393 118 244 19 181L66 124C153 187 225 301 244 401C272 302 364 198 431 150Z"/><path fill="#e0e0e0" transform="translate(195.2 93.2) scale(0.0282081 -0.02)" d="M515 425H676V172H752V804H676V672H515V608H676V489H515ZM548 354C444 392 327 495 327 641V753H250V638C250 498 145 377 28 325L75 266C170 315 263 414 290 506C327 417 413 337 503 294ZM771 -43V20H266V224H190V-43Z"/></g><text class="terminal-444773341-r12" x="219.6" y="93.2" textLength="439.2" clip-path="url(#terminal-444773341-line-3)">&#160;5h&#160;&#160;&#160;█████████▏░░░░░░░░░░░░░░&#160;&#160;38%&#160;</text><g clip-path="url(#terminal-444773341-line-3)"><path fill="#e0e0e0" transform="translate(658.8 93.2) scale(0.0282081 -0.02)" d="M851 387V451H710V804H634V-70H710V387ZM551 201C430 272 320 415 320 574V727H242V572C242 417 139 260 12 182L61 123C164 195 249 306 280 415C315 309 413 205 503 143Z"/><path fill="#e0e0e0" transform="translate(683.2 93.2) scale(0.0282081 -0.02)" d="M738 620C738 720 624 785 432 785C241 785 128 720 128 620C128 562 167 515 239 487V362H38V299H827V362H623V486C697 514 738 561 738 620ZM744 89C744 189 626 244 433 244C242 244 125 189 125 89C125 -11 242 -65 434 -65C626 -65 744 -11 744 89ZM664 620C664 557 572 518 432 518C292 518 202 557 202 620C202 685 292 724 432 724C572 724 664 685 664 620ZM433 178C574 178 667 147 667 89C667 32 575 1 433 1C294 1 201 32 201 89C201 147 294 178 433 178ZM432 457C475 457 512 460 547 465V362H315V466C350 460 389 457 432 457Z"/></g><text class="terminal-444773341-r12" x="707.6" y="93.2" textLength="73.2" clip-path="url(#terminal-444773341-line-3)">&#160;&#160;↻2pm</text><text class="terminal-444773341-r6" x="939.4" y="93.2" textLength="12.2" clip-path="url(#terminal-444773341-line-3)">│</text><text class="terminal-444773341-r5" x="1085.8" y="93.2" textLength="12.2" clip-path="url(#terminal-444773341-line-3)">│</text><text class="terminal-444773341-r4" x="1098" y="93.2" textLength="12.2" clip-path="url(#terminal-444773341-line-3)">
</text><text class="terminal-444773341-r5" x="0" y="117.6" textLength="12.2" clip-path="url(#terminal-444773341-line-4)">│</text><text class="terminal-444773341-r6" x="146.4" y="117.6" textLength="12.2" clip-path="url(#terminal-444773341-line-4)">│</text><g clip-path="url(#terminal-444773341-line-4)"><path fill="#e0e0e0" transform="translate(170.8 117.6) scale(0.0282081 -0.02)" d="M790 452C656 467 477 556 473 679H754V742H110V679H393C389 557 220 465 77 450L112 386C261 411 397 501 432 583C472 501 611 413 754 388ZM469 -70V243H827V307H38V243H393V-70Z"/></g><text class="terminal-444773341-r12" x="195.2" y="117.6" textLength="12.2" clip-path="url(#terminal-444773341-line-4)">&#160;</text><g clip-path="url(#terminal-444773341-line-4)"><path fill="#e0e0e0" transform="translate(207.4 117.6) scale(0.0282081 -0.02)" d="M63 663H260C260 624 260 605 259 593C255 478 145 367 35 324L79 265C173 306 274 401 298 482C334 403 427 320 510 286L553 347C453 380 345 480 338 592C337 605 337 623 337 663H533V727H63ZM752 164V804H676V561H502V497H676V164ZM771 -41V23H258V228H182V-41Z"/><path fill="#e0e0e0" transform="translate(231.8 117.6) scale(0.0282081 -0.02)" d="M459 519V583H44V519H212V488C212 325 127 216 27 155L70 103C153 154 231 248 251 340C276 249 358 166 430 126L475 182C386 228 290 326 290 490V519ZM529 362V-26H603V783H529V425H390V362ZM779 -70V804H704V-70ZM137 667H368V735H137Z"/></g><text class="terminal-444773341-r12" x="256.2" y="117.6" textLength="402.6" clip-path="url(#terminal-444773341-line-4)">&#160;&#160;&#160;██████████████▋░░░░░░░░░&#160;&#160;61%&#160;</text><g clip-path="url(#terminal-444773341-line-4)"><path fill="#e0e0e0" transform="translate(658.8 117.6) scale(0.0282081 -0.02)" d="M851 387V451H710V804H634V-70H710V387ZM551 201C430 272 320 415 320 574V727H242V572C242 417 139 260 12 182L61 123C164 195 249 306 280 415C315 309 413 205 503 143Z"/><path fill="#e0e0e0" transform="translate(683.2 117.6) scale(0.0282081 -0.02)" d="M738 620C738 720 624 785 432 785C241 785 128 720 128 620C128 562 167 515 239 487V362H38V299H827V362H623V486C697 514 738 561 738 620ZM744 89C744 189 626 244 433 244C242 244 125 189 125 89C125 -11 242 -65 434 -65C626 -65 744 -11 744 89ZM664 620C664 557 572 518 432 518C292 518 202 557 202 620C202 685 292 724 432 724C572 724 664 685 664 620ZM433 178C574 178 667 147 667 89C667 32 575 1 433 1C294 1 201 32 201 89C201 147 294 178 433 178ZM432 457C475 457 512 460 547 465V362H315V466C350 460 389 457 432 457Z"/></g><text class="terminal-444773341-r12" x="707.6" y="117.6" textLength="109.8" clip-path="url(#terminal-444773341-line-4)">&#160;&#160;↻Jun&#160;13</text><text class="terminal-444773341-r6" x="939.4" y="117.6" textLength="12.2" clip-path="url(#terminal-444773341-line-4)">│</text><text class="terminal-444773341-r5" x="1085.8" y="117.6" textLength="12.2" clip-path="url(#terminal-444773341-line-4)">│</text><text class="terminal-444773341-r4" x="1098" y="117.6" textLength="12.2" clip-path="url(#terminal-444773341-line-4)">
</text><text class="terminal-444773341-r5" x="0" y="142" textLength="12.2" clip-path="url(#terminal-444773341-line-5)">│</text><text class="terminal-444773341-r6" x="146.4" y="142" textLength="12.2" clip-path="url(#terminal-444773341-line-5)">│</text><text class="terminal-444773341-r12" x="170.8" y="142" textLength="73.2" clip-path="url(#terminal-444773341-line-5)">at&#160;3am</text><text class="terminal-444773341-r6" x="939.4" y="142" textLength="12.2" clip-path="url(#terminal-444773341-line-5)">│</text><text class="terminal-444773341-r5" x="1085.8" y="142" textLength="12.2" clip-path="url(#terminal-444773341-line-5)">│</text><text class="terminal-444773341-r4" x="1098" y="142" textLength="12.2" clip-path="url(#terminal-444773341-line-5)">
</text><text class="terminal-444773341-r5" x="0" y="166.4" textLength="12.2" clip-path="url(#terminal-444773341-line-6)">│</text><text class="terminal-444773341-r6" x="146.4" y="166.4" textLength="12.2" clip-path="url(#terminal-444773341-line-6)">│</text><g clip-path="url(#terminal-444773341-line-6)"><path fill="#e0e0e0" transform="translate(170.8 166.4) scale(0.0282081 -0.02)" d="M790 452C656 467 477 556 473 679H754V742H110V679H393C389 557 220 465 77 450L112 386C261 411 397 501 432 583C472 501 611 413 754 388ZM469 -70V243H827V307H38V243H393V-70Z"/></g><text class="terminal-444773341-r12" x="195.2" y="166.4" textLength="463.6" clip-path="url(#terminal-444773341-line-6)">&#160;Sonnet&#160;██▉░░░░░░░░░░░░░░░░░░░░░&#160;&#160;12%&#160;</text><g clip-path="url(#terminal-444773341-line-6)"><path fill="#e0e0e0" transform="translate(658.8 166.4) scale(0.0282081 -0.02)" d="M851 387V451H710V804H634V-70H710V387ZM551 201C430 272 320 415 320 574V727H242V572C242 417 139 260 12 182L61 123C164 195 249 306 280 415C315 309 413 205 503 143Z"/><path fill="#e0e0e0" transform="translate(683.2 166.4) scale(0.0282081 -0.02)" d="M738 620C738 720 624 785 432 785C241 785 128 720 128 620C128 562 167 515 239 487V362H38V299H827V362H623V486C697 514 738 561 738 620ZM744 89C744 189 626 244 433 244C242 244 125 189 125 89C125 -11 242 -65 434 -65C626 -65 744 -11 744 89ZM664 620C664 557 572 518 432 518C292 518 202 557 202 620C202 685 292 724 432 724C572 724 664 685 664 620ZM433 178C574 178 667 147 667 89C667 32 575 1 433 1C294 1 201 32 201 89C201 147 294 178 433 178ZM432 457C475 457 512 460 547 465V362H315V466C350 460 389 457 432 457Z"/></g><text class="terminal-444773341-r12" x="707.6" y="166.4" textLength="109.8" clip-path="url(#terminal-444773341-line-6)">&#160;&#160;↻Jun&#160;13</text><text class="terminal-444773341-r6" x="939.4" y="166.4" textLength="12.2" clip-path="url(#terminal-444773341-line-6)">│</text><text class="terminal-444773341-r5" x="1085.8" y="166.4" textLength="12.2" clip-path="url(#terminal-444773341-line-6)">│</text><text class="terminal-444773341-r4" x="1098" y="166.4" textLength="12.2" clip-path="url(#terminal-444773341-line-6)">
</text><text class="terminal-444773341-r5" x="0" y="190.8" textLength="12.2" clip-path="url(#terminal-444773341-line-7)">│</text><text class="terminal-444773341-r6" x="146.4" y="190.8" textLength="12.2" clip-path="url(#terminal-444773341-line-7)">│</text><text class="terminal-444773341-r12" x="170.8" y="190.8" textLength="73.2" clip-path="url(#terminal-444773341-line-7)">at&#160;3am</text><text class="terminal-444773341-r6" x="939.4" y="190.8" textLength="12.2" clip-path="url(#terminal-444773341-line-7)">│</text><text class="terminal-444773341-r5" x="1085.8" y="190.8" textLength="12.2" clip-path="url(#terminal-444773341-line-7)">│</text><text class="terminal-444773341-r4" x="1098" y="190.8" textLength="12.2" clip-path="url(#terminal-444773341-line-7)">
</text><text class="terminal-444773341-r5" x="0" y="215.2" textLength="12.2" clip-path="url(#terminal-444773341-line-8)">│</text><text class="terminal-444773341-r6" x="146.4" y="215.2" textLength="12.2" clip-path="url(#terminal-444773341-line-8)">│</text><g clip-path="url(#terminal-444773341-line-8)"><path fill="#e0e0e0" transform="translate(170.8 215.2) scale(0.0282081 -0.02)" d="M609 -26V783H535V564H406V500H535V340H386V277H535V-26ZM775 -70V804H700V-70ZM396 695H65V631H320C308 449 214 273 32 174L82 117C284 246 390 428 396 695Z"/><path fill="#e0e0e0" transform="translate(195.2 215.2) scale(0.0282081 -0.02)" d="M759 96C759 199 653 263 465 263C278 263 173 199 173 96C173 -6 278 -70 465 -70C653 -70 759 -6 759 96ZM61 667H260C260 651 260 630 259 620C255 496 144 385 34 343L75 282C169 323 274 428 298 510C334 431 428 349 519 313L564 374C457 406 345 501 338 620C337 630 337 650 337 667H534V731H61ZM465 199C602 199 681 162 681 96C681 31 602 -6 465 -6C331 -6 250 31 250 96C250 162 331 199 465 199ZM676 513V261H752V804H676V577H500V513Z"/></g><text class="terminal-444773341-r12" x="219.6" y="215.2" textLength="207.4" clip-path="url(#terminal-444773341-line-8)">(/usage):&#160;default</text><text class="terminal-444773341-r6" x="939.4" y="215.2" textLength="12.2" clip-path="url(#terminal-444773341-line-8)">│</text><text class="terminal-444773341-r5" x="1085.8" y="215.2" textLength="12.2" clip-path="url(#terminal-444773341-line-8)">│</text><text class="terminal-444773341-r4" x="1098" y="215.2" textLength="12.2" clip-path="url(#terminal-444773341-line-8)">
</text><text class="terminal-444773341-r5" x="0" y="239.6" textLength="12.2" clip-path="url(#terminal-444773341-line-9)">│</text><text class="terminal-444773341-r6" x="146.4" y="239.6" textLength="12.2" clip-path="url(#terminal-444773341-line-9)">╰</text><text class="terminal-444773341-r6" x="158.6" y="239.6" textLength="780.8" clip-path="url(#terminal-444773341-line-9)">────────────────────────────────────────────────────────────────</text><text class="terminal-444773341-r6" x="939.4" y="239.6" textLength="12.2" clip-path="url(#terminal-444773341-line-9)">╯</text><text class="terminal-444773341-r5" x="1085.8" y="239.6" textLength="12.2" clip-path="url(#terminal-444773341-line-9)">│</text><text class="terminal-444773341-r4" x="1098" y="239.6" textLength="12.2" clip-path="url(#terminal-444773341-line-9)">
</text><text class="terminal-444773341-r5" x="0" y="264" textLength="12.2" clip-path="url(#terminal-444773341-line-10)">│</text><text class="terminal-444773341-r5" x="1085.8" y="264" textLength="12.2" clip-path="url(#terminal-444773341-line-10)">│</text><text class="terminal-444773341-r4" x="1098" y="264" textLength="12.2" clip-path="url(#terminal-444773341-line-10)">
</text><text class="terminal-444773341-r5" x="0" y="288.4" textLength="12.2" clip-path="url(#terminal-444773341-line-11)">│</text><text class="terminal-444773341-r5" x="1085.8" y="288.4" textLength="12.2" clip-path="url(#terminal-444773341-line-11)">│</text><text class="terminal-444773341-r4" x="1098" y="288.4" textLength="12.2" clip-path="url(#terminal-444773341-line-11)">
</text><text class="terminal-444773341-r5" x="0" y="312.8" textLength="12.2" clip-path="url(#terminal-444773341-line-12)">│</text><text class="terminal-444773341-r5" x="1085.8" y="312.8" textLength="12.2" clip-path="url(#terminal-444773341-line-12)">│</text><text class="terminal-444773341-r4" x="1098" y="312.8" textLength="12.2" clip-path="url(#terminal-444773341-line-12)">
</text><text class="terminal-444773341-r5" x="0" y="337.2" textLength="12.2" clip-path="url(#terminal-444773341-line-13)">│</text><text class="terminal-444773341-r5" x="1085.8" y="337.2" textLength="12.2" clip-path="url(#terminal-444773341-line-13)">│</text><text class="terminal-444773341-r4" x="1098" y="337.2" textLength="12.2" clip-path="url(#terminal-444773341-line-13)">
</text><text class="terminal-444773341-r5" x="0" y="361.6" textLength="12.2" clip-path="url(#terminal-444773341-line-14)">│</text><text class="terminal-444773341-r5" x="1085.8" y="361.6" textLength="12.2" clip-path="url(#terminal-444773341-line-14)">│</text><text class="terminal-444773341-r4" x="1098" y="361.6" textLength="12.2" clip-path="url(#terminal-444773341-line-14)">
</text><text class="terminal-444773341-r5" x="0" y="386" textLength="12.2" clip-path="url(#terminal-444773341-line-15)">│</text><text class="terminal-444773341-r5" x="1085.8" y="386" textLength="12.2" clip-path="url(#terminal-444773341-line-15)">│</text><text class="terminal-444773341-r4" x="1098" y="386" textLength="12.2" clip-path="url(#terminal-444773341-line-15)">
</text><text class="terminal-444773341-r5" x="0" y="410.4" textLength="12.2" clip-path="url(#terminal-444773341-line-16)">│</text><text class="terminal-444773341-r5" x="1085.8" y="410.4" textLength="12.2" clip-path="url(#terminal-444773341-line-16)">│</text><text class="terminal-444773341-r4" x="1098" y="410.4" textLength="12.2" clip-path="url(#terminal-444773341-line-16)">
</text><text class="terminal-444773341-r5" x="0" y="434.8" textLength="12.2" clip-path="url(#terminal-444773341-line-17)">│</text><text class="terminal-444773341-r5" x="1085.8" y="434.8" textLength="12.2" clip-path="url(#terminal-444773341-line-17)">│</text><text class="terminal-444773341-r4" x="1098" y="434.8" textLength="12.2" clip-path="url(#terminal-444773341-line-17)">
</text><text class="terminal-444773341-r5" x="0" y="459.2" textLength="12.2" clip-path="url(#terminal-444773341-line-18)">│</text><text class="terminal-444773341-r5" x="1085.8" y="459.2" textLength="12.2" clip-path="url(#terminal-444773341-line-18)">│</text><text class="terminal-444773341-r4" x="1098" y="459.2" textLength="12.2" clip-path="url(#terminal-444773341-line-18)">
</text><text class="terminal-444773341-r5" x="0" y="483.6" textLength="12.2" clip-path="url(#terminal-444773341-line-19)">│</text><text class="terminal-444773341-r5" x="1085.8" y="483.6" textLength="12.2" clip-path="url(#terminal-444773341-line-19)">│</text><text class="terminal-444773341-r4" x="1098" y="483.6" textLength="12.2" clip-path="url(#terminal-444773341-line-19)">
</text><text class="terminal-444773341-r5" x="0" y="508" textLength="12.2" clip-path="url(#terminal-444773341-line-20)">│</text><text class="terminal-444773341-r5" x="1085.8" y="508" textLength="12.2" clip-path="url(#terminal-444773341-line-20)">│</text><text class="terminal-444773341-r4" x="1098" y="508" textLength="12.2" clip-path="url(#terminal-444773341-line-20)">
</text><text class="terminal-444773341-r5" x="0" y="532.4" textLength="12.2" clip-path="url(#terminal-444773341-line-21)">│</text><text class="terminal-444773341-r5" x="1085.8" y="532.4" textLength="12.2" clip-path="url(#terminal-444773341-line-21)">│</text><text class="terminal-444773341-r4" x="1098" y="532.4" textLength="12.2" clip-path="url(#terminal-444773341-line-21)">
</text><text class="terminal-444773341-r5" x="0" y="556.8" textLength="12.2" clip-path="url(#terminal-444773341-line-22)">│</text><text class="terminal-444773341-r5" x="1085.8" y="556.8" textLength="12.2" clip-path="url(#terminal-444773341-line-22)">│</text><text class="terminal-444773341-r4" x="1098" y="556.8" textLength="12.2" clip-path="url(#terminal-444773341-line-22)">
</text><text class="terminal-444773341-r5" x="0" y="581.2" textLength="12.2" clip-path="url(#terminal-444773341-line-23)">│</text><text class="terminal-444773341-r5" x="1085.8" y="581.2" textLength="12.2" clip-path="url(#terminal-444773341-line-23)">│</text><text class="terminal-444773341-r4" x="1098" y="581.2" textLength="12.2" clip-path="url(#terminal-444773341-line-23)">
</text><text class="terminal-444773341-r5" x="0" y="605.6" textLength="1098" clip-path="url(#terminal-444773341-line-24)">└────────────────────────────────────────────────────────────────────────────────────────┘</text><text class="terminal-444773341-r4" x="1098" y="605.6" textLength="12.2" clip-path="url(#terminal-444773341-line-24)">
</text><text class="terminal-444773341-r13" x="707.6" y="630" textLength="170.8" clip-path="url(#terminal-444773341-line-25)">ssh:playground</text><text class="terminal-444773341-r1" x="890.6" y="630" textLength="61" clip-path="url(#terminal-444773341-line-25)">17:39</text><text class="terminal-444773341-r1" x="963.8" y="630" textLength="122" clip-path="url(#terminal-444773341-line-25)">2026-06-20</text>
    </g>
    </g>
</svg>
