<svg class="rich-terminal" viewBox="0 0 1116 684.4" xmlns="http://www.w3.org/2000/svg">
    <!-- Generated with Rich https://www.textualize.io -->
    <style>

    @font-face {
        font-family: "Fira Code";
        src: local("FiraCode-Regular"),
                url("https://cdnjs.cloudflare.com/ajax/libs/firacode/6.2.0/woff2/FiraCode-Regular.woff2") format("woff2"),
                url("https://cdnjs.cloudflare.com/ajax/libs/firacode/6.2.0/woff/FiraCode-Regular.woff") format("woff");
        font-style: normal;
        font-weight: 400;
    }
    @font-face {
        font-family: "Fira Code";
        src: local("FiraCode-Bold"),
                url("https://cdnjs.cloudflare.com/ajax/libs/firacode/6.2.0/woff2/FiraCode-Bold.woff2") format("woff2"),
                url("https://cdnjs.cloudflare.com/ajax/libs/firacode/6.2.0/woff/FiraCode-Bold.woff") format("woff");
        font-style: bold;
        font-weight: 700;
    }

    .terminal-1012263438-matrix {
        font-family: Fira Code, monospace;
        font-size: 20px;
        line-height: 24.4px;
        font-variant-east-asian: full-width;
    }

    .terminal-1012263438-title {
        font-size: 18px;
        font-weight: bold;
        font-family: arial;
    }

    .terminal-1012263438-r1 { fill: #646464 }
.terminal-1012263438-r2 { fill: #595953;font-weight: bold }
.terminal-1012263438-r3 { fill: #151515;font-weight: bold }
.terminal-1012263438-r4 { fill: #c5c8c6 }
.terminal-1012263438-r5 { fill: #0a2030 }
.terminal-1012263438-r6 { fill: #00aaaa }
.terminal-1012263438-r7 { fill: #ffffff }
.terminal-1012263438-r8 { fill: #2d2d2d }
.terminal-1012263438-r9 { fill: #222222 }
.terminal-1012263438-r10 { fill: #000000;font-weight: bold }
.terminal-1012263438-r11 { fill: #0a0a0a }
.terminal-1012263438-r12 { fill: #ffd866;font-weight: bold }
.terminal-1012263438-r13 { fill: #d6d6d6 }
.terminal-1012263438-r14 { fill: #6fdcdc }
.terminal-1012263438-r15 { fill: #54222f;font-weight: bold }
    </style>

    <defs>
    <clipPath id="terminal-1012263438-clip-terminal">
      <rect x="0" y="0" width="1097.0" height="633.4" />
    </clipPath>
    <clipPath id="terminal-1012263438-line-0">
    <rect x="0" y="1.5" width="1098" height="24.65"/>
            </clipPath>
<clipPath id="terminal-1012263438-line-1">
    <rect x="0" y="25.9" width="1098" height="24.65"/>
            </clipPath>
<clipPath id="terminal-1012263438-line-2">
    <rect x="0" y="50.3" width="1098" height="24.65"/>
            </clipPath>
<clipPath id="terminal-1012263438-line-3">
    <rect x="0" y="74.7" width="1098" height="24.65"/>
            </clipPath>
<clipPath id="terminal-1012263438-line-4">
    <rect x="0" y="99.1" width="1098" height="24.65"/>
            </clipPath>
<clipPath id="terminal-1012263438-line-5">
    <rect x="0" y="123.5" width="1098" height="24.65"/>
            </clipPath>
<clipPath id="terminal-1012263438-line-6">
    <rect x="0" y="147.9" width="1098" height="24.65"/>
            </clipPath>
<clipPath id="terminal-1012263438-line-7">
    <rect x="0" y="172.3" width="1098" height="24.65"/>
            </clipPath>
<clipPath id="terminal-1012263438-line-8">
    <rect x="0" y="196.7" width="1098" height="24.65"/>
            </clipPath>
<clipPath id="terminal-1012263438-line-9">
    <rect x="0" y="221.1" width="1098" height="24.65"/>
            </clipPath>
<clipPath id="terminal-1012263438-line-10">
    <rect x="0" y="245.5" width="1098" height="24.65"/>
            </clipPath>
<clipPath id="terminal-1012263438-line-11">
    <rect x="0" y="269.9" width="1098" height="24.65"/>
            </clipPath>
<clipPath id="terminal-1012263438-line-12">
    <rect x="0" y="294.3" width="1098" height="24.65"/>
            </clipPath>
<clipPath id="terminal-1012263438-line-13">
    <rect x="0" y="318.7" width="1098" height="24.65"/>
            </clipPath>
<clipPath id="terminal-1012263438-line-14">
    <rect x="0" y="343.1" width="1098" height="24.65"/>
            </clipPath>
<clipPath id="terminal-1012263438-line-15">
    <rect x="0" y="367.5" width="1098" height="24.65"/>
            </clipPath>
<clipPath id="terminal-1012263438-line-16">
    <rect x="0" y="391.9" width="1098" height="24.65"/>
            </clipPath>
<clipPath id="terminal-1012263438-line-17">
    <rect x="0" y="416.3" width="1098" height="24.65"/>
            </clipPath>
<clipPath id="terminal-1012263438-line-18">
    <rect x="0" y="440.7" width="1098" height="24.65"/>
            </clipPath>
<clipPath id="terminal-1012263438-line-19">
    <rect x="0" y="465.1" width="1098" height="24.65"/>
            </clipPath>
<clipPath id="terminal-1012263438-line-20">
    <rect x="0" y="489.5" width="1098" height="24.65"/>
            </clipPath>
<clipPath id="terminal-1012263438-line-21">
    <rect x="0" y="513.9" width="1098" height="24.65"/>
            </clipPath>
<clipPath id="terminal-1012263438-line-22">
    <rect x="0" y="538.3" width="1098" height="24.65"/>
            </clipPath>
<clipPath id="terminal-1012263438-line-23">
    <rect x="0" y="562.7" width="1098" height="24.65"/>
            </clipPath>
<clipPath id="terminal-1012263438-line-24">
    <rect x="0" y="587.1" width="1098" height="24.65"/>
            </clipPath>
    </defs>

    <rect fill="#292929" stroke="rgba(255,255,255,0.35)" stroke-width="1" x="1" y="1" width="1114" height="682.4" rx="8"/><text class="terminal-1012263438-title" fill="#c5c8c6" text-anchor="middle" x="557" y="27">PytmuxApp</text>
            <g transform="translate(26,22)">
            <circle cx="0" cy="0" r="7" fill="#ff5f57"/>
            <circle cx="22" cy="0" r="7" fill="#febc2e"/>
            <circle cx="44" cy="0" r="7" fill="#28c840"/>
            </g>
        
    <g transform="translate(9, 41)" clip-path="url(#terminal-1012263438-clip-terminal)">
    <rect fill="#121212" x="0" y="1.5" width="12.2" height="24.65" shape-rendering="crispEdges"/><rect fill="#0b3a5f" x="12.2" y="1.5" width="85.4" height="24.65" shape-rendering="crispEdges"/><rect fill="#121212" x="97.6" y="1.5" width="24.4" height="24.65" shape-rendering="crispEdges"/><rect fill="#2a5738" x="122" y="1.5" width="36.6" height="24.65" shape-rendering="crispEdges"/><rect fill="#121212" x="158.6" y="1.5" width="939.4" height="24.65" shape-rendering="crispEdges"/><rect fill="#121212" x="0" y="25.9" width="12.2" height="24.65" shape-rendering="crispEdges"/><rect fill="#121212" x="12.2" y="25.9" width="12.2" height="24.65" shape-rendering="crispEdges"/><rect fill="#1c2230" x="24.4" y="25.9" width="12.2" height="24.65" shape-rendering="crispEdges"/><rect fill="#1c2230" x="36.6" y="25.9" width="12.2" height="24.65" shape-rendering="crispEdges"/><rect fill="#1c2230" x="48.8" y="25.9" width="475.8" height="24.65" shape-rendering="crispEdges"/><rect fill="#1c2230" x="524.6" y="25.9" width="536.8" height="24.65" shape-rendering="crispEdges"/><rect fill="#1c2230" x="1061.4" y="25.9" width="12.2" height="24.65" shape-rendering="crispEdges"/><rect fill="#2c151a" x="1073.6" y="25.9" width="12.2" height="24.65" shape-rendering="crispEdges"/><rect fill="#121212" x="1085.8" y="25.9" width="12.2" height="24.65" shape-rendering="crispEdges"/><rect fill="#121212" x="0" y="50.3" width="12.2" height="24.65" shape-rendering="crispEdges"/><rect fill="#121212" x="12.2" y="50.3" width="12.2" height="24.65" shape-rendering="crispEdges"/><rect fill="#1c2230" x="24.4" y="50.3" width="12.2" height="24.65" shape-rendering="crispEdges"/><rect fill="#1c2230" x="36.6" y="50.3" width="12.2" height="24.65" shape-rendering="crispEdges"/><rect fill="#00aaaa" x="48.8" y="50.3" width="134.2" height="24.65" shape-rendering="crispEdges"/><rect fill="#00aaaa" x="183" y="50.3" width="402.6" height="24.65" shape-rendering="crispEdges"/><rect fill="#00aaaa" x="585.6" y="50.3" width="451.4" height="24.65" shape-rendering="crispEdges"/><rect fill="#00aaaa" x="1037" y="50.3" width="12.2" height="24.65" shape-rendering="crispEdges"/><rect fill="#1c2230" x="1049.2" y="50.3" width="12.2" height="24.65" shape-rendering="crispEdges"/><rect fill="#1c2230" x="1061.4" y="50.3" width="12.2" height="24.65" shape-rendering="crispEdges"/><rect fill="#0a2030" x="1073.6" y="50.3" width="24.4" height="24.65" shape-rendering="crispEdges"/><rect fill="#121212" x="0" y="74.7" width="12.2" height="24.65" shape-rendering="crispEdges"/><rect fill="#121212" x="12.2" y="74.7" width="12.2" height="24.65" shape-rendering="crispEdges"/><rect fill="#1c2230" x="24.4" y="74.7" width="12.2" height="24.65" shape-rendering="crispEdges"/><rect fill="#1c2230" x="36.6" y="74.7" width="12.2" height="24.65" shape-rendering="crispEdges"/><rect fill="#1c2230" x="48.8" y="74.7" width="134.2" height="24.65" shape-rendering="crispEdges"/><rect fill="#1c2230" x="183" y="74.7" width="402.6" height="24.65" shape-rendering="crispEdges"/><rect fill="#1c2230" x="585.6" y="74.7" width="353.8" height="24.65" shape-rendering="crispEdges"/><rect fill="#1c2230" x="939.4" y="74.7" width="109.8" height="24.65" shape-rendering="crispEdges"/><rect fill="#1c2230" x="1049.2" y="74.7" width="12.2" height="24.65" shape-rendering="crispEdges"/><rect fill="#1c2230" x="1061.4" y="74.7" width="12.2" height="24.65" shape-rendering="crispEdges"/><rect fill="#121212" x="1073.6" y="74.7" width="12.2" height="24.65" shape-rendering="crispEdges"/><rect fill="#121212" x="1085.8" y="74.7" width="12.2" height="24.65" shape-rendering="crispEdges"/><rect fill="#121212" x="0" y="99.1" width="12.2" height="24.65" shape-rendering="crispEdges"/><rect fill="#121212" x="12.2" y="99.1" width="12.2" height="24.65" shape-rendering="crispEdges"/><rect fill="#1c2230" x="24.4" y="99.1" width="12.2" height="24.65" shape-rendering="crispEdges"/><rect fill="#1c2230" x="36.6" y="99.1" width="12.2" height="24.65" shape-rendering="crispEdges"/><rect fill="#1c2230" x="48.8" y="99.1" width="134.2" height="24.65" shape-rendering="crispEdges"/><rect fill="#1c2230" x="183" y="99.1" width="402.6" height="24.65" shape-rendering="crispEdges"/><rect fill="#1c2230" x="585.6" y="99.1" width="366" height="24.65" shape-rendering="crispEdges"/><rect fill="#1c2230" x="951.6" y="99.1" width="97.6" height="24.65" shape-rendering="crispEdges"/><rect fill="#1c2230" x="1049.2" y="99.1" width="12.2" height="24.65" shape-rendering="crispEdges"/><rect fill="#1c2230" x="1061.4" y="99.1" width="12.2" height="24.65" shape-rendering="crispEdges"/><rect fill="#121212" x="1073.6" y="99.1" width="12.2" height="24.65" shape-rendering="crispEdges"/><rect fill="#121212" x="1085.8" y="99.1" width="12.2" height="24.65" shape-rendering="crispEdges"/><rect fill="#121212" x="0" y="123.5" width="12.2" height="24.65" shape-rendering="crispEdges"/><rect fill="#121212" x="12.2" y="123.5" width="12.2" height="24.65" shape-rendering="crispEdges"/><rect fill="#1c2230" x="24.4" y="123.5" width="12.2" height="24.65" shape-rendering="crispEdges"/><rect fill="#1c2230" x="36.6" y="123.5" width="12.2" height="24.65" shape-rendering="crispEdges"/><rect fill="#1c2230" x="48.8" y="123.5" width="134.2" height="24.65" shape-rendering="crispEdges"/><rect fill="#1c2230" x="183" y="123.5" width="402.6" height="24.65" shape-rendering="crispEdges"/><rect fill="#1c2230" x="585.6" y="123.5" width="463.6" height="24.65" shape-rendering="crispEdges"/><rect fill="#1c2230" x="1049.2" y="123.5" width="12.2" height="24.65" shape-rendering="crispEdges"/><rect fill="#1c2230" x="1061.4" y="123.5" width="12.2" height="24.65" shape-rendering="crispEdges"/><rect fill="#121212" x="1073.6" y="123.5" width="12.2" height="24.65" shape-rendering="crispEdges"/><rect fill="#121212" x="1085.8" y="123.5" width="12.2" height="24.65" shape-rendering="crispEdges"/><rect fill="#121212" x="0" y="147.9" width="12.2" height="24.65" shape-rendering="crispEdges"/><rect fill="#121212" x="12.2" y="147.9" width="12.2" height="24.65" shape-rendering="crispEdges"/><rect fill="#1c2230" x="24.4" y="147.9" width="12.2" height="24.65" shape-rendering="crispEdges"/><rect fill="#1c2230" x="36.6" y="147.9" width="12.2" height="24.65" shape-rendering="crispEdges"/><rect fill="#1c2230" x="48.8" y="147.9" width="134.2" height="24.65" shape-rendering="crispEdges"/><rect fill="#1c2230" x="183" y="147.9" width="402.6" height="24.65" shape-rendering="crispEdges"/><rect fill="#1c2230" x="585.6" y="147.9" width="451.4" height="24.65" shape-rendering="crispEdges"/><rect fill="#1c2230" x="1037" y="147.9" width="12.2" height="24.65" shape-rendering="crispEdges"/><rect fill="#1c2230" x="1049.2" y="147.9" width="12.2" height="24.65" shape-rendering="crispEdges"/><rect fill="#1c2230" x="1061.4" y="147.9" width="12.2" height="24.65" shape-rendering="crispEdges"/><rect fill="#121212" x="1073.6" y="147.9" width="12.2" height="24.65" shape-rendering="crispEdges"/><rect fill="#121212" x="1085.8" y="147.9" width="12.2" height="24.65" shape-rendering="crispEdges"/><rect fill="#121212" x="0" y="172.3" width="12.2" height="24.65" shape-rendering="crispEdges"/><rect fill="#121212" x="12.2" y="172.3" width="12.2" height="24.65" shape-rendering="crispEdges"/><rect fill="#1c2230" x="24.4" y="172.3" width="12.2" height="24.65" shape-rendering="crispEdges"/><rect fill="#1c2230" x="36.6" y="172.3" width="12.2" height="24.65" shape-rendering="crispEdges"/><rect fill="#1c2230" x="48.8" y="172.3" width="1000.4" height="24.65" shape-rendering="crispEdges"/><rect fill="#1c2230" x="1049.2" y="172.3" width="12.2" height="24.65" shape-rendering="crispEdges"/><rect fill="#1c2230" x="1061.4" y="172.3" width="12.2" height="24.65" shape-rendering="crispEdges"/><rect fill="#121212" x="1073.6" y="172.3" width="12.2" height="24.65" shape-rendering="crispEdges"/><rect fill="#121212" x="1085.8" y="172.3" width="12.2" height="24.65" shape-rendering="crispEdges"/><rect fill="#121212" x="0" y="196.7" width="12.2" height="24.65" shape-rendering="crispEdges"/><rect fill="#121212" x="12.2" y="196.7" width="12.2" height="24.65" shape-rendering="crispEdges"/><rect fill="#1c2230" x="24.4" y="196.7" width="12.2" height="24.65" shape-rendering="crispEdges"/><rect fill="#1c2230" x="36.6" y="196.7" width="12.2" height="24.65" shape-rendering="crispEdges"/><rect fill="#1c2230" x="48.8" y="196.7" width="1000.4" height="24.65" shape-rendering="crispEdges"/><rect fill="#1c2230" x="1049.2" y="196.7" width="12.2" height="24.65" shape-rendering="crispEdges"/><rect fill="#1c2230" x="1061.4" y="196.7" width="12.2" height="24.65" shape-rendering="crispEdges"/><rect fill="#121212" x="1073.6" y="196.7" width="12.2" height="24.65" shape-rendering="crispEdges"/><rect fill="#121212" x="1085.8" y="196.7" width="12.2" height="24.65" shape-rendering="crispEdges"/><rect fill="#121212" x="0" y="221.1" width="12.2" height="24.65" shape-rendering="crispEdges"/><rect fill="#121212" x="12.2" y="221.1" width="12.2" height="24.65" shape-rendering="crispEdges"/><rect fill="#1c2230" x="24.4" y="221.1" width="12.2" height="24.65" shape-rendering="crispEdges"/><rect fill="#1c2230" x="36.6" y="221.1" width="12.2" height="24.65" shape-rendering="crispEdges"/><rect fill="#1c2230" x="48.8" y="221.1" width="1000.4" height="24.65" shape-rendering="crispEdges"/><rect fill="#1c2230" x="1049.2" y="221.1" width="12.2" height="24.65" shape-rendering="crispEdges"/><rect fill="#1c2230" x="1061.4" y="221.1" width="12.2" height="24.65" shape-rendering="crispEdges"/><rect fill="#121212" x="1073.6" y="221.1" width="12.2" height="24.65" shape-rendering="crispEdges"/><rect fill="#121212" x="1085.8" y="221.1" width="12.2" height="24.65" shape-rendering="crispEdges"/><rect fill="#121212" x="0" y="245.5" width="12.2" height="24.65" shape-rendering="crispEdges"/><rect fill="#121212" x="12.2" y="245.5" width="12.2" height="24.65" shape-rendering="crispEdges"/><rect fill="#1c2230" x="24.4" y="245.5" width="12.2" height="24.65" shape-rendering="crispEdges"/><rect fill="#1c2230" x="36.6" y="245.5" width="12.2" height="24.65" shape-rendering="crispEdges"/><rect fill="#1c2230" x="48.8" y="245.5" width="1000.4" height="24.65" shape-rendering="crispEdges"/><rect fill="#1c2230" x="1049.2" y="245.5" width="12.2" height="24.65" shape-rendering="crispEdges"/><rect fill="#1c2230" x="1061.4" y="245.5" width="12.2" height="24.65" shape-rendering="crispEdges"/><rect fill="#121212" x="1073.6" y="245.5" width="12.2" height="24.65" shape-rendering="crispEdges"/><rect fill="#121212" x="1085.8" y="245.5" width="12.2" height="24.65" shape-rendering="crispEdges"/><rect fill="#121212" x="0" y="269.9" width="12.2" height="24.65" shape-rendering="crispEdges"/><rect fill="#121212" x="12.2" y="269.9" width="12.2" height="24.65" shape-rendering="crispEdges"/><rect fill="#1c2230" x="24.4" y="269.9" width="12.2" height="24.65" shape-rendering="crispEdges"/><rect fill="#1c2230" x="36.6" y="269.9" width="12.2" height="24.65" shape-rendering="crispEdges"/><rect fill="#1c2230" x="48.8" y="269.9" width="1000.4" height="24.65" shape-rendering="crispEdges"/><rect fill="#1c2230" x="1049.2" y="269.9" width="12.2" height="24.65" shape-rendering="crispEdges"/><rect fill="#1c2230" x="1061.4" y="269.9" width="12.2" height="24.65" shape-rendering="crispEdges"/><rect fill="#121212" x="1073.6" y="269.9" width="12.2" height="24.65" shape-rendering="crispEdges"/><rect fill="#121212" x="1085.8" y="269.9" width="12.2" height="24.65" shape-rendering="crispEdges"/><rect fill="#121212" x="0" y="294.3" width="12.2" height="24.65" shape-rendering="crispEdges"/><rect fill="#121212" x="12.2" y="294.3" width="12.2" height="24.65" shape-rendering="crispEdges"/><rect fill="#1c2230" x="24.4" y="294.3" width="12.2" height="24.65" shape-rendering="crispEdges"/><rect fill="#1c2230" x="36.6" y="294.3" width="12.2" height="24.65" shape-rendering="crispEdges"/><rect fill="#1c2230" x="48.8" y="294.3" width="1000.4" height="24.65" shape-rendering="crispEdges"/><rect fill="#1c2230" x="1049.2" y="294.3" width="12.2" height="24.65" shape-rendering="crispEdges"/><rect fill="#1c2230" x="1061.4" y="294.3" width="12.2" height="24.65" shape-rendering="crispEdges"/><rect fill="#121212" x="1073.6" y="294.3" width="12.2" height="24.65" shape-rendering="crispEdges"/><rect fill="#121212" x="1085.8" y="294.3" width="12.2" height="24.65" shape-rendering="crispEdges"/><rect fill="#121212" x="0" y="318.7" width="12.2" height="24.65" shape-rendering="crispEdges"/><rect fill="#121212" x="12.2" y="318.7" width="12.2" height="24.65" shape-rendering="crispEdges"/><rect fill="#1c2230" x="24.4" y="318.7" width="12.2" height="24.65" shape-rendering="crispEdges"/><rect fill="#1c2230" x="36.6" y="318.7" width="12.2" height="24.65" shape-rendering="crispEdges"/><rect fill="#1c2230" x="48.8" y="318.7" width="1000.4" height="24.65" shape-rendering="crispEdges"/><rect fill="#1c2230" x="1049.2" y="318.7" width="12.2" height="24.65" shape-rendering="crispEdges"/><rect fill="#1c2230" x="1061.4" y="318.7" width="12.2" height="24.65" shape-rendering="crispEdges"/><rect fill="#121212" x="1073.6" y="318.7" width="12.2" height="24.65" shape-rendering="crispEdges"/><rect fill="#121212" x="1085.8" y="318.7" width="12.2" height="24.65" shape-rendering="crispEdges"/><rect fill="#121212" x="0" y="343.1" width="12.2" height="24.65" shape-rendering="crispEdges"/><rect fill="#121212" x="12.2" y="343.1" width="12.2" height="24.65" shape-rendering="crispEdges"/><rect fill="#1c2230" x="24.4" y="343.1" width="12.2" height="24.65" shape-rendering="crispEdges"/><rect fill="#1c2230" x="36.6" y="343.1" width="12.2" height="24.65" shape-rendering="crispEdges"/><rect fill="#1c2230" x="48.8" y="343.1" width="1000.4" height="24.65" shape-rendering="crispEdges"/><rect fill="#1c2230" x="1049.2" y="343.1" width="12.2" height="24.65" shape-rendering="crispEdges"/><rect fill="#1c2230" x="1061.4" y="343.1" width="12.2" height="24.65" shape-rendering="crispEdges"/><rect fill="#121212" x="1073.6" y="343.1" width="12.2" height="24.65" shape-rendering="crispEdges"/><rect fill="#121212" x="1085.8" y="343.1" width="12.2" height="24.65" shape-rendering="crispEdges"/><rect fill="#121212" x="0" y="367.5" width="12.2" height="24.65" shape-rendering="crispEdges"/><rect fill="#121212" x="12.2" y="367.5" width="12.2" height="24.65" shape-rendering="crispEdges"/><rect fill="#1c2230" x="24.4" y="367.5" width="12.2" height="24.65" shape-rendering="crispEdges"/><rect fill="#1c2230" x="36.6" y="367.5" width="12.2" height="24.65" shape-rendering="crispEdges"/><rect fill="#1c2230" x="48.8" y="367.5" width="1000.4" height="24.65" shape-rendering="crispEdges"/><rect fill="#1c2230" x="1049.2" y="367.5" width="12.2" height="24.65" shape-rendering="crispEdges"/><rect fill="#1c2230" x="1061.4" y="367.5" width="12.2" height="24.65" shape-rendering="crispEdges"/><rect fill="#121212" x="1073.6" y="367.5" width="12.2" height="24.65" shape-rendering="crispEdges"/><rect fill="#121212" x="1085.8" y="367.5" width="12.2" height="24.65" shape-rendering="crispEdges"/><rect fill="#121212" x="0" y="391.9" width="12.2" height="24.65" shape-rendering="crispEdges"/><rect fill="#121212" x="12.2" y="391.9" width="12.2" height="24.65" shape-rendering="crispEdges"/><rect fill="#1c2230" x="24.4" y="391.9" width="12.2" height="24.65" shape-rendering="crispEdges"/><rect fill="#1c2230" x="36.6" y="391.9" width="12.2" height="24.65" shape-rendering="crispEdges"/><rect fill="#1c2230" x="48.8" y="391.9" width="1000.4" height="24.65" shape-rendering="crispEdges"/><rect fill="#1c2230" x="1049.2" y="391.9" width="12.2" height="24.65" shape-rendering="crispEdges"/><rect fill="#1c2230" x="1061.4" y="391.9" width="12.2" height="24.65" shape-rendering="crispEdges"/><rect fill="#121212" x="1073.6" y="391.9" width="12.2" height="24.65" shape-rendering="crispEdges"/><rect fill="#121212" x="1085.8" y="391.9" width="12.2" height="24.65" shape-rendering="crispEdges"/><rect fill="#121212" x="0" y="416.3" width="12.2" height="24.65" shape-rendering="crispEdges"/><rect fill="#121212" x="12.2" y="416.3" width="12.2" height="24.65" shape-rendering="crispEdges"/><rect fill="#1c2230" x="24.4" y="416.3" width="12.2" height="24.65" shape-rendering="crispEdges"/><rect fill="#1c2230" x="36.6" y="416.3" width="12.2" height="24.65" shape-rendering="crispEdges"/><rect fill="#1c2230" x="48.8" y="416.3" width="1000.4" height="24.65" shape-rendering="crispEdges"/><rect fill="#1c2230" x="1049.2" y="416.3" width="12.2" height="24.65" shape-rendering="crispEdges"/><rect fill="#1c2230" x="1061.4" y="416.3" width="12.2" height="24.65" shape-rendering="crispEdges"/><rect fill="#121212" x="1073.6" y="416.3" width="12.2" height="24.65" shape-rendering="crispEdges"/><rect fill="#121212" x="1085.8" y="416.3" width="12.2" height="24.65" shape-rendering="crispEdges"/><rect fill="#121212" x="0" y="440.7" width="12.2" height="24.65" shape-rendering="crispEdges"/><rect fill="#121212" x="12.2" y="440.7" width="12.2" height="24.65" shape-rendering="crispEdges"/><rect fill="#1c2230" x="24.4" y="440.7" width="12.2" height="24.65" shape-rendering="crispEdges"/><rect fill="#1c2230" x="36.6" y="440.7" width="12.2" height="24.65" shape-rendering="crispEdges"/><rect fill="#1c2230" x="48.8" y="440.7" width="1000.4" height="24.65" shape-rendering="crispEdges"/><rect fill="#1c2230" x="1049.2" y="440.7" width="12.2" height="24.65" shape-rendering="crispEdges"/><rect fill="#1c2230" x="1061.4" y="440.7" width="12.2" height="24.65" shape-rendering="crispEdges"/><rect fill="#121212" x="1073.6" y="440.7" width="12.2" height="24.65" shape-rendering="crispEdges"/><rect fill="#121212" x="1085.8" y="440.7" width="12.2" height="24.65" shape-rendering="crispEdges"/><rect fill="#121212" x="0" y="465.1" width="12.2" height="24.65" shape-rendering="crispEdges"/><rect fill="#121212" x="12.2" y="465.1" width="12.2" height="24.65" shape-rendering="crispEdges"/><rect fill="#1c2230" x="24.4" y="465.1" width="12.2" height="24.65" shape-rendering="crispEdges"/><rect fill="#1c2230" x="36.6" y="465.1" width="12.2" height="24.65" shape-rendering="crispEdges"/><rect fill="#1c2230" x="48.8" y="465.1" width="1000.4" height="24.65" shape-rendering="crispEdges"/><rect fill="#1c2230" x="1049.2" y="465.1" width="12.2" height="24.65" shape-rendering="crispEdges"/><rect fill="#1c2230" x="1061.4" y="465.1" width="12.2" height="24.65" shape-rendering="crispEdges"/><rect fill="#121212" x="1073.6" y="465.1" width="12.2" height="24.65" shape-rendering="crispEdges"/><rect fill="#121212" x="1085.8" y="465.1" width="12.2" height="24.65" shape-rendering="crispEdges"/><rect fill="#121212" x="0" y="489.5" width="12.2" height="24.65" shape-rendering="crispEdges"/><rect fill="#121212" x="12.2" y="489.5" width="12.2" height="24.65" shape-rendering="crispEdges"/><rect fill="#1c2230" x="24.4" y="489.5" width="12.2" height="24.65" shape-rendering="crispEdges"/><rect fill="#1c2230" x="36.6" y="489.5" width="12.2" height="24.65" shape-rendering="crispEdges"/><rect fill="#1c2230" x="48.8" y="489.5" width="1000.4" height="24.65" shape-rendering="crispEdges"/><rect fill="#1c2230" x="1049.2" y="489.5" width="12.2" height="24.65" shape-rendering="crispEdges"/><rect fill="#1c2230" x="1061.4" y="489.5" width="12.2" height="24.65" shape-rendering="crispEdges"/><rect fill="#121212" x="1073.6" y="489.5" width="12.2" height="24.65" shape-rendering="crispEdges"/><rect fill="#121212" x="1085.8" y="489.5" width="12.2" height="24.65" shape-rendering="crispEdges"/><rect fill="#121212" x="0" y="513.9" width="12.2" height="24.65" shape-rendering="crispEdges"/><rect fill="#121212" x="12.2" y="513.9" width="12.2" height="24.65" shape-rendering="crispEdges"/><rect fill="#1c2230" x="24.4" y="513.9" width="12.2" height="24.65" shape-rendering="crispEdges"/><rect fill="#1c2230" x="36.6" y="513.9" width="12.2" height="24.65" shape-rendering="crispEdges"/><rect fill="#1c2230" x="48.8" y="513.9" width="1000.4" height="24.65" shape-rendering="crispEdges"/><rect fill="#1c2230" x="1049.2" y="513.9" width="12.2" height="24.65" shape-rendering="crispEdges"/><rect fill="#1c2230" x="1061.4" y="513.9" width="12.2" height="24.65" shape-rendering="crispEdges"/><rect fill="#121212" x="1073.6" y="513.9" width="12.2" height="24.65" shape-rendering="crispEdges"/><rect fill="#121212" x="1085.8" y="513.9" width="12.2" height="24.65" shape-rendering="crispEdges"/><rect fill="#121212" x="0" y="538.3" width="12.2" height="24.65" shape-rendering="crispEdges"/><rect fill="#121212" x="12.2" y="538.3" width="12.2" height="24.65" shape-rendering="crispEdges"/><rect fill="#1c2230" x="24.4" y="538.3" width="12.2" height="24.65" shape-rendering="crispEdges"/><rect fill="#1c2230" x="36.6" y="538.3" width="12.2" height="24.65" shape-rendering="crispEdges"/><rect fill="#1c2230" x="48.8" y="538.3" width="1000.4" height="24.65" shape-rendering="crispEdges"/><rect fill="#1c2230" x="1049.2" y="538.3" width="12.2" height="24.65" shape-rendering="crispEdges"/><rect fill="#1c2230" x="1061.4" y="538.3" width="12.2" height="24.65" shape-rendering="crispEdges"/><rect fill="#121212" x="1073.6" y="538.3" width="12.2" height="24.65" shape-rendering="crispEdges"/><rect fill="#121212" x="1085.8" y="538.3" width="12.2" height="24.65" shape-rendering="crispEdges"/><rect fill="#121212" x="0" y="562.7" width="12.2" height="24.65" shape-rendering="crispEdges"/><rect fill="#121212" x="12.2" y="562.7" width="12.2" height="24.65" shape-rendering="crispEdges"/><rect fill="#1c2230" x="24.4" y="562.7" width="12.2" height="24.65" shape-rendering="crispEdges"/><rect fill="#1c2230" x="36.6" y="562.7" width="610" height="24.65" shape-rendering="crispEdges"/><rect fill="#1c2230" x="646.6" y="562.7" width="402.6" height="24.65" shape-rendering="crispEdges"/><rect fill="#1c2230" x="1049.2" y="562.7" width="12.2" height="24.65" shape-rendering="crispEdges"/><rect fill="#1c2230" x="1061.4" y="562.7" width="12.2" height="24.65" shape-rendering="crispEdges"/><rect fill="#121212" x="1073.6" y="562.7" width="12.2" height="24.65" shape-rendering="crispEdges"/><rect fill="#121212" x="1085.8" y="562.7" width="12.2" height="24.65" shape-rendering="crispEdges"/><rect fill="#121212" x="0" y="587.1" width="1098" height="24.65" shape-rendering="crispEdges"/><rect fill="#121212" x="0" y="611.5" width="12.2" height="24.65" shape-rendering="crispEdges"/><rect fill="#121212" x="12.2" y="611.5" width="683.2" height="24.65" shape-rendering="crispEdges"/><rect fill="#121212" x="695.4" y="611.5" width="12.2" height="24.65" shape-rendering="crispEdges"/><rect fill="#121212" x="707.6" y="611.5" width="170.8" height="24.65" shape-rendering="crispEdges"/><rect fill="#121212" x="878.4" y="611.5" width="12.2" height="24.65" shape-rendering="crispEdges"/><rect fill="#121212" x="890.6" y="611.5" width="61" height="24.65" shape-rendering="crispEdges"/><rect fill="#121212" x="951.6" y="611.5" width="12.2" height="24.65" shape-rendering="crispEdges"/><rect fill="#121212" x="963.8" y="611.5" width="122" height="24.65" shape-rendering="crispEdges"/><rect fill="#121212" x="1085.8" y="611.5" width="12.2" height="24.65" shape-rendering="crispEdges"/>
    <g class="terminal-1012263438-matrix">
    <text class="terminal-1012263438-r2" x="12.2" y="20" textLength="85.4" clip-path="url(#terminal-1012263438-line-0)">&#160;1:win&#160;</text><text class="terminal-1012263438-r3" x="122" y="20" textLength="36.6" clip-path="url(#terminal-1012263438-line-0)">[+]</text><text class="terminal-1012263438-r4" x="1098" y="20" textLength="12.2" clip-path="url(#terminal-1012263438-line-0)">
</text><text class="terminal-1012263438-r5" x="0" y="44.4" textLength="12.2" clip-path="url(#terminal-1012263438-line-1)">┌</text><text class="terminal-1012263438-r5" x="12.2" y="44.4" textLength="12.2" clip-path="url(#terminal-1012263438-line-1)">▀</text><text class="terminal-1012263438-r6" x="24.4" y="44.4" textLength="12.2" clip-path="url(#terminal-1012263438-line-1)">╭</text><text class="terminal-1012263438-r6" x="36.6" y="44.4" textLength="12.2" clip-path="url(#terminal-1012263438-line-1)">─</text><text class="terminal-1012263438-r7" x="48.8" y="44.4" textLength="475.8" clip-path="url(#terminal-1012263438-line-1)">&#160;submitted&#160;changelists&#160;—&#160;perforce:1666&#160;</text><text class="terminal-1012263438-r6" x="524.6" y="44.4" textLength="536.8" clip-path="url(#terminal-1012263438-line-1)">────────────────────────────────────────────</text><text class="terminal-1012263438-r6" x="1061.4" y="44.4" textLength="12.2" clip-path="url(#terminal-1012263438-line-1)">╮</text><text class="terminal-1012263438-r8" x="1073.6" y="44.4" textLength="12.2" clip-path="url(#terminal-1012263438-line-1)">]</text><text class="terminal-1012263438-r5" x="1085.8" y="44.4" textLength="12.2" clip-path="url(#terminal-1012263438-line-1)">┐</text><text class="terminal-1012263438-r4" x="1098" y="44.4" textLength="12.2" clip-path="url(#terminal-1012263438-line-1)">
</text><text class="terminal-1012263438-r5" x="0" y="68.8" textLength="12.2" clip-path="url(#terminal-1012263438-line-2)">│</text><text class="terminal-1012263438-r9" x="12.2" y="68.8" textLength="12.2" clip-path="url(#terminal-1012263438-line-2)">n</text><text class="terminal-1012263438-r6" x="24.4" y="68.8" textLength="12.2" clip-path="url(#terminal-1012263438-line-2)">│</text><text class="terminal-1012263438-r10" x="48.8" y="68.8" textLength="134.2" clip-path="url(#terminal-1012263438-line-2)">&#160;&#160;@58694&#160;&#160;&#160;</text><text class="terminal-1012263438-r10" x="183" y="68.8" textLength="402.6" clip-path="url(#terminal-1012263438-line-2)">2026/06/13&#160;&#160;&#160;&#160;&#160;&#160;&#160;&#160;dev&#160;&#160;&#160;&#160;&#160;&#160;&#160;&#160;&#160;&#160;&#160;&#160;</text><text class="terminal-1012263438-r10" x="585.6" y="68.8" textLength="451.4" clip-path="url(#terminal-1012263438-line-2)">docs:&#160;IMPROVEMENT&#160;stale&#160;헤딩&#160;5건&#160;정정</text><text class="terminal-1012263438-r6" x="1061.4" y="68.8" textLength="12.2" clip-path="url(#terminal-1012263438-line-2)">│</text><text class="terminal-1012263438-r11" x="1073.6" y="68.8" textLength="24.4" clip-path="url(#terminal-1012263438-line-2)">N]</text><text class="terminal-1012263438-r4" x="1098" y="68.8" textLength="12.2" clip-path="url(#terminal-1012263438-line-2)">
</text><text class="terminal-1012263438-r5" x="0" y="93.2" textLength="12.2" clip-path="url(#terminal-1012263438-line-3)">│</text><text class="terminal-1012263438-r6" x="24.4" y="93.2" textLength="12.2" clip-path="url(#terminal-1012263438-line-3)">│</text><text class="terminal-1012263438-r12" x="48.8" y="93.2" textLength="134.2" clip-path="url(#terminal-1012263438-line-3)">&#160;&#160;@58681&#160;&#160;&#160;</text><text class="terminal-1012263438-r13" x="183" y="93.2" textLength="402.6" clip-path="url(#terminal-1012263438-line-3)">2026/06/13&#160;&#160;&#160;&#160;&#160;&#160;&#160;&#160;dev&#160;&#160;&#160;&#160;&#160;&#160;&#160;&#160;&#160;&#160;&#160;&#160;</text><text class="terminal-1012263438-r13" x="585.6" y="93.2" textLength="353.8" clip-path="url(#terminal-1012263438-line-3)">패널&#160;닫기&#160;[x]&#160;버튼&#160;한&#160;칸&#160;위로</text><text class="terminal-1012263438-r6" x="1061.4" y="93.2" textLength="12.2" clip-path="url(#terminal-1012263438-line-3)">│</text><text class="terminal-1012263438-r5" x="1085.8" y="93.2" textLength="12.2" clip-path="url(#terminal-1012263438-line-3)">│</text><text class="terminal-1012263438-r4" x="1098" y="93.2" textLength="12.2" clip-path="url(#terminal-1012263438-line-3)">
</text><text class="terminal-1012263438-r5" x="0" y="117.6" textLength="12.2" clip-path="url(#terminal-1012263438-line-4)">│</text><text class="terminal-1012263438-r6" x="24.4" y="117.6" textLength="12.2" clip-path="url(#terminal-1012263438-line-4)">│</text><text class="terminal-1012263438-r12" x="48.8" y="117.6" textLength="134.2" clip-path="url(#terminal-1012263438-line-4)">&#160;&#160;@58672&#160;&#160;&#160;</text><text class="terminal-1012263438-r13" x="183" y="117.6" textLength="402.6" clip-path="url(#terminal-1012263438-line-4)">2026/06/13&#160;&#160;&#160;&#160;&#160;&#160;&#160;&#160;dev&#160;&#160;&#160;&#160;&#160;&#160;&#160;&#160;&#160;&#160;&#160;&#160;</text><text class="terminal-1012263438-r13" x="585.6" y="117.6" textLength="366" clip-path="url(#terminal-1012263438-line-4)">원격&#160;중첩&#160;자동&#160;승격&#160;구현&#160;N1~N3</text><text class="terminal-1012263438-r6" x="1061.4" y="117.6" textLength="12.2" clip-path="url(#terminal-1012263438-line-4)">│</text><text class="terminal-1012263438-r5" x="1085.8" y="117.6" textLength="12.2" clip-path="url(#terminal-1012263438-line-4)">│</text><text class="terminal-1012263438-r4" x="1098" y="117.6" textLength="12.2" clip-path="url(#terminal-1012263438-line-4)">
</text><text class="terminal-1012263438-r5" x="0" y="142" textLength="12.2" clip-path="url(#terminal-1012263438-line-5)">│</text><text class="terminal-1012263438-r6" x="24.4" y="142" textLength="12.2" clip-path="url(#terminal-1012263438-line-5)">│</text><text class="terminal-1012263438-r12" x="48.8" y="142" textLength="134.2" clip-path="url(#terminal-1012263438-line-5)">&#160;&#160;@58660&#160;&#160;&#160;</text><text class="terminal-1012263438-r13" x="183" y="142" textLength="402.6" clip-path="url(#terminal-1012263438-line-5)">2026/06/13&#160;&#160;&#160;&#160;&#160;&#160;&#160;&#160;dev&#160;&#160;&#160;&#160;&#160;&#160;&#160;&#160;&#160;&#160;&#160;&#160;</text><text class="terminal-1012263438-r13" x="585.6" y="142" textLength="463.6" clip-path="url(#terminal-1012263438-line-5)">p4-show-submitted-changelists&#160;플러그인</text><text class="terminal-1012263438-r6" x="1061.4" y="142" textLength="12.2" clip-path="url(#terminal-1012263438-line-5)">│</text><text class="terminal-1012263438-r5" x="1085.8" y="142" textLength="12.2" clip-path="url(#terminal-1012263438-line-5)">│</text><text class="terminal-1012263438-r4" x="1098" y="142" textLength="12.2" clip-path="url(#terminal-1012263438-line-5)">
</text><text class="terminal-1012263438-r5" x="0" y="166.4" textLength="12.2" clip-path="url(#terminal-1012263438-line-6)">│</text><text class="terminal-1012263438-r6" x="24.4" y="166.4" textLength="12.2" clip-path="url(#terminal-1012263438-line-6)">│</text><text class="terminal-1012263438-r12" x="48.8" y="166.4" textLength="134.2" clip-path="url(#terminal-1012263438-line-6)">&#160;&#160;@58648&#160;&#160;&#160;</text><text class="terminal-1012263438-r13" x="183" y="166.4" textLength="402.6" clip-path="url(#terminal-1012263438-line-6)">2026/06/12&#160;&#160;&#160;&#160;&#160;&#160;&#160;&#160;dev&#160;&#160;&#160;&#160;&#160;&#160;&#160;&#160;&#160;&#160;&#160;&#160;</text><text class="terminal-1012263438-r13" x="585.6" y="166.4" textLength="451.4" clip-path="url(#terminal-1012263438-line-6)">claude-prompt-history&#160;플러그인&#160;재구현</text><text class="terminal-1012263438-r6" x="1061.4" y="166.4" textLength="12.2" clip-path="url(#terminal-1012263438-line-6)">│</text><text class="terminal-1012263438-r5" x="1085.8" y="166.4" textLength="12.2" clip-path="url(#terminal-1012263438-line-6)">│</text><text class="terminal-1012263438-r4" x="1098" y="166.4" textLength="12.2" clip-path="url(#terminal-1012263438-line-6)">
</text><text class="terminal-1012263438-r5" x="0" y="190.8" textLength="12.2" clip-path="url(#terminal-1012263438-line-7)">│</text><text class="terminal-1012263438-r6" x="24.4" y="190.8" textLength="12.2" clip-path="url(#terminal-1012263438-line-7)">│</text><text class="terminal-1012263438-r6" x="1061.4" y="190.8" textLength="12.2" clip-path="url(#terminal-1012263438-line-7)">│</text><text class="terminal-1012263438-r5" x="1085.8" y="190.8" textLength="12.2" clip-path="url(#terminal-1012263438-line-7)">│</text><text class="terminal-1012263438-r4" x="1098" y="190.8" textLength="12.2" clip-path="url(#terminal-1012263438-line-7)">
</text><text class="terminal-1012263438-r5" x="0" y="215.2" textLength="12.2" clip-path="url(#terminal-1012263438-line-8)">│</text><text class="terminal-1012263438-r6" x="24.4" y="215.2" textLength="12.2" clip-path="url(#terminal-1012263438-line-8)">│</text><text class="terminal-1012263438-r6" x="1061.4" y="215.2" textLength="12.2" clip-path="url(#terminal-1012263438-line-8)">│</text><text class="terminal-1012263438-r5" x="1085.8" y="215.2" textLength="12.2" clip-path="url(#terminal-1012263438-line-8)">│</text><text class="terminal-1012263438-r4" x="1098" y="215.2" textLength="12.2" clip-path="url(#terminal-1012263438-line-8)">
</text><text class="terminal-1012263438-r5" x="0" y="239.6" textLength="12.2" clip-path="url(#terminal-1012263438-line-9)">│</text><text class="terminal-1012263438-r6" x="24.4" y="239.6" textLength="12.2" clip-path="url(#terminal-1012263438-line-9)">│</text><text class="terminal-1012263438-r6" x="1061.4" y="239.6" textLength="12.2" clip-path="url(#terminal-1012263438-line-9)">│</text><text class="terminal-1012263438-r5" x="1085.8" y="239.6" textLength="12.2" clip-path="url(#terminal-1012263438-line-9)">│</text><text class="terminal-1012263438-r4" x="1098" y="239.6" textLength="12.2" clip-path="url(#terminal-1012263438-line-9)">
</text><text class="terminal-1012263438-r5" x="0" y="264" textLength="12.2" clip-path="url(#terminal-1012263438-line-10)">│</text><text class="terminal-1012263438-r6" x="24.4" y="264" textLength="12.2" clip-path="url(#terminal-1012263438-line-10)">│</text><text class="terminal-1012263438-r6" x="1061.4" y="264" textLength="12.2" clip-path="url(#terminal-1012263438-line-10)">│</text><text class="terminal-1012263438-r5" x="1085.8" y="264" textLength="12.2" clip-path="url(#terminal-1012263438-line-10)">│</text><text class="terminal-1012263438-r4" x="1098" y="264" textLength="12.2" clip-path="url(#terminal-1012263438-line-10)">
</text><text class="terminal-1012263438-r5" x="0" y="288.4" textLength="12.2" clip-path="url(#terminal-1012263438-line-11)">│</text><text class="terminal-1012263438-r6" x="24.4" y="288.4" textLength="12.2" clip-path="url(#terminal-1012263438-line-11)">│</text><text class="terminal-1012263438-r6" x="1061.4" y="288.4" textLength="12.2" clip-path="url(#terminal-1012263438-line-11)">│</text><text class="terminal-1012263438-r5" x="1085.8" y="288.4" textLength="12.2" clip-path="url(#terminal-1012263438-line-11)">│</text><text class="terminal-1012263438-r4" x="1098" y="288.4" textLength="12.2" clip-path="url(#terminal-1012263438-line-11)">
</text><text class="terminal-1012263438-r5" x="0" y="312.8" textLength="12.2" clip-path="url(#terminal-1012263438-line-12)">│</text><text class="terminal-1012263438-r6" x="24.4" y="312.8" textLength="12.2" clip-path="url(#terminal-1012263438-line-12)">│</text><text class="terminal-1012263438-r6" x="1061.4" y="312.8" textLength="12.2" clip-path="url(#terminal-1012263438-line-12)">│</text><text class="terminal-1012263438-r5" x="1085.8" y="312.8" textLength="12.2" clip-path="url(#terminal-1012263438-line-12)">│</text><text class="terminal-1012263438-r4" x="1098" y="312.8" textLength="12.2" clip-path="url(#terminal-1012263438-line-12)">
</text><text class="terminal-1012263438-r5" x="0" y="337.2" textLength="12.2" clip-path="url(#terminal-1012263438-line-13)">│</text><text class="terminal-1012263438-r6" x="24.4" y="337.2" textLength="12.2" clip-path="url(#terminal-1012263438-line-13)">│</text><text class="terminal-1012263438-r6" x="1061.4" y="337.2" textLength="12.2" clip-path="url(#terminal-1012263438-line-13)">│</text><text class="terminal-1012263438-r5" x="1085.8" y="337.2" textLength="12.2" clip-path="url(#terminal-1012263438-line-13)">│</text><text class="terminal-1012263438-r4" x="1098" y="337.2" textLength="12.2" clip-path="url(#terminal-1012263438-line-13)">
</text><text class="terminal-1012263438-r5" x="0" y="361.6" textLength="12.2" clip-path="url(#terminal-1012263438-line-14)">│</text><text class="terminal-1012263438-r6" x="24.4" y="361.6" textLength="12.2" clip-path="url(#terminal-1012263438-line-14)">│</text><text class="terminal-1012263438-r6" x="1061.4" y="361.6" textLength="12.2" clip-path="url(#terminal-1012263438-line-14)">│</text><text class="terminal-1012263438-r5" x="1085.8" y="361.6" textLength="12.2" clip-path="url(#terminal-1012263438-line-14)">│</text><text class="terminal-1012263438-r4" x="1098" y="361.6" textLength="12.2" clip-path="url(#terminal-1012263438-line-14)">
</text><text class="terminal-1012263438-r5" x="0" y="386" textLength="12.2" clip-path="url(#terminal-1012263438-line-15)">│</text><text class="terminal-1012263438-r6" x="24.4" y="386" textLength="12.2" clip-path="url(#terminal-1012263438-line-15)">│</text><text class="terminal-1012263438-r6" x="1061.4" y="386" textLength="12.2" clip-path="url(#terminal-1012263438-line-15)">│</text><text class="terminal-1012263438-r5" x="1085.8" y="386" textLength="12.2" clip-path="url(#terminal-1012263438-line-15)">│</text><text class="terminal-1012263438-r4" x="1098" y="386" textLength="12.2" clip-path="url(#terminal-1012263438-line-15)">
</text><text class="terminal-1012263438-r5" x="0" y="410.4" textLength="12.2" clip-path="url(#terminal-1012263438-line-16)">│</text><text class="terminal-1012263438-r6" x="24.4" y="410.4" textLength="12.2" clip-path="url(#terminal-1012263438-line-16)">│</text><text class="terminal-1012263438-r6" x="1061.4" y="410.4" textLength="12.2" clip-path="url(#terminal-1012263438-line-16)">│</text><text class="terminal-1012263438-r5" x="1085.8" y="410.4" textLength="12.2" clip-path="url(#terminal-1012263438-line-16)">│</text><text class="terminal-1012263438-r4" x="1098" y="410.4" textLength="12.2" clip-path="url(#terminal-1012263438-line-16)">
</text><text class="terminal-1012263438-r5" x="0" y="434.8" textLength="12.2" clip-path="url(#terminal-1012263438-line-17)">│</text><text class="terminal-1012263438-r6" x="24.4" y="434.8" textLength="12.2" clip-path="url(#terminal-1012263438-line-17)">│</text><text class="terminal-1012263438-r6" x="1061.4" y="434.8" textLength="12.2" clip-path="url(#terminal-1012263438-line-17)">│</text><text class="terminal-1012263438-r5" x="1085.8" y="434.8" textLength="12.2" clip-path="url(#terminal-1012263438-line-17)">│</text><text class="terminal-1012263438-r4" x="1098" y="434.8" textLength="12.2" clip-path="url(#terminal-1012263438-line-17)">
</text><text class="terminal-1012263438-r5" x="0" y="459.2" textLength="12.2" clip-path="url(#terminal-1012263438-line-18)">│</text><text class="terminal-1012263438-r6" x="24.4" y="459.2" textLength="12.2" clip-path="url(#terminal-1012263438-line-18)">│</text><text class="terminal-1012263438-r6" x="1061.4" y="459.2" textLength="12.2" clip-path="url(#terminal-1012263438-line-18)">│</text><text class="terminal-1012263438-r5" x="1085.8" y="459.2" textLength="12.2" clip-path="url(#terminal-1012263438-line-18)">│</text><text class="terminal-1012263438-r4" x="1098" y="459.2" textLength="12.2" clip-path="url(#terminal-1012263438-line-18)">
</text><text class="terminal-1012263438-r5" x="0" y="483.6" textLength="12.2" clip-path="url(#terminal-1012263438-line-19)">│</text><text class="terminal-1012263438-r6" x="24.4" y="483.6" textLength="12.2" clip-path="url(#terminal-1012263438-line-19)">│</text><text class="terminal-1012263438-r6" x="1061.4" y="483.6" textLength="12.2" clip-path="url(#terminal-1012263438-line-19)">│</text><text class="terminal-1012263438-r5" x="1085.8" y="483.6" textLength="12.2" clip-path="url(#terminal-1012263438-line-19)">│</text><text class="terminal-1012263438-r4" x="1098" y="483.6" textLength="12.2" clip-path="url(#terminal-1012263438-line-19)">
</text><text class="terminal-1012263438-r5" x="0" y="508" textLength="12.2" clip-path="url(#terminal-1012263438-line-20)">│</text><text class="terminal-1012263438-r6" x="24.4" y="508" textLength="12.2" clip-path="url(#terminal-1012263438-line-20)">│</text><text class="terminal-1012263438-r6" x="1061.4" y="508" textLength="12.2" clip-path="url(#terminal-1012263438-line-20)">│</text><text class="terminal-1012263438-r5" x="1085.8" y="508" textLength="12.2" clip-path="url(#terminal-1012263438-line-20)">│</text><text class="terminal-1012263438-r4" x="1098" y="508" textLength="12.2" clip-path="url(#terminal-1012263438-line-20)">
</text><text class="terminal-1012263438-r5" x="0" y="532.4" textLength="12.2" clip-path="url(#terminal-1012263438-line-21)">│</text><text class="terminal-1012263438-r6" x="24.4" y="532.4" textLength="12.2" clip-path="url(#terminal-1012263438-line-21)">│</text><text class="terminal-1012263438-r6" x="1061.4" y="532.4" textLength="12.2" clip-path="url(#terminal-1012263438-line-21)">│</text><text class="terminal-1012263438-r5" x="1085.8" y="532.4" textLength="12.2" clip-path="url(#terminal-1012263438-line-21)">│</text><text class="terminal-1012263438-r4" x="1098" y="532.4" textLength="12.2" clip-path="url(#terminal-1012263438-line-21)">
</text><text class="terminal-1012263438-r5" x="0" y="556.8" textLength="12.2" clip-path="url(#terminal-1012263438-line-22)">│</text><text class="terminal-1012263438-r6" x="24.4" y="556.8" textLength="12.2" clip-path="url(#terminal-1012263438-line-22)">│</text><text class="terminal-1012263438-r6" x="1061.4" y="556.8" textLength="12.2" clip-path="url(#terminal-1012263438-line-22)">│</text><text class="terminal-1012263438-r5" x="1085.8" y="556.8" textLength="12.2" clip-path="url(#terminal-1012263438-line-22)">│</text><text class="terminal-1012263438-r4" x="1098" y="556.8" textLength="12.2" clip-path="url(#terminal-1012263438-line-22)">
</text><text class="terminal-1012263438-r5" x="0" y="581.2" textLength="12.2" clip-path="url(#terminal-1012263438-line-23)">│</text><text class="terminal-1012263438-r6" x="24.4" y="581.2" textLength="12.2" clip-path="url(#terminal-1012263438-line-23)">╰</text><text class="terminal-1012263438-r6" x="36.6" y="581.2" textLength="610" clip-path="url(#terminal-1012263438-line-23)">──────────────────────────────────────────────────</text><text class="terminal-1012263438-r14" x="646.6" y="581.2" textLength="402.6" clip-path="url(#terminal-1012263438-line-23)">&#160;↑↓&#160;이동&#160;·&#160;Enter&#160;상세&#160;·&#160;Esc&#160;닫기&#160;</text><text class="terminal-1012263438-r6" x="1049.2" y="581.2" textLength="12.2" clip-path="url(#terminal-1012263438-line-23)">─</text><text class="terminal-1012263438-r6" x="1061.4" y="581.2" textLength="12.2" clip-path="url(#terminal-1012263438-line-23)">╯</text><text class="terminal-1012263438-r5" x="1085.8" y="581.2" textLength="12.2" clip-path="url(#terminal-1012263438-line-23)">│</text><text class="terminal-1012263438-r4" x="1098" y="581.2" textLength="12.2" clip-path="url(#terminal-1012263438-line-23)">
</text><text class="terminal-1012263438-r5" x="0" y="605.6" textLength="1098" clip-path="url(#terminal-1012263438-line-24)">└────────────────────────────────────────────────────────────────────────────────────────┘</text><text class="terminal-1012263438-r4" x="1098" y="605.6" textLength="12.2" clip-path="url(#terminal-1012263438-line-24)">
</text><text class="terminal-1012263438-r15" x="707.6" y="630" textLength="170.8" clip-path="url(#terminal-1012263438-line-25)">ssh:playground</text><text class="terminal-1012263438-r1" x="890.6" y="630" textLength="61" clip-path="url(#terminal-1012263438-line-25)">19:43</text><text class="terminal-1012263438-r1" x="963.8" y="630" textLength="122" clip-path="url(#terminal-1012263438-line-25)">2026-06-14</text>
    </g>
    </g>
</svg>
