<svg class="rich-terminal" viewBox="0 0 1116 684.4" xmlns="http://www.w3.org/2000/svg">
    <!-- Generated with Rich https://www.textualize.io -->
    <style>

    @font-face {
        font-family: "Fira Code";
        src: local("FiraCode-Regular"),
                url("https://cdnjs.cloudflare.com/ajax/libs/firacode/6.2.0/woff2/FiraCode-Regular.woff2") format("woff2"),
                url("https://cdnjs.cloudflare.com/ajax/libs/firacode/6.2.0/woff/FiraCode-Regular.woff") format("woff");
        font-style: normal;
        font-weight: 400;
    }
    @font-face {
        font-family: "Fira Code";
        src: local("FiraCode-Bold"),
                url("https://cdnjs.cloudflare.com/ajax/libs/firacode/6.2.0/woff2/FiraCode-Bold.woff2") format("woff2"),
                url("https://cdnjs.cloudflare.com/ajax/libs/firacode/6.2.0/woff/FiraCode-Bold.woff") format("woff");
        font-style: bold;
        font-weight: 700;
    }

    .terminal-3531316682-matrix {
        font-family: Fira Code, "Apple SD Gothic Neo", monospace;
        font-size: 20px;
        line-height: 24.4px;
        font-variant-east-asian: full-width;
    }

    .terminal-3531316682-title {
        font-size: 18px;
        font-weight: bold;
        font-family: arial;
    }

    .terminal-3531316682-r1 { fill: #646464 }
.terminal-3531316682-r2 { fill: #595953;font-weight: bold }
.terminal-3531316682-r3 { fill: #151515;font-weight: bold }
.terminal-3531316682-r4 { fill: #c5c8c6 }
.terminal-3531316682-r5 { fill: #0a2030 }
.terminal-3531316682-r6 { fill: #2d2d2d }
.terminal-3531316682-r7 { fill: #222222 }
.terminal-3531316682-r8 { fill: #0a0a0a }
.terminal-3531316682-r9 { fill: #fea62b }
.terminal-3531316682-r10 { fill: #ddedf9;font-weight: bold }
.terminal-3531316682-r11 { fill: #e0e0e0 }
.terminal-3531316682-r12 { fill: #54222f;font-weight: bold }
    </style>

    <defs>
    <clipPath id="terminal-3531316682-clip-terminal">
      <rect x="0" y="0" width="1097.0" height="633.4" />
    </clipPath>
    <clipPath id="terminal-3531316682-line-0">
    <rect x="0" y="1.5" width="1098" height="24.65"/>
            </clipPath>
<clipPath id="terminal-3531316682-line-1">
    <rect x="0" y="25.9" width="1098" height="24.65"/>
            </clipPath>
<clipPath id="terminal-3531316682-line-2">
    <rect x="0" y="50.3" width="1098" height="24.65"/>
            </clipPath>
<clipPath id="terminal-3531316682-line-3">
    <rect x="0" y="74.7" width="1098" height="24.65"/>
            </clipPath>
<clipPath id="terminal-3531316682-line-4">
    <rect x="0" y="99.1" width="1098" height="24.65"/>
            </clipPath>
<clipPath id="terminal-3531316682-line-5">
    <rect x="0" y="123.5" width="1098" height="24.65"/>
            </clipPath>
<clipPath id="terminal-3531316682-line-6">
    <rect x="0" y="147.9" width="1098" height="24.65"/>
            </clipPath>
<clipPath id="terminal-3531316682-line-7">
    <rect x="0" y="172.3" width="1098" height="24.65"/>
            </clipPath>
<clipPath id="terminal-3531316682-line-8">
    <rect x="0" y="196.7" width="1098" height="24.65"/>
            </clipPath>
<clipPath id="terminal-3531316682-line-9">
    <rect x="0" y="221.1" width="1098" height="24.65"/>
            </clipPath>
<clipPath id="terminal-3531316682-line-10">
    <rect x="0" y="245.5" width="1098" height="24.65"/>
            </clipPath>
<clipPath id="terminal-3531316682-line-11">
    <rect x="0" y="269.9" width="1098" height="24.65"/>
            </clipPath>
<clipPath id="terminal-3531316682-line-12">
    <rect x="0" y="294.3" width="1098" height="24.65"/>
            </clipPath>
<clipPath id="terminal-3531316682-line-13">
    <rect x="0" y="318.7" width="1098" height="24.65"/>
            </clipPath>
<clipPath id="terminal-3531316682-line-14">
    <rect x="0" y="343.1" width="1098" height="24.65"/>
            </clipPath>
<clipPath id="terminal-3531316682-line-15">
    <rect x="0" y="367.5" width="1098" height="24.65"/>
            </clipPath>
<clipPath id="terminal-3531316682-line-16">
    <rect x="0" y="391.9" width="1098" height="24.65"/>
            </clipPath>
<clipPath id="terminal-3531316682-line-17">
    <rect x="0" y="416.3" width="1098" height="24.65"/>
            </clipPath>
<clipPath id="terminal-3531316682-line-18">
    <rect x="0" y="440.7" width="1098" height="24.65"/>
            </clipPath>
<clipPath id="terminal-3531316682-line-19">
    <rect x="0" y="465.1" width="1098" height="24.65"/>
            </clipPath>
<clipPath id="terminal-3531316682-line-20">
    <rect x="0" y="489.5" width="1098" height="24.65"/>
            </clipPath>
<clipPath id="terminal-3531316682-line-21">
    <rect x="0" y="513.9" width="1098" height="24.65"/>
            </clipPath>
<clipPath id="terminal-3531316682-line-22">
    <rect x="0" y="538.3" width="1098" height="24.65"/>
            </clipPath>
<clipPath id="terminal-3531316682-line-23">
    <rect x="0" y="562.7" width="1098" height="24.65"/>
            </clipPath>
<clipPath id="terminal-3531316682-line-24">
    <rect x="0" y="587.1" width="1098" height="24.65"/>
            </clipPath>
    </defs>

    <rect fill="#292929" stroke="rgba(255,255,255,0.35)" stroke-width="1" x="1" y="1" width="1114" height="682.4" rx="8"/><text class="terminal-3531316682-title" fill="#c5c8c6" text-anchor="middle" x="557" y="27">PytmuxApp</text>
            <g transform="translate(26,22)">
            <circle cx="0" cy="0" r="7" fill="#ff5f57"/>
            <circle cx="22" cy="0" r="7" fill="#febc2e"/>
            <circle cx="44" cy="0" r="7" fill="#28c840"/>
            </g>
        
    <g transform="translate(9, 41)" clip-path="url(#terminal-3531316682-clip-terminal)">
    <rect fill="#121212" x="0" y="1.5" width="12.2" height="24.65" shape-rendering="crispEdges"/><rect fill="#0b3a5f" x="12.2" y="1.5" width="85.4" height="24.65" shape-rendering="crispEdges"/><rect fill="#121212" x="97.6" y="1.5" width="24.4" height="24.65" shape-rendering="crispEdges"/><rect fill="#2a5738" x="122" y="1.5" width="36.6" height="24.65" shape-rendering="crispEdges"/><rect fill="#121212" x="158.6" y="1.5" width="939.4" height="24.65" shape-rendering="crispEdges"/><rect fill="#121212" x="0" y="25.9" width="12.2" height="24.65" shape-rendering="crispEdges"/><rect fill="#121212" x="12.2" y="25.9" width="85.4" height="24.65" shape-rendering="crispEdges"/><rect fill="#121212" x="97.6" y="25.9" width="951.6" height="24.65" shape-rendering="crispEdges"/><rect fill="#2c151a" x="1049.2" y="25.9" width="36.6" height="24.65" shape-rendering="crispEdges"/><rect fill="#121212" x="1085.8" y="25.9" width="12.2" height="24.65" shape-rendering="crispEdges"/><rect fill="#121212" x="0" y="50.3" width="12.2" height="24.65" shape-rendering="crispEdges"/><rect fill="#121212" x="12.2" y="50.3" width="353.8" height="24.65" shape-rendering="crispEdges"/><rect fill="#121212" x="366" y="50.3" width="12.2" height="24.65" shape-rendering="crispEdges"/><rect fill="#121212" x="378.2" y="50.3" width="671" height="24.65" shape-rendering="crispEdges"/><rect fill="#0a2030" x="1049.2" y="50.3" width="48.8" height="24.65" shape-rendering="crispEdges"/><rect fill="#121212" x="0" y="74.7" width="12.2" height="24.65" shape-rendering="crispEdges"/><rect fill="#121212" x="12.2" y="74.7" width="1073.6" height="24.65" shape-rendering="crispEdges"/><rect fill="#121212" x="1085.8" y="74.7" width="12.2" height="24.65" shape-rendering="crispEdges"/><rect fill="#121212" x="0" y="99.1" width="12.2" height="24.65" shape-rendering="crispEdges"/><rect fill="#121212" x="12.2" y="99.1" width="109.8" height="24.65" shape-rendering="crispEdges"/><rect fill="#2d3740" x="122" y="99.1" width="12.2" height="24.65" shape-rendering="crispEdges"/><rect fill="#2d3740" x="134.2" y="99.1" width="463.6" height="24.65" shape-rendering="crispEdges"/><rect fill="#2d3740" x="597.8" y="99.1" width="12.2" height="24.65" shape-rendering="crispEdges"/><rect fill="#2d3740" x="610" y="99.1" width="12.2" height="24.65" shape-rendering="crispEdges"/><rect fill="#2d3740" x="622.2" y="99.1" width="12.2" height="24.65" shape-rendering="crispEdges"/><rect fill="#2d3740" x="634.4" y="99.1" width="73.2" height="24.65" shape-rendering="crispEdges"/><rect fill="#2d3740" x="707.6" y="99.1" width="378.2" height="24.65" shape-rendering="crispEdges"/><rect fill="#2d3740" x="1085.8" y="99.1" width="12.2" height="24.65" shape-rendering="crispEdges"/><rect fill="#121212" x="0" y="123.5" width="12.2" height="24.65" shape-rendering="crispEdges"/><rect fill="#121212" x="12.2" y="123.5" width="109.8" height="24.65" shape-rendering="crispEdges"/><rect fill="#2d3740" x="122" y="123.5" width="12.2" height="24.65" shape-rendering="crispEdges"/><rect fill="#0178d4" x="134.2" y="123.5" width="73.2" height="24.65" shape-rendering="crispEdges"/><rect fill="#0178d4" x="207.4" y="123.5" width="390.4" height="24.65" shape-rendering="crispEdges"/><rect fill="#2d3740" x="597.8" y="123.5" width="12.2" height="24.65" shape-rendering="crispEdges"/><rect fill="#2d3740" x="610" y="123.5" width="12.2" height="24.65" shape-rendering="crispEdges"/><rect fill="#0178d4" x="622.2" y="123.5" width="219.6" height="24.65" shape-rendering="crispEdges"/><rect fill="#0178d4" x="841.8" y="123.5" width="244" height="24.65" shape-rendering="crispEdges"/><rect fill="#2d3740" x="1085.8" y="123.5" width="12.2" height="24.65" shape-rendering="crispEdges"/><rect fill="#121212" x="0" y="147.9" width="12.2" height="24.65" shape-rendering="crispEdges"/><rect fill="#121212" x="12.2" y="147.9" width="109.8" height="24.65" shape-rendering="crispEdges"/><rect fill="#2d3740" x="122" y="147.9" width="12.2" height="24.65" shape-rendering="crispEdges"/><rect fill="#2d3740" x="134.2" y="147.9" width="122" height="24.65" shape-rendering="crispEdges"/><rect fill="#2d3740" x="256.2" y="147.9" width="341.6" height="24.65" shape-rendering="crispEdges"/><rect fill="#2d3740" x="597.8" y="147.9" width="12.2" height="24.65" shape-rendering="crispEdges"/><rect fill="#2d3740" x="610" y="147.9" width="12.2" height="24.65" shape-rendering="crispEdges"/><rect fill="#2d3740" x="622.2" y="147.9" width="219.6" height="24.65" shape-rendering="crispEdges"/><rect fill="#2d3740" x="841.8" y="147.9" width="244" height="24.65" shape-rendering="crispEdges"/><rect fill="#2d3740" x="1085.8" y="147.9" width="12.2" height="24.65" shape-rendering="crispEdges"/><rect fill="#121212" x="0" y="172.3" width="12.2" height="24.65" shape-rendering="crispEdges"/><rect fill="#121212" x="12.2" y="172.3" width="109.8" height="24.65" shape-rendering="crispEdges"/><rect fill="#2d3740" x="122" y="172.3" width="12.2" height="24.65" shape-rendering="crispEdges"/><rect fill="#2d3740" x="134.2" y="172.3" width="48.8" height="24.65" shape-rendering="crispEdges"/><rect fill="#2d3740" x="183" y="172.3" width="414.8" height="24.65" shape-rendering="crispEdges"/><rect fill="#2d3740" x="597.8" y="172.3" width="12.2" height="24.65" shape-rendering="crispEdges"/><rect fill="#2d3740" x="610" y="172.3" width="12.2" height="24.65" shape-rendering="crispEdges"/><rect fill="#2d3740" x="622.2" y="172.3" width="207.4" height="24.65" shape-rendering="crispEdges"/><rect fill="#2d3740" x="829.6" y="172.3" width="256.2" height="24.65" shape-rendering="crispEdges"/><rect fill="#2d3740" x="1085.8" y="172.3" width="12.2" height="24.65" shape-rendering="crispEdges"/><rect fill="#121212" x="0" y="196.7" width="12.2" height="24.65" shape-rendering="crispEdges"/><rect fill="#121212" x="12.2" y="196.7" width="109.8" height="24.65" shape-rendering="crispEdges"/><rect fill="#2d3740" x="122" y="196.7" width="12.2" height="24.65" shape-rendering="crispEdges"/><rect fill="#2d3740" x="134.2" y="196.7" width="122" height="24.65" shape-rendering="crispEdges"/><rect fill="#2d3740" x="256.2" y="196.7" width="341.6" height="24.65" shape-rendering="crispEdges"/><rect fill="#2d3740" x="597.8" y="196.7" width="12.2" height="24.65" shape-rendering="crispEdges"/><rect fill="#2d3740" x="610" y="196.7" width="12.2" height="24.65" shape-rendering="crispEdges"/><rect fill="#2d3740" x="622.2" y="196.7" width="134.2" height="24.65" shape-rendering="crispEdges"/><rect fill="#2d3740" x="756.4" y="196.7" width="329.4" height="24.65" shape-rendering="crispEdges"/><rect fill="#2d3740" x="1085.8" y="196.7" width="12.2" height="24.65" shape-rendering="crispEdges"/><rect fill="#121212" x="0" y="221.1" width="12.2" height="24.65" shape-rendering="crispEdges"/><rect fill="#121212" x="12.2" y="221.1" width="109.8" height="24.65" shape-rendering="crispEdges"/><rect fill="#2d3740" x="122" y="221.1" width="12.2" height="24.65" shape-rendering="crispEdges"/><rect fill="#2d3740" x="134.2" y="221.1" width="439.2" height="24.65" shape-rendering="crispEdges"/><rect fill="#2d3740" x="573.4" y="221.1" width="24.4" height="24.65" shape-rendering="crispEdges"/><rect fill="#2d3740" x="597.8" y="221.1" width="12.2" height="24.65" shape-rendering="crispEdges"/><rect fill="#2d3740" x="610" y="221.1" width="12.2" height="24.65" shape-rendering="crispEdges"/><rect fill="#2d3740" x="622.2" y="221.1" width="280.6" height="24.65" shape-rendering="crispEdges"/><rect fill="#2d3740" x="902.8" y="221.1" width="183" height="24.65" shape-rendering="crispEdges"/><rect fill="#2d3740" x="1085.8" y="221.1" width="12.2" height="24.65" shape-rendering="crispEdges"/><rect fill="#121212" x="0" y="245.5" width="12.2" height="24.65" shape-rendering="crispEdges"/><rect fill="#121212" x="12.2" y="245.5" width="109.8" height="24.65" shape-rendering="crispEdges"/><rect fill="#2d3740" x="122" y="245.5" width="12.2" height="24.65" shape-rendering="crispEdges"/><rect fill="#2d3740" x="134.2" y="245.5" width="158.6" height="24.65" shape-rendering="crispEdges"/><rect fill="#2d3740" x="292.8" y="245.5" width="305" height="24.65" shape-rendering="crispEdges"/><rect fill="#2d3740" x="597.8" y="245.5" width="12.2" height="24.65" shape-rendering="crispEdges"/><rect fill="#2d3740" x="610" y="245.5" width="12.2" height="24.65" shape-rendering="crispEdges"/><rect fill="#2d3740" x="622.2" y="245.5" width="256.2" height="24.65" shape-rendering="crispEdges"/><rect fill="#2d3740" x="878.4" y="245.5" width="207.4" height="24.65" shape-rendering="crispEdges"/><rect fill="#2d3740" x="1085.8" y="245.5" width="12.2" height="24.65" shape-rendering="crispEdges"/><rect fill="#121212" x="0" y="269.9" width="12.2" height="24.65" shape-rendering="crispEdges"/><rect fill="#121212" x="12.2" y="269.9" width="109.8" height="24.65" shape-rendering="crispEdges"/><rect fill="#2d3740" x="122" y="269.9" width="12.2" height="24.65" shape-rendering="crispEdges"/><rect fill="#2d3740" x="134.2" y="269.9" width="109.8" height="24.65" shape-rendering="crispEdges"/><rect fill="#2d3740" x="244" y="269.9" width="353.8" height="24.65" shape-rendering="crispEdges"/><rect fill="#2d3740" x="597.8" y="269.9" width="12.2" height="24.65" shape-rendering="crispEdges"/><rect fill="#2d3740" x="610" y="269.9" width="12.2" height="24.65" shape-rendering="crispEdges"/><rect fill="#2d3740" x="622.2" y="269.9" width="463.6" height="24.65" shape-rendering="crispEdges"/><rect fill="#2d3740" x="1085.8" y="269.9" width="12.2" height="24.65" shape-rendering="crispEdges"/><rect fill="#121212" x="0" y="294.3" width="12.2" height="24.65" shape-rendering="crispEdges"/><rect fill="#121212" x="12.2" y="294.3" width="109.8" height="24.65" shape-rendering="crispEdges"/><rect fill="#2d3740" x="122" y="294.3" width="12.2" height="24.65" shape-rendering="crispEdges"/><rect fill="#2d3740" x="134.2" y="294.3" width="85.4" height="24.65" shape-rendering="crispEdges"/><rect fill="#2d3740" x="219.6" y="294.3" width="378.2" height="24.65" shape-rendering="crispEdges"/><rect fill="#2d3740" x="597.8" y="294.3" width="12.2" height="24.65" shape-rendering="crispEdges"/><rect fill="#2d3740" x="610" y="294.3" width="12.2" height="24.65" shape-rendering="crispEdges"/><rect fill="#2d3740" x="622.2" y="294.3" width="170.8" height="24.65" shape-rendering="crispEdges"/><rect fill="#2d3740" x="793" y="294.3" width="292.8" height="24.65" shape-rendering="crispEdges"/><rect fill="#2d3740" x="1085.8" y="294.3" width="12.2" height="24.65" shape-rendering="crispEdges"/><rect fill="#121212" x="0" y="318.7" width="12.2" height="24.65" shape-rendering="crispEdges"/><rect fill="#121212" x="12.2" y="318.7" width="109.8" height="24.65" shape-rendering="crispEdges"/><rect fill="#2d3740" x="122" y="318.7" width="12.2" height="24.65" shape-rendering="crispEdges"/><rect fill="#2d3740" x="134.2" y="318.7" width="244" height="24.65" shape-rendering="crispEdges"/><rect fill="#2d3740" x="378.2" y="318.7" width="219.6" height="24.65" shape-rendering="crispEdges"/><rect fill="#2d3740" x="597.8" y="318.7" width="12.2" height="24.65" shape-rendering="crispEdges"/><rect fill="#2d3740" x="610" y="318.7" width="12.2" height="24.65" shape-rendering="crispEdges"/><rect fill="#2d3740" x="622.2" y="318.7" width="134.2" height="24.65" shape-rendering="crispEdges"/><rect fill="#2d3740" x="756.4" y="318.7" width="329.4" height="24.65" shape-rendering="crispEdges"/><rect fill="#2d3740" x="1085.8" y="318.7" width="12.2" height="24.65" shape-rendering="crispEdges"/><rect fill="#121212" x="0" y="343.1" width="12.2" height="24.65" shape-rendering="crispEdges"/><rect fill="#121212" x="12.2" y="343.1" width="109.8" height="24.65" shape-rendering="crispEdges"/><rect fill="#2d3740" x="122" y="343.1" width="12.2" height="24.65" shape-rendering="crispEdges"/><rect fill="#2d3740" x="134.2" y="343.1" width="231.8" height="24.65" shape-rendering="crispEdges"/><rect fill="#2d3740" x="366" y="343.1" width="231.8" height="24.65" shape-rendering="crispEdges"/><rect fill="#2d3740" x="597.8" y="343.1" width="12.2" height="24.65" shape-rendering="crispEdges"/><rect fill="#2d3740" x="610" y="343.1" width="12.2" height="24.65" shape-rendering="crispEdges"/><rect fill="#2d3740" x="622.2" y="343.1" width="463.6" height="24.65" shape-rendering="crispEdges"/><rect fill="#2d3740" x="1085.8" y="343.1" width="12.2" height="24.65" shape-rendering="crispEdges"/><rect fill="#121212" x="0" y="367.5" width="12.2" height="24.65" shape-rendering="crispEdges"/><rect fill="#121212" x="12.2" y="367.5" width="109.8" height="24.65" shape-rendering="crispEdges"/><rect fill="#2d3740" x="122" y="367.5" width="12.2" height="24.65" shape-rendering="crispEdges"/><rect fill="#2d3740" x="134.2" y="367.5" width="305" height="24.65" shape-rendering="crispEdges"/><rect fill="#2d3740" x="439.2" y="367.5" width="158.6" height="24.65" shape-rendering="crispEdges"/><rect fill="#2d3740" x="597.8" y="367.5" width="12.2" height="24.65" shape-rendering="crispEdges"/><rect fill="#121212" x="610" y="367.5" width="475.8" height="24.65" shape-rendering="crispEdges"/><rect fill="#121212" x="1085.8" y="367.5" width="12.2" height="24.65" shape-rendering="crispEdges"/><rect fill="#121212" x="0" y="391.9" width="12.2" height="24.65" shape-rendering="crispEdges"/><rect fill="#121212" x="12.2" y="391.9" width="109.8" height="24.65" shape-rendering="crispEdges"/><rect fill="#2d3740" x="122" y="391.9" width="12.2" height="24.65" shape-rendering="crispEdges"/><rect fill="#2d3740" x="134.2" y="391.9" width="463.6" height="24.65" shape-rendering="crispEdges"/><rect fill="#2d3740" x="597.8" y="391.9" width="12.2" height="24.65" shape-rendering="crispEdges"/><rect fill="#121212" x="610" y="391.9" width="475.8" height="24.65" shape-rendering="crispEdges"/><rect fill="#121212" x="1085.8" y="391.9" width="12.2" height="24.65" shape-rendering="crispEdges"/><rect fill="#121212" x="0" y="416.3" width="12.2" height="24.65" shape-rendering="crispEdges"/><rect fill="#121212" x="12.2" y="416.3" width="109.8" height="24.65" shape-rendering="crispEdges"/><rect fill="#2d3740" x="122" y="416.3" width="12.2" height="24.65" shape-rendering="crispEdges"/><rect fill="#2d3740" x="134.2" y="416.3" width="439.2" height="24.65" shape-rendering="crispEdges"/><rect fill="#2d3740" x="573.4" y="416.3" width="24.4" height="24.65" shape-rendering="crispEdges"/><rect fill="#2d3740" x="597.8" y="416.3" width="12.2" height="24.65" shape-rendering="crispEdges"/><rect fill="#121212" x="610" y="416.3" width="475.8" height="24.65" shape-rendering="crispEdges"/><rect fill="#121212" x="1085.8" y="416.3" width="12.2" height="24.65" shape-rendering="crispEdges"/><rect fill="#121212" x="0" y="440.7" width="12.2" height="24.65" shape-rendering="crispEdges"/><rect fill="#121212" x="12.2" y="440.7" width="109.8" height="24.65" shape-rendering="crispEdges"/><rect fill="#2d3740" x="122" y="440.7" width="12.2" height="24.65" shape-rendering="crispEdges"/><rect fill="#2d3740" x="134.2" y="440.7" width="305" height="24.65" shape-rendering="crispEdges"/><rect fill="#2d3740" x="439.2" y="440.7" width="158.6" height="24.65" shape-rendering="crispEdges"/><rect fill="#2d3740" x="597.8" y="440.7" width="12.2" height="24.65" shape-rendering="crispEdges"/><rect fill="#121212" x="610" y="440.7" width="475.8" height="24.65" shape-rendering="crispEdges"/><rect fill="#121212" x="1085.8" y="440.7" width="12.2" height="24.65" shape-rendering="crispEdges"/><rect fill="#121212" x="0" y="465.1" width="12.2" height="24.65" shape-rendering="crispEdges"/><rect fill="#121212" x="12.2" y="465.1" width="109.8" height="24.65" shape-rendering="crispEdges"/><rect fill="#2d3740" x="122" y="465.1" width="12.2" height="24.65" shape-rendering="crispEdges"/><rect fill="#2d3740" x="134.2" y="465.1" width="329.4" height="24.65" shape-rendering="crispEdges"/><rect fill="#2d3740" x="463.6" y="465.1" width="134.2" height="24.65" shape-rendering="crispEdges"/><rect fill="#2d3740" x="597.8" y="465.1" width="12.2" height="24.65" shape-rendering="crispEdges"/><rect fill="#121212" x="610" y="465.1" width="475.8" height="24.65" shape-rendering="crispEdges"/><rect fill="#121212" x="1085.8" y="465.1" width="12.2" height="24.65" shape-rendering="crispEdges"/><rect fill="#121212" x="0" y="489.5" width="12.2" height="24.65" shape-rendering="crispEdges"/><rect fill="#121212" x="12.2" y="489.5" width="109.8" height="24.65" shape-rendering="crispEdges"/><rect fill="#2d3740" x="122" y="489.5" width="12.2" height="24.65" shape-rendering="crispEdges"/><rect fill="#2d3740" x="134.2" y="489.5" width="463.6" height="24.65" shape-rendering="crispEdges"/><rect fill="#2d3740" x="597.8" y="489.5" width="12.2" height="24.65" shape-rendering="crispEdges"/><rect fill="#121212" x="610" y="489.5" width="475.8" height="24.65" shape-rendering="crispEdges"/><rect fill="#121212" x="1085.8" y="489.5" width="12.2" height="24.65" shape-rendering="crispEdges"/><rect fill="#121212" x="0" y="513.9" width="12.2" height="24.65" shape-rendering="crispEdges"/><rect fill="#121212" x="12.2" y="513.9" width="1073.6" height="24.65" shape-rendering="crispEdges"/><rect fill="#121212" x="1085.8" y="513.9" width="12.2" height="24.65" shape-rendering="crispEdges"/><rect fill="#121212" x="0" y="538.3" width="12.2" height="24.65" shape-rendering="crispEdges"/><rect fill="#121212" x="12.2" y="538.3" width="1073.6" height="24.65" shape-rendering="crispEdges"/><rect fill="#121212" x="1085.8" y="538.3" width="12.2" height="24.65" shape-rendering="crispEdges"/><rect fill="#121212" x="0" y="562.7" width="12.2" height="24.65" shape-rendering="crispEdges"/><rect fill="#121212" x="12.2" y="562.7" width="1073.6" height="24.65" shape-rendering="crispEdges"/><rect fill="#121212" x="1085.8" y="562.7" width="12.2" height="24.65" shape-rendering="crispEdges"/><rect fill="#121212" x="0" y="587.1" width="1098" height="24.65" shape-rendering="crispEdges"/><rect fill="#121212" x="0" y="611.5" width="12.2" height="24.65" shape-rendering="crispEdges"/><rect fill="#121212" x="12.2" y="611.5" width="683.2" height="24.65" shape-rendering="crispEdges"/><rect fill="#121212" x="695.4" y="611.5" width="12.2" height="24.65" shape-rendering="crispEdges"/><rect fill="#121212" x="707.6" y="611.5" width="170.8" height="24.65" shape-rendering="crispEdges"/><rect fill="#121212" x="878.4" y="611.5" width="12.2" height="24.65" shape-rendering="crispEdges"/><rect fill="#121212" x="890.6" y="611.5" width="61" height="24.65" shape-rendering="crispEdges"/><rect fill="#121212" x="951.6" y="611.5" width="12.2" height="24.65" shape-rendering="crispEdges"/><rect fill="#121212" x="963.8" y="611.5" width="122" height="24.65" shape-rendering="crispEdges"/><rect fill="#121212" x="1085.8" y="611.5" width="12.2" height="24.65" shape-rendering="crispEdges"/>
    <g class="terminal-3531316682-matrix">
    <text class="terminal-3531316682-r2" x="12.2" y="20" textLength="85.4" clip-path="url(#terminal-3531316682-line-0)">&#160;1:win&#160;</text><text class="terminal-3531316682-r3" x="122" y="20" textLength="36.6" clip-path="url(#terminal-3531316682-line-0)">[+]</text><text class="terminal-3531316682-r4" x="1098" y="20" textLength="12.2" clip-path="url(#terminal-3531316682-line-0)">
</text><text class="terminal-3531316682-r5" x="0" y="44.4" textLength="12.2" clip-path="url(#terminal-3531316682-line-1)">┌</text><text class="terminal-3531316682-r5" x="12.2" y="44.4" textLength="85.4" clip-path="url(#terminal-3531316682-line-1)">▀▀▀▀▀▀▀</text><text class="terminal-3531316682-r5" x="97.6" y="44.4" textLength="951.6" clip-path="url(#terminal-3531316682-line-1)">──────────────────────────────────────────────────────────────────────────────</text><text class="terminal-3531316682-r6" x="1049.2" y="44.4" textLength="36.6" clip-path="url(#terminal-3531316682-line-1)">[x]</text><text class="terminal-3531316682-r5" x="1085.8" y="44.4" textLength="12.2" clip-path="url(#terminal-3531316682-line-1)">┐</text><text class="terminal-3531316682-r4" x="1098" y="44.4" textLength="12.2" clip-path="url(#terminal-3531316682-line-1)">
</text><text class="terminal-3531316682-r5" x="0" y="68.8" textLength="12.2" clip-path="url(#terminal-3531316682-line-2)">│</text><text class="terminal-3531316682-r7" x="12.2" y="68.8" textLength="353.8" clip-path="url(#terminal-3531316682-line-2)">neoocean@playground&#160;pytmux&#160;%&#160;</text><text class="terminal-3531316682-r8" x="1049.2" y="68.8" textLength="48.8" clip-path="url(#terminal-3531316682-line-2)">[EN]</text><text class="terminal-3531316682-r4" x="1098" y="68.8" textLength="12.2" clip-path="url(#terminal-3531316682-line-2)">
</text><text class="terminal-3531316682-r5" x="0" y="93.2" textLength="12.2" clip-path="url(#terminal-3531316682-line-3)">│</text><text class="terminal-3531316682-r5" x="1085.8" y="93.2" textLength="12.2" clip-path="url(#terminal-3531316682-line-3)">│</text><text class="terminal-3531316682-r4" x="1098" y="93.2" textLength="12.2" clip-path="url(#terminal-3531316682-line-3)">
</text><text class="terminal-3531316682-r5" x="0" y="117.6" textLength="12.2" clip-path="url(#terminal-3531316682-line-4)">│</text><text class="terminal-3531316682-r9" x="122" y="117.6" textLength="12.2" clip-path="url(#terminal-3531316682-line-4)">╭</text><text class="terminal-3531316682-r9" x="134.2" y="117.6" textLength="463.6" clip-path="url(#terminal-3531316682-line-4)">──────────────────────────────────────</text><text class="terminal-3531316682-r9" x="597.8" y="117.6" textLength="12.2" clip-path="url(#terminal-3531316682-line-4)">╮</text><text class="terminal-3531316682-r9" x="610" y="117.6" textLength="12.2" clip-path="url(#terminal-3531316682-line-4)">╭</text><text class="terminal-3531316682-r9" x="622.2" y="117.6" textLength="12.2" clip-path="url(#terminal-3531316682-line-4)">─</text><text class="terminal-3531316682-r9" x="634.4" y="117.6" textLength="12.2" clip-path="url(#terminal-3531316682-line-4)">&#160;</text><g clip-path="url(#terminal-3531316682-line-4)"><path fill="#fea62b" transform="translate(646.6 117.6) scale(0.0282081 -0.02)" d="M777 -70V804H703V448H597V783H523V-25H597V385H703V-70ZM478 174C477 194 476 214 473 234C443 230 404 226 362 223C373 340 384 460 394 577L318 585C309 464 302 338 294 218C286 217 278 217 271 217C248 216 227 214 204 214C197 337 188 462 181 583L105 574C114 455 123 332 133 213H26L38 145C112 146 194 150 275 154C353 159 432 166 478 174ZM451 630V694H42V630Z"/><path fill="#fea62b" transform="translate(671 117.6) scale(0.0282081 -0.02)" d="M752 351V804H676V652H409V589H676V351ZM785 -63V0H261V94H753V305H184V242H677V154H185V-63ZM545 485C446 464 279 446 162 448V755H86V383H151C266 383 462 401 555 421Z"/></g><text class="terminal-3531316682-r9" x="695.4" y="117.6" textLength="12.2" clip-path="url(#terminal-3531316682-line-4)">&#160;</text><text class="terminal-3531316682-r9" x="707.6" y="117.6" textLength="378.2" clip-path="url(#terminal-3531316682-line-4)">───────────────────────────────</text><text class="terminal-3531316682-r9" x="1085.8" y="117.6" textLength="12.2" clip-path="url(#terminal-3531316682-line-4)">╮</text><text class="terminal-3531316682-r4" x="1098" y="117.6" textLength="12.2" clip-path="url(#terminal-3531316682-line-4)">
</text><text class="terminal-3531316682-r5" x="0" y="142" textLength="12.2" clip-path="url(#terminal-3531316682-line-5)">│</text><text class="terminal-3531316682-r9" x="122" y="142" textLength="12.2" clip-path="url(#terminal-3531316682-line-5)">│</text><g clip-path="url(#terminal-3531316682-line-5)"><path fill="#ddedf9" transform="translate(134.2 142) scale(0.0282081 -0.02)" d="M788 -79V812H677V466H609V796H499V-38H609V371H677V-79ZM467 152 459 243C436 239 410 235 380 232L405 555C368 558 333 562 296 566C290 452 285 338 280 226L213 223C210 338 205 453 201 569C164 564 126 558 88 554L109 220C73 219 40 219 14 219C20 186 24 155 30 122C149 122 356 134 467 152ZM447 617V709H34V617Z"/><path fill="#ddedf9" transform="translate(158.6 142) scale(0.0282081 -0.02)" d="M793 -70V23H299V81H766V317H176V225H650V166H181V-70ZM549 417 532 511C424 488 313 478 189 478V774H72V379H162C271 379 434 389 549 417ZM766 359V812H649V676H431V580H649V359Z"/></g><text class="terminal-3531316682-r10" x="183" y="142" textLength="24.4" clip-path="url(#terminal-3531316682-line-5)">&#160;▸</text><text class="terminal-3531316682-r9" x="597.8" y="142" textLength="12.2" clip-path="url(#terminal-3531316682-line-5)">│</text><text class="terminal-3531316682-r9" x="610" y="142" textLength="12.2" clip-path="url(#terminal-3531316682-line-5)">│</text><g clip-path="url(#terminal-3531316682-line-5)"><path fill="#ddedf9" transform="translate(622.2 142) scale(0.0282081 -0.02)" d="M788 -79V812H677V466H609V796H499V-38H609V371H677V-79ZM467 152 459 243C436 239 410 235 380 232L405 555C368 558 333 562 296 566C290 452 285 338 280 226L213 223C210 338 205 453 201 569C164 564 126 558 88 554L109 220C73 219 40 219 14 219C20 186 24 155 30 122C149 122 356 134 467 152ZM447 617V709H34V617Z"/><path fill="#ddedf9" transform="translate(646.6 142) scale(0.0282081 -0.02)" d="M793 -70V23H299V81H766V317H176V225H650V166H181V-70ZM549 417 532 511C424 488 313 478 189 478V774H72V379H162C271 379 434 389 549 417ZM766 359V812H649V676H431V580H649V359Z"/></g><text class="terminal-3531316682-r10" x="671" y="142" textLength="12.2" clip-path="url(#terminal-3531316682-line-5)">&#160;</text><g clip-path="url(#terminal-3531316682-line-5)"><path fill="#ddedf9" transform="translate(683.2 142) scale(0.0282081 -0.02)" d="M732 422V777H616V684H250V776H133V422ZM499 116V262H835V354H30V262H382V116ZM741 -55V37H250V195H133V-55ZM616 515H250V593H616Z"/><path fill="#ddedf9" transform="translate(707.6 142) scale(0.0282081 -0.02)" d="M540 593V683H23V593ZM158 720H422V808H158ZM852 483V579H727V812H610V306H727V483ZM749 -77V11H257V55H727V263H139V176H609V134H140V-77ZM501 432C501 514 411 571 290 571C166 571 76 514 76 432C76 349 167 293 290 293C411 293 501 349 501 432ZM192 432C192 464 236 486 290 486C341 486 386 464 386 432C386 398 341 377 290 377C237 377 192 398 192 432Z"/></g><text class="terminal-3531316682-r10" x="732" y="142" textLength="48.8" clip-path="url(#terminal-3531316682-line-5)">&#160;│&#160;(</text><g clip-path="url(#terminal-3531316682-line-5)"><path fill="#ddedf9" transform="translate(780.8 142) scale(0.0282081 -0.02)" d="M564 423C458 458 364 529 360 641H545V733H60V641H241C238 523 149 440 24 400L83 308C180 341 273 417 303 495C338 420 435 357 509 334ZM736 812H620V-79H736V360H849V457H736ZM580 117 568 206C509 198 444 192 362 187V360H244V182C165 179 88 179 8 179L23 84C92 84 170 86 260 90C364 94 495 103 580 117Z"/><path fill="#ddedf9" transform="translate(805.2 142) scale(0.0282081 -0.02)" d="M748 576C748 693 625 773 431 773C239 773 115 693 115 576C115 458 239 379 431 379C625 379 748 458 748 576ZM489 -80V216H835V310H30V216H372V-80ZM626 576C626 517 551 472 431 472C310 472 236 517 236 576C236 635 310 680 431 680C551 680 626 635 626 576Z"/></g><text class="terminal-3531316682-r10" x="829.6" y="142" textLength="12.2" clip-path="url(#terminal-3531316682-line-5)">)</text><text class="terminal-3531316682-r9" x="1085.8" y="142" textLength="12.2" clip-path="url(#terminal-3531316682-line-5)">│</text><text class="terminal-3531316682-r4" x="1098" y="142" textLength="12.2" clip-path="url(#terminal-3531316682-line-5)">
</text><text class="terminal-3531316682-r5" x="0" y="166.4" textLength="12.2" clip-path="url(#terminal-3531316682-line-6)">│</text><text class="terminal-3531316682-r9" x="122" y="166.4" textLength="12.2" clip-path="url(#terminal-3531316682-line-6)">│</text><g clip-path="url(#terminal-3531316682-line-6)"><path fill="#e0e0e0" transform="translate(134.2 166.4) scale(0.0282081 -0.02)" d="M778 -70V804H704V-70ZM610 -25V783H536V464H423V401H536V-25ZM436 232C339 213 217 209 138 209V408H383V707H60V644H306V471H62V144H137C255 144 361 151 446 168Z"/><path fill="#e0e0e0" transform="translate(158.6 166.4) scale(0.0282081 -0.02)" d="M757 -70V804H681V-70ZM67 430C67 244 149 120 292 120C437 120 518 244 518 429C518 614 437 738 292 738C149 738 67 614 67 430ZM446 429C446 286 385 186 292 186C200 186 139 286 139 429C139 573 200 672 292 672C385 672 446 573 446 429Z"/><path fill="#e0e0e0" transform="translate(183 166.4) scale(0.0282081 -0.02)" d="M853 388V452H710V804H634V-70H710V388ZM50 430C50 244 132 120 274 120C416 120 497 244 497 429C497 614 416 738 274 738C132 738 50 614 50 430ZM423 429C423 286 365 186 274 186C183 186 124 286 124 429C124 573 183 672 274 672C365 672 423 573 423 429Z"/><path fill="#e0e0e0" transform="translate(207.4 166.4) scale(0.0282081 -0.02)" d="M731 628C731 730 619 789 432 789C245 789 133 730 133 628C133 526 245 468 432 468C619 468 731 526 731 628ZM653 629C653 561 566 529 432 529C298 529 211 561 211 629C211 695 298 727 432 727C567 727 653 695 653 629ZM469 242V344H827V408H38V344H393V242ZM778 -6C633 3 471 84 471 184V206H393V184C393 84 243 4 88 -5L124 -70C252 -58 391 18 431 88C472 19 616 -60 742 -73Z"/></g><text class="terminal-3531316682-r11" x="231.8" y="166.4" textLength="24.4" clip-path="url(#terminal-3531316682-line-6)">&#160;▸</text><text class="terminal-3531316682-r9" x="597.8" y="166.4" textLength="12.2" clip-path="url(#terminal-3531316682-line-6)">│</text><text class="terminal-3531316682-r9" x="610" y="166.4" textLength="12.2" clip-path="url(#terminal-3531316682-line-6)">│</text><g clip-path="url(#terminal-3531316682-line-6)"><path fill="#e0e0e0" transform="translate(622.2 166.4) scale(0.0282081 -0.02)" d="M777 -70V804H703V448H597V783H523V-25H597V385H703V-70ZM478 174C477 194 476 214 473 234C443 230 404 226 362 223C373 340 384 460 394 577L318 585C309 464 302 338 294 218C286 217 278 217 271 217C248 216 227 214 204 214C197 337 188 462 181 583L105 574C114 455 123 332 133 213H26L38 145C112 146 194 150 275 154C353 159 432 166 478 174ZM451 630V694H42V630Z"/><path fill="#e0e0e0" transform="translate(646.6 166.4) scale(0.0282081 -0.02)" d="M752 351V804H676V652H409V589H676V351ZM785 -63V0H261V94H753V305H184V242H677V154H185V-63ZM545 485C446 464 279 446 162 448V755H86V383H151C266 383 462 401 555 421Z"/></g><text class="terminal-3531316682-r11" x="671" y="166.4" textLength="12.2" clip-path="url(#terminal-3531316682-line-6)">&#160;</text><g clip-path="url(#terminal-3531316682-line-6)"><path fill="#e0e0e0" transform="translate(683.2 166.4) scale(0.0282081 -0.02)" d="M727 442V776H650V668H213V776H137V442ZM469 113V281H827V344H38V281H393V113ZM739 -42V21H214V195H138V-42ZM650 506H213V605H650Z"/><path fill="#e0e0e0" transform="translate(707.6 166.4) scale(0.0282081 -0.02)" d="M843 509V573H710V804H634V307H710V509ZM743 -65V-6H236V74H710V262H156V204H634V130H160V-65ZM416 725V789H164V725ZM547 607V669H34V607ZM496 441C496 526 407 573 290 573C174 573 85 526 85 441C85 355 176 308 290 308C410 308 496 355 496 441ZM423 441C423 392 359 367 290 367C222 367 158 392 158 441C158 490 221 514 290 514C359 514 423 490 423 441Z"/></g><text class="terminal-3531316682-r11" x="732" y="166.4" textLength="48.8" clip-path="url(#terminal-3531316682-line-6)">&#160;─&#160;(</text><g clip-path="url(#terminal-3531316682-line-6)"><path fill="#e0e0e0" transform="translate(780.8 166.4) scale(0.0282081 -0.02)" d="M532 401C433 435 318 542 318 681V762H241V678C241 539 147 429 22 370L64 311C166 364 255 451 282 544C317 456 403 381 487 340ZM722 98C722 202 612 266 428 266C245 266 136 202 136 98C136 -6 245 -69 428 -69C612 -69 722 -6 722 98ZM428 203C561 203 644 165 644 98C644 31 561 -6 428 -6C296 -6 214 31 214 98C214 165 296 203 428 203ZM843 503V567H710V804H634V265H710V503Z"/><path fill="#e0e0e0" transform="translate(805.2 166.4) scale(0.0282081 -0.02)" d="M852 371V435H710V804H634V-70H710V371ZM421 679V744H164V679ZM550 531V594H34V531ZM498 294C498 397 416 475 294 475C172 475 90 396 90 294C90 192 172 114 294 114C416 114 498 193 498 294ZM422 294C422 226 369 177 294 177C221 177 166 226 166 294C166 363 221 411 294 411C368 411 422 363 422 294Z"/></g><text class="terminal-3531316682-r11" x="829.6" y="166.4" textLength="12.2" clip-path="url(#terminal-3531316682-line-6)">)</text><text class="terminal-3531316682-r9" x="1085.8" y="166.4" textLength="12.2" clip-path="url(#terminal-3531316682-line-6)">│</text><text class="terminal-3531316682-r4" x="1098" y="166.4" textLength="12.2" clip-path="url(#terminal-3531316682-line-6)">
</text><text class="terminal-3531316682-r5" x="0" y="190.8" textLength="12.2" clip-path="url(#terminal-3531316682-line-7)">│</text><text class="terminal-3531316682-r9" x="122" y="190.8" textLength="12.2" clip-path="url(#terminal-3531316682-line-7)">│</text><g clip-path="url(#terminal-3531316682-line-7)"><path fill="#e0e0e0" transform="translate(134.2 190.8) scale(0.0282081 -0.02)" d="M775 -58V277H698V171H276V276H200V-58ZM775 322V804H699V592H590V788H516V330H590V529H699V322ZM698 5H276V110H698ZM154 413V524H403V585H154V685H417V748H79V348H135C255 348 373 355 459 372L448 435C380 420 279 413 179 413Z"/></g><text class="terminal-3531316682-r11" x="158.6" y="190.8" textLength="24.4" clip-path="url(#terminal-3531316682-line-7)">&#160;▸</text><text class="terminal-3531316682-r9" x="597.8" y="190.8" textLength="12.2" clip-path="url(#terminal-3531316682-line-7)">│</text><text class="terminal-3531316682-r9" x="610" y="190.8" textLength="12.2" clip-path="url(#terminal-3531316682-line-7)">│</text><g clip-path="url(#terminal-3531316682-line-7)"><path fill="#e0e0e0" transform="translate(622.2 190.8) scale(0.0282081 -0.02)" d="M777 -70V804H703V448H597V783H523V-25H597V385H703V-70ZM478 174C477 194 476 214 473 234C443 230 404 226 362 223C373 340 384 460 394 577L318 585C309 464 302 338 294 218C286 217 278 217 271 217C248 216 227 214 204 214C197 337 188 462 181 583L105 574C114 455 123 332 133 213H26L38 145C112 146 194 150 275 154C353 159 432 166 478 174ZM451 630V694H42V630Z"/><path fill="#e0e0e0" transform="translate(646.6 190.8) scale(0.0282081 -0.02)" d="M752 351V804H676V652H409V589H676V351ZM785 -63V0H261V94H753V305H184V242H677V154H185V-63ZM545 485C446 464 279 446 162 448V755H86V383H151C266 383 462 401 555 421Z"/></g><text class="terminal-3531316682-r11" x="671" y="190.8" textLength="12.2" clip-path="url(#terminal-3531316682-line-7)">&#160;</text><g clip-path="url(#terminal-3531316682-line-7)"><path fill="#e0e0e0" transform="translate(683.2 190.8) scale(0.0282081 -0.02)" d="M731 -58V228H470V332H827V396H38V332H394V228H133V-58ZM788 517C665 528 499 599 476 706H755V769H110V706H391C368 600 217 529 79 516L114 452C268 475 398 553 432 634C476 554 607 477 753 453ZM655 5H210V165H655Z"/></g><text class="terminal-3531316682-r11" x="707.6" y="190.8" textLength="12.2" clip-path="url(#terminal-3531316682-line-7)">&#160;</text><g clip-path="url(#terminal-3531316682-line-7)"><path fill="#e0e0e0" transform="translate(719.8 190.8) scale(0.0282081 -0.02)" d="M704 473V537H207V666H730V730H131V276H393V105H38V41H827V105H469V276H740V339H207V473Z"/><path fill="#e0e0e0" transform="translate(744.2 190.8) scale(0.0282081 -0.02)" d="M762 -58V3H208V103H728V314H125V253H652V159H132V-58ZM729 757H134V694H651C651 609 643 538 626 474H38V412H827V474H702C720 554 729 640 729 757Z"/></g><text class="terminal-3531316682-r11" x="768.6" y="190.8" textLength="61" clip-path="url(#terminal-3531316682-line-7)">&#160;⛶&#160;&#160;○</text><text class="terminal-3531316682-r9" x="1085.8" y="190.8" textLength="12.2" clip-path="url(#terminal-3531316682-line-7)">│</text><text class="terminal-3531316682-r4" x="1098" y="190.8" textLength="12.2" clip-path="url(#terminal-3531316682-line-7)">
</text><text class="terminal-3531316682-r5" x="0" y="215.2" textLength="12.2" clip-path="url(#terminal-3531316682-line-8)">│</text><text class="terminal-3531316682-r9" x="122" y="215.2" textLength="12.2" clip-path="url(#terminal-3531316682-line-8)">│</text><g clip-path="url(#terminal-3531316682-line-8)"><path fill="#e0e0e0" transform="translate(134.2 215.2) scale(0.0282081 -0.02)" d="M763 -62V1H211V84H730V276H131V214H654V141H134V-62ZM749 472V535H610L634 665L555 675L537 535H324L309 673L230 663L252 535H113V472ZM827 343V407H38V343ZM749 707V770H112V707Z"/><path fill="#e0e0e0" transform="translate(158.6 215.2) scale(0.0282081 -0.02)" d="M751 -70V804H675V463H518V398H675V-70ZM534 229C425 210 258 202 144 202V414H466V721H68V658H390V478H68V137H131C261 137 452 150 542 166Z"/><path fill="#e0e0e0" transform="translate(183 215.2) scale(0.0282081 -0.02)" d="M827 59V123H38V59ZM714 706H120V643H636C636 500 623 310 599 199L675 189C702 323 714 505 714 706Z"/><path fill="#e0e0e0" transform="translate(207.4 215.2) scale(0.0282081 -0.02)" d="M752 166V804H676V166ZM774 -41V22H258V229H182V-41ZM292 746C160 746 57 657 57 527C57 397 160 311 293 311C426 311 528 398 528 528C528 658 425 746 292 746ZM292 680C389 680 456 617 456 527C456 440 389 378 293 378C201 378 130 440 130 528C130 617 200 680 292 680Z"/></g><text class="terminal-3531316682-r11" x="231.8" y="215.2" textLength="24.4" clip-path="url(#terminal-3531316682-line-8)">&#160;▸</text><text class="terminal-3531316682-r9" x="597.8" y="215.2" textLength="12.2" clip-path="url(#terminal-3531316682-line-8)">│</text><text class="terminal-3531316682-r9" x="610" y="215.2" textLength="12.2" clip-path="url(#terminal-3531316682-line-8)">│</text><g clip-path="url(#terminal-3531316682-line-8)"><path fill="#e0e0e0" transform="translate(622.2 215.2) scale(0.0282081 -0.02)" d="M777 -70V804H703V448H597V783H523V-25H597V385H703V-70ZM478 174C477 194 476 214 473 234C443 230 404 226 362 223C373 340 384 460 394 577L318 585C309 464 302 338 294 218C286 217 278 217 271 217C248 216 227 214 204 214C197 337 188 462 181 583L105 574C114 455 123 332 133 213H26L38 145C112 146 194 150 275 154C353 159 432 166 478 174ZM451 630V694H42V630Z"/><path fill="#e0e0e0" transform="translate(646.6 215.2) scale(0.0282081 -0.02)" d="M752 351V804H676V652H409V589H676V351ZM785 -63V0H261V94H753V305H184V242H677V154H185V-63ZM545 485C446 464 279 446 162 448V755H86V383H151C266 383 462 401 555 421Z"/></g><text class="terminal-3531316682-r11" x="671" y="215.2" textLength="12.2" clip-path="url(#terminal-3531316682-line-8)">&#160;</text><g clip-path="url(#terminal-3531316682-line-8)"><path fill="#e0e0e0" transform="translate(683.2 215.2) scale(0.0282081 -0.02)" d="M538 370C538 461 454 517 327 517C201 517 117 460 117 370C117 291 184 235 289 225V135C196 132 108 133 42 133L55 66C129 67 227 70 324 75C431 82 560 92 629 102L622 163C566 154 462 146 365 140V225C470 235 538 289 538 370ZM755 -70V804H680V-70ZM463 370C463 320 409 285 327 285C246 285 191 320 191 370C191 420 246 454 327 454C409 454 463 420 463 370ZM589 563V626H70V563ZM450 697V761H199V697Z"/><path fill="#e0e0e0" transform="translate(707.6 215.2) scale(0.0282081 -0.02)" d="M63 663H260C260 624 260 605 259 593C255 478 145 367 35 324L79 265C173 306 274 401 298 482C334 403 427 320 510 286L553 347C453 380 345 480 338 592C337 605 337 623 337 663H533V727H63ZM752 164V804H676V561H502V497H676V164ZM771 -41V23H258V228H182V-41Z"/></g><text class="terminal-3531316682-r11" x="732" y="215.2" textLength="24.4" clip-path="url(#terminal-3531316682-line-8)">&#160;↻</text><text class="terminal-3531316682-r9" x="1085.8" y="215.2" textLength="12.2" clip-path="url(#terminal-3531316682-line-8)">│</text><text class="terminal-3531316682-r4" x="1098" y="215.2" textLength="12.2" clip-path="url(#terminal-3531316682-line-8)">
</text><text class="terminal-3531316682-r5" x="0" y="239.6" textLength="12.2" clip-path="url(#terminal-3531316682-line-9)">│</text><text class="terminal-3531316682-r9" x="122" y="239.6" textLength="12.2" clip-path="url(#terminal-3531316682-line-9)">│</text><text class="terminal-3531316682-r11" x="134.2" y="239.6" textLength="439.2" clip-path="url(#terminal-3531316682-line-9)">────────────────────────────────────</text><text class="terminal-3531316682-r9" x="597.8" y="239.6" textLength="12.2" clip-path="url(#terminal-3531316682-line-9)">│</text><text class="terminal-3531316682-r9" x="610" y="239.6" textLength="12.2" clip-path="url(#terminal-3531316682-line-9)">│</text><g clip-path="url(#terminal-3531316682-line-9)"><path fill="#e0e0e0" transform="translate(622.2 239.6) scale(0.0282081 -0.02)" d="M777 -70V804H703V448H597V783H523V-25H597V385H703V-70ZM478 174C477 194 476 214 473 234C443 230 404 226 362 223C373 340 384 460 394 577L318 585C309 464 302 338 294 218C286 217 278 217 271 217C248 216 227 214 204 214C197 337 188 462 181 583L105 574C114 455 123 332 133 213H26L38 145C112 146 194 150 275 154C353 159 432 166 478 174ZM451 630V694H42V630Z"/><path fill="#e0e0e0" transform="translate(646.6 239.6) scale(0.0282081 -0.02)" d="M752 351V804H676V652H409V589H676V351ZM785 -63V0H261V94H753V305H184V242H677V154H185V-63ZM545 485C446 464 279 446 162 448V755H86V383H151C266 383 462 401 555 421Z"/></g><text class="terminal-3531316682-r11" x="671" y="239.6" textLength="12.2" clip-path="url(#terminal-3531316682-line-9)">&#160;</text><g clip-path="url(#terminal-3531316682-line-9)"><path fill="#e0e0e0" transform="translate(683.2 239.6) scale(0.0282081 -0.02)" d="M827 59V123H533V425H457V123H312V425H236V123H38V59ZM730 707H121V643H651V564C651 449 640 317 620 235L696 223C721 334 729 470 730 603Z"/><path fill="#e0e0e0" transform="translate(707.6 239.6) scale(0.0282081 -0.02)" d="M587 229 583 288C531 280 435 272 343 266V323C439 331 514 370 514 447C514 533 420 574 307 574C196 574 102 532 102 446C102 371 173 332 266 323V262C178 259 90 259 26 259L39 195C100 195 209 198 307 204C411 211 524 221 587 229ZM849 427V491H712V806H635V124H712V427ZM734 -55V8H234V162H158V-55ZM558 603V665H50V603ZM443 447C443 403 384 381 307 381C231 381 174 402 174 447C174 492 231 513 307 513C384 513 443 492 443 447ZM430 718V782H189V718Z"/></g><text class="terminal-3531316682-r11" x="732" y="239.6" textLength="24.4" clip-path="url(#terminal-3531316682-line-9)">&#160;(</text><g clip-path="url(#terminal-3531316682-line-9)"><path fill="#e0e0e0" transform="translate(756.4 239.6) scale(0.0282081 -0.02)" d="M712 804H636V-70H712V393H854V457H712ZM149 209V649H487V713H72V144H158C310 144 483 156 577 174L569 237C485 219 312 209 199 209Z"/><path fill="#e0e0e0" transform="translate(780.8 239.6) scale(0.0282081 -0.02)" d="M827 318V382H38V318ZM731 -58V227H135V-58ZM655 5H211V165H655ZM738 617C738 716 624 781 432 781C241 781 128 716 128 617C128 518 241 453 432 453C624 453 738 518 738 617ZM664 617C664 553 572 514 432 514C292 514 202 553 202 617C202 682 292 720 432 720C572 720 664 682 664 617Z"/></g><text class="terminal-3531316682-r11" x="805.2" y="239.6" textLength="12.2" clip-path="url(#terminal-3531316682-line-9)">&#160;</text><g clip-path="url(#terminal-3531316682-line-9)"><path fill="#e0e0e0" transform="translate(817.4 239.6) scale(0.0282081 -0.02)" d="M777 -70V804H703V448H597V783H523V-25H597V385H703V-70ZM478 174C477 194 476 214 473 234C443 230 404 226 362 223C373 340 384 460 394 577L318 585C309 464 302 338 294 218C286 217 278 217 271 217C248 216 227 214 204 214C197 337 188 462 181 583L105 574C114 455 123 332 133 213H26L38 145C112 146 194 150 275 154C353 159 432 166 478 174ZM451 630V694H42V630Z"/><path fill="#e0e0e0" transform="translate(841.8 239.6) scale(0.0282081 -0.02)" d="M752 351V804H676V652H409V589H676V351ZM785 -63V0H261V94H753V305H184V242H677V154H185V-63ZM545 485C446 464 279 446 162 448V755H86V383H151C266 383 462 401 555 421Z"/><path fill="#e0e0e0" transform="translate(866.2 239.6) scale(0.0282081 -0.02)" d="M857 374V439H715V804H639V-70H715V374ZM589 151 583 214C505 202 395 194 290 189V463H213V187C148 185 70 186 22 186L33 119C106 119 203 122 291 126C376 131 505 140 589 151ZM523 712H66V648H446C450 550 438 406 419 321L492 311C511 396 525 578 523 712Z"/></g><text class="terminal-3531316682-r11" x="890.6" y="239.6" textLength="12.2" clip-path="url(#terminal-3531316682-line-9)">)</text><text class="terminal-3531316682-r9" x="1085.8" y="239.6" textLength="12.2" clip-path="url(#terminal-3531316682-line-9)">│</text><text class="terminal-3531316682-r4" x="1098" y="239.6" textLength="12.2" clip-path="url(#terminal-3531316682-line-9)">
</text><text class="terminal-3531316682-r5" x="0" y="264" textLength="12.2" clip-path="url(#terminal-3531316682-line-10)">│</text><text class="terminal-3531316682-r9" x="122" y="264" textLength="12.2" clip-path="url(#terminal-3531316682-line-10)">│</text><g clip-path="url(#terminal-3531316682-line-10)"><path fill="#e0e0e0" transform="translate(134.2 264) scale(0.0282081 -0.02)" d="M798 354C664 384 472 519 472 662V731H393V662C393 519 211 384 69 356L109 291C261 334 400 458 431 547C467 458 609 334 756 290ZM827 50V114H38V50Z"/><path fill="#e0e0e0" transform="translate(158.6 264) scale(0.0282081 -0.02)" d="M726 708H134V645H647V555C647 526 645 494 643 459L107 440L122 373L639 400C633 309 622 219 613 178L686 168C712 279 725 479 726 596ZM827 57V121H38V57Z"/><path fill="#e0e0e0" transform="translate(183 264) scale(0.0282081 -0.02)" d="M746 466V523H214V592H729V775H138V715H653V647H138V466H393V396H38V335H827V396H469V466ZM761 -54V6H205V86H734V269H130V213H658V140H129V-54Z"/><path fill="#e0e0e0" transform="translate(207.4 264) scale(0.0282081 -0.02)" d="M421 337V746H347V611H144V746H70V337ZM775 285V804H699V581H591V788H518V291H591V518H699V285ZM775 -70V238H184V175H697V-70ZM347 400H144V548H347Z"/></g><text class="terminal-3531316682-r11" x="231.8" y="264" textLength="12.2" clip-path="url(#terminal-3531316682-line-10)">&#160;</text><g clip-path="url(#terminal-3531316682-line-10)"><path fill="#e0e0e0" transform="translate(244 264) scale(0.0282081 -0.02)" d="M676 512V298H752V804H676V576H484V512ZM752 -58V252H189V-58ZM676 5H265V189H676ZM88 744V679H397C373 528 221 398 45 357L85 293C310 365 467 511 481 744Z"/><path fill="#e0e0e0" transform="translate(268.4 264) scale(0.0282081 -0.02)" d="M775 280V804H699V579H588V788H514V287H588V515H699V280ZM775 -70V233H188V169H698V-70ZM475 385C391 421 291 512 291 646V753H217V644C217 513 123 407 30 357L77 299C158 346 234 440 256 511C286 443 355 364 433 327Z"/></g><text class="terminal-3531316682-r9" x="597.8" y="264" textLength="12.2" clip-path="url(#terminal-3531316682-line-10)">│</text><text class="terminal-3531316682-r9" x="610" y="264" textLength="12.2" clip-path="url(#terminal-3531316682-line-10)">│</text><g clip-path="url(#terminal-3531316682-line-10)"><path fill="#e0e0e0" transform="translate(622.2 264) scale(0.0282081 -0.02)" d="M777 -70V804H703V448H597V783H523V-25H597V385H703V-70ZM478 174C477 194 476 214 473 234C443 230 404 226 362 223C373 340 384 460 394 577L318 585C309 464 302 338 294 218C286 217 278 217 271 217C248 216 227 214 204 214C197 337 188 462 181 583L105 574C114 455 123 332 133 213H26L38 145C112 146 194 150 275 154C353 159 432 166 478 174ZM451 630V694H42V630Z"/><path fill="#e0e0e0" transform="translate(646.6 264) scale(0.0282081 -0.02)" d="M752 351V804H676V652H409V589H676V351ZM785 -63V0H261V94H753V305H184V242H677V154H185V-63ZM545 485C446 464 279 446 162 448V755H86V383H151C266 383 462 401 555 421Z"/></g><text class="terminal-3531316682-r11" x="671" y="264" textLength="36.6" clip-path="url(#terminal-3531316682-line-10)">&#160;→&#160;</text><g clip-path="url(#terminal-3531316682-line-10)"><path fill="#e0e0e0" transform="translate(707.6 264) scale(0.0282081 -0.02)" d="M775 -70V804H700V448H589V783H515V-26H589V385H700V-70ZM480 206C385 269 292 396 292 566V722H217V564C217 393 119 240 20 177L70 122C157 185 234 301 254 401C281 302 364 201 431 152Z"/></g><text class="terminal-3531316682-r11" x="732" y="264" textLength="12.2" clip-path="url(#terminal-3531316682-line-10)">&#160;</text><g clip-path="url(#terminal-3531316682-line-10)"><path fill="#e0e0e0" transform="translate(744.2 264) scale(0.0282081 -0.02)" d="M775 -58V277H698V171H276V276H200V-58ZM775 322V804H699V592H590V788H516V330H590V529H699V322ZM698 5H276V110H698ZM154 413V524H403V585H154V685H417V748H79V348H135C255 348 373 355 459 372L448 435C380 420 279 413 179 413Z"/><path fill="#e0e0e0" transform="translate(768.6 264) scale(0.0282081 -0.02)" d="M827 50V114H38V50ZM750 507C750 640 624 728 431 728C241 728 114 640 114 507C114 373 241 286 431 286C623 286 750 373 750 507ZM674 506C674 413 577 351 431 351C286 351 190 413 190 506C190 601 286 664 431 664C578 664 674 601 674 506Z"/><path fill="#e0e0e0" transform="translate(793 264) scale(0.0282081 -0.02)" d="M827 41V105H469V254H754V318H211V464H729V731H134V667H653V527H135V254H393V105H38V41Z"/></g><text class="terminal-3531316682-r11" x="817.4" y="264" textLength="12.2" clip-path="url(#terminal-3531316682-line-10)">&#160;</text><g clip-path="url(#terminal-3531316682-line-10)"><path fill="#e0e0e0" transform="translate(829.6 264) scale(0.0282081 -0.02)" d="M727 442V776H650V668H213V776H137V442ZM469 113V281H827V344H38V281H393V113ZM739 -42V21H214V195H138V-42ZM650 506H213V605H650Z"/><path fill="#e0e0e0" transform="translate(854 264) scale(0.0282081 -0.02)" d="M680 804V-70H756V804ZM600 231C494 212 321 204 182 204H161V413H493V723H81V660H416V476H85V139H174C366 139 516 154 607 168Z"/></g><text class="terminal-3531316682-r9" x="1085.8" y="264" textLength="12.2" clip-path="url(#terminal-3531316682-line-10)">│</text><text class="terminal-3531316682-r4" x="1098" y="264" textLength="12.2" clip-path="url(#terminal-3531316682-line-10)">
</text><text class="terminal-3531316682-r5" x="0" y="288.4" textLength="12.2" clip-path="url(#terminal-3531316682-line-11)">│</text><text class="terminal-3531316682-r9" x="122" y="288.4" textLength="12.2" clip-path="url(#terminal-3531316682-line-11)">│</text><g clip-path="url(#terminal-3531316682-line-11)"><path fill="#e0e0e0" transform="translate(134.2 288.4) scale(0.0282081 -0.02)" d="M759 96C759 199 651 264 462 264C271 264 164 199 164 96C164 -6 271 -70 462 -70C651 -70 759 -6 759 96ZM462 199C600 199 681 162 681 96C681 31 600 -6 462 -6C324 -6 243 31 243 96C243 162 324 199 462 199ZM519 600H676V483H518V420H676V260H752V804H676V663H519ZM477 337V737H77V337ZM400 399H153V674H400Z"/><path fill="#e0e0e0" transform="translate(158.6 288.4) scale(0.0282081 -0.02)" d="M760 90C760 190 652 249 461 249C269 249 161 190 161 90C161 -8 269 -68 461 -68C652 -68 760 -8 760 90ZM520 601H676V489H520V426H676V250H752V804H676V664H520ZM461 186C601 186 682 151 682 90C682 29 601 -5 461 -5C321 -5 238 29 238 90C238 151 321 186 461 186ZM499 384C415 369 293 366 175 366H145V502H458V748H69V685H382V564H69V304H172C274 304 422 309 506 323Z"/></g><text class="terminal-3531316682-r11" x="183" y="288.4" textLength="12.2" clip-path="url(#terminal-3531316682-line-11)">&#160;</text><g clip-path="url(#terminal-3531316682-line-11)"><path fill="#e0e0e0" transform="translate(195.2 288.4) scale(0.0282081 -0.02)" d="M752 336V804H676V336ZM753 -58V288H677V177H265V288H189V-58ZM677 4H265V115H677ZM286 761C163 761 61 679 61 556C61 432 164 354 286 354C409 354 510 432 510 557C510 681 409 761 286 761ZM286 695C376 695 434 638 434 556C434 473 375 417 286 417C200 417 137 473 137 557C137 639 200 695 286 695Z"/><path fill="#e0e0e0" transform="translate(219.6 288.4) scale(0.0282081 -0.02)" d="M499 378C415 363 293 360 175 360H145V503H458V753H69V690H382V565H69V298H172C274 298 422 304 506 318ZM752 265V804H676V672H516V609H676V491H516V429H676V265ZM162 217V154H676V-78H752V217Z"/></g><text class="terminal-3531316682-r9" x="597.8" y="288.4" textLength="12.2" clip-path="url(#terminal-3531316682-line-11)">│</text><text class="terminal-3531316682-r9" x="610" y="288.4" textLength="12.2" clip-path="url(#terminal-3531316682-line-11)">│</text><g clip-path="url(#terminal-3531316682-line-11)"><path fill="#e0e0e0" transform="translate(622.2 288.4) scale(0.0282081 -0.02)" d="M777 -70V804H703V448H597V783H523V-25H597V385H703V-70ZM478 174C477 194 476 214 473 234C443 230 404 226 362 223C373 340 384 460 394 577L318 585C309 464 302 338 294 218C286 217 278 217 271 217C248 216 227 214 204 214C197 337 188 462 181 583L105 574C114 455 123 332 133 213H26L38 145C112 146 194 150 275 154C353 159 432 166 478 174ZM451 630V694H42V630Z"/><path fill="#e0e0e0" transform="translate(646.6 288.4) scale(0.0282081 -0.02)" d="M752 351V804H676V652H409V589H676V351ZM785 -63V0H261V94H753V305H184V242H677V154H185V-63ZM545 485C446 464 279 446 162 448V755H86V383H151C266 383 462 401 555 421Z"/></g><text class="terminal-3531316682-r11" x="671" y="288.4" textLength="36.6" clip-path="url(#terminal-3531316682-line-11)">&#160;→&#160;</text><g clip-path="url(#terminal-3531316682-line-11)"><path fill="#e0e0e0" transform="translate(707.6 288.4) scale(0.0282081 -0.02)" d="M712 804H636V-70H712V393H854V457H712ZM149 209V649H487V713H72V144H158C310 144 483 156 577 174L569 237C485 219 312 209 199 209Z"/><path fill="#e0e0e0" transform="translate(732 288.4) scale(0.0282081 -0.02)" d="M744 386V448H213V550H727V766H137V704H650V608H137V386ZM827 241V304H38V241ZM738 -44V19H212V183H136V-44Z"/></g><text class="terminal-3531316682-r11" x="756.4" y="288.4" textLength="12.2" clip-path="url(#terminal-3531316682-line-11)">&#160;</text><g clip-path="url(#terminal-3531316682-line-11)"><path fill="#e0e0e0" transform="translate(768.6 288.4) scale(0.0282081 -0.02)" d="M775 -58V277H698V171H276V276H200V-58ZM775 322V804H699V592H590V788H516V330H590V529H699V322ZM698 5H276V110H698ZM154 413V524H403V585H154V685H417V748H79V348H135C255 348 373 355 459 372L448 435C380 420 279 413 179 413Z"/><path fill="#e0e0e0" transform="translate(793 288.4) scale(0.0282081 -0.02)" d="M244 728C117 728 52 604 52 429C52 253 117 130 244 130C364 130 428 237 436 395H530V-28H604V787H530V458H436C430 617 365 728 244 728ZM361 429C361 287 315 197 244 197C174 197 129 287 129 429C129 570 174 661 244 661C315 661 361 570 361 429ZM775 -70V804H700V-70Z"/></g><text class="terminal-3531316682-r11" x="817.4" y="288.4" textLength="12.2" clip-path="url(#terminal-3531316682-line-11)">&#160;</text><g clip-path="url(#terminal-3531316682-line-11)"><path fill="#e0e0e0" transform="translate(829.6 288.4) scale(0.0282081 -0.02)" d="M843 493V557H710V804H634V297H710V493ZM710 -64V255H634V161H236V254H160V-64ZM634 0H236V98H634ZM415 728V792H163V728ZM543 605V667H34V605ZM492 428C492 516 407 570 289 570C168 570 86 516 86 428C86 342 170 287 289 287C407 287 492 342 492 428ZM415 428C415 378 357 347 289 347C222 347 161 378 161 428C161 479 221 509 289 509C357 509 415 479 415 428Z"/><path fill="#e0e0e0" transform="translate(854 288.4) scale(0.0282081 -0.02)" d="M594 164C482 203 352 332 352 495V521H556V584H69V521H274V494C274 331 157 196 42 141L87 85C182 135 290 254 315 347C346 256 459 147 554 103ZM758 -70V804H681V-70ZM446 683V752H181V683Z"/><path fill="#e0e0e0" transform="translate(878.4 288.4) scale(0.0282081 -0.02)" d="M752 -70V804H676V-70ZM495 711H79V647H414C398 450 268 260 47 163L91 103C317 210 491 427 495 711Z"/></g><text class="terminal-3531316682-r11" x="902.8" y="288.4" textLength="158.6" clip-path="url(#terminal-3531316682-line-11)">&#160;(join-pane&#160;&lt;</text><g clip-path="url(#terminal-3531316682-line-11)"><path fill="#e0e0e0" transform="translate(1061.4 288.4) scale(0.0282081 -0.02)" d="M775 -58V277H698V171H276V276H200V-58ZM775 322V804H699V592H590V788H516V330H590V529H699V322ZM698 5H276V110H698ZM154 413V524H403V585H154V685H417V748H79V348H135C255 348 373 355 459 372L448 435C380 420 279 413 179 413Z"/></g><text class="terminal-3531316682-r9" x="1085.8" y="288.4" textLength="12.2" clip-path="url(#terminal-3531316682-line-11)">│</text><text class="terminal-3531316682-r4" x="1098" y="288.4" textLength="12.2" clip-path="url(#terminal-3531316682-line-11)">
</text><text class="terminal-3531316682-r5" x="0" y="312.8" textLength="12.2" clip-path="url(#terminal-3531316682-line-12)">│</text><text class="terminal-3531316682-r9" x="122" y="312.8" textLength="12.2" clip-path="url(#terminal-3531316682-line-12)">│</text><text class="terminal-3531316682-r11" x="134.2" y="312.8" textLength="24.4" clip-path="url(#terminal-3531316682-line-12)">⚙&#160;</text><g clip-path="url(#terminal-3531316682-line-12)"><path fill="#e0e0e0" transform="translate(158.6 312.8) scale(0.0282081 -0.02)" d="M676 566V353H752V804H676V630H497V566ZM545 437C452 468 329 560 329 702V774H252V699C252 559 146 456 31 411L78 354C182 403 265 482 291 572C333 480 418 412 502 378ZM785 -64V-1H264V94H753V305H183V242H677V152H188V-64Z"/><path fill="#e0e0e0" transform="translate(183 312.8) scale(0.0282081 -0.02)" d="M759 96C759 199 653 263 465 263C278 263 173 199 173 96C173 -6 278 -70 465 -70C653 -70 759 -6 759 96ZM61 667H260C260 651 260 630 259 620C255 496 144 385 34 343L75 282C169 323 274 428 298 510C334 431 428 349 519 313L564 374C457 406 345 501 338 620C337 630 337 650 337 667H534V731H61ZM465 199C602 199 681 162 681 96C681 31 602 -6 465 -6C331 -6 250 31 250 96C250 162 331 199 465 199ZM676 513V261H752V804H676V577H500V513Z"/></g><text class="terminal-3531316682-r11" x="207.4" y="312.8" textLength="12.2" clip-path="url(#terminal-3531316682-line-12)">…</text><text class="terminal-3531316682-r9" x="597.8" y="312.8" textLength="12.2" clip-path="url(#terminal-3531316682-line-12)">│</text><text class="terminal-3531316682-r9" x="610" y="312.8" textLength="12.2" clip-path="url(#terminal-3531316682-line-12)">│</text><g clip-path="url(#terminal-3531316682-line-12)"><path fill="#e0e0e0" transform="translate(622.2 312.8) scale(0.0282081 -0.02)" d="M777 -70V804H703V448H597V783H523V-25H597V385H703V-70ZM478 174C477 194 476 214 473 234C443 230 404 226 362 223C373 340 384 460 394 577L318 585C309 464 302 338 294 218C286 217 278 217 271 217C248 216 227 214 204 214C197 337 188 462 181 583L105 574C114 455 123 332 133 213H26L38 145C112 146 194 150 275 154C353 159 432 166 478 174ZM451 630V694H42V630Z"/><path fill="#e0e0e0" transform="translate(646.6 312.8) scale(0.0282081 -0.02)" d="M752 351V804H676V652H409V589H676V351ZM785 -63V0H261V94H753V305H184V242H677V154H185V-63ZM545 485C446 464 279 446 162 448V755H86V383H151C266 383 462 401 555 421Z"/></g><text class="terminal-3531316682-r11" x="671" y="312.8" textLength="12.2" clip-path="url(#terminal-3531316682-line-12)">&#160;</text><g clip-path="url(#terminal-3531316682-line-12)"><path fill="#e0e0e0" transform="translate(683.2 312.8) scale(0.0282081 -0.02)" d="M484 192C376 262 294 370 294 542V638H462V701H45V638H219V540C219 370 127 232 24 166L75 113C160 173 239 277 257 374C282 282 374 180 436 136ZM602 -26V783H527V483H387V420H527V-26ZM775 -70V804H700V-70Z"/><path fill="#e0e0e0" transform="translate(707.6 312.8) scale(0.0282081 -0.02)" d="M827 300V364H469V466H726V764H139V466H393V364H38V300ZM650 529H215V702H650ZM123 213V150H653V-76H729V213Z"/></g><text class="terminal-3531316682-r11" x="732" y="312.8" textLength="12.2" clip-path="url(#terminal-3531316682-line-12)">&#160;</text><g clip-path="url(#terminal-3531316682-line-12)"><path fill="#e0e0e0" transform="translate(744.2 312.8) scale(0.0282081 -0.02)" d="M752 804H676V658H509V594H676V464H509V401H676V159H752ZM774 -41V23H265V224H189V-41ZM461 304V746H384V586H153V746H77V304ZM384 367H153V523H384Z"/><path fill="#e0e0e0" transform="translate(768.6 312.8) scale(0.0282081 -0.02)" d="M759 100C759 201 651 265 462 265C271 265 164 201 164 100C164 -2 271 -66 462 -66C651 -66 759 -2 759 100ZM462 201C600 201 681 164 681 100C681 35 600 -3 462 -3C324 -3 243 35 243 100C243 164 324 201 462 201ZM483 400H676V252H752V804H676V646H497V583H676V463H483ZM488 736H86V671H402C376 523 228 378 48 328L86 263C317 344 475 516 488 736Z"/></g><text class="terminal-3531316682-r9" x="1085.8" y="312.8" textLength="12.2" clip-path="url(#terminal-3531316682-line-12)">│</text><text class="terminal-3531316682-r4" x="1098" y="312.8" textLength="12.2" clip-path="url(#terminal-3531316682-line-12)">
</text><text class="terminal-3531316682-r5" x="0" y="337.2" textLength="12.2" clip-path="url(#terminal-3531316682-line-13)">│</text><text class="terminal-3531316682-r9" x="122" y="337.2" textLength="12.2" clip-path="url(#terminal-3531316682-line-13)">│</text><g clip-path="url(#terminal-3531316682-line-13)"><path fill="#e0e0e0" transform="translate(134.2 337.2) scale(0.0282081 -0.02)" d="M474 150V714H65V150ZM398 213H141V651H398ZM853 388V452H710V804H634V-70H710V388Z"/><path fill="#e0e0e0" transform="translate(158.6 337.2) scale(0.0282081 -0.02)" d="M745 572C745 688 628 767 432 767C237 767 119 688 119 572C119 455 237 376 432 376C628 376 745 456 745 572ZM432 701C581 701 671 652 671 572C671 491 581 442 432 442C285 442 195 491 195 572C195 652 285 701 432 701ZM470 -71V233H831V297H41V233H394V-71Z"/><path fill="#e0e0e0" transform="translate(183 337.2) scale(0.0282081 -0.02)" d="M798 354C664 384 472 519 472 662V731H393V662C393 519 211 384 69 356L109 291C261 334 400 458 431 547C467 458 609 334 756 290ZM827 50V114H38V50Z"/></g><text class="terminal-3531316682-r11" x="207.4" y="337.2" textLength="12.2" clip-path="url(#terminal-3531316682-line-13)">&#160;</text><g clip-path="url(#terminal-3531316682-line-13)"><path fill="#e0e0e0" transform="translate(219.6 337.2) scale(0.0282081 -0.02)" d="M484 192C376 262 294 370 294 542V638H462V701H45V638H219V540C219 370 127 232 24 166L75 113C160 173 239 277 257 374C282 282 374 180 436 136ZM602 -26V783H527V483H387V420H527V-26ZM775 -70V804H700V-70Z"/><path fill="#e0e0e0" transform="translate(244 337.2) scale(0.0282081 -0.02)" d="M798 354C664 384 472 519 472 662V731H393V662C393 519 211 384 69 356L109 291C261 334 400 458 431 547C467 458 609 334 756 290ZM827 50V114H38V50Z"/><path fill="#e0e0e0" transform="translate(268.4 337.2) scale(0.0282081 -0.02)" d="M559 171C458 210 330 336 330 495V526H532V589H49V526H252V495C252 333 133 198 25 146L70 89C164 139 267 254 292 347C323 256 427 155 515 113ZM676 356V-70H752V804H676V420H485V356ZM423 684V749H159V684Z"/></g><text class="terminal-3531316682-r11" x="292.8" y="337.2" textLength="12.2" clip-path="url(#terminal-3531316682-line-13)">&#160;</text><g clip-path="url(#terminal-3531316682-line-13)"><path fill="#e0e0e0" transform="translate(305 337.2) scale(0.0282081 -0.02)" d="M827 41V105H469V319H738V382H210V667H733V730H133V319H393V105H38V41Z"/><path fill="#e0e0e0" transform="translate(329.4 337.2) scale(0.0282081 -0.02)" d="M827 340V403H38V340H393V225H134V-58H731V225H469V340ZM737 624C737 728 624 788 432 788C241 788 127 728 127 624C127 522 241 462 432 462C624 462 737 522 737 624ZM664 624C664 556 572 524 432 524C292 524 202 556 202 624C202 694 292 726 432 726C572 726 664 694 664 624ZM655 5H211V163H655Z"/><path fill="#e0e0e0" transform="translate(353.8 337.2) scale(0.0282081 -0.02)" d="M843 546V610H710V804H634V357H710V546ZM742 -64V-1H229V99H710V309H153V246H634V158H153V-64ZM484 392V749H69V392ZM408 455H145V686H408Z"/></g><text class="terminal-3531316682-r9" x="597.8" y="337.2" textLength="12.2" clip-path="url(#terminal-3531316682-line-13)">│</text><text class="terminal-3531316682-r9" x="610" y="337.2" textLength="12.2" clip-path="url(#terminal-3531316682-line-13)">│</text><g clip-path="url(#terminal-3531316682-line-13)"><path fill="#e0e0e0" transform="translate(622.2 337.2) scale(0.0282081 -0.02)" d="M777 -70V804H703V448H597V783H523V-25H597V385H703V-70ZM478 174C477 194 476 214 473 234C443 230 404 226 362 223C373 340 384 460 394 577L318 585C309 464 302 338 294 218C286 217 278 217 271 217C248 216 227 214 204 214C197 337 188 462 181 583L105 574C114 455 123 332 133 213H26L38 145C112 146 194 150 275 154C353 159 432 166 478 174ZM451 630V694H42V630Z"/><path fill="#e0e0e0" transform="translate(646.6 337.2) scale(0.0282081 -0.02)" d="M752 351V804H676V652H409V589H676V351ZM785 -63V0H261V94H753V305H184V242H677V154H185V-63ZM545 485C446 464 279 446 162 448V755H86V383H151C266 383 462 401 555 421Z"/></g><text class="terminal-3531316682-r11" x="671" y="337.2" textLength="12.2" clip-path="url(#terminal-3531316682-line-13)">&#160;</text><g clip-path="url(#terminal-3531316682-line-13)"><path fill="#e0e0e0" transform="translate(683.2 337.2) scale(0.0282081 -0.02)" d="M843 496V560H710V804H634V285H710V496ZM711 -70V239H146V175H634V-70ZM532 402C433 438 318 543 318 683V763H241V680C241 541 144 432 21 377L68 318C178 378 256 456 282 546C317 458 403 383 487 342Z"/><path fill="#e0e0e0" transform="translate(707.6 337.2) scale(0.0282081 -0.02)" d="M484 192C376 262 294 370 294 542V638H462V701H45V638H219V540C219 370 127 232 24 166L75 113C160 173 239 277 257 374C282 282 374 180 436 136ZM602 -26V783H527V483H387V420H527V-26ZM775 -70V804H700V-70Z"/></g><text class="terminal-3531316682-r11" x="732" y="337.2" textLength="24.4" clip-path="url(#terminal-3531316682-line-13)">&#160;✕</text><text class="terminal-3531316682-r9" x="1085.8" y="337.2" textLength="12.2" clip-path="url(#terminal-3531316682-line-13)">│</text><text class="terminal-3531316682-r4" x="1098" y="337.2" textLength="12.2" clip-path="url(#terminal-3531316682-line-13)">
</text><text class="terminal-3531316682-r5" x="0" y="361.6" textLength="12.2" clip-path="url(#terminal-3531316682-line-14)">│</text><text class="terminal-3531316682-r9" x="122" y="361.6" textLength="12.2" clip-path="url(#terminal-3531316682-line-14)">│</text><g clip-path="url(#terminal-3531316682-line-14)"><path fill="#e0e0e0" transform="translate(134.2 361.6) scale(0.0282081 -0.02)" d="M752 336V804H676V336ZM753 -58V288H677V177H265V288H189V-58ZM677 4H265V115H677ZM286 761C163 761 61 679 61 556C61 432 164 354 286 354C409 354 510 432 510 557C510 681 409 761 286 761ZM286 695C376 695 434 638 434 556C434 473 375 417 286 417C200 417 137 473 137 557C137 639 200 695 286 695Z"/><path fill="#e0e0e0" transform="translate(158.6 361.6) scale(0.0282081 -0.02)" d="M499 378C415 363 293 360 175 360H145V503H458V753H69V690H382V565H69V298H172C274 298 422 304 506 318ZM752 265V804H676V672H516V609H676V491H516V429H676V265ZM162 217V154H676V-78H752V217Z"/></g><text class="terminal-3531316682-r11" x="183" y="361.6" textLength="12.2" clip-path="url(#terminal-3531316682-line-14)">&#160;</text><g clip-path="url(#terminal-3531316682-line-14)"><path fill="#e0e0e0" transform="translate(195.2 361.6) scale(0.0282081 -0.02)" d="M733 83C733 182 624 235 432 235C241 235 133 178 133 83C133 -14 241 -70 432 -70C624 -70 733 -15 733 83ZM732 473V536H211V699H728V762H134V473H394V362H38V299H827V362H470V473ZM432 173C571 173 655 139 655 83C655 25 571 -7 432 -7C295 -7 211 25 211 83C211 139 295 173 432 173Z"/><path fill="#e0e0e0" transform="translate(219.6 361.6) scale(0.0282081 -0.02)" d="M752 -70V804H676V-70ZM495 711H79V647H414C398 450 268 260 47 163L91 103C317 210 491 427 495 711Z"/><path fill="#e0e0e0" transform="translate(244 361.6) scale(0.0282081 -0.02)" d="M583 166C525 157 432 149 335 143V226C438 236 505 290 505 370C505 462 422 518 298 518C175 518 91 461 91 370C91 291 157 237 258 226V139C174 136 85 136 23 138L37 72C110 72 202 72 299 78C404 85 520 96 588 104ZM852 351V416H712V804H635V-70H712V351ZM431 370C431 321 378 286 298 286C219 286 164 321 164 370C164 421 219 455 298 455C378 455 431 421 431 370ZM561 563V626H41V563ZM422 697V761H171V697Z"/></g><text class="terminal-3531316682-r11" x="268.4" y="361.6" textLength="12.2" clip-path="url(#terminal-3531316682-line-14)">&#160;</text><g clip-path="url(#terminal-3531316682-line-14)"><path fill="#e0e0e0" transform="translate(280.6 361.6) scale(0.0282081 -0.02)" d="M704 473V537H207V666H730V730H131V276H393V105H38V41H827V105H469V276H740V339H207V473Z"/><path fill="#e0e0e0" transform="translate(305 361.6) scale(0.0282081 -0.02)" d="M762 -58V3H208V103H728V314H125V253H652V159H132V-58ZM729 757H134V694H651C651 609 643 538 626 474H38V412H827V474H702C720 554 729 640 729 757Z"/></g><text class="terminal-3531316682-r11" x="329.4" y="361.6" textLength="36.6" clip-path="url(#terminal-3531316682-line-14)">&#160;&#160;○</text><text class="terminal-3531316682-r9" x="597.8" y="361.6" textLength="12.2" clip-path="url(#terminal-3531316682-line-14)">│</text><text class="terminal-3531316682-r9" x="610" y="361.6" textLength="12.2" clip-path="url(#terminal-3531316682-line-14)">╰</text><text class="terminal-3531316682-r9" x="622.2" y="361.6" textLength="463.6" clip-path="url(#terminal-3531316682-line-14)">──────────────────────────────────────</text><text class="terminal-3531316682-r9" x="1085.8" y="361.6" textLength="12.2" clip-path="url(#terminal-3531316682-line-14)">╯</text><text class="terminal-3531316682-r4" x="1098" y="361.6" textLength="12.2" clip-path="url(#terminal-3531316682-line-14)">
</text><text class="terminal-3531316682-r5" x="0" y="386" textLength="12.2" clip-path="url(#terminal-3531316682-line-15)">│</text><text class="terminal-3531316682-r9" x="122" y="386" textLength="12.2" clip-path="url(#terminal-3531316682-line-15)">│</text><g clip-path="url(#terminal-3531316682-line-15)"><path fill="#e0e0e0" transform="translate(134.2 386) scale(0.0282081 -0.02)" d="M704 473V537H207V666H730V730H131V276H393V105H38V41H827V105H469V276H740V339H207V473Z"/><path fill="#e0e0e0" transform="translate(158.6 386) scale(0.0282081 -0.02)" d="M726 752H135V689H648C648 658 646 617 644 573L113 556L125 489L639 513C634 457 628 401 619 364H38V300H827V364H695C716 466 726 629 726 752ZM744 -39V24H213V222H137V-39Z"/><path fill="#e0e0e0" transform="translate(183 386) scale(0.0282081 -0.02)" d="M680 804V-70H756V804ZM600 231C494 212 321 204 182 204H161V413H493V723H81V660H416V476H85V139H174C366 139 516 154 607 168Z"/><path fill="#e0e0e0" transform="translate(207.4 386) scale(0.0282081 -0.02)" d="M752 217V804H676V217ZM814 -16C685 3 518 105 518 229V265H438V229C438 105 283 1 142 -17L181 -79C311 -53 442 33 477 119C513 38 657 -55 772 -78ZM491 340V723H83V340ZM415 403H158V660H415Z"/></g><text class="terminal-3531316682-r11" x="231.8" y="386" textLength="12.2" clip-path="url(#terminal-3531316682-line-15)">&#160;</text><g clip-path="url(#terminal-3531316682-line-15)"><path fill="#e0e0e0" transform="translate(244 386) scale(0.0282081 -0.02)" d="M556 192C436 260 329 397 329 560V648H531V712H48V648H250V558C250 401 149 247 20 171L70 114C175 187 260 295 290 401C321 297 428 187 510 135ZM852 385V449H710V804H634V-70H710V385Z"/><path fill="#e0e0e0" transform="translate(268.4 386) scale(0.0282081 -0.02)" d="M733 83C733 182 624 235 432 235C241 235 133 178 133 83C133 -14 241 -70 432 -70C624 -70 733 -15 733 83ZM732 473V536H211V699H728V762H134V473H394V362H38V299H827V362H470V473ZM432 173C571 173 655 139 655 83C655 25 571 -7 432 -7C295 -7 211 25 211 83C211 139 295 173 432 173Z"/><path fill="#e0e0e0" transform="translate(292.8 386) scale(0.0282081 -0.02)" d="M775 -70V804H700V453H592V783H519V-26H592V390H700V-70ZM478 197C386 254 294 377 294 550V636H462V699H45V636H219V547C219 378 127 240 24 174L75 120C160 181 239 284 257 381C282 289 368 184 430 141Z"/><path fill="#e0e0e0" transform="translate(317.2 386) scale(0.0282081 -0.02)" d="M775 -70V804H700V460H586V783H511V-26H586V397H700V-70ZM415 701H65V637H335C327 459 220 273 35 168L86 112C293 237 412 441 415 701Z"/></g><text class="terminal-3531316682-r11" x="341.6" y="386" textLength="12.2" clip-path="url(#terminal-3531316682-line-15)">&#160;</text><g clip-path="url(#terminal-3531316682-line-15)"><path fill="#e0e0e0" transform="translate(353.8 386) scale(0.0282081 -0.02)" d="M704 473V537H207V666H730V730H131V276H393V105H38V41H827V105H469V276H740V339H207V473Z"/><path fill="#e0e0e0" transform="translate(378.2 386) scale(0.0282081 -0.02)" d="M762 -58V3H208V103H728V314H125V253H652V159H132V-58ZM729 757H134V694H651C651 609 643 538 626 474H38V412H827V474H702C720 554 729 640 729 757Z"/></g><text class="terminal-3531316682-r11" x="402.6" y="386" textLength="36.6" clip-path="url(#terminal-3531316682-line-15)">&#160;&#160;○</text><text class="terminal-3531316682-r9" x="597.8" y="386" textLength="12.2" clip-path="url(#terminal-3531316682-line-15)">│</text><text class="terminal-3531316682-r5" x="1085.8" y="386" textLength="12.2" clip-path="url(#terminal-3531316682-line-15)">│</text><text class="terminal-3531316682-r4" x="1098" y="386" textLength="12.2" clip-path="url(#terminal-3531316682-line-15)">
</text><text class="terminal-3531316682-r5" x="0" y="410.4" textLength="12.2" clip-path="url(#terminal-3531316682-line-16)">│</text><text class="terminal-3531316682-r9" x="122" y="410.4" textLength="12.2" clip-path="url(#terminal-3531316682-line-16)">│</text><g clip-path="url(#terminal-3531316682-line-16)"><path fill="#e0e0e0" transform="translate(134.2 410.4) scale(0.0282081 -0.02)" d="M752 282V346H609L644 588L569 600L538 346H323L305 601L227 590L251 346H108V282ZM827 46V111H38V46ZM753 648V712H107V648Z"/><path fill="#e0e0e0" transform="translate(158.6 410.4) scale(0.0282081 -0.02)" d="M738 427V487H219V575H721V774H140V714H645V633H143V427H393V339H38V276H827V339H469V427ZM727 -58V201H139V-58ZM650 5H215V138H650Z"/><path fill="#e0e0e0" transform="translate(183 410.4) scale(0.0282081 -0.02)" d="M752 282V346H609L644 588L569 600L538 346H323L305 601L227 590L251 346H108V282ZM827 46V111H38V46ZM753 648V712H107V648Z"/><path fill="#e0e0e0" transform="translate(207.4 410.4) scale(0.0282081 -0.02)" d="M707 465V529H211V656H724V720H134V265H733V329H211V465ZM827 41V105H38V41Z"/></g><text class="terminal-3531316682-r11" x="231.8" y="410.4" textLength="12.2" clip-path="url(#terminal-3531316682-line-16)">&#160;</text><g clip-path="url(#terminal-3531316682-line-16)"><path fill="#e0e0e0" transform="translate(244 410.4) scale(0.0282081 -0.02)" d="M842 487V551H709V804H633V170H709V487ZM743 -40V23H243V227H166V-40ZM144 375V662H469V726H68V312H139C290 312 456 325 553 342L546 404C462 387 308 375 187 375Z"/><path fill="#e0e0e0" transform="translate(268.4 410.4) scale(0.0282081 -0.02)" d="M550 573C550 684 456 761 321 761C185 761 91 684 91 573C91 464 185 387 321 387C455 387 550 464 550 573ZM760 -70V804H683V-70ZM476 573C476 495 408 451 321 451C233 451 164 495 164 573C164 652 233 697 321 697C408 697 476 652 476 573ZM355 -44V260C455 265 568 272 634 281L631 340C546 331 435 324 326 321C229 317 134 318 30 318L42 250C119 251 197 252 279 256V-44Z"/></g><text class="terminal-3531316682-r11" x="292.8" y="410.4" textLength="12.2" clip-path="url(#terminal-3531316682-line-16)">&#160;</text><g clip-path="url(#terminal-3531316682-line-16)"><path fill="#e0e0e0" transform="translate(305 410.4) scale(0.0282081 -0.02)" d="M721 763H134V700H643C643 676 642 651 641 625L109 605L121 541L636 565C633 520 625 477 617 443H38V381H827V443H693C711 526 721 639 721 763ZM762 -54V8H204V99H728V300H125V238H652V155H128V-54Z"/><path fill="#e0e0e0" transform="translate(329.4 410.4) scale(0.0282081 -0.02)" d="M680 804V-70H756V804ZM600 231C494 212 321 204 182 204H161V413H493V723H81V660H416V476H85V139H174C366 139 516 154 607 168Z"/><path fill="#e0e0e0" transform="translate(353.8 410.4) scale(0.0282081 -0.02)" d="M49 434C49 248 129 125 270 125C403 125 481 235 489 403H676V-70H752V804H676V468H489C479 634 402 743 270 743C129 743 49 619 49 434ZM415 433C415 291 356 191 270 191C183 191 125 291 125 433C125 577 183 677 270 677C356 677 415 577 415 433Z"/></g><text class="terminal-3531316682-r11" x="378.2" y="410.4" textLength="12.2" clip-path="url(#terminal-3531316682-line-16)">&#160;</text><g clip-path="url(#terminal-3531316682-line-16)"><path fill="#e0e0e0" transform="translate(390.4 410.4) scale(0.0282081 -0.02)" d="M704 473V537H207V666H730V730H131V276H393V105H38V41H827V105H469V276H740V339H207V473Z"/><path fill="#e0e0e0" transform="translate(414.8 410.4) scale(0.0282081 -0.02)" d="M762 -58V3H208V103H728V314H125V253H652V159H132V-58ZM729 757H134V694H651C651 609 643 538 626 474H38V412H827V474H702C720 554 729 640 729 757Z"/></g><text class="terminal-3531316682-r11" x="439.2" y="410.4" textLength="12.2" clip-path="url(#terminal-3531316682-line-16)">(</text><g clip-path="url(#terminal-3531316682-line-16)"><path fill="#e0e0e0" transform="translate(451.4 410.4) scale(0.0282081 -0.02)" d="M583 280 577 341C524 334 425 324 331 319V404C443 417 517 485 517 582C517 687 427 765 295 765C164 765 72 687 72 583C72 487 145 418 255 404V316C169 312 84 311 23 312L35 245C97 245 208 249 306 255C410 261 520 273 583 280ZM844 441V505H712V804H635V144H712V441ZM444 583C444 515 387 466 295 466C203 466 148 511 148 583C148 648 203 700 295 700C387 700 444 650 444 583ZM735 -51V12H233V188H157V-51Z"/><path fill="#e0e0e0" transform="translate(475.8 410.4) scale(0.0282081 -0.02)" d="M753 275V338H211V478H728V739H137V675H652V541H134V275H258V105H38V41H827V105H612V275ZM334 275H537V105H334Z"/><path fill="#e0e0e0" transform="translate(500.2 410.4) scale(0.0282081 -0.02)" d="M474 150V714H65V150ZM398 213H141V651H398ZM853 388V452H710V804H634V-70H710V388Z"/><path fill="#e0e0e0" transform="translate(524.6 410.4) scale(0.0282081 -0.02)" d="M712 804H636V-70H712V393H854V457H712ZM149 209V649H487V713H72V144H158C310 144 483 156 577 174L569 237C485 219 312 209 199 209Z"/></g><text class="terminal-3531316682-r11" x="549" y="410.4" textLength="12.2" clip-path="url(#terminal-3531316682-line-16)">&#160;</text><g clip-path="url(#terminal-3531316682-line-16)"><path fill="#e0e0e0" transform="translate(561.2 410.4) scale(0.0282081 -0.02)" d="M728 448V756H137V448ZM652 511H213V693H652ZM472 115V287H827V350H38V287H396V115ZM738 -42V21H212V205H136V-42Z"/></g><text class="terminal-3531316682-r11" x="585.6" y="410.4" textLength="12.2" clip-path="url(#terminal-3531316682-line-16)">&#160;</text><text class="terminal-3531316682-r9" x="597.8" y="410.4" textLength="12.2" clip-path="url(#terminal-3531316682-line-16)">│</text><text class="terminal-3531316682-r5" x="1085.8" y="410.4" textLength="12.2" clip-path="url(#terminal-3531316682-line-16)">│</text><text class="terminal-3531316682-r4" x="1098" y="410.4" textLength="12.2" clip-path="url(#terminal-3531316682-line-16)">
</text><text class="terminal-3531316682-r5" x="0" y="434.8" textLength="12.2" clip-path="url(#terminal-3531316682-line-17)">│</text><text class="terminal-3531316682-r9" x="122" y="434.8" textLength="12.2" clip-path="url(#terminal-3531316682-line-17)">│</text><text class="terminal-3531316682-r11" x="134.2" y="434.8" textLength="439.2" clip-path="url(#terminal-3531316682-line-17)">────────────────────────────────────</text><text class="terminal-3531316682-r9" x="597.8" y="434.8" textLength="12.2" clip-path="url(#terminal-3531316682-line-17)">│</text><text class="terminal-3531316682-r5" x="1085.8" y="434.8" textLength="12.2" clip-path="url(#terminal-3531316682-line-17)">│</text><text class="terminal-3531316682-r4" x="1098" y="434.8" textLength="12.2" clip-path="url(#terminal-3531316682-line-17)">
</text><text class="terminal-3531316682-r5" x="0" y="459.2" textLength="12.2" clip-path="url(#terminal-3531316682-line-18)">│</text><text class="terminal-3531316682-r9" x="122" y="459.2" textLength="12.2" clip-path="url(#terminal-3531316682-line-18)">│</text><text class="terminal-3531316682-r11" x="134.2" y="459.2" textLength="97.6" clip-path="url(#terminal-3531316682-line-18)">detach&#160;(</text><g clip-path="url(#terminal-3531316682-line-18)"><path fill="#e0e0e0" transform="translate(231.8 459.2) scale(0.0282081 -0.02)" d="M775 -58V283H698V174H277V280H201V-58ZM447 560C447 675 368 759 250 759C132 759 52 674 52 560C52 448 132 362 250 362C368 362 447 447 447 560ZM775 328V804H699V598H594V788H521V338H594V535H699V328ZM372 560C372 485 327 428 250 428C173 428 127 485 127 560C127 635 173 693 250 693C327 693 372 635 372 560ZM698 4H277V112H698Z"/></g><text class="terminal-3531316682-r11" x="256.2" y="459.2" textLength="12.2" clip-path="url(#terminal-3531316682-line-18)">&#160;</text><g clip-path="url(#terminal-3531316682-line-18)"><path fill="#e0e0e0" transform="translate(268.4 459.2) scale(0.0282081 -0.02)" d="M739 83C739 180 628 232 432 232C237 232 127 176 127 83C127 -12 237 -68 432 -68C628 -68 739 -13 739 83ZM788 512C666 524 505 592 477 696H755V759H110V696H389C363 593 214 524 79 511L114 448C268 470 398 548 432 629C476 549 607 472 753 448ZM432 171C574 171 662 139 662 83C662 25 574 -6 432 -6C291 -6 204 25 204 83C204 139 291 171 432 171ZM827 303V367H470V499H394V367H38V303Z"/><path fill="#e0e0e0" transform="translate(292.8 459.2) scale(0.0282081 -0.02)" d="M753 275V338H211V478H728V739H137V675H652V541H134V275H258V105H38V41H827V105H612V275ZM334 275H537V105H334Z"/></g><text class="terminal-3531316682-r11" x="317.2" y="459.2" textLength="24.4" clip-path="url(#terminal-3531316682-line-18)">,&#160;</text><g clip-path="url(#terminal-3531316682-line-18)"><path fill="#e0e0e0" transform="translate(341.6 459.2) scale(0.0282081 -0.02)" d="M807 -64V-1H278V92H775V298H198V235H698V151H202V-64ZM479 417C391 459 298 542 298 669V764H224V668C224 542 145 444 38 392L85 337C176 384 240 465 263 538C288 470 371 393 435 359ZM609 352V788H536V695H405V634H536V547H406V486H536V352ZM775 344V804H699V344Z"/></g><text class="terminal-3531316682-r11" x="366" y="459.2" textLength="12.2" clip-path="url(#terminal-3531316682-line-18)">&#160;</text><g clip-path="url(#terminal-3531316682-line-18)"><path fill="#e0e0e0" transform="translate(378.2 459.2) scale(0.0282081 -0.02)" d="M743 574C743 688 626 764 432 764C239 764 122 688 122 574C122 461 239 385 432 385C626 385 743 462 743 574ZM318 -70V240H544V-70H620V240H827V304H38V240H242V-70ZM432 697C579 697 668 649 668 574C668 500 579 452 432 452C287 452 197 500 197 574C197 649 287 697 432 697Z"/><path fill="#e0e0e0" transform="translate(402.6 459.2) scale(0.0282081 -0.02)" d="M578 195C458 260 347 401 347 564V653H551V716H64V653H268V563C268 398 163 249 35 174L82 118C183 183 279 295 308 404C338 301 449 191 531 138ZM679 804V-70H755V804Z"/></g><text class="terminal-3531316682-r11" x="427" y="459.2" textLength="12.2" clip-path="url(#terminal-3531316682-line-18)">)</text><text class="terminal-3531316682-r9" x="597.8" y="459.2" textLength="12.2" clip-path="url(#terminal-3531316682-line-18)">│</text><text class="terminal-3531316682-r5" x="1085.8" y="459.2" textLength="12.2" clip-path="url(#terminal-3531316682-line-18)">│</text><text class="terminal-3531316682-r4" x="1098" y="459.2" textLength="12.2" clip-path="url(#terminal-3531316682-line-18)">
</text><text class="terminal-3531316682-r5" x="0" y="483.6" textLength="12.2" clip-path="url(#terminal-3531316682-line-19)">│</text><text class="terminal-3531316682-r9" x="122" y="483.6" textLength="12.2" clip-path="url(#terminal-3531316682-line-19)">│</text><g clip-path="url(#terminal-3531316682-line-19)"><path fill="#e0e0e0" transform="translate(134.2 483.6) scale(0.0282081 -0.02)" d="M755 -70V804H679V492H475V428H679V-70ZM561 197C441 267 337 409 337 569V728H258V566C258 411 157 256 30 176L80 119C181 192 267 300 298 409C333 304 434 193 514 139Z"/><path fill="#e0e0e0" transform="translate(158.6 483.6) scale(0.0282081 -0.02)" d="M681 417V-70H757V804H681V482H511V417ZM475 153V731H399V508H140V731H64V153ZM399 217H140V445H399Z"/></g><text class="terminal-3531316682-r11" x="183" y="483.6" textLength="12.2" clip-path="url(#terminal-3531316682-line-19)">&#160;</text><g clip-path="url(#terminal-3531316682-line-19)"><path fill="#e0e0e0" transform="translate(195.2 483.6) scale(0.0282081 -0.02)" d="M739 83C739 180 628 232 432 232C237 232 127 176 127 83C127 -12 237 -68 432 -68C628 -68 739 -13 739 83ZM788 512C666 524 505 592 477 696H755V759H110V696H389C363 593 214 524 79 511L114 448C268 470 398 548 432 629C476 549 607 472 753 448ZM432 171C574 171 662 139 662 83C662 25 574 -6 432 -6C291 -6 204 25 204 83C204 139 291 171 432 171ZM827 303V367H470V499H394V367H38V303Z"/><path fill="#e0e0e0" transform="translate(219.6 483.6) scale(0.0282081 -0.02)" d="M753 275V338H211V478H728V739H137V675H652V541H134V275H258V105H38V41H827V105H612V275ZM334 275H537V105H334Z"/></g><text class="terminal-3531316682-r11" x="244" y="483.6" textLength="24.4" clip-path="url(#terminal-3531316682-line-19)">&#160;(</text><g clip-path="url(#terminal-3531316682-line-19)"><path fill="#e0e0e0" transform="translate(268.4 483.6) scale(0.0282081 -0.02)" d="M827 41V105H469V314H730V726H133V314H393V105H38V41ZM654 377H209V663H654Z"/><path fill="#e0e0e0" transform="translate(292.8 483.6) scale(0.0282081 -0.02)" d="M734 -43V21H212V198H136V-43ZM827 276V339H38V276ZM734 455V518H211V694H728V758H135V455Z"/></g><text class="terminal-3531316682-r11" x="317.2" y="483.6" textLength="12.2" clip-path="url(#terminal-3531316682-line-19)">&#160;</text><g clip-path="url(#terminal-3531316682-line-19)"><path fill="#e0e0e0" transform="translate(329.4 483.6) scale(0.0282081 -0.02)" d="M775 -58V277H698V171H276V276H200V-58ZM775 322V804H699V592H590V788H516V330H590V529H699V322ZM698 5H276V110H698ZM154 413V524H403V585H154V685H417V748H79V348H135C255 348 373 355 459 372L448 435C380 420 279 413 179 413Z"/></g><text class="terminal-3531316682-r11" x="353.8" y="483.6" textLength="12.2" clip-path="url(#terminal-3531316682-line-19)">/</text><g clip-path="url(#terminal-3531316682-line-19)"><path fill="#e0e0e0" transform="translate(366 483.6) scale(0.0282081 -0.02)" d="M807 -64V-1H278V92H775V298H198V235H698V151H202V-64ZM479 417C391 459 298 542 298 669V764H224V668C224 542 145 444 38 392L85 337C176 384 240 465 263 538C288 470 371 393 435 359ZM609 352V788H536V695H405V634H536V547H406V486H536V352ZM775 344V804H699V344Z"/></g><text class="terminal-3531316682-r11" x="390.4" y="483.6" textLength="12.2" clip-path="url(#terminal-3531316682-line-19)">&#160;</text><g clip-path="url(#terminal-3531316682-line-19)"><path fill="#e0e0e0" transform="translate(402.6 483.6) scale(0.0282081 -0.02)" d="M739 83C739 180 628 232 432 232C237 232 127 176 127 83C127 -12 237 -68 432 -68C628 -68 739 -13 739 83ZM788 512C666 524 505 592 477 696H755V759H110V696H389C363 593 214 524 79 511L114 448C268 470 398 548 432 629C476 549 607 472 753 448ZM432 171C574 171 662 139 662 83C662 25 574 -6 432 -6C291 -6 204 25 204 83C204 139 291 171 432 171ZM827 303V367H470V499H394V367H38V303Z"/><path fill="#e0e0e0" transform="translate(427 483.6) scale(0.0282081 -0.02)" d="M753 275V338H211V478H728V739H137V675H652V541H134V275H258V105H38V41H827V105H612V275ZM334 275H537V105H334Z"/></g><text class="terminal-3531316682-r11" x="451.4" y="483.6" textLength="12.2" clip-path="url(#terminal-3531316682-line-19)">)</text><text class="terminal-3531316682-r9" x="597.8" y="483.6" textLength="12.2" clip-path="url(#terminal-3531316682-line-19)">│</text><text class="terminal-3531316682-r5" x="1085.8" y="483.6" textLength="12.2" clip-path="url(#terminal-3531316682-line-19)">│</text><text class="terminal-3531316682-r4" x="1098" y="483.6" textLength="12.2" clip-path="url(#terminal-3531316682-line-19)">
</text><text class="terminal-3531316682-r5" x="0" y="508" textLength="12.2" clip-path="url(#terminal-3531316682-line-20)">│</text><text class="terminal-3531316682-r9" x="122" y="508" textLength="12.2" clip-path="url(#terminal-3531316682-line-20)">╰</text><text class="terminal-3531316682-r9" x="134.2" y="508" textLength="463.6" clip-path="url(#terminal-3531316682-line-20)">──────────────────────────────────────</text><text class="terminal-3531316682-r9" x="597.8" y="508" textLength="12.2" clip-path="url(#terminal-3531316682-line-20)">╯</text><text class="terminal-3531316682-r5" x="1085.8" y="508" textLength="12.2" clip-path="url(#terminal-3531316682-line-20)">│</text><text class="terminal-3531316682-r4" x="1098" y="508" textLength="12.2" clip-path="url(#terminal-3531316682-line-20)">
</text><text class="terminal-3531316682-r5" x="0" y="532.4" textLength="12.2" clip-path="url(#terminal-3531316682-line-21)">│</text><text class="terminal-3531316682-r5" x="1085.8" y="532.4" textLength="12.2" clip-path="url(#terminal-3531316682-line-21)">│</text><text class="terminal-3531316682-r4" x="1098" y="532.4" textLength="12.2" clip-path="url(#terminal-3531316682-line-21)">
</text><text class="terminal-3531316682-r5" x="0" y="556.8" textLength="12.2" clip-path="url(#terminal-3531316682-line-22)">│</text><text class="terminal-3531316682-r5" x="1085.8" y="556.8" textLength="12.2" clip-path="url(#terminal-3531316682-line-22)">│</text><text class="terminal-3531316682-r4" x="1098" y="556.8" textLength="12.2" clip-path="url(#terminal-3531316682-line-22)">
</text><text class="terminal-3531316682-r5" x="0" y="581.2" textLength="12.2" clip-path="url(#terminal-3531316682-line-23)">│</text><text class="terminal-3531316682-r5" x="1085.8" y="581.2" textLength="12.2" clip-path="url(#terminal-3531316682-line-23)">│</text><text class="terminal-3531316682-r4" x="1098" y="581.2" textLength="12.2" clip-path="url(#terminal-3531316682-line-23)">
</text><text class="terminal-3531316682-r5" x="0" y="605.6" textLength="1098" clip-path="url(#terminal-3531316682-line-24)">└────────────────────────────────────────────────────────────────────────────────────────┘</text><text class="terminal-3531316682-r4" x="1098" y="605.6" textLength="12.2" clip-path="url(#terminal-3531316682-line-24)">
</text><text class="terminal-3531316682-r12" x="707.6" y="630" textLength="170.8" clip-path="url(#terminal-3531316682-line-25)">ssh:playground</text><text class="terminal-3531316682-r1" x="890.6" y="630" textLength="61" clip-path="url(#terminal-3531316682-line-25)">17:39</text><text class="terminal-3531316682-r1" x="963.8" y="630" textLength="122" clip-path="url(#terminal-3531316682-line-25)">2026-06-20</text>
    </g>
    </g>
</svg>
