<svg class="rich-terminal" viewBox="0 0 1116 684.4" xmlns="http://www.w3.org/2000/svg">
    <!-- Generated with Rich https://www.textualize.io -->
    <style>

    @font-face {
        font-family: "Fira Code";
        src: local("FiraCode-Regular"),
                url("https://cdnjs.cloudflare.com/ajax/libs/firacode/6.2.0/woff2/FiraCode-Regular.woff2") format("woff2"),
                url("https://cdnjs.cloudflare.com/ajax/libs/firacode/6.2.0/woff/FiraCode-Regular.woff") format("woff");
        font-style: normal;
        font-weight: 400;
    }
    @font-face {
        font-family: "Fira Code";
        src: local("FiraCode-Bold"),
                url("https://cdnjs.cloudflare.com/ajax/libs/firacode/6.2.0/woff2/FiraCode-Bold.woff2") format("woff2"),
                url("https://cdnjs.cloudflare.com/ajax/libs/firacode/6.2.0/woff/FiraCode-Bold.woff") format("woff");
        font-style: bold;
        font-weight: 700;
    }

    .terminal-2916008471-matrix {
        font-family: Fira Code, "Apple SD Gothic Neo", monospace;
        font-size: 20px;
        line-height: 24.4px;
        font-variant-east-asian: full-width;
    }

    .terminal-2916008471-title {
        font-size: 18px;
        font-weight: bold;
        font-family: arial;
    }

    .terminal-2916008471-r1 { fill: #e0e0e0 }
.terminal-2916008471-r2 { fill: #c4c5b5;font-weight: bold }
.terminal-2916008471-r3 { fill: #1a1a1a;font-weight: bold }
.terminal-2916008471-r4 { fill: #c5c8c6 }
.terminal-2916008471-r5 { fill: #0178d4;font-weight: bold }
.terminal-2916008471-r6 { fill: #0178d4 }
.terminal-2916008471-r7 { fill: #121212 }
.terminal-2916008471-r8 { fill: #fea62b }
.terminal-2916008471-r9 { fill: #a7abaf }
.terminal-2916008471-r10 { fill: #000000;font-weight: bold }
    </style>

    <defs>
    <clipPath id="terminal-2916008471-clip-terminal">
      <rect x="0" y="0" width="1097.0" height="633.4" />
    </clipPath>
    <clipPath id="terminal-2916008471-line-0">
    <rect x="0" y="1.5" width="1098" height="24.65"/>
            </clipPath>
<clipPath id="terminal-2916008471-line-1">
    <rect x="0" y="25.9" width="1098" height="24.65"/>
            </clipPath>
<clipPath id="terminal-2916008471-line-2">
    <rect x="0" y="50.3" width="1098" height="24.65"/>
            </clipPath>
<clipPath id="terminal-2916008471-line-3">
    <rect x="0" y="74.7" width="1098" height="24.65"/>
            </clipPath>
<clipPath id="terminal-2916008471-line-4">
    <rect x="0" y="99.1" width="1098" height="24.65"/>
            </clipPath>
<clipPath id="terminal-2916008471-line-5">
    <rect x="0" y="123.5" width="1098" height="24.65"/>
            </clipPath>
<clipPath id="terminal-2916008471-line-6">
    <rect x="0" y="147.9" width="1098" height="24.65"/>
            </clipPath>
<clipPath id="terminal-2916008471-line-7">
    <rect x="0" y="172.3" width="1098" height="24.65"/>
            </clipPath>
<clipPath id="terminal-2916008471-line-8">
    <rect x="0" y="196.7" width="1098" height="24.65"/>
            </clipPath>
<clipPath id="terminal-2916008471-line-9">
    <rect x="0" y="221.1" width="1098" height="24.65"/>
            </clipPath>
<clipPath id="terminal-2916008471-line-10">
    <rect x="0" y="245.5" width="1098" height="24.65"/>
            </clipPath>
<clipPath id="terminal-2916008471-line-11">
    <rect x="0" y="269.9" width="1098" height="24.65"/>
            </clipPath>
<clipPath id="terminal-2916008471-line-12">
    <rect x="0" y="294.3" width="1098" height="24.65"/>
            </clipPath>
<clipPath id="terminal-2916008471-line-13">
    <rect x="0" y="318.7" width="1098" height="24.65"/>
            </clipPath>
<clipPath id="terminal-2916008471-line-14">
    <rect x="0" y="343.1" width="1098" height="24.65"/>
            </clipPath>
<clipPath id="terminal-2916008471-line-15">
    <rect x="0" y="367.5" width="1098" height="24.65"/>
            </clipPath>
<clipPath id="terminal-2916008471-line-16">
    <rect x="0" y="391.9" width="1098" height="24.65"/>
            </clipPath>
<clipPath id="terminal-2916008471-line-17">
    <rect x="0" y="416.3" width="1098" height="24.65"/>
            </clipPath>
<clipPath id="terminal-2916008471-line-18">
    <rect x="0" y="440.7" width="1098" height="24.65"/>
            </clipPath>
<clipPath id="terminal-2916008471-line-19">
    <rect x="0" y="465.1" width="1098" height="24.65"/>
            </clipPath>
<clipPath id="terminal-2916008471-line-20">
    <rect x="0" y="489.5" width="1098" height="24.65"/>
            </clipPath>
<clipPath id="terminal-2916008471-line-21">
    <rect x="0" y="513.9" width="1098" height="24.65"/>
            </clipPath>
<clipPath id="terminal-2916008471-line-22">
    <rect x="0" y="538.3" width="1098" height="24.65"/>
            </clipPath>
<clipPath id="terminal-2916008471-line-23">
    <rect x="0" y="562.7" width="1098" height="24.65"/>
            </clipPath>
<clipPath id="terminal-2916008471-line-24">
    <rect x="0" y="587.1" width="1098" height="24.65"/>
            </clipPath>
    </defs>

    <rect fill="#292929" stroke="rgba(255,255,255,0.35)" stroke-width="1" x="1" y="1" width="1114" height="682.4" rx="8"/><path transform="translate(557 27) scale(0.0102564 -0.0102564)" d="M1114 954Q1114 793 1045.5 696.0Q977 599 857.0 555.0Q737 511 581 511H405V0H231V1377H583Q829 1377 971.5 1274.0Q1114 1171 1114 954ZM928 952Q928 1058 886.0 1121.0Q844 1184 770.5 1211.5Q697 1239 604 1239H405V651H597Q693 651 768.0 677.0Q843 703 885.5 768.5Q928 834 928 952Z"/><path transform="translate(569.2 27) scale(0.0102564 -0.0102564)" d="M1077 1053 707 -7Q670 -114 613.5 -203.0Q557 -292 466.5 -350.5Q376 -409 237 -423L211 -289Q320 -271 383.0 -234.0Q446 -197 482.5 -139.5Q519 -82 547 0H491L123 1053H303L605 128L903 1053Z"/><path transform="translate(581.4 27) scale(0.0102564 -0.0102564)" d="M1037 53Q983 17 906.0 -3.0Q829 -23 755 -23Q585 -23 493.0 66.0Q401 155 401 295V923H159V1053H401V1292L569 1312V1053H933L913 923H569V297Q569 209 615.5 163.0Q662 117 770 117Q829 117 879.0 131.0Q929 145 972 167Z"/><path transform="translate(593.6 27) scale(0.0102564 -0.0102564)" d="M895 1075Q945 1075 992.0 1053.0Q1039 1031 1069.0 968.0Q1099 905 1099 784V0H943V757Q943 856 931.0 900.0Q919 944 862 944Q815 944 768.0 914.5Q721 885 678 818V0H521V757Q521 856 509.0 900.0Q497 944 440 944Q391 944 345.0 914.5Q299 885 256 818V0H101V1053H233L243 931Q286 992 339.5 1033.5Q393 1075 472 1075Q532 1075 585.0 1046.5Q638 1018 663 936Q706 998 760.0 1036.5Q814 1075 895 1075Z"/><path transform="translate(605.8 27) scale(0.0102564 -0.0102564)" d="M369 1053V307Q369 203 412.0 157.0Q455 111 546 111Q633 111 710.5 160.5Q788 210 831 278V1053H999V0H856L842 142Q780 62 688.5 19.5Q597 -23 505 -23Q352 -23 276.5 58.5Q201 140 201 287V1053Z"/><path transform="translate(618 27) scale(0.0102564 -0.0102564)" d="M303 0H111L500 556L159 1053H358L602 661L849 1053H1041L701 563L1089 0H883L595 452Z"/><path transform="translate(630.2 27) scale(0.0102564 -0.0102564)" d="M867 351H322L212 0H41L489 1377H711L1159 0H977ZM367 495H822L596 1231Z"/><path transform="translate(642.4 27) scale(0.0102564 -0.0102564)" d="M672 1075Q812 1075 895.5 1007.0Q979 939 1016.0 815.5Q1053 692 1053 527Q1053 368 1008.5 243.5Q964 119 874.0 48.0Q784 -23 647 -23Q474 -23 369 99V-403L201 -424V1053H344L358 906Q416 987 496.0 1031.0Q576 1075 672 1075ZM632 940Q545 940 478.0 887.5Q411 835 369 771V249Q410 188 472.5 152.5Q535 117 610 117Q741 117 807.0 217.0Q873 317 873 528Q873 940 632 940Z"/><path transform="translate(654.6 27) scale(0.0102564 -0.0102564)" d="M672 1075Q812 1075 895.5 1007.0Q979 939 1016.0 815.5Q1053 692 1053 527Q1053 368 1008.5 243.5Q964 119 874.0 48.0Q784 -23 647 -23Q474 -23 369 99V-403L201 -424V1053H344L358 906Q416 987 496.0 1031.0Q576 1075 672 1075ZM632 940Q545 940 478.0 887.5Q411 835 369 771V249Q410 188 472.5 152.5Q535 117 610 117Q741 117 807.0 217.0Q873 317 873 528Q873 940 632 940Z"/>
            <g transform="translate(26,22)">
            <circle cx="0" cy="0" r="7" fill="#ff5f57"/>
            <circle cx="22" cy="0" r="7" fill="#febc2e"/>
            <circle cx="44" cy="0" r="7" fill="#28c840"/>
            </g>
        
    <g transform="translate(9, 41)" clip-path="url(#terminal-2916008471-clip-terminal)">
    <rect fill="#121212" x="0" y="1.5" width="12.2" height="24.65" shape-rendering="crispEdges"/><rect fill="#0178d4" x="12.2" y="1.5" width="85.4" height="24.65" shape-rendering="crispEdges"/><rect fill="#121212" x="97.6" y="1.5" width="24.4" height="24.65" shape-rendering="crispEdges"/><rect fill="#4ebf71" x="122" y="1.5" width="36.6" height="24.65" shape-rendering="crispEdges"/><rect fill="#121212" x="158.6" y="1.5" width="939.4" height="24.65" shape-rendering="crispEdges"/><rect fill="#121212" x="0" y="25.9" width="12.2" height="24.65" shape-rendering="crispEdges"/><rect fill="#121212" x="12.2" y="25.9" width="85.4" height="24.65" shape-rendering="crispEdges"/><rect fill="#121212" x="97.6" y="25.9" width="951.6" height="24.65" shape-rendering="crispEdges"/><rect fill="#b93c5b" x="1049.2" y="25.9" width="36.6" height="24.65" shape-rendering="crispEdges"/><rect fill="#121212" x="1085.8" y="25.9" width="12.2" height="24.65" shape-rendering="crispEdges"/><rect fill="#121212" x="0" y="50.3" width="12.2" height="24.65" shape-rendering="crispEdges"/><rect fill="#121212" x="12.2" y="50.3" width="231.8" height="24.65" shape-rendering="crispEdges"/><rect fill="#e0e0e0" x="244" y="50.3" width="12.2" height="24.65" shape-rendering="crispEdges"/><rect fill="#121212" x="256.2" y="50.3" width="793" height="24.65" shape-rendering="crispEdges"/><rect fill="#0178d4" x="1049.2" y="50.3" width="48.8" height="24.65" shape-rendering="crispEdges"/><rect fill="#121212" x="0" y="74.7" width="12.2" height="24.65" shape-rendering="crispEdges"/><rect fill="#121212" x="12.2" y="74.7" width="1073.6" height="24.65" shape-rendering="crispEdges"/><rect fill="#121212" x="1085.8" y="74.7" width="12.2" height="24.65" shape-rendering="crispEdges"/><rect fill="#121212" x="0" y="99.1" width="12.2" height="24.65" shape-rendering="crispEdges"/><rect fill="#121212" x="12.2" y="99.1" width="1073.6" height="24.65" shape-rendering="crispEdges"/><rect fill="#121212" x="1085.8" y="99.1" width="12.2" height="24.65" shape-rendering="crispEdges"/><rect fill="#121212" x="0" y="123.5" width="12.2" height="24.65" shape-rendering="crispEdges"/><rect fill="#121212" x="12.2" y="123.5" width="1073.6" height="24.65" shape-rendering="crispEdges"/><rect fill="#121212" x="1085.8" y="123.5" width="12.2" height="24.65" shape-rendering="crispEdges"/><rect fill="#121212" x="0" y="147.9" width="12.2" height="24.65" shape-rendering="crispEdges"/><rect fill="#121212" x="12.2" y="147.9" width="1073.6" height="24.65" shape-rendering="crispEdges"/><rect fill="#121212" x="1085.8" y="147.9" width="12.2" height="24.65" shape-rendering="crispEdges"/><rect fill="#121212" x="0" y="172.3" width="12.2" height="24.65" shape-rendering="crispEdges"/><rect fill="#121212" x="12.2" y="172.3" width="1073.6" height="24.65" shape-rendering="crispEdges"/><rect fill="#121212" x="1085.8" y="172.3" width="12.2" height="24.65" shape-rendering="crispEdges"/><rect fill="#121212" x="0" y="196.7" width="12.2" height="24.65" shape-rendering="crispEdges"/><rect fill="#121212" x="12.2" y="196.7" width="1073.6" height="24.65" shape-rendering="crispEdges"/><rect fill="#121212" x="1085.8" y="196.7" width="12.2" height="24.65" shape-rendering="crispEdges"/><rect fill="#121212" x="0" y="221.1" width="12.2" height="24.65" shape-rendering="crispEdges"/><rect fill="#121212" x="12.2" y="221.1" width="1073.6" height="24.65" shape-rendering="crispEdges"/><rect fill="#121212" x="1085.8" y="221.1" width="12.2" height="24.65" shape-rendering="crispEdges"/><rect fill="#121212" x="0" y="245.5" width="12.2" height="24.65" shape-rendering="crispEdges"/><rect fill="#121212" x="12.2" y="245.5" width="1073.6" height="24.65" shape-rendering="crispEdges"/><rect fill="#121212" x="1085.8" y="245.5" width="12.2" height="24.65" shape-rendering="crispEdges"/><rect fill="#121212" x="0" y="269.9" width="12.2" height="24.65" shape-rendering="crispEdges"/><rect fill="#121212" x="12.2" y="269.9" width="1073.6" height="24.65" shape-rendering="crispEdges"/><rect fill="#121212" x="1085.8" y="269.9" width="12.2" height="24.65" shape-rendering="crispEdges"/><rect fill="#121212" x="0" y="294.3" width="12.2" height="24.65" shape-rendering="crispEdges"/><rect fill="#121212" x="12.2" y="294.3" width="1073.6" height="24.65" shape-rendering="crispEdges"/><rect fill="#121212" x="1085.8" y="294.3" width="12.2" height="24.65" shape-rendering="crispEdges"/><rect fill="#121212" x="0" y="318.7" width="12.2" height="24.65" shape-rendering="crispEdges"/><rect fill="#121212" x="12.2" y="318.7" width="1073.6" height="24.65" shape-rendering="crispEdges"/><rect fill="#121212" x="1085.8" y="318.7" width="12.2" height="24.65" shape-rendering="crispEdges"/><rect fill="#121212" x="0" y="343.1" width="12.2" height="24.65" shape-rendering="crispEdges"/><rect fill="#121212" x="12.2" y="343.1" width="1073.6" height="24.65" shape-rendering="crispEdges"/><rect fill="#121212" x="1085.8" y="343.1" width="12.2" height="24.65" shape-rendering="crispEdges"/><rect fill="#121212" x="0" y="367.5" width="12.2" height="24.65" shape-rendering="crispEdges"/><rect fill="#121212" x="12.2" y="367.5" width="1073.6" height="24.65" shape-rendering="crispEdges"/><rect fill="#121212" x="1085.8" y="367.5" width="12.2" height="24.65" shape-rendering="crispEdges"/><rect fill="#121212" x="0" y="391.9" width="12.2" height="24.65" shape-rendering="crispEdges"/><rect fill="#121212" x="12.2" y="391.9" width="1073.6" height="24.65" shape-rendering="crispEdges"/><rect fill="#121212" x="1085.8" y="391.9" width="12.2" height="24.65" shape-rendering="crispEdges"/><rect fill="#121212" x="0" y="416.3" width="12.2" height="24.65" shape-rendering="crispEdges"/><rect fill="#121212" x="12.2" y="416.3" width="1073.6" height="24.65" shape-rendering="crispEdges"/><rect fill="#121212" x="1085.8" y="416.3" width="12.2" height="24.65" shape-rendering="crispEdges"/><rect fill="#121212" x="0" y="440.7" width="12.2" height="24.65" shape-rendering="crispEdges"/><rect fill="#121212" x="12.2" y="440.7" width="1073.6" height="24.65" shape-rendering="crispEdges"/><rect fill="#121212" x="1085.8" y="440.7" width="12.2" height="24.65" shape-rendering="crispEdges"/><rect fill="#121212" x="0" y="465.1" width="12.2" height="24.65" shape-rendering="crispEdges"/><rect fill="#121212" x="12.2" y="465.1" width="1073.6" height="24.65" shape-rendering="crispEdges"/><rect fill="#121212" x="1085.8" y="465.1" width="12.2" height="24.65" shape-rendering="crispEdges"/><rect fill="#121212" x="0" y="489.5" width="12.2" height="24.65" shape-rendering="crispEdges"/><rect fill="#121212" x="12.2" y="489.5" width="1073.6" height="24.65" shape-rendering="crispEdges"/><rect fill="#121212" x="1085.8" y="489.5" width="12.2" height="24.65" shape-rendering="crispEdges"/><rect fill="#242f38" x="0" y="513.9" width="12.2" height="24.65" shape-rendering="crispEdges"/><rect fill="#242f38" x="12.2" y="513.9" width="1073.6" height="24.65" shape-rendering="crispEdges"/><rect fill="#242f38" x="1085.8" y="513.9" width="12.2" height="24.65" shape-rendering="crispEdges"/><rect fill="#242f38" x="0" y="538.3" width="12.2" height="24.65" shape-rendering="crispEdges"/><rect fill="#242f38" x="12.2" y="538.3" width="12.2" height="24.65" shape-rendering="crispEdges"/><rect fill="#242f38" x="24.4" y="538.3" width="146.4" height="24.65" shape-rendering="crispEdges"/><rect fill="#242f38" x="170.8" y="538.3" width="841.8" height="24.65" shape-rendering="crispEdges"/><rect fill="#0178d4" x="1012.6" y="538.3" width="12.2" height="24.65" shape-rendering="crispEdges"/><rect fill="#0178d4" x="1024.8" y="538.3" width="48.8" height="24.65" shape-rendering="crispEdges"/><rect fill="#242f38" x="1073.6" y="538.3" width="12.2" height="24.65" shape-rendering="crispEdges"/><rect fill="#242f38" x="1085.8" y="538.3" width="12.2" height="24.65" shape-rendering="crispEdges"/><rect fill="#242f38" x="0" y="562.7" width="12.2" height="24.65" shape-rendering="crispEdges"/><rect fill="#242f38" x="12.2" y="562.7" width="12.2" height="24.65" shape-rendering="crispEdges"/><rect fill="#1e1e1e" x="24.4" y="562.7" width="12.2" height="24.65" shape-rendering="crispEdges"/><rect fill="#1e1e1e" x="36.6" y="562.7" width="524.6" height="24.65" shape-rendering="crispEdges"/><rect fill="#1e1e1e" x="561.2" y="562.7" width="500.2" height="24.65" shape-rendering="crispEdges"/><rect fill="#1e1e1e" x="1061.4" y="562.7" width="12.2" height="24.65" shape-rendering="crispEdges"/><rect fill="#242f38" x="1073.6" y="562.7" width="12.2" height="24.65" shape-rendering="crispEdges"/><rect fill="#242f38" x="1085.8" y="562.7" width="12.2" height="24.65" shape-rendering="crispEdges"/><rect fill="#242f38" x="0" y="587.1" width="12.2" height="24.65" shape-rendering="crispEdges"/><rect fill="#242f38" x="12.2" y="587.1" width="12.2" height="24.65" shape-rendering="crispEdges"/><rect fill="#1e1e1e" x="24.4" y="587.1" width="12.2" height="24.65" shape-rendering="crispEdges"/><rect fill="#262626" x="36.6" y="587.1" width="488" height="24.65" shape-rendering="crispEdges"/><rect fill="#e0e0e0" x="524.6" y="587.1" width="12.2" height="24.65" shape-rendering="crispEdges"/><rect fill="#262626" x="536.8" y="587.1" width="524.6" height="24.65" shape-rendering="crispEdges"/><rect fill="#1e1e1e" x="1061.4" y="587.1" width="12.2" height="24.65" shape-rendering="crispEdges"/><rect fill="#242f38" x="1073.6" y="587.1" width="12.2" height="24.65" shape-rendering="crispEdges"/><rect fill="#242f38" x="1085.8" y="587.1" width="12.2" height="24.65" shape-rendering="crispEdges"/><rect fill="#242f38" x="0" y="611.5" width="12.2" height="24.65" shape-rendering="crispEdges"/><rect fill="#242f38" x="12.2" y="611.5" width="1073.6" height="24.65" shape-rendering="crispEdges"/><rect fill="#242f38" x="1085.8" y="611.5" width="12.2" height="24.65" shape-rendering="crispEdges"/>
    <g class="terminal-2916008471-matrix">
    <path fill="#c4c5b5" transform="translate(24.4 20) scale(0.0102564 -0.0102564)" d="M1102 239V0H201V239H535V1075L250 897L116 1114L563 1386H843V239Z"/><path fill="#c4c5b5" transform="translate(36.6 20) scale(0.0102564 -0.0102564)" d="M389 868Q389 925 417.5 972.5Q446 1020 494.0 1049.0Q542 1078 600 1078Q688 1078 748.5 1015.5Q809 953 809 868Q809 783 748.5 721.0Q688 659 600 659Q512 659 450.5 721.0Q389 783 389 868ZM389 177Q389 262 450.5 323.0Q512 384 600 384Q688 384 748.5 323.0Q809 262 809 177Q809 91 748.5 28.5Q688 -34 600 -34Q512 -34 450.5 28.5Q389 91 389 177Z"/><path fill="#c4c5b5" transform="translate(48.8 20) scale(0.0102564 -0.0102564)" d="M1042 0H693L602 714L507 0H164L7 1062H296L365 197L477 928H743L843 197L914 1062H1193Z"/><path fill="#c4c5b5" transform="translate(61 20) scale(0.0102564 -0.0102564)" d="M598 1618Q680 1618 732.0 1567.0Q784 1516 784 1440Q784 1364 732.0 1312.5Q680 1261 598 1261Q515 1261 462.5 1312.5Q410 1364 410 1440Q410 1516 462.5 1567.0Q515 1618 598 1618ZM789 1062V216H1059V0H172V216H473V846H182V1062Z"/><path fill="#c4c5b5" transform="translate(73.2 20) scale(0.0102564 -0.0102564)" d="M140 0V1062H416L438 939Q509 1019 588.0 1058.0Q667 1097 768 1097Q904 1097 982.0 1014.0Q1060 931 1060 780V0H744V689Q744 787 722.5 825.5Q701 864 642 864Q592 864 546.5 832.0Q501 800 456 743V0Z"/><path fill="#1a1a1a" transform="translate(122 20) scale(0.0102564 -0.0102564)" d="M312 -246V1646H928V1410H610V-12H928V-246Z"/><path fill="#1a1a1a" transform="translate(134.2 20) scale(0.0102564 -0.0102564)" d="M731 1158V747H1134V503H731V92H467V503H66V747H467V1158Z"/><path fill="#1a1a1a" transform="translate(146.4 20) scale(0.0102564 -0.0102564)" d="M888 1646V-246H272V-10H590V1410H272V1646Z"/><path d="M6.1,50.3 L6.1,38.1 L12.2,38.1" stroke="#0178d4" stroke-width="1.8" fill="none"/><rect x="12.2" y="25.9" width="13" height="13" fill="#0178d4"/><rect x="24.4" y="25.9" width="13" height="13" fill="#0178d4"/><rect x="36.6" y="25.9" width="13" height="13" fill="#0178d4"/><rect x="48.8" y="25.9" width="13" height="13" fill="#0178d4"/><rect x="61" y="25.9" width="13" height="13" fill="#0178d4"/><rect x="73.2" y="25.9" width="13" height="13" fill="#0178d4"/><rect x="85.4" y="25.9" width="13" height="13" fill="#0178d4"/><path d="M97.6,38.1 H109.8" stroke="#0178d4" stroke-width="1.8" fill="none"/><path d="M109.8,38.1 H122" stroke="#0178d4" stroke-width="1.8" fill="none"/><path d="M122,38.1 H134.2" stroke="#0178d4" stroke-width="1.8" fill="none"/><path d="M134.2,38.1 H146.4" stroke="#0178d4" stroke-width="1.8" fill="none"/><path d="M146.4,38.1 H158.6" stroke="#0178d4" stroke-width="1.8" fill="none"/><path d="M158.6,38.1 H170.8" stroke="#0178d4" stroke-width="1.8" fill="none"/><path d="M170.8,38.1 H183" stroke="#0178d4" stroke-width="1.8" fill="none"/><path d="M183,38.1 H195.2" stroke="#0178d4" stroke-width="1.8" fill="none"/><path d="M195.2,38.1 H207.4" stroke="#0178d4" stroke-width="1.8" fill="none"/><path d="M207.4,38.1 H219.6" stroke="#0178d4" stroke-width="1.8" fill="none"/><path d="M219.6,38.1 H231.8" stroke="#0178d4" stroke-width="1.8" fill="none"/><path d="M231.8,38.1 H244" stroke="#0178d4" stroke-width="1.8" fill="none"/><path d="M244,38.1 H256.2" stroke="#0178d4" stroke-width="1.8" fill="none"/><path d="M256.2,38.1 H268.4" stroke="#0178d4" stroke-width="1.8" fill="none"/><path d="M268.4,38.1 H280.6" stroke="#0178d4" stroke-width="1.8" fill="none"/><path d="M280.6,38.1 H292.8" stroke="#0178d4" stroke-width="1.8" fill="none"/><path d="M292.8,38.1 H305" stroke="#0178d4" stroke-width="1.8" fill="none"/><path d="M305,38.1 H317.2" stroke="#0178d4" stroke-width="1.8" fill="none"/><path d="M317.2,38.1 H329.4" stroke="#0178d4" stroke-width="1.8" fill="none"/><path d="M329.4,38.1 H341.6" stroke="#0178d4" stroke-width="1.8" fill="none"/><path d="M341.6,38.1 H353.8" stroke="#0178d4" stroke-width="1.8" fill="none"/><path d="M353.8,38.1 H366" stroke="#0178d4" stroke-width="1.8" fill="none"/><path d="M366,38.1 H378.2" stroke="#0178d4" stroke-width="1.8" fill="none"/><path d="M378.2,38.1 H390.4" stroke="#0178d4" stroke-width="1.8" fill="none"/><path d="M390.4,38.1 H402.6" stroke="#0178d4" stroke-width="1.8" fill="none"/><path d="M402.6,38.1 H414.8" stroke="#0178d4" stroke-width="1.8" fill="none"/><path d="M414.8,38.1 H427" stroke="#0178d4" stroke-width="1.8" fill="none"/><path d="M427,38.1 H439.2" stroke="#0178d4" stroke-width="1.8" fill="none"/><path d="M439.2,38.1 H451.4" stroke="#0178d4" stroke-width="1.8" fill="none"/><path d="M451.4,38.1 H463.6" stroke="#0178d4" stroke-width="1.8" fill="none"/><path d="M463.6,38.1 H475.8" stroke="#0178d4" stroke-width="1.8" fill="none"/><path d="M475.8,38.1 H488" stroke="#0178d4" stroke-width="1.8" fill="none"/><path d="M488,38.1 H500.2" stroke="#0178d4" stroke-width="1.8" fill="none"/><path d="M500.2,38.1 H512.4" stroke="#0178d4" stroke-width="1.8" fill="none"/><path d="M512.4,38.1 H524.6" stroke="#0178d4" stroke-width="1.8" fill="none"/><path d="M524.6,38.1 H536.8" stroke="#0178d4" stroke-width="1.8" fill="none"/><path d="M536.8,38.1 H549" stroke="#0178d4" stroke-width="1.8" fill="none"/><path d="M549,38.1 H561.2" stroke="#0178d4" stroke-width="1.8" fill="none"/><path d="M561.2,38.1 H573.4" stroke="#0178d4" stroke-width="1.8" fill="none"/><path d="M573.4,38.1 H585.6" stroke="#0178d4" stroke-width="1.8" fill="none"/><path d="M585.6,38.1 H597.8" stroke="#0178d4" stroke-width="1.8" fill="none"/><path d="M597.8,38.1 H610" stroke="#0178d4" stroke-width="1.8" fill="none"/><path d="M610,38.1 H622.2" stroke="#0178d4" stroke-width="1.8" fill="none"/><path d="M622.2,38.1 H634.4" stroke="#0178d4" stroke-width="1.8" fill="none"/><path d="M634.4,38.1 H646.6" stroke="#0178d4" stroke-width="1.8" fill="none"/><path d="M646.6,38.1 H658.8" stroke="#0178d4" stroke-width="1.8" fill="none"/><path d="M658.8,38.1 H671" stroke="#0178d4" stroke-width="1.8" fill="none"/><path d="M671,38.1 H683.2" stroke="#0178d4" stroke-width="1.8" fill="none"/><path d="M683.2,38.1 H695.4" stroke="#0178d4" stroke-width="1.8" fill="none"/><path d="M695.4,38.1 H707.6" stroke="#0178d4" stroke-width="1.8" fill="none"/><path d="M707.6,38.1 H719.8" stroke="#0178d4" stroke-width="1.8" fill="none"/><path d="M719.8,38.1 H732" stroke="#0178d4" stroke-width="1.8" fill="none"/><path d="M732,38.1 H744.2" stroke="#0178d4" stroke-width="1.8" fill="none"/><path d="M744.2,38.1 H756.4" stroke="#0178d4" stroke-width="1.8" fill="none"/><path d="M756.4,38.1 H768.6" stroke="#0178d4" stroke-width="1.8" fill="none"/><path d="M768.6,38.1 H780.8" stroke="#0178d4" stroke-width="1.8" fill="none"/><path d="M780.8,38.1 H793" stroke="#0178d4" stroke-width="1.8" fill="none"/><path d="M793,38.1 H805.2" stroke="#0178d4" stroke-width="1.8" fill="none"/><path d="M805.2,38.1 H817.4" stroke="#0178d4" stroke-width="1.8" fill="none"/><path d="M817.4,38.1 H829.6" stroke="#0178d4" stroke-width="1.8" fill="none"/><path d="M829.6,38.1 H841.8" stroke="#0178d4" stroke-width="1.8" fill="none"/><path d="M841.8,38.1 H854" stroke="#0178d4" stroke-width="1.8" fill="none"/><path d="M854,38.1 H866.2" stroke="#0178d4" stroke-width="1.8" fill="none"/><path d="M866.2,38.1 H878.4" stroke="#0178d4" stroke-width="1.8" fill="none"/><path d="M878.4,38.1 H890.6" stroke="#0178d4" stroke-width="1.8" fill="none"/><path d="M890.6,38.1 H902.8" stroke="#0178d4" stroke-width="1.8" fill="none"/><path d="M902.8,38.1 H915" stroke="#0178d4" stroke-width="1.8" fill="none"/><path d="M915,38.1 H927.2" stroke="#0178d4" stroke-width="1.8" fill="none"/><path d="M927.2,38.1 H939.4" stroke="#0178d4" stroke-width="1.8" fill="none"/><path d="M939.4,38.1 H951.6" stroke="#0178d4" stroke-width="1.8" fill="none"/><path d="M951.6,38.1 H963.8" stroke="#0178d4" stroke-width="1.8" fill="none"/><path d="M963.8,38.1 H976" stroke="#0178d4" stroke-width="1.8" fill="none"/><path d="M976,38.1 H988.2" stroke="#0178d4" stroke-width="1.8" fill="none"/><path d="M988.2,38.1 H1000.4" stroke="#0178d4" stroke-width="1.8" fill="none"/><path d="M1000.4,38.1 H1012.6" stroke="#0178d4" stroke-width="1.8" fill="none"/><path d="M1012.6,38.1 H1024.8" stroke="#0178d4" stroke-width="1.8" fill="none"/><path d="M1024.8,38.1 H1037" stroke="#0178d4" stroke-width="1.8" fill="none"/><path d="M1037,38.1 H1049.2" stroke="#0178d4" stroke-width="1.8" fill="none"/><path fill="#c4c5b5" transform="translate(1049.2 44.4) scale(0.0102564 -0.0102564)" d="M312 -246V1646H928V1410H610V-12H928V-246Z"/><path fill="#c4c5b5" transform="translate(1061.4 44.4) scale(0.0102564 -0.0102564)" d="M386 0H44L408 558L78 1062H432L602 722L766 1062H1102L790 570L1156 0H798L588 397Z"/><path fill="#c4c5b5" transform="translate(1073.6 44.4) scale(0.0102564 -0.0102564)" d="M888 1646V-246H272V-10H590V1410H272V1646Z"/><path d="M1091.9,50.3 L1091.9,38.1 L1085.8,38.1" stroke="#0178d4" stroke-width="1.8" fill="none"/><path d="M6.1,50.3 V74.7" stroke="#0178d4" stroke-width="1.8" fill="none"/><path fill="#e0e0e0" transform="translate(12.2 68.8) scale(0.0102564 -0.0102564)" d="M369 1053V307Q369 203 412.0 157.0Q455 111 546 111Q633 111 710.5 160.5Q788 210 831 278V1053H999V0H856L842 142Q780 62 688.5 19.5Q597 -23 505 -23Q352 -23 276.5 58.5Q201 140 201 287V1053Z"/><path fill="#e0e0e0" transform="translate(24.4 68.8) scale(0.0102564 -0.0102564)" d="M559 116Q681 116 751.0 161.0Q821 206 821 283Q821 330 803.5 365.0Q786 400 732.0 428.5Q678 457 566 485Q457 512 376.5 547.5Q296 583 251.5 640.0Q207 697 207 788Q207 921 318.0 998.0Q429 1075 607 1075Q734 1075 828.5 1041.0Q923 1007 989 959L915 845Q856 886 783.5 912.5Q711 939 609 939Q485 939 433.0 900.5Q381 862 381 801Q381 754 406.5 723.5Q432 693 493.0 669.0Q554 645 661 616Q764 588 841.0 550.0Q918 512 960.5 450.5Q1003 389 1003 291Q1003 179 939.0 109.5Q875 40 773.5 8.5Q672 -23 559 -23Q416 -23 315.5 18.5Q215 60 147 119L243 230Q305 179 385.5 147.5Q466 116 559 116Z"/><path fill="#e0e0e0" transform="translate(36.6 68.8) scale(0.0102564 -0.0102564)" d="M333 467Q340 284 429.5 200.5Q519 117 641 117Q722 117 787.0 141.0Q852 165 922 212L1001 101Q928 43 833.0 10.0Q738 -23 639 -23Q485 -23 377.5 46.0Q270 115 213.5 238.5Q157 362 157 525Q157 685 213.5 809.0Q270 933 373.5 1004.0Q477 1075 617 1075Q816 1075 930.5 937.0Q1045 799 1045 559Q1045 532 1043.5 508.0Q1042 484 1041 467ZM619 937Q502 937 423.0 854.0Q344 771 334 597H883Q880 766 809.0 851.5Q738 937 619 937Z"/><path fill="#e0e0e0" transform="translate(48.8 68.8) scale(0.0102564 -0.0102564)" d="M211 0V129H375V924H211V1053H503L534 804Q595 934 682.0 1005.0Q769 1076 912 1076Q956 1076 990.5 1069.5Q1025 1063 1061 1053L1037 697H899V921Q895 921 890 921Q648 921 543 575V129H757V0Z"/><path fill="#e0e0e0" transform="translate(61 68.8) scale(0.0102564 -0.0102564)" d="M567 1399Q722 1399 828.5 1352.5Q935 1306 1002.5 1225.0Q1070 1144 1106.5 1038.0Q1143 932 1157.0 812.0Q1171 692 1171 569Q1171 317 1147.5 150.5Q1124 -16 1061.0 -98.5Q998 -181 877 -181Q815 -181 769.5 -151.0Q724 -121 695.5 -75.5Q667 -30 654.0 18.5Q641 67 642 103H634Q615 57 582.0 12.5Q549 -32 495.0 -61.5Q441 -91 361 -91Q252 -91 185.5 -31.5Q119 28 89.0 131.5Q59 235 59 367Q59 628 162.5 755.5Q266 883 451 883Q521 883 585.0 868.0Q649 853 733 808V217Q733 109 752.0 52.5Q771 -4 803.0 -25.0Q835 -46 874 -46Q937 -46 963.0 36.0Q989 118 994.0 257.0Q999 396 999 567Q999 710 983.0 834.5Q967 959 922.0 1053.0Q877 1147 792.0 1200.0Q707 1253 569 1253Q471 1253 357.0 1217.0Q243 1181 115 1069L19 1181Q153 1298 293.5 1348.5Q434 1399 567 1399ZM459 759Q323 759 272.5 659.5Q222 560 222 367Q222 220 256.0 127.5Q290 35 381 35Q451 35 491.5 67.0Q532 99 553.5 140.5Q575 182 587 211V729Q529 759 459 759Z"/><path fill="#e0e0e0" transform="translate(73.2 68.8) scale(0.0102564 -0.0102564)" d="M369 1493V909Q431 991 521.5 1033.0Q612 1075 705 1075Q859 1075 930.0 993.0Q1001 911 1001 765V0H833V761Q833 856 789.0 899.5Q745 943 651 943Q591 943 537.0 916.0Q483 889 440.0 849.0Q397 809 369 767V0H201V1475Z"/><path fill="#e0e0e0" transform="translate(85.4 68.8) scale(0.0102564 -0.0102564)" d="M602 1075Q825 1075 939.0 926.0Q1053 777 1053 527Q1053 366 1001.0 242.0Q949 118 848.0 47.5Q747 -23 600 -23Q377 -23 262.0 127.0Q147 277 147 525Q147 687 199.0 811.5Q251 936 352.5 1005.5Q454 1075 602 1075ZM602 938Q466 938 396.5 837.0Q327 736 327 525Q327 316 395.5 215.5Q464 115 600 115Q736 115 804.5 216.0Q873 317 873 527Q873 737 805.0 837.5Q737 938 602 938Z"/><path fill="#e0e0e0" transform="translate(97.6 68.8) scale(0.0102564 -0.0102564)" d="M559 116Q681 116 751.0 161.0Q821 206 821 283Q821 330 803.5 365.0Q786 400 732.0 428.5Q678 457 566 485Q457 512 376.5 547.5Q296 583 251.5 640.0Q207 697 207 788Q207 921 318.0 998.0Q429 1075 607 1075Q734 1075 828.5 1041.0Q923 1007 989 959L915 845Q856 886 783.5 912.5Q711 939 609 939Q485 939 433.0 900.5Q381 862 381 801Q381 754 406.5 723.5Q432 693 493.0 669.0Q554 645 661 616Q764 588 841.0 550.0Q918 512 960.5 450.5Q1003 389 1003 291Q1003 179 939.0 109.5Q875 40 773.5 8.5Q672 -23 559 -23Q416 -23 315.5 18.5Q215 60 147 119L243 230Q305 179 385.5 147.5Q466 116 559 116Z"/><path fill="#e0e0e0" transform="translate(109.8 68.8) scale(0.0102564 -0.0102564)" d="M1037 53Q983 17 906.0 -3.0Q829 -23 755 -23Q585 -23 493.0 66.0Q401 155 401 295V923H159V1053H401V1292L569 1312V1053H933L913 923H569V297Q569 209 615.5 163.0Q662 117 770 117Q829 117 879.0 131.0Q929 145 972 167Z"/><path fill="#e0e0e0" transform="translate(134.2 68.8) scale(0.0102564 -0.0102564)" d="M672 1075Q812 1075 895.5 1007.0Q979 939 1016.0 815.5Q1053 692 1053 527Q1053 368 1008.5 243.5Q964 119 874.0 48.0Q784 -23 647 -23Q474 -23 369 99V-403L201 -424V1053H344L358 906Q416 987 496.0 1031.0Q576 1075 672 1075ZM632 940Q545 940 478.0 887.5Q411 835 369 771V249Q410 188 472.5 152.5Q535 117 610 117Q741 117 807.0 217.0Q873 317 873 528Q873 940 632 940Z"/><path fill="#e0e0e0" transform="translate(146.4 68.8) scale(0.0102564 -0.0102564)" d="M1077 1053 707 -7Q670 -114 613.5 -203.0Q557 -292 466.5 -350.5Q376 -409 237 -423L211 -289Q320 -271 383.0 -234.0Q446 -197 482.5 -139.5Q519 -82 547 0H491L123 1053H303L605 128L903 1053Z"/><path fill="#e0e0e0" transform="translate(158.6 68.8) scale(0.0102564 -0.0102564)" d="M1037 53Q983 17 906.0 -3.0Q829 -23 755 -23Q585 -23 493.0 66.0Q401 155 401 295V923H159V1053H401V1292L569 1312V1053H933L913 923H569V297Q569 209 615.5 163.0Q662 117 770 117Q829 117 879.0 131.0Q929 145 972 167Z"/><path fill="#e0e0e0" transform="translate(170.8 68.8) scale(0.0102564 -0.0102564)" d="M895 1075Q945 1075 992.0 1053.0Q1039 1031 1069.0 968.0Q1099 905 1099 784V0H943V757Q943 856 931.0 900.0Q919 944 862 944Q815 944 768.0 914.5Q721 885 678 818V0H521V757Q521 856 509.0 900.0Q497 944 440 944Q391 944 345.0 914.5Q299 885 256 818V0H101V1053H233L243 931Q286 992 339.5 1033.5Q393 1075 472 1075Q532 1075 585.0 1046.5Q638 1018 663 936Q706 998 760.0 1036.5Q814 1075 895 1075Z"/><path fill="#e0e0e0" transform="translate(183 68.8) scale(0.0102564 -0.0102564)" d="M369 1053V307Q369 203 412.0 157.0Q455 111 546 111Q633 111 710.5 160.5Q788 210 831 278V1053H999V0H856L842 142Q780 62 688.5 19.5Q597 -23 505 -23Q352 -23 276.5 58.5Q201 140 201 287V1053Z"/><path fill="#e0e0e0" transform="translate(195.2 68.8) scale(0.0102564 -0.0102564)" d="M303 0H111L500 556L159 1053H358L602 661L849 1053H1041L701 563L1089 0H883L595 452Z"/><path fill="#e0e0e0" transform="translate(219.6 68.8) scale(0.0102564 -0.0102564)" d="M1009 1414 1117 1344 170 -40 65 30ZM332 1399Q426 1399 491.0 1355.0Q556 1311 590.5 1238.0Q625 1165 625 1079Q625 994 590.5 920.0Q556 846 491.0 801.0Q426 756 332 756Q239 756 173.0 801.0Q107 846 72.0 920.0Q37 994 37 1079Q37 1166 72.0 1238.5Q107 1311 173.0 1355.0Q239 1399 332 1399ZM332 1279Q273 1279 232.0 1230.0Q191 1181 191 1079Q191 981 231.0 927.5Q271 874 332 874Q392 874 431.5 923.0Q471 972 471 1079Q471 1187 431.5 1233.0Q392 1279 332 1279ZM872 632Q966 632 1031.0 587.5Q1096 543 1130.5 470.0Q1165 397 1165 311Q1165 226 1130.5 152.5Q1096 79 1031.0 33.5Q966 -12 872 -12Q779 -12 713.0 33.5Q647 79 612.0 152.5Q577 226 577 311Q577 398 612.0 471.0Q647 544 713.0 588.0Q779 632 872 632ZM872 511Q813 511 772.0 463.5Q731 416 731 311Q731 214 771.0 160.0Q811 106 872 106Q932 106 971.5 155.0Q1011 204 1011 311Q1011 419 971.5 465.0Q932 511 872 511Z"/><path fill="#1a1a1a" transform="translate(1049.2 68.8) scale(0.0102564 -0.0102564)" d="M312 -246V1646H928V1410H610V-12H928V-246Z"/><path fill="#1a1a1a" transform="translate(1061.4 68.8) scale(0.0102564 -0.0102564)" d="M514 1152V819H994V589H514V235H1093V0H186V1386H1092L1059 1152Z"/><path fill="#1a1a1a" transform="translate(1073.6 68.8) scale(0.0102564 -0.0102564)" d="M698 0 333 1115Q342 1056 354.0 963.5Q366 871 374.5 758.0Q383 645 383 523V0H104V1386H513L867 277Q851 372 834.0 520.0Q817 668 817 855V1386H1096V0Z"/><path fill="#1a1a1a" transform="translate(1085.8 68.8) scale(0.0102564 -0.0102564)" d="M888 1646V-246H272V-10H590V1410H272V1646Z"/><path d="M6.1,74.7 V99.1" stroke="#0178d4" stroke-width="1.8" fill="none"/><path d="M1091.9,74.7 V99.1" stroke="#0178d4" stroke-width="1.8" fill="none"/><path d="M6.1,99.1 V123.5" stroke="#0178d4" stroke-width="1.8" fill="none"/><path d="M1091.9,99.1 V123.5" stroke="#0178d4" stroke-width="1.8" fill="none"/><path d="M6.1,123.5 V147.9" stroke="#0178d4" stroke-width="1.8" fill="none"/><path d="M1091.9,123.5 V147.9" stroke="#0178d4" stroke-width="1.8" fill="none"/><path d="M6.1,147.9 V172.3" stroke="#0178d4" stroke-width="1.8" fill="none"/><path d="M1091.9,147.9 V172.3" stroke="#0178d4" stroke-width="1.8" fill="none"/><path d="M6.1,172.3 V196.7" stroke="#0178d4" stroke-width="1.8" fill="none"/><path d="M1091.9,172.3 V196.7" stroke="#0178d4" stroke-width="1.8" fill="none"/><path d="M6.1,196.7 V221.1" stroke="#0178d4" stroke-width="1.8" fill="none"/><path d="M1091.9,196.7 V221.1" stroke="#0178d4" stroke-width="1.8" fill="none"/><path d="M6.1,221.1 V245.5" stroke="#0178d4" stroke-width="1.8" fill="none"/><path d="M1091.9,221.1 V245.5" stroke="#0178d4" stroke-width="1.8" fill="none"/><path d="M6.1,245.5 V269.9" stroke="#0178d4" stroke-width="1.8" fill="none"/><path d="M1091.9,245.5 V269.9" stroke="#0178d4" stroke-width="1.8" fill="none"/><path d="M6.1,269.9 V294.3" stroke="#0178d4" stroke-width="1.8" fill="none"/><path d="M1091.9,269.9 V294.3" stroke="#0178d4" stroke-width="1.8" fill="none"/><path d="M6.1,294.3 V318.7" stroke="#0178d4" stroke-width="1.8" fill="none"/><path d="M1091.9,294.3 V318.7" stroke="#0178d4" stroke-width="1.8" fill="none"/><path d="M6.1,318.7 V343.1" stroke="#0178d4" stroke-width="1.8" fill="none"/><path d="M1091.9,318.7 V343.1" stroke="#0178d4" stroke-width="1.8" fill="none"/><path d="M6.1,343.1 V367.5" stroke="#0178d4" stroke-width="1.8" fill="none"/><path d="M1091.9,343.1 V367.5" stroke="#0178d4" stroke-width="1.8" fill="none"/><path d="M6.1,367.5 V391.9" stroke="#0178d4" stroke-width="1.8" fill="none"/><path d="M1091.9,367.5 V391.9" stroke="#0178d4" stroke-width="1.8" fill="none"/><path d="M6.1,391.9 V416.3" stroke="#0178d4" stroke-width="1.8" fill="none"/><path d="M1091.9,391.9 V416.3" stroke="#0178d4" stroke-width="1.8" fill="none"/><path d="M6.1,416.3 V440.7" stroke="#0178d4" stroke-width="1.8" fill="none"/><path d="M1091.9,416.3 V440.7" stroke="#0178d4" stroke-width="1.8" fill="none"/><path d="M6.1,440.7 V465.1" stroke="#0178d4" stroke-width="1.8" fill="none"/><path d="M1091.9,440.7 V465.1" stroke="#0178d4" stroke-width="1.8" fill="none"/><path d="M6.1,465.1 V489.5" stroke="#0178d4" stroke-width="1.8" fill="none"/><path d="M1091.9,465.1 V489.5" stroke="#0178d4" stroke-width="1.8" fill="none"/><path d="M6.1,489.5 V513.9" stroke="#0178d4" stroke-width="1.8" fill="none"/><path d="M1091.9,489.5 V513.9" stroke="#0178d4" stroke-width="1.8" fill="none"/><path d="M6.1,538.3 L6.1,531.59 Q6.1,526.1 11.59,526.1 L12.2,526.1" stroke="#fea62b" stroke-width="1.8" fill="none"/><path d="M12.2,526.1 H24.4" stroke="#fea62b" stroke-width="1.8" fill="none"/><path d="M24.4,526.1 H36.6" stroke="#fea62b" stroke-width="1.8" fill="none"/><path d="M36.6,526.1 H48.8" stroke="#fea62b" stroke-width="1.8" fill="none"/><path d="M48.8,526.1 H61" stroke="#fea62b" stroke-width="1.8" fill="none"/><path d="M61,526.1 H73.2" stroke="#fea62b" stroke-width="1.8" fill="none"/><path d="M73.2,526.1 H85.4" stroke="#fea62b" stroke-width="1.8" fill="none"/><path d="M85.4,526.1 H97.6" stroke="#fea62b" stroke-width="1.8" fill="none"/><path d="M97.6,526.1 H109.8" stroke="#fea62b" stroke-width="1.8" fill="none"/><path d="M109.8,526.1 H122" stroke="#fea62b" stroke-width="1.8" fill="none"/><path d="M122,526.1 H134.2" stroke="#fea62b" stroke-width="1.8" fill="none"/><path d="M134.2,526.1 H146.4" stroke="#fea62b" stroke-width="1.8" fill="none"/><path d="M146.4,526.1 H158.6" stroke="#fea62b" stroke-width="1.8" fill="none"/><path d="M158.6,526.1 H170.8" stroke="#fea62b" stroke-width="1.8" fill="none"/><path d="M170.8,526.1 H183" stroke="#fea62b" stroke-width="1.8" fill="none"/><path d="M183,526.1 H195.2" stroke="#fea62b" stroke-width="1.8" fill="none"/><path d="M195.2,526.1 H207.4" stroke="#fea62b" stroke-width="1.8" fill="none"/><path d="M207.4,526.1 H219.6" stroke="#fea62b" stroke-width="1.8" fill="none"/><path d="M219.6,526.1 H231.8" stroke="#fea62b" stroke-width="1.8" fill="none"/><path d="M231.8,526.1 H244" stroke="#fea62b" stroke-width="1.8" fill="none"/><path d="M244,526.1 H256.2" stroke="#fea62b" stroke-width="1.8" fill="none"/><path d="M256.2,526.1 H268.4" stroke="#fea62b" stroke-width="1.8" fill="none"/><path d="M268.4,526.1 H280.6" stroke="#fea62b" stroke-width="1.8" fill="none"/><path d="M280.6,526.1 H292.8" stroke="#fea62b" stroke-width="1.8" fill="none"/><path d="M292.8,526.1 H305" stroke="#fea62b" stroke-width="1.8" fill="none"/><path d="M305,526.1 H317.2" stroke="#fea62b" stroke-width="1.8" fill="none"/><path d="M317.2,526.1 H329.4" stroke="#fea62b" stroke-width="1.8" fill="none"/><path d="M329.4,526.1 H341.6" stroke="#fea62b" stroke-width="1.8" fill="none"/><path d="M341.6,526.1 H353.8" stroke="#fea62b" stroke-width="1.8" fill="none"/><path d="M353.8,526.1 H366" stroke="#fea62b" stroke-width="1.8" fill="none"/><path d="M366,526.1 H378.2" stroke="#fea62b" stroke-width="1.8" fill="none"/><path d="M378.2,526.1 H390.4" stroke="#fea62b" stroke-width="1.8" fill="none"/><path d="M390.4,526.1 H402.6" stroke="#fea62b" stroke-width="1.8" fill="none"/><path d="M402.6,526.1 H414.8" stroke="#fea62b" stroke-width="1.8" fill="none"/><path d="M414.8,526.1 H427" stroke="#fea62b" stroke-width="1.8" fill="none"/><path d="M427,526.1 H439.2" stroke="#fea62b" stroke-width="1.8" fill="none"/><path d="M439.2,526.1 H451.4" stroke="#fea62b" stroke-width="1.8" fill="none"/><path d="M451.4,526.1 H463.6" stroke="#fea62b" stroke-width="1.8" fill="none"/><path d="M463.6,526.1 H475.8" stroke="#fea62b" stroke-width="1.8" fill="none"/><path d="M475.8,526.1 H488" stroke="#fea62b" stroke-width="1.8" fill="none"/><path d="M488,526.1 H500.2" stroke="#fea62b" stroke-width="1.8" fill="none"/><path d="M500.2,526.1 H512.4" stroke="#fea62b" stroke-width="1.8" fill="none"/><path d="M512.4,526.1 H524.6" stroke="#fea62b" stroke-width="1.8" fill="none"/><path d="M524.6,526.1 H536.8" stroke="#fea62b" stroke-width="1.8" fill="none"/><path d="M536.8,526.1 H549" stroke="#fea62b" stroke-width="1.8" fill="none"/><path d="M549,526.1 H561.2" stroke="#fea62b" stroke-width="1.8" fill="none"/><path d="M561.2,526.1 H573.4" stroke="#fea62b" stroke-width="1.8" fill="none"/><path d="M573.4,526.1 H585.6" stroke="#fea62b" stroke-width="1.8" fill="none"/><path d="M585.6,526.1 H597.8" stroke="#fea62b" stroke-width="1.8" fill="none"/><path d="M597.8,526.1 H610" stroke="#fea62b" stroke-width="1.8" fill="none"/><path d="M610,526.1 H622.2" stroke="#fea62b" stroke-width="1.8" fill="none"/><path d="M622.2,526.1 H634.4" stroke="#fea62b" stroke-width="1.8" fill="none"/><path d="M634.4,526.1 H646.6" stroke="#fea62b" stroke-width="1.8" fill="none"/><path d="M646.6,526.1 H658.8" stroke="#fea62b" stroke-width="1.8" fill="none"/><path d="M658.8,526.1 H671" stroke="#fea62b" stroke-width="1.8" fill="none"/><path d="M671,526.1 H683.2" stroke="#fea62b" stroke-width="1.8" fill="none"/><path d="M683.2,526.1 H695.4" stroke="#fea62b" stroke-width="1.8" fill="none"/><path d="M695.4,526.1 H707.6" stroke="#fea62b" stroke-width="1.8" fill="none"/><path d="M707.6,526.1 H719.8" stroke="#fea62b" stroke-width="1.8" fill="none"/><path d="M719.8,526.1 H732" stroke="#fea62b" stroke-width="1.8" fill="none"/><path d="M732,526.1 H744.2" stroke="#fea62b" stroke-width="1.8" fill="none"/><path d="M744.2,526.1 H756.4" stroke="#fea62b" stroke-width="1.8" fill="none"/><path d="M756.4,526.1 H768.6" stroke="#fea62b" stroke-width="1.8" fill="none"/><path d="M768.6,526.1 H780.8" stroke="#fea62b" stroke-width="1.8" fill="none"/><path d="M780.8,526.1 H793" stroke="#fea62b" stroke-width="1.8" fill="none"/><path d="M793,526.1 H805.2" stroke="#fea62b" stroke-width="1.8" fill="none"/><path d="M805.2,526.1 H817.4" stroke="#fea62b" stroke-width="1.8" fill="none"/><path d="M817.4,526.1 H829.6" stroke="#fea62b" stroke-width="1.8" fill="none"/><path d="M829.6,526.1 H841.8" stroke="#fea62b" stroke-width="1.8" fill="none"/><path d="M841.8,526.1 H854" stroke="#fea62b" stroke-width="1.8" fill="none"/><path d="M854,526.1 H866.2" stroke="#fea62b" stroke-width="1.8" fill="none"/><path d="M866.2,526.1 H878.4" stroke="#fea62b" stroke-width="1.8" fill="none"/><path d="M878.4,526.1 H890.6" stroke="#fea62b" stroke-width="1.8" fill="none"/><path d="M890.6,526.1 H902.8" stroke="#fea62b" stroke-width="1.8" fill="none"/><path d="M902.8,526.1 H915" stroke="#fea62b" stroke-width="1.8" fill="none"/><path d="M915,526.1 H927.2" stroke="#fea62b" stroke-width="1.8" fill="none"/><path d="M927.2,526.1 H939.4" stroke="#fea62b" stroke-width="1.8" fill="none"/><path d="M939.4,526.1 H951.6" stroke="#fea62b" stroke-width="1.8" fill="none"/><path d="M951.6,526.1 H963.8" stroke="#fea62b" stroke-width="1.8" fill="none"/><path d="M963.8,526.1 H976" stroke="#fea62b" stroke-width="1.8" fill="none"/><path d="M976,526.1 H988.2" stroke="#fea62b" stroke-width="1.8" fill="none"/><path d="M988.2,526.1 H1000.4" stroke="#fea62b" stroke-width="1.8" fill="none"/><path d="M1000.4,526.1 H1012.6" stroke="#fea62b" stroke-width="1.8" fill="none"/><path d="M1012.6,526.1 H1024.8" stroke="#fea62b" stroke-width="1.8" fill="none"/><path d="M1024.8,526.1 H1037" stroke="#fea62b" stroke-width="1.8" fill="none"/><path d="M1037,526.1 H1049.2" stroke="#fea62b" stroke-width="1.8" fill="none"/><path d="M1049.2,526.1 H1061.4" stroke="#fea62b" stroke-width="1.8" fill="none"/><path d="M1061.4,526.1 H1073.6" stroke="#fea62b" stroke-width="1.8" fill="none"/><path d="M1073.6,526.1 H1085.8" stroke="#fea62b" stroke-width="1.8" fill="none"/><path d="M1091.9,538.3 L1091.9,531.59 Q1091.9,526.1 1086.41,526.1 L1085.8,526.1" stroke="#fea62b" stroke-width="1.8" fill="none"/><path d="M6.1,538.3 V562.7" stroke="#fea62b" stroke-width="1.8" fill="none"/><path fill="#a7abaf" transform="translate(170.8 556.8) scale(0.0102564 -0.0102564)" d="M425 1235V771H935V628H425V139H1051V0H251V1377H1033L1013 1235Z"/><path fill="#a7abaf" transform="translate(183 556.8) scale(0.0102564 -0.0102564)" d="M201 0V1053H344L357 907Q421 988 517.0 1031.5Q613 1075 705 1075Q860 1075 930.5 993.0Q1001 911 1001 765V0H833V641Q833 749 821.0 815.0Q809 881 770.5 912.0Q732 943 653 943Q591 943 536.5 916.0Q482 889 439.5 848.5Q397 808 369 767V0Z"/><path fill="#a7abaf" transform="translate(195.2 556.8) scale(0.0102564 -0.0102564)" d="M1037 53Q983 17 906.0 -3.0Q829 -23 755 -23Q585 -23 493.0 66.0Q401 155 401 295V923H159V1053H401V1292L569 1312V1053H933L913 923H569V297Q569 209 615.5 163.0Q662 117 770 117Q829 117 879.0 131.0Q929 145 972 167Z"/><path fill="#a7abaf" transform="translate(207.4 556.8) scale(0.0102564 -0.0102564)" d="M333 467Q340 284 429.5 200.5Q519 117 641 117Q722 117 787.0 141.0Q852 165 922 212L1001 101Q928 43 833.0 10.0Q738 -23 639 -23Q485 -23 377.5 46.0Q270 115 213.5 238.5Q157 362 157 525Q157 685 213.5 809.0Q270 933 373.5 1004.0Q477 1075 617 1075Q816 1075 930.5 937.0Q1045 799 1045 559Q1045 532 1043.5 508.0Q1042 484 1041 467ZM619 937Q502 937 423.0 854.0Q344 771 334 597H883Q880 766 809.0 851.5Q738 937 619 937Z"/><path fill="#a7abaf" transform="translate(219.6 556.8) scale(0.0102564 -0.0102564)" d="M211 0V129H375V924H211V1053H503L534 804Q595 934 682.0 1005.0Q769 1076 912 1076Q956 1076 990.5 1069.5Q1025 1063 1061 1053L1037 697H899V921Q895 921 890 921Q648 921 543 575V129H757V0Z"/><path fill="#a7abaf" transform="translate(245.22 560.185) scale(0.0253873 -0.0253873)" d="M63 663H260C260 624 260 605 259 593C255 478 145 367 35 324L79 265C173 306 274 401 298 482C334 403 427 320 510 286L553 347C453 380 345 480 338 592C337 605 337 623 337 663H533V727H63ZM752 164V804H676V561H502V497H676V164ZM771 -41V23H258V228H182V-41Z"/><path fill="#a7abaf" transform="translate(269.62 559.652) scale(0.0253873 -0.0253873)" d="M733 84C733 185 624 241 432 241C241 241 133 181 133 84C133 -14 241 -72 432 -72C624 -72 733 -16 733 84ZM432 178C571 178 655 143 655 84C655 25 571 -9 432 -9C295 -9 211 25 211 84C211 143 295 178 432 178ZM827 313V377H470V511H394V377H38V313ZM789 527C658 540 473 640 473 763V793H394V763C394 640 226 542 79 526L115 462C265 489 397 581 432 665C474 581 609 489 754 462Z"/><path fill="#a7abaf" transform="translate(305 556.8) scale(0.0102564 -0.0102564)" d="M423 684Q423 757 473.0 808.0Q523 859 598 859Q674 859 724.5 808.0Q775 757 775 684Q775 610 724.5 558.5Q674 507 598 507Q523 507 473.0 558.5Q423 610 423 684Z"/><path fill="#a7abaf" transform="translate(329.4 556.8) scale(0.0102564 -0.0102564)" d="M1073 381Q1073 262 1014.0 171.0Q955 80 842.5 28.5Q730 -23 570 -23Q419 -23 296.5 23.0Q174 69 87 153L190 269Q261 202 354.0 162.5Q447 123 573 123Q657 123 730.0 150.5Q803 178 848.0 234.5Q893 291 893 378Q893 444 867.0 491.5Q841 539 775.0 575.5Q709 612 591 647Q455 687 355.5 737.5Q256 788 201.5 861.5Q147 935 147 1045Q147 1148 204.0 1228.0Q261 1308 361.5 1353.5Q462 1399 593 1399Q736 1399 841.5 1358.5Q947 1318 1033 1242L931 1129Q857 1194 772.0 1224.0Q687 1254 599 1254Q486 1254 405.0 1204.0Q324 1154 324 1051Q324 991 356.0 948.5Q388 906 464.0 870.0Q540 834 671 796Q778 765 869.5 718.5Q961 672 1017.0 592.5Q1073 513 1073 381Z"/><path fill="#a7abaf" transform="translate(341.6 556.8) scale(0.0102564 -0.0102564)" d="M369 1493V909Q431 991 521.5 1033.0Q612 1075 705 1075Q859 1075 930.0 993.0Q1001 911 1001 765V0H833V761Q833 856 789.0 899.5Q745 943 651 943Q591 943 537.0 916.0Q483 889 440.0 849.0Q397 809 369 767V0H201V1475Z"/><path fill="#a7abaf" transform="translate(353.8 556.8) scale(0.0102564 -0.0102564)" d="M600 1546Q656 1546 689.5 1512.0Q723 1478 723 1429Q723 1378 689.5 1343.5Q656 1309 600 1309Q547 1309 513.0 1343.5Q479 1378 479 1429Q479 1478 513.0 1512.0Q547 1546 600 1546ZM734 1053V133H1031V0H241V133H566V920H251V1053Z"/><path fill="#a7abaf" transform="translate(366 556.8) scale(0.0102564 -0.0102564)" d="M823 1498Q908 1498 977.0 1483.0Q1046 1468 1108 1441L1054 1316Q1003 1338 945.5 1349.0Q888 1360 828 1360Q607 1360 607 1185V971H964L946 839H607V0H439V839H188V971H439V1181Q439 1279 489.5 1350.0Q540 1421 627.0 1459.5Q714 1498 823 1498Z"/><path fill="#a7abaf" transform="translate(378.2 556.8) scale(0.0102564 -0.0102564)" d="M1037 53Q983 17 906.0 -3.0Q829 -23 755 -23Q585 -23 493.0 66.0Q401 155 401 295V923H159V1053H401V1292L569 1312V1053H933L913 923H569V297Q569 209 615.5 163.0Q662 117 770 117Q829 117 879.0 131.0Q929 145 972 167Z"/><path fill="#a7abaf" transform="translate(390.4 556.8) scale(0.0102564 -0.0102564)" d="M676 1091V692H1069V551H676V155H519V551H131V692H519V1091Z"/><path fill="#a7abaf" transform="translate(402.6 556.8) scale(0.0102564 -0.0102564)" d="M425 1235V771H935V628H425V139H1051V0H251V1377H1033L1013 1235Z"/><path fill="#a7abaf" transform="translate(414.8 556.8) scale(0.0102564 -0.0102564)" d="M201 0V1053H344L357 907Q421 988 517.0 1031.5Q613 1075 705 1075Q860 1075 930.5 993.0Q1001 911 1001 765V0H833V641Q833 749 821.0 815.0Q809 881 770.5 912.0Q732 943 653 943Q591 943 536.5 916.0Q482 889 439.5 848.5Q397 808 369 767V0Z"/><path fill="#a7abaf" transform="translate(427 556.8) scale(0.0102564 -0.0102564)" d="M1037 53Q983 17 906.0 -3.0Q829 -23 755 -23Q585 -23 493.0 66.0Q401 155 401 295V923H159V1053H401V1292L569 1312V1053H933L913 923H569V297Q569 209 615.5 163.0Q662 117 770 117Q829 117 879.0 131.0Q929 145 972 167Z"/><path fill="#a7abaf" transform="translate(439.2 556.8) scale(0.0102564 -0.0102564)" d="M333 467Q340 284 429.5 200.5Q519 117 641 117Q722 117 787.0 141.0Q852 165 922 212L1001 101Q928 43 833.0 10.0Q738 -23 639 -23Q485 -23 377.5 46.0Q270 115 213.5 238.5Q157 362 157 525Q157 685 213.5 809.0Q270 933 373.5 1004.0Q477 1075 617 1075Q816 1075 930.5 937.0Q1045 799 1045 559Q1045 532 1043.5 508.0Q1042 484 1041 467ZM619 937Q502 937 423.0 854.0Q344 771 334 597H883Q880 766 809.0 851.5Q738 937 619 937Z"/><path fill="#a7abaf" transform="translate(451.4 556.8) scale(0.0102564 -0.0102564)" d="M211 0V129H375V924H211V1053H503L534 804Q595 934 682.0 1005.0Q769 1076 912 1076Q956 1076 990.5 1069.5Q1025 1063 1061 1053L1037 697H899V921Q895 921 890 921Q648 921 543 575V129H757V0Z"/><path fill="#a7abaf" transform="translate(477.02 559.474) scale(0.0253873 -0.0253873)" d="M760 -58V5H208V84H730V278H469V365H827V427H38V365H393V278H132V217H654V141H132V-58ZM786 535C665 546 507 603 478 702H753V765H112V702H389C364 601 217 546 82 534L116 472C260 491 399 558 432 637C476 559 611 494 751 471Z"/><path fill="#a7abaf" transform="translate(501.42 559.817) scale(0.0253873 -0.0253873)" d="M852 392V457H710V804H634V-70H710V392ZM478 147V730H401V508H143V730H67V147ZM401 211H143V445H401Z"/><path fill="#a7abaf" transform="translate(525.82 559.525) scale(0.0253873 -0.0253873)" d="M735 769H468V706H657C657 631 648 540 628 465H364C384 550 399 669 399 769H118V706H321C321 633 305 531 288 465H38V402H394V251H139V-58H727V251H470V402H827V465H704C723 556 737 673 735 769ZM650 5H215V189H650Z"/><path fill="#a7abaf" transform="translate(561.2 556.8) scale(0.0102564 -0.0102564)" d="M423 684Q423 757 473.0 808.0Q523 859 598 859Q674 859 724.5 808.0Q775 757 775 684Q775 610 724.5 558.5Q674 507 598 507Q523 507 473.0 558.5Q423 610 423 684Z"/><path fill="#a7abaf" transform="translate(585.6 556.8) scale(0.0102564 -0.0102564)" d="M425 1235V771H935V628H425V139H1051V0H251V1377H1033L1013 1235Z"/><path fill="#a7abaf" transform="translate(597.8 556.8) scale(0.0102564 -0.0102564)" d="M559 116Q681 116 751.0 161.0Q821 206 821 283Q821 330 803.5 365.0Q786 400 732.0 428.5Q678 457 566 485Q457 512 376.5 547.5Q296 583 251.5 640.0Q207 697 207 788Q207 921 318.0 998.0Q429 1075 607 1075Q734 1075 828.5 1041.0Q923 1007 989 959L915 845Q856 886 783.5 912.5Q711 939 609 939Q485 939 433.0 900.5Q381 862 381 801Q381 754 406.5 723.5Q432 693 493.0 669.0Q554 645 661 616Q764 588 841.0 550.0Q918 512 960.5 450.5Q1003 389 1003 291Q1003 179 939.0 109.5Q875 40 773.5 8.5Q672 -23 559 -23Q416 -23 315.5 18.5Q215 60 147 119L243 230Q305 179 385.5 147.5Q466 116 559 116Z"/><path fill="#a7abaf" transform="translate(610 556.8) scale(0.0102564 -0.0102564)" d="M677 122Q756 122 824.5 147.5Q893 173 951 214L1033 104Q964 45 867.0 11.0Q770 -23 677 -23Q520 -23 409.5 44.5Q299 112 241.0 234.5Q183 357 183 522Q183 680 241.0 805.0Q299 930 410.0 1002.5Q521 1075 679 1075Q880 1075 1031 953L949 841Q812 935 677 935Q541 935 453.0 832.5Q365 730 365 522Q365 311 453.0 216.5Q541 122 677 122Z"/><path fill="#a7abaf" transform="translate(635.62 559.817) scale(0.0253873 -0.0253873)" d="M411 160V414H534V-26H608V783H534V478H411V708H64V160ZM337 223H138V645H337ZM775 -70V804H700V-70Z"/><path fill="#a7abaf" transform="translate(660.02 559.233) scale(0.0253873 -0.0253873)" d="M320 -71V252H542V-71H619V252H827V316H38V252H243V-71ZM728 450V514H219V759H143V450Z"/><path fill="#a7abaf" transform="translate(695.4 556.8) scale(0.0102564 -0.0102564)" d="M423 684Q423 757 473.0 808.0Q523 859 598 859Q674 859 724.5 808.0Q775 757 775 684Q775 610 724.5 558.5Q674 507 598 507Q523 507 473.0 558.5Q423 610 423 684Z"/><path fill="#a7abaf" transform="translate(719.8 556.8) scale(0.0102564 -0.0102564)" d="M1073 381Q1073 262 1014.0 171.0Q955 80 842.5 28.5Q730 -23 570 -23Q419 -23 296.5 23.0Q174 69 87 153L190 269Q261 202 354.0 162.5Q447 123 573 123Q657 123 730.0 150.5Q803 178 848.0 234.5Q893 291 893 378Q893 444 867.0 491.5Q841 539 775.0 575.5Q709 612 591 647Q455 687 355.5 737.5Q256 788 201.5 861.5Q147 935 147 1045Q147 1148 204.0 1228.0Q261 1308 361.5 1353.5Q462 1399 593 1399Q736 1399 841.5 1358.5Q947 1318 1033 1242L931 1129Q857 1194 772.0 1224.0Q687 1254 599 1254Q486 1254 405.0 1204.0Q324 1154 324 1051Q324 991 356.0 948.5Q388 906 464.0 870.0Q540 834 671 796Q778 765 869.5 718.5Q961 672 1017.0 592.5Q1073 513 1073 381Z"/><path fill="#a7abaf" transform="translate(732 556.8) scale(0.0102564 -0.0102564)" d="M369 1493V909Q431 991 521.5 1033.0Q612 1075 705 1075Q859 1075 930.0 993.0Q1001 911 1001 765V0H833V761Q833 856 789.0 899.5Q745 943 651 943Q591 943 537.0 916.0Q483 889 440.0 849.0Q397 809 369 767V0H201V1475Z"/><path fill="#a7abaf" transform="translate(744.2 556.8) scale(0.0102564 -0.0102564)" d="M600 1546Q656 1546 689.5 1512.0Q723 1478 723 1429Q723 1378 689.5 1343.5Q656 1309 600 1309Q547 1309 513.0 1343.5Q479 1378 479 1429Q479 1478 513.0 1512.0Q547 1546 600 1546ZM734 1053V133H1031V0H241V133H566V920H251V1053Z"/><path fill="#a7abaf" transform="translate(756.4 556.8) scale(0.0102564 -0.0102564)" d="M823 1498Q908 1498 977.0 1483.0Q1046 1468 1108 1441L1054 1316Q1003 1338 945.5 1349.0Q888 1360 828 1360Q607 1360 607 1185V971H964L946 839H607V0H439V839H188V971H439V1181Q439 1279 489.5 1350.0Q540 1421 627.0 1459.5Q714 1498 823 1498Z"/><path fill="#a7abaf" transform="translate(768.6 556.8) scale(0.0102564 -0.0102564)" d="M1037 53Q983 17 906.0 -3.0Q829 -23 755 -23Q585 -23 493.0 66.0Q401 155 401 295V923H159V1053H401V1292L569 1312V1053H933L913 923H569V297Q569 209 615.5 163.0Q662 117 770 117Q829 117 879.0 131.0Q929 145 972 167Z"/><path fill="#a7abaf" transform="translate(780.8 556.8) scale(0.0102564 -0.0102564)" d="M676 1091V692H1069V551H676V155H519V551H131V692H519V1091Z"/><path fill="#a7abaf" transform="translate(794.22 559.843) scale(0.0253873 -0.0253873)" d="M843 511V574H710V804H634V282H710V511ZM719 98C719 198 620 264 432 264C248 264 148 198 148 98C148 -3 248 -68 432 -68C616 -68 719 -3 719 98ZM432 202C566 202 641 162 641 98C641 34 566 -6 432 -6C304 -6 227 34 227 98C227 161 302 202 432 202ZM477 341V757H400V613H143V757H67V341ZM400 404H143V550H400Z"/><path fill="#a7abaf" transform="translate(818.62 559.792) scale(0.0253873 -0.0253873)" d="M720 79C720 173 619 232 430 232C241 232 141 174 141 79C141 -15 241 -72 430 -72C619 -72 720 -14 720 79ZM496 417C496 507 407 561 290 561C171 561 83 507 83 417C83 330 172 274 290 274C407 274 496 330 496 417ZM430 167C562 167 641 135 641 79C641 23 562 -8 430 -8C298 -8 220 24 220 79C220 134 298 167 430 167ZM843 452H710V568H843V632H710V804H634V252H710V388H843ZM421 417C421 367 359 334 290 334C222 334 157 367 157 417C157 470 221 501 290 501C359 501 421 470 421 417ZM543 599V662H28V599ZM415 721V785H159V721Z"/><path fill="#a7abaf" transform="translate(843.02 559.817) scale(0.0253873 -0.0253873)" d="M512 714H101V651H432C430 599 421 550 406 504L63 484L79 415L381 441C318 311 202 213 58 151L107 93C347 209 509 398 512 714ZM757 -70V804H681V-70Z"/><path fill="#a7abaf" transform="translate(866.2 556.8) scale(0.0102564 -0.0102564)" d="M241 -206 105 -146 961 1619 1095 1553Z"/><path fill="#a7abaf" transform="translate(878.4 556.8) scale(0.0102564 -0.0102564)" d="M716 1399Q851 1399 942.0 1365.0Q1033 1331 1115 1265L1018 1152Q953 1207 880.5 1230.5Q808 1254 729 1254Q616 1254 520.0 1200.5Q424 1147 365.5 1023.5Q307 900 307 689Q307 484 362.5 360.0Q418 236 513.0 181.0Q608 126 725 126Q840 126 915.5 161.0Q991 196 1045 241L1135 127Q1072 66 971.0 21.5Q870 -23 723 -23Q555 -23 420.0 58.5Q285 140 206.0 299.0Q127 458 127 689Q127 921 207.5 1079.5Q288 1238 422.0 1318.5Q556 1399 716 1399Z"/><path fill="#a7abaf" transform="translate(890.6 556.8) scale(0.0102564 -0.0102564)" d="M1037 53Q983 17 906.0 -3.0Q829 -23 755 -23Q585 -23 493.0 66.0Q401 155 401 295V923H159V1053H401V1292L569 1312V1053H933L913 923H569V297Q569 209 615.5 163.0Q662 117 770 117Q829 117 879.0 131.0Q929 145 972 167Z"/><path fill="#a7abaf" transform="translate(902.8 556.8) scale(0.0102564 -0.0102564)" d="M211 0V129H375V924H211V1053H503L534 804Q595 934 682.0 1005.0Q769 1076 912 1076Q956 1076 990.5 1069.5Q1025 1063 1061 1053L1037 697H899V921Q895 921 890 921Q648 921 543 575V129H757V0Z"/><path fill="#a7abaf" transform="translate(915 556.8) scale(0.0102564 -0.0102564)" d="M611 1477V260Q611 182 659.5 149.5Q708 117 785 117Q832 117 875.5 127.0Q919 137 962 154L1007 31Q964 10 900.5 -6.5Q837 -23 757 -23Q617 -23 530.0 54.5Q443 132 443 269V1344H120V1477Z"/><path fill="#a7abaf" transform="translate(927.2 556.8) scale(0.0102564 -0.0102564)" d="M676 1091V692H1069V551H676V155H519V551H131V692H519V1091Z"/><path fill="#a7abaf" transform="translate(939.4 556.8) scale(0.0102564 -0.0102564)" d="M867 351H322L212 0H41L489 1377H711L1159 0H977ZM367 495H822L596 1231Z"/><path fill="#a7abaf" transform="translate(965.02 560.16) scale(0.0253873 -0.0253873)" d="M752 169V804H676V583H490V519H676V169ZM771 -43V20H266V224H190V-43ZM549 359C446 397 329 502 329 648V754H252V645C252 504 146 385 30 334L77 275C172 323 266 418 292 512C329 420 418 338 506 299Z"/><path fill="#a7abaf" transform="translate(989.42 559.817) scale(0.0253873 -0.0253873)" d="M775 281V804H699V574H588V788H515V286H588V511H699V281ZM154 396V511H403V572H154V676H417V739H79V331H135C255 331 373 338 459 355L448 418C380 403 279 396 179 396ZM185 235V171H698V-70H775V235Z"/><path fill="#000000" transform="translate(1024.8 556.8) scale(0.0102564 -0.0102564)" d="M312 -246V1646H928V1410H610V-12H928V-246Z"/><path fill="#000000" transform="translate(1037 556.8) scale(0.0102564 -0.0102564)" d="M514 1152V819H994V589H514V235H1093V0H186V1386H1092L1059 1152Z"/><path fill="#000000" transform="translate(1049.2 556.8) scale(0.0102564 -0.0102564)" d="M698 0 333 1115Q342 1056 354.0 963.5Q366 871 374.5 758.0Q383 645 383 523V0H104V1386H513L867 277Q851 372 834.0 520.0Q817 668 817 855V1386H1096V0Z"/><path fill="#000000" transform="translate(1061.4 556.8) scale(0.0102564 -0.0102564)" d="M888 1646V-246H272V-10H590V1410H272V1646Z"/><path d="M1091.9,538.3 V562.7" stroke="#fea62b" stroke-width="1.8" fill="none"/><path d="M6.1,562.7 V587.1" stroke="#fea62b" stroke-width="1.8" fill="none"/><path fill="#e0e0e0" transform="translate(37.82 584.217) scale(0.0253873 -0.0253873)" d="M757 -70V804H681V-70ZM67 430C67 244 149 120 292 120C437 120 518 244 518 429C518 614 437 738 292 738C149 738 67 614 67 430ZM446 429C446 286 385 186 292 186C200 186 139 286 139 429C139 573 200 672 292 672C385 672 446 573 446 429Z"/><path fill="#e0e0e0" transform="translate(74.42 584.636) scale(0.0253873 -0.0253873)" d="M827 41V105H469V314H730V726H133V314H393V105H38V41ZM654 377H209V663H654Z"/><path fill="#e0e0e0" transform="translate(98.82 583.874) scale(0.0253873 -0.0253873)" d="M756 -62V2H213V83H723V281H609V377H827V440H38V377H251V281H131V218H647V143H137V-62ZM728 512V575H217V706H724V769H141V512ZM327 377H533V281H327Z"/><path fill="#e0e0e0" transform="translate(123.22 584.217) scale(0.0253873 -0.0253873)" d="M680 804V-70H756V804ZM542 528C542 656 444 736 315 736C188 736 87 651 87 528C87 411 186 325 315 325C441 325 542 404 542 528ZM468 528C468 446 398 389 315 389C230 389 161 447 161 528C161 610 231 671 315 671C400 671 468 616 468 528ZM629 152 622 214C558 206 445 199 323 195C217 189 114 187 39 188L53 121C119 122 215 125 318 130C429 135 554 143 629 152Z"/><path fill="#e0e0e0" transform="translate(159.82 583.709) scale(0.0253873 -0.0253873)" d="M744 95C744 193 635 253 431 253C227 253 116 193 116 95C116 -3 227 -62 431 -62C635 -62 744 -3 744 95ZM669 95C669 34 577 -1 431 -1C283 -1 192 34 192 95C192 155 283 191 431 191C577 191 669 155 669 95ZM827 324V387H439V572H363V387H38V324ZM734 756H125V693H656L655 622C654 582 648 503 634 455L709 445C723 499 734 605 734 678Z"/><path fill="#e0e0e0" transform="translate(184.22 584.217) scale(0.0253873 -0.0253873)" d="M775 -70V804H700V460H586V783H511V-26H586V397H700V-70ZM415 701H65V637H335C327 459 220 273 35 168L86 112C293 237 412 441 415 701Z"/><path fill="#e0e0e0" transform="translate(219.6 581.2) scale(0.0102564 -0.0102564)" d="M867 351H322L212 0H41L489 1377H711L1159 0H977ZM367 495H822L596 1231Z"/><path fill="#e0e0e0" transform="translate(231.8 581.2) scale(0.0102564 -0.0102564)" d="M1114 954Q1114 793 1045.5 696.0Q977 599 857.0 555.0Q737 511 581 511H405V0H231V1377H583Q829 1377 971.5 1274.0Q1114 1171 1114 954ZM928 952Q928 1058 886.0 1121.0Q844 1184 770.5 1211.5Q697 1239 604 1239H405V651H597Q693 651 768.0 677.0Q843 703 885.5 768.5Q928 834 928 952Z"/><path fill="#e0e0e0" transform="translate(244 581.2) scale(0.0102564 -0.0102564)" d="M994 1377V1238H688V139H994V0H206V139H512V1238H206V1377Z"/><path fill="#e0e0e0" transform="translate(269.62 584.052) scale(0.0253873 -0.0253873)" d="M827 338V397H38V338ZM761 -54V6H205V86H734V269H130V213H658V140H129V-54ZM746 466V523H214V592H729V775H137V715H653V647H138V466Z"/><path fill="#e0e0e0" transform="translate(306.22 584.217) scale(0.0253873 -0.0253873)" d="M759 96C759 199 653 263 465 263C278 263 173 199 173 96C173 -6 278 -70 465 -70C653 -70 759 -6 759 96ZM61 667H260C260 651 260 630 259 620C255 496 144 385 34 343L75 282C169 323 274 428 298 510C334 431 428 349 519 313L564 374C457 406 345 501 338 620C337 630 337 650 337 667H534V731H61ZM465 199C602 199 681 162 681 96C681 31 602 -6 465 -6C331 -6 250 31 250 96C250 162 331 199 465 199ZM676 513V261H752V804H676V577H500V513Z"/><path fill="#e0e0e0" transform="translate(330.62 584.217) scale(0.0253873 -0.0253873)" d="M680 804V-70H756V804ZM600 231C494 212 321 204 182 204H161V413H493V723H81V660H416V476H85V139H174C366 139 516 154 607 168Z"/><path fill="#e0e0e0" transform="translate(355.02 584.217) scale(0.0253873 -0.0253873)" d="M775 -70V804H700V447H595V783H521V-26H595V383H700V-70ZM455 303C455 408 377 478 264 478C152 478 73 409 73 303C73 203 152 129 264 129C377 129 455 198 455 303ZM382 303C382 237 333 192 264 192C195 192 147 235 147 303C147 370 195 414 264 414C333 414 382 370 382 303ZM471 528V591H36V528ZM377 671V737H138V671Z"/><path fill="#e0e0e0" transform="translate(379.42 584.217) scale(0.0253873 -0.0253873)" d="M755 -70V804H679V492H475V428H679V-70ZM561 197C441 267 337 409 337 569V728H258V566C258 411 157 256 30 176L80 119C181 192 267 300 298 409C333 304 434 193 514 139Z"/><path fill="#e0e0e0" transform="translate(416.02 584.217) scale(0.0253873 -0.0253873)" d="M851 387V451H710V804H634V-70H710V387ZM551 201C430 272 320 415 320 574V727H242V572C242 417 139 260 12 182L61 123C164 195 249 306 280 415C315 309 413 205 503 143Z"/><path fill="#e0e0e0" transform="translate(440.42 584.039) scale(0.0253873 -0.0253873)" d="M738 620C738 720 624 785 432 785C241 785 128 720 128 620C128 562 167 515 239 487V362H38V299H827V362H623V486C697 514 738 561 738 620ZM744 89C744 189 626 244 433 244C242 244 125 189 125 89C125 -11 242 -65 434 -65C626 -65 744 -11 744 89ZM664 620C664 557 572 518 432 518C292 518 202 557 202 620C202 685 292 724 432 724C572 724 664 685 664 620ZM433 178C574 178 667 147 667 89C667 32 575 1 433 1C294 1 201 32 201 89C201 147 294 178 433 178ZM432 457C475 457 512 460 547 465V362H315V466C350 460 389 457 432 457Z"/><path fill="#e0e0e0" transform="translate(477.02 584.217) scale(0.0253873 -0.0253873)" d="M238 733C110 733 45 607 45 429C45 249 110 124 238 124C320 124 375 175 405 259H530V-26H604V787H530V596H405C376 681 320 733 238 733ZM357 429C357 281 311 190 238 190C164 190 119 281 119 429C119 574 164 667 238 667C311 667 357 574 357 429ZM775 -70V804H700V-70ZM530 532V323H421C427 354 431 390 431 429C431 465 428 500 422 532Z"/><path fill="#e0e0e0" transform="translate(501.42 584.217) scale(0.0253873 -0.0253873)" d="M758 -70V804H681V-70ZM570 198C449 270 343 413 343 573V728H266V570C266 415 161 256 33 176L83 119C184 191 274 298 306 407C340 302 443 194 522 140Z"/><path fill="#e0e0e0" transform="translate(525.82 584.217) scale(0.0253873 -0.0253873)" d="M299 747C164 747 62 663 62 536C62 420 146 343 262 330V184C173 180 88 180 23 180L37 113C110 113 196 116 292 121C398 128 518 137 587 147L581 208C525 200 436 194 338 188V330C453 345 537 422 537 537C537 664 434 747 299 747ZM299 682C398 682 462 625 462 535C462 448 397 392 299 392C205 392 136 448 136 536C136 625 204 682 299 682ZM852 374V438H712V804H635V-70H712V374Z"/><path d="M1091.9,562.7 V587.1" stroke="#fea62b" stroke-width="1.8" fill="none"/><path d="M6.1,587.1 V611.5" stroke="#fea62b" stroke-width="1.8" fill="none"/><path fill="#e0e0e0" transform="translate(37.82 608.769) scale(0.0253873 -0.0253873)" d="M843 483V547H710V804H634V260H710V483ZM710 -58V215H157V-58ZM634 5H233V153H634ZM411 721V785H166V721ZM543 596V659H34V596ZM491 414C491 504 403 558 288 558C171 558 85 504 85 414C85 326 172 270 288 270C403 270 491 327 491 414ZM416 414C416 361 356 329 288 329C221 329 158 361 158 414C158 468 220 499 288 499C356 499 416 468 416 414Z"/><path fill="#e0e0e0" transform="translate(62.22 608.617) scale(0.0253873 -0.0253873)" d="M444 699H288V635H368C371 491 353 292 222 133L285 91C358 189 399 286 419 389H543V-26H617V783H543V453H431C441 529 443 610 444 699ZM775 -70V804H700V-70ZM249 699H51V635H175C175 518 149 328 19 184L79 142C208 294 249 479 249 699Z"/><path fill="#e0e0e0" transform="translate(97.6 605.6) scale(0.0102564 -0.0102564)" d="M1075 991Q1075 836 978.0 740.5Q881 645 739 611L1147 0H939L563 591H377V0H203V1377H557Q812 1377 943.5 1279.5Q1075 1182 1075 991ZM889 991Q889 1123 812.5 1181.0Q736 1239 577 1239H377V727H577Q725 727 807.0 787.5Q889 848 889 991Z"/><path fill="#e0e0e0" transform="translate(109.8 605.6) scale(0.0102564 -0.0102564)" d="M425 1235V771H935V628H425V139H1051V0H251V1377H1033L1013 1235Z"/><path fill="#e0e0e0" transform="translate(122 605.6) scale(0.0102564 -0.0102564)" d="M867 351H322L212 0H41L489 1377H711L1159 0H977ZM367 495H822L596 1231Z"/><path fill="#e0e0e0" transform="translate(134.2 605.6) scale(0.0102564 -0.0102564)" d="M1105 695Q1105 479 1049.0 342.5Q993 206 901.0 131.5Q809 57 699.5 28.5Q590 0 483 0H167V1377H461Q582 1377 696.5 1350.0Q811 1323 903.5 1250.5Q996 1178 1050.5 1044.0Q1105 910 1105 695ZM920 695Q920 875 882.0 983.0Q844 1091 782.0 1145.0Q720 1199 646.5 1217.0Q573 1235 502 1235H340V139H504Q578 139 652.0 162.5Q726 186 786.5 246.0Q847 306 883.5 415.0Q920 524 920 695Z"/><path fill="#e0e0e0" transform="translate(146.4 605.6) scale(0.0102564 -0.0102564)" d="M1061 1377 1139 0H972L929 719Q924 815 921.5 915.0Q919 1015 918.0 1096.5Q917 1178 918 1218L686 247H512L263 1218Q265 1179 266.0 1094.0Q267 1009 266.0 908.0Q265 807 261 721L224 0H61L139 1377H381L604 434L817 1377Z"/><path fill="#e0e0e0" transform="translate(158.6 605.6) scale(0.0102564 -0.0102564)" d="M425 1235V771H935V628H425V139H1051V0H251V1377H1033L1013 1235Z"/><path fill="#e0e0e0" transform="translate(184.22 608.617) scale(0.0253873 -0.0253873)" d="M680 804V-70H756V804ZM542 528C542 656 444 736 315 736C188 736 87 651 87 528C87 411 186 325 315 325C441 325 542 404 542 528ZM468 528C468 446 398 389 315 389C230 389 161 447 161 528C161 610 231 671 315 671C400 671 468 616 468 528ZM629 152 622 214C558 206 445 199 323 195C217 189 114 187 39 188L53 121C119 122 215 125 318 130C429 135 554 143 629 152Z"/><path fill="#e0e0e0" transform="translate(219.6 605.6) scale(0.0102564 -0.0102564)" d="M526 957 495 1477H705L674 957Z"/><path fill="#e0e0e0" transform="translate(233.02 608.617) scale(0.0253873 -0.0253873)" d="M729 804H656V-70H729V398H854V462H729ZM291 146V721H224V495H133V721H66V146ZM224 209H133V432H224ZM577 146V721H509V495H419V721H352V146ZM509 209H419V432H509Z"/><path fill="#e0e0e0" transform="translate(257.42 608.465) scale(0.0253873 -0.0253873)" d="M744 386V448H213V550H727V766H137V704H650V608H137V386ZM827 241V304H38V241ZM738 -44V19H212V183H136V-44Z"/><path fill="#e0e0e0" transform="translate(294.02 608.617) scale(0.0253873 -0.0253873)" d="M758 -70V804H681V-70ZM570 198C449 270 343 413 343 573V728H266V570C266 415 161 256 33 176L83 119C184 191 274 298 306 407C340 302 443 194 522 140Z"/><path fill="#e0e0e0" transform="translate(318.42 608.604) scale(0.0253873 -0.0253873)" d="M43 677H244C244 655 243 638 243 630C239 514 128 404 18 362L62 303C156 343 258 437 282 519C318 440 407 361 491 327L533 388C433 421 329 517 322 629C321 638 321 655 321 677H520V741H43ZM146 239V176H634V-71H710V239ZM842 504V568H709V804H633V285H709V504Z"/><path fill="#e0e0e0" transform="translate(341.6 605.6) scale(0.0102564 -0.0102564)" d="M526 957 495 1477H705L674 957Z"/><path fill="#e0e0e0" transform="translate(367.22 608.693) scale(0.0253873 -0.0253873)" d="M785 -64V0H266V97H753V308H187V244H677V156H190V-64ZM55 689H259V660C258 544 143 438 33 396L74 338C168 378 274 468 298 550C334 471 427 396 510 362L552 421C452 454 340 547 338 659L337 689H537V753H55ZM752 354V804H676V602H506V539H676V354Z"/><path fill="#e0e0e0" transform="translate(391.62 608.617) scale(0.0253873 -0.0253873)" d="M244 728C117 728 52 604 52 429C52 253 117 130 244 130C364 130 428 237 436 395H530V-28H604V787H530V458H436C430 617 365 728 244 728ZM361 429C361 287 315 197 244 197C174 197 129 287 129 429C129 570 174 661 244 661C315 661 361 570 361 429ZM775 -70V804H700V-70Z"/><path fill="#e0e0e0" transform="translate(428.22 608.465) scale(0.0253873 -0.0253873)" d="M786 403C653 416 497 483 475 587H752V651H112V587H392C369 483 221 415 81 401L115 337C266 356 392 430 432 511C477 431 609 359 751 339ZM469 -71V207H827V271H38V207H393V-71ZM575 727V793H290V727Z"/><path fill="#e0e0e0" transform="translate(452.62 608.617) scale(0.0253873 -0.0253873)" d="M710 804H634V-70H710V375H853V440H710ZM483 710H72V646H401C385 449 260 265 42 164L89 104C314 221 478 426 483 710Z"/><path fill="#e0e0e0" transform="translate(477.02 608.617) scale(0.0253873 -0.0253873)" d="M775 -70V804H700V447H595V783H521V-26H595V383H700V-70ZM455 303C455 408 377 478 264 478C152 478 73 409 73 303C73 203 152 129 264 129C377 129 455 198 455 303ZM382 303C382 237 333 192 264 192C195 192 147 235 147 303C147 370 195 414 264 414C333 414 382 370 382 303ZM471 528V591H36V528ZM377 671V737H138V671Z"/><path fill="#e0e0e0" transform="translate(501.42 608.617) scale(0.0253873 -0.0253873)" d="M474 146H685V-70H761V804H685V208H474ZM556 678V741H79V678H285V675C285 549 156 474 64 451L98 394C195 423 298 495 323 562C357 498 465 431 546 413L580 475C498 493 360 552 360 676V678ZM356 -44V277C462 283 558 291 620 298L614 358C544 350 436 343 323 338C227 335 133 333 30 333L41 267C115 269 200 271 280 274V-44Z"/><path d="M1091.9,587.1 V611.5" stroke="#fea62b" stroke-width="1.8" fill="none"/><path d="M6.1,611.5 L6.1,618.21 Q6.1,623.7 11.59,623.7 L12.2,623.7" stroke="#fea62b" stroke-width="1.8" fill="none"/><path d="M12.2,623.7 H24.4" stroke="#fea62b" stroke-width="1.8" fill="none"/><path d="M24.4,623.7 H36.6" stroke="#fea62b" stroke-width="1.8" fill="none"/><path d="M36.6,623.7 H48.8" stroke="#fea62b" stroke-width="1.8" fill="none"/><path d="M48.8,623.7 H61" stroke="#fea62b" stroke-width="1.8" fill="none"/><path d="M61,623.7 H73.2" stroke="#fea62b" stroke-width="1.8" fill="none"/><path d="M73.2,623.7 H85.4" stroke="#fea62b" stroke-width="1.8" fill="none"/><path d="M85.4,623.7 H97.6" stroke="#fea62b" stroke-width="1.8" fill="none"/><path d="M97.6,623.7 H109.8" stroke="#fea62b" stroke-width="1.8" fill="none"/><path d="M109.8,623.7 H122" stroke="#fea62b" stroke-width="1.8" fill="none"/><path d="M122,623.7 H134.2" stroke="#fea62b" stroke-width="1.8" fill="none"/><path d="M134.2,623.7 H146.4" stroke="#fea62b" stroke-width="1.8" fill="none"/><path d="M146.4,623.7 H158.6" stroke="#fea62b" stroke-width="1.8" fill="none"/><path d="M158.6,623.7 H170.8" stroke="#fea62b" stroke-width="1.8" fill="none"/><path d="M170.8,623.7 H183" stroke="#fea62b" stroke-width="1.8" fill="none"/><path d="M183,623.7 H195.2" stroke="#fea62b" stroke-width="1.8" fill="none"/><path d="M195.2,623.7 H207.4" stroke="#fea62b" stroke-width="1.8" fill="none"/><path d="M207.4,623.7 H219.6" stroke="#fea62b" stroke-width="1.8" fill="none"/><path d="M219.6,623.7 H231.8" stroke="#fea62b" stroke-width="1.8" fill="none"/><path d="M231.8,623.7 H244" stroke="#fea62b" stroke-width="1.8" fill="none"/><path d="M244,623.7 H256.2" stroke="#fea62b" stroke-width="1.8" fill="none"/><path d="M256.2,623.7 H268.4" stroke="#fea62b" stroke-width="1.8" fill="none"/><path d="M268.4,623.7 H280.6" stroke="#fea62b" stroke-width="1.8" fill="none"/><path d="M280.6,623.7 H292.8" stroke="#fea62b" stroke-width="1.8" fill="none"/><path d="M292.8,623.7 H305" stroke="#fea62b" stroke-width="1.8" fill="none"/><path d="M305,623.7 H317.2" stroke="#fea62b" stroke-width="1.8" fill="none"/><path d="M317.2,623.7 H329.4" stroke="#fea62b" stroke-width="1.8" fill="none"/><path d="M329.4,623.7 H341.6" stroke="#fea62b" stroke-width="1.8" fill="none"/><path d="M341.6,623.7 H353.8" stroke="#fea62b" stroke-width="1.8" fill="none"/><path d="M353.8,623.7 H366" stroke="#fea62b" stroke-width="1.8" fill="none"/><path d="M366,623.7 H378.2" stroke="#fea62b" stroke-width="1.8" fill="none"/><path d="M378.2,623.7 H390.4" stroke="#fea62b" stroke-width="1.8" fill="none"/><path d="M390.4,623.7 H402.6" stroke="#fea62b" stroke-width="1.8" fill="none"/><path d="M402.6,623.7 H414.8" stroke="#fea62b" stroke-width="1.8" fill="none"/><path d="M414.8,623.7 H427" stroke="#fea62b" stroke-width="1.8" fill="none"/><path d="M427,623.7 H439.2" stroke="#fea62b" stroke-width="1.8" fill="none"/><path d="M439.2,623.7 H451.4" stroke="#fea62b" stroke-width="1.8" fill="none"/><path d="M451.4,623.7 H463.6" stroke="#fea62b" stroke-width="1.8" fill="none"/><path d="M463.6,623.7 H475.8" stroke="#fea62b" stroke-width="1.8" fill="none"/><path d="M475.8,623.7 H488" stroke="#fea62b" stroke-width="1.8" fill="none"/><path d="M488,623.7 H500.2" stroke="#fea62b" stroke-width="1.8" fill="none"/><path d="M500.2,623.7 H512.4" stroke="#fea62b" stroke-width="1.8" fill="none"/><path d="M512.4,623.7 H524.6" stroke="#fea62b" stroke-width="1.8" fill="none"/><path d="M524.6,623.7 H536.8" stroke="#fea62b" stroke-width="1.8" fill="none"/><path d="M536.8,623.7 H549" stroke="#fea62b" stroke-width="1.8" fill="none"/><path d="M549,623.7 H561.2" stroke="#fea62b" stroke-width="1.8" fill="none"/><path d="M561.2,623.7 H573.4" stroke="#fea62b" stroke-width="1.8" fill="none"/><path d="M573.4,623.7 H585.6" stroke="#fea62b" stroke-width="1.8" fill="none"/><path d="M585.6,623.7 H597.8" stroke="#fea62b" stroke-width="1.8" fill="none"/><path d="M597.8,623.7 H610" stroke="#fea62b" stroke-width="1.8" fill="none"/><path d="M610,623.7 H622.2" stroke="#fea62b" stroke-width="1.8" fill="none"/><path d="M622.2,623.7 H634.4" stroke="#fea62b" stroke-width="1.8" fill="none"/><path d="M634.4,623.7 H646.6" stroke="#fea62b" stroke-width="1.8" fill="none"/><path d="M646.6,623.7 H658.8" stroke="#fea62b" stroke-width="1.8" fill="none"/><path d="M658.8,623.7 H671" stroke="#fea62b" stroke-width="1.8" fill="none"/><path d="M671,623.7 H683.2" stroke="#fea62b" stroke-width="1.8" fill="none"/><path d="M683.2,623.7 H695.4" stroke="#fea62b" stroke-width="1.8" fill="none"/><path d="M695.4,623.7 H707.6" stroke="#fea62b" stroke-width="1.8" fill="none"/><path d="M707.6,623.7 H719.8" stroke="#fea62b" stroke-width="1.8" fill="none"/><path d="M719.8,623.7 H732" stroke="#fea62b" stroke-width="1.8" fill="none"/><path d="M732,623.7 H744.2" stroke="#fea62b" stroke-width="1.8" fill="none"/><path d="M744.2,623.7 H756.4" stroke="#fea62b" stroke-width="1.8" fill="none"/><path d="M756.4,623.7 H768.6" stroke="#fea62b" stroke-width="1.8" fill="none"/><path d="M768.6,623.7 H780.8" stroke="#fea62b" stroke-width="1.8" fill="none"/><path d="M780.8,623.7 H793" stroke="#fea62b" stroke-width="1.8" fill="none"/><path d="M793,623.7 H805.2" stroke="#fea62b" stroke-width="1.8" fill="none"/><path d="M805.2,623.7 H817.4" stroke="#fea62b" stroke-width="1.8" fill="none"/><path d="M817.4,623.7 H829.6" stroke="#fea62b" stroke-width="1.8" fill="none"/><path d="M829.6,623.7 H841.8" stroke="#fea62b" stroke-width="1.8" fill="none"/><path d="M841.8,623.7 H854" stroke="#fea62b" stroke-width="1.8" fill="none"/><path d="M854,623.7 H866.2" stroke="#fea62b" stroke-width="1.8" fill="none"/><path d="M866.2,623.7 H878.4" stroke="#fea62b" stroke-width="1.8" fill="none"/><path d="M878.4,623.7 H890.6" stroke="#fea62b" stroke-width="1.8" fill="none"/><path d="M890.6,623.7 H902.8" stroke="#fea62b" stroke-width="1.8" fill="none"/><path d="M902.8,623.7 H915" stroke="#fea62b" stroke-width="1.8" fill="none"/><path d="M915,623.7 H927.2" stroke="#fea62b" stroke-width="1.8" fill="none"/><path d="M927.2,623.7 H939.4" stroke="#fea62b" stroke-width="1.8" fill="none"/><path d="M939.4,623.7 H951.6" stroke="#fea62b" stroke-width="1.8" fill="none"/><path d="M951.6,623.7 H963.8" stroke="#fea62b" stroke-width="1.8" fill="none"/><path d="M963.8,623.7 H976" stroke="#fea62b" stroke-width="1.8" fill="none"/><path d="M976,623.7 H988.2" stroke="#fea62b" stroke-width="1.8" fill="none"/><path d="M988.2,623.7 H1000.4" stroke="#fea62b" stroke-width="1.8" fill="none"/><path d="M1000.4,623.7 H1012.6" stroke="#fea62b" stroke-width="1.8" fill="none"/><path d="M1012.6,623.7 H1024.8" stroke="#fea62b" stroke-width="1.8" fill="none"/><path d="M1024.8,623.7 H1037" stroke="#fea62b" stroke-width="1.8" fill="none"/><path d="M1037,623.7 H1049.2" stroke="#fea62b" stroke-width="1.8" fill="none"/><path d="M1049.2,623.7 H1061.4" stroke="#fea62b" stroke-width="1.8" fill="none"/><path d="M1061.4,623.7 H1073.6" stroke="#fea62b" stroke-width="1.8" fill="none"/><path d="M1073.6,623.7 H1085.8" stroke="#fea62b" stroke-width="1.8" fill="none"/><path d="M1091.9,611.5 L1091.9,618.21 Q1091.9,623.7 1086.41,623.7 L1085.8,623.7" stroke="#fea62b" stroke-width="1.8" fill="none"/>
    </g>
    </g>
</svg>
